<?xml version="1.0" standalone="no"?>
<!DOCTYPE svg PUBLIC "-//W3C//DTD SVG 1.1//EN" "http://www.w3.org/Graphics/SVG/1.1/DTD/svg11.dtd" >
<svg xmlns="http://www.w3.org/2000/svg">
<metadata></metadata>
<defs>
<font id="gist_uprightlight" horiz-adv-x="1830" >
<font-face units-per-em="2048" ascent="1638" descent="-410" />
<missing-glyph horiz-adv-x="581" />
<glyph unicode="&#xfb01;" horiz-adv-x="1372" d="M-426 -262l55 -6q-10 -134 88 -224t242 -90q184 0 286.5 129t102.5 385v1074h690v-922h-286v55h231v811h-580v-1018q0 -277 -118.5 -423t-325.5 -146q-166 0 -282 107.5t-103 267.5zM-342 -270l55 -6q-9 -92 64.5 -157t181.5 -65q144 0 224.5 106t80.5 324v1018h-231v56 h286v-1074q0 -244 -94.5 -364.5t-265.5 -120.5q-132 0 -221.5 81t-79.5 202zM33 1034v56h231v61q0 312 127 475.5t350 163.5q114 0 210.5 -52.5t152 -149.5t45.5 -214l-55 4q12 152 -93 254.5t-260 102.5q-198 0 -310 -147.5t-112 -436.5v-117h-286zM348 1034v117 q0 278 103.5 416.5t289.5 138.5q142 0 239 -93.5t85 -230.5l-55 4q9 109 -71 187t-198 78q-158 0 -248 -124t-90 -376v-61h719v-951h232v-55h-287v950h-719zM752 0v55h602v-55h-602z" />
<glyph unicode="&#xfb02;" horiz-adv-x="1527" d="M-426 -262l55 -6q-9 -136 88.5 -225t245.5 -89q179 0 282 129.5t103 384.5v1074h434v-56h-379v-1018q0 -276 -118.5 -422.5t-321.5 -146.5q-170 0 -286 106.5t-103 268.5zM-342 -270l55 -6q-7 -94 65 -158t185 -64q139 0 220 106.5t81 323.5v1018h-231v56h286v-1074 q0 -240 -96 -362.5t-260 -122.5q-137 0 -225.5 80t-79.5 203zM33 1034v56h231v131q0 276 129 422.5t342 146.5q136 0 254 -62t168 -145v-1233q0 -70 15 -118.5t41.5 -71.5t52 -32t55.5 -9q74 0 141 59l37 -41q-85 -74 -178 -74q-29 0 -56 6t-58 25t-53 49t-37 83.5 t-15 123.5v1217q-49 70 -149.5 119t-217.5 49q-191 0 -303.5 -130.5t-112.5 -383.5v-187h-286zM348 1034v187q0 241 104 363t283 122q109 0 199.5 -41.5t138.5 -105.5v-1209q0 -75 17.5 -133.5t43.5 -92t61 -54.5t65 -28t61 -7q101 0 197 80l36 -39q-52 -47 -114 -71.5 t-119 -24.5q-35 0 -71.5 8.5t-79.5 33.5t-76 64t-55.5 107.5t-22.5 156.5v1188q-43 48 -118.5 80.5t-162.5 32.5q-154 0 -243 -107.5t-89 -322.5v-131h379v-56h-434z" />
<glyph unicode="&#xfb03;" horiz-adv-x="2138" d="M-426 -262l55 -6q-9 -135 88 -224.5t246 -89.5q179 0 282 129.5t103 384.5v1074h737v-1074q0 -244 -95.5 -364.5t-266.5 -120.5q-121 0 -207 70l35 43q70 -58 172 -58q144 0 224.5 106t80.5 324v1018h-625v-1018q0 -276 -118.5 -422.5t-321.5 -146.5q-170 0 -286 106.5 t-103 268.5zM-342 -270l55 -6q-7 -94 65 -158t185 -64q139 0 220 106.5t81 323.5v1018h-231v56h286v-1074q0 -240 -96 -362.5t-260 -122.5q-137 0 -225.5 80t-79.5 203zM33 1034v56h231q7 306 145 469t359 163q103 0 198 -37t164 -98q123 203 375 203q85 0 163 -31.5 t135.5 -85.5t88 -132.5t23.5 -166.5l-55 4q8 101 -39 183.5t-131 128t-185 45.5q-257 0 -362 -242q-58 74 -159 124t-216 50q-204 0 -326.5 -156t-122.5 -456v-21h-286zM348 1034v21q0 285 115.5 434t304.5 149q115 0 213.5 -51.5t148.5 -126.5q-45 -122 -45 -309v-117h-737 zM403 1090h625v61q0 168 39 299q-47 57 -127 95t-172 38q-161 0 -260 -124t-105 -369zM465 -549l35 43q95 -76 223 -76q185 0 288 129t103 385v1074h688v-922h-286v55h231v811h-578v-1018q0 -277 -119 -423t-327 -146q-70 0 -139 24t-119 64zM1114 1034v117q0 278 103 416.5 t288 138.5q142 0 239 -93.5t87 -230.5l-55 4q9 109 -72 187t-199 78q-158 0 -247 -123.5t-89 -376.5v-61h717v-951h232v-55h-287v950h-717zM1516 0v55h602v-55h-602z" />
<glyph unicode="&#xfb04;" horiz-adv-x="2291" d="M-426 -262l55 -6q-9 -136 88.5 -225t245.5 -89q179 0 282 129.5t103 384.5v1074h737v-1074q0 -244 -95.5 -364.5t-266.5 -120.5q-121 0 -207 70l35 43q70 -58 172 -58q144 0 224.5 106t80.5 324v1018h-625v-1018q0 -276 -118.5 -422.5t-321.5 -146.5q-170 0 -286 106.5 t-103 268.5zM-342 -270l55 -6q-7 -94 65 -158t185 -64q139 0 220 106.5t81 323.5v1018h-231v56h286v-1074q0 -240 -96 -362.5t-260 -122.5q-137 0 -225.5 80t-79.5 203zM33 1034v56h231q6 306 142.5 469t357.5 163q100 0 193 -36t161 -95q63 98 161 148.5t220 50.5 q138 0 255.5 -62t166.5 -145v-1233q0 -70 15.5 -118.5t42 -71.5t52.5 -32t56 -9q72 0 139 59l37 -41q-82 -74 -176 -74q-29 0 -56.5 6t-58.5 25t-53.5 49t-37.5 83.5t-15 123.5v1217q-47 70 -147.5 119t-219.5 49q-128 0 -222 -60t-144 -178q-58 72 -157 121t-212 49 q-203 0 -324 -154t-121 -452v-27h-286zM348 1034v27q0 282 114 429.5t302 147.5q114 0 210 -50.5t146 -125.5q-35 -103 -35 -241v-187h-737zM403 1090h625v131q0 128 31 233q-49 56 -127.5 92.5t-167.5 36.5q-159 0 -257 -123.5t-104 -369.5zM465 -549l35 43q95 -76 223 -76 q185 0 288 129t103 385v1074h432v-56h-377v-1018q0 -277 -119 -423t-327 -146q-70 0 -139 24t-119 64zM1114 1034v187q0 241 104 363t281 122q109 0 200 -42t138 -105v-1209q0 -75 17.5 -133.5t44 -92t62 -54.5t65.5 -28t61 -7q102 0 194 80l39 -39q-108 -96 -233 -96 q-35 0 -71.5 8.5t-79.5 33.5t-76 64t-55.5 107.5t-22.5 156.5v1188q-43 48 -118.5 80.5t-164.5 32.5q-153 0 -241.5 -107.5t-88.5 -322.5v-131h377v-56h-432z" />
<glyph horiz-adv-x="2048" />
<glyph horiz-adv-x="2048" />
<glyph unicode="&#xd;" horiz-adv-x="2048" />
<glyph unicode=" "  horiz-adv-x="581" />
<glyph unicode="&#x09;" horiz-adv-x="581" />
<glyph unicode="&#xa0;" horiz-adv-x="581" />
<glyph unicode="!" horiz-adv-x="585" d="M168 96q0 51 37 88t88 37t88 -37t37 -88t-37 -87t-88 -36t-88 36t-37 87zM221 96q0 -29 21.5 -50t50.5 -21t50.5 21t21.5 50t-21.5 50.5t-50.5 21.5t-50.5 -21.5t-21.5 -50.5zM223 424v1173h56v-1173h-56zM250 96q0 19 12 31t31 12t31 -12t12 -31q0 -18 -12.5 -30.5 t-30.5 -12.5t-30.5 12.5t-12.5 30.5zM307 424v1173h55v-1173h-55z" />
<glyph unicode="&#x22;" horiz-adv-x="899" d="M164 965v632h55v-632h-55zM248 965v632h55v-632h-55zM598 965v632h55v-632h-55zM682 965v632h55v-632h-55z" />
<glyph unicode="#" horiz-adv-x="1476" d="M96 440v56h324l-86 -496h-58l76 440h-256zM96 524v58h281l74 419h-265v56h332l-94 -533h-328zM186 1085v56h289l80 456h57l-90 -512h-336zM362 0l87 496h471l-86 -496h-58l76 440h-356l-76 -440h-58zM453 524l94 533h471l-94 -533h-471zM520 582h357l73 419h-356z M551 1085l90 512h57l-80 -456h357l80 456h57l-90 -512h-471zM862 0l86 496h336v-56h-289l-75 -440h-58zM952 524l95 533h333v-56h-286l-74 -419h264v-58h-332zM1051 1085l90 512h57l-80 -456h262v-56h-329z" />
<glyph unicode="$" horiz-adv-x="1224" d="M113 555l57 -6q-10 -105 19.5 -186.5t89.5 -131t137.5 -76.5t171.5 -32v-221h-56v172q-74 9 -138.5 31.5t-120.5 62t-93.5 93.5t-56 129t-10.5 165zM135 1157q0 151 107.5 252.5t289.5 116.5v170h56v-221q-184 -1 -291 -90t-107 -228q0 -60 22 -109.5t55.5 -84.5 t89.5 -67.5t106.5 -53.5t124.5 -47v-643q-90 5 -162.5 29.5t-128 70.5t-82 121.5t-16.5 173.5l55 -4q-14 -148 61 -230t217 -102v545q-70 26 -120.5 49.5t-106 59t-90 75t-57.5 95.5t-23 122zM219 1157q0 127 99 207.5t270 81.5v-619q-70 25 -118 45t-99.5 49.5t-82 61.5 t-50 76.5t-19.5 97.5zM274 1157q0 -87 65 -144.5t193 -107.5v481q-121 -12 -189.5 -75.5t-68.5 -153.5zM616 -98v221h11q206 0 320 89.5t114 229.5q0 65 -31.5 121t-67 89.5t-109.5 70.5t-109.5 50t-116.5 40q-7 3 -11 4v627q174 -6 275 -101.5t80 -265.5l-56 8 q17 126 -50 202.5t-193 96.5v-528q47 -15 82 -28t84 -35t85 -44t74.5 -55t62.5 -68.5t40 -83t16 -100.5q0 -155 -118.5 -258.5t-325.5 -115.5v-166h-56zM616 152v634q45 -15 61 -20.5t60.5 -22.5t64.5 -27t58 -29.5t57 -35.5t45 -40.5t38.5 -48.5t22 -55t9.5 -65 q0 -125 -107.5 -207.5t-297.5 -82.5h-11zM616 1475v221h56v-172q89 -11 163 -45.5t128.5 -90t79.5 -138.5t12 -183l-56 6q21 181 -90 287.5t-293 114.5zM672 209q147 9 226 73.5t79 159.5q0 51 -25 93t-72 74.5t-95 54.5t-113 45v-500z" />
<glyph unicode="%" horiz-adv-x="2033" d="M82 1241q0 160 110.5 270.5t270.5 110.5t271.5 -110.5t111.5 -270.5q0 -159 -112 -271t-271 -112t-270 112t-111 271zM137 1241q0 -133 96.5 -229.5t229.5 -96.5q135 0 231.5 96t96.5 230t-96.5 230t-231.5 96q-133 0 -229.5 -96.5t-96.5 -229.5zM166 1241q0 125 86 211 t211 86q126 0 212.5 -86t86.5 -211t-86.5 -211t-212.5 -86q-125 0 -211 86t-86 211zM221 1241q0 -100 71 -171t171 -71t171 71t71 171t-71 171t-171 71t-171 -71t-71 -171zM438 0l992 1597h65l-991 -1597h-66zM539 0l991 1597h65l-991 -1597h-65zM1188 358 q0 160 110.5 270.5t270.5 110.5t270.5 -110.5t110.5 -270.5t-110.5 -271.5t-270.5 -111.5t-270.5 111.5t-110.5 271.5zM1243 358q0 -135 96 -230t230 -95t229.5 95t95.5 230q0 134 -96 230t-229 96t-229.5 -96t-96.5 -230zM1272 358q0 124 86 210.5t211 86.5t211 -86.5 t86 -210.5q0 -126 -86 -211.5t-211 -85.5t-211 85.5t-86 211.5zM1327 358q0 -100 71 -170.5t171 -70.5t170.5 70.5t70.5 170.5t-70.5 171t-170.5 71t-171 -71t-71 -171z" />
<glyph unicode="&#x26;" horiz-adv-x="1650" d="M111 563q0 203 125 365t319 215q-49 73 -49 172q0 136 95 230.5t239 94.5q97 0 170.5 -47t106 -117.5t23.5 -158t-67 -162.5l-43 35q46 61 53.5 132t-19 128.5t-86 96t-138.5 38.5q-118 0 -198.5 -80t-80.5 -190q0 -134 109 -209q-139 -11 -255 -87.5t-182.5 -197 t-66.5 -258.5q0 -151 71.5 -276t203 -199t296.5 -74q113 0 208.5 37.5t157.5 98.5t96 137.5t34 156.5q0 98 -47 173.5t-123 119.5q24 60 47 102t56 82t77.5 60t99.5 20q79 0 129 -51.5t50 -120.5q0 -80 -58 -147l-41 37q43 49 43 110q0 46 -35.5 81.5t-87.5 35.5 q-74 0 -122 -47.5t-91 -140.5q73 -54 115.5 -134t42.5 -180q0 -92 -37.5 -178t-105.5 -155t-174.5 -110.5t-233.5 -41.5q-137 0 -254.5 47.5t-198.5 129t-127 192.5t-46 235zM195 563q0 139 68.5 257.5t188.5 188.5t263 70q55 -25 125 -28l-2 -56q-66 3 -133 29 q-124 -3 -229 -66.5t-165.5 -168.5t-60.5 -226q0 -129 60.5 -234.5t172.5 -168t254 -62.5q95 0 175 30t130.5 79.5t78.5 110.5t28 126q0 109 -72 181q-21 -50 -42 -89t-52.5 -81.5t-65.5 -70.5t-82 -46.5t-102 -18.5q-104 0 -176 71t-72 175q0 130 107 206.5t268 76.5 q71 0 148 -25q25 55 53.5 98t68.5 82t94 60.5t119 21.5q116 0 190.5 -76t74.5 -180q0 -49 -22.5 -105t-59.5 -97l-41 35q65 74 65 167q0 78 -59.5 139.5t-147.5 61.5q-60 0 -109 -22t-85.5 -65.5t-61 -86t-51.5 -104.5q-84 41 -176 41q-136 0 -227.5 -63.5t-91.5 -164.5 q0 -78 56.5 -134t135.5 -56q33 0 63 7t55 23.5t45.5 33t40.5 45.5t33.5 50t30.5 58.5t26.5 59t25.5 61.5q69 -41 110 -109.5t41 -159.5q0 -76 -31.5 -147t-88.5 -128t-147.5 -91.5t-199.5 -34.5q-120 0 -222 40.5t-171.5 110.5t-109 165.5t-39.5 203.5zM569 565 q0 90 81 144.5t210 54.5q91 0 166 -37q-19 -47 -28.5 -70t-29.5 -64t-34.5 -62.5t-37.5 -50t-46 -42.5t-53 -24.5t-64 -10.5q-70 0 -117 46.5t-47 115.5zM590 1315q0 101 70.5 171t179.5 70q70 0 123 -33.5t76.5 -84t16.5 -114t-50 -118.5l-43 35q33 43 39.5 90t-10.5 84 t-57 61.5t-95 24.5q-85 0 -140 -54t-55 -132q0 -75 55 -126t144 -54l-4 -56q-112 6 -181 71t-69 165zM625 565q0 -43 32 -74.5t76 -31.5q76 0 124.5 58.5t96.5 176.5q-46 15 -94 15q-105 0 -170 -41.5t-65 -102.5z" />
<glyph unicode="'" horiz-adv-x="464" d="M162 965v632h55v-632h-55zM246 965v632h55v-632h-55z" />
<glyph unicode="(" horiz-adv-x="720" d="M88 639q0 198 41.5 383.5t114 333t161.5 264t191 199.5l35 -45q-99 -80 -184 -191t-154 -253t-108.5 -320.5t-39.5 -370.5q0 -191 39.5 -369.5t108.5 -320t154 -252.5t184 -191l-35 -45q-102 83 -191 199.5t-161.5 264t-114 332.5t-41.5 382zM174 639q0 188 38 362.5 t105 313t150 247.5t180 189l37 -43q-92 -75 -172 -179.5t-144.5 -237.5t-101.5 -301.5t-37 -350.5q0 -181 37 -349t101.5 -301t144.5 -237.5t172 -179.5l-37 -43q-97 80 -180 188.5t-150 247t-105 312.5t-38 362z" />
<glyph unicode=")" horiz-adv-x="720" d="M37 -422q92 75 172 179.5t144.5 237.5t101.5 301.5t37 350.5q0 181 -37 349t-101.5 301t-144.5 237.5t-172 179.5l37 43q97 -80 180 -188.5t150 -247t105 -312.5t38 -362t-38 -362.5t-105 -313t-150 -247.5t-180 -189zM90 -487q99 80 183.5 191t153.5 252.5t108.5 320 t39.5 370.5q0 191 -39.5 369.5t-108.5 320t-154 253t-183 190.5l35 45q102 -83 191 -199.5t161.5 -264t114 -332.5t41.5 -382q0 -198 -41.5 -383t-114 -332.5t-161 -263.5t-191.5 -200z" />
<glyph unicode="*" horiz-adv-x="972" d="M117 1313l16 53l328 -111l-201 -276l-45 33l158 215zM143 1393l17 53l256 -86v268h55v-344zM283 961l202 278l203 -281l-43 -30l-160 217l-155 -215zM500 1284v344h55v-270l258 86l16 -51zM508 1255l330 109l18 -53l-258 -86l160 -215l-45 -33z" />
<glyph unicode="+" horiz-adv-x="1126" d="M115 680v55h432v-434h-55v379h-377zM115 764v55h377v377h55v-432h-432zM575 301v434h437v-55h-381v-379h-56zM575 764v432h56v-377h381v-55h-437z" />
<glyph unicode="," horiz-adv-x="630" d="M133 -268q14 13 35 36.5t67 87.5t68 119q-42 5 -74 38.5t-32 82.5q0 51 37 88t88 37q54 0 92.5 -42t38.5 -116q0 -57 -23.5 -121t-56.5 -115.5t-66 -94.5t-57 -66l-23 -24l-37 34q9 9 23 24t50.5 61t64 91t50.5 105t23 111q0 50 -23 75t-56 25q-29 0 -50.5 -21.5 t-21.5 -50.5t21.5 -49.5t50.5 -17.5l2 28q-16 -5 -30.5 7t-14.5 32q0 19 12 31t31 12q51 0 51 -78q0 -45 -21 -99.5t-50.5 -99.5t-59.5 -83t-51 -60l-21 -22z" />
<glyph unicode="-" horiz-adv-x="813" d="M147 567v56h519v-56h-519zM147 651v58h519v-58h-519z" />
<glyph unicode="." horiz-adv-x="528" d="M139 96q0 51 37 88t88 37t88 -37t37 -88t-37 -87t-88 -36t-88 36t-37 87zM193 96q0 -29 21 -50t50 -21t50.5 21t21.5 50t-21.5 50.5t-50.5 21.5t-50 -21.5t-21 -50.5zM221 96q0 19 12 31t31 12t31 -12t12 -31q0 -18 -12.5 -30.5t-30.5 -12.5t-30.5 12.5t-12.5 30.5z" />
<glyph unicode="/" horiz-adv-x="1402" d="M59 -467l1127 2214h63l-1128 -2214h-62zM152 -467l1128 2214h61l-1128 -2214h-61z" />
<glyph unicode="0" horiz-adv-x="1454" d="M121 799q0 169 40 318t115 263.5t191.5 181t259.5 66.5t259 -66.5t191 -181t115.5 -263.5t40.5 -318q0 -134 -25 -257.5t-76 -227.5t-122.5 -181t-169.5 -120.5t-213 -43.5q-143 0 -259.5 66.5t-191.5 181.5t-115 264t-40 318zM176 799q0 -127 23.5 -242.5t70 -212.5 t112 -168t154 -111t191.5 -40q102 0 190.5 40t154 111t112.5 168t70.5 212.5t23.5 242.5t-23.5 242.5t-70.5 212.5t-112.5 168t-154 111t-190.5 40q-103 0 -191.5 -40t-154 -111t-112 -168t-70 -212.5t-23.5 -242.5zM205 799q0 156 35 291t100 236.5t165 159.5t222 58 q98 0 181.5 -37.5t145.5 -105.5t106.5 -161t66.5 -205t22 -236q0 -209 -60 -376.5t-180.5 -268.5t-281.5 -101q-98 0 -182 37.5t-146 105.5t-106 161t-66 205.5t-22 236.5zM260 799q0 -196 55 -351.5t162 -247t250 -91.5q142 0 249 91.5t162.5 247.5t55.5 351t-55.5 351 t-162.5 247.5t-249 91.5q-143 0 -250 -91.5t-162 -247t-55 -351.5z" />
<glyph unicode="1" horiz-adv-x="804" d="M84 1520l326 118l16 -53l-322 -117zM113 1440l305 110v-1466h-287v55h231v1331l-229 -84zM131 0v55h604v-55h-604zM446 84v1487h56v-1432h233v-55h-289z" />
<glyph unicode="2" horiz-adv-x="1300" d="M94 2q0 85 16.5 162t42 137t67.5 118t81 98.5t96 85.5t98.5 72.5t102.5 65.5q171 109 225 152q136 108 164 227q8 35 8 74q0 135 -94 215t-237 80q-158 0 -267 -93t-102 -243l-55 -4q-7 119 52.5 211t157.5 138t214 46q168 0 277.5 -94.5t109.5 -255.5q0 -39 -8 -75.5 t-18.5 -66t-33 -61.5t-39.5 -54t-51.5 -51.5t-55.5 -46t-64 -45.5t-64.5 -42.5t-68.5 -42.5q-7 -5 -11.5 -7.5t-9.5 -5.5q-60 -38 -100 -64.5t-94.5 -69.5t-90.5 -80.5t-75 -91.5t-62 -109.5t-38 -127.5t-15 -151h-58zM156 1143q-6 112 34.5 205.5t113 153.5t165.5 93 t195 33q130 0 235.5 -50t170.5 -150t65 -234q0 -59 -13.5 -113t-36 -97.5t-57 -85t-70.5 -74.5t-82.5 -67t-87.5 -60.5t-90 -57.5q-6 -3 -9 -5t-8 -5t-9 -6q-71 -44 -115.5 -74.5t-101.5 -77.5t-92.5 -91.5t-67 -106t-45.5 -130.5q72 29 143 29q24 0 49.5 -2.5t55 -8.5 t49 -10.5t55 -13.5t49.5 -12q129 -35 201 -35q127 0 174 83t0 214l51 19q56 -158 -6 -264.5t-219 -106.5q-65 0 -213 37q-168 45 -246 45q-120 0 -213 -80q3 71 19 135t38.5 114.5t60.5 99.5t72 83.5t86 74.5t90.5 66t96.5 62q173 107 238 160q166 133 192 293q6 33 6 69 q0 115 -57 202.5t-151 132t-207 44.5q-90 0 -173.5 -30t-147.5 -83.5t-100.5 -135t-31.5 -177.5zM176 -6q88 94 217 94q70 0 238 -45q148 -37 221 -37q88 0 151.5 32.5t93.5 88.5t34 130t-27 157l53 20q27 -75 31 -147t-17 -132t-62.5 -106t-107.5 -72t-149 -26 q-80 0 -236 39q-161 43 -223 43q-100 0 -176 -76z" />
<glyph unicode="3" horiz-adv-x="1230" d="M92 -47l31 47q231 -141 450 -141q213 0 351.5 128t138.5 332q0 176 -128.5 304.5t-346.5 164.5q104 20 185.5 64.5t130.5 103t74.5 122.5t25.5 130q0 166 -116 265.5t-282 99.5q-170 0 -287.5 -92.5t-136.5 -231.5l-55 8q21 158 155.5 264.5t323.5 106.5 q124 0 225.5 -48.5t164.5 -145.5t63 -226q0 -79 -29.5 -155t-95 -145.5t-158.5 -114.5q161 -68 251.5 -192.5t90.5 -281.5q0 -230 -154.5 -373t-390.5 -143q-230 0 -481 150zM139 25l29 47q216 -129 405 -129q180 0 293 103.5t113 272.5q0 172 -152 286t-405 114v55 q277 0 444.5 -128.5t167.5 -326.5q0 -195 -129 -313.5t-332 -118.5q-209 0 -434 138zM211 1245q15 130 123.5 214.5t271.5 84.5q159 0 264 -90.5t105 -245.5q0 -57 -19.5 -113.5t-63.5 -109.5t-107 -93t-156.5 -64.5t-206.5 -24.5v55q101 0 185.5 21.5t141.5 56.5t96.5 81 t57 94t17.5 97q0 127 -90 204t-224 77q-141 0 -233.5 -70.5t-106.5 -179.5z" />
<glyph unicode="4" horiz-adv-x="1355" d="M29 393l802 1245l48 -28l-803 -1245zM96 346q105 88 277 88q92 0 286 -34t261 -40v-432h-287v56h231v327q-54 6 -231.5 37t-259.5 31q-150 0 -240 -76zM137 408l766 1187l49 -28l-682 -1057q66 8 103 8q70 0 155 -12t185 -30t151 -25v421h56v-483q-63 5 -257.5 39.5 t-289.5 34.5q-141 0 -236 -55zM633 -100h604v-56h-604v56zM948 -72v430h35q107 0 169.5 32.5t107.5 94.5l43 -30q-48 -69 -118 -109t-181 -43v-319h233v-56h-289zM948 387v485h56v-430q73 3 114.5 25.5t71.5 67.5l45 -33q-41 -58 -96.5 -86.5t-155.5 -28.5h-35z" />
<glyph unicode="5" horiz-adv-x="1275" d="M82 -70l31 47q187 -118 422 -118q162 0 295 72t209.5 198t76.5 279q0 148 -70 263t-184 174.5t-250 59.5q-182 0 -338 -102l70 710h649v-301h-55v246h-543l-53 -557q132 60 270 60q112 0 213.5 -38.5t178 -108.5t122 -175t45.5 -231q0 -170 -83.5 -309t-229 -217.5 t-323.5 -78.5q-124 0 -243 35t-210 92zM129 2l29 45q168 -104 377 -104q213 0 355 133.5t142 331.5q0 187 -121.5 300t-298.5 113q-172 0 -311 -104l-35 43q155 117 346 117q130 0 237 -55t172.5 -163.5t65.5 -250.5q0 -147 -72 -266.5t-198.5 -187t-281.5 -67.5 q-232 0 -406 115zM188 778l80 819h809v-385h-55v330h-703l-75 -768z" />
<glyph unicode="6" horiz-adv-x="1366" d="M84 807q0 163 28.5 311t85 270t135 212t183 140t225.5 50q139 0 253 -59.5t182 -171.5l-48 -27q-61 99 -160.5 151t-226.5 52q-137 0 -251 -71.5t-190.5 -196.5t-118.5 -295t-42 -365q0 -170 32.5 -306t86 -223.5t127 -145.5t150.5 -82.5t161 -24.5q209 0 344.5 146.5 t135.5 360.5q0 218 -139.5 363t-354.5 145q-199 0 -339.5 -120.5t-162.5 -305.5q-12 88 -12 193q0 255 69 458.5t200.5 322t303.5 118.5q248 0 363 -190l-47 -29q-100 164 -316 164q-145 0 -260.5 -100t-182 -276.5t-75.5 -400.5q77 103 196.5 162.5t262.5 59.5 q241 0 396 -160.5t155 -403.5q0 -155 -67 -283t-190.5 -204t-279.5 -76q-76 0 -147.5 19.5t-141 59.5t-127.5 107.5t-102.5 157.5t-69 216.5t-24.5 277.5zM217 440q-33 148 20.5 281t173 212t271.5 79q205 0 335 -135.5t130 -344.5q0 -204 -126 -341.5t-325 -137.5 q-73 0 -141 21.5t-133 65.5t-118.5 121t-86.5 179zM270 459q58 -181 172.5 -265.5t253.5 -84.5q173 0 284.5 121.5t111.5 301.5q0 184 -115 304t-295 120q-100 0 -186.5 -40.5t-142.5 -107.5t-79.5 -159t-3.5 -190z" />
<glyph unicode="7" horiz-adv-x="1163" d="M74 1204v393h1018v-55h-963v-338h-55zM158 1204v309h907l-332 -557q-358 -595 -280 -1032l-56 -10q-80 455 289 1071l281 473h-754v-254h-55zM481 -70q-76 419 277 1010l346 578l47 -27l-346 -580q-342 -572 -268 -972z" />
<glyph unicode="8" horiz-adv-x="1409" d="M111 453q0 315 366 465q-136 69 -219.5 181t-83.5 255q0 194 151 316t380 122q227 0 378.5 -122t151.5 -316q0 -142 -84 -254t-219 -182q74 -31 135.5 -71t115.5 -96t84.5 -132.5t30.5 -165.5q0 -140 -76.5 -253t-212 -177t-304.5 -64q-258 0 -426 140.5t-168 353.5z M166 453q0 -185 152.5 -312t386.5 -127q232 0 385 127t153 312q0 80 -29.5 149.5t-75.5 117.5t-111 87t-126.5 63t-130.5 41q172 48 291 165.5t119 277.5q0 166 -137 274.5t-338 108.5q-204 0 -340 -108.5t-136 -274.5q0 -82 33.5 -156t91.5 -129t130 -95t153 -63 q-69 -17 -130.5 -40t-126 -62.5t-110 -87.5t-75 -117.5t-29.5 -150.5zM195 453q0 82 33 152t84 117t121.5 83.5t135.5 57t136 34.5q71 -14 135.5 -34.5t135 -57.5t121.5 -83.5t84 -116.5t33 -152q0 -175 -143 -292.5t-366 -117.5q-225 0 -367.5 117.5t-142.5 292.5zM250 453 q0 -149 127.5 -252t327.5 -103q199 0 326.5 103t127.5 252q0 69 -28.5 128.5t-73 100t-106.5 74t-121 53t-125 33.5q-67 -14 -126.5 -33.5t-121.5 -53t-106.5 -74.5t-72.5 -100t-28 -128zM258 1354q0 158 125 256t322 98q195 0 320.5 -98.5t125.5 -255.5q0 -84 -38 -158.5 t-102 -127.5t-142 -89t-164 -53q-86 17 -165 53t-142.5 89t-101.5 127.5t-38 158.5zM313 1354q0 -139 114 -238.5t278 -132.5q105 21 191.5 70t143 128t56.5 173q0 130 -110 214.5t-281 84.5q-172 0 -282 -84.5t-110 -214.5z" />
<glyph unicode="9" horiz-adv-x="1366" d="M100 1065q0 155 67 283t190.5 204t279.5 76q92 0 176.5 -26.5t165 -90t139.5 -157t95 -238.5t36 -325q0 -273 -77.5 -495t-229 -355.5t-350.5 -133.5q-138 0 -252 59.5t-182 172.5l47 27q61 -99 160.5 -151t226.5 -52q137 0 251 71.5t190.5 196.5t118.5 295t42 365 q0 170 -32.5 306t-86 223.5t-127 145.5t-150.5 82.5t-161 24.5q-138 0 -248.5 -68.5t-170.5 -184t-60 -255.5q0 -218 139 -363t354 -145q199 0 339.5 120.5t162.5 305.5q12 -88 12 -192q0 -255 -69 -458.5t-200.5 -322.5t-303.5 -119q-248 0 -363 191l47 29 q100 -164 316 -164q145 0 260.5 100t182 276t75.5 400q-77 -103 -196 -162t-263 -59q-241 0 -396 160t-155 403zM186 1065q0 204 126 341.5t325 137.5q73 0 141 -21.5t133 -65.5t118.5 -121t86.5 -179q33 -148 -20.5 -280.5t-173 -211.5t-271.5 -79q-206 0 -335.5 135.5 t-129.5 343.5zM242 1065q0 -184 114.5 -304t294.5 -120q100 0 186.5 40.5t142.5 107.5t79.5 159.5t3.5 190.5q-58 181 -172.5 265.5t-253.5 84.5q-173 0 -284 -121.5t-111 -302.5z" />
<glyph unicode=":" horiz-adv-x="544" d="M147 96q0 51 37 88t88 37t88 -37t37 -88t-37 -87t-88 -36t-88 36t-37 87zM147 823q0 51 37 88t88 37t88 -37t37 -88t-37 -87t-88 -36t-88 36t-37 87zM201 96q0 -29 21 -50t50 -21t50.5 21t21.5 50t-21.5 50.5t-50.5 21.5t-50 -21.5t-21 -50.5zM201 823q0 -29 21 -50 t50 -21t50.5 21t21.5 50t-21.5 50.5t-50.5 21.5t-50 -21.5t-21 -50.5zM229 96q0 19 12 31t31 12t31 -12t12 -31q0 -18 -12.5 -30.5t-30.5 -12.5t-30.5 12.5t-12.5 30.5zM229 823q0 19 12 31t31 12t31 -12t12 -31q0 -18 -12.5 -30.5t-30.5 -12.5t-30.5 12.5t-12.5 30.5z" />
<glyph unicode=";" horiz-adv-x="606" d="M121 -268q14 13 35 36.5t67 87.5t68 119q-42 5 -74.5 38.5t-32.5 82.5q0 51 37 88t88 37q54 0 92.5 -42t38.5 -116q0 -57 -23 -121t-56 -115.5t-66.5 -94.5t-56.5 -66l-23 -24l-37 34q9 9 23 24t50.5 61t64 91t50.5 105t23 111q0 50 -23.5 75t-56.5 25q-29 0 -50 -21.5 t-21 -50.5q0 -30 21 -50t50 -17l2 28q-16 -5 -30.5 7t-14.5 32q0 19 12 31t31 12q51 0 51 -78q0 -45 -21 -99.5t-50.5 -99.5t-59 -83t-50.5 -60l-21 -22zM184 823q0 51 37 88t88 37t88 -37t37 -88t-37 -87t-88 -36t-88 36t-37 87zM238 823q0 -29 21 -50t50 -21t50.5 21 t21.5 50t-21.5 50.5t-50.5 21.5t-50 -21.5t-21 -50.5zM266 823q0 19 12 31t31 12t31 -12t12 -31q0 -18 -12.5 -30.5t-30.5 -12.5t-30.5 12.5t-12.5 30.5z" />
<glyph unicode="&#x3c;" horiz-adv-x="1179" d="M92 688l27 49l856 -448l-27 -49zM92 811l856 449l27 -50l-856 -448zM154 750l833 436l27 -49l-740 -387l740 -388l-27 -49z" />
<glyph unicode="=" horiz-adv-x="1216" d="M160 436v56h897v-56h-897zM160 520v55h897v-55h-897zM160 926v55h897v-55h-897zM160 1010v55h897v-55h-897z" />
<glyph unicode="&#x3e;" horiz-adv-x="1179" d="M166 362l739 388l-739 387l27 49l833 -436l-833 -437zM205 289l856 448l26 -49l-856 -448zM205 1210l26 50l856 -449l-26 -49z" />
<glyph unicode="?" horiz-adv-x="1036" d="M102 1186q-10 85 10.5 158t64 124.5t103 88t127 54t136.5 17.5q174 0 290.5 -105t116.5 -280q0 -66 -21 -126.5t-48 -101t-73 -83t-75.5 -63.5t-77.5 -52q-42 -26 -64.5 -41t-51 -35.5t-42 -34.5t-28 -33t-18.5 -37t-4 -40t6 -47l12 -53l-53 -13l-13 54q-6 26 -7 49.5 t1.5 43t12 39.5t18.5 35t28 33t33.5 30.5t42 31.5t46.5 31.5t53 33.5q45 28 74 48.5t70 58t64.5 73.5t41.5 88.5t18 110.5q0 148 -101 239t-251 91q-77 0 -149 -25.5t-129.5 -71.5t-87 -120.5t-19.5 -163.5zM186 1196q-10 82 16.5 149.5t79 110t120 65.5t141.5 23 q141 0 232 -81.5t91 -219.5q0 -54 -16.5 -102t-39 -81.5t-61 -68t-66.5 -54.5t-73 -48q-37 -23 -60 -38.5t-52.5 -36.5t-47 -38t-37 -39.5t-29 -44t-16.5 -47.5t-6 -55t9 -62l12 -53l-53 -12l-13 53q-9 39 -10.5 74.5t7 66.5t20 57t34 52t43 46t52.5 43.5t56.5 39.5t62.5 39 q44 28 69 46t60 49t53.5 59t32.5 68.5t14 86.5q0 112 -74.5 179t-193.5 67q-133 0 -225 -78.5t-76 -208.5zM305 96q0 51 37 88t88 37t88 -37t37 -88t-37 -87t-88 -36t-88 36t-37 87zM358 96q0 -29 21.5 -50t50.5 -21t50.5 21t21.5 50t-21.5 50.5t-50.5 21.5t-50.5 -21.5 t-21.5 -50.5zM387 96q0 19 12 31t31 12t31 -12t12 -31q0 -18 -12.5 -30.5t-30.5 -12.5t-30.5 12.5t-12.5 30.5z" />
<glyph unicode="@" horiz-adv-x="2078" d="M106 494q0 198 81.5 379.5t216 311.5t317 207.5t377.5 77.5q177 0 335 -63.5t270 -171.5t177.5 -257.5t65.5 -315.5q0 -226 -109.5 -370.5t-269.5 -144.5q-86 0 -154.5 38t-105.5 106q-63 -67 -148 -105.5t-178 -38.5q-163 0 -271 112t-108 273q0 118 60 218t161 157.5 t217 57.5q87 0 163 -36.5t128 -99.5l23 121h57l-53 -297q-25 110 -114 183t-204 73q-153 0 -268 -112t-115 -265q0 -137 93.5 -232t230.5 -95q107 0 201.5 59t144.5 154q7 -100 73 -156.5t167 -56.5q134 0 228.5 127t94.5 330q0 153 -61 292t-166 240t-252.5 161t-312.5 60 q-184 0 -355.5 -73.5t-298.5 -197t-203.5 -294.5t-76.5 -356q0 -163 60 -310t164 -254t250.5 -170t311.5 -63q234 0 434 110l27 -49q-218 -116 -461 -116q-178 0 -335 67t-268.5 181t-176 271.5t-64.5 332.5zM193 494q0 181 73.5 346.5t196.5 284.5t289.5 190t345.5 71 q160 0 302.5 -57t243.5 -154t159.5 -231t58.5 -282q0 -191 -87 -310t-208 -119q-107 0 -168 73.5t-39 195.5l80 448h57l-82 -461q-18 -95 25.5 -147.5t126.5 -52.5q96 0 167.5 102t71.5 271q0 182 -92 335t-255 242.5t-361 89.5q-223 0 -419 -112.5t-313.5 -305.5 t-117.5 -417q0 -195 91 -358.5t252.5 -259t358.5 -95.5q201 0 393 100l27 -49q-210 -106 -420 -106q-214 0 -388 102.5t-271.5 278t-97.5 387.5zM686 532q0 144 105.5 246.5t248.5 102.5q127 0 212 -87t85 -214q0 -143 -106 -245t-250 -102q-128 0 -211.5 85.5t-83.5 213.5z M741 532q0 -103 69 -173t171 -70q119 0 210 86.5t91 204.5q0 103 -70.5 174t-171.5 71q-120 0 -209.5 -87.5t-89.5 -205.5z" />
<glyph unicode="A" horiz-adv-x="1769" d="M-35 0v55h606v-55h-606zM-35 84v55h225l631 1477l51 -23l-645 -1509h-262zM258 84l197 459h862l194 -459h-311v55h227l-149 348h-789l-147 -348h229v-55h-313zM467 571l418 981l420 -981h-838zM549 627h670l-334 784zM897 1593l51 23l631 -1477h227v-55h-264zM1200 0v55 h606v-55h-606z" />
<glyph unicode="B" horiz-adv-x="1638" d="M86 0v55h948q99 0 185 33.5t145 90t93 131t34 155.5q0 139 -95 250.5t-249 144.5q114 34 184 126.5t70 207.5q0 145 -109.5 246.5t-298.5 101.5h-907v55h907q108 0 197 -32.5t146.5 -88t88.5 -128t31 -154.5q0 -98 -44 -183.5t-122 -142.5q119 -60 187.5 -168t68.5 -235 q0 -93 -37.5 -178t-103.5 -148.5t-162.5 -101t-208.5 -37.5h-948zM86 84v55h231v1319h-231v55h287v-1429h-287zM401 84v760h648q183 -6 298 -116t115 -263q0 -158 -119.5 -269.5t-308.5 -111.5h-633zM401 872v641h592q180 0 279.5 -91.5t99.5 -227.5q0 -130 -90.5 -224 t-232.5 -98h-648zM457 139h577q164 0 268.5 96.5t104.5 229.5q0 128 -99.5 222.5t-256.5 100.5h-594v-649zM457 928h577q122 0 202.5 78t80.5 188q0 112 -85 188t-239 76h-536v-530z" />
<glyph unicode="C" horiz-adv-x="1685" d="M86 799q0 168 65.5 321.5t176.5 264.5t264.5 177t322.5 66q144 0 280 -50.5t230 -141.5v161h56v-333q-62 140 -221.5 224.5t-344.5 84.5q-208 0 -386.5 -104.5t-283 -283t-104.5 -386.5t104.5 -386.5t283 -283t386.5 -104.5q175 0 325 53t288 174l39 -41 q-277 -242 -652 -242q-169 0 -322.5 65.5t-264.5 176.5t-176.5 265t-65.5 323zM170 799q0 152 59 290t158.5 237.5t237.5 158.5t290 59q138 0 260.5 -46t206.5 -135.5t99 -203.5v-244h-56v236q-12 98 -86.5 176t-186 120t-237.5 42q-139 0 -267 -55t-220.5 -148 t-147.5 -220.5t-55 -266.5q0 -186 93 -345t252 -252t345 -93q165 0 299.5 47t260.5 159l34 -41q-133 -119 -277 -170t-317 -51q-152 0 -290 59t-237.5 159t-158.5 238t-59 290zM1509 915v682h58v-682h-58z" />
<glyph unicode="D" horiz-adv-x="1748" d="M86 0v55h797q165 0 301 57.5t226 158t139.5 236t49.5 292.5q0 156 -49.5 291.5t-139.5 236t-226 158t-301 57.5h-797v55h797q178 0 324.5 -62t244 -170t150.5 -253.5t53 -312.5t-53 -313t-150.5 -254t-244 -170t-324.5 -62h-797zM86 84v55h233v1319h-233v55h289v-1429 h-289zM403 84v1429h480q213 0 370.5 -94.5t237.5 -255t80 -364.5t-80 -365t-237.5 -255.5t-370.5 -94.5h-480zM459 139h424q194 0 339 87t219.5 236t74.5 337t-74.5 336.5t-219.5 235.5t-339 87h-424v-1319z" />
<glyph unicode="E" horiz-adv-x="1486" d="M86 0v55h1249v338h56v-393h-1305zM86 84v55h231v1319h-231v55h287v-1429h-287zM86 1542v55h1290v-393h-55v338h-1235zM401 84v717h705v-56h-649v-606h794v254h56v-309h-906zM401 829v684h891v-309h-55v254h-780v-573h649v-56h-705z" />
<glyph unicode="F" horiz-adv-x="1427" d="M86 0v55h621v-55h-621zM86 84v55h233v1319h-233v55h289v-1429h-289zM86 1542v55h1292v-393h-55v338h-1237zM403 84v672h682v-56h-626v-561h248v-55h-304zM403 784v729h891v-309h-57v254h-778v-618h626v-56h-682z" />
<glyph unicode="G" horiz-adv-x="1732" d="M86 795q0 229 111 420.5t301.5 302t416.5 110.5q144 0 280 -50.5t230 -141.5v161h56v-333q-62 140 -221.5 224.5t-344.5 84.5q-156 0 -299 -61.5t-247 -165t-166 -248t-62 -303.5q0 -155 59.5 -297t161.5 -246t245.5 -165.5t303.5 -61.5q344 0 594 290v-315h-55v180 q-236 -211 -543 -211q-229 0 -418 111.5t-296 301t-107 413.5zM170 795q0 155 59 294t158.5 238.5t237.5 158t290 58.5q138 0 260.5 -46t206.5 -135.5t99 -203.5v-172h-56v164q-12 98 -86.5 176t-186 120t-237.5 42q-187 0 -345.5 -92.5t-251.5 -252.5t-93 -349 q0 -139 52.5 -265t143.5 -218.5t219.5 -147.5t272.5 -55q306 0 537 268v272h-549v56h604v-345q-251 -307 -594 -307q-208 0 -378.5 100t-266.5 270t-96 372zM901 733v55h686v-788h-53v733h-633zM1509 987v610h56v-610h-56z" />
<glyph unicode="H" horiz-adv-x="1865" d="M86 0v55h604v-55h-604zM86 84v55h231v1319h-231v55h287v-1429h-287zM86 1542v55h604v-55h-604zM401 84v717h1063v-717h-286v55h231v606h-952v-606h233v-55h-289zM401 829v684h289v-55h-233v-573h952v573h-231v55h286v-684h-1063zM1178 0v55h604v-55h-604zM1178 1542v55 h604v-55h-604zM1493 84v1429h289v-55h-234v-1319h234v-55h-289z" />
<glyph unicode="I" horiz-adv-x="776" d="M86 0v55h604v-55h-604zM86 84v55h231v1319h-231v55h287v-1429h-287zM86 1542v55h604v-55h-604zM401 84v1429h289v-55h-233v-1319h233v-55h-289z" />
<glyph unicode="J" horiz-adv-x="1323" d="M90 258q0 52 6 90l56 -10q-7 -40 -7 -80q0 -81 29.5 -154t84.5 -130t141 -90.5t190 -33.5q99 0 178.5 33t142 103.5t96 191.5t33.5 285v1079h-639v55h695v-1134q0 -178 -38 -309t-108 -208.5t-159.5 -114t-200.5 -36.5q-118 0 -215 38t-158 103t-94 147.5t-33 174.5z M174 258q0 40 6 74l56 -10q-7 -28 -7 -64q0 -136 96 -230t265 -94q84 0 148.5 27t114.5 87t76.5 164.5t26.5 250.5v995h-555v55h611v-1050q0 -158 -31.5 -273.5t-89.5 -182t-132.5 -97.5t-168.5 -31q-100 0 -180 30.5t-131 83t-78 120.5t-27 145z" />
<glyph unicode="K" horiz-adv-x="1652" d="M86 0v55h604v-55h-604zM86 84v55h231v1319h-231v55h287v-1429h-287zM86 1542v55h604v-55h-604zM401 84v401l334 357l584 -787h311v-55h-338l-563 754l-272 -293v-322h233v-55h-289zM401 528v985h289v-55h-233v-790l737 790h-170v55h299zM756 864l606 649h266v-55h-242 l-559 -600l537 -719h266v-55h-297zM1024 1542v55h604v-55h-604z" />
<glyph unicode="L" horiz-adv-x="1390" d="M86 0v55h1208v338h56v-393h-1264zM86 84v55h233v1319h-233v55h289v-1429h-289zM86 1542v55h606v-55h-606zM403 84v1429h289v-55h-233v-1319h751v254h56v-309h-863z" />
<glyph unicode="M" horiz-adv-x="2172" d="M84 0v55h604v-55h-604zM84 84v55h233v1319h-233v55h289v-1429h-289zM84 1542v55h344l657 -1194l658 1194h346v-55h-311l-693 -1253l-690 1253h-311zM401 84v1389l672 -1219l-49 -27l-567 1026v-1114h231v-55h-287zM1098 254l674 1219v-1389h-289v55h233v1118l-569 -1030z M1483 0v55h606v-55h-606zM1800 84v1429h289v-55h-234v-1319h234v-55h-289z" />
<glyph unicode="N" horiz-adv-x="1855" d="M82 0v55h604v-55h-604zM82 84v55h233v1319h-233v55h289v-1429h-289zM82 1542v55h338l1007 -1374v1235h-229v55h287v-1460l-1094 1489h-309zM399 84v1399l1088 -1481l-45 -33l-987 1344v-1174h231v-55h-287zM1198 1542v55h604v-55h-604zM1513 10v1503h289v-55h-233v-1448 h-56z" />
<glyph unicode="O" d="M86 799q0 168 65.5 321.5t176.5 264.5t264.5 177t322.5 66q168 0 322 -66t265 -177t177 -264.5t66 -321.5q0 -169 -66 -323t-177 -265t-265 -176.5t-322 -65.5q-169 0 -322.5 65.5t-264.5 176.5t-176.5 265t-65.5 323zM141 799q0 -208 104.5 -386.5t283 -283 t386.5 -104.5t387 104.5t283.5 283t104.5 386.5t-104.5 386.5t-283.5 283t-387 104.5t-386.5 -104.5t-283 -283t-104.5 -386.5zM170 799q0 151 59 289t158.5 238t237.5 159t290 59t290 -59t238 -158.5t159 -237.5t59 -290q0 -203 -100 -374.5t-271.5 -271.5t-374.5 -100 q-152 0 -290 59t-237.5 159t-158.5 238t-59 290zM225 799q0 -186 93 -345t252 -252t345 -93q139 0 266.5 55t220.5 147.5t148.5 220.5t55.5 267t-55.5 266.5t-148.5 220.5t-220.5 148t-266.5 55t-267 -55t-220.5 -148t-147.5 -220.5t-55 -266.5z" />
<glyph unicode="P" horiz-adv-x="1611" d="M86 0v55h606v-55h-606zM86 84v55h233v1319h-233v55h289v-1429h-289zM86 1542v55h909q124 0 230.5 -41t179 -110.5t113.5 -162.5t41 -196q0 -102 -41 -194.5t-113.5 -162t-179 -111t-230.5 -41.5h-536v-439h233v-55h-289v549h592q221 0 364.5 134.5t143.5 319.5 q0 122 -63 225.5t-180.5 166.5t-264.5 63h-909zM403 662v851h592q213 0 346.5 -124t133.5 -302q0 -176 -134 -300.5t-346 -124.5h-592zM459 717h536q186 0 305 109.5t119 260.5q0 154 -118.5 262.5t-305.5 108.5h-536v-741z" />
<glyph unicode="Q" d="M86 799q0 168 65.5 321.5t176.5 264.5t264.5 177t322.5 66q168 0 322 -66t265 -177t177 -264.5t66 -321.5q0 -260 -146 -470t-380 -302q17 -8 223 -105q85 -40 144.5 -63.5t130.5 -41.5q62 -16 110 -16q7 0 13 1q52 2 103.5 26.5t90.5 75.5l45 -33q-33 -44 -74 -72.5 t-83 -40.5q-39 -13 -88 -13q-2 0 -4 1q-50 0 -95.5 8.5t-103.5 28.5t-105 40.5t-109 49.5q-13 6 -75 35t-85 39.5t-70 31t-82.5 33t-70.5 21.5q137 22 258 91t208.5 170t138.5 232.5t51 272.5q0 208 -104.5 386.5t-283.5 283t-387 104.5t-386.5 -104.5t-283 -283 t-104.5 -386.5t104.5 -386.5t283 -283t386.5 -104.5q23 -1 47 -4t53 -11t50 -14t56 -20.5t53 -21t59 -26t55 -26t60 -29t57 -27.5q87 -42 153.5 -68.5t148.5 -45.5q66 -15 121 -15q13 0 26 1q64 4 130 37t117 98l45 -33q-42 -55 -93 -90.5t-101 -51.5q-48 -16 -108 -16h-4 q-61 1 -113 10t-118 31t-115 43t-114 51q-12 6 -56 27t-58.5 27.5t-53 24.5t-56 25t-50 20.5t-52.5 19t-47 13t-49 11t-43 4.5q-169 0 -322.5 65.5t-264.5 176.5t-176.5 265t-65.5 323zM170 799q0 151 59 289t158.5 238t237.5 159t290 59t290 -59t238 -158.5t159 -237.5 t59 -290q0 -203 -100 -374.5t-271.5 -271.5t-374.5 -100q-152 0 -290 59t-237.5 159t-158.5 238t-59 290zM225 799q0 -186 93 -345t252 -252t345 -93q139 0 266.5 55t220.5 147.5t148.5 220.5t55.5 267t-55.5 266.5t-148.5 220.5t-220.5 148t-266.5 55t-267 -55t-220.5 -148 t-147.5 -220.5t-55 -266.5z" />
<glyph unicode="R" horiz-adv-x="1695" d="M86 0v55h604v-55h-604zM86 84v55h231v1319h-231v55h287v-1429h-287zM86 1542v55h954q117 0 217.5 -38.5t169 -104t107.5 -153.5t39 -185q0 -95 -37.5 -182t-104.5 -153t-165.5 -106t-212.5 -42l352 -494h246v-55h-275l-430 604h94q104 0 194.5 35.5t152 94.5t96.5 136.5 t35 161.5q0 85 -35 162.5t-96.5 136t-152 93t-194.5 34.5h-954zM401 84v604h508l430 -604h-295v55h187l-350 494h-424v-494h233v-55h-289zM401 717v796h639q199 0 324 -115.5t125 -281.5q0 -165 -125.5 -282t-323.5 -117h-639zM457 774h583q173 0 282.5 101t109.5 241 q0 141 -109.5 241.5t-282.5 100.5h-583v-684zM1044 0v55h607v-55h-607z" />
<glyph unicode="S" horiz-adv-x="1374" d="M131 0v625h55v-625h-55zM150 1217q0 177 131 294t340 117q126 0 244.5 -46t209.5 -122v137h55v-280q-74 109 -213 182.5t-296 73.5q-186 0 -301 -102t-115 -254q0 -60 17.5 -111.5t53.5 -92t75.5 -72t98.5 -59.5t107 -47t115 -42q182 -63 236 -87q192 -86 242 -212 q21 -52 21 -111q0 -142 -104.5 -236t-288.5 -94q-172 0 -323 83t-240 220v269h55v-252q83 -119 219.5 -191.5t288.5 -72.5q160 0 249 77.5t89 196.5q0 58 -24.5 105.5t-62.5 80.5t-96.5 62.5t-113.5 49.5t-125 44q-29 9 -43 14q-58 20 -100 36.5t-98 43t-95.5 52.5t-81 63 t-67.5 77.5t-42.5 93.5t-16.5 112zM215 0v305q96 -127 246.5 -203.5t316.5 -76.5q193 0 307.5 103t114.5 255q0 63 -20 116.5t-57.5 93.5t-82 72t-102.5 58t-108.5 45t-110.5 40q-26 9 -39 13q-81 28 -135 49.5t-118.5 57.5t-103 74t-64.5 93.5t-26 121.5q0 142 105.5 234.5 t282.5 92.5q167 0 308 -82.5t201 -197.5v-291h-55v272q-56 100 -181 172t-273 72q-152 0 -242 -77.5t-90 -194.5q0 -46 14 -85.5t43 -71t63 -57.5t84.5 -50t96 -41.5t108.5 -39.5q181 -63 241 -90q232 -104 293 -265q23 -62 23 -134q0 -85 -32.5 -160.5t-92.5 -132t-151 -89 t-201 -32.5q-139 0 -271.5 52.5t-236.5 144.5v-166h-55zM1159 973v624h55v-624h-55z" />
<glyph unicode="T" horiz-adv-x="1499" d="M47 1204v393h1407v-393h-55v338h-1297v-338h-55zM131 1204v309h604v-1429h-286v55h231v1319h-494v-254h-55zM449 0v55h604v-55h-604zM764 84v1429h606v-309h-57v254h-494v-1319h234v-55h-289z" />
<glyph unicode="U" horiz-adv-x="1822" d="M47 1458v55h287v-917q0 -117 38.5 -220.5t110 -181.5t182.5 -123.5t246 -45.5q136 0 247 45.5t182.5 123.5t110 181.5t38.5 220.5v917h287v-55h-232v-862q0 -129 -41.5 -242t-119.5 -199.5t-200 -136t-272 -49.5t-271 49.5t-199 135.5t-120 199.5t-42 242.5v862h-232z M47 1542v55h604v-55h-604zM362 596v917h289v-55h-231v-862q0 -138 54.5 -247t167.5 -174.5t269 -65.5q118 0 212.5 37.5t155.5 104t93.5 154.5t32.5 191v862h-236v55h291v-917q0 -115 -35.5 -213t-103 -172t-173 -116t-237.5 -42q-131 0 -236.5 42t-173 116t-103.5 172.5 t-36 212.5zM1169 1542v55h607v-55h-607z" />
<glyph unicode="V" horiz-adv-x="1767" d="M-37 1458v55h262l645 -1511l-51 -20l-629 1476h-227zM-37 1542v55h604v-55h-604zM256 1513h311v-55h-227l543 -1272l544 1272h-229v55h311l-626 -1470zM895 2l645 1511h262v-55h-225l-629 -1476zM1198 1542v55h604v-55h-604z" />
<glyph unicode="W" horiz-adv-x="2486" d="M-27 1458v55h256l500 -1509l-53 -16l-488 1470h-215zM-27 1542v55h600v-55h-600zM262 1513h311v-55h-237l409 -1239l433 1165l51 -20l-486 -1311zM758 4l485 1313l486 -1313l-52 -18l-434 1171l-434 -1171zM1257 1364l52 20l430 -1165l409 1239h-235v55h311l-483 -1460z M1757 4l498 1509h260v-55h-219l-486 -1470zM1913 1542v55h602v-55h-602z" />
<glyph unicode="X" horiz-adv-x="1589" d="M4 0v55h604v-55h-604zM4 84v55h234l471 688l-430 631h-234v55h262l467 -686l-508 -743h-262zM45 1542v55h604v-55h-604zM301 84l492 717l491 -717h-303v55h199l-387 566l-387 -566h202v-55h-307zM342 1513h307v-55h-203l347 -506l346 506h-199v55h303l-450 -659zM811 827 l469 686h264v-55h-235l-430 -631l471 -688h235v-55h-264zM940 1542v55h604v-55h-604zM981 0v55h604v-55h-604z" />
<glyph unicode="Y" horiz-adv-x="1640" d="M-25 1458v55h265l565 -895v-534h-287v55h232v467l-541 852h-234zM-25 1542v55h605v-55h-605zM274 1513h306v-55h-205l444 -704l447 704h-207v55h307l-547 -862zM518 0v55h604v-55h-604zM834 84v534l567 895h264v-55h-235l-541 -854v-465h233v-55h-288zM1059 1542v55h606 v-55h-606z" />
<glyph unicode="Z" horiz-adv-x="1476" d="M68 117l1142 1341h-944v-254h-55v309h1120l-1220 -1433zM121 0v55h1202v338h55v-393h-1257zM127 1204v393h1235v-55h-1180v-338h-55zM152 84l1220 1434l45 -37l-1145 -1342h967v254h55v-309h-1142z" />
<glyph unicode="[" horiz-adv-x="741" d="M209 -506v2292h479v-55h-422v-2182h422v-55h-479zM295 -422v2124h393v-55h-338v-2014h338v-55h-393z" />
<glyph unicode="\" horiz-adv-x="1400" d="M59 1747h62l1128 -2214h-61zM152 1747h63l1126 -2214h-61z" />
<glyph unicode="]" horiz-adv-x="741" d="M53 -367h338v2014h-338v55h393v-2124h-393v55zM53 -451h422v2182h-422v55h479v-2292h-479v55z" />
<glyph unicode="^" horiz-adv-x="1183" d="M102 889l428 729l48 -29l-428 -729zM174 846l418 708l414 -710l-45 -27l-371 627l-367 -627zM604 1589l47 29l430 -729l-49 -29z" />
<glyph unicode="_" horiz-adv-x="1415" d="M147 -156h1121v-55h-1121v55zM147 -240h1121v-55h-1121v55z" />
<glyph unicode="`" horiz-adv-x="305" d="M-326 1575l31 47l475 -324l-30 -45zM-279 1647l31 45l475 -322l-30 -47z" />
<glyph unicode="a" horiz-adv-x="1265" d="M70 352q0 69 24.5 133t75.5 120t143 90t213 34q154 0 359 -53v84q0 212 -285 215h-21q-164 0 -380 -74l-19 53q233 78 409 78h13q73 -2 132 -16.5t106.5 -45t73.5 -84t26 -126.5v-158q-240 72 -414 72q-85 0 -154.5 -19t-114.5 -51t-75.5 -74t-43.5 -86.5t-13 -91.5 q0 -139 107.5 -228t275.5 -89q113 0 227 41t205 112v-133h315v-55h-370v84q-187 -104 -377 -104q-191 0 -314.5 103t-123.5 269zM154 352q0 56 19.5 106t61 93t116.5 68.5t175 25.5q164 0 414 -76v-346q-90 -74 -203 -117t-229 -43q-160 0 -257 79.5t-97 209.5zM154 1034 q238 82 434 82h14q82 -2 154.5 -22t134 -60t97.5 -110.5t36 -163.5v-621h231v-55h-286v676q0 79 -29.5 138t-81.5 93.5t-115.5 51t-140.5 18.5h-13q-183 0 -417 -78zM211 352q0 -103 81 -168t216 -65q100 0 198.5 34.5t178.5 96.5v280q-212 60 -359 60q-85 0 -149 -20.5 t-98.5 -56t-51 -75.5t-16.5 -86z" />
<glyph unicode="b" horiz-adv-x="1472" d="M25 0v55h315v328q52 -154 184.5 -251t298.5 -97q138 0 256 69t187 187t69 256q0 137 -69 254.5t-187 186.5t-256 69q-165 0 -298 -97.5t-185 -250.5v882h-315v56h370v-732q78 92 189.5 144.5t238.5 52.5q154 0 285 -76t207 -206t76 -283q0 -116 -45 -221t-121 -181 t-181.5 -120.5t-220.5 -44.5q-127 0 -238.5 51.5t-189.5 142.5v-174h-370zM25 84v55h231v1368h-231v56h286v-1479h-286zM342 547q0 131 64 241.5t174.5 175t242.5 64.5t243.5 -64.5t176 -175t64.5 -241.5q0 -201 -141.5 -342.5t-342.5 -141.5q-132 0 -242.5 64.5t-174.5 176 t-64 243.5zM397 547q0 -177 124.5 -302.5t301.5 -125.5q175 0 301.5 126t126.5 302q0 114 -58 212.5t-156.5 156t-213.5 57.5q-176 0 -301 -125.5t-125 -300.5z" />
<glyph unicode="c" horiz-adv-x="1222" d="M82 547q0 153 75.5 283t205.5 206t284 76q86 0 173.5 -29.5t156.5 -81.5v84h57v-225q-52 89 -160.5 143t-226.5 54q-138 0 -255.5 -69t-186 -186.5t-68.5 -254.5q0 -105 39 -198.5t107.5 -163t168 -110t214.5 -40.5q225 0 413 158l39 -43q-97 -81 -214 -125.5t-238 -44.5 q-128 0 -237.5 44.5t-185 121.5t-118.5 180.5t-43 220.5zM166 547q0 131 64 241.5t174.5 175t242.5 64.5q136 0 251 -70t136 -176v-194h-57v192q-22 81 -119 137t-211 56q-176 0 -301 -125.5t-125 -300.5q0 -182 124.5 -305t320.5 -123t362 137l35 -41q-181 -152 -397 -152 q-110 0 -204.5 38t-159 103.5t-100.5 154t-36 188.5zM1063 588v497h55v-497h-55z" />
<glyph unicode="d" horiz-adv-x="1474" d="M82 547q0 153 75.5 283t205.5 206t284 76q126 0 238 -52.5t192 -144.5v592h-231v56h287v-856q-52 153 -186.5 251.5t-299.5 98.5q-138 0 -255.5 -69t-186 -186.5t-68.5 -254.5q0 -138 68.5 -256t186 -187t255.5 -69q165 0 299 98t187 252v-330h315v-55h-371v176 q-79 -92 -191 -144t-239 -52q-154 0 -284 75.5t-205.5 206t-75.5 285.5zM166 547q0 131 64 241.5t174.5 175t242.5 64.5t243 -64.5t175.5 -175t64.5 -241.5q0 -132 -64.5 -243.5t-175.5 -176t-243 -64.5t-242.5 64.5t-174.5 176t-64 243.5zM221 547q0 -177 124.5 -302.5 t301.5 -125.5q175 0 301.5 126t126.5 302q0 114 -58 212.5t-156.5 156t-213.5 57.5q-176 0 -301 -125.5t-125 -300.5zM846 1591v56h371v-1508h231v-55h-287v1507h-315z" />
<glyph unicode="e" horiz-adv-x="1243" d="M82 545q0 111 40 213.5t112 181t179.5 125.5t233.5 47q95 0 178.5 -27t145 -73t106.5 -108.5t67 -133t22 -147t-25 -148.5h-916q25 -156 145.5 -256t295.5 -100q198 0 364 137l35 -41q-181 -152 -399 -152q-217 0 -356 135t-144 334h936q10 45 10 91q0 48 -11 96 q-22 94 -79.5 169t-156 122t-218.5 47q-149 0 -267 -73t-180.5 -189t-62.5 -250q0 -104 39.5 -197.5t108 -162.5t168 -109.5t213.5 -40.5q227 0 415 158l39 -43q-207 -170 -454 -170q-169 0 -303.5 76.5t-207.5 205t-73 283.5zM166 561q3 125 61.5 230.5t169 171t250.5 65.5 q108 0 198 -41.5t144.5 -108t78.5 -150.5q15 -51 14 -102q0 -32 -5 -65h-911zM227 616h797v15q0 82 -39 156q-43 81 -132.5 133.5t-205.5 52.5q-168 0 -282 -102t-138 -255z" />
<glyph unicode="f" horiz-adv-x="835" d="M-426 -262l55 -6q-1 -14 -1 -27q0 -72 37 -134q44 -73 122 -113t172 -40q184 0 286.5 129t102.5 385v1074h434v-56h-379v-1018q0 -277 -118.5 -423t-325.5 -146q-108 0 -199 47.5t-144 134.5q-44 73 -44 160q0 16 2 33zM-342 -270l55 -6q-1 -10 -1 -20q0 -79 66 -137 q73 -65 181 -65q144 0 224.5 106t80.5 324v1018h-231v56h286v-1074q0 -244 -94.5 -364.5t-265.5 -120.5q-133 0 -222 81q-80 73 -80 178q0 12 1 24zM33 1034v56h231v110q0 277 119 423t326 146q166 0 282 -107q104 -96 104 -235q0 -16 -1 -32l-56 4q1 13 1 25q0 118 -89 200 q-97 90 -241 90q-184 0 -287 -129t-103 -385v-166h-286zM348 1034v166q0 243 95 364.5t266 121.5q132 0 223 -82q79 -71 79 -173q0 -14 -1 -28l-56 6q1 8 1 16q0 81 -67 140q-72 65 -179 65q-144 0 -225 -106t-81 -324v-110h379v-56h-434z" />
<glyph unicode="g" horiz-adv-x="1468" d="M82 547q0 153 75.5 283t205.5 206t284 76q126 0 238 -52.5t192 -144.5v175h371v-56h-315v-327q-52 153 -186.5 251.5t-299.5 98.5q-138 0 -255.5 -69t-186 -186.5t-68.5 -254.5q0 -138 68.5 -256t186 -187t255.5 -69q165 0 299 98t187 252v-510q0 -270 -111.5 -402 t-321.5 -132q-161 0 -272 98t-111 239q0 21 7 70l55 -8q-6 -42 -6 -62q0 -116 95 -199t232 -83q377 0 377 479v301q-79 -92 -191 -144t-239 -52q-154 0 -284 75.5t-205.5 206t-75.5 285.5zM166 547q0 131 64 241.5t174.5 175t242.5 64.5t243 -64.5t175.5 -175t64.5 -241.5 q0 -132 -64.5 -243.5t-175.5 -176t-243 -64.5t-242.5 64.5t-174.5 176t-64 243.5zM221 547q0 -177 124.5 -302.5t301.5 -125.5q175 0 301.5 126t126.5 302q0 114 -58 212.5t-156.5 156t-213.5 57.5q-176 0 -301 -125.5t-125 -300.5zM233 -322q0 19 9 82l53 -8q-6 -42 -6 -74 q0 -151 120.5 -258.5t290.5 -107.5q222 0 341.5 141t119.5 422v1131h287v-56h-231v-1075q0 -304 -135.5 -461t-381.5 -157q-194 0 -330.5 122.5t-136.5 298.5z" />
<glyph unicode="h" horiz-adv-x="1421" d="M25 0v55h602v-55h-602zM25 84v55h231v1368h-231v56h286v-1479h-286zM25 1591v56h370v-691q184 156 379 156q57 0 110.5 -12t108.5 -44t95.5 -81t66 -129t25.5 -182v-525h231v-55h-287v580q0 90 -21.5 160.5t-55.5 113.5t-81 70.5t-93.5 38t-98.5 10.5q-116 0 -230 -63.5 t-204 -170.5v768h-315zM340 84v692q87 116 200.5 184t233.5 68q49 0 92 -9t86.5 -34t74 -64.5t50 -105t19.5 -151.5v-609h315v-55h-371v664q0 309 -266 309q-101 0 -201.5 -59t-177.5 -158v-617h232v-55h-287z" />
<glyph unicode="i" horiz-adv-x="696" d="M68 0v55h602v-55h-602zM68 84v55h231v811h-231v56h286v-922h-286zM68 1034v56h370v-951h232v-55h-287v950h-315zM223 1432q0 51 37 87.5t88 36.5t88 -36.5t37 -87.5t-37 -87t-88 -36t-88 36t-37 87zM276 1432q0 -29 21.5 -50.5t50.5 -21.5t50.5 21.5t21.5 50.5t-21.5 50 t-50.5 21t-50.5 -21t-21.5 -50zM305 1432q0 19 12 31t31 12t31 -12t12 -31q0 -18 -12.5 -30.5t-30.5 -12.5t-30.5 12.5t-12.5 30.5z" />
<glyph unicode="j" horiz-adv-x="600" d="M-356 -266q0 23 8 71l53 -10q-6 -36 -6 -61q0 -127 90 -219.5t215 -92.5q168 0 257 119t89 357v1136h-315v56h371v-1192q0 -260 -104.5 -395.5t-297.5 -135.5q-150 0 -255 107t-105 260zM-272 -266q0 21 6 57l55 -12q-6 -36 -6 -45q0 -94 65 -161t156 -67q262 0 262 392 v1052h-231v56h287v-1108q0 -225 -82 -336t-236 -111q-116 0 -196 82.5t-80 200.5zM190 1432q0 51 37 87.5t88 36.5t88 -36.5t37 -87.5t-37 -87t-88 -36t-88 36t-37 87zM244 1432q0 -29 21 -50.5t50 -21.5t50.5 21.5t21.5 50.5t-21.5 50t-50.5 21t-50 -21t-21 -50zM272 1432 q0 19 12 31t31 12t31 -12t12 -31q0 -18 -12.5 -30.5t-30.5 -12.5t-30.5 12.5t-12.5 30.5z" />
<glyph unicode="k" horiz-adv-x="1310" d="M27 0v55h573v-55h-573zM27 84v55h229v1368h-229v56h286v-1479h-286zM27 1591v56h370v-705q109 87 221 128.5t207 41.5q161 0 256 -95.5t95 -230.5q0 -120 -88 -224.5t-265 -170.5l187 -252h266v-55h-295l-246 336q195 58 289 155.5t94 210.5q0 110 -80 190.5t-213 80.5 q-108 0 -237 -58t-246 -180v772h-315zM342 84v692q117 130 245 191t238 61q125 0 195 -70t70 -172q0 -109 -91 -199t-292 -145l-15 52q178 51 260 128.5t82 163.5q0 78 -55.5 132.5t-153.5 54.5q-95 0 -208.5 -52.5t-219.5 -164.5v-617h203v-55h-258zM653 385l45 33 l269 -363h309v-55h-336z" />
<glyph unicode="l" horiz-adv-x="700" d="M-41 1507v56h287v-1213q0 -75 17.5 -133.5t44 -92t62 -54.5t65.5 -28t61 -7q98 0 194 80l39 -39q-108 -96 -233 -96q-35 0 -71.5 8.5t-80 33.5t-76.5 64t-55.5 107.5t-22.5 156.5v1157h-231zM-41 1591v56h371v-1297q0 -70 15.5 -118.5t42 -71.5t52.5 -32t56 -9 q72 0 139 59l37 -41q-82 -74 -176 -74q-29 0 -56.5 6t-58.5 25t-54 49t-38 83.5t-15 123.5v1241h-315z" />
<glyph unicode="m" horiz-adv-x="2101" d="M70 950v56h288v-922h-286v55h231v811h-233zM70 1034v56h372v-119q157 141 332 141q93 0 183 -46.5t143 -145.5q80 90 178 141t203 51q50 0 100 -12.5t101 -44t89 -78t62.5 -121.5t24.5 -168v-549h231v-55h-287v604q0 101 -30 176t-79 115.5t-102.5 59t-109.5 18.5 q-110 0 -212 -65t-188 -179q-16 66 -50 115.5t-77.5 76t-88.5 39.5t-91 13q-109 0 -208 -61.5t-179 -168.5v207h-317zM72 0v55h602v-55h-602zM387 84v692q169 252 387 252q54 0 102.5 -16.5t93 -53t71 -106t26.5 -164.5v-633h315v-55h-370v688q0 80 -20.5 138t-56 88.5 t-75.5 44.5t-86 14q-90 0 -175.5 -56.5t-156.5 -156.5v-621h232v-55h-287zM1090 772q174 256 391 256q54 0 102.5 -16.5t93 -53t71 -106t26.5 -164.5v-633h315v-55h-371v688q0 80 -20.5 138t-55.5 88.5t-75 44.5t-86 14q-89 0 -174.5 -56.5t-159.5 -158.5q4 -46 4 -70v-549 h231v-55h-286v604q0 44 -6 84z" />
<glyph unicode="n" horiz-adv-x="1466" d="M70 0v55h602v-55h-602zM70 84v55h231v811h-231v56h286v-922h-286zM70 1034v56h372v-132q186 154 377 154q57 0 110.5 -12t109 -44t96 -81t66.5 -129t26 -182v-525h229v-55h-287v580q0 90 -21.5 160.5t-55.5 113.5t-81 70.5t-93.5 38t-98.5 10.5q-116 0 -230 -63.5 t-204 -170.5v211h-315zM385 84v692q87 116 200.5 184t233.5 68q49 0 92 -9t86.5 -34t74 -64.5t50 -105t19.5 -151.5v-609h315v-55h-371v664q0 309 -266 309q-100 0 -200.5 -58.5t-176.5 -156.5v-619h230v-55h-287z" />
<glyph unicode="o" horiz-adv-x="1296" d="M82 547q0 153 75.5 283t205.5 206t284 76t284.5 -76t206.5 -206t76 -283q0 -155 -76 -285.5t-206.5 -206t-284.5 -75.5t-284 75.5t-205.5 206t-75.5 285.5zM137 547q0 -138 68.5 -256t186 -187t255.5 -69t256 69t187 187t69 256q0 137 -69 254.5t-187 186.5t-256 69 t-255.5 -69t-186 -186.5t-68.5 -254.5zM166 547q0 131 64 241.5t174.5 175t242.5 64.5t243 -64.5t175.5 -175t64.5 -241.5q0 -132 -64.5 -243.5t-175.5 -176t-243 -64.5t-242.5 64.5t-174.5 176t-64 243.5zM221 547q0 -177 124.5 -302.5t301.5 -125.5q175 0 301.5 126 t126.5 302q0 114 -58 212.5t-156.5 156t-213.5 57.5q-176 0 -301 -125.5t-125 -300.5z" />
<glyph unicode="p" horiz-adv-x="1472" d="M25 -420h231v1370h-231v56h286v-1481h-286v55zM25 -506h602v-55h-602v55zM25 1034v56h370v-175q78 92 189.5 144.5t238.5 52.5q154 0 285 -76t207 -206t76 -283q0 -116 -45 -221t-121 -181t-181.5 -120.5t-220.5 -44.5q-127 0 -238.5 51.5t-189.5 142.5v-594h232v-55 h-287v858q52 -154 184.5 -251t298.5 -97q138 0 256 69t187 187t69 256q0 137 -69 254.5t-187 186.5t-256 69q-165 0 -298 -97.5t-185 -250.5v325h-315zM342 547q0 131 64 241.5t174.5 175t242.5 64.5t243.5 -64.5t176 -175t64.5 -241.5q0 -201 -141.5 -342.5t-342.5 -141.5 q-132 0 -242.5 64.5t-174.5 176t-64 243.5zM397 547q0 -177 124.5 -302.5t301.5 -125.5q175 0 301.5 126t126.5 302q0 114 -58 212.5t-156.5 156t-213.5 57.5q-176 0 -301 -125.5t-125 -300.5z" />
<glyph unicode="q" horiz-adv-x="1464" d="M82 547q0 153 75.5 283t205.5 206t284 76q126 0 238 -52.5t192 -144.5v175h371v-56h-315v-327q-52 153 -186.5 251.5t-299.5 98.5q-138 0 -255.5 -69t-186 -186.5t-68.5 -254.5q0 -138 68.5 -256t186 -187t255.5 -69q165 0 299 98t187 252v-860h-287v55h231v596 q-79 -92 -191 -144t-239 -52q-154 0 -284 75.5t-205.5 206t-75.5 285.5zM166 547q0 131 64 241.5t174.5 175t242.5 64.5t243 -64.5t175.5 -175t64.5 -241.5q0 -132 -64.5 -243.5t-175.5 -176t-243 -64.5t-242.5 64.5t-174.5 176t-64 243.5zM221 547q0 -177 124.5 -302.5 t301.5 -125.5q175 0 301.5 126t126.5 302q0 114 -58 212.5t-156.5 156t-213.5 57.5q-176 0 -301 -125.5t-125 -300.5zM846 -506h602v-55h-602v55zM1161 -475v1481h287v-56h-231v-1370h231v-55h-287z" />
<glyph unicode="r" horiz-adv-x="1071" d="M63 0v55h603v-55h-603zM63 84v55h230v811h-230v56h287v-922h-287zM63 1034v56h371v-172q49 58 106.5 100t130.5 70q64 24 141 25q10 0 22 -1q90 -4 188 -43v-362h-55v323q-64 22 -126 25q-12 1 -24 1q-49 0 -89 -10q-50 -12 -97 -37.5t-84 -56.5t-70 -69.5t-56 -74.5 t-42 -73v299h-316zM379 84v578q12 34 30 70t46.5 79t63.5 78.5t80 68.5t97 50q50 16 112 20q9 1 20 0q53 0 110 -18v-303h-57v258q-30 5 -58 5q-38 0 -76 -9q-65 -16 -113.5 -49.5t-90 -80.5t-67 -91t-42.5 -87v-514h232v-55h-287z" />
<glyph unicode="s" horiz-adv-x="1202" d="M-86 0v55h199l114 195q146 -111 260.5 -163t217.5 -52q153 0 243 95.5t90 227.5q0 72 -29 142.5t-79 132t-99 111t-107.5 104.5t-86.5 88q-64 77 -64 148v12q6 76 93 161l39 -38q-71 -71 -76 -126v-9q0 -52 53 -113q25 -31 83.5 -86.5t110 -108t104 -118t83.5 -143.5 t31 -157q0 -99 -44.5 -183.5t-135 -139.5t-209.5 -55q-201 0 -463 190l-99 -170h-229zM-86 84v55h152l466 801q-43 74 -43 146q0 119 117 231l39 -39q-87 -86 -98 -169q-2 -13 -2 -25q0 -71 53 -144l-502 -856h-182zM242 274l374 641q31 -37 109.5 -112.5t134.5 -133 t103 -143.5t47 -168q0 -122 -82.5 -208.5t-222.5 -86.5q-97 0 -206.5 50.5t-256.5 160.5zM313 291q123 -91 216 -131.5t176 -40.5q113 0 181 71t68 168q0 43 -16 88.5t-38 81t-60.5 80.5t-67.5 73.5t-76 73.5t-69 68z" />
<glyph unicode="t" horiz-adv-x="929" d="M14 950v56h287v-631q1 -96 28.5 -166t70 -106t86 -52t87.5 -16q54 0 104 23.5t90 69.5q40 44 59 120q12 48 12 104q0 32 -4 66l53 8q5 -42 5 -82q0 -62 -13 -115q-22 -88 -69.5 -140.5t-108.5 -80.5t-128 -28q-40 0 -81 11t-86 39t-79 71t-57 114t-24 160v575h-232z M14 1034v56h232v358l55 22v-436h-287zM330 375v631h442v-56h-387v-575q1 -74 19 -127t47 -79.5t59 -38t63 -11.5q83 0 139 72q42 55 42 152q0 30 -4 63l55 8q4 -36 4 -69q0 -48 -9 -89q-16 -70 -51.5 -110.5t-80.5 -61.5t-95 -21q-33 0 -63.5 8t-63.5 29.5t-57.5 55.5 t-41 90.5t-17.5 128.5zM330 1034v449l55 24v-417h387v-56h-442z" />
<glyph unicode="u" horiz-adv-x="1421" d="M6 950v56h287v-578q0 -91 21.5 -161.5t55.5 -114t81.5 -71t94.5 -38t99 -10.5q115 0 229 63t203 168v-209h316v-55h-371v131q-182 -154 -377 -154q-57 0 -110.5 12.5t-108.5 44.5t-95.5 81t-66.5 130t-26 183v522h-232zM6 1034v56h371v-662q0 -311 268 -311 q99 0 199.5 57.5t177.5 155.5v620h-231v56h286v-695q-86 -114 -200 -182t-232 -68q-64 0 -116.5 16t-101.5 54.5t-77 114t-28 182.5v606h-316zM791 1034v56h370v-951h232v-55h-287v950h-315z" />
<glyph unicode="v" horiz-adv-x="1368" d="M-16 950v56h249l439 -1004l-51 -20l-422 968h-215zM-16 1034v56h581v-56h-581zM264 1006h301v-56h-215l334 -768l334 768h-215v56h299l-418 -963zM696 2l437 1004h251v-56h-215l-421 -968zM803 1034v56h581v-56h-581z" />
<glyph unicode="w" horiz-adv-x="1918" d="M-14 950v56h247l349 -1002l-52 -18l-333 964h-211zM-14 1034v56h581v-56h-581zM266 1006h301v-56h-223l258 -743l293 731l51 -20l-350 -867zM608 2l353 872l350 -872l-51 -20l-302 741l-296 -741zM975 918l49 20l295 -731l256 743h-223v56h301l-332 -955zM1337 4 l346 1002h250v-56h-209l-333 -964zM1352 1034v56h581v-56h-581z" />
<glyph unicode="x" horiz-adv-x="1306" d="M43 0v55h520v-55h-520zM43 84v55h207l317 418l-297 393h-207v56h232l340 -449l-361 -473h-231zM63 1034v56h521v-56h-521zM311 84l342 448l340 -448h-250v55h142l-232 303l-231 -303h141v-55h-252zM332 1006h252v-56h-142l211 -278l211 278h-141v56h250l-320 -424z M672 557l338 449h233v-56h-205l-297 -393l318 -418h205v-55h-234zM723 1034v56h520v-56h-520zM743 0v55h521v-55h-521z" />
<glyph unicode="y" horiz-adv-x="1394" d="M-170 -389l49 27q62 -103 154.5 -148t185.5 -45q138 0 248.5 101t204.5 319l493 1141h244v-56h-207l-479 -1108q-101 -230 -225 -341t-279 -111q-48 0 -96.5 10.5t-102 34t-103.5 69t-87 107.5zM-96 -346l49 29q48 -82 119 -118t147 -36q110 0 200.5 86t176.5 283l29 67 l-426 985h-215v56h249l451 -1041l-37 -88q-92 -213 -195 -308t-233 -95q-89 0 -172.5 41.5t-142.5 138.5zM-16 1034v56h581v-56h-581zM264 1006h301v-56h-215l350 -811l351 811h-224v56h308l-435 -1006zM827 1034v56h582v-56h-582z" />
<glyph unicode="z" horiz-adv-x="1200" d="M80 119l819 831h-641v-241h-55v297h827l-909 -926zM119 709v381h946v-56h-891v-325h-55zM131 0v55h911v326h56v-381h-967zM166 84l909 926l39 -39l-817 -832h661v242h56v-297h-848z" />
<glyph unicode="{" horiz-adv-x="669" d="M76 569v56h41q120 -4 188 -75.5t68 -162.5q0 -15 -2.5 -32t-5 -31t-9.5 -35.5t-11 -34t-14 -38.5t-14 -36.5t-16 -40.5t-16 -39q-66 -158 -66 -262q0 -52 16 -101t48.5 -92.5t91 -69.5t135.5 -26h82v-55h-82q-89 0 -158.5 32t-109 83.5t-59 110t-19.5 118.5q0 117 69 283 q7 17 24.5 61t24.5 62t17 48.5t14 52.5t4 42q0 71 -57.5 126.5t-155.5 55.5h-28zM76 653v56h28q98 0 155.5 56.5t57.5 127.5q0 20 -4 42t-14 52.5t-17 48.5t-24.5 62t-24.5 61q-69 166 -69 283q0 60 19.5 118.5t59 110t109 83.5t158.5 32h82v-55h-82q-77 0 -135.5 -26 t-91 -69.5t-48.5 -92.5t-16 -101q0 -99 64 -262q33 -79 45.5 -109.5t28.5 -85.5t16 -92q0 -94 -72 -167t-197 -73h-28zM203 639q93 28 145.5 101t52.5 153q0 21 -4.5 46.5t-9.5 45t-16.5 52.5t-17.5 48.5t-22.5 55t-21.5 51.5q-61 157 -61 250q0 50 14 94t43.5 82.5t82 61 t122.5 22.5h82v-55h-82q-108 0 -157.5 -59.5t-49.5 -145.5q0 -87 59 -230q6 -16 25 -62.5t27 -69.5t20.5 -60.5t17.5 -68t5 -58.5q0 -71 -32.5 -138.5t-94.5 -115.5q61 -46 94 -113.5t33 -138.5q0 -28 -5 -58.5t-17.5 -68t-20.5 -60.5t-27 -69.5t-25 -62.5 q-59 -143 -59 -230t49.5 -146t157.5 -59h82v-55h-82q-70 0 -122.5 22.5t-82 61t-43.5 82.5t-14 94q0 93 61 250q5 12 21.5 51.5t22.5 55t17.5 48.5t16.5 52.5t9.5 45t4.5 46.5q0 79 -53 151.5t-145 100.5z" />
<glyph unicode="|" horiz-adv-x="557" d="M209 -539v2358h55v-2358h-55zM293 -539v2358h55v-2358h-55z" />
<glyph unicode="}" horiz-adv-x="669" d="M78 -367h82q108 0 157.5 59.5t49.5 145.5q0 85 -60 230q-5 12 -24.5 61.5t-27 70.5t-20 60t-17.5 69t-5 58q0 71 32.5 138.5t94.5 115.5q-61 46 -94 113.5t-33 138.5q0 28 5 58t17.5 69t20 60t27 70.5t24.5 61.5q60 145 60 230q0 87 -49.5 146t-157.5 59h-82v55h82 q70 0 122.5 -22.5t82 -61t43.5 -82.5t14 -94q0 -90 -62 -250q-5 -12 -21.5 -51.5t-22.5 -55t-17.5 -48.5t-16.5 -52.5t-9.5 -45t-4.5 -46.5q0 -78 53.5 -151t145.5 -101q-93 -28 -146 -101t-53 -153q0 -21 4.5 -46.5t9.5 -45t16.5 -52.5t17.5 -48.5t22.5 -55t21.5 -51.5 q62 -160 62 -250q0 -50 -14 -94t-43.5 -82.5t-82 -61t-122.5 -22.5h-82v55zM78 -451h82q77 0 135.5 26t91 69.5t48.5 92.5t16 101q0 99 -64 262q-33 79 -45.5 109.5t-28.5 85.5t-16 92q0 95 71.5 167.5t196.5 72.5h29v-56h-29q-98 0 -155.5 -56.5t-57.5 -127.5q0 -20 4 -42 t14 -52.5t17 -48.5t24.5 -62t24.5 -61q70 -168 70 -283q0 -60 -19.5 -118.5t-59 -110t-109 -83.5t-158.5 -32h-82v55zM78 1731v55h82q89 0 158.5 -32t109 -83.5t59 -110t19.5 -118.5q0 -115 -70 -283q-7 -17 -24.5 -61t-24.5 -62t-17 -48.5t-14 -52.5t-4 -42 q0 -71 57.5 -126.5t155.5 -55.5h29v-56h-41q-120 4 -188 75.5t-68 162.5q0 15 2.5 32t5 31t9.5 35.5t11 34t14 38.5t14 36.5t16 40.5t16 39q66 158 66 262q0 52 -16 101t-48.5 92.5t-91 69.5t-135.5 26h-82z" />
<glyph unicode="~" horiz-adv-x="1116" d="M168 627q0 49 10.5 97t34.5 95.5t71.5 77t112.5 29.5q61 0 111 -30.5t102 -82.5q41 -44 64.5 -60t50.5 -16q90 0 90 160h55q0 -42 -7 -78t-22.5 -68t-45 -50.5t-70.5 -18.5t-75 21.5t-79 68.5q-46 48 -86.5 73t-87.5 25q-49 0 -84.5 -22t-54 -59t-27 -77t-8.5 -85h-55z M252 627q0 42 7 78t22.5 68t45 50.5t70.5 18.5t75 -21.5t79 -68.5q46 -48 86.5 -73.5t87.5 -25.5q49 0 84.5 22t54 59.5t27 77.5t8.5 85h55q0 -50 -10.5 -98t-34.5 -95.5t-71.5 -76.5t-112.5 -29q-61 0 -111 30.5t-102 82.5q-42 43 -65 59t-50 16q-90 0 -90 -159h-55z" />
<glyph unicode="&#xa1;" horiz-adv-x="585" d="M168 1499q0 51 37 88t88 37t88 -37t37 -88t-37 -87t-88 -36t-88 36t-37 87zM221 1499q0 -29 21.5 -50.5t50.5 -21.5t50.5 21.5t21.5 50.5t-21.5 50.5t-50.5 21.5t-50.5 -21.5t-21.5 -50.5zM223 0v1174h56v-1174h-56zM250 1499q0 19 12 31t31 12t31 -12t12 -31 q0 -18 -12.5 -30.5t-30.5 -12.5t-30.5 12.5t-12.5 30.5zM307 0v1174h55v-1174h-55z" />
<glyph unicode="&#xa2;" horiz-adv-x="1259" d="M115 625q0 141 63 261t175 197.5t253 94.5v196h56v-246q-138 -5 -251 -73.5t-177 -182.5t-64 -247t64 -247.5t177.5 -183.5t250.5 -73v-244h-56v193q-213 26 -352 183.5t-139 371.5zM199 625q0 128 59.5 234.5t165.5 171t238 69.5v-950q-198 6 -330.5 143t-132.5 332z M254 625q0 -155 100 -272t252 -142v827q-154 -26 -253 -142t-99 -271zM690 121q98 2 209.5 39.5t202.5 109.5l35 -45q-84 -67 -188 -106.5t-204 -50.5v-191h-55v244zM690 150v950q58 -1 111 -13t105 -40t87.5 -69t53 -107t6.5 -148l-56 6q10 75 -6.5 133.5t-54.5 94 t-85.5 56t-105.5 27.5v-831q176 22 308 127l32 -45q-90 -69 -195 -104t-200 -37zM690 1128v246h55v-194q62 -6 119.5 -24.5t114 -55.5t95.5 -88t58 -128.5t7 -170.5l-58 6q11 89 -8.5 160.5t-59 116t-95.5 75t-112.5 43.5t-115.5 14z" />
<glyph unicode="&#xa3;" horiz-adv-x="1320" d="M88 113q83 30 143 67.5t94 74.5t53.5 84t25.5 86.5t6 90.5q0 41 -7 92h-221v56h271q12 -71 12 -148q0 -55 -6.5 -99.5t-28.5 -97.5t-59.5 -96t-104 -86t-157.5 -76zM117 33q87 31 147 67q76 13 167 2t214 -39q200 -49 273 -49q188 0 264 166l51 -20q-89 -201 -315 -201 q-77 0 -285 51q-47 10 -75.5 16t-71.5 13t-74 10t-66.5 3t-64.5 -5q-51 -31 -144 -65zM182 692v58h195q-5 20 -16.5 55t-14.5 47q-70 193 -70 330q0 133 58 233t153 150.5t211 50.5q167 0 283 -103t129 -274l-55 -4q-10 147 -110 236.5t-247 89.5q-156 0 -261 -103 t-105 -276q0 -123 65 -312q40 -113 52 -178h-267zM315 135q104 79 141.5 174t37.5 207q0 66 -11 148h461v-56h-399q4 -62 4 -92q0 -200 -103 -330q40 -5 218 -41q192 -47 254 -47q45 0 78 10t54 29t33 36t23 42l49 -22q-14 -29 -28.5 -51t-41.5 -47t-69.5 -38.5t-97.5 -13.5 q-67 0 -267 49q-220 50 -336 43zM360 1182q0 163 96 256.5t242 93.5q137 0 227.5 -80.5t100.5 -220.5l-55 -4q-9 117 -83 183.5t-190 66.5q-123 0 -202.5 -79.5t-79.5 -215.5q0 -113 63 -283q39 -130 43 -149h422v-58h-467q-13 76 -51 187q-22 64 -33.5 103t-22 94.5 t-10.5 105.5z" />
<glyph unicode="&#xa5;" horiz-adv-x="1847" d="M80 1458v55h264l428 -677h-328v55h230l-361 567h-233zM80 1542v55h604v-55h-604zM379 1513h305v-55h-205l445 -704l446 704h-207v55h307l-546 -862zM444 391v55h465v-362h-286v55h231v252h-410zM444 475v55h410v76l-92 146h-318v55h347l118 -189v-143h-465zM623 0v55h604 v-55h-604zM938 84v362h465v-55h-410v-252h234v-55h-289zM938 475v143l119 189h346v-55h-318l-92 -148v-74h410v-55h-465zM1075 836l430 677h264v-55h-235l-360 -567h229v-55h-328zM1163 1542v55h606v-55h-606z" />
<glyph unicode="&#xa6;" horiz-adv-x="563" d="M211 782v1037h55v-1037h-55zM213 498h55v-1037h-55v1037zM295 782v1037h55v-1037h-55zM297 498h55v-1037h-55v1037z" />
<glyph unicode="&#xa7;" horiz-adv-x="1085" d="M123 803q0 83 48.5 154t143.5 112q-155 95 -155 250q0 135 102 222t270 87q85 0 158.5 -24.5t128 -70t80.5 -119.5t14 -165l-55 6q19 149 -76.5 233.5t-249.5 84.5q-146 0 -231.5 -71.5t-85.5 -182.5q0 -52 19.5 -94t57 -73.5t80 -54.5t101.5 -46q-144 -18 -219.5 -87.5 t-75.5 -160.5q0 -52 25 -96.5t52 -71t87 -56t86 -39t93 -31.5q13 -5 20 -7q74 -27 118.5 -48t91.5 -52.5t69 -72t22 -91.5q0 -99 -76.5 -161.5t-210.5 -62.5q-147 0 -232 73t-67 210l55 -6q-15 -106 53 -163.5t191 -57.5q108 0 169.5 48t61.5 120t-63.5 117t-200.5 94 q-148 49 -212 84q-187 101 -187 270zM172 309l55 -8q-14 -100 29 -173t121 -107.5t178 -34.5q146 0 230.5 70.5t84.5 181.5q0 98 -67.5 159t-190.5 109q145 18 221 87.5t76 160.5q0 51 -23.5 95t-50 70.5t-82.5 55.5t-83 39t-90 32q-21 7 -31 11q-58 21 -97 36.5t-82 39.5 t-68 49t-41.5 60t-16.5 77q0 99 77 162t211 63q147 0 231 -73.5t66 -210.5l-53 8q13 106 -54 163.5t-190 57.5q-109 0 -171 -48.5t-62 -121.5q0 -71 65.5 -117t202.5 -92q12 -5 44 -16t50.5 -18t51.5 -20.5t54 -25t50 -29t48 -35t39.5 -41t32.5 -48.5t20 -56.5t8 -66.5 q0 -82 -49.5 -154t-143.5 -113q154 -96 154 -249q0 -134 -102.5 -221t-268.5 -87q-85 0 -158.5 24.5t-128.5 70t-81.5 119.5t-14.5 165zM207 803q0 89 84.5 155t249.5 70q11 -4 43 -15t46.5 -16t45 -17t46 -20t41 -22.5t39.5 -27t31.5 -30.5t26 -36.5t15 -41.5t6.5 -48 q0 -88 -85.5 -154.5t-246.5 -69.5q-8 3 -24 8q-36 12 -54.5 18.5t-53 19.5t-55 24t-48 27.5t-44 33.5t-32.5 39t-23.5 48t-7.5 55zM262 803q0 -26 10 -49t23 -40t39.5 -34.5t46 -28t56.5 -24.5t57 -21t61 -20q134 3 202 53t68 115q0 18 -5 35t-11.5 30t-21.5 27t-25.5 23.5 t-32.5 21.5t-34.5 18.5t-40 17.5t-39.5 15.5t-43.5 15.5t-41.5 15q-136 -6 -202 -55t-66 -115z" />
<glyph unicode="&#xa8;" horiz-adv-x="651" d="M-377 1413q0 51 36 87t87 36q52 0 88.5 -36t36.5 -87t-36.5 -88t-88.5 -37q-51 0 -87 37t-36 88zM-326 1413q0 -29 21.5 -50.5t50.5 -21.5t50.5 21.5t21.5 50.5t-21.5 50.5t-50.5 21.5t-50.5 -21.5t-21.5 -50.5zM-297 1413q0 18 12.5 30.5t30.5 12.5q19 0 31 -12t12 -31 t-12 -31t-31 -12q-18 0 -30.5 12.5t-12.5 30.5zM47 1413q0 51 36 87t87 36t88 -36t37 -87t-37 -88t-88 -37t-87 37t-36 88zM98 1413q0 -29 21.5 -50.5t50.5 -21.5t50.5 21.5t21.5 50.5t-21.5 50.5t-50.5 21.5t-50.5 -21.5t-21.5 -50.5zM127 1413q0 18 12.5 30.5t30.5 12.5 q19 0 31 -12t12 -31t-12 -31t-31 -12q-18 0 -30.5 12.5t-12.5 30.5z" />
<glyph unicode="&#xa9;" horiz-adv-x="1845" d="M115 799q0 165 64 315t172 257.5t257.5 171t313.5 63.5q221 0 407 -107.5t294 -293t108 -406.5t-108 -406.5t-294 -293t-407 -107.5q-164 0 -313.5 63.5t-257.5 171t-172 257.5t-64 315zM170 799q0 -152 59.5 -291.5t160.5 -240.5t240.5 -160.5t291.5 -59.5 q153 0 292.5 59.5t240.5 160.5t160.5 240t59.5 292t-59.5 292t-160.5 239.5t-240.5 160t-292.5 59.5q-122 0 -236.5 -38t-207 -107.5t-162.5 -162t-108 -207t-38 -236.5zM199 799q0 197 96.5 363.5t263 263t363.5 96.5q198 0 365 -96.5t263.5 -263t96.5 -363.5t-96.5 -363.5 t-263.5 -263t-365 -96.5q-197 0 -363.5 96.5t-263 263t-96.5 363.5zM254 799q0 -180 90 -334t244 -244t334 -90q181 0 335 90t243 243.5t89 334.5q0 136 -52.5 259.5t-142 213t-213 142t-259.5 52.5q-181 0 -334.5 -89t-243.5 -243t-90 -335zM508 797q0 174 123 297t297 123 q108 0 213 -62v47h55v-168q-39 57 -114.5 92t-153.5 35q-150 0 -257.5 -107.5t-107.5 -256.5t108 -256t263 -107q69 0 150 27t151 78l35 -43q-74 -57 -166 -87t-170 -30q-180 0 -303 122.5t-123 295.5zM592 797q0 140 97.5 238t238.5 98q94 0 173.5 -48t94.5 -122v-125h-55 v112q-9 53 -73.5 90t-139.5 37q-116 0 -198.5 -82.5t-82.5 -197.5q0 -116 83 -197.5t204 -81.5q137 0 252 90l33 -47q-132 -98 -285 -98q-146 0 -244 97.5t-98 236.5zM1225 838v364h55v-364h-55z" />
<glyph unicode="&#xaa;" horiz-adv-x="1071" d="M106 1266q0 143 99.5 243.5t243.5 100.5q125 0 219 -78v65h247v-49h-198v-162q-36 78 -108 126.5t-160 48.5q-121 0 -207 -86.5t-86 -208.5t86 -207.5t207 -85.5q88 0 160 47t108 123v-156h198v-49h-247v61q-90 -75 -219 -75q-145 0 -244 98.5t-99 243.5zM184 1266 q0 113 76.5 189.5t188.5 76.5q113 0 189.5 -77t76.5 -189t-76.5 -188.5t-189.5 -76.5t-189 76.5t-76 188.5zM233 1266q0 -90 63 -152.5t153 -62.5q91 0 154 63t63 152t-64 153t-153 64q-88 0 -152 -64t-64 -153zM745 1016v504h170v-50h-120v-405h120v-49h-170z" />
<glyph unicode="&#xab;" horiz-adv-x="1210" d="M109 590l41 37l385 -410l-39 -37zM109 686l387 410l39 -39l-385 -410zM178 637l379 401l41 -39l-342 -362l342 -361l-41 -38zM606 590l41 37l385 -410l-39 -37zM606 686l387 410l39 -39l-385 -410zM676 637l379 401l41 -39l-342 -362l342 -361l-41 -38z" />
<glyph unicode="&#xad;" horiz-adv-x="813" d="M147 567v56h519v-56h-519zM147 651v58h519v-58h-519z" />
<glyph unicode="&#xae;" horiz-adv-x="1282" d="M123 1114q0 107 40.5 203t109.5 165t165 109.5t203 40.5q106 0 202 -40.5t165 -109.5t110 -165.5t41 -202.5t-41 -202.5t-110 -165.5t-165 -109.5t-202 -40.5q-107 0 -203 40.5t-165 109.5t-109.5 165t-40.5 203zM166 1114q0 -128 64 -237.5t173.5 -173.5t237.5 -64 t237.5 64t173.5 173.5t64 237.5t-64 237.5t-173.5 173.5t-237.5 64t-237.5 -64t-173.5 -173.5t-64 -237.5zM195 1114q0 186 130 316.5t316 130.5t316 -130.5t130 -316.5t-130 -316t-316 -130t-316 130t-130 316zM238 1114q0 -166 118.5 -284.5t284.5 -118.5q165 0 284 119 t119 284q0 109 -54.5 202t-147.5 147.5t-201 54.5q-166 0 -284.5 -119t-118.5 -285zM412 1272v43h98v-379h-96v43h53v293h-55zM412 1343v43h295q82 0 134 -50t52 -122q0 -57 -34 -100.5t-91 -62.5l43 -72h82v-43h-109l-86 149h9q62 0 102.5 38.5t40.5 90.5t-40.5 90.5 t-102.5 38.5h-295zM414 864v43h217v-43h-217zM539 936v149h129l86 -149h-78v43h2l-37 63h-59v-63h49v-43h-92zM539 1114v201h168q52 0 83 -29t31 -72t-31 -71.5t-83 -28.5h-168zM582 1157h125q31 0 51 16.5t20 40.5t-20 41t-51 17h-125v-115zM676 864v43h217v-43h-217z" />
<glyph unicode="&#xaf;" horiz-adv-x="800" d="M-162 1298v56h643v-56h-643zM-162 1382v56h643v-56h-643z" />
<glyph unicode="&#xb0;" horiz-adv-x="894" d="M109 1255q0 142 97.5 241t239.5 99q141 0 240.5 -99.5t99.5 -240.5q0 -140 -100 -238.5t-240 -98.5q-142 0 -239.5 98t-97.5 239zM164 1255q0 -117 82.5 -199.5t199.5 -82.5q116 0 200.5 83t84.5 199q0 117 -84.5 201t-200.5 84q-117 0 -199.5 -84t-82.5 -201zM193 1255 q0 108 73 182t180 74q106 0 181 -74.5t75 -181.5t-75 -180.5t-181 -73.5q-107 0 -180 73.5t-73 180.5zM248 1255q0 -83 57.5 -140.5t140.5 -57.5t141 58t58 140t-58.5 141.5t-140.5 59.5t-140 -59t-58 -142z" />
<glyph unicode="&#xb1;" horiz-adv-x="1220" d="M160 51v55h897v-55h-897zM160 135v55h897v-55h-897zM162 705v55h432v-434h-55v379h-377zM162 788v56h377v377h55v-433h-432zM623 326v434h436v-55h-381v-379h-55zM623 788v433h55v-377h381v-56h-436z" />
<glyph unicode="&#xb2;" horiz-adv-x="845" d="M66 668q0 78 20.5 145t49 112.5t76 89.5t83 68t88.5 56q47 27 63 36.5t52 32.5t49.5 37.5t32.5 37.5t25.5 46t6.5 51q0 70 -49.5 111t-128.5 41q-99 0 -160 -55.5t-43 -157.5l-49 -8q-11 67 6.5 120.5t56 85t87 48t102.5 16.5q100 0 164 -53.5t64 -147.5q0 -29 -8 -56 t-17 -46.5t-32 -43t-36 -35.5t-47.5 -34.5t-47.5 -30.5t-54 -31q-8 -5 -12 -7q-52 -30 -85.5 -52.5t-77 -62t-69 -80.5t-43.5 -101.5t-18 -131.5h-49zM104 1298q-12 71 2.5 131.5t47.5 102t79.5 71t97.5 43t103 13.5q128 0 216.5 -74.5t88.5 -204.5q0 -52 -18 -99t-43 -79.5 t-66 -65.5t-72.5 -52.5t-77.5 -46.5q-11 -6 -16 -9q-98 -58 -154.5 -109.5t-82.5 -130.5q46 11 78 11q52 0 151 -29q86 -20 111 -20q66 0 85.5 45t-18.5 137l46 20q48 -117 13.5 -184.5t-126.5 -67.5q-14 0 -31 2.5t-28.5 5t-32.5 8t-31 7.5q-97 27 -139 27q-78 0 -144 -50 q4 59 22.5 110t42.5 86t63.5 70t71 56t79.5 49q121 70 164 106q104 88 104 203q0 105 -74.5 167.5t-181.5 62.5q-57 0 -111 -19t-97 -54.5t-64 -95.5t-8 -134zM139 657q56 64 148 64q34 0 131 -27q95 -22 131 -22q107 0 150 81t-13 212l45 20q67 -158 10 -260t-192 -102 q-57 0 -143 24q-90 25 -119 25q-74 0 -109 -45z" />
<glyph unicode="&#xb3;" horiz-adv-x="825" d="M49 686l27 41q169 -111 325 -111q128 0 213.5 75.5t85.5 193.5q0 99 -73.5 171t-212.5 99q129 27 189.5 94.5t60.5 145.5q0 98 -71 156.5t-173 58.5q-108 0 -185.5 -65.5t-89.5 -180.5l-49 6q15 130 107.5 209.5t216.5 79.5q123 0 208 -71t85 -193q0 -68 -35.5 -131 t-108.5 -105q181 -90 181 -274q0 -144 -99 -231t-250 -87q-168 0 -352 119zM92 752l27 41q151 -99 282 -99q98 0 160 53t62 138q0 92 -91 149.5t-274 57.5v49q201 0 307.5 -71t106.5 -185q0 -109 -75.5 -174.5t-195.5 -65.5q-147 0 -309 107zM174 1362q12 104 79 161.5 t167 57.5q95 0 155 -49.5t60 -136.5q0 -41 -19.5 -79t-60.5 -72t-117.5 -54.5t-179.5 -20.5v50h18q163 3 236.5 55t73.5 121q0 62 -46 99.5t-120 37.5q-81 0 -134 -45.5t-63 -130.5z" />
<glyph unicode="&#xb4;" horiz-adv-x="403" d="M-326 1370l476 322l30 -45l-475 -324zM-279 1298l476 324l30 -47l-475 -322z" />
<glyph unicode="&#xb5;" horiz-adv-x="1550" d="M76 950v56h286v-1538h-55v1482h-231zM76 1034v56h370v-662q0 -311 269 -311q99 0 199.5 57.5t177.5 155.5v620h-232v56h287v-695q-86 -114 -200 -182t-232 -68q-50 0 -93.5 9t-87 34.5t-74 65t-50 106t-19.5 152.5v606h-315zM391 244q41 -113 128.5 -162t195.5 -49 q115 0 229 63t203 168v-209h315v-55h-370v131q-182 -154 -377 -154q-162 0 -269 91v-600h-55v776zM860 1034v56h371v-951h231v-55h-286v950h-316z" />
<glyph unicode="&#xb6;" horiz-adv-x="1560" d="M86 1083q0 215 149.5 364.5t364.5 149.5h844v-55h-844q-189 0 -324 -135t-135 -324q0 -123 61.5 -228t167.5 -166.5t230 -61.5h131v-543h-287v55h232v432h-76q-141 0 -259.5 68t-186.5 186t-68 258zM170 1083q0 180 125 305t305 125h131v-858h-131q-180 0 -305 124.5 t-125 303.5zM227 1083q0 -153 109.5 -262.5t263.5 -109.5h76v747h-76q-154 0 -263.5 -110.5t-109.5 -264.5zM444 0v55h1000v-55h-1000zM760 84v1429h366v-1429h-366zM817 139h254v1319h-254v-1319zM1155 84v1429h289v-55h-232v-1319h232v-55h-289z" />
<glyph unicode="&#xb7;" horiz-adv-x="538" d="M143 659q0 51 37 88t88 37t88 -37t37 -88t-37 -86.5t-88 -35.5t-88 35.5t-37 86.5zM197 659q0 -29 21 -50t50 -21t50.5 21t21.5 50t-21.5 50.5t-50.5 21.5t-50 -21.5t-21 -50.5zM225 659q0 19 12 31t31 12t31 -12t12 -31q0 -18 -12.5 -30.5t-30.5 -12.5t-30.5 12.5 t-12.5 30.5z" />
<glyph unicode="&#xb8;" horiz-adv-x="589" d="M186 -528l25 51q16 -9 44.5 -22.5t107.5 -35.5t147 -22q125 0 198.5 65.5t73.5 159.5q0 91 -72.5 159.5t-220.5 63.5v166h56v-110q147 -10 220 -92.5t73 -186.5q0 -119 -89 -199.5t-239 -80.5q-75 0 -156 21t-124 42zM223 -453l27 50q14 -8 39 -19t93.5 -30t127.5 -19 q90 0 139 40.5t49 98.5q0 62 -52.5 103.5t-164.5 33.5l-4 56q74 6 130 -9t86.5 -45t45.5 -65t15 -74q0 -84 -64 -140t-180 -56q-64 0 -136 19t-112 37zM406 57h55v-182h-55v182z" />
<glyph unicode="&#xb9;" horiz-adv-x="565" d="M78 1585l203 78l14 -45l-201 -78zM102 1511l185 70v-833h-174v49h125v712l-119 -45zM113 670v49h376v-49h-376zM315 748v856h50v-807h124v-49h-174z" />
<glyph unicode="&#xba;" horiz-adv-x="901" d="M106 1266q0 143 99.5 243.5t243.5 100.5q145 0 244.5 -99.5t99.5 -244.5t-99.5 -243.5t-244.5 -98.5t-244 98.5t-99 243.5zM156 1266q0 -122 86 -207.5t207 -85.5q122 0 208 86t86 207q0 122 -86.5 208.5t-207.5 86.5t-207 -86.5t-86 -208.5zM184 1266q0 113 76.5 189.5 t188.5 76.5q113 0 189.5 -77t76.5 -189t-76.5 -188.5t-189.5 -76.5t-189 76.5t-76 188.5zM233 1266q0 -90 63 -152.5t153 -62.5q91 0 154 63t63 152t-64 153t-153 64q-88 0 -152 -64t-64 -153z" />
<glyph unicode="&#xbb;" horiz-adv-x="1216" d="M117 281l342 362l-342 361l41 38l379 -399l-379 -401zM180 223l385 410l41 -39l-387 -410zM180 1063l39 37l387 -410l-41 -37zM616 281l342 362l-342 361l41 38l379 -399l-379 -401zM680 223l385 410l41 -39l-387 -410zM680 1063l39 37l387 -410l-41 -37z" />
<glyph unicode="&#xbc;" horiz-adv-x="1957" d="M111 1585l202 78l15 -45l-201 -78zM135 1511l184 70v-833h-174v49h125v712l-118 -45zM145 670v49h377v-49h-377zM307 0l993 1597h60l-993 -1597h-60zM348 748v856h49v-807h125v-49h-174zM401 0l994 1597h57l-993 -1597h-58zM1020 344l528 774l41 -28l-528 -773zM1081 297 q76 63 189 63q63 0 170.5 -20.5t150.5 -24.5v-237h-174v49h125v145q-25 3 -121.5 21t-150.5 18q-90 0 -158 -51zM1124 356l488 717l43 -26l-416 -611q10 2 31 2q46 0 89.5 -5.5t104 -17t78.5 -14.5v275h49v-332q-41 4 -148.5 24.5t-172.5 20.5q-84 0 -146 -33zM1417 0v49 h377v-49h-377zM1620 78v235h35q122 0 186 78l41 -31q-75 -93 -213 -96v-137h125v-49h-174zM1620 342v334h49v-285q77 3 115 49l37 -30q-29 -37 -67.5 -52.5t-98.5 -15.5h-35z" />
<glyph unicode="&#xbd;" horiz-adv-x="1933" d="M98 1585l203 78l14 -45l-200 -78zM123 1511l184 70v-833h-174v49h125v712l-119 -45zM133 670v49h377v-49h-377zM301 0l993 1597h60l-994 -1597h-59zM336 748v856h49v-807h125v-49h-174zM395 0l994 1597h57l-993 -1597h-58zM1135 0q0 78 20.5 145t49 112.5t76 89.5t83 68 t88.5 56q40 23 54.5 31.5t46.5 28.5t44.5 31t33 31t28.5 36t15 38t7 46q0 69 -49.5 110t-128.5 41q-99 0 -160 -55.5t-43 -157.5l-49 -8q-11 67 6.5 120.5t56 85t87 48t102.5 16.5q100 0 164 -53t64 -147q0 -23 -5.5 -45t-11 -39.5t-21.5 -37t-25 -31.5t-33 -30.5t-34 -26.5 t-40.5 -26.5t-40 -23.5t-43.5 -25q-52 -30 -85.5 -52.5t-77 -62t-69 -80.5t-43.5 -101.5t-18 -131.5h-49zM1174 631q-12 71 2.5 131.5t47.5 102t79 70.5t97 42.5t103 13.5q128 0 216.5 -74.5t88.5 -203.5q0 -65 -22.5 -118t-74 -99t-82 -67t-100.5 -61q-2 -2 -3 -2.5 l-3 -1.5t-3.5 -2t-3.5 -2q-49 -29 -78 -48.5t-64.5 -49.5t-58.5 -64.5t-37 -76.5q42 10 78 10q52 0 151 -29q86 -20 111 -20q66 0 86 45t-18 137l45 21q48 -117 13.5 -184.5t-126.5 -67.5q-28 0 -123 22q-97 27 -139 27q-79 0 -144 -49q5 73 29 131.5t68 103t82 72t100 63.5 q122 71 166 109q101 88 102 201q0 105 -74.5 167t-181.5 62q-57 0 -111 -19t-97 -54.5t-64 -95.5t-8 -134zM1208 -10q55 63 148 63q38 0 131 -26q99 -23 131 -23q107 0 150 81t-13 212l45 20q67 -158 10 -260t-192 -102q-53 0 -143 25q-86 24 -119 24q-74 0 -109 -45z" />
<glyph unicode="&#xbe;" horiz-adv-x="2201" d="M104 686l27 41q169 -111 326 -111q128 0 213.5 75.5t85.5 193.5q0 99 -74 171t-213 99q129 27 189.5 94.5t60.5 145.5q0 98 -71 156.5t-173 58.5q-108 0 -185 -65.5t-89 -180.5l-49 6q15 130 107.5 209.5t215.5 79.5t208 -71t85 -193q0 -68 -35.5 -131t-107.5 -105 q180 -89 180 -274q0 -144 -98.5 -231t-249.5 -87q-169 0 -353 119zM147 752l27 41q151 -99 283 -99q98 0 159.5 53t61.5 138q0 92 -91 149.5t-274 57.5v49q201 0 307.5 -71t106.5 -185q0 -109 -75 -174.5t-195 -65.5q-148 0 -310 107zM229 1362q12 104 79 161.5t167 57.5 q95 0 155 -49.5t60 -136.5q0 -41 -19.5 -79t-60.5 -72t-117.5 -54.5t-179.5 -20.5v50h19q163 3 236 55t73 121q0 62 -46 99.5t-120 37.5q-81 0 -133.5 -45.5t-62.5 -130.5zM549 0l993 1597h60l-994 -1597h-59zM643 0l993 1597h58l-994 -1597h-57zM1264 344l528 774l41 -28 l-528 -773zM1325 297q76 63 188 63q63 0 171 -20.5t151 -24.5v-237h-174v49h125v145q-24 3 -121.5 21t-151.5 18q-89 0 -157 -51zM1368 356l487 717l43 -26l-415 -611q10 2 30 2q46 0 89.5 -5.5t105 -17t78.5 -14.5v275h49v-332q-40 4 -148.5 24.5t-173.5 20.5 q-83 0 -145 -33zM1661 0v49h377v-49h-377zM1864 78v235h34q123 0 187 78l41 -31q-75 -93 -213 -96v-137h125v-49h-174zM1864 342v334h49v-285q77 3 115 49l36 -30q-29 -37 -67.5 -52.5t-98.5 -15.5h-34z" />
<glyph unicode="&#xbf;" horiz-adv-x="1036" d="M84 352q0 66 21 126t48.5 101t73.5 83t76.5 63t77.5 51q36 23 57 37t46.5 32.5t39 31t29 29t22 31t11.5 32.5t4 37t-6 41l-13 51l52 12l12 -51q8 -33 8 -62.5t-5.5 -53t-23 -47.5t-33.5 -41.5t-47.5 -41t-56 -39.5t-67.5 -43q-45 -29 -74 -49t-70 -57.5t-65 -73.5 t-42 -88.5t-18 -110.5q0 -147 101.5 -238t251.5 -91q61 0 120 15.5t110.5 47t88.5 75.5t55.5 106.5t10.5 133.5l55 9q10 -85 -10.5 -158.5t-63.5 -124.5t-103 -88t-127 -54.5t-136 -17.5q-174 0 -292 105t-118 280zM170 352q0 54 16.5 102t39 81.5t61 68.5t67 55t72.5 48 q43 27 68.5 43.5t58.5 41.5t50.5 44.5t36.5 46.5t25.5 53.5t7 60t-8.5 70.5l-13 49l54 14l12 -51q10 -40 11.5 -75.5t-7 -66.5t-19.5 -57t-33.5 -52t-42 -45.5t-52.5 -43.5t-56.5 -40t-62.5 -40q-54 -34 -86.5 -58t-70 -62.5t-55.5 -84.5t-18 -102q0 -112 75 -179t194 -67 q134 0 225.5 78t75.5 209l55 6q10 -82 -16.5 -149.5t-78.5 -110t-119.5 -65.5t-141.5 -23q-141 0 -232.5 81.5t-91.5 219.5zM481 1497q0 51 37 88t88 37t88 -37t37 -88t-37 -87t-88 -36t-88 36t-37 87zM535 1497q0 -29 21 -50.5t50 -21.5t50.5 21.5t21.5 50.5t-21.5 50.5 t-50.5 21.5t-50 -21.5t-21 -50.5zM563 1497q0 19 12 31t31 12t31 -12t12 -31q0 -18 -12.5 -30.5t-30.5 -12.5t-30.5 12.5t-12.5 30.5z" />
<glyph unicode="&#xc0;" horiz-adv-x="1769" d="M-35 0v55h606v-55h-606zM-35 84v55h225l631 1477l51 -23l-645 -1509h-262zM258 84l197 459h862l194 -459h-311v55h227l-149 348h-789l-147 -348h229v-55h-313zM467 571l418 981l420 -981h-838zM549 627h670l-334 784zM608 2034l31 47l475 -324l-31 -45zM655 2105l31 45 l475 -321l-31 -47zM897 1593l51 23l631 -1477h227v-55h-264zM1200 0v55h606v-55h-606z" />
<glyph unicode="&#xc1;" horiz-adv-x="1769" d="M-35 0v55h606v-55h-606zM-35 84v55h225l631 1477l51 -23l-645 -1509h-262zM258 84l197 459h862l194 -459h-311v55h227l-149 348h-789l-147 -348h229v-55h-313zM467 571l418 981l420 -981h-838zM549 627h670l-334 784zM608 1829l475 321l31 -45l-475 -323zM655 1757 l475 324l31 -47l-475 -322zM897 1593l51 23l631 -1477h227v-55h-264zM1200 0v55h606v-55h-606z" />
<glyph unicode="&#xc2;" horiz-adv-x="1769" d="M-35 0v55h606v-55h-606zM-35 84v55h225l631 1477l51 -23l-645 -1509h-262zM258 84l197 459h862l194 -459h-311v55h227l-149 348h-789l-147 -348h229v-55h-313zM467 571l418 981l420 -981h-838zM530 1847l355 256l356 -256l-35 -45l-321 234l-322 -234zM549 627h670 l-334 784zM582 1778l303 221l305 -221l-33 -45l-272 198l-273 -198zM897 1593l51 23l631 -1477h227v-55h-264zM1200 0v55h606v-55h-606z" />
<glyph unicode="&#xc3;" horiz-adv-x="1769" d="M-35 0v55h606v-55h-606zM-35 84v55h225l631 1477l51 -23l-645 -1509h-262zM258 84l197 459h862l194 -459h-311v55h227l-149 348h-789l-147 -348h229v-55h-313zM467 571l418 981l420 -981h-838zM492 1761q0 49 10.5 97t34.5 95.5t71.5 77t112.5 29.5q61 0 111.5 -30.5 t101.5 -81.5q41 -44 64.5 -60t50.5 -16q90 0 90 160h55q0 -42 -7 -78t-22.5 -68t-45 -50.5t-70.5 -18.5t-75 21.5t-79 68.5q-46 48 -86.5 73t-87.5 25q-49 0 -84.5 -22t-54 -59.5t-27 -77.5t-8.5 -85h-55zM549 627h670l-334 784zM575 1761q0 58 11.5 103t46 78.5t88.5 33.5 q41 0 74.5 -21.5t78.5 -68.5q94 -98 175 -98q49 0 84.5 22t54 59.5t27 77.5t8.5 85h55q0 -50 -10.5 -98t-34.5 -95.5t-71.5 -76.5t-112.5 -29q-61 0 -111.5 30.5t-101.5 81.5q-42 44 -65.5 60t-49.5 16q-90 0 -90 -160h-56zM897 1593l51 23l631 -1477h227v-55h-264zM1200 0 v55h606v-55h-606z" />
<glyph unicode="&#xc4;" horiz-adv-x="1769" d="M-35 0v55h606v-55h-606zM-35 84v55h225l631 1477l51 -23l-645 -1509h-262zM258 84l197 459h862l194 -459h-311v55h227l-149 348h-789l-147 -348h229v-55h-313zM467 571l418 981l420 -981h-838zM549 627h670l-334 784zM549 1872q0 51 36 87t87 36q52 0 88.5 -36t36.5 -87 t-36.5 -88t-88.5 -37q-51 0 -87 37t-36 88zM600 1872q0 -29 21.5 -50.5t50.5 -21.5t50 21.5t21 50.5t-21 50.5t-50 21.5t-50.5 -21.5t-21.5 -50.5zM629 1872q0 18 12.5 30.5t30.5 12.5q19 0 31 -12t12 -31t-12 -31t-31 -12q-18 0 -30.5 12.5t-12.5 30.5zM897 1593l51 23 l631 -1477h227v-55h-264zM973 1872q0 51 36 87t87 36t88 -36t37 -87t-37 -88t-88 -37t-87 37t-36 88zM1024 1872q0 -29 21.5 -50.5t50.5 -21.5t50 21.5t21 50.5t-21 50.5t-50 21.5t-50.5 -21.5t-21.5 -50.5zM1053 1872q0 18 12.5 30.5t30.5 12.5q19 0 31 -12t12 -31t-12 -31 t-31 -12q-18 0 -30.5 12.5t-12.5 30.5zM1200 0v55h606v-55h-606z" />
<glyph unicode="&#xc5;" horiz-adv-x="1771" d="M-33 0v55h606v-55h-606zM-33 84v55h226l600 1407q-67 28 -108.5 89.5t-41.5 136.5q0 102 70.5 172.5t173.5 70.5q101 0 171 -70t70 -173q0 -76 -41 -137t-108 -89l602 -1407h227v-55h-264l-643 1501q71 6 121.5 60.5t50.5 126.5q0 76 -55.5 132t-130.5 56q-77 0 -133 -56 t-56 -132q0 -72 50.5 -126.5t121.5 -60.5l-641 -1501h-262zM260 84l197 459h862l194 -459h-311v55h228l-150 348h-788l-148 -348h229v-55h-313zM469 571l418 981l420 -981h-838zM551 627h670l-334 784zM727 1772q0 67 46 113t114 46q66 0 111.5 -46t45.5 -113 q0 -66 -45.5 -112t-111.5 -46q-67 0 -113.5 46t-46.5 112zM782 1772q0 -41 31 -72t74 -31q40 0 71 31t31 72t-31 72.5t-71 31.5q-43 0 -74 -31t-31 -73zM1202 0v55h606v-55h-606z" />
<glyph unicode="&#xc6;" horiz-adv-x="2443" d="M-41 0v55h604v-55h-604zM-41 84v55h234l933 1319h-145v55h252l-1012 -1429h-262zM258 84l332 469h737v-469h-287v55h232v357h-656l-251 -357h198v-55h-305zM610 582l660 931h57v-931h-717zM717 637h555v782zM981 1542v55h1350v-393h-56v338h-1294zM1040 0v55h1256v338h55 v-393h-1311zM1356 84v717h702v-56h-647v-606h801v254h55v-309h-911zM1356 829v684h891v-309h-56v254h-780v-573h647v-56h-702z" />
<glyph unicode="&#xc7;" horiz-adv-x="1685" d="M86 799q0 168 65.5 321.5t176.5 264.5t264.5 177t322.5 66q144 0 280 -50.5t230 -141.5v161h56v-333q-62 140 -221.5 224.5t-344.5 84.5q-208 0 -386.5 -104.5t-283 -283t-104.5 -386.5q0 -148 56 -285.5t151 -240t226.5 -168.5t277.5 -78v-179h-55v132 q-199 27 -361.5 141.5t-256 293t-93.5 384.5zM170 799q0 152 59 290t158.5 237.5t237.5 158.5t290 59q138 0 260.5 -46t206.5 -135.5t99 -203.5v-244h-56v236q-12 98 -86.5 176t-186 120t-237.5 42q-139 0 -267 -55t-220.5 -148t-147.5 -220.5t-55 -266.5q0 -186 93 -345 t252 -252t345 -93q165 0 299.5 47t260.5 159l34 -41q-133 -119 -277 -170t-317 -51q-152 0 -290 59t-237.5 159t-158.5 238t-59 290zM578 -555l24 51q16 -9 44.5 -22.5t107.5 -35.5t147 -22q125 0 199 66t74 160q0 91 -72.5 159.5t-220.5 63.5v160h34q175 0 325 53t288 174 l39 -41q-267 -236 -631 -242v-49q147 -10 220 -92t73 -186q0 -119 -89 -200t-239 -81q-75 0 -155.5 21t-123.5 42zM614 -479l27 49q14 -8 39 -19t93.5 -30t127.5 -19q90 0 139.5 41t49.5 99q0 62 -53 103.5t-165 33.5l-4 55q74 6 130 -9t86.5 -44.5t45.5 -64.5t15 -74 q0 -84 -64 -140.5t-180 -56.5q-64 0 -136 19t-111 38zM1509 915v682h58v-682h-58z" />
<glyph unicode="&#xc8;" horiz-adv-x="1486" d="M86 0v55h1249v338h56v-393h-1305zM86 84v55h231v1319h-231v55h287v-1429h-287zM86 1542v55h1290v-393h-55v338h-1235zM401 84v717h705v-56h-649v-606h794v254h56v-309h-906zM401 829v684h891v-309h-55v254h-780v-573h649v-56h-705zM506 2034l31 47l475 -324l-31 -45z M553 2105l31 45l475 -321l-31 -47z" />
<glyph unicode="&#xc9;" horiz-adv-x="1486" d="M86 0v55h1249v338h56v-393h-1305zM86 84v55h231v1319h-231v55h287v-1429h-287zM86 1542v55h1290v-393h-55v338h-1235zM401 84v717h705v-56h-649v-606h794v254h56v-309h-906zM401 829v684h891v-309h-55v254h-780v-573h649v-56h-705zM506 1829l475 321l31 -45l-475 -323z M553 1757l475 324l31 -47l-475 -322z" />
<glyph unicode="&#xca;" horiz-adv-x="1486" d="M86 0v55h1249v338h56v-393h-1305zM86 84v55h231v1319h-231v55h287v-1429h-287zM86 1542v55h1290v-393h-55v338h-1235zM401 84v717h705v-56h-649v-606h794v254h56v-309h-906zM401 829v684h891v-309h-55v254h-780v-573h649v-56h-705zM426 1847l354 256l357 -256l-35 -45 l-322 234l-321 -234zM477 1778l303 221l305 -221l-32 -45l-273 198l-272 -198z" />
<glyph unicode="&#xcb;" horiz-adv-x="1486" d="M86 0v55h1249v338h56v-393h-1305zM86 84v55h231v1319h-231v55h287v-1429h-287zM86 1542v55h1290v-393h-55v338h-1235zM401 84v717h705v-56h-649v-606h794v254h56v-309h-906zM401 829v684h891v-309h-55v254h-780v-573h649v-56h-705zM446 1872q0 51 36 87t87 36 q52 0 88.5 -36t36.5 -87t-36.5 -88t-88.5 -37q-51 0 -87 37t-36 88zM498 1872q0 -29 21 -50.5t50 -21.5t50.5 21.5t21.5 50.5t-21.5 50.5t-50.5 21.5t-50 -21.5t-21 -50.5zM526 1872q0 18 12.5 30.5t30.5 12.5q19 0 31 -12t12 -31t-12 -31t-31 -12q-18 0 -30.5 12.5 t-12.5 30.5zM870 1872q0 51 36 87t87 36t88 -36t37 -87t-37 -88t-88 -37t-87 37t-36 88zM922 1872q0 -29 21 -50.5t50 -21.5t50.5 21.5t21.5 50.5t-21.5 50.5t-50.5 21.5t-50 -21.5t-21 -50.5zM950 1872q0 18 12.5 30.5t30.5 12.5q19 0 31 -12t12 -31t-12 -31t-31 -12 q-18 0 -30.5 12.5t-12.5 30.5z" />
<glyph unicode="&#xcc;" horiz-adv-x="776" d="M86 0v55h604v-55h-604zM86 84v55h231v1319h-231v55h287v-1429h-287zM86 1542v55h604v-55h-604zM111 2034l30 47l475 -324l-30 -45zM158 2105l30 45l476 -321l-31 -47zM401 84v1429h289v-55h-233v-1319h233v-55h-289z" />
<glyph unicode="&#xcd;" horiz-adv-x="776" d="M86 0v55h604v-55h-604zM86 84v55h231v1319h-231v55h287v-1429h-287zM86 1542v55h604v-55h-604zM111 1829l475 321l30 -45l-475 -323zM158 1757l475 324l31 -47l-476 -322zM401 84v1429h289v-55h-233v-1319h233v-55h-289z" />
<glyph unicode="&#xce;" horiz-adv-x="776" d="M33 1847l354 256l356 -256l-34 -45l-322 234l-321 -234zM84 1778l303 221l305 -221l-33 -45l-272 198l-272 -198zM86 0v55h604v-55h-604zM86 84v55h231v1319h-231v55h287v-1429h-287zM86 1542v55h604v-55h-604zM401 84v1429h289v-55h-233v-1319h233v-55h-289z" />
<glyph unicode="&#xcf;" horiz-adv-x="776" d="M53 1872q0 51 36 87t87 36q52 0 88.5 -36t36.5 -87t-36.5 -88t-88.5 -37q-51 0 -87 37t-36 88zM86 0v55h604v-55h-604zM86 84v55h231v1319h-231v55h287v-1429h-287zM86 1542v55h604v-55h-604zM104 1872q0 -29 21.5 -50.5t50.5 -21.5t50.5 21.5t21.5 50.5t-21.5 50.5 t-50.5 21.5t-50.5 -21.5t-21.5 -50.5zM133 1872q0 18 12.5 30.5t30.5 12.5q19 0 31 -12t12 -31t-12 -31t-31 -12q-18 0 -30.5 12.5t-12.5 30.5zM401 84v1429h289v-55h-233v-1319h233v-55h-289zM477 1872q0 51 36 87t87 36t88 -36t37 -87t-37 -88t-88 -37t-87 37t-36 88z M528 1872q0 -29 21.5 -50.5t50.5 -21.5t50.5 21.5t21.5 50.5t-21.5 50.5t-50.5 21.5t-50.5 -21.5t-21.5 -50.5zM557 1872q0 18 12.5 30.5t30.5 12.5q19 0 31 -12t12 -31t-12 -31t-31 -12q-18 0 -30.5 12.5t-12.5 30.5z" />
<glyph unicode="&#xd0;" horiz-adv-x="1748" d="M86 0v55h797q165 0 301 57.5t226 158t139.5 236t49.5 292.5q0 156 -49.5 291.5t-139.5 236t-226 158t-301 57.5h-797v55h797q178 0 324.5 -62t244 -170t150.5 -253.5t53 -312.5t-53 -313t-150.5 -254t-244 -170t-324.5 -62h-797zM86 84v55h233v609h-213v55h269v-719h-289 zM86 1458v55h289v-682h-269v56h213v571h-233zM403 84v719h357v-55h-301v-609h424q194 0 339 87t219.5 236t74.5 337t-74.5 336.5t-219.5 235.5t-339 87h-424v-571h301v-56h-357v682h480q213 0 370.5 -94.5t237.5 -255t80 -364.5t-80 -365t-237.5 -255.5t-370.5 -94.5h-480z " />
<glyph unicode="&#xd1;" horiz-adv-x="1855" d="M82 0v55h604v-55h-604zM82 84v55h233v1319h-233v55h289v-1429h-289zM82 1542v55h338l1007 -1374v1235h-229v55h287v-1460l-1094 1489h-309zM399 84v1399l1088 -1481l-45 -33l-987 1344v-1174h231v-55h-287zM549 1761q0 49 10.5 97t34.5 95.5t71.5 77t112.5 29.5 q61 0 111.5 -30.5t101.5 -81.5q41 -44 64.5 -60t50.5 -16q90 0 90 160h55q0 -42 -7 -78t-22.5 -68t-45 -50.5t-70.5 -18.5t-75 21.5t-79 68.5q-46 48 -86.5 73t-87.5 25q-49 0 -84.5 -22t-54 -59.5t-27 -77.5t-8.5 -85h-55zM633 1761q0 42 7 78t22.5 68t45 50.5t70.5 18.5 t75 -21.5t79 -68.5q46 -48 86.5 -73t87.5 -25q49 0 84.5 22t54 59.5t27 77.5t8.5 85h55q0 -50 -10.5 -98t-34.5 -95.5t-71.5 -76.5t-112.5 -29q-61 0 -111.5 30.5t-101.5 81.5q-42 44 -65.5 60t-49.5 16q-90 0 -90 -160h-55zM1198 1542v55h604v-55h-604zM1513 10v1503h289 v-55h-233v-1448h-56z" />
<glyph unicode="&#xd2;" d="M86 799q0 168 65.5 321.5t176.5 264.5t264.5 177t322.5 66q168 0 322 -66t265 -177t177 -264.5t66 -321.5q0 -169 -66 -323t-177 -265t-265 -176.5t-322 -65.5q-169 0 -322.5 65.5t-264.5 176.5t-176.5 265t-65.5 323zM141 799q0 -208 104.5 -386.5t283 -283 t386.5 -104.5t387 104.5t283.5 283t104.5 386.5t-104.5 386.5t-283.5 283t-387 104.5t-386.5 -104.5t-283 -283t-104.5 -386.5zM170 799q0 151 59 289t158.5 238t237.5 159t290 59t290 -59t238 -158.5t159 -237.5t59 -290q0 -203 -100 -374.5t-271.5 -271.5t-374.5 -100 q-152 0 -290 59t-237.5 159t-158.5 238t-59 290zM225 799q0 -186 93 -345t252 -252t345 -93q139 0 266.5 55t220.5 147.5t148.5 220.5t55.5 267t-55.5 266.5t-148.5 220.5t-220.5 148t-266.5 55t-267 -55t-220.5 -148t-147.5 -220.5t-55 -266.5zM639 2034l31 47l475 -324 l-31 -45zM686 2105l31 45l475 -321l-31 -47z" />
<glyph unicode="&#xd3;" d="M86 799q0 168 65.5 321.5t176.5 264.5t264.5 177t322.5 66q168 0 322 -66t265 -177t177 -264.5t66 -321.5q0 -169 -66 -323t-177 -265t-265 -176.5t-322 -65.5q-169 0 -322.5 65.5t-264.5 176.5t-176.5 265t-65.5 323zM141 799q0 -208 104.5 -386.5t283 -283 t386.5 -104.5t387 104.5t283.5 283t104.5 386.5t-104.5 386.5t-283.5 283t-387 104.5t-386.5 -104.5t-283 -283t-104.5 -386.5zM170 799q0 151 59 289t158.5 238t237.5 159t290 59t290 -59t238 -158.5t159 -237.5t59 -290q0 -203 -100 -374.5t-271.5 -271.5t-374.5 -100 q-152 0 -290 59t-237.5 159t-158.5 238t-59 290zM225 799q0 -186 93 -345t252 -252t345 -93q139 0 266.5 55t220.5 147.5t148.5 220.5t55.5 267t-55.5 266.5t-148.5 220.5t-220.5 148t-266.5 55t-267 -55t-220.5 -148t-147.5 -220.5t-55 -266.5zM639 1829l475 321l31 -45 l-475 -323zM686 1757l475 324l31 -47l-475 -322z" />
<glyph unicode="&#xd4;" d="M86 799q0 168 65.5 321.5t176.5 264.5t264.5 177t322.5 66q168 0 322 -66t265 -177t177 -264.5t66 -321.5q0 -169 -66 -323t-177 -265t-265 -176.5t-322 -65.5q-169 0 -322.5 65.5t-264.5 176.5t-176.5 265t-65.5 323zM141 799q0 -208 104.5 -386.5t283 -283 t386.5 -104.5t387 104.5t283.5 283t104.5 386.5t-104.5 386.5t-283.5 283t-387 104.5t-386.5 -104.5t-283 -283t-104.5 -386.5zM170 799q0 151 59 289t158.5 238t237.5 159t290 59t290 -59t238 -158.5t159 -237.5t59 -290q0 -203 -100 -374.5t-271.5 -271.5t-374.5 -100 q-152 0 -290 59t-237.5 159t-158.5 238t-59 290zM225 799q0 -186 93 -345t252 -252t345 -93q139 0 266.5 55t220.5 147.5t148.5 220.5t55.5 267t-55.5 266.5t-148.5 220.5t-220.5 148t-266.5 55t-267 -55t-220.5 -148t-147.5 -220.5t-55 -266.5zM561 1847l354 256l357 -256 l-35 -45l-322 234l-321 -234zM612 1778l303 221l306 -221l-33 -45l-273 198l-272 -198z" />
<glyph unicode="&#xd5;" d="M86 799q0 168 65.5 321.5t176.5 264.5t264.5 177t322.5 66q168 0 322 -66t265 -177t177 -264.5t66 -321.5q0 -169 -66 -323t-177 -265t-265 -176.5t-322 -65.5q-169 0 -322.5 65.5t-264.5 176.5t-176.5 265t-65.5 323zM141 799q0 -208 104.5 -386.5t283 -283 t386.5 -104.5t387 104.5t283.5 283t104.5 386.5t-104.5 386.5t-283.5 283t-387 104.5t-386.5 -104.5t-283 -283t-104.5 -386.5zM170 799q0 151 59 289t158.5 238t237.5 159t290 59t290 -59t238 -158.5t159 -237.5t59 -290q0 -203 -100 -374.5t-271.5 -271.5t-374.5 -100 q-152 0 -290 59t-237.5 159t-158.5 238t-59 290zM225 799q0 -186 93 -345t252 -252t345 -93q139 0 266.5 55t220.5 147.5t148.5 220.5t55.5 267t-55.5 266.5t-148.5 220.5t-220.5 148t-266.5 55t-267 -55t-220.5 -148t-147.5 -220.5t-55 -266.5zM522 1765q0 38 6 76t22 79.5 t41 72.5t66.5 51t94.5 20q61 0 111.5 -30.5t101.5 -81.5q41 -44 64 -60t50 -16q90 0 90 160h56q0 -58 -11.5 -103t-46 -78.5t-88.5 -33.5q-41 0 -74.5 21.5t-78.5 68.5q-46 48 -86.5 73t-87.5 25q-49 0 -84.5 -22t-54 -59.5t-27 -77.5t-8.5 -85h-56zM606 1765q0 58 11.5 103 t46 78.5t88.5 33.5q41 0 74.5 -21.5t78.5 -68.5q46 -48 86.5 -73t87.5 -25q49 0 84.5 22t54 59.5t27 77.5t8.5 85h56q0 -39 -6 -77t-22 -79.5t-41 -72t-66.5 -50.5t-94.5 -20q-61 0 -111.5 30.5t-101.5 81.5q-43 44 -65.5 60t-48.5 16q-90 0 -90 -160h-56z" />
<glyph unicode="&#xd6;" d="M86 799q0 168 65.5 321.5t176.5 264.5t264.5 177t322.5 66q168 0 322 -66t265 -177t177 -264.5t66 -321.5q0 -169 -66 -323t-177 -265t-265 -176.5t-322 -65.5q-169 0 -322.5 65.5t-264.5 176.5t-176.5 265t-65.5 323zM141 799q0 -208 104.5 -386.5t283 -283 t386.5 -104.5t387 104.5t283.5 283t104.5 386.5t-104.5 386.5t-283.5 283t-387 104.5t-386.5 -104.5t-283 -283t-104.5 -386.5zM170 799q0 151 59 289t158.5 238t237.5 159t290 59t290 -59t238 -158.5t159 -237.5t59 -290q0 -203 -100 -374.5t-271.5 -271.5t-374.5 -100 q-152 0 -290 59t-237.5 159t-158.5 238t-59 290zM225 799q0 -186 93 -345t252 -252t345 -93q139 0 266.5 55t220.5 147.5t148.5 220.5t55.5 267t-55.5 266.5t-148.5 220.5t-220.5 148t-266.5 55t-267 -55t-220.5 -148t-147.5 -220.5t-55 -266.5zM580 1872q0 51 35.5 87 t86.5 36q52 0 88.5 -36t36.5 -87t-36.5 -88t-88.5 -37q-51 0 -86.5 37t-35.5 88zM631 1872q0 -29 21 -50.5t50 -21.5t50.5 21.5t21.5 50.5t-21.5 50.5t-50.5 21.5t-50 -21.5t-21 -50.5zM659 1872q0 18 12.5 30.5t30.5 12.5q19 0 31 -12t12 -31t-12 -31t-31 -12 q-18 0 -30.5 12.5t-12.5 30.5zM1004 1872q0 51 35.5 87t86.5 36t88 -36t37 -87t-37 -88t-88 -37t-86.5 37t-35.5 88zM1055 1872q0 -29 21 -50.5t50 -21.5t50.5 21.5t21.5 50.5t-21.5 50.5t-50.5 21.5t-50 -21.5t-21 -50.5zM1083 1872q0 18 12.5 30.5t30.5 12.5q19 0 31 -12 t12 -31t-12 -31t-31 -12q-18 0 -30.5 12.5t-12.5 30.5z" />
<glyph unicode="&#xd7;" horiz-adv-x="1132" d="M139 420l328 328l-328 329l39 39l367 -366l-369 -369zM197 360l368 369l369 -371l-39 -39l-330 332l-329 -329zM199 1137l39 37l327 -328l332 332l37 -39l-371 -371zM584 748l370 370l39 -39l-331 -331l331 -330l-39 -39z" />
<glyph unicode="&#xd8;" d="M86 799q0 168 65.5 321.5t176.5 264.5t264.5 177t322.5 66q202 0 390 -98l45 67h65l-92 -141q-188 117 -408 117q-208 0 -386.5 -104.5t-283 -283t-104.5 -386.5q0 -195 91 -363t247 -276l-104 -160h-66l94 145q-148 116 -232.5 287t-84.5 367zM170 799q0 151 59 289 t158.5 238t237.5 159t290 59q216 0 392 -112l-813 -1250q-150 103 -237 265.5t-87 351.5zM225 799q0 -159 68.5 -299.5t187.5 -237.5l748 1149q-150 78 -314 78q-139 0 -267 -55t-220.5 -148t-147.5 -220.5t-55 -266.5zM410 0l94 143q185 -118 411 -118q208 0 387 104.5 t283.5 283t104.5 386.5q0 195 -93 364t-251 277l104 157h66l-95 -143q151 -116 237.5 -287.5t86.5 -367.5q0 -169 -66 -323t-177 -265t-265 -176.5t-322 -65.5q-211 0 -395 99l-45 -68h-65zM518 168l813 1249q152 -103 241 -266t89 -352q0 -203 -100 -374.5t-271.5 -271.5 t-374.5 -100q-218 0 -397 115zM596 186q151 -77 319 -77q139 0 266.5 55t220.5 147.5t148.5 220.5t55.5 267q0 158 -69.5 298.5t-190.5 237.5z" />
<glyph unicode="&#xd9;" horiz-adv-x="1824" d="M49 1458v55h287v-917q0 -117 38.5 -220.5t110 -181.5t182.5 -123.5t246 -45.5q136 0 247 45.5t182.5 123.5t110 181.5t38.5 220.5v917h287v-55h-232v-862q0 -129 -41.5 -242t-119.5 -199.5t-200 -136t-272 -49.5t-271 49.5t-199 135.5t-120 199.5t-42 242.5v862h-232z M49 1542v55h604v-55h-604zM365 596v917h288v-55h-231v-862q0 -138 54.5 -247t167.5 -174.5t269 -65.5q118 0 212.5 37.5t155.5 104t93.5 154.5t32.5 191v862h-236v55h291v-917q0 -115 -35.5 -213t-103 -172t-173 -116t-237.5 -42q-131 0 -236 42t-172.5 116t-103.5 172 t-36 213zM637 2034l31 47l475 -324l-31 -45zM684 2105l31 45l475 -321l-31 -47zM1171 1542v55h607v-55h-607z" />
<glyph unicode="&#xda;" horiz-adv-x="1824" d="M49 1458v55h287v-917q0 -117 38.5 -220.5t110 -181.5t182.5 -123.5t246 -45.5q136 0 247 45.5t182.5 123.5t110 181.5t38.5 220.5v917h287v-55h-232v-862q0 -129 -41.5 -242t-119.5 -199.5t-200 -136t-272 -49.5t-271 49.5t-199 135.5t-120 199.5t-42 242.5v862h-232z M49 1542v55h604v-55h-604zM365 596v917h288v-55h-231v-862q0 -138 54.5 -247t167.5 -174.5t269 -65.5q118 0 212.5 37.5t155.5 104t93.5 154.5t32.5 191v862h-236v55h291v-917q0 -115 -35.5 -213t-103 -172t-173 -116t-237.5 -42q-131 0 -236 42t-172.5 116t-103.5 172 t-36 213zM637 1829l475 321l31 -45l-475 -323zM684 1757l475 324l31 -47l-475 -322zM1171 1542v55h607v-55h-607z" />
<glyph unicode="&#xdb;" horiz-adv-x="1822" d="M47 1458v55h287v-917q0 -117 38.5 -220.5t110 -181.5t182.5 -123.5t246 -45.5q136 0 247 45.5t182.5 123.5t110 181.5t38.5 220.5v917h287v-55h-232v-862q0 -129 -41.5 -242t-119.5 -199.5t-200 -136t-272 -49.5t-271 49.5t-199 135.5t-120 199.5t-42 242.5v862h-232z M47 1542v55h604v-55h-604zM362 596v917h289v-55h-231v-862q0 -138 54.5 -247t167.5 -174.5t269 -65.5q118 0 212.5 37.5t155.5 104t93.5 154.5t32.5 191v862h-236v55h291v-917q0 -115 -35.5 -213t-103 -172t-173 -116t-237.5 -42q-131 0 -236.5 42t-173 116t-103.5 172.5 t-36 212.5zM557 1847l354 256l357 -256l-35 -45l-322 234l-321 -234zM608 1778l303 221l306 -221l-33 -45l-273 198l-272 -198zM1169 1542v55h607v-55h-607z" />
<glyph unicode="&#xdc;" horiz-adv-x="1822" d="M47 1458v55h287v-917q0 -117 38.5 -220.5t110 -181.5t182.5 -123.5t246 -45.5q136 0 247 45.5t182.5 123.5t110 181.5t38.5 220.5v917h287v-55h-232v-862q0 -129 -41.5 -242t-119.5 -199.5t-200 -136t-272 -49.5t-271 49.5t-199 135.5t-120 199.5t-42 242.5v862h-232z M47 1542v55h604v-55h-604zM362 596v917h289v-55h-231v-862q0 -138 54.5 -247t167.5 -174.5t269 -65.5q118 0 212.5 37.5t155.5 104t93.5 154.5t32.5 191v862h-236v55h291v-917q0 -115 -35.5 -213t-103 -172t-173 -116t-237.5 -42q-131 0 -236.5 42t-173 116t-103.5 172.5 t-36 212.5zM575 1872q0 51 36 87t87 36q52 0 88.5 -36t36.5 -87t-36.5 -88t-88.5 -37q-51 0 -87 37t-36 88zM627 1872q0 -29 21 -50.5t50 -21.5t50.5 21.5t21.5 50.5t-21.5 50.5t-50.5 21.5t-50 -21.5t-21 -50.5zM655 1872q0 18 12.5 30.5t30.5 12.5q19 0 31 -12t12 -31 t-12 -31t-31 -12q-18 0 -30.5 12.5t-12.5 30.5zM999 1872q0 51 36 87t87 36t88 -36t37 -87t-37 -88t-88 -37t-87 37t-36 88zM1051 1872q0 -29 21 -50.5t50 -21.5t50.5 21.5t21.5 50.5t-21.5 50.5t-50.5 21.5t-50 -21.5t-21 -50.5zM1079 1872q0 18 12.5 30.5t30.5 12.5 q19 0 31 -12t12 -31t-12 -31t-31 -12q-18 0 -30.5 12.5t-12.5 30.5zM1169 1542v55h607v-55h-607z" />
<glyph unicode="&#xdd;" horiz-adv-x="1640" d="M-25 1458v55h265l565 -895v-534h-287v55h232v467l-541 852h-234zM-25 1542v55h605v-55h-605zM274 1513h306v-55h-205l444 -704l447 704h-207v55h307l-547 -862zM518 0v55h604v-55h-604zM543 1829l475 321l31 -45l-476 -323zM590 1757l475 324l31 -47l-475 -322zM834 84 v534l567 895h264v-55h-235l-541 -854v-465h233v-55h-288zM1059 1542v55h606v-55h-606z" />
<glyph unicode="&#xde;" horiz-adv-x="1617" d="M86 0v55h604v-55h-604zM86 84v55h231v1319h-231v55h287v-1429h-287zM86 1542v55h604v-55h-604zM401 84v274h607q215 0 354 130.5t139 310.5q0 118 -61 218t-175 161t-257 61h-607v274h289v-55h-233v-164h551q121 0 224.5 -39.5t174 -107t110 -158t39.5 -190.5 q0 -99 -40 -189.5t-110 -159t-174 -109t-224 -40.5h-551v-162h233v-55h-289zM401 387v823h607q207 0 336 -119.5t129 -291.5q0 -111 -56.5 -204.5t-164 -150.5t-244.5 -57h-607zM457 442h551q180 0 294.5 105.5t114.5 251.5q0 147 -114 251.5t-295 104.5h-551v-713z" />
<glyph unicode="&#xdf;" horiz-adv-x="1415" d="M68 0v55h315v1067q0 104 22 190t68 154t125.5 106t185.5 38q83 0 145 -22t96 -59t50.5 -78.5t16.5 -86.5q0 -24 -4 -46t-16 -43l-20 -35t-29.5 -35.5t-30.5 -30t-37 -32.5l-35 -30q-62 -52 -97 -105.5t-35 -125.5q0 -40 13.5 -74.5t31.5 -58.5t51.5 -50t57 -40t64.5 -37 q40 -23 54.5 -31t49.5 -30.5t49.5 -36t38.5 -39t34.5 -49t19 -55.5t8.5 -67q0 -130 -87.5 -205t-211.5 -75q-163 0 -297 155l43 37q53 -61 113 -99t141 -38q102 0 172.5 60.5t70.5 164.5q0 28 -7 53.5t-15 44t-28.5 39.5t-32.5 32.5t-43.5 31t-45.5 27.5t-53 30 q-52 28 -86.5 51t-75.5 61.5t-62.5 88t-21.5 109.5q0 148 152 272q6 5 30 26t29.5 26t24 23t23.5 25.5t16.5 23.5t15 27.5t7 27t3.5 32.5q0 80 -59.5 135t-190.5 55q-178 0 -262 -116.5t-84 -315.5v-1122h-370zM68 84v55h231v809h-231v56h286v-920h-286zM68 1032v55h231v35 q0 90 16.5 172t54 156t93 127.5t138 85t183.5 31.5q82 0 150 -21t111.5 -55t74 -78t43.5 -88t13 -88q0 -34 -6 -64t-21 -58t-26 -47t-36 -44.5t-36 -36t-40.5 -35.5t-35.5 -30q-54 -49 -78.5 -84.5t-24.5 -83.5q0 -60 39.5 -98t132.5 -91q117 -66 164 -104 q135 -110 135 -275q0 -84 -33 -154.5t-87.5 -115.5t-122.5 -69.5t-139 -24.5q-62 0 -121 18t-104.5 48.5t-77.5 58.5t-58 59l43 37q140 -166 318 -166q84 0 157.5 35t121.5 107t48 167q0 30 -6 58.5t-13 50t-24 45t-27.5 38t-36.5 35t-36.5 29t-42.5 28t-41 24.5t-43 24 q-50 28 -78 46t-60.5 47.5t-47.5 64.5t-15 78q0 65 31.5 113t91.5 98q8 7 30 26t32 28t29.5 27.5t29 31t23 33t20 38.5t11.5 41t5 47q0 48 -18.5 94t-56 87.5t-105 67t-156.5 25.5q-90 0 -163 -27.5t-122 -74.5t-82 -113t-48 -141t-15 -160v-90h-286z" />
<glyph unicode="&#xe0;" horiz-adv-x="1265" d="M70 352q0 69 24.5 133t75.5 120t143 90t213 34q154 0 359 -53v84q0 212 -285 215q-171 5 -401 -74l-19 53q242 81 422 78q73 -2 132 -16.5t106.5 -45t73.5 -84t26 -126.5v-158q-240 72 -414 72q-85 0 -154.5 -19t-114.5 -51t-75.5 -74t-43.5 -86.5t-13 -91.5 q0 -139 107.5 -228t275.5 -89q113 0 227 41t205 112v-133h315v-55h-370v84q-187 -104 -377 -104q-191 0 -314.5 103t-123.5 269zM154 352q0 56 19.5 106t61 93t116.5 68.5t175 25.5q164 0 414 -76v-346q-90 -74 -203 -117t-229 -43q-160 0 -257 79.5t-97 209.5zM154 1034 q246 85 448 82q82 -2 154.5 -22t134 -60t97.5 -110.5t36 -163.5v-621h231v-55h-286v676q0 79 -29.5 138t-81.5 93.5t-115.5 51t-140.5 18.5q-188 3 -430 -78zM211 352q0 -103 81 -168t216 -65q100 0 198.5 34.5t178.5 96.5v280q-212 60 -359 60q-85 0 -149 -20.5t-98.5 -56 t-51 -75.5t-16.5 -86zM324 1575l30 47l475 -324l-30 -45zM371 1647l30 45l476 -322l-31 -47z" />
<glyph unicode="&#xe1;" horiz-adv-x="1265" d="M70 352q0 69 24.5 133t75.5 120t143 90t213 34q154 0 359 -53v84q0 212 -285 215q-171 5 -401 -74l-19 53q242 81 422 78q73 -2 132 -16.5t106.5 -45t73.5 -84t26 -126.5v-158q-240 72 -414 72q-85 0 -154.5 -19t-114.5 -51t-75.5 -74t-43.5 -86.5t-13 -91.5 q0 -139 107.5 -228t275.5 -89q113 0 227 41t205 112v-133h315v-55h-370v84q-187 -104 -377 -104q-191 0 -314.5 103t-123.5 269zM154 352q0 56 19.5 106t61 93t116.5 68.5t175 25.5q164 0 414 -76v-346q-90 -74 -203 -117t-229 -43q-160 0 -257 79.5t-97 209.5zM154 1034 q246 85 448 82q82 -2 154.5 -22t134 -60t97.5 -110.5t36 -163.5v-621h231v-55h-286v676q0 79 -29.5 138t-81.5 93.5t-115.5 51t-140.5 18.5q-188 3 -430 -78zM211 352q0 -103 81 -168t216 -65q100 0 198.5 34.5t178.5 96.5v280q-212 60 -359 60q-85 0 -149 -20.5t-98.5 -56 t-51 -75.5t-16.5 -86zM324 1370l475 322l30 -45l-475 -324zM371 1298l475 324l31 -47l-476 -322z" />
<glyph unicode="&#xe2;" horiz-adv-x="1265" d="M70 352q0 69 24.5 133t75.5 120t143 90t213 34q154 0 359 -53v84q0 212 -285 215q-171 5 -401 -74l-19 53q242 81 422 78q73 -2 132 -16.5t106.5 -45t73.5 -84t26 -126.5v-158q-240 72 -414 72q-85 0 -154.5 -19t-114.5 -51t-75.5 -74t-43.5 -86.5t-13 -91.5 q0 -139 107.5 -228t275.5 -89q113 0 227 41t205 112v-133h315v-55h-370v84q-187 -104 -377 -104q-191 0 -314.5 103t-123.5 269zM154 352q0 56 19.5 106t61 93t116.5 68.5t175 25.5q164 0 414 -76v-346q-90 -74 -203 -117t-229 -43q-160 0 -257 79.5t-97 209.5zM154 1034 q246 85 448 82q82 -2 154.5 -22t134 -60t97.5 -110.5t36 -163.5v-621h231v-55h-286v676q0 79 -29.5 138t-81.5 93.5t-115.5 51t-140.5 18.5q-188 3 -430 -78zM211 352q0 -103 81 -168t216 -65q100 0 198.5 34.5t178.5 96.5v280q-212 60 -359 60q-85 0 -149 -20.5t-98.5 -56 t-51 -75.5t-16.5 -86zM246 1389l354 256l356 -256l-34 -46l-322 234l-321 -234zM297 1319l303 221l305 -221l-33 -45l-272 199l-272 -199z" />
<glyph unicode="&#xe3;" horiz-adv-x="1265" d="M70 352q0 69 24.5 133t75.5 120t143 90t213 34q154 0 359 -53v84q0 212 -285 215q-171 5 -401 -74l-19 53q242 81 422 78q73 -2 132 -16.5t106.5 -45t73.5 -84t26 -126.5v-158q-240 72 -414 72q-85 0 -154.5 -19t-114.5 -51t-75.5 -74t-43.5 -86.5t-13 -91.5 q0 -139 107.5 -228t275.5 -89q113 0 227 41t205 112v-133h315v-55h-370v84q-187 -104 -377 -104q-191 0 -314.5 103t-123.5 269zM154 352q0 56 19.5 106t61 93t116.5 68.5t175 25.5q164 0 414 -76v-346q-90 -74 -203 -117t-229 -43q-160 0 -257 79.5t-97 209.5zM154 1034 q246 85 448 82q82 -2 154.5 -22t134 -60t97.5 -110.5t36 -163.5v-621h231v-55h-286v676q0 79 -29.5 138t-81.5 93.5t-115.5 51t-140.5 18.5q-188 3 -430 -78zM207 1303q0 49 10.5 97t34.5 95.5t71.5 77t112.5 29.5q61 0 111 -30.5t102 -82.5q41 -44 64.5 -60t50.5 -16 q90 0 90 160h55q0 -42 -7 -78t-22.5 -68t-45 -50.5t-70.5 -18.5t-75 21.5t-79 68.5q-46 48 -86.5 73t-87.5 25q-49 0 -84.5 -22t-54 -59t-27 -77t-8.5 -85h-55zM211 352q0 -103 81 -168t216 -65q100 0 198.5 34.5t178.5 96.5v280q-212 60 -359 60q-85 0 -149 -20.5 t-98.5 -56t-51 -75.5t-16.5 -86zM291 1303q0 42 7 78t22.5 68t45 50.5t70.5 18.5t75 -22t79 -69q46 -48 86.5 -73t87.5 -25q49 0 84.5 22t54 59.5t27 77.5t8.5 85h55q0 -50 -10.5 -98t-34.5 -95.5t-71.5 -76.5t-112.5 -29q-61 0 -111.5 30.5t-101.5 81.5q-42 44 -65.5 60 t-49.5 16q-90 0 -90 -159h-55z" />
<glyph unicode="&#xe4;" horiz-adv-x="1265" d="M70 352q0 69 24.5 133t75.5 120t143 90t213 34q154 0 359 -53v84q0 212 -285 215q-171 5 -401 -74l-19 53q242 81 422 78q73 -2 132 -16.5t106.5 -45t73.5 -84t26 -126.5v-158q-240 72 -414 72q-85 0 -154.5 -19t-114.5 -51t-75.5 -74t-43.5 -86.5t-13 -91.5 q0 -139 107.5 -228t275.5 -89q113 0 227 41t205 112v-133h315v-55h-370v84q-187 -104 -377 -104q-191 0 -314.5 103t-123.5 269zM154 352q0 56 19.5 106t61 93t116.5 68.5t175 25.5q164 0 414 -76v-346q-90 -74 -203 -117t-229 -43q-160 0 -257 79.5t-97 209.5zM154 1034 q246 85 448 82q82 -2 154.5 -22t134 -60t97.5 -110.5t36 -163.5v-621h231v-55h-286v676q0 79 -29.5 138t-81.5 93.5t-115.5 51t-140.5 18.5q-188 3 -430 -78zM211 352q0 -103 81 -168t216 -65q100 0 198.5 34.5t178.5 96.5v280q-212 60 -359 60q-85 0 -149 -20.5t-98.5 -56 t-51 -75.5t-16.5 -86zM264 1413q0 51 36 87t87 36q52 0 88.5 -36t36.5 -87t-36.5 -88t-88.5 -37q-51 0 -87 37t-36 88zM315 1413q0 -29 21.5 -50.5t50.5 -21.5t50.5 21.5t21.5 50.5t-21.5 50.5t-50.5 21.5t-50.5 -21.5t-21.5 -50.5zM344 1413q0 18 12.5 30.5t30.5 12.5 q19 0 31 -12t12 -31t-12 -31t-31 -12q-18 0 -30.5 12.5t-12.5 30.5zM688 1413q0 51 36 87t87 36t88 -36t37 -87t-37 -88t-88 -37t-87 37t-36 88zM739 1413q0 -29 21.5 -50.5t50.5 -21.5t50.5 21.5t21.5 50.5t-21.5 50.5t-50.5 21.5t-50.5 -21.5t-21.5 -50.5zM768 1413 q0 18 12.5 30.5t30.5 12.5q19 0 31 -12t12 -31t-12 -31t-31 -12q-18 0 -30.5 12.5t-12.5 30.5z" />
<glyph unicode="&#xe5;" horiz-adv-x="1265" d="M70 352q0 69 24.5 133t75.5 120t143 90t213 34q154 0 359 -53v84q0 212 -285 215q-171 5 -401 -74l-19 53q242 81 422 78q73 -2 132 -16.5t106.5 -45t73.5 -84t26 -126.5v-158q-240 72 -414 72q-85 0 -154.5 -19t-114.5 -51t-75.5 -74t-43.5 -86.5t-13 -91.5 q0 -139 107.5 -228t275.5 -89q113 0 227 41t205 112v-133h315v-55h-370v84q-187 -104 -377 -104q-191 0 -314.5 103t-123.5 269zM154 352q0 56 19.5 106t61 93t116.5 68.5t175 25.5q164 0 414 -76v-346q-90 -74 -203 -117t-229 -43q-160 0 -257 79.5t-97 209.5zM154 1034 q246 85 448 82q82 -2 154.5 -22t134 -60t97.5 -110.5t36 -163.5v-621h231v-55h-286v676q0 79 -29.5 138t-81.5 93.5t-115.5 51t-140.5 18.5q-188 3 -430 -78zM211 352q0 -103 81 -168t216 -65q100 0 198.5 34.5t178.5 96.5v280q-212 60 -359 60q-85 0 -149 -20.5t-98.5 -56 t-51 -75.5t-16.5 -86zM356 1475q0 101 71 172t173 71t172 -70t70 -173q0 -101 -70.5 -171.5t-171.5 -70.5q-103 0 -173.5 70.5t-70.5 171.5zM412 1475q0 -75 56 -131t132 -56q75 0 130.5 56t55.5 131q0 76 -55.5 132t-130.5 56q-76 0 -132 -55.5t-56 -132.5zM440 1475 q0 67 46 113t114 46q66 0 112 -46t46 -113q0 -66 -46 -112t-112 -46q-67 0 -113.5 46t-46.5 112zM496 1475q0 -41 31 -72t73 -31q40 0 71 31t31 72t-31 72.5t-71 31.5q-42 0 -73 -31t-31 -73z" />
<glyph unicode="&#xe6;" horiz-adv-x="2043" d="M70 352q0 55 14.5 107t49 101.5t85.5 86.5t130 59.5t177 22.5q154 0 359 -53v84q0 212 -285 215q-171 5 -401 -74l-19 53q242 81 422 78q73 -2 132 -16.5t106.5 -45t73.5 -84t26 -126.5v-158q-240 72 -414 72q-85 0 -154.5 -19t-114.5 -51t-75.5 -74t-43.5 -86.5 t-13 -91.5q0 -139 108.5 -228t274.5 -89q129 0 264.5 55t253.5 170q69 -104 184 -164.5t258 -60.5q228 0 416 158l39 -43q-207 -170 -455 -170q-140 0 -257 52t-195 146q-119 -101 -251 -149.5t-257 -48.5q-191 0 -314.5 103t-123.5 269zM154 352q0 56 19.5 106t61 93 t116.5 68.5t175 25.5q164 0 414 -76v-24q0 -139 70 -260q-116 -114 -245.5 -168t-256.5 -54q-159 0 -256.5 79.5t-97.5 209.5zM154 1034q246 85 448 82q88 -2 163.5 -23t140 -72t93.5 -126q76 101 192 159t259 58q95 0 178.5 -27t145 -73t106.5 -108.5t67 -133t22 -147 t-25 -148.5h-916q25 -156 145 -256t295 -100q199 0 365 137l35 -41q-181 -152 -400 -152q-217 0 -355.5 135t-143.5 334h936q21 93 -1 187t-79.5 169t-156 122t-218.5 47q-174 0 -301.5 -95.5t-179.5 -246.5v45q0 79 -29.5 138t-81.5 93.5t-115.5 51t-140.5 18.5 q-188 3 -430 -78zM211 352q0 -103 81 -168t216 -65q231 0 432 176q-52 107 -55 235q-212 60 -359 60q-85 0 -149 -20.5t-98.5 -56t-51 -75.5t-16.5 -86zM969 561q3 125 61.5 230.5t169 171t250.5 65.5q108 0 198 -41.5t144.5 -108t78.5 -150t9 -167.5h-911zM1030 616h797 q4 90 -39 171t-132.5 133.5t-205.5 52.5q-168 0 -282 -102t-138 -255z" />
<glyph unicode="&#xe7;" horiz-adv-x="1222" d="M82 547q0 153 75.5 283t205.5 206t284 76q86 0 173.5 -29.5t156.5 -81.5v84h57v-225q-52 89 -160.5 143t-226.5 54q-138 0 -255.5 -69t-186 -186.5t-68.5 -254.5q0 -194 124.5 -337.5t324.5 -170.5v-178h-56v133q-202 41 -325 195t-123 358zM166 547q0 131 64 241.5 t174.5 175t242.5 64.5q136 0 251 -70t136 -176v-194h-57v192q-22 81 -119 137t-211 56q-176 0 -301 -125.5t-125 -300.5q0 -182 124.5 -305t320.5 -123t362 137l35 -41q-181 -152 -397 -152q-110 0 -204.5 38t-159 103.5t-100.5 154t-36 188.5zM311 -543l25 51 q16 -9 44.5 -22t107.5 -35t147 -22q125 0 198.5 65.5t73.5 159.5q0 91 -72.5 159.5t-220.5 63.5v160q16 -2 52 -2q225 0 413 158l39 -43q-96 -80 -211.5 -124.5t-236.5 -45.5v-48q147 -10 220 -92t73 -186q0 -119 -89 -200t-239 -81q-75 0 -156 21t-125 42zM348 -467l27 49 q14 -8 39 -19t93.5 -29.5t127.5 -18.5q90 0 139 40.5t49 98.5q0 62 -52.5 103.5t-164.5 33.5l-4 55q74 6 130 -9t86.5 -44.5t45.5 -64.5t15 -74q0 -84 -64 -140.5t-180 -56.5q-64 0 -136 19t-111 38zM1063 588v497h55v-497h-55z" />
<glyph unicode="&#xe8;" horiz-adv-x="1243" d="M82 545q0 111 40 213.5t112 181t179.5 125.5t233.5 47q95 0 178.5 -27t145 -73t106.5 -108.5t67 -133t22 -147t-25 -148.5h-916q25 -156 145.5 -256t295.5 -100q198 0 364 137l35 -41q-181 -152 -399 -152q-217 0 -356 135t-144 334h936q21 93 -1 187t-79.5 169t-156 122 t-218.5 47q-149 0 -267 -73t-180.5 -189t-62.5 -250q0 -104 39.5 -197.5t108 -162.5t168 -109.5t213.5 -40.5q227 0 415 158l39 -43q-207 -170 -454 -170q-169 0 -303.5 76.5t-207.5 205t-73 283.5zM166 561q3 125 61.5 230.5t169 171t250.5 65.5q108 0 198 -41.5 t144.5 -108t78.5 -150t9 -167.5h-911zM227 616h797q4 90 -39 171t-132.5 133.5t-205.5 52.5q-168 0 -282 -102t-138 -255zM385 1575l31 47l475 -324l-31 -45zM432 1647l31 45l475 -322l-31 -47z" />
<glyph unicode="&#xe9;" horiz-adv-x="1243" d="M82 545q0 111 40 213.5t112 181t179.5 125.5t233.5 47q95 0 178.5 -27t145 -73t106.5 -108.5t67 -133t22 -147t-25 -148.5h-916q25 -156 145.5 -256t295.5 -100q198 0 364 137l35 -41q-181 -152 -399 -152q-217 0 -356 135t-144 334h936q21 93 -1 187t-79.5 169t-156 122 t-218.5 47q-149 0 -267 -73t-180.5 -189t-62.5 -250q0 -104 39.5 -197.5t108 -162.5t168 -109.5t213.5 -40.5q227 0 415 158l39 -43q-207 -170 -454 -170q-169 0 -303.5 76.5t-207.5 205t-73 283.5zM166 561q3 125 61.5 230.5t169 171t250.5 65.5q108 0 198 -41.5 t144.5 -108t78.5 -150t9 -167.5h-911zM227 616h797q4 90 -39 171t-132.5 133.5t-205.5 52.5q-168 0 -282 -102t-138 -255zM385 1370l475 322l31 -45l-475 -324zM432 1298l475 324l31 -47l-475 -322z" />
<glyph unicode="&#xea;" horiz-adv-x="1243" d="M82 545q0 111 40 213.5t112 181t179.5 125.5t233.5 47q95 0 178.5 -27t145 -73t106.5 -108.5t67 -133t22 -147t-25 -148.5h-916q25 -156 145.5 -256t295.5 -100q198 0 364 137l35 -41q-181 -152 -399 -152q-217 0 -356 135t-144 334h936q21 93 -1 187t-79.5 169t-156 122 t-218.5 47q-149 0 -267 -73t-180.5 -189t-62.5 -250q0 -104 39.5 -197.5t108 -162.5t168 -109.5t213.5 -40.5q227 0 415 158l39 -43q-207 -170 -454 -170q-169 0 -303.5 76.5t-207.5 205t-73 283.5zM166 561q3 125 61.5 230.5t169 171t250.5 65.5q108 0 198 -41.5 t144.5 -108t78.5 -150t9 -167.5h-911zM227 616h797q4 90 -39 171t-132.5 133.5t-205.5 52.5q-168 0 -282 -102t-138 -255zM305 1389l354 256l357 -256l-35 -46l-322 234l-321 -234zM356 1319l303 221l306 -221l-33 -45l-273 199l-272 -199z" />
<glyph unicode="&#xeb;" horiz-adv-x="1243" d="M82 545q0 111 40 213.5t112 181t179.5 125.5t233.5 47q95 0 178.5 -27t145 -73t106.5 -108.5t67 -133t22 -147t-25 -148.5h-916q25 -156 145.5 -256t295.5 -100q198 0 364 137l35 -41q-181 -152 -399 -152q-217 0 -356 135t-144 334h936q21 93 -1 187t-79.5 169t-156 122 t-218.5 47q-149 0 -267 -73t-180.5 -189t-62.5 -250q0 -104 39.5 -197.5t108 -162.5t168 -109.5t213.5 -40.5q227 0 415 158l39 -43q-207 -170 -454 -170q-169 0 -303.5 76.5t-207.5 205t-73 283.5zM166 561q3 125 61.5 230.5t169 171t250.5 65.5q108 0 198 -41.5 t144.5 -108t78.5 -150t9 -167.5h-911zM227 616h797q4 90 -39 171t-132.5 133.5t-205.5 52.5q-168 0 -282 -102t-138 -255zM326 1413q0 51 36 87t87 36q52 0 88 -36t36 -87t-36 -88t-88 -37q-51 0 -87 37t-36 88zM377 1413q0 -29 21.5 -50.5t50.5 -21.5t50 21.5t21 50.5 t-21 50.5t-50 21.5t-50.5 -21.5t-21.5 -50.5zM406 1413q0 18 12.5 30.5t30.5 12.5q19 0 31 -12t12 -31t-12 -31t-31 -12q-18 0 -30.5 12.5t-12.5 30.5zM750 1413q0 51 35.5 87t86.5 36t88 -36t37 -87t-37 -88t-88 -37t-86.5 37t-35.5 88zM801 1413q0 -29 21 -50.5t50 -21.5 t50.5 21.5t21.5 50.5t-21.5 50.5t-50.5 21.5t-50 -21.5t-21 -50.5zM829 1413q0 18 12.5 30.5t30.5 12.5q19 0 31 -12t12 -31t-12 -31t-31 -12q-18 0 -30.5 12.5t-12.5 30.5z" />
<glyph unicode="&#xec;" horiz-adv-x="696" d="M37 1575l31 47l475 -324l-31 -45zM68 0v55h602v-55h-602zM68 84v55h231v811h-231v56h286v-922h-286zM68 1034v56h370v-951h232v-55h-287v950h-315zM84 1647l31 45l475 -322l-31 -47z" />
<glyph unicode="&#xed;" horiz-adv-x="696" d="M37 1370l475 322l31 -45l-475 -324zM68 0v55h602v-55h-602zM68 84v55h231v811h-231v56h286v-922h-286zM68 1034v56h370v-951h232v-55h-287v950h-315zM84 1298l475 324l31 -47l-475 -322z" />
<glyph unicode="&#xee;" horiz-adv-x="696" d="M-41 1389l354 256l357 -256l-35 -46l-322 234l-321 -234zM10 1319l303 221l305 -221l-32 -45l-273 199l-272 -199zM68 0v55h602v-55h-602zM68 84v55h231v811h-231v56h286v-922h-286zM68 1034v56h370v-951h232v-55h-287v950h-315z" />
<glyph unicode="&#xef;" horiz-adv-x="696" d="M-25 1413q0 51 36 87t87 36q52 0 88.5 -36t36.5 -87t-36.5 -88t-88.5 -37q-51 0 -87 37t-36 88zM27 1413q0 -29 21 -50.5t50 -21.5t50.5 21.5t21.5 50.5t-21.5 50.5t-50.5 21.5t-50 -21.5t-21 -50.5zM55 1413q0 18 12.5 30.5t30.5 12.5q19 0 31 -12t12 -31t-12 -31 t-31 -12q-18 0 -30.5 12.5t-12.5 30.5zM68 0v55h602v-55h-602zM68 84v55h231v811h-231v56h286v-922h-286zM68 1034v56h370v-951h232v-55h-287v950h-315zM399 1413q0 51 36 87t87 36t88 -36t37 -87t-37 -88t-88 -37t-87 37t-36 88zM451 1413q0 -29 21 -50.5t50 -21.5 t50.5 21.5t21.5 50.5t-21.5 50.5t-50.5 21.5t-50 -21.5t-21 -50.5zM479 1413q0 18 12.5 30.5t30.5 12.5q19 0 31 -12t12 -31t-12 -31t-31 -12q-18 0 -30.5 12.5t-12.5 30.5z" />
<glyph unicode="&#xf0;" horiz-adv-x="1310" d="M-20 1651q307 42 577 -74l137 152l41 -37l-166 -181q-266 128 -581 86zM-8 1569q300 42 557 -80l-191 -211l-41 37l140 153q-215 78 -459 45zM84 530q0 112 43.5 214t117.5 176t176 117.5t214 43.5q200 0 338 -112q-71 170 -207 303q-83 80 -178 133l-168 -184l-41 36 l199 218q123 -63 227 -164q128 -126 204.5 -289t88.5 -334q-43 149 -164.5 243.5t-298.5 94.5q-99 0 -191 -40t-158.5 -106.5t-106.5 -158.5t-40 -191q0 -133 63.5 -247t172.5 -181t237 -67q121 0 220.5 46.5t163.5 127t99 185.5t35 224q0 194 -80.5 383.5t-224.5 329.5 q-103 100 -229 166l160 174l41 -37l-113 -123q98 -59 180 -141q152 -147 237 -347t85 -405q0 -104 -23.5 -198.5t-72 -174.5t-116 -139t-160.5 -92.5t-202 -33.5q-145 0 -266.5 74t-191.5 200.5t-70 275.5zM168 530q0 127 62.5 234.5t170 170t234.5 62.5q114 0 208 -47 t151 -123t81.5 -172t9.5 -194q-40 -180 -163 -289t-310 -109q-122 0 -224 62.5t-161 170t-59 234.5zM223 530q0 -169 114.5 -290t274.5 -121q163 0 272.5 95.5t145.5 252.5q20 120 -21.5 228t-140 177.5t-233.5 69.5q-168 0 -290 -122t-122 -290z" />
<glyph unicode="&#xf1;" horiz-adv-x="1466" d="M70 0v55h602v-55h-602zM70 84v55h231v811h-231v56h286v-922h-286zM70 1034v56h372v-132q186 154 377 154q57 0 110.5 -12t109 -44t96 -81t66.5 -129t26 -182v-525h229v-55h-287v580q0 90 -21.5 160.5t-55.5 113.5t-81 70.5t-93.5 38t-98.5 10.5q-116 0 -230 -63.5 t-204 -170.5v211h-315zM371 1303q0 49 10.5 97t34.5 95.5t71.5 77t112.5 29.5q61 0 111 -30.5t102 -82.5q41 -44 64.5 -60t50.5 -16q90 0 90 160h55q0 -42 -7 -78t-22.5 -68t-45 -50.5t-70.5 -18.5t-75 21.5t-79 68.5q-46 48 -86.5 73t-87.5 25q-49 0 -84.5 -22t-54 -59 t-27 -77t-8.5 -85h-55zM385 84v692q87 116 200.5 184t233.5 68q49 0 92 -9t86.5 -34t74 -64.5t50 -105t19.5 -151.5v-609h315v-55h-371v664q0 309 -266 309q-100 0 -200.5 -58.5t-176.5 -156.5v-619h230v-55h-287zM455 1303q0 42 7 78t22.5 68t45 50.5t70.5 18.5t75 -22 t79 -69q46 -48 86.5 -73t87.5 -25q49 0 84.5 22t54 59.5t27 77.5t8.5 85h55q0 -50 -10.5 -98t-34.5 -95.5t-71.5 -76.5t-112.5 -29q-61 0 -111.5 30.5t-101.5 81.5q-42 44 -65.5 60t-49.5 16q-90 0 -90 -159h-55z" />
<glyph unicode="&#xf2;" horiz-adv-x="1296" d="M82 547q0 153 75.5 283t205.5 206t284 76t284.5 -76t206.5 -206t76 -283q0 -155 -76 -285.5t-206.5 -206t-284.5 -75.5t-284 75.5t-205.5 206t-75.5 285.5zM137 547q0 -138 68.5 -256t186 -187t255.5 -69t256 69t187 187t69 256q0 137 -69 254.5t-187 186.5t-256 69 t-255.5 -69t-186 -186.5t-68.5 -254.5zM166 547q0 131 64 241.5t174.5 175t242.5 64.5t243 -64.5t175.5 -175t64.5 -241.5q0 -132 -64.5 -243.5t-175.5 -176t-243 -64.5t-242.5 64.5t-174.5 176t-64 243.5zM221 547q0 -177 124.5 -302.5t301.5 -125.5q175 0 301.5 126 t126.5 302q0 114 -58 212.5t-156.5 156t-213.5 57.5q-176 0 -301 -125.5t-125 -300.5zM371 1575l30 47l476 -324l-31 -45zM418 1647l31 45l475 -322l-31 -47z" />
<glyph unicode="&#xf3;" horiz-adv-x="1296" d="M82 547q0 153 75.5 283t205.5 206t284 76t284.5 -76t206.5 -206t76 -283q0 -155 -76 -285.5t-206.5 -206t-284.5 -75.5t-284 75.5t-205.5 206t-75.5 285.5zM137 547q0 -138 68.5 -256t186 -187t255.5 -69t256 69t187 187t69 256q0 137 -69 254.5t-187 186.5t-256 69 t-255.5 -69t-186 -186.5t-68.5 -254.5zM166 547q0 131 64 241.5t174.5 175t242.5 64.5t243 -64.5t175.5 -175t64.5 -241.5q0 -132 -64.5 -243.5t-175.5 -176t-243 -64.5t-242.5 64.5t-174.5 176t-64 243.5zM221 547q0 -177 124.5 -302.5t301.5 -125.5q175 0 301.5 126 t126.5 302q0 114 -58 212.5t-156.5 156t-213.5 57.5q-176 0 -301 -125.5t-125 -300.5zM371 1370l475 322l31 -45l-476 -324zM418 1298l475 324l31 -47l-475 -322z" />
<glyph unicode="&#xf4;" horiz-adv-x="1296" d="M82 547q0 153 75.5 283t205.5 206t284 76t284.5 -76t206.5 -206t76 -283q0 -155 -76 -285.5t-206.5 -206t-284.5 -75.5t-284 75.5t-205.5 206t-75.5 285.5zM137 547q0 -138 68.5 -256t186 -187t255.5 -69t256 69t187 187t69 256q0 137 -69 254.5t-187 186.5t-256 69 t-255.5 -69t-186 -186.5t-68.5 -254.5zM166 547q0 131 64 241.5t174.5 175t242.5 64.5t243 -64.5t175.5 -175t64.5 -241.5q0 -132 -64.5 -243.5t-175.5 -176t-243 -64.5t-242.5 64.5t-174.5 176t-64 243.5zM221 547q0 -177 124.5 -302.5t301.5 -125.5q175 0 301.5 126 t126.5 302q0 114 -58 212.5t-156.5 156t-213.5 57.5q-176 0 -301 -125.5t-125 -300.5zM293 1389l354 256l357 -256l-35 -46l-322 234l-321 -234zM344 1319l303 221l305 -221l-32 -45l-273 199l-272 -199z" />
<glyph unicode="&#xf5;" horiz-adv-x="1296" d="M82 547q0 153 75.5 283t205.5 206t284 76t284.5 -76t206.5 -206t76 -283q0 -155 -76 -285.5t-206.5 -206t-284.5 -75.5t-284 75.5t-205.5 206t-75.5 285.5zM137 547q0 -138 68.5 -256t186 -187t255.5 -69t256 69t187 187t69 256q0 137 -69 254.5t-187 186.5t-256 69 t-255.5 -69t-186 -186.5t-68.5 -254.5zM166 547q0 131 64 241.5t174.5 175t242.5 64.5t243 -64.5t175.5 -175t64.5 -241.5q0 -132 -64.5 -243.5t-175.5 -176t-243 -64.5t-242.5 64.5t-174.5 176t-64 243.5zM221 547q0 -177 124.5 -302.5t301.5 -125.5q175 0 301.5 126 t126.5 302q0 114 -58 212.5t-156.5 156t-213.5 57.5q-176 0 -301 -125.5t-125 -300.5zM254 1303q0 49 10.5 97t34.5 95.5t71.5 77t112.5 29.5q61 0 111 -30.5t102 -82.5q41 -44 64.5 -60t50.5 -16q90 0 90 160h55q0 -42 -7 -78t-22.5 -68t-45 -50.5t-70.5 -18.5t-75 21.5 t-79 68.5q-46 48 -86.5 73t-87.5 25q-49 0 -84.5 -22t-54 -59t-27 -77t-8.5 -85h-55zM338 1303q0 42 7 78t22.5 68t45 50.5t70.5 18.5t75 -22t79 -69q46 -48 86.5 -73t87.5 -25q49 0 84.5 22t54 59.5t27 77.5t8.5 85h55q0 -50 -10.5 -98t-34.5 -95.5t-71.5 -76.5t-112.5 -29 q-61 0 -111.5 30.5t-101.5 81.5q-42 44 -65.5 60t-49.5 16q-90 0 -90 -159h-55z" />
<glyph unicode="&#xf6;" horiz-adv-x="1296" d="M82 547q0 153 75.5 283t205.5 206t284 76t284.5 -76t206.5 -206t76 -283q0 -155 -76 -285.5t-206.5 -206t-284.5 -75.5t-284 75.5t-205.5 206t-75.5 285.5zM137 547q0 -138 68.5 -256t186 -187t255.5 -69t256 69t187 187t69 256q0 137 -69 254.5t-187 186.5t-256 69 t-255.5 -69t-186 -186.5t-68.5 -254.5zM166 547q0 131 64 241.5t174.5 175t242.5 64.5t243 -64.5t175.5 -175t64.5 -241.5q0 -132 -64.5 -243.5t-175.5 -176t-243 -64.5t-242.5 64.5t-174.5 176t-64 243.5zM221 547q0 -177 124.5 -302.5t301.5 -125.5q175 0 301.5 126 t126.5 302q0 114 -58 212.5t-156.5 156t-213.5 57.5q-176 0 -301 -125.5t-125 -300.5zM313 1413q0 51 36 87t87 36q52 0 88.5 -36t36.5 -87t-36.5 -88t-88.5 -37q-51 0 -87 37t-36 88zM365 1413q0 -29 21 -50.5t50 -21.5t50.5 21.5t21.5 50.5t-21.5 50.5t-50.5 21.5 t-50 -21.5t-21 -50.5zM393 1413q0 18 12.5 30.5t30.5 12.5q19 0 31 -12t12 -31t-12 -31t-31 -12q-18 0 -30.5 12.5t-12.5 30.5zM737 1413q0 51 36 87t87 36t88 -36t37 -87t-37 -88t-88 -37t-87 37t-36 88zM788 1413q0 -29 21.5 -50.5t50.5 -21.5t50.5 21.5t21.5 50.5 t-21.5 50.5t-50.5 21.5t-50.5 -21.5t-21.5 -50.5zM817 1413q0 18 12.5 30.5t30.5 12.5q19 0 31 -12t12 -31t-12 -31t-31 -12q-18 0 -30.5 12.5t-12.5 30.5z" />
<glyph unicode="&#xf7;" horiz-adv-x="1191" d="M147 680v55h897v-55h-897zM147 764v55h897v-55h-897zM469 371q0 51 37 88t88 37t88 -37t37 -88t-37 -87t-88 -36t-88 36t-37 87zM469 1126q0 51 37 88t88 37t88 -37t37 -88t-37 -86.5t-88 -35.5t-88 35.5t-37 86.5zM522 371q0 -29 21.5 -50.5t50.5 -21.5t50.5 21.5 t21.5 50.5t-21.5 50t-50.5 21t-50.5 -21t-21.5 -50zM522 1126q0 -29 21.5 -50t50.5 -21t50.5 21t21.5 50t-21.5 50.5t-50.5 21.5t-50.5 -21.5t-21.5 -50.5zM551 371q0 19 12 31t31 12t31 -12t12 -31q0 -18 -12.5 -30.5t-30.5 -12.5t-30.5 12.5t-12.5 30.5zM551 1126 q0 19 12 31t31 12t31 -12t12 -31q0 -18 -12.5 -30.5t-30.5 -12.5t-30.5 12.5t-12.5 30.5z" />
<glyph unicode="&#xf8;" horiz-adv-x="1296" d="M82 547q0 153 75.5 283t205.5 206t284 76q136 0 258 -61l27 39h67l-77 -115q-129 82 -275 82q-138 0 -255.5 -69t-186 -186.5t-68.5 -254.5q0 -124 56 -233t151 -179l-92 -135h-66l84 123q-89 77 -138.5 187.5t-49.5 236.5zM166 547q0 131 64 241.5t174.5 175t242.5 64.5 q138 0 258 -76l-545 -794q-91 67 -142.5 168.5t-51.5 220.5zM221 547q0 -181 129 -307l473 692q-87 41 -176 41q-176 0 -301 -125.5t-125 -300.5zM289 0l80 117q129 -82 278 -82q138 0 256 69t187 187t69 256q0 123 -57.5 231t-155.5 180l90 132h66l-82 -119 q91 -78 142.5 -189t51.5 -235q0 -155 -76 -285.5t-206.5 -206t-284.5 -75.5q-141 0 -264 63l-29 -43h-65zM385 139l545 797q93 -67 146.5 -169t53.5 -220q0 -132 -64.5 -243.5t-175.5 -176t-243 -64.5q-147 0 -262 76zM463 160q84 -41 184 -41q175 0 301.5 126t126.5 302 q0 89 -36 168t-99 139z" />
<glyph unicode="&#xf9;" horiz-adv-x="1421" d="M6 950v56h287v-578q0 -91 21.5 -161.5t55.5 -114t81.5 -71t94.5 -38t99 -10.5q115 0 229 63t203 168v-209h316v-55h-371v131q-182 -154 -377 -154q-57 0 -110.5 12.5t-108.5 44.5t-95.5 81t-66.5 130t-26 183v522h-232zM6 1034v56h371v-662q0 -311 268 -311 q99 0 199.5 57.5t177.5 155.5v620h-231v56h286v-695q-86 -114 -200 -182t-232 -68q-64 0 -116.5 16t-101.5 54.5t-77 114t-28 182.5v606h-316zM424 1575l31 47l475 -324l-31 -45zM471 1647l31 45l475 -322l-31 -47zM791 1034v56h370v-951h232v-55h-287v950h-315z" />
<glyph unicode="&#xfa;" horiz-adv-x="1421" d="M6 950v56h287v-578q0 -91 21.5 -161.5t55.5 -114t81.5 -71t94.5 -38t99 -10.5q115 0 229 63t203 168v-209h316v-55h-371v131q-182 -154 -377 -154q-57 0 -110.5 12.5t-108.5 44.5t-95.5 81t-66.5 130t-26 183v522h-232zM6 1034v56h371v-662q0 -311 268 -311 q99 0 199.5 57.5t177.5 155.5v620h-231v56h286v-695q-86 -114 -200 -182t-232 -68q-64 0 -116.5 16t-101.5 54.5t-77 114t-28 182.5v606h-316zM424 1370l475 322l31 -45l-475 -324zM471 1298l475 324l31 -47l-475 -322zM791 1034v56h370v-951h232v-55h-287v950h-315z" />
<glyph unicode="&#xfb;" horiz-adv-x="1421" d="M6 950v56h287v-578q0 -91 21.5 -161.5t55.5 -114t81.5 -71t94.5 -38t99 -10.5q115 0 229 63t203 168v-209h316v-55h-371v131q-182 -154 -377 -154q-57 0 -110.5 12.5t-108.5 44.5t-95.5 81t-66.5 130t-26 183v522h-232zM6 1034v56h371v-662q0 -311 268 -311 q99 0 199.5 57.5t177.5 155.5v620h-231v56h286v-695q-86 -114 -200 -182t-232 -68q-64 0 -116.5 16t-101.5 54.5t-77 114t-28 182.5v606h-316zM346 1389l354 256l357 -256l-35 -46l-322 234l-321 -234zM397 1319l303 221l306 -221l-33 -45l-273 199l-272 -199zM791 1034v56 h370v-951h232v-55h-287v950h-315z" />
<glyph unicode="&#xfc;" horiz-adv-x="1421" d="M6 950v56h287v-578q0 -91 21.5 -161.5t55.5 -114t81.5 -71t94.5 -38t99 -10.5q115 0 229 63t203 168v-209h316v-55h-371v131q-182 -154 -377 -154q-57 0 -110.5 12.5t-108.5 44.5t-95.5 81t-66.5 130t-26 183v522h-232zM6 1034v56h371v-662q0 -311 268 -311 q99 0 199.5 57.5t177.5 155.5v620h-231v56h286v-695q-86 -114 -200 -182t-232 -68q-64 0 -116.5 16t-101.5 54.5t-77 114t-28 182.5v606h-316zM365 1413q0 51 35.5 87t86.5 36q52 0 88.5 -36t36.5 -87t-36.5 -88t-88.5 -37q-51 0 -86.5 37t-35.5 88zM416 1413 q0 -29 21 -50.5t50 -21.5t50.5 21.5t21.5 50.5t-21.5 50.5t-50.5 21.5t-50 -21.5t-21 -50.5zM444 1413q0 18 12.5 30.5t30.5 12.5q19 0 31 -12t12 -31t-12 -31t-31 -12q-18 0 -30.5 12.5t-12.5 30.5zM788 1413q0 51 36 87t87 36t88 -36t37 -87t-37 -88t-88 -37t-87 37 t-36 88zM791 1034v56h370v-951h232v-55h-287v950h-315zM840 1413q0 -29 21 -50.5t50 -21.5t50.5 21.5t21.5 50.5t-21.5 50.5t-50.5 21.5t-50 -21.5t-21 -50.5zM868 1413q0 18 12.5 30.5t30.5 12.5q19 0 31 -12t12 -31t-12 -31t-31 -12q-18 0 -30.5 12.5t-12.5 30.5z" />
<glyph unicode="&#xfd;" horiz-adv-x="1394" d="M-170 -389l49 27q62 -103 154.5 -148t185.5 -45q138 0 248.5 101t204.5 319l493 1141h244v-56h-207l-479 -1108q-101 -230 -225 -341t-279 -111q-48 0 -96.5 10.5t-102 34t-103.5 69t-87 107.5zM-96 -346l49 29q48 -82 119 -118t147 -36q110 0 200.5 86t176.5 283l29 67 l-426 985h-215v56h249l451 -1041l-37 -88q-92 -213 -195 -308t-233 -95q-89 0 -172.5 41.5t-142.5 138.5zM-16 1034v56h581v-56h-581zM264 1006h301v-56h-215l350 -811l351 811h-224v56h308l-435 -1006zM420 1370l475 322l31 -45l-475 -324zM467 1298l475 324l31 -47 l-475 -322zM827 1034v56h582v-56h-582z" />
<glyph unicode="&#xfe;" horiz-adv-x="1413" d="M-35 -420h232v1878h-232v55h287v-1988h-287v55zM-35 -506h602v-55h-602v55zM-35 1542v55h371v-682q78 92 189.5 144.5t238.5 52.5q154 0 284.5 -76t206.5 -206t76 -283q0 -155 -76 -285.5t-206.5 -206t-284.5 -75.5q-127 0 -238.5 51.5t-189.5 142.5v-594h231v-55h-286 v858q52 -154 184.5 -251t298.5 -97q138 0 256 69t187 187t69 256q0 137 -69 254.5t-187 186.5t-256 69q-165 0 -298 -97.5t-185 -250.5v833h-316zM283 547q0 131 64 241.5t174.5 175t242.5 64.5t243 -64.5t175.5 -175t64.5 -241.5q0 -132 -64.5 -243.5t-175.5 -176 t-243 -64.5t-242.5 64.5t-174.5 176t-64 243.5zM338 547q0 -177 124.5 -302.5t301.5 -125.5q175 0 301.5 126t126.5 302q0 114 -58 212.5t-156.5 156t-213.5 57.5q-176 0 -301 -125.5t-125 -300.5z" />
<glyph unicode="&#xff;" horiz-adv-x="1394" d="M-170 -389l49 27q62 -103 154.5 -148t185.5 -45q138 0 248.5 101t204.5 319l493 1141h244v-56h-207l-479 -1108q-101 -230 -225 -341t-279 -111q-48 0 -96.5 10.5t-102 34t-103.5 69t-87 107.5zM-96 -346l49 29q48 -82 119 -118t147 -36q110 0 200.5 86t176.5 283l29 67 l-426 985h-215v56h249l451 -1041l-37 -88q-92 -213 -195 -308t-233 -95q-89 0 -172.5 41.5t-142.5 138.5zM-16 1034v56h581v-56h-581zM264 1006h301v-56h-215l350 -811l351 811h-224v56h308l-435 -1006zM360 1413q0 51 36 87t87 36q52 0 88.5 -36t36.5 -87t-36.5 -88 t-88.5 -37q-51 0 -87 37t-36 88zM412 1413q0 -29 21 -50.5t50 -21.5t50.5 21.5t21.5 50.5t-21.5 50.5t-50.5 21.5t-50 -21.5t-21 -50.5zM440 1413q0 18 12.5 30.5t30.5 12.5q19 0 31 -12t12 -31t-12 -31t-31 -12q-18 0 -30.5 12.5t-12.5 30.5zM784 1413q0 51 36 87t87 36 t88 -36t37 -87t-37 -88t-88 -37t-87 37t-36 88zM827 1034v56h582v-56h-582zM836 1413q0 -29 21 -50.5t50 -21.5t50.5 21.5t21.5 50.5t-21.5 50.5t-50.5 21.5t-50 -21.5t-21 -50.5zM864 1413q0 18 12.5 30.5t30.5 12.5q19 0 31 -12t12 -31t-12 -31t-31 -12q-18 0 -30.5 12.5 t-12.5 30.5z" />
<glyph unicode="&#x152;" horiz-adv-x="2314" d="M90 799q0 165 60.5 310t171 253.5t278.5 171.5t371 63h1229v-393h-56v338h-1173q-190 0 -347.5 -58.5t-261.5 -159.5t-160.5 -236t-56.5 -289t56.5 -289.5t160.5 -236.5t261.5 -159.5t347.5 -58.5h1194v338h55v-393h-1249q-203 0 -371 63t-278.5 171.5t-171 254 t-60.5 310.5zM174 799q0 149 54 279t153.5 227t251.5 152.5t338 55.5h225v-1429h-225q-186 0 -338 56t-251.5 153t-153.5 227t-54 279zM229 799q0 -137 50.5 -257t143 -210t234.5 -141.5t314 -51.5h170v1319h-170q-172 0 -313.5 -51.5t-234.5 -141t-143.5 -209.5t-50.5 -257 zM1225 84v717h704v-56h-649v-606h801v254h55v-309h-911zM1225 829v684h891v-309h-56v254h-780v-573h649v-56h-704z" />
<glyph unicode="&#x153;" horiz-adv-x="2238" d="M82 539q0 153 75.5 283t205.5 206t284 76q157 0 290 -80.5t206 -214.5q70 134 200 214.5t299 80.5q95 0 178.5 -27t145 -73t106.5 -108.5t67 -133t22 -147t-25 -148.5h-915q25 -156 145 -256t295 -100q198 0 364 137l35 -41q-181 -152 -399 -152q-217 0 -356 135 t-144 334h936q21 93 -1 187t-79.5 169t-156 122t-218.5 47q-190 0 -324.5 -113t-172.5 -283q-40 169 -180 282.5t-318 113.5q-138 0 -255.5 -69t-186 -186.5t-68.5 -254.5q0 -138 68.5 -256t186 -187t255.5 -69q178 0 318 112.5t180 282.5q38 -173 178.5 -284t337.5 -111 q229 0 416 157l39 -43q-207 -170 -455 -170q-174 0 -309.5 79.5t-208.5 213.5q-73 -133 -206 -213t-290 -80q-115 0 -220 45t-180.5 120.5t-120 181t-44.5 221.5zM166 539q0 131 64 241.5t174.5 175t242.5 64.5t243 -64.5t175.5 -175t64.5 -241.5q0 -132 -64.5 -243.5 t-175.5 -176t-243 -64.5t-242.5 64.5t-174.5 176t-64 243.5zM221 539q0 -177 124.5 -302.5t301.5 -125.5q175 0 301.5 126t126.5 302q0 114 -58 212.5t-156.5 156t-213.5 57.5q-176 0 -301 -125.5t-125 -300.5zM1161 553q3 125 61.5 230.5t169 171t250.5 65.5 q108 0 198 -41.5t144.5 -107.5t79 -150t9.5 -168h-912zM1223 608h796q4 90 -39 171t-132.5 133.5t-205.5 52.5q-168 0 -281.5 -102t-137.5 -255z" />
<glyph unicode="&#x178;" horiz-adv-x="1640" d="M-25 1458v55h265l565 -895v-534h-287v55h232v467l-541 852h-234zM-25 1542v55h605v-55h-605zM274 1513h306v-55h-205l444 -704l447 704h-207v55h307l-547 -862zM485 1872q0 51 36 87t87 36q52 0 88.5 -36t36.5 -87t-36.5 -88t-88.5 -37q-51 0 -87 37t-36 88zM518 0v55 h604v-55h-604zM537 1872q0 -29 21 -50.5t50 -21.5t50.5 21.5t21.5 50.5t-21.5 50.5t-50.5 21.5t-50 -21.5t-21 -50.5zM565 1872q0 18 12.5 30.5t30.5 12.5q19 0 31 -12t12 -31t-12 -31t-31 -12q-18 0 -30.5 12.5t-12.5 30.5zM834 84v534l567 895h264v-55h-235l-541 -854 v-465h233v-55h-288zM909 1872q0 51 36 87t87 36t88 -36t37 -87t-37 -88t-88 -37t-87 37t-36 88zM961 1872q0 -29 21 -50.5t50 -21.5t50.5 21.5t21.5 50.5t-21.5 50.5t-50.5 21.5t-50 -21.5t-21 -50.5zM989 1872q0 18 12.5 30.5t30.5 12.5q19 0 31 -12t12 -31t-12 -31 t-31 -12q-18 0 -30.5 12.5t-12.5 30.5zM1059 1542v55h606v-55h-606z" />
<glyph unicode="&#x2c6;" horiz-adv-x="671" d="M-231 1389l354 256l356 -256l-35 -46l-321 234l-322 -234zM-180 1319l303 221l305 -221l-33 -45l-272 199l-273 -199z" />
<glyph unicode="&#x2dc;" horiz-adv-x="645" d="M-76 1303q0 38 6 76t22 79.5t41 72.5t66.5 51t94.5 20q61 0 111 -30.5t102 -82.5q41 -44 64 -60t50 -16q90 0 90 160h56q0 -58 -11.5 -103t-46 -78.5t-88.5 -33.5q-41 0 -74.5 21.5t-78.5 68.5q-46 48 -86.5 73t-87.5 25q-49 0 -84.5 -22t-54 -59t-27 -77t-8.5 -85h-56z M8 1303q0 58 11.5 103t46 78.5t88.5 33.5q41 0 74 -22t79 -69q46 -48 86.5 -73t87.5 -25q49 0 84.5 22t54 59.5t27 77.5t8.5 85h56q0 -39 -6 -77t-22 -79.5t-41 -72t-66.5 -50.5t-94.5 -20q-61 0 -111.5 30.5t-101.5 81.5q-43 44 -65.5 60t-48.5 16q-91 0 -91 -159h-55z" />
<glyph unicode="&#x2000;" horiz-adv-x="1075" />
<glyph unicode="&#x2001;" horiz-adv-x="2150" />
<glyph unicode="&#x2002;" horiz-adv-x="1075" />
<glyph unicode="&#x2003;" horiz-adv-x="2150" />
<glyph unicode="&#x2004;" horiz-adv-x="716" />
<glyph unicode="&#x2005;" horiz-adv-x="537" />
<glyph unicode="&#x2006;" horiz-adv-x="358" />
<glyph unicode="&#x2007;" horiz-adv-x="358" />
<glyph unicode="&#x2008;" horiz-adv-x="268" />
<glyph unicode="&#x2009;" horiz-adv-x="430" />
<glyph unicode="&#x200a;" horiz-adv-x="119" />
<glyph unicode="&#x2010;" horiz-adv-x="813" d="M147 567v56h519v-56h-519zM147 651v58h519v-58h-519z" />
<glyph unicode="&#x2011;" horiz-adv-x="813" d="M147 567v56h519v-56h-519zM147 651v58h519v-58h-519z" />
<glyph unicode="&#x2012;" horiz-adv-x="813" d="M147 567v56h519v-56h-519zM147 651v58h519v-58h-519z" />
<glyph unicode="&#x2013;" horiz-adv-x="1232" d="M147 567v56h936v-56h-936zM147 651v58h936v-58h-936z" />
<glyph unicode="&#x2014;" horiz-adv-x="1558" d="M147 567v56h1262v-56h-1262zM147 651v58h1262v-58h-1262z" />
<glyph unicode="&#x2018;" horiz-adv-x="534" d="M115 1260q0 57 23 121t56 115.5t66.5 94.5t56.5 67l23 23l37 -34q-9 -9 -23 -24t-50.5 -61t-64 -91t-50.5 -105t-23 -111q0 -50 23.5 -75t56.5 -25q29 0 50 21.5t21 50.5q0 30 -21 50t-50 17l-2 -28q16 5 30.5 -7t14.5 -32q0 -19 -12 -31t-31 -12q-51 0 -51 78 q0 45 21 99.5t50.5 99.5t59 83t50.5 60l21 22l37 -35q-14 -13 -35 -36.5t-67 -87.5t-68 -119q42 -5 74.5 -38.5t32.5 -82.5q0 -51 -37 -88t-88 -37q-54 0 -92.5 42t-38.5 116z" />
<glyph unicode="&#x2019;" horiz-adv-x="532" d="M113 1163q5 5 13.5 14t32 36.5t44 55t43.5 66t37 72.5q-42 5 -74.5 38.5t-32.5 82.5q0 51 37 88t88 37q54 0 92.5 -42t38.5 -116q0 -57 -23 -121.5t-56 -115.5t-66.5 -94t-56.5 -67l-23 -24l-37 35q9 9 23 24t50.5 61t64 90.5t50.5 104.5t23 111q0 50 -23.5 75t-56.5 25 q-29 0 -50.5 -21t-21.5 -50q0 -30 21.5 -50.5t50.5 -17.5l2 29q-16 -5 -30.5 7t-14.5 32q0 19 12 31t31 12q51 0 51 -78q0 -45 -21 -99.5t-50.5 -99.5t-59 -83.5t-50.5 -60.5l-21 -22z" />
<glyph unicode="&#x201a;" horiz-adv-x="626" d="M131 -268q14 13 35 36.5t67 87.5t68 119q-42 5 -74 38.5t-32 82.5q0 51 36.5 88t87.5 37q55 0 93.5 -42t38.5 -116q0 -57 -23.5 -121t-56.5 -115.5t-66 -94.5t-57 -66l-23 -24l-37 34q9 9 23 24t50.5 61t64 91t50.5 105t23 111q0 50 -23.5 75t-56.5 25q-29 0 -50 -21.5 t-21 -50.5q0 -30 21 -50t50 -17l3 28q-16 -5 -31 7t-15 32q0 19 12 31t31 12q52 0 52 -78q0 -45 -21 -99.5t-50.5 -99.5t-59.5 -83t-51 -60l-21 -22z" />
<glyph unicode="&#x201c;" horiz-adv-x="907" d="M115 1260q0 57 23 121t56 115.5t66.5 94.5t56.5 67l23 23l37 -34q-9 -9 -23 -24t-50.5 -61t-64 -91t-50.5 -105t-23 -111q0 -50 23.5 -75t56.5 -25q29 0 50 21.5t21 50.5q0 30 -21 50t-50 17l-2 -28q16 5 30.5 -7t14.5 -32q0 -19 -12 -31t-31 -12q-51 0 -51 78 q0 45 21 99.5t50.5 99.5t59 83t50.5 60l21 22l37 -35q-14 -13 -35 -36.5t-67 -87.5t-68 -119q42 -5 74.5 -38.5t32.5 -82.5q0 -51 -37 -88t-88 -37q-54 0 -92.5 42t-38.5 116zM487 1260q0 57 23.5 121t56.5 115.5t66 94.5t57 67l23 23l37 -34q-9 -9 -23 -24t-50.5 -61 t-64 -91t-50.5 -105t-23 -111q0 -50 23 -75t56 -25q29 0 50.5 21.5t21.5 50.5t-21.5 49.5t-50.5 17.5l-2 -28q16 5 31 -7t15 -32q0 -19 -12.5 -31t-31.5 -12q-51 0 -51 78q0 45 21 99.5t50.5 99.5t59.5 83t51 60l21 22l37 -35q-14 -13 -35 -36.5t-67 -87.5t-68 -119 q42 -5 74 -38.5t32 -82.5q0 -51 -37 -88t-88 -37q-54 0 -92.5 42t-38.5 116z" />
<glyph unicode="&#x201d;" horiz-adv-x="899" d="M113 1165q5 5 13.5 14t32 36.5t44 55t43.5 66t37 72.5q-42 5 -74.5 38.5t-32.5 82.5q0 51 37 88t88 37q54 0 92.5 -42t38.5 -116q0 -57 -23 -121.5t-56 -115.5t-66.5 -94t-56.5 -67l-23 -24l-37 35q9 9 23 24t50.5 61t64 90.5t50.5 104.5t23 111q0 50 -23.5 75.5 t-56.5 25.5q-29 0 -50.5 -21.5t-21.5 -50.5q0 -30 21.5 -50.5t50.5 -17.5l2 29q-16 -5 -30.5 7t-14.5 32q0 19 12 31t31 12q51 0 51 -78q0 -45 -21 -99.5t-50.5 -99.5t-59 -83.5t-50.5 -60.5l-21 -22zM477 1165q5 5 13.5 14t32 36.5t44 55t43.5 66t37 72.5q-42 5 -74 38.5 t-32 82.5q0 51 37 88t88 37q54 0 92.5 -42t38.5 -116q0 -57 -23.5 -121.5t-56.5 -115.5t-66 -94t-57 -67l-23 -24l-36 35q9 9 23 24t50 61t64 90.5t50.5 104.5t22.5 111q0 50 -23 75.5t-56 25.5q-29 0 -50.5 -21.5t-21.5 -50.5q0 -30 21.5 -50.5t50.5 -17.5l2 29 q-16 -5 -30.5 7t-14.5 32q0 19 12 31t31 12q51 0 51 -78q0 -45 -21 -99.5t-50.5 -99.5t-59.5 -83.5t-51 -60.5l-21 -22z" />
<glyph unicode="&#x201e;" horiz-adv-x="993" d="M131 -268q14 13 35 36.5t67 87.5t68 119q-42 5 -74 38.5t-32 82.5q0 51 36.5 88t87.5 37q55 0 93.5 -42t38.5 -116q0 -57 -23.5 -121t-56.5 -115.5t-66 -94.5t-57 -66l-23 -24l-37 34q9 9 23 24t50.5 61t64 91t50.5 105t23 111q0 50 -23.5 75t-56.5 25q-29 0 -50 -21.5 t-21 -50.5q0 -30 21 -50t50 -17l3 28q-16 -5 -31 7t-15 32q0 19 12 31t31 12q52 0 52 -78q0 -45 -21 -99.5t-50.5 -99.5t-59.5 -83t-51 -60l-21 -22zM498 -268q14 13 35 36.5t67 87.5t68 119q-42 5 -74.5 38.5t-32.5 82.5q0 51 37 88t88 37q54 0 92.5 -42t38.5 -116 q0 -57 -23 -121t-56.5 -115.5t-66.5 -94.5t-56 -66l-23 -24l-37 34q9 9 23 24t50.5 61t64 91t50.5 105t23 111q0 50 -23.5 75t-56.5 25q-29 0 -50.5 -21.5t-21.5 -50.5t21.5 -49.5t50.5 -17.5l2 28q-16 -5 -30.5 7t-14.5 32q0 19 12 31t31 12q51 0 51 -78q0 -45 -21 -99.5 t-50.5 -99.5t-59 -83t-50.5 -60l-21 -22z" />
<glyph unicode="&#x2022;" horiz-adv-x="933" d="M178 643q0 120 84.5 203.5t204.5 83.5q121 0 205 -83.5t84 -203.5q0 -121 -84 -205t-205 -84q-120 0 -204.5 84t-84.5 205zM233 643q0 -96 69 -164.5t165 -68.5t164.5 68.5t68.5 164.5q0 95 -69 163t-164 68q-96 0 -165 -68t-69 -163zM262 643q0 85 60 144t145 59 q86 0 145.5 -59t59.5 -144q0 -86 -59.5 -145.5t-145.5 -59.5q-85 0 -145 59.5t-60 145.5z" />
<glyph unicode="&#x2026;" horiz-adv-x="1284" d="M139 102q0 51 37 88t88 37t88 -37t37 -88t-37 -86.5t-88 -35.5t-88 35.5t-37 86.5zM193 102q0 -29 21 -50t50 -21t50.5 21t21.5 50t-21.5 50.5t-50.5 21.5t-50 -21.5t-21 -50.5zM221 102q0 19 12 31t31 12t31 -12t12 -31q0 -18 -12.5 -30.5t-30.5 -12.5t-30.5 12.5 t-12.5 30.5zM516 102q0 51 37 88t88 37t88 -37t37 -88t-37 -86.5t-88 -35.5t-88 35.5t-37 86.5zM569 102q0 -29 21.5 -50t50.5 -21t50.5 21t21.5 50t-21.5 50.5t-50.5 21.5t-50.5 -21.5t-21.5 -50.5zM598 102q0 19 12 31t31 12t31 -12t12 -31q0 -18 -12.5 -30.5t-30.5 -12.5 t-30.5 12.5t-12.5 30.5zM893 102q0 51 37 88t88 37t88 -37t37 -88t-37 -86.5t-88 -35.5t-88 35.5t-37 86.5zM946 102q0 -29 21.5 -50t50.5 -21t50.5 21t21.5 50t-21.5 50.5t-50.5 21.5t-50.5 -21.5t-21.5 -50.5zM975 102q0 19 12 31t31 12t31 -12t12 -31q0 -18 -12.5 -30.5 t-30.5 -12.5t-30.5 12.5t-12.5 30.5z" />
<glyph unicode="&#x202f;" horiz-adv-x="430" />
<glyph unicode="&#x2039;" horiz-adv-x="712" d="M109 590l41 37l385 -410l-39 -37zM109 686l387 410l39 -39l-385 -410zM178 637l379 401l41 -39l-342 -362l342 -361l-41 -38z" />
<glyph unicode="&#x203a;" horiz-adv-x="712" d="M117 276l342 363l-342 360l41 39l379 -399l-379 -401zM180 219l385 410l41 -39l-387 -410zM180 1059l39 37l387 -410l-41 -37z" />
<glyph unicode="&#x205f;" horiz-adv-x="537" />
<glyph unicode="&#x20ac;" horiz-adv-x="1882" d="M100 551v55h230q65 -253 274 -417t475 -164q175 0 325 53t288 174l39 -41q-277 -242 -652 -242q-276 0 -493.5 162.5t-298.5 419.5h-187zM100 635v55h156q-6 53 -6 109q0 50 6 102h-156v55h222q-17 -87 -17 -157q0 -80 19 -164h-224zM100 985v55h185q79 258 297.5 423 t496.5 165q144 0 280 -50.5t230 -141.5v161h56v-333q-62 140 -221.5 224.5t-344.5 84.5q-267 0 -477 -166.5t-274 -421.5h-228zM334 799q0 89 16 157h791v-55h-744q-8 -47 -8 -102q0 -62 8 -109h658v-55h-703q-18 76 -18 164zM356 985q64 244 264.5 401.5t458.5 157.5 q138 0 260.5 -46t206.5 -135.5t99 -203.5v-244h-56v236q-12 98 -86.5 176t-186 120t-237.5 42q-218 0 -394.5 -125.5t-252.5 -323.5h709v-55h-785zM358 606h697v-55h-621q76 -196 252 -319t393 -123q165 0 299 47t260 159l35 -41q-133 -119 -277 -170t-317 -51 q-257 0 -456.5 155.5t-264.5 397.5zM1673 915v682h58v-682h-58z" />
<glyph unicode="&#x2122;" horiz-adv-x="1648" d="M111 1477v45h247v-537h-47v492h-200zM111 1550v47h522v-47h-522zM387 985v537h246v-45h-201v-492h-45zM770 985v608h45v-608h-45zM842 1599l41 23l237 -432l236 432l41 -23l-277 -505zM844 985v553l264 -479l-41 -23l-176 320v-371h-47zM1133 1059l262 479v-553h-47v369 l-174 -318zM1423 985v608h45v-608h-45z" />
<glyph unicode="&#x25fc;" horiz-adv-x="1085" d="M0 0v1085h1085v-1085h-1085z" />
</font>
</defs>
</svg>
