<?xml version="1.0" standalone="no"?>
<!DOCTYPE svg PUBLIC "-//W3C//DTD SVG 1.1//EN" "http://www.w3.org/Graphics/SVG/1.1/DTD/svg11.dtd" >
<svg xmlns="http://www.w3.org/2000/svg">
<metadata></metadata>
<defs>
<font id="gist_linelight" horiz-adv-x="1775" >
<font-face units-per-em="2048" ascent="1638" descent="-410" />
<missing-glyph horiz-adv-x="585" />
<glyph unicode="&#xfb01;" horiz-adv-x="1388" d="M-539 -268l29 -2q-7 -66 22.5 -129.5t101.5 -108.5t171 -45q81 0 146.5 30t108 77t76 120t52.5 142.5t35 160.5l182 1029h-291l6 28h289l14 76q18 104 39.5 186.5t60 168t88.5 142t126 92.5t170 36q87 0 157 -33t111 -85t60.5 -114t13.5 -123l-29 4q7 74 -25 146.5 t-108 124t-180 51.5q-64 0 -118.5 -17.5t-96 -47t-76 -75t-59 -94.5t-45.5 -112.5t-34.5 -122.5t-25.5 -131l-12 -72h717l-168 -950h286l-6 -29h-602l6 29h287l164 922h-690l-183 -1033q-11 -64 -24 -118t-33 -112.5t-44 -104.5t-58.5 -88.5t-75 -70.5t-94.5 -44.5 t-117 -16.5q-82 0 -148.5 29t-105.5 75t-57.5 100.5t-12.5 109.5z" />
<glyph unicode="&#xfb02;" horiz-adv-x="1531" d="M-537 -268l29 -2q-8 -66 21.5 -129.5t101.5 -108.5t170 -45q82 0 147 30t108 77.5t76.5 119.5t52 142.5t34.5 160.5l182 1029h-289l6 28h287l27 144q16 92 35.5 164t56.5 149t86.5 128t126.5 83.5t174 32.5q216 0 371 -168l-205 -1172q-10 -66 -8.5 -116.5t16 -87 t33 -61.5t43.5 -39.5t47.5 -21t44.5 -6.5q82 0 174 74l16 -22q-99 -80 -190 -80q-30 0 -61 10.5t-64.5 35.5t-54.5 66.5t-31 104t6 147.5l203 1160q-144 147 -340 147q-91 0 -163 -30.5t-118.5 -78t-81.5 -121t-53.5 -142.5t-34.5 -160l-24 -140h432l-6 -28h-432l-183 -1033 q-16 -91 -35.5 -164.5t-55 -149t-82 -126.5t-116.5 -83t-157 -32q-108 0 -186.5 49.5t-111 120t-24.5 144.5z" />
<glyph unicode="&#xfb03;" horiz-adv-x="2154" d="M-537 -266l29 -4q-8 -66 21.5 -129.5t101.5 -108.5t170 -45q82 0 147 30t108 77.5t76.5 119.5t52 142.5t34.5 160.5l182 1029h-291l6 28h289q18 105 41 188.5t64 170t94 144t133 94t180 36.5q224 0 377 -180q127 248 373 248q87 0 157.5 -33t111.5 -85t60.5 -114 t12.5 -123l-29 4q5 55 -12.5 111t-55 103.5t-102 77.5t-143.5 30q-63 0 -117.5 -17.5t-96 -47t-76 -74.5t-59.5 -94.5t-45.5 -113t-34.5 -122.5t-26 -131l-12 -72h719l-170 -950h286l-6 -29h-602l6 29h287l166 922h-692l-183 -1033q-16 -91 -35.5 -164.5t-55 -149 t-82 -126.5t-116.5 -83t-157 -32q-147 0 -240 93l21 20q84 -84 219 -84q82 0 147 30t108 77.5t76.5 119.5t52 142.5t34.5 160.5l182 1029h-735l-183 -1033q-16 -91 -35.5 -164.5t-55 -149t-82 -126.5t-116.5 -83t-157 -32q-108 0 -186.5 50t-111 121t-24.5 145zM418 1034 h735l14 76q35 212 97 348q-150 180 -363 180q-93 0 -168 -34t-124.5 -88t-88.5 -136.5t-61 -162.5t-41 -183z" />
<glyph unicode="&#xfb04;" horiz-adv-x="2297" d="M-537 -268l29 -2q-6 -49 10 -98t51.5 -91t96 -68t135.5 -26q81 0 146.5 30t108 77t76 120t52.5 142.5t35 160.5l182 1029h-291l6 28h289q18 105 41 188.5t63.5 170t93 144t132.5 94t180 36.5q220 0 373 -174q125 242 387 242q219 0 371 -168l-207 -1184 q-15 -76 -7 -131.5t26 -92t47.5 -58t57.5 -30t56 -8.5q44 0 83 17t89 57l18 -20q-98 -82 -190 -82q-30 0 -61.5 10t-66 34.5t-56 64.5t-31.5 100.5t6 142.5l205 1172q-141 147 -340 147q-91 0 -163 -30.5t-118.5 -78t-81.5 -121t-53.5 -142.5t-34.5 -160l-24 -140h430 l-4 -28h-432l-183 -1033q-11 -64 -24 -118t-33 -112.5t-44 -104.5t-58.5 -88.5t-75 -70.5t-94.5 -44.5t-117 -16.5q-145 0 -242 93l21 20q87 -84 221 -84q81 0 146.5 30t108 77t76 120t52.5 142.5t35 160.5l182 1029h-735l-183 -1033q-11 -64 -24 -118t-33 -112.5 t-44 -104.5t-58.5 -88.5t-75 -70.5t-94.5 -44.5t-117 -16.5q-82 0 -148 29t-105 74.5t-57.5 101t-11.5 109.5zM418 1034h735l27 144q27 167 80 286q-153 174 -361 174q-93 0 -168 -34t-124.5 -88t-88 -136t-60.5 -162.5t-40 -183.5z" />
<glyph horiz-adv-x="2048" />
<glyph horiz-adv-x="2048" />
<glyph unicode="&#xd;" horiz-adv-x="2048" />
<glyph unicode=" "  horiz-adv-x="585" />
<glyph unicode="&#x09;" horiz-adv-x="585" />
<glyph unicode="&#xa0;" horiz-adv-x="585" />
<glyph unicode="!" horiz-adv-x="591" d="M121 96q0 30 21 51t51 21q29 0 49 -21t20 -51q0 -29 -20 -50t-49 -21q-31 0 -51.5 20.5t-20.5 50.5zM150 96q0 -19 12 -31t31 -12q18 0 29 12.5t11 30.5q0 19 -11.5 31t-28.5 12q-20 0 -31.5 -12t-11.5 -31zM236 424l208 1173h29l-209 -1173h-28z" />
<glyph unicode="&#x22;" horiz-adv-x="905" d="M272 965l113 632h29l-113 -632h-29zM707 965l112 632h29l-113 -632h-28z" />
<glyph unicode="#" horiz-adv-x="1470" d="M63 496l7 28h325l187 533h-330l6 28h334l180 512h33l-180 -512h465l180 512h33l-181 -512h328l-4 -28h-334l-186 -533h329l-4 -28h-336l-172 -496h-32l172 496h-465l-174 -496h-33l174 496h-322zM428 524h465l186 533h-465z" />
<glyph unicode="$" horiz-adv-x="1236" d="M143 592l29 -4q-15 -90 7.5 -165.5t74.5 -126.5t117 -84t141 -48l113 643q-60 27 -100.5 49t-88 55t-75.5 66.5t-47 80t-19 99.5q0 133 103.5 225.5t275.5 92.5q10 0 67 -5l39 226h29l-41 -230q77 -13 141 -44.5t113.5 -83t69.5 -130.5t2 -176l-29 4q16 91 -1.5 164.5 t-62.5 121.5t-104.5 77.5t-132.5 40.5l-109 -619q7 -3 41.5 -18.5t48 -21.5t48 -23.5t51 -28.5t46.5 -31.5t45.5 -37.5t36 -42t31 -49.5t18 -55.5t7.5 -64q0 -140 -107.5 -233t-289.5 -93q-52 0 -96 8l-39 -229h-29l41 233q-81 17 -151 53t-125.5 91t-80.5 136t-8 177z M324 1157q0 -48 16.5 -90t42 -72.5t68.5 -61t81.5 -51.5t96.5 -48l106 608q-40 4 -61 4q-163 0 -256.5 -82.5t-93.5 -206.5zM541 158q47 -6 90 -6q171 0 269.5 84.5t98.5 212.5q0 54 -22 101.5t-52 79t-79 63.5t-83 48.5t-85 39.5l-27 12z" />
<glyph unicode="%" horiz-adv-x="2056" d="M244 1241q0 134 96 230t231 96q133 0 229.5 -96.5t96.5 -229.5t-96.5 -229.5t-229.5 -96.5q-135 0 -231 96t-96 230zM272 1241q0 -125 86.5 -211t212.5 -86q125 0 211 86t86 211t-86 211t-211 86q-126 0 -212.5 -86t-86.5 -211zM395 0l1274 1597h35l-1272 -1597h-37z M1206 358q0 134 96 230t230 96t230 -96t96 -230q0 -135 -96 -230t-230 -95t-230 95t-96 230zM1235 358q0 -126 86 -211.5t211 -85.5t211 85.5t86 211.5q0 124 -86.5 210.5t-210.5 86.5t-210.5 -86.5t-86.5 -210.5z" />
<glyph unicode="&#x26;" horiz-adv-x="1671" d="M162 575q0 126 51 236.5t134.5 184.5t193 112t223.5 27q-72 75 -72 182q0 103 78.5 185.5t196.5 82.5q65 0 121 -27t89.5 -73t45.5 -101t-10 -117.5t-78 -115.5l-21 20q50 48 70.5 103.5t10.5 104t-39.5 89.5t-79.5 64.5t-109 23.5q-109 0 -177.5 -71.5t-68.5 -167.5 q0 -87 52 -153t157 -91l-8 -29q-68 17 -119 56q-111 20 -222.5 -12t-197 -102.5t-139.5 -179t-54 -231.5t43.5 -225t117 -168.5t169.5 -102.5t203 -36q189 0 322 117t133 284q0 131 -105 226q-42 -69 -71 -110t-71.5 -86.5t-89 -67t-100.5 -21.5q-87 0 -145.5 56.5 t-58.5 138.5q0 89 74 151t206 62q135 0 246 -80q69 107 140 165t161 58q105 0 164 -65t59 -142q0 -55 -30 -107.5t-70 -82.5l-17 20q38 31 63.5 76t25.5 94q0 69 -50.5 123.5t-144.5 54.5q-83 0 -146.5 -53.5t-130.5 -159.5q55 -48 87 -113.5t32 -136.5q0 -116 -65 -215 t-176.5 -157t-241.5 -58q-110 0 -210.5 39t-179 109.5t-125 178t-46.5 234.5zM565 580q0 -72 49 -119t127 -47q39 0 75 15t64 37t59.5 61t54.5 73t55 88q-99 76 -232 76q-119 0 -185.5 -54t-66.5 -130z" />
<glyph unicode="'" horiz-adv-x="471" d="M272 965l113 632h29l-113 -632h-29z" />
<glyph unicode="(" horiz-adv-x="722" d="M121 395q0 188 40.5 368t108.5 327t160.5 279t192 231t208.5 176l17 -25q-136 -96 -256 -227t-221.5 -300.5t-161 -384t-59.5 -444.5q0 -283 85 -512t222 -356l-21 -21q-139 130 -227 366.5t-88 522.5z" />
<glyph unicode=")" horiz-adv-x="720" d="M-133 -465q136 96 256 227t221.5 300.5t161 384t59.5 444.5q0 283 -85 512t-222 356l21 21q139 -130 227 -366.5t88 -522.5q0 -188 -40.5 -368t-108.5 -326.5t-161 -278.5t-192.5 -231t-208.5 -176z" />
<glyph unicode="*" horiz-adv-x="972" d="M264 1432l12 24l304 -164l57 336l29 -4l-60 -338l342 49l4 -28l-342 -50l152 -305l-25 -12l-151 305l-246 -235l-21 20l246 236z" />
<glyph unicode="+" horiz-adv-x="1114" d="M121 735l6 29h430l76 432h29l-76 -432h434l-4 -29h-434l-76 -434h-29l76 434h-432z" />
<glyph unicode="," horiz-adv-x="632" d="M6 -272q11 7 29 20.5t63.5 54.5t81 81.5t64 95t28.5 102.5q0 27 -13.5 42t-33.5 15q-18 0 -30.5 -12.5t-12.5 -30.5q0 -16 10 -26.5t23 -12.5l-4 -28q-23 2 -40 20.5t-17 46.5q0 30 20.5 51t50.5 21q31 0 53.5 -22.5t22.5 -63.5q0 -52 -28.5 -110t-69 -103.5t-81 -83.5 t-68.5 -59l-29 -21z" />
<glyph unicode="-" horiz-adv-x="817" d="M139 623l6 28h519l-7 -28h-518z" />
<glyph unicode="." horiz-adv-x="532" d="M96 96q0 30 21 51t51 21q29 0 49.5 -21.5t20.5 -50.5t-20.5 -50t-49.5 -21q-30 0 -51 20.5t-21 50.5zM125 96q0 -19 12 -31t31 -12q18 0 29.5 12.5t11.5 30.5q0 19 -12 31t-29 12q-20 0 -31.5 -12t-11.5 -31z" />
<glyph unicode="/" horiz-adv-x="1423" d="M-70 -467l1518 2214h37l-1518 -2214h-37z" />
<glyph unicode="0" horiz-adv-x="1454" d="M193 651q0 172 46.5 337.5t127.5 295.5t201.5 209.5t258.5 79.5q225 0 353.5 -165.5t128.5 -459.5q0 -173 -47 -339t-128.5 -295.5t-202 -209t-257.5 -79.5q-223 0 -352 166t-129 460zM221 651q0 -283 121 -440.5t332 -157.5q105 0 201 49.5t168.5 135.5t126.5 199 t82 244.5t28 266.5q0 283 -120 439.5t-333 156.5q-106 0 -201.5 -49.5t-168.5 -135.5t-126.5 -198.5t-81.5 -243.5t-28 -266z" />
<glyph unicode="1" horiz-adv-x="802" d="M25 55l6 29h284l258 1464l-321 -108l-8 28l344 117l4 -14l14 -2l-262 -1485h289l-4 -29h-604z" />
<glyph unicode="2" horiz-adv-x="1308" d="M41 4q21 111 65 206.5t96.5 162.5t127.5 128t138.5 100t149.5 83q31 16 82.5 41.5t81.5 40.5t75.5 39.5t72.5 42t62.5 44t57 49.5t45 53.5t36 61.5t20.5 69.5t8 80.5q0 150 -110 244t-283 94q-78 0 -152 -24.5t-136.5 -71.5t-102 -125t-41.5 -174h-29q2 83 30.5 153.5 t74.5 119.5t105.5 83.5t123 51t127.5 16.5q182 0 302 -104t120 -263q0 -45 -8.5 -86t-22 -74t-38 -66t-46.5 -57t-59.5 -51.5t-65.5 -46t-74.5 -43.5t-77 -40.5t-82.5 -41t-83 -41.5q-57 -30 -102 -55.5t-98 -61t-93.5 -71t-83.5 -82.5t-74.5 -98t-58.5 -115.5t-43 -136.5 q105 76 221 76q79 0 207 -35q161 -49 239 -49q160 0 241.5 109t53.5 266l29 4q31 -171 -58.5 -289.5t-265.5 -118.5q-86 0 -247 49q-128 35 -199 35q-128 0 -236 -92l-10 8z" />
<glyph unicode="3" horiz-adv-x="1224" d="M12 -4l17 24q211 -133 432 -133q140 0 254.5 55.5t183 161.5t68.5 242q0 199 -146 313.5t-383 114.5l6 29q149 0 270 37t195.5 98.5t114 135.5t39.5 153q0 58 -21.5 113t-63 101.5t-111.5 74.5t-158 28q-156 0 -263 -83.5t-139 -215.5l-28 6q35 140 150 231t280 91 q94 0 169.5 -31.5t121 -82.5t69 -111t23.5 -121q0 -73 -31 -142.5t-89.5 -130t-153.5 -105t-214 -63.5q179 -38 285 -152.5t106 -287.5q0 -106 -43 -198t-116 -155t-170.5 -98.5t-204.5 -35.5q-228 0 -449 137z" />
<glyph unicode="4" horiz-adv-x="1347" d="M25 369l1015 1233l21 -17l-965 -1173q100 51 238 51q95 0 282 -34.5t254 -39.5l86 483h29l-86 -485h33q100 0 160.5 29t111.5 86l23 -19q-53 -61 -120.5 -93t-174.5 -32h-37l-76 -430h289l-6 -28h-604l6 28h287l75 432q-65 5 -251.5 39.5t-280.5 34.5q-165 0 -291 -88 l-8 12z" />
<glyph unicode="5" horiz-adv-x="1271" d="M-6 -23l16 25q179 -115 398 -115q119 -1 233 42t203 118.5t143.5 187.5t54.5 240q0 188 -114.5 295t-286.5 107q-195 0 -360 -117l-9 12l-14 4l211 766h702l-57 -330h-29l54 301h-650l-192 -708q165 100 344 100q178 0 304 -117t126 -313q0 -134 -58 -251.5 t-151.5 -196.5t-212.5 -124t-241 -44q-224 0 -414 118z" />
<glyph unicode="6" horiz-adv-x="1359" d="M182 608q0 118 22 245.5t63 254.5t106.5 240t146.5 200t188.5 138t227.5 51q121 0 216.5 -53t150.5 -154l-25 -12q-103 190 -342 190q-96 0 -185 -35t-159.5 -96t-131 -143.5t-105 -178.5t-76.5 -200t-48.5 -208.5t-19.5 -203.5q47 174 198.5 286.5t327.5 112.5 q62 0 124 -17.5t120 -55.5t102.5 -91.5t71.5 -131t27 -168.5q0 -119 -41.5 -223.5t-111 -176t-162 -112.5t-193.5 -41q-92 0 -176 32.5t-156.5 99t-116 183t-43.5 268.5zM229 428q21 -98 67 -172.5t107.5 -117.5t129.5 -64t141 -21q96 0 183.5 38.5t153 106t104 166.5 t38.5 214q0 87 -24.5 160t-65.5 123t-95 85t-112.5 51.5t-118.5 16.5q-103 0 -203 -46t-174.5 -123t-112 -187.5t-18.5 -229.5z" />
<glyph unicode="7" horiz-adv-x="1165" d="M221 1204l60 338h958v-14l10 -10l-446 -578q-458 -595 -455 -1014h-29q-3 431 461 1030l430 557h-905l-55 -309h-29z" />
<glyph unicode="8" horiz-adv-x="1406" d="M123 397q0 46 9 88t27.5 77.5t40 66.5t54 58.5t62.5 50t72 43.5t75.5 37t80.5 33t79 28t79 26q-354 160 -354 420q0 117 70 212.5t186.5 147.5t251.5 52q196 0 318 -106t122 -257q0 -66 -21.5 -124t-62.5 -103.5t-88 -82.5t-109.5 -68.5t-114 -52.5t-114.5 -42 q61 -27 108.5 -51.5t98 -56t86 -65.5t64.5 -75t44 -90t15 -104q0 -83 -30.5 -154.5t-85 -124.5t-128.5 -90.5t-161.5 -56.5t-182.5 -19q-223 0 -357 107t-134 276zM152 397q0 -157 125.5 -255.5t336.5 -98.5q156 0 282 47.5t202 143.5t76 225q0 80 -32 145t-96 116.5 t-132.5 88t-168.5 78.5q-214 -69 -303 -111q-226 -108 -275 -273q-15 -50 -15 -106zM377 1325q0 -255 366 -407q56 18 99.5 34t100.5 41.5t100 51t87.5 61t73 74.5t46.5 89t18 105q0 141 -112.5 237.5t-299.5 96.5q-201 0 -340 -109t-139 -274z" />
<glyph unicode="9" horiz-adv-x="1359" d="M104 68l25 12q104 -191 342 -191q96 0 185 35t159.5 96t131 143.5t105 178.5t76.5 200t48.5 208.5t19.5 203.5q-47 -174 -198.5 -286.5t-327.5 -112.5q-62 0 -124 17.5t-120 55.5t-102.5 91.5t-71.5 131.5t-27 169q0 119 41.5 223.5t111 176t162 112.5t193.5 41 q72 0 140.5 -19.5t133 -64.5t112.5 -111t77 -166t29 -223q0 -101 -15.5 -209.5t-47.5 -218.5t-77.5 -212t-109 -191t-138 -155t-169 -104t-197.5 -38q-121 0 -216.5 53t-150.5 154zM254 1020q0 -87 24.5 -160t65.5 -123t95 -85t112.5 -51.5t118.5 -16.5q103 0 203 46 t174.5 122.5t112 187t18.5 229.5q-21 98 -67 172.5t-107.5 117.5t-129.5 64t-141 21q-96 0 -183.5 -38.5t-153 -106t-104 -166t-38.5 -213.5z" />
<glyph unicode=":" horiz-adv-x="548" d="M104 96q0 30 21 51t51 21q29 0 49.5 -21.5t20.5 -50.5t-20.5 -50t-49.5 -21q-30 0 -51 20.5t-21 50.5zM133 96q0 -19 12 -31t31 -12q18 0 29.5 12.5t11.5 30.5q0 19 -12 31t-29 12q-20 0 -31.5 -12t-11.5 -31zM231 823q0 30 21 51t51 21q29 0 49.5 -21.5t20.5 -50.5 t-20.5 -50t-49.5 -21q-31 0 -51.5 21t-20.5 50zM260 823q0 -19 12 -31t31 -12q18 0 29.5 12.5t11.5 30.5q0 19 -12 31t-29 12q-20 0 -31.5 -12t-11.5 -31z" />
<glyph unicode=";" horiz-adv-x="608" d="M-6 -270q11 7 29 20.5t63.5 54.5t81 81.5t64 95t28.5 102.5q0 27 -13.5 42t-33.5 15q-18 0 -30.5 -12.5t-12.5 -30.5q0 -16 10 -26.5t23 -12.5l-4 -28q-23 2 -40.5 20.5t-17.5 46.5q0 30 21 51t51 21q31 0 53.5 -22.5t22.5 -63.5q0 -52 -28.5 -110t-69.5 -103.5 t-81.5 -83.5t-69.5 -59l-28 -21zM270 823q0 30 21 51t51 21q29 0 49.5 -21.5t20.5 -50.5t-20.5 -50t-49.5 -21q-30 0 -51 21t-21 50zM299 823q0 -19 12 -31t31 -12q18 0 29.5 12.5t11.5 30.5q0 19 -12 31t-29 12q-20 0 -31.5 -12t-11.5 -31z" />
<glyph unicode="&#x3c;" horiz-adv-x="1179" d="M133 737l8 13l-6 12l936 448l12 -24l-911 -438l754 -435l-15 -26z" />
<glyph unicode="=" horiz-adv-x="1222" d="M129 492l6 28h897l-6 -28h-897zM215 981l6 29h897l-6 -29h-897z" />
<glyph unicode="&#x3e;" horiz-adv-x="1181" d="M127 313l911 439l-753 434l14 26l778 -450l-8 -12l6 -13l-936 -448z" />
<glyph unicode="?" horiz-adv-x="1038" d="M250 1194q13 165 135 272t283 107q146 0 237.5 -86.5t91.5 -212.5q0 -60 -20.5 -114t-49 -92t-78.5 -79t-88.5 -65.5t-98.5 -59.5q-145 -83 -193 -122q-110 -89 -93 -193q0 -3 1 -6l10 -60l-29 -6l-10 62q-9 46 2.5 88t35.5 73.5t65 63.5t80 56.5t91 54.5q17 9 25 14 q60 35 96 58.5t85 62.5t75.5 74.5t46 85t19.5 104.5q0 117 -82 193.5t-219 76.5q-152 0 -264 -98t-125 -254zM256 96q0 30 21 51t51 21q29 0 49 -21t20 -51q0 -29 -20 -50t-49 -21q-30 0 -51 20.5t-21 50.5zM285 96q0 -19 12 -31t31 -12q18 0 29.5 12.5t11.5 30.5 q0 19 -12 31t-29 12q-20 0 -31.5 -12t-11.5 -31z" />
<glyph unicode="@" horiz-adv-x="2066" d="M135 434q0 193 84.5 375t222 314t320 212t371.5 80q160 0 299.5 -54.5t237 -148t153 -221.5t55.5 -272q0 -229 -108 -371.5t-257 -142.5q-99 0 -161 56t-62 149q-58 -92 -155 -148.5t-203 -56.5q-129 0 -214 87t-85 216q0 105 60 198t156.5 148t201.5 55q117 0 199 -75 t96 -187l86 303h30l-131 -467q-30 -107 24 -178.5t158 -71.5q134 0 235 136t101 350q0 139 -53 261.5t-145.5 212t-227 141.5t-290.5 52q-148 0 -292.5 -49t-265 -138t-213.5 -206t-145.5 -262.5t-52.5 -296.5q0 -197 86.5 -358.5t245.5 -255.5t360 -94q213 0 428 102 l12 -23q-208 -108 -440 -108q-207 0 -372.5 98.5t-257 266.5t-91.5 372zM662 508q0 -120 75 -197.5t195 -77.5q153 0 271 110.5t118 260.5q0 119 -75 198t-195 79q-99 0 -189 -50.5t-145 -137t-55 -185.5z" />
<glyph unicode="A" d="M-141 55l6 29h260l911 1511l13 -8l14 4l377 -1507h264l-6 -29h-604l6 29h309l-115 459h-860l-276 -459h311l-6 -29h-604zM453 571h835l-246 977z" />
<glyph unicode="B" horiz-adv-x="1648" d="M-14 55l6 29h287l249 1429h-286l4 29h948q129 0 218 -89.5t89 -223.5q0 -124 -90 -230t-225 -141q122 -33 200 -128t78 -220q0 -86 -41 -169t-110.5 -146t-168 -101.5t-206.5 -38.5h-952zM307 84h631q138 0 253.5 60.5t180 158t64.5 207.5q0 141 -99.5 235t-244.5 99h-15 h-637zM446 872h631h15q158 6 269.5 112.5t111.5 244.5q0 125 -79.5 204.5t-199.5 79.5h-635z" />
<glyph unicode="C" horiz-adv-x="1675" d="M166 743q0 166 69 319.5t183 265t269.5 178.5t320.5 67q192 0 347 -90.5t197 -237.5l64 352h29l-121 -682h-29l43 246q-4 113 -79 201.5t-193.5 135t-257.5 46.5q-161 0 -310.5 -64t-260 -171.5t-176.5 -256t-66 -309.5q0 -190 88 -348t245 -250t349 -92q161 0 302 51.5 t275 169.5l19 -22q-142 -120 -287.5 -173.5t-308.5 -53.5q-148 0 -280.5 56.5t-226.5 153t-149 229t-55 279.5z" />
<glyph unicode="D" horiz-adv-x="1753" d="M-14 55l6 29h287l249 1429h-286l4 29h739q190 0 336 -70t230.5 -209.5t84.5 -330.5q0 -180 -62.5 -340.5t-172.5 -279t-270.5 -188t-346.5 -69.5h-798zM307 84h477q146 0 275.5 42.5t229 120.5t172 183t110 233.5t37.5 268.5q0 185 -79.5 317.5t-219 198t-324.5 65.5 h-426z" />
<glyph unicode="E" horiz-adv-x="1495" d="M-14 55l6 29h287l249 1429h-286l4 29h1237l-62 -338h-28l57 309h-891l-121 -684h703l-6 -28h-701l-127 -717h910l55 309h28l-59 -338h-1255z" />
<glyph unicode="F" horiz-adv-x="1439" d="M-14 55l6 29h287l249 1429h-286l4 29h1237l-62 -338h-28l57 309h-891l-129 -729h682l-6 -28h-680l-119 -672h289l-6 -29h-604z" />
<glyph unicode="G" horiz-adv-x="1724" d="M166 743q0 166 69 319.5t183 265t269.5 178.5t320.5 67q194 0 349 -90.5t197 -239.5l62 354h29l-107 -610h-29l31 174h-2q-4 113 -79 201.5t-193.5 135t-257.5 46.5q-161 0 -310.5 -64t-260 -171.5t-176.5 -256t-66 -309.5q0 -142 51.5 -270t139.5 -220t210.5 -146 t259.5 -54q376 0 602 309l60 343h-607l7 28h632l-67 -387l-60 -346h-28l51 301q-227 -276 -590 -276q-188 0 -347 96t-251 261.5t-92 360.5z" />
<glyph unicode="H" horiz-adv-x="1880" d="M-16 55l6 29h289l249 1429h-288l6 29h604l-6 -29h-285l-121 -684h1061l119 684h-287l6 29h605l-7 -29h-286l-252 -1429h289l-7 -29h-604l6 29h287l125 717h-1059l-127 -717h287l-6 -29h-604z" />
<glyph unicode="I" horiz-adv-x="788" d="M-14 55l6 29h287l247 1429h-286l6 29h604l-6 -29h-287l-250 -1429h289l-6 -29h-604z" />
<glyph unicode="J" horiz-adv-x="1300" d="M88 305l29 -8q-19 -55 -19 -113q-1 -1 -1 -2q0 -56 21 -110q21 -55 60.5 -98t107.5 -69t154 -26q100 0 183 38t136 95.5t94 138t62 150.5t35 148l189 1064h-613l6 29h639l-192 -1098q-10 -55 -23.5 -107t-36.5 -112.5t-52.5 -112.5t-72 -101.5t-92.5 -84t-117.5 -55.5 t-144.5 -21q-95 0 -169 28.5t-117 75t-66 106.5q-22 58 -22 119q0 65 22 126z" />
<glyph unicode="K" horiz-adv-x="1654" d="M-14 55l6 29h287l249 1429h-286l4 29h606l-6 -29h-287l-172 -981l373 336l717 645h-299l6 29h606l-6 -29h-262l-727 -653l442 -776h297l-6 -29h-307l-447 787l-395 -355l-72 -403h287l-4 -29h-604z" />
<glyph unicode="L" horiz-adv-x="1390" d="M-16 55l6 29h286l250 1429h-286l6 29h604l-6 -29h-287l-252 -1429h862l56 309h28l-59 -338h-1208z" />
<glyph unicode="M" horiz-adv-x="2189" d="M-14 55l6 29h287l249 1429h-286l4 29h311l467 -1251l913 1251h314l-6 -29h-287l-252 -1429h289l-6 -29h-605l7 29h286l242 1382l-887 -1214l-12 6l-14 -4l-455 1219l-244 -1389h287l-6 -29h-602z" />
<glyph unicode="N" horiz-adv-x="1873" d="M-16 55l6 29h286l250 1429h-288l6 29h309l831 -1491l256 1462h-288l6 29h606l-6 -29h-287l-264 -1505l-14 2l-13 -6l-829 1481l-246 -1401h289l-6 -29h-604z" />
<glyph unicode="O" horiz-adv-x="1837" d="M166 743q0 166 69 320t183 265.5t269.5 178t320.5 66.5q148 0 280.5 -57t226.5 -153.5t148.5 -229t54.5 -279.5q0 -166 -69 -320t-183.5 -265t-269.5 -177.5t-319 -66.5q-148 0 -280.5 56.5t-226.5 153t-149 229t-55 279.5zM195 743q0 -190 88 -348t245 -250t349 -92 q160 0 309.5 64t260 171t177 256t66.5 310q0 190 -88 348t-245 250t-349 92q-161 0 -310.5 -64t-260 -171t-176.5 -255.5t-66 -310.5z" />
<glyph unicode="P" horiz-adv-x="1617" d="M-14 55l6 29h287l249 1429h-286l4 29h909q179 0 304.5 -115.5t125.5 -285.5q0 -98 -45.5 -190.5t-122.5 -162.5t-187 -112.5t-231 -42.5h-596l-96 -549h289l-6 -29h-604zM410 662h589q117 0 221.5 39.5t177.5 105.5t115.5 153t42.5 181q0 161 -116 266.5t-285 105.5h-596 z" />
<glyph unicode="Q" horiz-adv-x="1835" d="M166 743q0 166 69 320t183 265.5t269.5 178t320.5 66.5q148 0 280.5 -57t226.5 -153.5t148.5 -229t54.5 -279.5q0 -152 -57.5 -294t-155.5 -250t-231.5 -181.5t-280.5 -95.5q41 -12 92 -33.5t77 -33.5t99.5 -49.5t84.5 -43.5q68 -35 117 -57t111.5 -44t113.5 -26 q17 -1 34 -1q36 0 74 5q55 8 107.5 39.5t101.5 83.5l23 -23q-52 -55 -108.5 -87t-115.5 -40q-42 -6 -81 -6q-17 0 -34 1q-55 4 -120.5 26.5t-116.5 44.5t-119 57q-18 9 -67.5 35.5t-70.5 37t-64 31.5t-68.5 30.5t-61 21.5t-65.5 17t-59 6q-148 0 -280.5 56.5t-226.5 153 t-149 229t-55 279.5zM195 743q0 -190 88 -348t245 -250t349 -92q160 0 309.5 64t260 171t177 256t66.5 310q0 190 -88 348t-245 250t-349 92q-161 0 -310.5 -64t-260 -171t-176.5 -255.5t-66 -310.5z" />
<glyph unicode="R" horiz-adv-x="1699" d="M-14 55l6 29h287l249 1429h-286l4 29h956q166 0 285 -109.5t119 -267.5q0 -123 -72.5 -232.5t-200 -177t-276.5 -67.5h-103l324 -604h276l-6 -29h-604l4 29h297l-321 604h-510l-107 -604h289l-6 -29h-604zM420 717h637q108 0 205.5 37t166 98.5t108.5 143.5t40 169 q0 149 -109 248.5t-266 99.5h-643z" />
<glyph unicode="S" horiz-adv-x="1374" d="M70 0l110 625h29l-47 -271q64 -134 204.5 -217.5t325.5 -83.5q199 0 313.5 98t114.5 246q0 44 -13 85t-32 72t-51.5 61.5t-60.5 50.5t-70 43.5t-69 36t-69 32t-59 27.5q-58 26 -98 47t-89 50.5t-81.5 59.5t-61.5 67.5t-43 83t-14 97.5q0 152 118.5 257.5t315.5 105.5 q170 0 309 -77t195 -185l51 286h29l-110 -624h-29l51 289q-38 113 -176 197.5t-320 84.5q-188 0 -296.5 -96t-108.5 -238q0 -57 21 -107t51.5 -86t84 -72t99.5 -60t115 -56q14 -7 59.5 -27t71 -32t71.5 -37.5t73.5 -46.5t62.5 -54t54.5 -66t33.5 -77t14 -92 q0 -161 -122.5 -266.5t-334.5 -105.5q-181 0 -323 78.5t-215 207.5l-56 -311h-28z" />
<glyph unicode="T" horiz-adv-x="1495" d="M195 1204l61 338h1294l-59 -338h-29l56 309h-605l-251 -1429h288l-6 -29h-604l6 29h287l250 1429h-602l-58 -309h-28z" />
<glyph unicode="U" horiz-adv-x="1820" d="M197 1513l6 29h604l-6 -29h-287l-164 -923q-8 -44 -7 -86q0 -64 17 -124q29 -100 93.5 -171t161 -113.5t206.5 -42.5q98 0 189.5 31t162.5 84.5t128 123t93 146.5t50 156l160 919h-287l6 29h604l-6 -29h-287l-161 -923q-18 -102 -73.5 -201.5t-138 -181t-198.5 -132 t-242 -50.5q-158 0 -282 75q-124 74 -184 206q-41 91 -41 194q0 46 8 94l161 919h-286z" />
<glyph unicode="V" horiz-adv-x="1763" d="M106 1513l7 29h602l-6 -29h-310l369 -1468l883 1468h-312l7 29h604l-6 -29h-258l-912 -1513l-12 8l-14 -4l-379 1509h-263z" />
<glyph unicode="W" horiz-adv-x="2484" d="M119 1513l6 29h598l-4 -29h-313l227 -1462l717 1315l12 -6l14 2l254 -1311l742 1462h-314l6 29h602l-6 -29h-258l-766 -1511l-12 6l-14 -2l-256 1313l-717 -1317l-12 6l-15 -2l-233 1507h-258z" />
<glyph unicode="X" horiz-adv-x="1581" d="M-102 55l6 29h260l641 745l-346 684h-266l4 29h606l-6 -29h-308l334 -659l568 659h-306l7 29h604l-4 -29h-265l-589 -688l376 -741h267l-4 -29h-607l7 29h307l-365 719l-618 -719h305l-6 -29h-602z" />
<glyph unicode="Y" horiz-adv-x="1624" d="M115 1513l6 29h602l-6 -29h-309l397 -862l698 862h-307l6 29h604l-6 -29h-264l-721 -892l-96 -537h289l-7 -29h-604l6 29h287l96 539l-407 890h-264z" />
<glyph unicode="Z" horiz-adv-x="1480" d="M2 80l1473 1433h-1117l-55 -309h-29l60 338h1177v-14l11 -10l-1475 -1434h1161l56 309h28l-59 -338h-1219v13z" />
<glyph unicode="[" horiz-adv-x="741" d="M70 -451l381 2182h423l-6 -29h-393l-373 -2124h394l-7 -29h-419z" />
<glyph unicode="\" horiz-adv-x="1417" d="M307 1763h33l760 -2248h-33z" />
<glyph unicode="]" horiz-adv-x="739" d="M-147 -451l6 29h393l373 2124h-394l7 29h419l-381 -2182h-423z" />
<glyph unicode="^" horiz-adv-x="1187" d="M186 868l559 723l13 -8l12 6l305 -739l-26 -12l-295 714l-543 -700z" />
<glyph unicode="_" horiz-adv-x="1429" d="M-12 -240l6 29h1120l-6 -29h-1120z" />
<glyph unicode="`" horiz-adv-x="305" d="M-100 1618l16 24l418 -323l-17 -23z" />
<glyph unicode="a" horiz-adv-x="1263" d="M74 340q0 48 14 93.5t47.5 89.5t82.5 77t125.5 53.5t170.5 20.5q179 0 414 -74l22 117q6 44 6 80q0 17 -1 31q-4 48 -26 82.5t-51.5 58t-71.5 37.5t-86 20t-95 6q-107 0 -218 -24.5t-169 -51.5l-13 25q60 29 174.5 54.5t225.5 25.5q52 0 98.5 -7t92.5 -23t79 -42.5 t58 -64.5q25 -40 31 -92q2 -19 1 -39q0 -37 -6 -80l-115 -629h287l-4 -29h-316l23 123q-205 -143 -428 -143q-90 0 -160 27t-110.5 72t-61 97.5t-20.5 108.5zM102 340q0 -52 18 -99.5t55 -88.5t101.5 -65t149.5 -24q230 0 434 158l64 350q-238 74 -410 74q-89 0 -161 -18 t-118 -48t-76.5 -70t-43.5 -82t-13 -87z" />
<glyph unicode="b" horiz-adv-x="1488" d="M-72 55l6 29h285l260 1479h-289l7 28h315l-147 -835q73 136 206.5 218.5t288.5 82.5q197 0 333 -139t136 -336q0 -146 -77 -273t-205 -200.5t-273 -73.5q-178 0 -308 113t-157 284l-65 -377h-316zM332 510q0 -189 126.5 -318t315.5 -129q104 0 201 41t168.5 110.5 t114 166t42.5 201.5q0 188 -126 317t-314 129q-140 0 -261.5 -69t-194 -189t-72.5 -260z" />
<glyph unicode="c" horiz-adv-x="1220" d="M117 508q0 147 77.5 274.5t205.5 201t274 73.5q117 0 220.5 -55t139.5 -144l41 232h29l-53 -306l-35 -196h-29l35 196q-3 71 -53.5 127.5t-128.5 86.5t-166 30q-140 0 -261.5 -69t-194.5 -189.5t-73 -261.5q0 -189 127 -317t328 -128q215 0 412 146l18 -25 q-105 -76 -217.5 -112.5t-212.5 -36.5q-210 0 -346.5 137.5t-136.5 335.5z" />
<glyph unicode="d" horiz-adv-x="1484" d="M117 510q0 146 77.5 273t206 200.5t273.5 73.5q178 0 308.5 -117t154.5 -291l161 914h-288l6 28h315l-264 -1507h287l-6 -29h-314l49 287q-70 -137 -204.5 -222t-290.5 -85q-198 0 -334.5 138.5t-136.5 336.5zM145 510q0 -189 127 -318t316 -129q104 0 201 41 t168.5 110.5t114 166t42.5 201.5q0 188 -126 317t-314 129q-140 0 -261.5 -69t-194.5 -189t-73 -260z" />
<glyph unicode="e" horiz-adv-x="1173" d="M117 508q0 148 78 275t209.5 200.5t281.5 73.5q153 0 239.5 -71t86.5 -187q0 -104 -77 -180t-200.5 -113t-275.5 -37q-146 0 -314 35q2 -189 128.5 -315t332.5 -126q199 0 375 136l16 -23q-178 -141 -391 -141q-144 0 -256.5 64t-172.5 171.5t-60 237.5zM145 532 q160 -34 314 -34q149 0 266 34t187.5 103t70.5 164q0 103 -78.5 166t-218.5 63q-141 0 -262.5 -65t-196.5 -179.5t-82 -251.5z" />
<glyph unicode="f" horiz-adv-x="839" d="M-539 -268l29 -2q-1 -13 -1 -25q0 -53 23 -105q30 -63 101.5 -108t169.5 -45q81 0 146.5 30t108 77t76 120t52.5 142.5t35 160.5l180 1029h-285l4 28h287l23 125q11 64 24 118t33 112.5t44 104.5t58.5 88.5t75 70.5t94.5 44.5t117 16.5q82 0 148.5 -29t105 -75t56.5 -101 q15 -43 15 -87q0 -11 -1 -23l-29 4q1 13 1 25q0 53 -24 104q-29 64 -101 109t-171 45q-81 0 -146.5 -30t-108 -77.5t-76 -120t-52.5 -142.5t-35 -161l-22 -121h434l-6 -28h-432l-183 -1033q-11 -64 -24 -118t-33 -112.5t-44 -104.5t-58.5 -88.5t-75 -70.5t-94.5 -44.5 t-117 -16.5q-107 0 -185.5 49.5t-111.5 120.5q-27 56 -27 115q0 15 2 29z" />
<glyph unicode="g" horiz-adv-x="1478" d="M117 510q0 146 77.5 273t206 200.5t273.5 73.5q176 0 305.5 -114.5t157.5 -285.5l65 377h316l-7 -28h-284l-193 -1100q-10 -55 -23 -107.5t-36.5 -113.5t-52.5 -112.5t-71.5 -100.5t-93 -83.5t-119 -55.5t-146.5 -21q-76 0 -139.5 20t-105.5 52.5t-71 75t-42 85.5t-13 86 q0 80 20 125l27 -12q-18 -52 -18 -113q0 -52 19.5 -101t58 -92.5t107 -70t157.5 -26.5q102 0 186 38t137.5 95t94.5 137t61.5 150t34.5 149l73 424q-72 -134 -205 -216.5t-286 -82.5q-198 0 -334.5 138.5t-136.5 336.5zM145 510q0 -189 127 -318t316 -129q104 0 201 41 t168.5 110.5t114 166t42.5 201.5q0 188 -126 317t-314 129q-140 0 -261.5 -69t-194.5 -189t-73 -260z" />
<glyph unicode="h" horiz-adv-x="1425" d="M-70 55l7 29h282l262 1479h-288l6 28h315l-135 -766q99 107 219.5 169.5t237.5 62.5q68 0 126.5 -23.5t106 -75.5t63.5 -134q7 -39 7 -87q0 -52 -9 -114l-96 -539h287l-4 -29h-316l101 572q9 60 9 110q-1 41 -7 77q-14 76 -56.5 124t-95.5 69t-116 21q-120 0 -241 -68 t-224 -186l-123 -690h287l-5 -29h-600z" />
<glyph unicode="i" horiz-adv-x="704" d="M-37 55l6 29h285l164 922h-287l4 28h316l-168 -950h286l-6 -29h-600zM420 1432q0 30 21 50.5t51 20.5q29 0 49 -21t20 -50q0 -30 -20 -51t-49 -21q-30 0 -51 21t-21 51zM449 1432q0 -19 12 -31t31 -12q18 0 29 12.5t11 30.5q0 19 -11.5 31t-28.5 12q-20 0 -31.5 -12 t-11.5 -31z" />
<glyph unicode="j" horiz-adv-x="610" d="M-465 -322q0 59 23 121l26 -12q-20 -46 -20 -109q0 -92 61 -159.5t182 -67.5q299 0 394 502l186 1053h-289l6 28h316l-191 -1085q-13 -70 -30 -132t-51.5 -138t-77.5 -129.5t-111.5 -90.5t-151.5 -37q-68 0 -122 23t-85.5 61t-48 82t-16.5 90zM354 1432q0 30 21 50.5 t51 20.5q29 0 49.5 -21t20.5 -50t-20.5 -50.5t-49.5 -21.5q-30 0 -51 21t-21 51zM383 1432q0 -19 12 -31t31 -12q18 0 29.5 12.5t11.5 30.5q0 19 -12 31t-29 12q-20 0 -31.5 -12t-11.5 -31z" />
<glyph unicode="k" horiz-adv-x="1323" d="M-70 55l7 29h282l262 1479h-288l6 28h315l-135 -770q132 121 262 178.5t240 57.5q118 0 195 -70t77 -170q0 -125 -112.5 -231t-340.5 -168l189 -334h295l-6 -29h-306l-204 365l12 6l-4 16q230 58 339 158t109 217q0 91 -67 151t-176 60q-246 0 -510 -254l-123 -690h258 l-4 -29h-572z" />
<glyph unicode="l" horiz-adv-x="702" d="M119 1563l4 28h317l-213 -1208q-10 -49 -10 -89q-1 -22 3 -42q8 -56 26.5 -92.5t48.5 -58t57.5 -30t55.5 -8.5q44 0 83 17t89 57l18 -20q-98 -82 -190 -82q-30 0 -61.5 10t-66 34.5t-56 64.5t-31.5 100q-4 23 -4 50q0 42 10 93l209 1176h-289z" />
<glyph unicode="m" horiz-adv-x="2091" d="M-35 55l6 29h285l123 707l37 215h-287l4 28h316l-35 -203q92 104 193.5 165t199.5 61q36 0 72.5 -8.5t73.5 -27.5t67 -47t51.5 -71t28.5 -96q92 116 199.5 183t213.5 67q45 0 89 -12.5t88 -40.5t72.5 -73.5t42.5 -110.5q6 -29 6 -63q0 -41 -9 -89l-102 -584h287l-7 -29 h-313l107 617q9 46 9 86q0 30 -5 55q-12 60 -37 101t-65 66.5t-80.5 36.5t-82.5 11q-107 0 -212 -70t-197 -196q0 -47 -8 -94l-105 -584h287l-4 -29h-316l109 617q8 46 8 87q1 43 -9 81q-18 72 -61.5 111.5t-93.5 58t-104 18.5q-102 0 -205.5 -67t-198.5 -185l-118 -692h286 l-6 -29h-600z" />
<glyph unicode="n" horiz-adv-x="1460" d="M-35 55l6 29h283l166 922h-289l6 28h316l-37 -207q100 106 218.5 168t235.5 62q68 0 126.5 -23.5t106 -75.5t63.5 -134q8 -40 8 -89q0 -51 -9 -112l-96 -539h287l-4 -29h-316l101 572q10 56 10 104q0 27 -3 51q-9 67 -33 113.5t-63.5 76t-83.5 43t-94 13.5 q-120 0 -240.5 -68t-223.5 -186l-123 -690h286l-4 -29h-600z" />
<glyph unicode="o" horiz-adv-x="1302" d="M117 510q0 146 77.5 273t206 200.5t273.5 73.5q197 0 333 -139t136 -336q0 -146 -77 -273t-205 -200.5t-273 -73.5q-198 0 -334.5 138.5t-136.5 336.5zM145 510q0 -189 127 -318t316 -129q104 0 201 41t168.5 110.5t114 166t42.5 201.5q0 188 -126 317t-314 129 q-140 0 -261.5 -69t-194.5 -189t-73 -260z" />
<glyph unicode="p" horiz-adv-x="1482" d="M-176 -506l4 31h287l260 1481h-289l6 28h316l-50 -278q73 134 207.5 217.5t288.5 83.5q197 0 333 -139t136 -336q0 -146 -77 -273t-205 -200.5t-273 -73.5q-178 0 -308 113.5t-157 285.5l-160 -909h287l-6 -31h-600zM326 510q0 -189 126.5 -318t315.5 -129q104 0 201 41 t168.5 110.5t114 166t42.5 201.5q0 188 -126 317t-314 129q-140 0 -261.5 -69t-194 -189t-72.5 -260z" />
<glyph unicode="q" horiz-adv-x="1468" d="M117 510q0 146 77.5 273t206 200.5t273.5 73.5q178 0 308 -115.5t155 -288.5l67 381h316l-7 -28h-284l-262 -1481h286l-6 -31h-600l6 31h285l143 811q-71 -135 -204.5 -218t-288.5 -83q-198 0 -334.5 138.5t-136.5 336.5zM145 510q0 -189 127 -318t316 -129q104 0 201 41 t168.5 110.5t114 166t42.5 201.5q0 188 -126 317t-314 129q-140 0 -261.5 -69t-194.5 -189t-73 -260z" />
<glyph unicode="r" horiz-adv-x="1075" d="M-45 55l6 29h287l164 922h-289l6 28h315l-53 -297q30 44 66 85.5t84 85.5t103 75.5t116 52.5q58 20 124 20h6q70 -1 140 -26l-57 -323h-29l53 303q-53 18 -104 18q-10 0 -20 -1q-61 -4 -114.5 -20.5t-104 -49t-91.5 -67.5t-77.5 -77.5t-62 -78.5t-44.5 -70l-103 -580h287 l-6 -29h-602z" />
<glyph unicode="s" horiz-adv-x="1224" d="M-174 55l6 29h180l613 864q-40 67 -40 130q0 107 117 202l17 -23q-94 -79 -105 -155q-2 -11 -2 -22q0 -66 54 -140q28 -41 80 -100.5t94 -110t84 -110.5t66 -128t24 -137q0 -132 -94.5 -225.5t-225.5 -93.5q-119 0 -238 63.5t-259 194.5l-168 -238h-203zM213 315 q140 -129 253.5 -190.5t227.5 -61.5q122 0 206.5 84t84.5 207q0 79 -38.5 162.5t-85 140.5t-116 137.5t-102.5 127.5z" />
<glyph unicode="t" horiz-adv-x="933" d="M70 1006l6 28h284l78 439l33 12l-80 -451h443l-7 -28h-442l-106 -615q-7 -49 -7 -89q0 -34 5 -64q11 -62 45 -101t75 -56.5t88 -17.5q48 0 93.5 17.5t87 56t67 110.5t25.5 169h28q0 -83 -19.5 -150t-50 -109t-71 -70.5t-80.5 -40t-80 -11.5q-51 0 -97.5 19.5t-85.5 63.5 q-40 44 -54 112q-6 32 -6 71q0 43 8 94l106 611h-286z" />
<glyph unicode="u" horiz-adv-x="1413" d="M57 1006l6 28h314l-101 -571q-10 -56 -10 -104q0 -27 3 -51q9 -66 33 -113t63.5 -77t83.5 -43.5t94 -13.5q119 0 240 67.5t223 184.5l124 693h-288l6 28h315l-170 -950h287l-4 -29h-315l36 205q-100 -104 -219.5 -165.5t-234.5 -61.5q-68 0 -126.5 24t-106.5 76 q-47 53 -63 135q-8 40 -8 88q0 51 9 111l96 539h-287z" />
<glyph unicode="v" horiz-adv-x="1366" d="M39 1006l6 28h580l-7 -28h-299l250 -961l586 961h-297l4 28h582l-4 -28h-250l-615 -1006l-12 8l-14 -4l-260 1002h-250z" />
<glyph unicode="w" horiz-adv-x="1914" d="M41 1006l6 28h580l-6 -28h-302l164 -957l502 869l12 -9l15 4l196 -866l500 959h-301l4 28h582l-4 -28h-250l-525 -1006l-12 6l-14 -4l-197 868l-504 -870l-14 8l-12 -2l-170 1000h-250z" />
<glyph unicode="x" horiz-adv-x="1310" d="M-61 55l6 29h229l444 475l-260 447h-233l4 28h520l-4 -28h-254l248 -424l395 424h-250l4 28h521l-6 -28h-230l-420 -451l275 -471h235l-6 -29h-520l6 29h252l-262 448l-420 -448h250l-6 -29h-518z" />
<glyph unicode="y" horiz-adv-x="1390" d="M-299 -360l25 12q28 -66 77 -107.5t99 -56t106 -14.5q131 0 251 95.5t249 309.5l53 88l-266 1039h-252l6 28h582l-6 -28h-299l258 -1004l612 1004h-309l6 28h582l-7 -28h-237l-699 -1143q-132 -217 -259.5 -317.5t-264.5 -100.5q-43 0 -84.5 9.5t-84.5 30.5t-79 61 t-59 94z" />
<glyph unicode="z" horiz-adv-x="1208" d="M14 80l1080 926h-826l-53 -297h-29l58 325h889v-14l10 -10l-1082 -926h848l54 297h28l-57 -326h-909v13z" />
<glyph unicode="{" horiz-adv-x="665" d="M66 -207q0 49 19 106t39 96t58 105q13 22 41 69.5t41 71.5t30.5 60t24.5 65.5t7 57.5q0 78 -56 137.5t-161 63.5h-11h-32l6 28h26q72 0 133 25t101 66t62 92t22 104q0 21 -4.5 53t-9.5 57t-15 69t-14 65q-25 119 -25 188q0 52 12 101.5t39 96.5t66 82.5t98 57t131 21.5 h84l-6 -29h-78q-82 0 -145.5 -28.5t-99.5 -76.5t-54 -105t-18 -120q0 -70 24 -184q3 -15 11 -50.5t12 -55.5t9.5 -49t8 -51.5t2.5 -41.5q0 -98 -67.5 -185t-179.5 -118q75 -26 116 -86.5t41 -126.5q0 -30 -6.5 -60.5t-26.5 -72.5t-30 -61t-43.5 -76t-40.5 -68 q-56 -94 -84.5 -161t-28.5 -132q0 -93 59 -154t181 -61h63l-6 -29h-57q-133 0 -200.5 71.5t-67.5 172.5z" />
<glyph unicode="|" horiz-adv-x="561" d="M57 -539l412 2358h29l-412 -2358h-29z" />
<glyph unicode="}" horiz-adv-x="665" d="M-123 -451l6 29h78q82 0 145.5 28.5t100 76.5t54.5 105t18 120q0 65 -25 184q-3 15 -11 50.5t-12 55.5t-9.5 49t-8 51.5t-2.5 41.5q0 98 68 184.5t180 116.5q-75 26 -116.5 87.5t-41.5 127.5q0 30 7 61t26.5 71.5t30.5 62t43 75t41 68.5q55 93 83.5 160.5t28.5 132.5 q0 93 -58.5 154t-180.5 61h-64l6 29h58q133 0 200.5 -71.5t67.5 -172.5q0 -49 -19.5 -106.5t-39 -95.5t-58.5 -105q-12 -20 -40.5 -69t-41 -72t-30 -60t-24.5 -66t-7 -57q0 -79 55 -138.5t160 -62.5h12h33l-6 -28h-27h-14q-135 -4 -219 -91.5t-84 -195.5q0 -21 4.5 -53 t9.5 -57t15 -69t14 -65q24 -114 24 -188q0 -52 -12 -101.5t-39 -96.5t-66 -82.5t-98 -57t-131 -21.5h-84z" />
<glyph unicode="~" horiz-adv-x="1107" d="M211 629q7 44 22.5 84t40.5 76.5t63.5 58.5t86.5 22q49 0 86 -26.5t74 -73.5q39 -46 68 -67t71 -21q144 0 182 217l29 -6q-6 -35 -16 -67t-28 -64.5t-40.5 -56t-55.5 -38t-71 -14.5q-49 0 -86 26.5t-76 74.5q-36 45 -65.5 66.5t-71.5 21.5q-54 0 -94.5 -34t-60 -79.5 t-29.5 -103.5z" />
<glyph unicode="&#xa1;" horiz-adv-x="593" d="M168 0l207 1174h28l-206 -1174h-29zM379 1499q0 30 21 51t51 21q29 0 49 -21t20 -51t-20 -51t-49 -21q-30 0 -51 21t-21 51zM408 1499q0 -19 12 -31t31 -12q18 0 29.5 12.5t11.5 30.5q0 19 -12 31t-29 12q-20 0 -31.5 -12t-11.5 -31z" />
<glyph unicode="&#xa2;" horiz-adv-x="1236" d="M162 590q0 107 45 207t120 172t176 115.5t208 43.5h24l43 246h29l-45 -250q106 -10 188.5 -61t118.5 -136.5t-8 -199.5l-27 10q39 102 6 179.5t-109 124.5t-173 57l-168 -948h35q200 0 379 141l16 -23q-189 -147 -395 -147q-27 0 -39 2l-43 -246h-29l43 248 q-171 25 -283 156.5t-112 308.5zM190 590q0 -169 105 -291.5t268 -144.5l166 946h-18q-103 0 -199 -40.5t-166.5 -108.5t-113 -163t-42.5 -198z" />
<glyph unicode="&#xa3;" horiz-adv-x="1337" d="M8 59q159 63 231 110q176 115 214 328q12 65 12 140v27h-264l6 28h256q-3 63 -19 204t-16 200q0 90 25 171.5t73.5 148t128.5 106t181 39.5q84 0 150.5 -27.5t106.5 -74t60.5 -104t20.5 -122.5h-29q0 130 -77.5 214.5t-231.5 84.5q-76 0 -139.5 -24t-107.5 -65t-74 -96.5 t-44 -118.5t-14 -132q0 -55 16 -196.5t19 -207.5h475l-6 -28h-467v-27q0 -102 -19.5 -184.5t-56 -142.5t-80 -102t-100.5 -77q88 3 200.5 -18.5t218 -45.5t170.5 -24q169 0 263 152l26 -15q-18 -29 -41 -54.5t-58 -52.5t-84 -43t-106 -16q-60 0 -150 18t-165 37t-171 30 t-167 -3q-47 -25 -156 -65z" />
<glyph unicode="&#xa5;" horiz-adv-x="1851" d="M225 1513l6 29h603l-7 -29h-309l397 -862l699 862h-307l6 29h604l-6 -29h-264l-547 -677h327l-6 -29h-346l-149 -186l-27 -146h467l-6 -29h-465l-66 -362h289l-6 -29h-604l6 29h287l63 362h-463l7 29h462l27 148l-84 184h-350l6 29h330l-310 677h-264z" />
<glyph unicode="&#xa6;" horiz-adv-x="573" d="M61 -539l183 1037h28l-182 -1037h-29zM293 782l182 1037h29l-182 -1037h-29z" />
<glyph unicode="&#xa7;" horiz-adv-x="1079" d="M154 338l28 -6q-14 -82 7 -145t68.5 -99.5t107 -55t127.5 -18.5q127 0 199.5 64t72.5 160q0 48 -19 87t-58 71t-77 54t-98 50q-2 1 -32.5 13.5t-39 16.5t-38.5 18t-42 22.5t-38 25t-38 30t-30 34t-26 40.5t-14.5 45t-6.5 52q0 103 90 178t240 88q-100 50 -155.5 108.5 t-55.5 147.5q0 106 82.5 180t218.5 74q71 0 136 -21t117 -61.5t76 -110.5t9 -159l-29 4q14 82 -7 145t-68 100t-106.5 55.5t-127.5 18.5q-127 0 -200 -64.5t-73 -160.5q0 -48 19 -87t58.5 -70.5t77.5 -53t99 -49.5l40.5 -18t49 -22t49 -25t50.5 -31.5t43.5 -37.5t38 -45.5 t23 -53.5t9.5 -64q0 -104 -90 -179t-239 -87q100 -52 155.5 -111.5t55.5 -146.5q0 -105 -82.5 -178.5t-218.5 -73.5q-71 0 -136 20.5t-117 61t-76 110.5t-9 160zM236 797q0 -30 9 -57t21 -48t34.5 -41.5t40.5 -33.5t48 -29.5t46.5 -24t47.5 -21t41 -18.5l4 -2 q160 0 257.5 69.5t97.5 170.5q0 39 -15.5 74t-36 58t-56.5 47.5t-60 36.5t-65 31t-54 25l-4 2q-161 0 -258.5 -69t-97.5 -170z" />
<glyph unicode="&#xa8;" horiz-adv-x="544" d="M-76 1413q0 29 20.5 50.5t49.5 21.5q30 0 51 -21t21 -51t-21 -51t-51 -21q-29 0 -49.5 21.5t-20.5 50.5zM-47 1413q0 -19 12 -31t29 -12q20 0 31.5 12t11.5 31t-12 31t-31 12q-18 0 -29.5 -12.5t-11.5 -30.5zM346 1413q0 29 21.5 50.5t50.5 21.5t50 -21.5t21 -50.5 t-21 -50.5t-50 -21.5t-50.5 21.5t-21.5 50.5zM375 1413q0 -18 12.5 -30.5t30.5 -12.5q19 0 31 12t12 31t-12 31t-31 12q-18 0 -30.5 -12.5t-12.5 -30.5z" />
<glyph unicode="&#xa9;" horiz-adv-x="1853" d="M197 745q0 161 67 310t178 257t261.5 173t310.5 65q193 0 352.5 -93.5t249.5 -253.5t90 -351q0 -161 -67.5 -310t-179 -257t-262 -173t-310.5 -65q-193 0 -352 93.5t-248.5 253.5t-89.5 351zM225 745q0 -185 85.5 -338.5t237.5 -242t339 -88.5q156 0 301 62t252.5 166 t172 248t64.5 300q0 185 -85.5 338.5t-238 242.5t-339.5 89q-156 0 -301 -62t-252 -166t-171.5 -248.5t-64.5 -300.5zM598 772q0 103 56 193.5t147.5 143t193.5 52.5q81 0 150 -36t98 -97l31 174h29l-64 -364h-29l21 125q-3 75 -71.5 122.5t-164.5 47.5q-148 0 -258 -106.5 t-110 -254.5q0 -130 88 -219.5t219 -89.5q72 0 132.5 22t127.5 74l16 -22q-134 -103 -276 -103q-140 0 -238 99.5t-98 238.5z" />
<glyph unicode="&#xaa;" horiz-adv-x="1064" d="M256 1245q0 128 95.5 222t223.5 94q94 0 165 -55.5t96 -143.5l32 186h199l-6 -28h-168l-90 -504h168l-4 -29h-197l23 127q-44 -65 -116 -103t-151 -38q-115 0 -192.5 78.5t-77.5 193.5zM285 1245q0 -105 68 -174.5t173 -69.5q119 0 205 83t86 202q0 105 -68.5 175.5 t-173.5 70.5q-119 0 -204.5 -84t-85.5 -203z" />
<glyph unicode="&#xab;" horiz-adv-x="1220" d="M147 629l13 8l-10 10l458 412l19 -23l-449 -401l309 -402l-24 -16zM647 629l12 8l-10 10l459 412l18 -23l-448 -401l309 -402l-24 -16z" />
<glyph unicode="&#xad;" horiz-adv-x="817" d="M139 623l6 28h519l-7 -28h-518z" />
<glyph unicode="&#xae;" horiz-adv-x="1265" d="M231 1081q0 101 43 195.5t113.5 162.5t166 109t196.5 41q121 0 221.5 -59.5t157.5 -161t57 -221.5q0 -135 -72 -252.5t-191.5 -186.5t-254.5 -69q-184 0 -310.5 129t-126.5 313zM260 1081q0 -174 117 -293.5t291 -119.5q129 0 242 64t180 175t67 240q0 174 -116.5 294 t-290.5 120q-129 0 -242 -64.5t-180.5 -175.5t-67.5 -240zM444 907l7 29h96l65 379h-98l6 28h293q51 0 87 -33.5t36 -82.5q0 -55 -48 -98.5t-116 -43.5h-10l59 -149h109l-6 -29h-217l6 29h78l-62 149h-127l-27 -149h93l-6 -29h-218zM608 1114h164q58 0 96.5 33.5t38.5 79.5 q0 39 -26 63.5t-68 24.5h-170z" />
<glyph unicode="&#xaf;" horiz-adv-x="800" d="M74 1354l6 28h643l-6 -28h-643z" />
<glyph unicode="&#xb0;" horiz-adv-x="894" d="M262 1255q0 117 83 201t200 84q116 0 200 -84t84 -201q0 -116 -84 -199t-200 -83q-117 0 -200 82.5t-83 199.5zM291 1255q0 -107 73.5 -180.5t180.5 -73.5q106 0 181 73.5t75 180.5t-75 181.5t-181 74.5q-107 0 -180.5 -74.5t-73.5 -181.5z" />
<glyph unicode="&#xb1;" horiz-adv-x="1216" d="M68 106l6 29h897l-6 -29h-897zM186 760l7 28h430l75 433h29l-76 -433h434l-4 -28h-434l-76 -434h-28l75 434h-432z" />
<glyph unicode="&#xb2;" horiz-adv-x="851" d="M119 670q15 86 51 154.5t89.5 118t100 80t111.5 64.5q19 9 57.5 28t58.5 29.5t53 29t51.5 32.5t41 35t34 41t20 46.5t8.5 55.5q0 90 -64.5 143.5t-165.5 53.5q-51 0 -98 -15t-87.5 -45.5t-62.5 -85t-18 -126.5h-29q-4 78 21.5 138t70.5 94.5t97 51.5t106 17 q108 0 183 -63.5t75 -162.5q0 -33 -9 -62t-22 -51.5t-37 -46t-43.5 -38.5t-54 -34.5t-56 -30t-60.5 -29.5t-58 -29q-61 -32 -102 -58.5t-90.5 -69.5t-83.5 -100t-51 -128q57 41 143 41q52 0 127 -23q9 -2 31.5 -8.5t34 -9.5t30 -6t35.5 -3q94 0 143.5 71t18.5 183l29 9 q34 -126 -25 -208.5t-166 -82.5q-41 0 -139 26q-75 23 -119 23q-54 0 -89 -16t-67 -46l-10 11z" />
<glyph unicode="&#xb3;" horiz-adv-x="825" d="M86 731l18 23q143 -109 304 -109q133 0 218 69t85 183q0 105 -86 172.5t-267 71.5h-20l6 28q117 0 202.5 20.5t131 55.5t66 73.5t20.5 82.5q0 73 -57 126.5t-158 53.5q-103 0 -168.5 -57.5t-75.5 -161.5l-29 4q10 113 86 178.5t187 65.5t177.5 -64t66.5 -145 q0 -86 -68.5 -154t-222.5 -94q120 -28 178.5 -96t58.5 -160q0 -124 -96 -202.5t-235 -78.5q-165 0 -322 115z" />
<glyph unicode="&#xb4;" horiz-adv-x="403" d="M-63 1327l530 322l14 -27l-528 -319z" />
<glyph unicode="&#xb5;" horiz-adv-x="1548" d="M135 1006l4 28h316l-111 -628q-8 -91 11.5 -160.5t60 -108t90 -57.5t106.5 -19q130 0 261 110.5t241 313.5l94 521h-288l6 28h315l-100 -559l-70 -391h289l-6 -29h-316l62 348q-107 -176 -235 -273t-253 -97q-105 0 -186.5 60t-103.5 179l-142 -804h-28l270 1538h-287z " />
<glyph unicode="&#xb6;" horiz-adv-x="1562" d="M213 1020q0 101 46.5 197.5t121.5 167.5t174.5 114t202.5 43h841l-6 -29h-284l-254 -1429h288l-6 -29h-999l6 29h287l96 543h-127q-167 0 -277 113.5t-110 279.5zM242 1020q0 -157 100 -261t258 -104h131l152 858h-125q-131 0 -250.5 -67.5t-192.5 -182t-73 -243.5z M659 84h367l252 1429h-365z" />
<glyph unicode="&#xb7;" horiz-adv-x="538" d="M197 659q0 30 20.5 51t50.5 21q29 0 49.5 -21.5t20.5 -50.5t-20.5 -50t-49.5 -21q-30 0 -50.5 20.5t-20.5 50.5zM225 659q0 -19 12 -31t31 -12q18 0 29.5 12.5t11.5 30.5q0 19 -12 31t-29 12q-20 0 -31.5 -12t-11.5 -31z" />
<glyph unicode="&#xb8;" horiz-adv-x="589" d="M195 -500l12 27q14 -6 40 -15t102.5 -24.5t150.5 -15.5q107 0 166 50.5t59 135.5q0 78 -65 132.5t-193 72.5l2 14l-14 2l32 178l29 -6l-31 -162q128 -20 198.5 -83t70.5 -148q0 -94 -69 -154.5t-185 -60.5q-76 0 -152 14.5t-114 28.5z" />
<glyph unicode="&#xb9;" horiz-adv-x="565" d="M123 719l6 29h174l146 833l-193 -70l-8 29l215 78l4 -14l14 -2l-149 -854h172l-6 -29h-375z" />
<glyph unicode="&#xba;" horiz-adv-x="897" d="M256 1245q0 128 95.5 222t223.5 94q115 0 193 -80t78 -195q0 -128 -95.5 -220.5t-224.5 -92.5q-115 0 -192.5 78.5t-77.5 193.5zM285 1245q0 -105 68 -174.5t173 -69.5q119 0 205 83t86 202q0 105 -68.5 175.5t-173.5 70.5q-119 0 -204.5 -84t-85.5 -203z" />
<glyph unicode="&#xbb;" horiz-adv-x="1222" d="M88 244l449 401l-310 402l25 16l315 -412l-12 -8l10 -10l-459 -412zM588 244l448 401l-309 402l25 16l315 -412l-12 -8l10 -10l-459 -412z" />
<glyph unicode="&#xbc;" horiz-adv-x="1968" d="M158 719l6 29h174l145 833l-192 -70l-8 29l215 78l4 -14l14 -2l-149 -854h172l-7 -29h-374zM248 0l1274 1597h34l-1273 -1597h-35zM1006 319l2 3l651 757l20 -20l-600 -699q73 29 144 29q65 0 172 -20.5t145 -24.5l62 332h28l-61 -334h33q60 0 100 16t80 54l20 -21 q-81 -78 -200 -78h-37l-43 -235h172l-4 -29h-375l6 29h172l43 237q-36 4 -142.5 24.5t-170.5 20.5q-111 0 -199 -63l-8 12z" />
<glyph unicode="&#xbd;" horiz-adv-x="1945" d="M139 719l6 29h174l146 833l-193 -70l-8 29l215 78l4 -14l15 -2l-150 -854h172l-6 -29h-375zM240 0l1273 1597h35l-1274 -1597h-34zM1079 12q12 69 40 128.5t60.5 100.5t79.5 79t84.5 61t88.5 49q18 9 57 28t59 29t53 29t51 33t41 35t34 41t19.5 46.5t8.5 55.5 q0 90 -64 143.5t-165 53.5q-51 0 -98 -15t-87.5 -45.5t-62.5 -85.5t-18 -127h-29q-4 78 21.5 138t70.5 94.5t97 51.5t106 17q108 0 183 -63t75 -162q0 -33 -9 -62t-22 -51.5t-37 -46t-43.5 -38.5t-54 -34.5t-56 -30t-60.5 -29.5t-58 -29q-48 -25 -81.5 -45t-76.5 -53 t-72.5 -67.5t-56.5 -84.5t-41 -107q57 41 144 41q54 0 126 -22q8 -2 31.5 -9t35 -9.5t30 -5.5t35.5 -3q94 0 143 71t18 183l29 8q34 -126 -24.5 -208.5t-165.5 -82.5q-39 0 -140 27q-72 22 -118 22q-92 0 -156 -61l-10 10z" />
<glyph unicode="&#xbe;" horiz-adv-x="2228" d="M141 731l19 23q143 -109 303 -109q133 0 218 69t85 183q0 105 -85.5 172.5t-266.5 71.5h-21l6 28q117 0 202.5 20.5t131 55.5t66 73.5t20.5 82.5q0 73 -57 126.5t-158 53.5q-103 0 -168.5 -57.5t-75.5 -161.5l-28 4q10 113 85.5 178.5t186.5 65.5t177.5 -64t66.5 -145 q0 -86 -68.5 -154t-222.5 -94q120 -28 179 -96t59 -160q0 -124 -96.5 -202.5t-235.5 -78.5q-165 0 -322 115zM508 0l1274 1597h35l-1274 -1597h-35zM1266 319l2 3l651 757l20 -20l-600 -699q73 29 144 29q65 0 172 -20.5t145 -24.5l62 332h28l-61 -334h33q60 0 100 16t80 54 l20 -21q-81 -78 -200 -78h-37l-43 -235h172l-4 -29h-375l6 29h172l43 237q-36 4 -142.5 24.5t-170.5 20.5q-111 0 -199 -63l-8 12z" />
<glyph unicode="&#xbf;" horiz-adv-x="1038" d="M88 324q0 50 12.5 95t39.5 83t54.5 68t71.5 61.5t77 52t83 49.5q146 84 196 125q109 91 89 197l-13 59l29 4l12 -59q9 -46 -3.5 -88.5t-35.5 -73.5t-66 -64.5t-79.5 -56t-91.5 -54.5q-15 -9 -23 -13q-60 -35 -97 -58.5t-85 -62t-75 -74.5t-46.5 -85.5t-19.5 -104.5 q0 -117 82 -194t219 -77q152 0 264 98t125 252l29 -2q-13 -164 -135.5 -270t-282.5 -106q-146 0 -238 86.5t-92 212.5zM690 1499q0 30 21 51t51 21q29 0 49 -21t20 -51t-20 -51t-49 -21q-30 0 -51 21t-21 51zM719 1499q0 -19 12 -31t31 -12q18 0 29.5 12.5t11.5 30.5 q0 19 -12 31t-29 12q-20 0 -31.5 -12t-11.5 -31z" />
<glyph unicode="&#xc0;" d="M-141 55l6 29h260l911 1511l13 -8l14 4l377 -1507h264l-6 -29h-604l6 29h309l-115 459h-860l-276 -459h311l-6 -29h-604zM453 571h835l-246 977zM883 2077l16 24l418 -323l-17 -23z" />
<glyph unicode="&#xc1;" d="M-141 55l6 29h260l911 1511l13 -8l14 4l377 -1507h264l-6 -29h-604l6 29h309l-115 459h-860l-276 -459h311l-6 -29h-604zM453 571h835l-246 977zM827 1786l531 321l14 -26l-528 -320z" />
<glyph unicode="&#xc2;" d="M-141 55l6 29h260l911 1511l13 -8l14 4l377 -1507h264l-6 -29h-604l6 29h309l-115 459h-860l-276 -459h311l-6 -29h-604zM453 571h835l-246 977zM756 1804l364 234l281 -236l-17 -20l-268 219l-344 -221z" />
<glyph unicode="&#xc3;" d="M-141 55l6 29h260l911 1511l13 -8l14 4l377 -1507h264l-6 -29h-604l6 29h309l-115 459h-860l-276 -459h311l-6 -29h-604zM453 571h835l-246 977zM735 1763q7 44 22.5 84.5t40.5 77t63.5 58.5t86.5 22q49 0 86 -26.5t74 -73.5q39 -46 68 -67t71 -21t75 18.5t54 51.5 t34 68.5t20 78.5l28 -6q-6 -35 -16 -67t-28 -64.5t-40.5 -56t-55.5 -38t-71 -14.5q-49 0 -86 26t-76 74q-36 45 -65.5 66.5t-71.5 21.5q-54 0 -94.5 -34t-60 -79.5t-29.5 -103.5z" />
<glyph unicode="&#xc4;" d="M-141 55l6 29h260l911 1511l13 -8l14 4l377 -1507h264l-6 -29h-604l6 29h309l-115 459h-860l-276 -459h311l-6 -29h-604zM453 571h835l-246 977zM811 1872q0 29 20.5 50.5t49.5 21.5q30 0 50.5 -21t20.5 -51t-20.5 -51t-50.5 -21q-29 0 -49.5 21.5t-20.5 50.5zM840 1872 q0 -19 12 -31t29 -12q20 0 31.5 12t11.5 31t-12 31t-31 12q-18 0 -29.5 -12.5t-11.5 -30.5zM1233 1872q0 29 21.5 50.5t50.5 21.5t50 -21.5t21 -50.5t-21 -50.5t-50 -21.5t-50.5 21.5t-21.5 50.5zM1262 1872q0 -18 12.5 -30.5t30.5 -12.5q19 0 31 12t12 31t-12 31t-31 12 q-18 0 -30.5 -12.5t-12.5 -30.5z" />
<glyph unicode="&#xc5;" d="M-141 55l6 29h260l907 1505q-63 13 -104 65t-41 118q0 77 55 132.5t131 55.5t131.5 -55.5t55.5 -132.5q0 -75 -55.5 -131t-131.5 -56h-10l377 -1501h264l-6 -29h-604l6 29h309l-115 459h-860l-276 -459h311l-6 -29h-604zM453 571h835l-246 977zM915 1772q0 -66 46 -112 t112 -46t112 46t46 112q0 67 -46 113t-112 46t-112 -46t-46 -113z" />
<glyph unicode="&#xc6;" horiz-adv-x="2447" d="M-145 55l6 29h260l1263 1429h-251l6 29h1292l-59 -338h-29l55 309h-889l-120 -684h702l-6 -28h-703l-127 -717h914l55 307h29l-60 -336h-1259l6 29h287l82 469h-736l-415 -469h305l-6 -29h-602zM598 582h717l164 931h-56z" />
<glyph unicode="&#xc7;" horiz-adv-x="1675" d="M166 743q0 166 69 319.5t183 265t269.5 178.5t320.5 67q192 0 347 -90.5t197 -237.5l64 352h29l-121 -682h-29l43 246q-4 113 -79 201.5t-193.5 135t-257.5 46.5q-161 0 -310.5 -64t-260 -171.5t-176.5 -256t-66 -309.5q0 -190 88 -348t245 -250t349 -92q161 0 302 51.5 t275 169.5l19 -22q-142 -120 -287.5 -173.5t-308.5 -53.5q-53 0 -105 6l-29 -160q128 -20 198.5 -83t70.5 -148q0 -94 -69 -154.5t-185 -60.5q-76 0 -152 14.5t-114 28.5l-39 14l12 26q14 -6 40 -15t102.5 -24.5t150.5 -15.5q107 0 166 51t59 136q0 78 -65 132t-193 72l2 15 l-14 2l32 174q-254 46 -416.5 244.5t-162.5 463.5z" />
<glyph unicode="&#xc8;" horiz-adv-x="1495" d="M-14 55l6 29h287l249 1429h-286l4 29h1237l-62 -338h-28l57 309h-891l-121 -684h703l-6 -28h-701l-127 -717h910l55 309h28l-59 -338h-1255zM793 2075l16 24l418 -323l-17 -23z" />
<glyph unicode="&#xc9;" horiz-adv-x="1495" d="M-14 55l6 29h287l249 1429h-286l4 29h1237l-62 -338h-28l57 309h-891l-121 -684h703l-6 -28h-701l-127 -717h910l55 309h28l-59 -338h-1255zM737 1786l531 321l14 -26l-528 -320z" />
<glyph unicode="&#xca;" horiz-adv-x="1495" d="M-14 55l6 29h287l249 1429h-286l4 29h1237l-62 -338h-28l57 309h-891l-121 -684h703l-6 -28h-701l-127 -717h910l55 309h28l-59 -338h-1255zM666 1804l364 234l281 -236l-17 -20l-268 219l-344 -221z" />
<glyph unicode="&#xcb;" horiz-adv-x="1495" d="M-14 55l6 29h287l249 1429h-286l4 29h1237l-62 -338h-28l57 309h-891l-121 -684h703l-6 -28h-701l-127 -717h910l55 309h28l-59 -338h-1255zM719 1872q0 30 20 51t49 21q30 0 51 -21t21 -51t-21 -51t-51 -21q-29 0 -49 21t-20 51zM748 1872q0 -19 11.5 -31t28.5 -12 q20 0 31.5 12t11.5 31t-12 31t-31 12q-18 0 -29 -12.5t-11 -30.5zM1141 1872q0 29 21 50.5t50 21.5t50.5 -21.5t21.5 -50.5t-21.5 -50.5t-50.5 -21.5t-50 21.5t-21 50.5zM1169 1872q0 -18 12.5 -30.5t30.5 -12.5q19 0 31 12t12 31t-12 31t-31 12q-18 0 -30.5 -12.5 t-12.5 -30.5z" />
<glyph unicode="&#xcc;" horiz-adv-x="788" d="M-14 55l6 29h287l247 1429h-286l6 29h604l-6 -29h-287l-250 -1429h289l-6 -29h-604zM397 2077l17 24l417 -323l-16 -23z" />
<glyph unicode="&#xcd;" horiz-adv-x="788" d="M-14 55l6 29h287l247 1429h-286l6 29h604l-6 -29h-287l-250 -1429h289l-6 -29h-604zM342 1786l530 321l15 -26l-529 -320z" />
<glyph unicode="&#xce;" horiz-adv-x="788" d="M-14 55l6 29h287l247 1429h-286l6 29h604l-6 -29h-287l-250 -1429h289l-6 -29h-604zM268 1804l365 234l280 -236l-16 -20l-268 219l-344 -221z" />
<glyph unicode="&#xcf;" horiz-adv-x="788" d="M-14 55l6 29h287l247 1429h-286l6 29h604l-6 -29h-287l-250 -1429h289l-6 -29h-604zM324 1872q0 30 20 51t49 21q30 0 51 -21t21 -51t-21 -51t-51 -21q-29 0 -49 21t-20 51zM352 1872q0 -19 12 -31t29 -12q20 0 31.5 12t11.5 31t-12 31t-31 12q-18 0 -29.5 -12.5 t-11.5 -30.5zM745 1872q0 29 21.5 50.5t50.5 21.5t50.5 -21.5t21.5 -50.5t-21.5 -50.5t-50.5 -21.5t-50.5 21.5t-21.5 50.5zM774 1872q0 -18 12.5 -30.5t30.5 -12.5q19 0 31 12t12 31t-12 31t-31 12q-18 0 -30.5 -12.5t-12.5 -30.5z" />
<glyph unicode="&#xd0;" horiz-adv-x="1753" d="M-12 55l6 29h287l125 719h-271l6 28h271l118 682h-286l4 29h739q190 0 336 -70t230.5 -209.5t84.5 -330.5q0 -180 -62.5 -340.5t-172.5 -279t-270.5 -188t-346.5 -69.5h-798zM309 84h477q146 0 275.5 42.5t229 120.5t172 183t110 233.5t37.5 268.5q0 185 -79.5 317.5 t-219 198t-324.5 65.5h-426l-121 -682h355l-7 -28h-352z" />
<glyph unicode="&#xd1;" horiz-adv-x="1873" d="M-16 55l6 29h286l250 1429h-288l6 29h309l831 -1491l256 1462h-288l6 29h606l-6 -29h-287l-264 -1505l-14 2l-13 -6l-829 1481l-246 -1401h289l-6 -29h-604zM805 1763q7 44 22.5 84.5t40.5 77t63.5 58.5t86.5 22q49 0 86 -26.5t74 -73.5q39 -46 68 -67t71 -21 q144 0 182 217l29 -6q-6 -35 -16 -67t-28 -64.5t-40.5 -56t-55.5 -38t-71 -14.5q-49 0 -86 26t-76 74q-36 45 -65.5 66.5t-71.5 21.5q-54 0 -94.5 -34t-60 -79.5t-29.5 -103.5z" />
<glyph unicode="&#xd2;" horiz-adv-x="1837" d="M166 743q0 166 69 320t183 265.5t269.5 178t320.5 66.5q148 0 280.5 -57t226.5 -153.5t148.5 -229t54.5 -279.5q0 -166 -69 -320t-183.5 -265t-269.5 -177.5t-319 -66.5q-148 0 -280.5 56.5t-226.5 153t-149 229t-55 279.5zM195 743q0 -190 88 -348t245 -250t349 -92 q160 0 309.5 64t260 171t177 256t66.5 310q0 190 -88 348t-245 250t-349 92q-161 0 -310.5 -64t-260 -171t-176.5 -255.5t-66 -310.5zM924 2077l16 24l418 -323l-17 -23z" />
<glyph unicode="&#xd3;" horiz-adv-x="1837" d="M166 743q0 166 69 320t183 265.5t269.5 178t320.5 66.5q148 0 280.5 -57t226.5 -153.5t148.5 -229t54.5 -279.5q0 -166 -69 -320t-183.5 -265t-269.5 -177.5t-319 -66.5q-148 0 -280.5 56.5t-226.5 153t-149 229t-55 279.5zM195 743q0 -190 88 -348t245 -250t349 -92 q160 0 309.5 64t260 171t177 256t66.5 310q0 190 -88 348t-245 250t-349 92q-161 0 -310.5 -64t-260 -171t-176.5 -255.5t-66 -310.5zM868 1786l531 321l14 -26l-528 -320z" />
<glyph unicode="&#xd4;" horiz-adv-x="1837" d="M166 743q0 166 69 320t183 265.5t269.5 178t320.5 66.5q148 0 280.5 -57t226.5 -153.5t148.5 -229t54.5 -279.5q0 -166 -69 -320t-183.5 -265t-269.5 -177.5t-319 -66.5q-148 0 -280.5 56.5t-226.5 153t-149 229t-55 279.5zM195 743q0 -190 88 -348t245 -250t349 -92 q160 0 309.5 64t260 171t177 256t66.5 310q0 190 -88 348t-245 250t-349 92q-161 0 -310.5 -64t-260 -171t-176.5 -255.5t-66 -310.5zM797 1804l364 234l281 -236l-17 -20l-268 219l-344 -221z" />
<glyph unicode="&#xd5;" horiz-adv-x="1837" d="M166 743q0 166 69 320t183 265.5t269.5 178t320.5 66.5q148 0 280.5 -57t226.5 -153.5t148.5 -229t54.5 -279.5q0 -166 -69 -320t-183.5 -265t-269.5 -177.5t-319 -66.5q-148 0 -280.5 56.5t-226.5 153t-149 229t-55 279.5zM195 743q0 -190 88 -348t245 -250t349 -92 q160 0 309.5 64t260 171t177 256t66.5 310q0 190 -88 348t-245 250t-349 92q-161 0 -310.5 -64t-260 -171t-176.5 -255.5t-66 -310.5zM774 1767q7 44 22.5 84.5t40.5 77t63.5 58.5t86.5 22q49 0 86 -26.5t74 -73.5q39 -46 68 -67t71 -21q144 0 182 217l29 -6q-6 -35 -16 -67 t-28 -64.5t-40.5 -56t-55.5 -38t-71 -14.5q-49 0 -86 26t-76 74q-36 45 -65.5 66.5t-71.5 21.5q-54 0 -94.5 -34t-60 -79.5t-29.5 -103.5z" />
<glyph unicode="&#xd6;" horiz-adv-x="1837" d="M166 743q0 166 69 320t183 265.5t269.5 178t320.5 66.5q148 0 280.5 -57t226.5 -153.5t148.5 -229t54.5 -279.5q0 -166 -69 -320t-183.5 -265t-269.5 -177.5t-319 -66.5q-148 0 -280.5 56.5t-226.5 153t-149 229t-55 279.5zM195 743q0 -190 88 -348t245 -250t349 -92 q160 0 309.5 64t260 171t177 256t66.5 310q0 190 -88 348t-245 250t-349 92q-161 0 -310.5 -64t-260 -171t-176.5 -255.5t-66 -310.5zM850 1872q0 29 20.5 50.5t49.5 21.5q30 0 50.5 -21t20.5 -51t-20.5 -51t-50.5 -21q-29 0 -49.5 21.5t-20.5 50.5zM879 1872q0 -19 12 -31 t29 -12q20 0 31.5 12t11.5 31t-12 31t-31 12q-18 0 -29.5 -12.5t-11.5 -30.5zM1272 1872q0 29 21 50.5t50 21.5t50.5 -21.5t21.5 -50.5t-21.5 -50.5t-50.5 -21.5t-50 21.5t-21 50.5zM1300 1872q0 -18 12.5 -30.5t30.5 -12.5q19 0 31 12t12 31t-12 31t-31 12 q-18 0 -30.5 -12.5t-12.5 -30.5z" />
<glyph unicode="&#xd7;" horiz-adv-x="1134" d="M123 381l436 369l-303 366l20 19l304 -367l436 369l18 -21l-436 -371l305 -366l-20 -19l-305 369l-437 -369z" />
<glyph unicode="&#xd8;" horiz-adv-x="1837" d="M166 743q0 166 69 320t183 265.5t269.5 178t320.5 66.5q243 0 434 -148l141 172h37l-156 -188q119 -102 186.5 -246t67.5 -309q0 -166 -69 -320t-183.5 -265t-269.5 -177.5t-319 -66.5q-247 0 -435 145l-141 -170h-35l154 186q-120 101 -187 245.5t-67 311.5zM195 743 q0 -161 64 -300t179 -234l985 1196q-178 139 -415 139q-161 0 -310.5 -64t-260 -171t-176.5 -255.5t-66 -310.5zM459 190q183 -137 418 -137q160 0 309.5 64t260 171t177 256t66.5 310t-64.5 299t-179.5 233z" />
<glyph unicode="&#xd9;" horiz-adv-x="1820" d="M197 1513l6 29h604l-6 -29h-287l-164 -923q-19 -110 10 -210t93.5 -171t161 -113.5t206.5 -42.5q98 0 189.5 31t162.5 84.5t128 123t93 146.5t50 156l160 919h-287l6 29h604l-6 -29h-287l-161 -923q-18 -102 -73.5 -201.5t-138 -181t-198.5 -132t-242 -50.5 q-158 0 -282 75t-184 206.5t-33 287.5l161 919h-286zM913 2077l17 24l418 -323l-17 -23z" />
<glyph unicode="&#xda;" horiz-adv-x="1820" d="M197 1513l6 29h604l-6 -29h-287l-164 -923q-19 -110 10 -210t93.5 -171t161 -113.5t206.5 -42.5q98 0 189.5 31t162.5 84.5t128 123t93 146.5t50 156l160 919h-287l6 29h604l-6 -29h-287l-161 -923q-18 -102 -73.5 -201.5t-138 -181t-198.5 -132t-242 -50.5 q-158 0 -282 75t-184 206.5t-33 287.5l161 919h-286zM858 1786l531 321l14 -26l-529 -320z" />
<glyph unicode="&#xdb;" horiz-adv-x="1820" d="M197 1513l6 29h604l-6 -29h-287l-164 -923q-19 -110 10 -210t93.5 -171t161 -113.5t206.5 -42.5q98 0 189.5 31t162.5 84.5t128 123t93 146.5t50 156l160 919h-287l6 29h604l-6 -29h-287l-161 -923q-18 -102 -73.5 -201.5t-138 -181t-198.5 -132t-242 -50.5 q-158 0 -282 75t-184 206.5t-33 287.5l161 919h-286zM784 1804l365 234l281 -236l-17 -20l-268 219l-344 -221z" />
<glyph unicode="&#xdc;" horiz-adv-x="1820" d="M197 1513l6 29h604l-6 -29h-287l-164 -923q-19 -110 10 -210t93.5 -171t161 -113.5t206.5 -42.5q98 0 189.5 31t162.5 84.5t128 123t93 146.5t50 156l160 919h-287l6 29h604l-6 -29h-287l-161 -923q-18 -102 -73.5 -201.5t-138 -181t-198.5 -132t-242 -50.5 q-158 0 -282 75t-184 206.5t-33 287.5l161 919h-286zM840 1872q0 30 20 51t49 21q30 0 51 -21t21 -51t-21 -51t-51 -21q-29 0 -49 21t-20 51zM868 1872q0 -19 12 -31t29 -12q20 0 31.5 12t11.5 31t-12 31t-31 12q-18 0 -29.5 -12.5t-11.5 -30.5zM1262 1872q0 29 21 50.5 t50 21.5t50.5 -21.5t21.5 -50.5t-21.5 -50.5t-50.5 -21.5t-50 21.5t-21 50.5zM1290 1872q0 -18 12.5 -30.5t30.5 -12.5q19 0 31 12t12 31t-12 31t-31 12q-18 0 -30.5 -12.5t-12.5 -30.5z" />
<glyph unicode="&#xdd;" horiz-adv-x="1624" d="M115 1513l6 29h602l-6 -29h-309l397 -862l698 862h-307l6 29h604l-6 -29h-264l-721 -892l-96 -537h289l-7 -29h-604l6 29h287l96 539l-407 890h-264zM756 1786l530 321l14 -26l-528 -320z" />
<glyph unicode="&#xde;" horiz-adv-x="1622" d="M-14 55l6 29h287l249 1429h-286l4 29h606l-6 -29h-287l-49 -274h606q172 0 295 -112t123 -277q0 -95 -44.5 -185t-120 -157.5t-182 -108.5t-224.5 -41h-607l-49 -274h289l-6 -29h-604zM360 387h603q113 0 214.5 38t173 101.5t113 148.5t41.5 175q0 156 -112.5 258 t-276.5 102h-610z" />
<glyph unicode="&#xdf;" horiz-adv-x="1425" d="M-37 55l6 29h285l162 920h-287l6 28h287l16 92q18 105 57.5 195t101 162.5t150.5 114.5t197 42q74 0 134.5 -24.5t96.5 -63t55 -83t19 -87.5q0 -39 -12.5 -74.5t-27.5 -59t-47 -53t-50.5 -43.5t-58.5 -42q-42 -28 -61 -41.5t-51.5 -41t-47 -49t-27 -53.5t-12.5 -67 q0 -50 26 -91.5t50 -60.5t80 -56q11 -7 16 -11q45 -30 76 -55.5t64.5 -63.5t51 -86.5t17.5 -105.5q0 -139 -104 -230.5t-246 -91.5q-105 0 -201 50.5t-149 111.5l20 18q52 -59 141.5 -105t188.5 -46q134 0 227.5 82t93.5 211q0 43 -11.5 80.5t-28 64.5t-45 54.5t-52 45 t-59.5 41.5q-88 58 -117 87q-68 68 -68 157q0 49 16.5 89.5t53 76.5t63 56t78.5 55q41 29 57.5 41.5t47.5 40t44 48t24.5 52t11.5 65.5q0 40 -17 79.5t-49.5 73.5t-87.5 55.5t-123 21.5q-82 0 -153 -26t-123 -71t-93.5 -107.5t-67.5 -133.5t-40 -152l-188 -1065h-316z" />
<glyph unicode="&#xe0;" horiz-adv-x="1263" d="M74 340q0 48 14 93.5t47.5 89.5t82.5 77t125.5 53.5t170.5 20.5q179 0 414 -74l22 117q9 63 5 110.5t-26 82.5t-51.5 58.5t-71.5 37.5t-86 20t-95 6q-107 0 -218 -24.5t-169 -51.5l-13 25q60 29 174.5 54.5t225.5 25.5q52 0 98.5 -7t92.5 -23t79 -42.5t58 -65t30.5 -91 t-4.5 -119.5l-115 -629h287l-4 -29h-316l23 123q-205 -143 -428 -143q-90 0 -160 27t-110.5 72t-61 97.5t-20.5 108.5zM102 340q0 -52 18 -99.5t55 -88.5t101.5 -65t149.5 -24q230 0 434 158l64 350q-238 74 -410 74q-89 0 -161 -18t-118 -48t-76.5 -70t-43.5 -82t-13 -87z M524 1618l17 24l417 -323l-16 -23z" />
<glyph unicode="&#xe1;" horiz-adv-x="1263" d="M74 340q0 48 14 93.5t47.5 89.5t82.5 77t125.5 53.5t170.5 20.5q179 0 414 -74l22 117q9 63 5 110.5t-26 82.5t-51.5 58.5t-71.5 37.5t-86 20t-95 6q-107 0 -218 -24.5t-169 -51.5l-13 25q60 29 174.5 54.5t225.5 25.5q52 0 98.5 -7t92.5 -23t79 -42.5t58 -65t30.5 -91 t-4.5 -119.5l-115 -629h287l-4 -29h-316l23 123q-205 -143 -428 -143q-90 0 -160 27t-110.5 72t-61 97.5t-20.5 108.5zM102 340q0 -52 18 -99.5t55 -88.5t101.5 -65t149.5 -24q230 0 434 158l64 350q-238 74 -410 74q-89 0 -161 -18t-118 -48t-76.5 -70t-43.5 -82t-13 -87z M467 1327l530 322l15 -27l-529 -319z" />
<glyph unicode="&#xe2;" horiz-adv-x="1263" d="M74 340q0 48 14 93.5t47.5 89.5t82.5 77t125.5 53.5t170.5 20.5q179 0 414 -74l22 117q9 63 5 110.5t-26 82.5t-51.5 58.5t-71.5 37.5t-86 20t-95 6q-107 0 -218 -24.5t-169 -51.5l-13 25q60 29 174.5 54.5t225.5 25.5q52 0 98.5 -7t92.5 -23t79 -42.5t58 -65t30.5 -91 t-4.5 -119.5l-115 -629h287l-4 -29h-316l23 123q-205 -143 -428 -143q-90 0 -160 27t-110.5 72t-61 97.5t-20.5 108.5zM102 340q0 -52 18 -99.5t55 -88.5t101.5 -65t149.5 -24q230 0 434 158l64 350q-238 74 -410 74q-89 0 -161 -18t-118 -48t-76.5 -70t-43.5 -82t-13 -87z M395 1343l365 234l280 -236l-16 -20l-268 219l-344 -221z" />
<glyph unicode="&#xe3;" horiz-adv-x="1263" d="M74 340q0 48 14 93.5t47.5 89.5t82.5 77t125.5 53.5t170.5 20.5q179 0 414 -74l22 117q9 63 5 110.5t-26 82.5t-51.5 58.5t-71.5 37.5t-86 20t-95 6q-107 0 -218 -24.5t-169 -51.5l-13 25q60 29 174.5 54.5t225.5 25.5q52 0 98.5 -7t92.5 -23t79 -42.5t58 -65t30.5 -91 t-4.5 -119.5l-115 -629h287l-4 -29h-316l23 123q-205 -143 -428 -143q-90 0 -160 27t-110.5 72t-61 97.5t-20.5 108.5zM102 340q0 -52 18 -99.5t55 -88.5t101.5 -65t149.5 -24q230 0 434 158l64 350q-238 74 -410 74q-89 0 -161 -18t-118 -48t-76.5 -70t-43.5 -82t-13 -87z M375 1305q7 44 22.5 84t40.5 76.5t63.5 58.5t86.5 22q49 0 86 -26.5t74 -73.5q39 -46 68 -67t71 -21q144 0 182 217l29 -6q-6 -35 -16 -67t-28 -64.5t-40.5 -56t-55.5 -38t-71 -14.5q-49 0 -86 26.5t-76 74.5q-36 45 -65.5 66.5t-71.5 21.5q-54 0 -94.5 -34t-60.5 -80 t-30 -104z" />
<glyph unicode="&#xe4;" horiz-adv-x="1263" d="M74 340q0 48 14 93.5t47.5 89.5t82.5 77t125.5 53.5t170.5 20.5q179 0 414 -74l22 117q9 63 5 110.5t-26 82.5t-51.5 58.5t-71.5 37.5t-86 20t-95 6q-107 0 -218 -24.5t-169 -51.5l-13 25q60 29 174.5 54.5t225.5 25.5q52 0 98.5 -7t92.5 -23t79 -42.5t58 -65t30.5 -91 t-4.5 -119.5l-115 -629h287l-4 -29h-316l23 123q-205 -143 -428 -143q-90 0 -160 27t-110.5 72t-61 97.5t-20.5 108.5zM102 340q0 -52 18 -99.5t55 -88.5t101.5 -65t149.5 -24q230 0 434 158l64 350q-238 74 -410 74q-89 0 -161 -18t-118 -48t-76.5 -70t-43.5 -82t-13 -87z M451 1413q0 30 20 51t49 21q30 0 51 -21t21 -51t-21 -51t-51 -21q-29 0 -49 21t-20 51zM479 1413q0 -19 12 -31t29 -12q20 0 31.5 12t11.5 31t-12 31t-31 12q-18 0 -29.5 -12.5t-11.5 -30.5zM872 1413q0 29 21.5 50.5t50.5 21.5t50.5 -21.5t21.5 -50.5t-21.5 -50.5 t-50.5 -21.5t-50.5 21.5t-21.5 50.5zM901 1413q0 -18 12.5 -30.5t30.5 -12.5q19 0 31 12t12 31t-12 31t-31 12q-18 0 -30.5 -12.5t-12.5 -30.5z" />
<glyph unicode="&#xe5;" horiz-adv-x="1263" d="M74 340q0 48 14 93.5t47.5 89.5t82.5 77t125.5 53.5t170.5 20.5q179 0 414 -74l22 117q9 63 5 110.5t-26 82.5t-51.5 58.5t-71.5 37.5t-86 20t-95 6q-107 0 -218 -24.5t-169 -51.5l-13 25q60 29 174.5 54.5t225.5 25.5q52 0 98.5 -7t92.5 -23t79 -42.5t58 -65t30.5 -91 t-4.5 -119.5l-115 -629h287l-4 -29h-316l23 123q-205 -143 -428 -143q-90 0 -160 27t-110.5 72t-61 97.5t-20.5 108.5zM102 340q0 -52 18 -99.5t55 -88.5t101.5 -65t149.5 -24q230 0 434 158l64 350q-238 74 -410 74q-89 0 -161 -18t-118 -48t-76.5 -70t-43.5 -82t-13 -87z M557 1475q0 77 55 132.5t131 55.5t131.5 -55.5t55.5 -132.5q0 -75 -55.5 -131t-131.5 -56t-131 56t-55 131zM586 1475q0 -66 45.5 -112t111.5 -46t112 46t46 112q0 67 -46 113t-112 46t-111.5 -46t-45.5 -113z" />
<glyph unicode="&#xe6;" horiz-adv-x="1976" d="M74 340q0 48 14 93.5t47.5 89.5t82.5 77t125.5 53.5t170.5 20.5q179 0 414 -74q4 26 8 35l14 82q11 53 6 96t-17.5 76t-37 57t-53 40.5t-66 26.5t-75.5 14.5t-82 4.5q-107 0 -218 -24.5t-169 -51.5l-13 25q60 29 174.5 54.5t225.5 25.5q59 0 111 -9t100.5 -31t82.5 -55 t52.5 -86t13.5 -120q73 134 209 215.5t295 81.5q153 0 239.5 -71t86.5 -187q0 -104 -77 -180t-200.5 -113t-275.5 -37q-146 0 -314 35q2 -189 128.5 -315t332.5 -126q199 0 375 136l16 -23q-178 -141 -391 -141q-148 0 -261 66t-173 178q-259 -244 -549 -244q-90 0 -160 27 t-110.5 72t-61 97.5t-20.5 108.5zM102 340q0 -52 18 -99.5t55 -88.5t101.5 -65t149.5 -24q281 0 535 242q-41 93 -41 203q0 23 4 63q-238 74 -410 74q-89 0 -161 -18t-118 -48t-76.5 -70t-43.5 -82t-13 -87zM948 532q160 -34 314 -34q149 0 266 34t187.5 103t70.5 164 q0 103 -78.5 166t-218.5 63q-141 0 -262.5 -65t-196.5 -179.5t-82 -251.5z" />
<glyph unicode="&#xe7;" horiz-adv-x="1220" d="M117 508q0 147 77.5 274.5t205.5 201t274 73.5q117 0 220.5 -55t139.5 -144l41 232h29l-53 -306l-35 -196h-29l35 196q-3 71 -53.5 127.5t-128.5 86.5t-166 30q-140 0 -261.5 -69t-194.5 -189.5t-73 -261.5q0 -189 127 -317t328 -128q215 0 412 146l18 -25 q-105 -76 -217.5 -112.5t-212.5 -36.5q-48 0 -92 6l-31 -160q128 -20 198 -83t70 -148q0 -94 -68.5 -154.5t-184.5 -60.5q-76 0 -152.5 14.5t-115.5 28.5l-38 14l13 27q14 -6 40 -15.5t102.5 -25t150.5 -15.5q107 0 166 51t59 136q0 78 -65 132.5t-193 72.5l2 14l-15 2 l33 176q-163 38 -262.5 166t-99.5 295z" />
<glyph unicode="&#xe8;" horiz-adv-x="1173" d="M117 508q0 148 78 275t209.5 200.5t281.5 73.5q153 0 239.5 -71t86.5 -187q0 -104 -77 -180t-200.5 -113t-275.5 -37q-146 0 -314 35q2 -189 128.5 -315t332.5 -126q199 0 375 136l16 -23q-178 -141 -391 -141q-144 0 -256.5 64t-172.5 171.5t-60 237.5zM145 532 q160 -34 314 -34q149 0 266 34t187.5 103t70.5 164q0 103 -78.5 166t-218.5 63q-141 0 -262.5 -65t-196.5 -179.5t-82 -251.5zM541 1618l16 24l418 -323l-17 -23z" />
<glyph unicode="&#xe9;" horiz-adv-x="1173" d="M117 508q0 148 78 275t209.5 200.5t281.5 73.5q153 0 239.5 -71t86.5 -187q0 -104 -77 -180t-200.5 -113t-275.5 -37q-146 0 -314 35q2 -189 128.5 -315t332.5 -126q199 0 375 136l16 -23q-178 -141 -391 -141q-144 0 -256.5 64t-172.5 171.5t-60 237.5zM145 532 q160 -34 314 -34q149 0 266 34t187.5 103t70.5 164q0 103 -78.5 166t-218.5 63q-141 0 -262.5 -65t-196.5 -179.5t-82 -251.5zM483 1327l531 322l14 -27l-528 -319z" />
<glyph unicode="&#xea;" horiz-adv-x="1173" d="M117 508q0 148 78 275t209.5 200.5t281.5 73.5q153 0 239.5 -71t86.5 -187q0 -104 -77 -180t-200.5 -113t-275.5 -37q-146 0 -314 35q2 -189 128.5 -315t332.5 -126q199 0 375 136l16 -23q-178 -141 -391 -141q-144 0 -256.5 64t-172.5 171.5t-60 237.5zM145 532 q160 -34 314 -34q149 0 266 34t187.5 103t70.5 164q0 103 -78.5 166t-218.5 63q-141 0 -262.5 -65t-196.5 -179.5t-82 -251.5zM412 1343l364 234l281 -236l-17 -20l-268 219l-344 -221z" />
<glyph unicode="&#xeb;" horiz-adv-x="1173" d="M117 508q0 148 78 275t209.5 200.5t281.5 73.5q153 0 239.5 -71t86.5 -187q0 -104 -77 -180t-200.5 -113t-275.5 -37q-146 0 -314 35q2 -189 128.5 -315t332.5 -126q199 0 375 136l16 -23q-178 -141 -391 -141q-144 0 -256.5 64t-172.5 171.5t-60 237.5zM145 532 q160 -34 314 -34q149 0 266 34t187.5 103t70.5 164q0 103 -78.5 166t-218.5 63q-141 0 -262.5 -65t-196.5 -179.5t-82 -251.5zM467 1413q0 29 20.5 50.5t49.5 21.5q30 0 50.5 -21t20.5 -51t-20.5 -51t-50.5 -21q-29 0 -49.5 21.5t-20.5 50.5zM496 1413q0 -19 12 -31t29 -12 q20 0 31.5 12t11.5 31t-12 31t-31 12q-18 0 -29.5 -12.5t-11.5 -30.5zM889 1413q0 29 21.5 50.5t50.5 21.5t50 -21.5t21 -50.5t-21 -50.5t-50 -21.5t-50.5 21.5t-21.5 50.5zM918 1413q0 -18 12.5 -30.5t30.5 -12.5q19 0 31 12t12 31t-12 31t-31 12q-18 0 -30.5 -12.5 t-12.5 -30.5z" />
<glyph unicode="&#xec;" horiz-adv-x="702" d="M-39 55l6 29h285l164 922h-287l4 28h316l-168 -950h286l-6 -29h-600zM240 1618l16 24l418 -323l-17 -23z" />
<glyph unicode="&#xed;" horiz-adv-x="702" d="M-39 55l6 29h285l164 922h-287l4 28h316l-168 -950h286l-6 -29h-600zM184 1327l531 322l14 -27l-528 -319z" />
<glyph unicode="&#xee;" horiz-adv-x="702" d="M-39 55l6 29h285l164 922h-287l4 28h316l-168 -950h286l-6 -29h-600zM113 1343l364 234l281 -236l-17 -20l-268 219l-344 -221z" />
<glyph unicode="&#xef;" horiz-adv-x="702" d="M-39 55l6 29h285l164 922h-287l4 28h316l-168 -950h286l-6 -29h-600zM164 1413q0 30 20 51t49 21q30 0 51 -21t21 -51t-21 -51t-51 -21q-29 0 -49 21t-20 51zM193 1413q0 -19 11.5 -31t28.5 -12q20 0 31.5 12t11.5 31t-12 31t-31 12q-18 0 -29 -12.5t-11 -30.5zM586 1413 q0 29 21 50.5t50 21.5t50.5 -21.5t21.5 -50.5t-21.5 -50.5t-50.5 -21.5t-50 21.5t-21 50.5zM614 1413q0 -18 12.5 -30.5t30.5 -12.5q19 0 31 12t12 31t-12 31t-31 12q-18 0 -30.5 -12.5t-12.5 -30.5z" />
<glyph unicode="&#xf0;" horiz-adv-x="1296" d="M117 500q0 106 44.5 204.5t118 170t173.5 114.5t206 43q92 0 178.5 -34.5t158.5 -113t98 -188.5v17q0 175 -47.5 331t-139.5 275q-80 104 -178 164l-244 -226l-20 21l240 221q-215 124 -508 74l-4 29q302 50 532 -82l186 168l21 -21l-180 -164q100 -64 180 -168 q92 -123 141 -284t49 -338q0 -152 -36 -273t-92.5 -195t-131.5 -123t-146 -68t-143 -19q-193 0 -324.5 135.5t-131.5 329.5zM145 500q0 -185 122 -311t306 -126q60 0 119 13t121.5 46.5t113.5 84.5t91.5 133t58.5 186q8 97 -13.5 178.5t-63 135.5t-98.5 92t-118.5 55 t-124.5 17q-136 0 -254.5 -68t-189 -184.5t-70.5 -251.5z" />
<glyph unicode="&#xf1;" horiz-adv-x="1460" d="M-35 55l6 29h283l166 922h-289l6 28h316l-37 -207q100 106 218.5 168t235.5 62q68 0 126.5 -23.5t106 -75.5t63.5 -134.5t-1 -200.5l-96 -539h287l-4 -29h-316l101 572q16 88 7 155t-33 113.5t-63.5 76t-83.5 43t-94 13.5q-120 0 -240.5 -68t-223.5 -186l-123 -690h286 l-4 -29h-600zM541 1305q7 44 22.5 84t40.5 76.5t63.5 58.5t86.5 22q49 0 85.5 -26t73.5 -74q38 -45 68 -66.5t72 -21.5q144 0 182 217l29 -6q-6 -35 -16 -67t-28 -64.5t-40.5 -56t-55.5 -38t-71 -14.5q-49 0 -86 26.5t-76 74.5q-36 45 -65.5 66.5t-71.5 21.5 q-54 0 -94.5 -34t-60.5 -80t-30 -104z" />
<glyph unicode="&#xf2;" horiz-adv-x="1302" d="M117 510q0 146 77.5 273t206 200.5t273.5 73.5q197 0 333 -139t136 -336q0 -146 -77 -273t-205 -200.5t-273 -73.5q-198 0 -334.5 138.5t-136.5 336.5zM145 510q0 -189 127 -318t316 -129q104 0 201 41t168.5 110.5t114 166t42.5 201.5q0 188 -126 317t-314 129 q-140 0 -261.5 -69t-194.5 -189t-73 -260zM575 1618l17 24l418 -323l-17 -23z" />
<glyph unicode="&#xf3;" horiz-adv-x="1302" d="M117 510q0 146 77.5 273t206 200.5t273.5 73.5q197 0 333 -139t136 -336q0 -146 -77 -273t-205 -200.5t-273 -73.5q-198 0 -334.5 138.5t-136.5 336.5zM145 510q0 -189 127 -318t316 -129q104 0 201 41t168.5 110.5t114 166t42.5 201.5q0 188 -126 317t-314 129 q-140 0 -261.5 -69t-194.5 -189t-73 -260zM518 1327l531 322l14 -27l-528 -319z" />
<glyph unicode="&#xf4;" horiz-adv-x="1302" d="M117 510q0 146 77.5 273t206 200.5t273.5 73.5q197 0 333 -139t136 -336q0 -146 -77 -273t-205 -200.5t-273 -73.5q-198 0 -334.5 138.5t-136.5 336.5zM145 510q0 -189 127 -318t316 -129q104 0 201 41t168.5 110.5t114 166t42.5 201.5q0 188 -126 317t-314 129 q-140 0 -261.5 -69t-194.5 -189t-73 -260zM446 1343l365 234l281 -236l-17 -20l-268 219l-344 -221z" />
<glyph unicode="&#xf5;" horiz-adv-x="1302" d="M117 510q0 146 77.5 273t206 200.5t273.5 73.5q197 0 333 -139t136 -336q0 -146 -77 -273t-205 -200.5t-273 -73.5q-198 0 -334.5 138.5t-136.5 336.5zM145 510q0 -189 127 -318t316 -129q104 0 201 41t168.5 110.5t114 166t42.5 201.5q0 188 -126 317t-314 129 q-140 0 -261.5 -69t-194.5 -189t-73 -260zM426 1305q7 44 22.5 84t40.5 76.5t63.5 58.5t86.5 22q49 0 86 -26.5t74 -73.5q39 -46 68 -67t71 -21q144 0 182 217l29 -6q-6 -35 -16 -67t-28 -64.5t-40.5 -56t-55.5 -38t-71 -14.5q-49 0 -86 26.5t-76 74.5q-36 45 -65.5 66.5 t-71.5 21.5q-41 0 -74 -19t-54.5 -51.5t-35 -69t-20.5 -78.5z" />
<glyph unicode="&#xf6;" horiz-adv-x="1302" d="M117 510q0 146 77.5 273t206 200.5t273.5 73.5q197 0 333 -139t136 -336q0 -146 -77 -273t-205 -200.5t-273 -73.5q-198 0 -334.5 138.5t-136.5 336.5zM145 510q0 -189 127 -318t316 -129q104 0 201 41t168.5 110.5t114 166t42.5 201.5q0 188 -126 317t-314 129 q-140 0 -261.5 -69t-194.5 -189t-73 -260zM502 1413q0 30 20 51t49 21q30 0 51 -21t21 -51t-21 -51t-51 -21q-29 0 -49 21t-20 51zM530 1413q0 -19 12 -31t29 -12q20 0 31.5 12t11.5 31t-12 31t-31 12q-18 0 -29.5 -12.5t-11.5 -30.5zM924 1413q0 29 21 50.5t50 21.5 t50.5 -21.5t21.5 -50.5t-21.5 -50.5t-50.5 -21.5t-50 21.5t-21 50.5zM952 1413q0 -18 12.5 -30.5t30.5 -12.5q19 0 31 12t12 31t-12 31t-31 12q-18 0 -30.5 -12.5t-12.5 -30.5z" />
<glyph unicode="&#xf7;" horiz-adv-x="1189" d="M158 735l6 29h897l-6 -29h-897zM471 371q0 29 20.5 50t51.5 21q29 0 49 -21t20 -50q0 -30 -20 -51t-49 -21q-30 0 -51 21t-21 51zM500 371q0 -19 12 -31t31 -12q18 0 29.5 12.5t11.5 30.5q0 19 -12 31t-29 12q-20 0 -31.5 -12t-11.5 -31zM604 1126q0 30 21 51t51 21 q29 0 49 -21t20 -51q0 -29 -20 -50t-49 -21q-30 0 -51 20.5t-21 50.5zM633 1126q0 -19 12 -31t31 -12q18 0 29.5 12.5t11.5 30.5q0 19 -12 31t-29 12q-20 0 -31.5 -12t-11.5 -31z" />
<glyph unicode="&#xf8;" horiz-adv-x="1304" d="M119 510q0 146 77.5 273t206 200.5t273.5 73.5q160 0 291 -103l116 136h37l-131 -154q73 -66 114.5 -158t41.5 -196q0 -146 -77 -273t-205 -200.5t-273 -73.5q-166 0 -293 100l-117 -135h-37l133 154q-74 65 -115.5 157.5t-41.5 198.5zM147 510q0 -100 38.5 -187.5 t107.5 -148.5l657 760q-118 94 -274 94q-140 0 -261.5 -69t-194.5 -189t-73 -260zM315 156q117 -93 275 -93q104 0 201 41t168.5 110.5t114 166t42.5 201.5q0 99 -38.5 185.5t-106.5 147.5z" />
<glyph unicode="&#xf9;" horiz-adv-x="1413" d="M57 1006l6 28h314l-101 -571q-16 -88 -7 -154.5t33 -113.5t63.5 -77t83.5 -43.5t94 -13.5q119 0 240 67.5t223 184.5l124 693h-288l6 28h315l-170 -950h287l-4 -29h-315l36 205q-100 -104 -219.5 -165.5t-234.5 -61.5q-68 0 -126.5 24t-106 76t-63.5 134.5t1 199.5 l96 539h-287zM614 1618l17 24l418 -323l-17 -23z" />
<glyph unicode="&#xfa;" horiz-adv-x="1413" d="M57 1006l6 28h314l-101 -571q-16 -88 -7 -154.5t33 -113.5t63.5 -77t83.5 -43.5t94 -13.5q119 0 240 67.5t223 184.5l124 693h-288l6 28h315l-170 -950h287l-4 -29h-315l36 205q-100 -104 -219.5 -165.5t-234.5 -61.5q-68 0 -126.5 24t-106 76t-63.5 134.5t1 199.5 l96 539h-287zM557 1327l530 322l15 -27l-529 -319z" />
<glyph unicode="&#xfb;" horiz-adv-x="1413" d="M57 1006l6 28h314l-101 -571q-16 -88 -7 -154.5t33 -113.5t63.5 -77t83.5 -43.5t94 -13.5q119 0 240 67.5t223 184.5l124 693h-288l6 28h315l-170 -950h287l-4 -29h-315l36 205q-100 -104 -219.5 -165.5t-234.5 -61.5q-68 0 -126.5 24t-106 76t-63.5 134.5t1 199.5 l96 539h-287zM485 1343l365 234l280 -236l-16 -20l-268 219l-344 -221z" />
<glyph unicode="&#xfc;" horiz-adv-x="1413" d="M57 1006l6 28h314l-101 -571q-16 -88 -7 -154.5t33 -113.5t63.5 -77t83.5 -43.5t94 -13.5q119 0 240 67.5t223 184.5l124 693h-288l6 28h315l-170 -950h287l-4 -29h-315l36 205q-100 -104 -219.5 -165.5t-234.5 -61.5q-68 0 -126.5 24t-106 76t-63.5 134.5t1 199.5 l96 539h-287zM539 1413q0 30 20 51t49 21q30 0 51 -21t21 -51t-21 -51t-51 -21q-29 0 -49 21t-20 51zM567 1413q0 -19 12 -31t29 -12q20 0 31.5 12t11.5 31t-12 31t-31 12q-18 0 -29.5 -12.5t-11.5 -30.5zM961 1413q0 29 21 50.5t50 21.5t50.5 -21.5t21.5 -50.5t-21.5 -50.5 t-50.5 -21.5t-50 21.5t-21 50.5zM989 1413q0 -18 12.5 -30.5t30.5 -12.5q19 0 31 12t12 31t-12 31t-31 12q-18 0 -30.5 -12.5t-12.5 -30.5z" />
<glyph unicode="&#xfd;" horiz-adv-x="1390" d="M-299 -360l25 12q28 -66 77 -107.5t99 -56t106 -14.5q131 0 251 95.5t249 309.5l53 88l-266 1039h-252l6 28h582l-6 -28h-299l258 -1004l612 1004h-309l6 28h582l-7 -28h-237l-699 -1143q-132 -217 -259.5 -317.5t-264.5 -100.5q-43 0 -84.5 9.5t-84.5 30.5t-79 61 t-59 94zM569 1327l531 322l14 -27l-528 -319z" />
<glyph unicode="&#xfe;" horiz-adv-x="1423" d="M-236 -506l7 31h284l351 1988h-289l6 29h315l-137 -784q71 134 206 216.5t288 82.5q197 0 333 -139t136 -336q0 -146 -77 -273t-205 -200.5t-273 -73.5q-178 0 -308 113t-157 284l-160 -907h287l-6 -31h-601zM266 510q0 -189 127 -318t316 -129q104 0 201 41t168.5 110.5 t114 166t42.5 201.5q0 188 -126 317t-314 129q-140 0 -261.5 -69t-194.5 -189t-73 -260z" />
<glyph unicode="&#xff;" horiz-adv-x="1390" d="M-299 -360l25 12q28 -66 77 -107.5t99 -56t106 -14.5q131 0 251 95.5t249 309.5l53 88l-266 1039h-252l6 28h582l-6 -28h-299l258 -1004l612 1004h-309l6 28h582l-7 -28h-237l-699 -1143q-132 -217 -259.5 -317.5t-264.5 -100.5q-43 0 -84.5 9.5t-84.5 30.5t-79 61 t-59 94zM553 1413q0 29 20.5 50.5t49.5 21.5q30 0 50.5 -21t20.5 -51t-20.5 -51t-50.5 -21q-29 0 -49.5 21.5t-20.5 50.5zM582 1413q0 -19 12 -31t29 -12q20 0 31.5 12t11.5 31t-12 31t-31 12q-18 0 -29.5 -12.5t-11.5 -30.5zM975 1413q0 29 21.5 50.5t50.5 21.5t50 -21.5 t21 -50.5t-21 -50.5t-50 -21.5t-50.5 21.5t-21.5 50.5zM1004 1413q0 -18 12.5 -30.5t30.5 -12.5q19 0 31 12t12 31t-12 31t-31 12q-18 0 -30.5 -12.5t-12.5 -30.5z" />
<glyph unicode="&#x152;" horiz-adv-x="2310" d="M164 692q0 255 123.5 450t335 297.5t475.5 102.5h1198l-60 -338h-28l55 309h-889l-121 -684h703l-6 -28h-701l-127 -717h912l53 307h29l-58 -336h-1216q-142 0 -269 52t-216 139t-141 203.5t-52 242.5zM193 692q0 -122 49 -233.5t133.5 -194t206.5 -131.5t260 -49h252 l249 1429h-245q-194 0 -360 -57t-287 -161.5t-189.5 -259.5t-68.5 -343z" />
<glyph unicode="&#x153;" horiz-adv-x="2168" d="M115 502q0 146 77.5 273t206 200.5t273.5 73.5q176 0 306 -114.5t157 -285.5q53 174 205 287t341 113q153 0 239.5 -71t86.5 -187q0 -104 -77 -180t-200.5 -113t-275.5 -37q-145 0 -313 35q2 -189 128.5 -315t332.5 -126q199 0 374 135l17 -22q-178 -141 -391 -141 q-195 0 -326 111.5t-158 283.5q-53 -172 -201.5 -283.5t-330.5 -111.5q-198 0 -334.5 138.5t-136.5 336.5zM143 502q0 -189 127 -318t316 -129q140 0 261 69t193 188.5t72 260.5q0 189 -126 318t-314 129q-140 0 -261.5 -69t-194.5 -189t-73 -260zM1141 524q164 -35 313 -35 q148 0 265.5 34t188 103.5t70.5 164.5q0 103 -78.5 166t-218.5 63q-141 0 -262.5 -65.5t-196 -179.5t-81.5 -251z" />
<glyph unicode="&#x178;" horiz-adv-x="1624" d="M115 1513l6 29h602l-6 -29h-309l397 -862l698 862h-307l6 29h604l-6 -29h-264l-721 -892l-96 -537h289l-7 -29h-604l6 29h287l96 539l-407 890h-264zM739 1872q0 29 20.5 50.5t49.5 21.5q30 0 51 -21t21 -51t-21 -51t-51 -21q-29 0 -49.5 21.5t-20.5 50.5zM768 1872 q0 -19 12 -31t29 -12q20 0 31.5 12t11.5 31t-12 31t-31 12q-18 0 -29.5 -12.5t-11.5 -30.5zM1161 1872q0 29 21.5 50.5t50.5 21.5t50.5 -21.5t21.5 -50.5t-21.5 -50.5t-50.5 -21.5t-50.5 21.5t-21.5 50.5zM1190 1872q0 -18 12.5 -30.5t30.5 -12.5q19 0 31 12t12 31t-12 31 t-31 12q-18 0 -30.5 -12.5t-12.5 -30.5z" />
<glyph unicode="&#x2c6;" horiz-adv-x="671" d="M-215 1343l365 234l280 -236l-16 -20l-269 219l-344 -221z" />
<glyph unicode="&#x2dc;" horiz-adv-x="645" d="M199 1305q7 44 22.5 84t40.5 76.5t63.5 58.5t86.5 22q49 0 85.5 -26t73.5 -74q38 -45 68 -66.5t72 -21.5q144 0 182 217l29 -6q-6 -35 -16 -67t-28 -64.5t-40.5 -56t-55.5 -38t-71 -14.5q-49 0 -86 26.5t-76 74.5q-36 45 -65.5 66.5t-71.5 21.5q-54 0 -94.5 -34 t-60.5 -80t-30 -104z" />
<glyph unicode="&#x2000;" horiz-adv-x="1053" />
<glyph unicode="&#x2001;" horiz-adv-x="2107" />
<glyph unicode="&#x2002;" horiz-adv-x="1053" />
<glyph unicode="&#x2003;" horiz-adv-x="2107" />
<glyph unicode="&#x2004;" horiz-adv-x="702" />
<glyph unicode="&#x2005;" horiz-adv-x="526" />
<glyph unicode="&#x2006;" horiz-adv-x="351" />
<glyph unicode="&#x2007;" horiz-adv-x="351" />
<glyph unicode="&#x2008;" horiz-adv-x="263" />
<glyph unicode="&#x2009;" horiz-adv-x="421" />
<glyph unicode="&#x200a;" horiz-adv-x="117" />
<glyph unicode="&#x2010;" horiz-adv-x="817" d="M139 623l6 28h519l-7 -28h-518z" />
<glyph unicode="&#x2011;" horiz-adv-x="817" d="M139 623l6 28h519l-7 -28h-518z" />
<glyph unicode="&#x2012;" horiz-adv-x="817" d="M139 623l6 28h519l-7 -28h-518z" />
<glyph unicode="&#x2013;" horiz-adv-x="1236" d="M141 623l6 28h936l-6 -28h-936z" />
<glyph unicode="&#x2014;" horiz-adv-x="1562" d="M141 623l6 28h1262l-6 -28h-1262z" />
<glyph unicode="&#x2018;" horiz-adv-x="538" d="M266 1241q0 52 28.5 110t69 103.5t81.5 83.5t69 59l29 21l18 -23q-11 -7 -29 -20.5t-63.5 -54.5t-81 -81.5t-64 -95t-28.5 -102.5q0 -27 13.5 -42t33.5 -15q18 0 30.5 12.5t12.5 30.5q0 16 -10 26.5t-23 12.5l4 28q23 -2 40.5 -20.5t17.5 -46.5q0 -30 -21 -51t-51 -21 q-31 0 -53.5 22.5t-22.5 63.5z" />
<glyph unicode="&#x2019;" horiz-adv-x="532" d="M229 1161q11 8 29 21.5t64 54.5t81 81t64 95t29 103q0 27 -13.5 42t-33.5 15q-18 0 -30.5 -12.5t-12.5 -30.5q0 -16 9.5 -26.5t22.5 -12.5l-4 -29q-23 2 -40 21t-17 47q0 30 21 51t51 21q31 0 53 -22.5t22 -63.5q0 -52 -28.5 -110t-69 -103.5t-81 -83.5t-69.5 -59 l-28 -21z" />
<glyph unicode="&#x201a;" horiz-adv-x="632" d="M6 -272q11 7 29 20.5t63.5 54.5t81 81.5t64 95t28.5 102.5q0 27 -13.5 42t-33.5 15q-18 0 -30.5 -12.5t-12.5 -30.5q0 -16 10 -26.5t23 -12.5l-4 -28q-23 2 -40 20.5t-17 46.5q0 30 20.5 51t50.5 21q31 0 53.5 -22.5t22.5 -63.5q0 -52 -28.5 -110t-69 -103.5t-81 -83.5 t-68.5 -59l-29 -21z" />
<glyph unicode="&#x201c;" horiz-adv-x="903" d="M264 1241q0 52 28.5 110t69 103.5t81.5 83.5t69 59l29 21l18 -23q-11 -7 -29 -20.5t-63.5 -54.5t-81 -81.5t-64 -95t-28.5 -102.5q0 -27 13.5 -42t33.5 -15q18 0 30.5 12.5t12.5 30.5q0 16 -10 26.5t-23 12.5l4 28q23 -2 40.5 -20.5t17.5 -46.5q0 -30 -21 -51t-51 -21 q-31 0 -53.5 22.5t-22.5 63.5zM631 1241q0 52 28.5 110t69 103.5t81 83.5t68.5 59l29 21l19 -23q-11 -7 -29 -20.5t-64 -54.5t-81 -81.5t-64 -95t-29 -102.5q0 -27 14 -42t34 -15q18 0 30.5 12.5t12.5 30.5q0 16 -10 26.5t-23 12.5l4 28q23 -2 40 -20.5t17 -46.5 q0 -30 -20.5 -51t-50.5 -21q-31 0 -53.5 22.5t-22.5 63.5z" />
<glyph unicode="&#x201d;" horiz-adv-x="897" d="M229 1161q11 8 29 21.5t64 54.5t81 81t64 95t29 103q0 27 -13.5 42t-33.5 15q-18 0 -30.5 -12.5t-12.5 -30.5q0 -16 9.5 -26.5t22.5 -12.5l-4 -29q-23 2 -40 21t-17 47q0 30 21 51t51 21q31 0 53 -22.5t22 -63.5q0 -52 -28.5 -110t-69 -103.5t-81 -83.5t-69.5 -59 l-28 -21zM596 1161q11 8 29 21.5t63.5 54.5t81 81t64 95t28.5 103q0 27 -13.5 42t-33.5 15q-18 0 -30.5 -12.5t-12.5 -30.5q0 -16 10 -26.5t23 -12.5l-4 -29q-23 2 -40.5 21t-17.5 47q0 30 21 51t51 21q31 0 53.5 -22.5t22.5 -63.5q0 -52 -28.5 -110t-69.5 -103.5 t-81.5 -83.5t-69.5 -59l-28 -21z" />
<glyph unicode="&#x201e;" horiz-adv-x="997" d="M6 -272q11 7 29 20.5t63.5 54.5t81 81.5t64 95t28.5 102.5q0 27 -13.5 42t-33.5 15q-18 0 -30.5 -12.5t-12.5 -30.5q0 -16 10 -26.5t23 -12.5l-4 -28q-23 2 -40 20.5t-17 46.5q0 30 20.5 51t50.5 21q31 0 53.5 -22.5t22.5 -63.5q0 -52 -28.5 -110t-69 -103.5t-81 -83.5 t-68.5 -59l-29 -21zM373 -272q11 7 29 20.5t63.5 54.5t81 81.5t64 95t28.5 102.5q0 27 -13.5 42t-33.5 15q-18 0 -30.5 -12.5t-12.5 -30.5q0 -16 10 -26.5t23 -12.5l-4 -28q-23 2 -40.5 20.5t-17.5 46.5q0 30 21 51t51 21q31 0 53.5 -22.5t22.5 -63.5q0 -52 -28.5 -110 t-69 -103.5t-81.5 -83.5t-69 -59l-29 -21z" />
<glyph unicode="&#x2022;" horiz-adv-x="937" d="M231 643q0 95 68.5 163t163.5 68q97 0 165 -68t68 -163q0 -97 -68 -165t-165 -68q-95 0 -163.5 68t-68.5 165zM260 643q0 -86 59 -145.5t144 -59.5q86 0 145.5 59.5t59.5 145.5q0 85 -59.5 144t-145.5 59q-85 0 -144 -59t-59 -144z" />
<glyph unicode="&#x2026;" horiz-adv-x="1288" d="M96 102q0 30 21 51t51 21q29 0 49.5 -21.5t20.5 -50.5t-20.5 -50t-49.5 -21q-30 0 -51 20.5t-21 50.5zM125 102q0 -19 12 -31t31 -12q18 0 29.5 12.5t11.5 30.5q0 19 -12 31t-29 12q-20 0 -31.5 -12t-11.5 -31zM473 102q0 30 21 51t51 21q29 0 49 -21t20 -51 q0 -29 -20 -50t-49 -21q-31 0 -51.5 20.5t-20.5 50.5zM502 102q0 -19 12 -31t31 -12q18 0 29.5 12.5t11.5 30.5q0 19 -12 31t-29 12q-20 0 -31.5 -12t-11.5 -31zM850 102q0 30 21 51t51 21q29 0 49 -21t20 -51q0 -29 -20 -50t-49 -21q-30 0 -51 20.5t-21 50.5zM879 102 q0 -19 12 -31t31 -12q18 0 29.5 12.5t11.5 30.5q0 19 -12 31t-29 12q-20 0 -31.5 -12t-11.5 -31z" />
<glyph unicode="&#x202f;" horiz-adv-x="421" />
<glyph unicode="&#x2039;" horiz-adv-x="722" d="M147 629l13 8l-10 10l458 412l19 -23l-449 -401l309 -402l-24 -16z" />
<glyph unicode="&#x203a;" horiz-adv-x="720" d="M86 240l449 401l-310 401l25 17l315 -412l-12 -8l10 -10l-459 -412z" />
<glyph unicode="&#x205f;" horiz-adv-x="526" />
<glyph unicode="&#x20ac;" horiz-adv-x="1875" d="M88 606l6 29h246q-8 47 -8 108q0 108 30 213h-212l6 29h215q83 255 307 421.5t496 166.5q192 0 347 -90.5t197 -237.5l64 352h28l-120 -682h-29l43 246q-4 113 -79 201.5t-193.5 135t-257.5 46.5q-261 0 -476.5 -157.5t-298.5 -401.5h797l-6 -29h-799q-31 -105 -31 -213 q0 -55 9 -108h680l-7 -29h-669q45 -241 229.5 -397t439.5 -156q161 0 302.5 51.5t275.5 169.5l18 -22q-142 -120 -287.5 -173.5t-308.5 -53.5q-264 0 -458 164.5t-240 416.5h-256z" />
<glyph unicode="&#x2122;" horiz-adv-x="1636" d="M248 1522l6 28h520l-6 -28h-244l-96 -537h-29l97 537h-248zM860 985l107 610l14 -2l14 4l185 -501l366 506l13 -9l14 -2l-111 -606h-28l98 547l-344 -475l-12 8l-15 -4l-176 475l-96 -551h-29z" />
<glyph unicode="&#x25fc;" horiz-adv-x="1034" d="M0 0v1034h1034v-1034h-1034z" />
</font>
</defs>
</svg>
