<?xml version="1.0" standalone="no"?>
<!DOCTYPE svg PUBLIC "-//W3C//DTD SVG 1.1//EN" "http://www.w3.org/Graphics/SVG/1.1/DTD/svg11.dtd" >
<svg xmlns="http://www.w3.org/2000/svg">
<metadata></metadata>
<defs>
<font id="gistbold" horiz-adv-x="811" >
<font-face units-per-em="2048" ascent="1638" descent="-410" />
<missing-glyph horiz-adv-x="530" />
<glyph unicode="&#xfb01;" horiz-adv-x="1419" d="M-604 -219l100 -10q-5 -58 14 -115t57 -104t102 -76t143 -29q87 0 157 32.5t115.5 83t81 128t55.5 152t37 171.5l172 977h686l-153 -862h-299l16 102h199l114 660h-479l-158 -895q-13 -72 -27 -132t-37.5 -129t-52 -123t-70.5 -105.5t-92 -86t-118 -55t-147 -20.5 q-105 0 -189.5 39.5t-135 103t-74.5 140t-17 153.5zM-475 -231l100 -11q-8 -74 42 -128t145 -54q59 0 105.5 23t79 61t58.5 98.5t42.5 125t31.5 151.5l152 856h-211l18 100h313l-172 -973q-17 -95 -36 -166.5t-52 -146t-75.5 -122t-107 -77.5t-146.5 -30q-144 0 -220.5 89.5 t-66.5 203.5zM94 1020l17 100h211q14 78 30.5 143.5t42.5 137.5t57 129.5t75.5 111t97.5 89t123.5 56.5t152.5 21q110 0 199 -43.5t141.5 -113.5t78 -154t17.5 -168l-102 8q8 89 -26.5 172t-115.5 140t-192 57q-69 0 -127.5 -19t-102.5 -50.5t-81.5 -80t-63.5 -101t-48 -121 t-36.5 -131.5t-27.5 -140l-8 -43h-312zM434 1020l8 39q13 76 27 137.5t35 127.5t46 116t59.5 96t76 76t96.5 47.5t119 17.5q78 0 140.5 -30t99 -78.5t53.5 -107.5t12 -120l-100 11q8 90 -46.5 157.5t-158.5 67.5q-76 0 -134 -32.5t-98 -97t-66.5 -142t-47.5 -185.5h715 l-160 -889h197l-17 -102h-299l158 891h-715zM641 0l16 100h627l-16 -100h-627z" />
<glyph unicode="&#xfb02;" horiz-adv-x="1574" d="M-604 -219l100 -10q-5 -58 14 -115t57 -104t102 -76t143 -29q87 0 157 32.5t115.5 83t81 128t55.5 152t37 171.5l172 977h479l-16 -100h-379l-158 -895q-13 -72 -27 -132t-37.5 -129t-52 -123t-70.5 -105.5t-92 -86t-118 -55t-147 -20.5q-105 0 -189.5 39.5t-135 103 t-74.5 140t-17 153.5zM-475 -231l102 -11q-10 -73 40 -127.5t145 -54.5q59 0 105.5 23t79 61t58.5 98.5t42.5 125t31.5 151.5l152 856h-211l18 100h313l-172 -973q-17 -95 -36 -166.5t-52 -146t-75.5 -122t-107 -77.5t-146.5 -30q-144 0 -220.5 89.5t-66.5 203.5zM94 1020 l17 100h211l6 31q12 71 26.5 131t39 129.5t55.5 124t76.5 107.5t101 88t131 56t164.5 21q300 0 491 -245l-205 -1160q-15 -76 -3 -119t30 -58t41 -15q24 0 44.5 9t53.5 36l64 -80q-83 -67 -162 -67q-26 0 -51.5 8.5t-53 29.5t-44 56.5t-24 89t6.5 127.5l195 1114 q-156 172 -383 172q-100 0 -179.5 -33.5t-130 -85t-89.5 -131t-59.5 -153.5t-37.5 -170l-20 -113h-312zM434 1020l21 108q12 66 25 119t33 112t44.5 103.5t60 86.5t78.5 69t100.5 43t125.5 16q207 0 352 -151l-193 -1102q-15 -80 -6 -138.5t29.5 -98t52.5 -63.5t61.5 -34 t57.5 -10q88 0 178 76l66 -78q-119 -98 -244 -98q-41 0 -84 13.5t-90.5 45t-78 84t-46 131.5t5.5 186l182 1049q-102 88 -243 88q-71 0 -127 -23.5t-93.5 -61.5t-66.5 -99.5t-46.5 -124t-33.5 -148.5h379l-19 -100h-481z" />
<glyph unicode="&#xfb03;" horiz-adv-x="2174" d="M-604 -219l100 -10q-5 -58 14 -115t57 -104t102 -76t143 -29q87 0 157 32.5t115.5 83t81 128t55.5 152t37 171.5l172 977h727l-172 -973q-17 -95 -36 -167t-52.5 -146t-76 -121.5t-107 -77.5t-146.5 -30q-134 0 -215 84l72 69q50 -53 143 -53q58 0 104.5 23t79 61 t58.5 98.5t43 125t33 151.5l149 856h-520l-158 -895q-13 -72 -27 -132t-37.5 -129t-52 -123t-70.5 -105.5t-92 -86t-118 -55t-147 -20.5q-105 0 -189.5 39.5t-135 103t-74.5 140t-17 153.5zM-475 -231l102 -11q-10 -73 40 -127.5t145 -54.5q59 0 105.5 23t79 61t58.5 98.5 t42.5 125t31.5 151.5l152 856h-211l18 100h313l-172 -973q-17 -95 -36 -166.5t-52 -146t-75.5 -122t-107 -77.5t-146.5 -30q-144 0 -220.5 89.5t-66.5 203.5zM94 1020l17 100h211q22 100 50 182.5t76.5 167t109.5 142t152 93.5t201 36q199 0 355 -121q143 188 391 188 q109 0 197.5 -43.5t141 -113.5t78 -154t17.5 -168l-100 8q8 89 -26.5 172t-115.5 140t-192 57q-247 0 -373 -246q-151 178 -373 178q-98 0 -177 -35.5t-131 -91.5t-92.5 -140t-63.5 -166t-41 -185h-312zM260 -532l72 71q89 -92 235 -92q73 0 133.5 21t105 62t78.5 91 t58.5 118t41 132t30.5 143l172 977h686l-154 -862h-299l17 102h196l117 660h-479l-158 -895q-13 -72 -27 -132t-38 -129t-52.5 -123t-70.5 -105.5t-92.5 -86t-118 -55t-146.5 -20.5q-187 0 -307 123zM436 1020q13 70 27 128.5t36 120.5t48 110.5t62.5 93t79.5 74t99.5 46.5 t122.5 17q213 0 361 -178q-63 -139 -103 -369l-8 -43h-725zM559 1120h516q31 166 78 291q-106 98 -242 98q-75 0 -134 -28.5t-100 -82.5t-69 -121t-49 -157zM1190 1020l8 39q13 76 27 137.5t35 127.5t46 116t59.5 96t76 76t96.5 47.5t119 17.5q78 0 140.5 -30t99 -78.5 t53.5 -107.5t12 -120l-100 11q8 89 -47 157t-158 68q-76 0 -134 -32.5t-98 -97t-66.5 -142t-47.5 -185.5h714l-159 -889h196l-18 -102h-297l158 891h-715zM1395 0l18 100h625l-17 -100h-626z" />
<glyph unicode="&#xfb04;" horiz-adv-x="2330" d="M-606 -219l100 -10q-5 -58 14 -115t57 -104t102 -76t143 -29q87 0 157 32.5t115.5 83t81 128t55.5 152t37 171.5l172 977h727l-172 -973q-17 -95 -36 -167t-52.5 -146t-76 -121.5t-107 -77.5t-146.5 -30q-134 0 -215 84l72 69q50 -53 143 -53q59 0 105.5 23t79 60.5 t58.5 99t42.5 125t32.5 151.5l151 856h-522l-158 -897q-12 -71 -26 -131t-37.5 -128.5t-52 -122.5t-70.5 -105.5t-92.5 -86t-118.5 -55t-147 -20.5q-84 0 -156.5 26t-122 69.5t-83 100t-47 118t-7.5 122.5zM-477 -231l102 -11q-10 -73 40 -127.5t145 -54.5q59 0 106 23 t79 60.5t58.5 98.5t43 125.5t32.5 151.5l150 856h-211l18 100h313l-172 -973q-17 -95 -36 -166.5t-52 -146t-75.5 -122t-107 -77.5t-146.5 -30q-97 0 -166 45t-98 110.5t-23 137.5zM92 1020l17 100h210q18 82 40.5 152.5t56.5 143.5t80 129.5t104.5 102t137.5 69.5t171 24 q195 0 351 -121q146 188 415 188q301 0 492 -245l-205 -1162q-15 -75 -3 -117.5t30 -57.5t41 -15q25 0 44.5 8.5t53.5 36.5l63 -78q-83 -69 -161 -69q-26 0 -51.5 8.5t-53 29t-44 55.5t-24 88.5t6.5 127.5l194 1116q-156 172 -383 172q-268 0 -395 -242q-158 174 -371 174 q-98 0 -177 -35.5t-131.5 -91.5t-93 -140t-63.5 -166t-41 -185h-311zM258 -532l72 71q89 -92 235 -92q73 0 133.5 21t105 62t78.5 91t58.5 118t41 132t30.5 143l172 977h479l-16 -100h-379l-158 -897q-13 -71 -27 -131t-37.5 -128.5t-52 -122.5t-70.5 -105.5t-92.5 -86 t-118.5 -55t-147 -20.5q-191 0 -307 123zM434 1020q13 70 27 128.5t36 120.5t48 110.5t62.5 93t79.5 74t99.5 46.5t122.5 17q204 0 357 -172q-53 -113 -86 -305l-21 -113h-725zM557 1120h518l6 29q24 146 66 266q-102 94 -238 94q-75 0 -134 -28.5t-100 -82.5t-69 -121 t-49 -157zM1188 1020l20 108q12 65 24.5 118.5t32.5 112t44.5 103t60 86.5t78.5 69.5t101 43.5t126 16q208 0 353 -151l-193 -1104q-16 -80 -6.5 -138.5t29.5 -97.5t52 -62.5t62 -33.5t58 -10q83 0 178 76l65 -78q-122 -98 -243 -98q-33 0 -69 9t-76.5 30t-72 56t-56.5 86 t-29.5 120t8.5 159l184 1049q-102 88 -244 88q-71 0 -126.5 -23.5t-93 -62t-67 -99.5t-47 -124t-32.5 -148h379l-19 -100h-481z" />
<glyph horiz-adv-x="2048" />
<glyph horiz-adv-x="2048" />
<glyph unicode="&#xd;" horiz-adv-x="2048" />
<glyph unicode=" "  horiz-adv-x="530" />
<glyph unicode="&#x09;" horiz-adv-x="530" />
<glyph unicode="&#xa0;" horiz-adv-x="530" />
<glyph unicode="!" horiz-adv-x="628" d="M35 147q0 75 54 130t130 55q75 0 129.5 -55t54.5 -130t-54.5 -129.5t-129.5 -54.5q-76 0 -130 54.5t-54 129.5zM131 147q0 -36 26 -62t62 -26q35 0 60.5 26.5t25.5 61.5q0 36 -25.5 62.5t-60.5 26.5q-36 0 -62 -26.5t-26 -62.5zM160 147q0 25 16.5 42.5t42.5 17.5 q24 0 40.5 -17.5t16.5 -42.5t-16 -42t-41 -17t-42 17t-17 42zM160 473l196 1124h105l-199 -1124h-102zM291 473l198 1124h103l-199 -1124h-102z" />
<glyph unicode="&#x22;" horiz-adv-x="935" d="M184 965l111 632h104l-112 -632h-103zM315 965l113 632h102l-112 -632h-103zM618 965l111 632h105l-113 -632h-103zM750 965l112 632h103l-113 -632h-102z" />
<glyph unicode="#" horiz-adv-x="1478" d="M43 414l18 100h349l-181 -514h-106l145 414h-225zM66 543l16 102h266l105 293h-234l19 100h356l-174 -495h-354zM242 1067l18 102h272l152 428h107l-187 -530h-362zM262 0l180 514h437l-181 -514h-106l145 414h-223l-143 -414h-109zM453 543l174 495h436l-174 -495h-436z M596 645h221l105 293h-224zM637 1067l186 530h107l-152 -428h223l152 428h107l-187 -530h-436zM731 0l180 514h363l-17 -100h-276l-145 -414h-105zM922 543l174 495h360l-16 -100h-275l-102 -293h233l-16 -102h-358zM1106 1067l186 530h107l-152 -428h232l-17 -102h-356z " />
<glyph unicode="$" horiz-adv-x="1263" d="M80 621l98 -19q-16 -93 7.5 -171t77 -130t120 -86t143.5 -49l-45 -264h-104l33 190q-79 28 -144 73t-115 109t-69.5 153.5t-1.5 193.5zM207 598l100 -16q-16 -89 24.5 -154.5t119.5 -103.5l73 424q-49 25 -89.5 50.5t-81.5 62t-69 76.5t-45.5 92.5t-17.5 111.5 q0 166 121.5 282t321.5 123l26 150h103l-45 -256q-40 4 -62 4q-165 0 -263.5 -87.5t-98.5 -215.5q0 -63 24.5 -115t73 -92.5t96.5 -68t119 -60.5l-105 -612q-72 15 -134.5 46t-112 79.5t-71.5 121t-7 158.5zM352 1141q0 118 89 196t245 78q21 0 57 -4l-100 -580 q-69 32 -114.5 58.5t-89.5 64t-65.5 84t-21.5 103.5zM453 1141q0 -48 27.5 -84.5t84.5 -69.5l58 322q-81 -13 -125.5 -60t-44.5 -108zM510 -98l45 258q47 -6 90 -6q174 0 277.5 90t103.5 223q0 42 -12.5 80t-31.5 67.5t-49 57t-57.5 46.5t-64.5 38.5t-62.5 31t-59.5 25.5 q-13 5 -19 8l100 588q70 -11 127.5 -38.5t100.5 -72.5t60 -115t1 -157l-98 18q32 168 -109 238l-70 -399q50 -23 90 -45t90 -60t83.5 -80t57 -102.5t23.5 -128.5q0 -176 -132.5 -296t-348.5 -120h-8l-25 -149h-102zM559 188l105 603q132 -58 184 -92q149 -96 149 -232 q0 -124 -94 -204.5t-258 -80.5q-43 0 -86 6zM678 283q104 7 161.5 59t57.5 125q0 57 -41.5 99t-114.5 79zM776 1436l45 260h103l-33 -185q74 -25 133 -66t105 -104.5t60 -146t-1 -190.5l-101 18q17 93 -2 168.5t-66 125t-108 79.5t-135 41z" />
<glyph unicode="%" horiz-adv-x="2056" d="M178 1210q0 169 119.5 288.5t288.5 119.5t288 -119.5t119 -288.5t-119 -288t-288 -119t-288.5 119t-119.5 288zM270 0l1274 1597h127l-1274 -1597h-127zM279 1210q0 -125 90.5 -215t216.5 -90t215.5 90t89.5 215q0 126 -89.5 217t-215.5 91t-216.5 -91t-90.5 -217z M307 1210q0 117 81 198t198 81t196.5 -81t79.5 -198q0 -116 -79.5 -196t-196.5 -80t-198 80t-81 196zM408 1210q0 -74 51.5 -125t126.5 -51q74 0 125 51t51 125t-51.5 126.5t-124.5 52.5q-75 0 -126.5 -52.5t-51.5 -126.5zM434 0l1272 1597h131l-1274 -1597h-129zM1106 377 q0 169 119 288t288 119t287.5 -119t118.5 -288t-118.5 -288.5t-287.5 -119.5t-288 119.5t-119 288.5zM1206 377q0 -126 90.5 -215.5t216.5 -89.5q125 0 215.5 89.5t90.5 215.5t-90.5 216.5t-215.5 90.5q-126 0 -216.5 -90.5t-90.5 -216.5zM1235 377q0 117 80.5 197.5 t197.5 80.5q116 0 196.5 -80.5t80.5 -197.5t-80.5 -197t-196.5 -80q-117 0 -197.5 80t-80.5 197zM1335 377q0 -74 51.5 -125t126.5 -51q72 0 124.5 51.5t52.5 124.5t-52.5 125.5t-124.5 52.5q-75 0 -126.5 -52t-51.5 -126z" />
<glyph unicode="&#x26;" horiz-adv-x="1652" d="M84 586q0 238 148.5 411.5t365.5 214.5q-8 33 -8 78q0 91 43.5 172t127.5 133t189 52q72 0 137 -26.5t111.5 -71t73.5 -104.5t29 -123.5t-28.5 -132.5t-92.5 -128l-68 72q53 51 74 110t9 111.5t-44 96.5t-85.5 69.5t-115.5 25.5q-111 0 -185.5 -78t-74.5 -178t66 -172 q-145 14 -277 -51t-213.5 -194t-81.5 -287q0 -97 29 -182.5t80 -149t118.5 -109.5t146 -69t161.5 -23q93 0 178 32.5t147 87.5t99 131t37 159q0 67 -30 128.5t-83 106.5q64 101 123.5 152t138.5 51q88 0 136 -51.5t48 -116.5q0 -48 -24 -90.5t-59 -69.5l-62 78q43 34 43 82 q0 29 -21 48.5t-61 19.5q-64 0 -133 -90q84 -111 84 -248q0 -141 -76.5 -258.5t-205 -184.5t-279.5 -67q-124 0 -238 43.5t-202.5 122.5t-141.5 200.5t-53 266.5zM213 586q0 156 85.5 281.5t220.5 183.5t278 32q50 -37 112 -51l-22 -96q-70 14 -129 51q-109 16 -212 -32 t-168 -147.5t-65 -221.5q0 -185 117.5 -294.5t288.5 -109.5q140 0 236 83t96 198q0 10 -2 24q-144 -184 -314 -184q-125 0 -210 83t-85 204q0 126 101 215.5t268 89.5q105 0 205 -43q140 180 315 180q77 0 139 -28.5t98.5 -73.5t56 -96t19.5 -101q0 -79 -39.5 -150.5 t-93.5 -111.5l-63 78q39 31 67.5 81t28.5 103q0 72 -57 134.5t-156 62.5q-86 0 -153.5 -55.5t-133.5 -157.5q-105 78 -233 78q-126 0 -196 -60t-70 -145q0 -77 55.5 -132t136.5 -55q35 0 67 9.5t61 31t51.5 42.5t49.5 57.5t44 62t45 70.5q98 -85 98 -213q0 -160 -126 -270.5 t-306 -110.5q-101 0 -192 34.5t-161 97.5t-111.5 159.5t-41.5 212.5zM571 590q0 73 62 124.5t176 51.5q125 0 219 -72q-33 -54 -52.5 -83.5t-50.5 -69t-57 -59.5t-61 -35t-72 -15q-72 0 -118 45t-46 113zM672 590q0 -24 17 -39.5t46 -15.5q38 0 72.5 28.5t75.5 91.5 q-42 11 -74 11q-68 0 -102.5 -23t-34.5 -53zM719 1290q0 92 64.5 160t166.5 68q70 0 125 -35t80 -87.5t11 -119t-74 -123.5l-70 74q34 32 43.5 66.5t-2.5 61.5t-42 44.5t-71 17.5q-58 0 -94.5 -37.5t-36.5 -89.5q0 -45 31 -80.5t90 -52.5l-22 -96q-99 24 -149 86.5 t-50 142.5z" />
<glyph unicode="'" horiz-adv-x="501" d="M184 965l111 632h104l-112 -632h-103zM315 965l113 632h102l-112 -632h-103z" />
<glyph unicode="(" horiz-adv-x="743" d="M35 395q0 200 43 391t114.5 347t170 295.5t203.5 244t220 185.5l60 -82q-109 -77 -208.5 -176t-192.5 -231t-161 -279t-108.5 -327t-40.5 -368q0 -287 88 -523t228 -366l-70 -73q-155 143 -250.5 397.5t-95.5 564.5zM164 395q0 230 59.5 444.5t161 384t221.5 300.5 t256 227l60 -82q-102 -72 -194.5 -163.5t-178.5 -213.5t-148.5 -257.5t-99.5 -301t-37 -338.5q0 -263 77 -473t198 -321l-68 -74q-137 127 -222 355.5t-85 512.5z" />
<glyph unicode=")" horiz-adv-x="743" d="M-188 -379q102 72 194.5 163.5t178 213.5t148 257.5t99.5 301t37 338.5q0 263 -76.5 473.5t-197.5 321.5l67 73q137 -127 222 -355.5t85 -512.5q0 -230 -59.5 -444.5t-161 -384t-221.5 -300.5t-256 -227zM-113 -485q109 77 208.5 176t192.5 231t161 278.5t108.5 326.5 t40.5 368q0 287 -87.5 523t-227.5 366l69 74q155 -143 250.5 -398t95.5 -565q0 -200 -43 -391t-114.5 -346.5t-170 -295t-203.5 -244t-220 -185.5z" />
<glyph unicode="*" horiz-adv-x="960" d="M207 1339l49 91l303 -166l-246 -238l-71 74l147 141zM268 1454l47 90l183 -100l34 201l99 -17l-58 -338zM334 1006l246 237l151 -309l-90 -43l-90 184l-148 -141zM600 1284l59 340l101 -16l-35 -205l207 31l12 -101zM604 1255l344 50l15 -99l-207 -28l92 -187l-92 -45z " />
<glyph unicode="+" horiz-adv-x="1091" d="M80 635l18 100h443l-78 -442h-101l60 342h-342zM104 764l17 100h340l59 340h103l-78 -440h-441zM492 293l77 442h443l-17 -100h-342l-59 -342h-102zM573 764l78 440h101l-60 -340h344l-18 -100h-445z" />
<glyph unicode="," horiz-adv-x="585" d="M-70 -203q107 87 181 189q-32 15 -61.5 58.5t-29.5 102.5q0 77 53.5 131t131.5 54q73 0 128.5 -55t55.5 -154q0 -67 -33 -143t-80 -136.5t-94.5 -111.5t-80.5 -79l-33 -28l-60 76q12 9 31 26t68.5 67t87.5 98.5t69 114t31 120.5q0 53 -27.5 81t-64.5 28q-36 0 -62 -26.5 t-26 -62.5q0 -31 16 -51t31 -24l12 26q-11 4 -21 17t-10 32q0 24 18 42t42 18q27 0 45 -20.5t18 -59.5q0 -52 -28.5 -112t-69 -109.5t-81 -92t-69.5 -65.5l-28 -24z" />
<glyph unicode="-" d="M98 541l17 100h565l-16 -100h-566zM119 670l18 102h568l-19 -102h-567z" />
<glyph unicode="." horiz-adv-x="563" d="M10 147q0 75 54.5 130t130.5 55q75 0 129.5 -55t54.5 -130t-54.5 -129.5t-129.5 -54.5q-76 0 -130.5 54.5t-54.5 129.5zM106 147q0 -35 26 -61.5t63 -26.5q35 0 60.5 26.5t25.5 61.5q0 36 -25.5 62.5t-60.5 26.5q-36 0 -62.5 -26.5t-26.5 -62.5zM135 147q0 25 17 42.5 t43 17.5q24 0 40.5 -17.5t16.5 -42.5t-16 -42t-41 -17t-42.5 17t-17.5 42z" />
<glyph unicode="/" horiz-adv-x="1544" d="M-147 -485l1546 2250h121l-1545 -2250h-122zM10 -485l1546 2250h123l-1548 -2250h-121z" />
<glyph unicode="0" horiz-adv-x="1431" d="M113 659q0 179 49.5 352t137.5 310.5t221.5 222t289.5 84.5q255 0 404 -186.5t149 -501.5q0 -119 -22 -237t-63 -226t-103 -201t-137.5 -161t-171 -107t-199.5 -39q-254 0 -404.5 188t-150.5 502zM213 659q0 -278 122 -433.5t333 -155.5q128 0 241 75t189.5 197t121 279 t44.5 319q0 277 -120.5 432.5t-332.5 155.5q-104 0 -198.5 -48.5t-166 -133t-125 -194.5t-81 -237t-27.5 -256zM242 659q0 127 26 250t76.5 229t119 187t158.5 127.5t189 46.5q199 0 311.5 -146.5t112.5 -412.5q0 -214 -70.5 -406t-202.5 -314t-294 -122q-198 0 -312 147.5 t-114 413.5zM344 659q0 -224 86 -341t238 -117q127 0 235 104t169 274t61 361q0 225 -85 341t-237 116q-128 0 -236.5 -104.5t-169.5 -274t-61 -359.5z" />
<glyph unicode="1" horiz-adv-x="837" d="M16 0l17 100h629l-17 -100h-629zM37 129l18 102h199l201 1141l-174 -57l-33 94l336 111l-246 -1391h-301zM207 1534l358 119l33 -97l-358 -118zM367 129l249 1411l101 -16l-230 -1293h199l-18 -102h-301z" />
<glyph unicode="2" horiz-adv-x="1318" d="M-29 37q21 120 69 224t104.5 176.5t135.5 139t144 107t149 84.5q30 16 78.5 40.5t74.5 37.5t66 34.5t61.5 35.5t51.5 35t46 37.5t34.5 39.5t27.5 45t15 49t6 56q0 98 -73.5 158.5t-198.5 60.5q-58 0 -112.5 -18.5t-100 -54.5t-73 -96t-27.5 -136l-101 -2q-1 104 36.5 185 t99 128.5t133 71.5t145.5 24q165 0 270 -88.5t105 -232.5q0 -40 -8 -76t-20 -66t-34 -59t-42.5 -51t-54 -47t-60 -42.5t-68.5 -40.5t-71.5 -38t-77.5 -39.5t-78 -40.5q-82 -42 -143.5 -80t-132.5 -97.5t-121 -124.5t-92 -157.5t-62 -200.5zM94 6q105 98 236 98q71 0 186 -34 q145 -45 229 -45q167 0 254 119.5t48 299.5l96 23q34 -149 -7 -274t-145 -197t-246 -72q-96 0 -260 51q-103 29 -155 29q-53 0 -88 -16.5t-76 -55.5zM109 55q21 96 62.5 178.5t88.5 140.5t115 113t125 90t135 76q31 16 86.5 44.5t87.5 45t80 43.5t76.5 48t64.5 50.5t57 59.5 t41 66t28.5 78t8.5 90q0 153 -115 251.5t-288 98.5q-61 0 -122.5 -16t-120 -51t-103 -85t-71.5 -124t-26 -162l-102 -3q-1 109 33 201t90 153.5t128.5 104.5t147 62.5t146.5 19.5q215 0 359.5 -126t144.5 -324q0 -53 -10 -101.5t-25.5 -87.5t-43 -77t-53 -66.5t-65.5 -59.5 t-70.5 -51.5t-78 -47t-78.5 -42l-82 -41t-78 -39.5q-145 -78 -240.5 -152t-158.5 -180q37 3 47 3q96 0 221 -41q135 -41 194 -41q103 0 151.5 71.5t21.5 192.5l100 20q37 -163 -43 -274t-230 -111q-76 0 -221 45q-119 35 -194 35q-122 0 -221 -78z" />
<glyph unicode="3" horiz-adv-x="1232" d="M-45 -23l59 82q222 -155 457 -155q139 0 255.5 57.5t186.5 163.5t70 240q0 163 -98 272.5t-283 144.5q122 18 215.5 61t147.5 100.5t81 121t27 131.5q0 61 -23 119t-67 106t-115.5 77.5t-160.5 29.5q-163 0 -275.5 -94.5t-138.5 -249.5l-98 18q32 191 172 308.5 t340 117.5q113 0 204.5 -38.5t148 -101t86.5 -138t30 -154.5q0 -130 -70.5 -243t-214.5 -185q93 -71 142.5 -174.5t49.5 -228.5q0 -165 -84.5 -295t-223.5 -198.5t-304 -68.5q-118 0 -253.5 43t-262.5 131zM31 84l57 82q188 -131 383 -131q165 0 274 92t109 238 q0 139 -107 220t-325 85h-23l19 100q255 0 395.5 -110t140.5 -295q0 -193 -138.5 -313t-344.5 -120q-224 0 -440 152zM322 1180q25 146 128 232.5t257 86.5q161 0 249 -90t88 -213q0 -58 -21 -113.5t-68.5 -107.5t-117.5 -90.5t-176.5 -62t-236.5 -23.5l16 102h27 q124 2 219 29t149.5 70t81.5 92.5t27 103.5q0 82 -61 141.5t-176 59.5t-191.5 -63t-95.5 -171zM418 770l6 29z" />
<glyph unicode="4" horiz-adv-x="1378" d="M-35 446l996 1207l77 -66l-995 -1204zM61 362q129 93 295 93q97 0 273.5 -32t228.5 -38l-72 -412h-301l19 103h198l39 223q-34 6 -98 18t-102 18.5t-90.5 12.5t-94.5 6q-72 0 -125.5 -18t-109.5 -55zM115 428l944 1143l78 -66l-760 -919q65 -2 132 -11t154.5 -25.5 t118.5 -21.5l68 383h102l-88 -497q-57 6 -233.5 37.5t-274.5 31.5q-131 0 -241 -55zM463 -156l16 101h631l-16 -101h-631zM815 -27l72 410q25 -2 74 -2q100 0 167.5 29.5t124.5 91.5l74 -68q-67 -75 -152 -113.5t-202 -39.5l-37 -205h199l-19 -103h-301zM893 412l88 499h104 l-71 -399q47 6 79 24.5t64 55.5l76 -70q-55 -58 -116.5 -85t-155.5 -27q-45 0 -68 2z" />
<glyph unicode="5" horiz-adv-x="1273" d="M-59 -47l57 82q198 -131 416 -131q116 0 229 42.5t202 117t144 185.5t55 238q0 186 -120.5 297t-292.5 111q-166 0 -320 -94l181 667h612l-55 -307h-103l35 205h-412l-108 -395q88 24 170 24q101 0 193.5 -34t164 -97t114 -160.5t42.5 -216.5q0 -151 -64 -281.5 t-167.5 -217t-234 -136t-265.5 -49.5q-127 0 -251 41.5t-222 108.5zM14 59l58 82q157 -106 342 -106q127 0 241 56t187 161.5t73 234.5q0 130 -80 204.5t-204 74.5q-143 0 -279 -92l-57 82q151 110 336 110q165 0 275 -100.5t110 -278.5q0 -97 -33.5 -185.5t-92 -154.5 t-134.5 -115t-164 -74.5t-178 -25.5q-215 0 -400 127zM174 799l219 798h864l-77 -436h-103l60 336h-666l-199 -725z" />
<glyph unicode="6" horiz-adv-x="1351" d="M104 623q0 104 15.5 215t49 225.5t80.5 220t114.5 198.5t147 162t181.5 108.5t215 39.5q146 0 264 -63.5t185 -186.5l-88 -47q-53 96 -147.5 146.5t-213.5 50.5q-111 0 -211.5 -48.5t-176 -131t-136 -189.5t-99 -226.5t-59 -240.5t-20.5 -233q0 -117 27.5 -212t73 -157.5 t107 -104.5t126 -60.5t133.5 -18.5q95 0 183 38.5t153.5 106t105 166t39.5 211.5q0 107 -38.5 194t-100.5 139.5t-135 80.5t-148 28q-166 0 -309.5 -105.5t-188.5 -269.5q3 110 24.5 225t60 228t97 212t130 175t165 120t197.5 44q112 0 199 -45.5t137 -134.5l-90 -47 q-75 125 -246 125q-89 0 -169.5 -42.5t-144 -116.5t-112.5 -167t-84 -203q156 103 334 103q72 0 145 -20.5t141.5 -65t121 -106.5t84.5 -153t32 -198q0 -135 -47.5 -253t-127.5 -198.5t-186 -127t-222 -46.5q-82 0 -160.5 22t-153 72.5t-130.5 124.5t-90 187t-34 250z M250 451h2q-18 112 17 217t105.5 178t165 116.5t191.5 43.5q56 0 111.5 -15.5t106.5 -49t90 -81t62 -117t23 -151.5q0 -109 -36.5 -202.5t-98 -157.5t-144 -100t-173.5 -36q-69 0 -133.5 20t-122.5 60.5t-101.5 111t-64.5 163.5zM350 469q32 -140 120 -205t202 -65 q146 0 249 109.5t103 283.5q0 77 -25.5 138t-68 98t-93.5 56t-106 19q-77 0 -152 -34.5t-130.5 -92t-83.5 -139t-13 -168.5h-2z" />
<glyph unicode="7" horiz-adv-x="1218" d="M133 1139l82 458h1042v-100h-958l-61 -358h-105zM238 -74q-3 452 483 1065l297 375h-610l-39 -227h-103l58 329h905l-428 -540q-466 -584 -463 -1002h-100zM367 -74q-2 206 109.5 447.5t344.5 537.5l449 564l80 -64l-449 -561q-224 -285 -329 -510t-103 -414h-102z" />
<glyph unicode="8" horiz-adv-x="1398" d="M47 424q0 79 23.5 148.5t61.5 120.5t93.5 96.5t111 76.5t122.5 60q-199 153 -199 374q0 142 82 256t215 175t289 61q113 0 210.5 -35.5t164 -96t104 -141.5t37.5 -171q0 -290 -338 -459q250 -160 250 -408q0 -100 -35.5 -185.5t-97 -146.5t-145 -104.5t-180 -64.5 t-200.5 -21q-250 0 -409.5 131t-159.5 334zM150 424q0 -160 127.5 -262.5t338.5 -102.5q152 0 276.5 48.5t201.5 146t77 227.5q0 78 -30 142.5t-88 114.5t-121.5 86.5t-151.5 74.5q73 24 130.5 47.5t127 64t115.5 85.5t77.5 110.5t31.5 141.5q0 141 -116 242.5t-300 101.5 q-129 0 -240 -50t-177.5 -140.5t-66.5 -201.5q0 -244 336 -397q-49 -15 -83 -26.5t-83 -30t-84 -35.5t-77.5 -41.5t-72 -49t-59.5 -57t-48 -68t-29.5 -79.5t-11.5 -92zM178 424q0 207 226 332q98 54 314 122l1 1h1h1l1 1h1h2l1 1h1h1l1 1h1h1l1 1h1h1l1 1h1h1l1 1h1 q93 -38 158.5 -73t125.5 -83.5t90 -110t30 -137.5q0 -122 -71.5 -212.5t-190 -135.5t-265.5 -45q-199 0 -318.5 94t-119.5 242zM279 424q0 -99 90.5 -166.5t246.5 -67.5q190 0 308 79t118 212q0 95 -77 163t-232 134q-61 -20 -98 -33t-91 -35t-86.5 -40.5t-70.5 -46 t-59 -55.5t-35 -65t-14 -79zM391 1300q0 103 61 187t165 130t229 46q175 0 281 -91.5t106 -223.5q0 -54 -17.5 -102.5t-43.5 -85t-69 -70.5t-82 -57.5t-95 -47.5t-95 -38t-94 -32q-346 146 -346 385zM492 1300q0 -162 253 -276q83 27 143.5 54t119.5 65.5t90.5 90.5 t31.5 114q0 87 -77.5 150t-206.5 63q-151 0 -252.5 -75.5t-101.5 -185.5z" />
<glyph unicode="9" horiz-adv-x="1353" d="M41 53l88 47q53 -95 147 -145.5t213 -50.5q111 0 211.5 48.5t176 130.5t136.5 189.5t99.5 227t59 240.5t20.5 233q0 117 -27.5 212t-73 157.5t-107 104.5t-126 60.5t-133.5 18.5q-95 0 -183 -38.5t-153.5 -106t-105 -166t-39.5 -211.5q0 -107 38.5 -194.5t100.5 -140 t135 -80.5t148 -28q166 0 309 105.5t188 269.5q-3 -110 -24.5 -225t-60 -228t-97 -212t-130 -175t-165 -120t-197.5 -44q-112 0 -198.5 46t-136.5 135l90 47q75 -125 245 -125q89 0 169.5 42t144 116.5t112.5 167t84 202.5q-155 -102 -333 -102q-72 0 -145 20.5t-141.5 65 t-121.5 106.5t-85 153t-32 198q0 135 47.5 252.5t127.5 198.5t186.5 127t222.5 46q82 0 160.5 -22t153 -72.5t130 -124.5t89.5 -186.5t34 -249.5q0 -104 -15.5 -215t-49 -225.5t-80.5 -220.5t-114.5 -199t-147 -161.5t-181.5 -108.5t-215 -40q-146 0 -263.5 63.5 t-184.5 186.5zM272 1004q0 144 62.5 258.5t165.5 175.5t225 61q70 0 134 -19.5t122 -60t101.5 -111t64.5 -163.5h-2q18 -112 -17 -217t-105.5 -178t-165 -116.5t-191.5 -43.5q-71 0 -139.5 25.5t-126 74.5t-93 130.5t-35.5 183.5zM373 1004q0 -77 25.5 -138t68 -98t94 -56.5 t105.5 -19.5q77 0 152 34.5t130.5 92t83 139t12.5 168.5h3q-32 140 -120 205.5t-202 65.5q-146 0 -249 -109.5t-103 -283.5z" />
<glyph unicode=":" horiz-adv-x="610" d="M29 147q0 75 54 130t130 55q75 0 129.5 -55t54.5 -130t-54.5 -129.5t-129.5 -54.5q-76 0 -130 54.5t-54 129.5zM125 147q0 -36 26 -62t62 -26q35 0 60.5 26.5t25.5 61.5q0 36 -25.5 62.5t-60.5 26.5q-36 0 -62 -26.5t-26 -62.5zM154 147q0 25 16.5 42.5t42.5 17.5 q24 0 40.5 -17.5t16.5 -42.5t-16 -42t-41 -17t-42 17t-17 42zM156 860q0 75 54 129.5t130 54.5q75 0 129.5 -54.5t54.5 -129.5t-54.5 -129.5t-129.5 -54.5q-76 0 -130 54.5t-54 129.5zM252 860q0 -36 26 -62t62 -26q35 0 60.5 26.5t25.5 61.5t-25.5 61.5t-60.5 26.5 q-36 0 -62 -26t-26 -62zM281 860q0 25 16.5 42.5t42.5 17.5q24 0 40.5 -17.5t16.5 -42.5t-16 -42t-41 -17t-42 17t-17 42z" />
<glyph unicode=";" horiz-adv-x="622" d="M-55 -203q106 87 180 189q-32 15 -61 58.5t-29 102.5q0 77 53 131t131 54q73 0 128.5 -55t55.5 -154q0 -67 -33 -143t-80 -136.5t-94.5 -111.5t-80.5 -79l-33 -28l-59 76q12 9 31 26t68.5 67t87 98.5t68.5 114t31 120.5q0 53 -27.5 81t-64.5 28q-36 0 -62 -26.5 t-26 -62.5q0 -31 16 -51t31 -24l12 26q-10 4 -20 17t-10 32q0 24 17.5 42t41.5 18q27 0 45.5 -20.5t18.5 -59.5q0 -52 -28.5 -112t-69.5 -109.5t-81.5 -92t-69.5 -65.5l-28 -24zM160 860q0 75 54 129.5t130 54.5q75 0 129.5 -54.5t54.5 -129.5t-54.5 -129.5t-129.5 -54.5 q-76 0 -130 54.5t-54 129.5zM256 860q0 -36 26 -62t62 -26q35 0 60.5 26.5t25.5 61.5t-25.5 61.5t-60.5 26.5q-36 0 -62 -26t-26 -62zM285 860q0 25 16.5 42.5t42.5 17.5q24 0 40.5 -17.5t16.5 -42.5t-16 -42t-41 -17t-42 17t-17 42z" />
<glyph unicode="&#x3c;" horiz-adv-x="1193" d="M106 649l50 88l776 -448l-49 -88zM115 854l936 449l43 -93l-936 -448zM195 748l911 438l45 -92l-739 -355l585 -338l-51 -88z" />
<glyph unicode="=" horiz-adv-x="1191" d="M88 391l16 101h916l-16 -101h-916zM111 520l16 101h917l-18 -101h-915zM174 881l16 100h916l-16 -100h-916zM197 1010l16 100h917l-18 -100h-915z" />
<glyph unicode="&#x3e;" horiz-adv-x="1196" d="M74 406l739 354l-586 338l52 88l751 -434l-911 -439zM131 289l936 448l43 -92l-936 -448zM293 1210l49 88l776 -448l-49 -88z" />
<glyph unicode="?" horiz-adv-x="1083" d="M172 147q0 75 54 130t130 55q75 0 130 -55t55 -130t-55 -129.5t-130 -54.5q-76 0 -130 54.5t-54 129.5zM180 1174q17 199 163.5 326.5t338.5 127.5q184 0 300 -112.5t116 -274.5q0 -53 -13 -102.5t-33 -88.5t-52.5 -78t-62 -66t-72 -57t-71.5 -48t-71 -43 q-133 -78 -181 -117.5t-40 -81.5l10 -59l-98 -17l-11 58q-7 39 3 73.5t31 61.5t57.5 56t71.5 51t85 51l21 12q59 33 96 56.5t85.5 63t76 76.5t47.5 89t20 110q0 120 -88 203.5t-227 83.5q-154 0 -271 -102t-130 -261zM268 147q0 -36 26 -62t62 -26q35 0 60.5 26.5t25.5 61.5 q0 36 -25.5 62.5t-60.5 26.5q-36 0 -62 -26.5t-26 -62.5zM274 518q-11 64 4 121.5t43.5 98t78.5 82t89 66t96 57.5q15 9 23 13q53 31 85.5 52t70 50t57.5 54.5t33.5 59t13.5 69.5q0 68 -49.5 112t-136.5 44q-107 0 -185 -67.5t-85 -174.5l-103 8q13 149 120 242.5t253 93.5 q130 0 208.5 -74t78.5 -184q0 -45 -11.5 -84.5t-35.5 -74t-49.5 -61.5t-66.5 -56t-71 -48t-78 -47q-133 -80 -172 -109q-115 -89 -113 -190q0 -17 3 -34l10 -58l-100 -18zM297 147q0 25 16.5 42.5t42.5 17.5q25 0 41.5 -17.5t16.5 -42.5t-16.5 -42t-41.5 -17t-42 17t-17 42z " />
<glyph unicode="@" horiz-adv-x="2015" d="M66 461q0 136 40 268t109.5 243.5t168 206.5t212 161t244 103.5t262.5 37.5q229 0 413 -100.5t286 -272.5t102 -379q0 -128 -36 -239t-96.5 -187t-141 -119t-169.5 -43q-164 0 -254 107q-138 -107 -305 -107q-164 0 -272.5 112t-108.5 275q0 128 70.5 240t184 176 t239.5 64q139 0 246 -86l20 71h104l-94 -329q-14 104 -90.5 173.5t-185.5 69.5q-99 0 -190 -52t-147 -140t-56 -187q0 -121 79.5 -202.5t200.5 -81.5q99 0 190 52t146 138q1 -87 62.5 -138.5t160.5 -51.5q141 0 241.5 134t100.5 351q0 134 -52 254t-143.5 207.5 t-222.5 138.5t-282 51q-177 0 -348 -74.5t-300 -198t-208.5 -294.5t-79.5 -352q0 -191 86.5 -349t243 -250.5t350.5 -92.5q216 0 416 102l47 -90q-221 -113 -463 -113q-169 0 -315 62.5t-247.5 169t-159.5 252.5t-58 309zM195 461q0 177 76.5 342.5t201.5 285t291 191.5 t338 72q194 0 348.5 -83t239 -225t84.5 -315q0 -202 -94 -329.5t-220 -127.5q-105 0 -157.5 66.5t-24.5 167.5l137 487h105l-144 -514q-29 -106 84 -106q81 0 147 98.5t66 257.5q0 146 -71 264t-202 187t-298 69q-153 0 -300 -64t-258 -170t-179 -252.5t-68 -301.5 q0 -159 68.5 -287t194.5 -202t286 -74q183 0 358 88l45 -90q-206 -99 -403 -99q-189 0 -338.5 88t-231 239.5t-81.5 336.5zM649 528q0 141 111 246t254 105q112 0 182 -73.5t70 -184.5q0 -93 -52 -174t-136 -128t-177 -47q-112 0 -182 72.5t-70 183.5zM750 528 q0 -69 42 -112t109 -43q102 0 183 75t81 173q0 70 -41.5 113.5t-109.5 43.5q-102 0 -183 -76t-81 -174z" />
<glyph unicode="A" horiz-adv-x="1748" d="M-150 0l17 100h629l-17 -100h-629zM-127 129l16 102h201l838 1399l86 -53l-869 -1448h-272zM178 129l262 436h820l108 -436h-324l19 102h178l-59 234h-684l-142 -234h164l-18 -102h-324zM459 594l561 936l233 -936h-794zM635 694h489l-143 576zM1022 0l16 100h631 l-16 -100h-631zM1040 1573l97 26l342 -1368h215l-19 -102h-274z" />
<glyph unicode="B" horiz-adv-x="1619" d="M-31 0l17 100h925q136 0 251 61t180 159t65 208q0 117 -72.5 205.5t-185.5 120.5q125 34 209 133t84 215q0 125 -85 210t-206 85h-920l19 100h901q163 0 277 -113t114 -282q0 -101 -47.5 -192.5t-130.5 -157.5q143 -130 143 -324q0 -104 -46.5 -201t-125.5 -169 t-190.5 -115t-233.5 -43h-942zM-8 129l16 102h199l201 1135h-199l18 102h299l-233 -1339h-301zM322 129l124 711h611q137 -5 229 -92.5t92 -219.5q0 -104 -60.5 -195.5t-169 -147.5t-237.5 -56h-589zM440 231h471q153 0 259 90t106 207q0 89 -63 148.5t-160 62.5h-523z M451 868l106 600h594q111 0 186.5 -75t75.5 -191q0 -129 -104.5 -229.5t-251.5 -104.5h-606zM571 971h471q110 0 190.5 70.5t80.5 160.5q0 73 -46 118.5t-116 45.5h-510z" />
<glyph unicode="C" horiz-adv-x="1640" d="M84 748q0 142 47 276.5t131 242.5t195 190t245.5 126.5t274.5 44.5q127 0 247 -40t210 -113l22 122h105l-68 -378q-27 92 -106 163.5t-186.5 108.5t-223.5 37q-155 0 -301 -63t-253.5 -167.5t-173 -249t-65.5 -300.5q0 -138 52 -263t140.5 -216t213.5 -145t264 -54 q317 0 576 223l67 -76q-139 -121 -306.5 -184.5t-336.5 -63.5q-161 0 -304.5 62t-245 166.5t-161 248.5t-59.5 302zM213 748q0 202 105.5 375.5t281.5 274.5t377 101q129 0 241.5 -43.5t184.5 -127t76 -189.5l-39 -226h-105l41 236q-13 105 -129 176.5t-270 71.5 q-173 0 -326 -88t-244.5 -238.5t-91.5 -322.5q0 -113 41.5 -214t112.5 -174t171.5 -116t213.5 -43q272 0 489 190l68 -76q-246 -217 -557 -217q-180 0 -327.5 87t-230.5 236t-83 327zM1468 913l121 684h103l-121 -684h-103z" />
<glyph unicode="D" horiz-adv-x="1708" d="M-31 0l17 100h772q237 0 423.5 111t287 298t100.5 413q0 270 -170.5 422.5t-444.5 152.5h-723l19 100h704q153 0 283.5 -45.5t226.5 -129.5t150.5 -212.5t54.5 -287.5q0 -189 -66 -357.5t-183.5 -293.5t-289 -198t-372.5 -73h-789zM-8 129l16 102h199l201 1135h-199 l18 102h299l-233 -1339h-301zM322 129l235 1339h397q266 0 426 -142.5t160 -403.5q0 -164 -56.5 -309.5t-156.5 -252.5t-247.5 -169t-321.5 -62h-436zM440 231h318q201 0 357.5 92t239.5 249t83 350q0 215 -128.5 329.5t-355.5 114.5h-315z" />
<glyph unicode="E" horiz-adv-x="1482" d="M-31 0l17 100h1224l62 359h104l-84 -459h-1323zM-8 129l16 102h199l201 1135h-199l18 102h299l-233 -1339h-301zM231 1497l19 100h1292l-82 -458h-102l65 358h-1192zM322 129l116 670h658l-17 -101h-557l-82 -467h662l39 228h102l-57 -330h-864zM444 827l113 641h834 l-62 -329h-102l43 227h-631l-76 -438h555l-16 -101h-658z" />
<glyph unicode="F" horiz-adv-x="1419" d="M-31 0l17 100h628l-16 -100h-629zM-8 129l16 102h199l201 1135h-199l18 102h299l-233 -1339h-301zM231 1497l19 100h1292l-82 -458h-102l65 358h-1192zM322 129l110 629h637l-16 -101h-537l-76 -426h199l-18 -102h-299zM436 786l121 682h834l-62 -329h-102l43 227h-631 l-84 -479h537l-19 -101h-637z" />
<glyph unicode="G" horiz-adv-x="1693" d="M84 748q0 142 47 276.5t131 242.5t195 190t245.5 126.5t274.5 44.5q127 0 247 -40t210 -113l22 122h105l-68 -378q-27 92 -106 163.5t-186.5 108.5t-223.5 37q-155 0 -301 -63t-253.5 -167.5t-173 -249t-65.5 -300.5q0 -137 51.5 -262.5t138.5 -216.5t207.5 -145 t252.5 -54q169 0 313.5 70.5t245.5 189.5l-58 -330h-104l12 76q-190 -107 -409 -107q-205 0 -378 105t-272.5 284t-99.5 390zM213 748q0 202 105.5 375.5t281.5 274.5t377 101q129 0 241.5 -43.5t184.5 -127t76 -189.5l-29 -166h-104l30 176q-13 106 -128.5 177t-270.5 71 q-173 0 -326 -88t-244.5 -238.5t-91.5 -322.5q0 -150 69.5 -276t189 -198.5t260.5 -72.5q146 0 266.5 60t206.5 167l32 180h-479l19 103h581l-57 -324v2q-98 -134 -244 -212.5t-325 -78.5q-170 0 -313 87t-225.5 236.5t-82.5 326.5zM883 739l18 101h711l-146 -840h-102 l129 739h-610zM1479 973l110 624h103l-111 -624h-102z" />
<glyph unicode="H" horiz-adv-x="1835" d="M-33 0l19 100h628l-16 -100h-631zM-10 129l18 102h199l201 1135h-199l16 102h301l-233 -1339h-303zM231 1497l17 100h631l-17 -100h-631zM322 129l116 670h996l-119 -670h-301l18 102h199l82 467h-791l-82 -467h199l-18 -102h-299zM444 827l113 641h299l-16 -102h-201 l-76 -438h789l78 438h-199l18 102h301l-112 -641h-994zM991 0l17 100h630l-16 -100h-631zM1255 1497l17 100h631l-17 -100h-631zM1343 129l238 1339h299l-18 -102h-199l-199 -1135h199l-18 -102h-302z" />
<glyph unicode="I" d="M-31 0l17 100h628l-16 -100h-629zM-8 129l16 102h199l201 1135h-199l16 102h301l-233 -1339h-301zM231 1497l17 100h631l-17 -100h-631zM322 129l235 1339h299l-16 -102h-201l-199 -1135h199l-18 -102h-299z" />
<glyph unicode="J" horiz-adv-x="1300" d="M1 267q3 68 24 130l94 -32q-22 -62 -22 -129q0 -63 23 -123q22 -61 64.5 -109.5t115.5 -78t167 -29.5q100 0 183 38t136 95.5t94 137t61.5 148.5t33.5 144l182 1038h-639l17 100h743l-203 -1157q-10 -57 -24.5 -110.5t-40 -120t-57.5 -123t-80 -111.5t-105 -93.5 t-134.5 -62.5t-166.5 -24q-98 0 -179 27.5t-135 74t-90.5 107t-50.5 128.5q-12 55 -12 111q0 12 1 24zM147 356l97 -32q-16 -40 -16 -81q0 -12 1 -24q6 -53 29.5 -95.5t78.5 -69.5t130 -27q72 0 132 28.5t99.5 72t71 106t49 120.5t29.5 125l156 887h-508l16 102h612 l-178 -1005q-13 -74 -32.5 -140t-58 -142.5t-88.5 -130.5t-127.5 -90t-172.5 -36q-85 0 -152 27t-106.5 72t-60.5 101t-21 114q0 60 20 118z" />
<glyph unicode="K" horiz-adv-x="1615" d="M-31 0l17 100h628l-16 -100h-629zM-8 129l16 102h199l201 1135h-199l18 102h299l-233 -1339h-301zM231 1497l19 100h629l-17 -100l-22 -131h-199l-96 -547l608 547h-66l19 102h311l-1022 -917l162 917h299l6 29h-631zM322 129l65 375l371 334l420 -738h319l-16 -100h-361 l-387 678l-254 -227l-39 -220h199l-18 -102h-299zM780 856l682 612h275l-19 -102h-219l-590 -530l344 -605h269l-19 -102h-309zM1112 1497l16 100h631l-16 -100h-631z" />
<glyph unicode="L" horiz-adv-x="1376" d="M-33 0l19 100h1163l63 359h103l-82 -459h-1266zM-10 129l18 102h199l201 1135h-199l16 102h301l-233 -1339h-303zM231 1497l17 100h631l-17 -100h-631zM322 129l235 1339h299l-16 -102h-201l-199 -1135h600l41 228h103l-60 -330h-802z" />
<glyph unicode="M" horiz-adv-x="2123" d="M-31 0l17 100h628l-16 -100h-629zM-8 129l16 102h199l201 1135h-199l18 102h299l-233 -1339h-301zM231 1497l19 100h375l397 -1062l776 1062h393l-16 -100h-326l-856 -1173l-438 1173h-324zM322 129l227 1298l426 -1140l-92 -33l-299 793l-144 -816h199l-18 -102h-299z M1001 285l830 1136l-225 -1292h-301l16 102h199l139 783l-576 -789zM1282 0l16 100h629l-16 -100h-629zM1634 129l236 1339h299l-17 -102h-198l-201 -1135h199l-19 -102h-299z" />
<glyph unicode="N" horiz-adv-x="1820" d="M-33 0l17 100h628l-16 -100h-629zM-10 129l16 102h199l201 1135h-201l18 102h301l-233 -1339h-301zM227 1497l19 100h366l664 -1220l172 989h-199l19 102h301l-244 -1396l-774 1425h-324zM319 129l230 1311l772 -1415l-90 -48l-633 1160l-160 -906h199l-19 -102h-299z M1272 1497l18 100h631l-16 -100h-633zM1348 29l251 1439h299l-18 -102h-197l-237 -1354z" />
<glyph unicode="O" horiz-adv-x="1785" d="M84 748q0 142 47 276.5t131 242.5t195 190t245.5 126.5t274.5 44.5q161 0 304.5 -61.5t245 -166.5t161 -248.5t59.5 -301.5q0 -177 -73 -340.5t-194.5 -281.5t-286 -188.5t-339.5 -70.5q-161 0 -304.5 62t-245 166.5t-161 248.5t-59.5 302zM184 748q0 -138 52 -263 t140.5 -216t213.5 -145t264 -54q155 0 301 63t253.5 167.5t173 249t65.5 300.5q0 138 -52 263t-140.5 216t-213.5 145t-264 54q-155 0 -301 -63t-253.5 -167.5t-173 -249t-65.5 -300.5zM213 748q0 202 105.5 375.5t281.5 274.5t377 101q180 0 327.5 -87t230.5 -235.5 t83 -326.5q0 -151 -62.5 -290.5t-166 -240.5t-244.5 -161t-291 -60q-180 0 -327.5 87t-230.5 236t-83 327zM315 748q0 -113 41.5 -214t112.5 -174t171.5 -116t213.5 -43q173 0 326.5 88t245.5 238.5t92 322.5q0 113 -41.5 214t-113.5 174t-172.5 116t-213.5 43 q-173 0 -326 -88t-244.5 -238.5t-91.5 -322.5z" />
<glyph unicode="P" horiz-adv-x="1585" d="M-31 0l17 100h628l-16 -100h-629zM-8 129l16 102h199l201 1135h-199l18 102h299l-233 -1339h-301zM231 1497l19 100h866q136 0 252 -61t185 -171t69 -245q0 -153 -86 -285.5t-237 -212t-330 -79.5h-473l-56 -312h199l-18 -102h-299l90 514h557q151 0 279 67t200 176.5 t72 233.5q0 159 -119 268t-285 109h-885zM418 672l139 796h559q157 0 266 -99t109 -249q0 -118 -67.5 -221t-188 -165t-266.5 -62h-551zM535 772h434q178 0 300 105t122 243q0 105 -79 175.5t-196 70.5h-477z" />
<glyph unicode="Q" horiz-adv-x="1785" d="M84 748q0 142 47 276.5t131 242.5t195 190t245.5 126.5t274.5 44.5q161 0 304.5 -61.5t245 -166.5t161 -248.5t59.5 -301.5q0 -251 -138 -461.5t-360 -322.5q15 -8 54 -30t61 -32q76 -40 127.5 -63t112.5 -41q51 -14 92 -14h14q45 3 93.5 26t90.5 70l74 -68 q-41 -45 -86.5 -73.5t-87.5 -41.5q-40 -12 -86 -12h-8q-50 1 -92.5 9t-97 28.5t-96 40t-99.5 49.5q-17 9 -68.5 36.5t-75.5 40t-64.5 32.5t-74 33t-65.5 22q138 21 262.5 91t216.5 171.5t146.5 235t54.5 274.5q0 138 -52 263t-140.5 216t-213.5 145t-264 54q-155 0 -301 -63 t-253.5 -167.5t-173 -249t-65.5 -300.5q0 -138 52 -263t140.5 -216t213.5 -145t264 -54q29 -1 58 -6.5t65 -18.5t59.5 -21.5t68.5 -31l62 -31t70.5 -37.5t65.5 -35q68 -35 118 -57t115 -44.5t120 -25.5q17 -2 35 -2q38 0 77 6q59 7 114.5 40t106.5 88l73 -66 q-62 -69 -131.5 -110t-140.5 -51q-52 -7 -100 -7q-20 0 -38 1q-67 4 -142 29.5t-130.5 50t-124.5 60.5q-15 8 -56.5 30.5t-57 31t-51 26.5t-53 25.5t-46.5 20t-48.5 18t-43 10.5t-43.5 6h-8q-160 1 -302.5 63.5t-243.5 167.5t-159.5 247.5t-58.5 300.5zM213 748 q0 202 105.5 375.5t281.5 274.5t377 101q180 0 327.5 -87t230.5 -235.5t83 -326.5q0 -151 -62.5 -290.5t-166 -240.5t-244.5 -161t-291 -60q-180 0 -327.5 87t-230.5 236t-83 327zM315 748q0 -113 41.5 -214t112.5 -174t171.5 -116t213.5 -43q173 0 326.5 88t245.5 238.5 t92 322.5q0 113 -41.5 214t-113.5 174t-172.5 116t-213.5 43q-173 0 -326 -88t-244.5 -238.5t-91.5 -322.5z" />
<glyph unicode="R" horiz-adv-x="1669" d="M-31 0l17 100h628l-16 -100h-629zM-8 129l16 102h199l201 1135h-199l18 102h299l-233 -1339h-301zM231 1497l19 100h909q130 0 240 -58t175.5 -163t65.5 -233q0 -132 -70.5 -251t-194.5 -198t-275 -96l196 -367h246l-18 -102h-289l-301 565h90q140 0 259.5 64t187 167 t67.5 218q0 149 -111 251.5t-268 102.5h-928zM322 129l100 565h481l299 -565h-309l18 102h123l-192 363h-338l-64 -363h199l-18 -102h-299zM426 723l131 745h602q148 0 249 -92.5t101 -232.5q0 -109 -63 -205.5t-175.5 -155.5t-246.5 -59h-598zM545 825h479 q162 0 273.5 96.5t111.5 221.5q0 95 -72 159t-178 64h-518zM870 0l17 100h631l-17 -100h-631z" />
<glyph unicode="S" horiz-adv-x="1361" d="M-10 0l110 627h103l-111 -627h-102zM121 0l59 338q70 -121 203.5 -194.5t302.5 -73.5q200 0 316 99.5t116 252.5q0 45 -13 86.5t-31.5 72.5t-52 62t-59 50.5t-69.5 43.5t-67.5 35t-67.5 30.5t-56 24.5q-65 31 -108 53.5t-93 57t-79 68t-48.5 80.5t-19.5 100 q0 135 101.5 224t279.5 89q169 0 299 -79.5t164 -184.5l-45 -264h-104l45 254q-38 69 -137 120.5t-222 51.5q-135 0 -207.5 -59.5t-72.5 -151.5q0 -43 19 -79t62 -68.5t88.5 -57.5t123.5 -61q11 -5 56.5 -25.5t72.5 -33.5t75.5 -40.5t80 -52t70.5 -63t61.5 -78.5t38.5 -93.5 t16 -111.5q0 -193 -146.5 -323t-386.5 -130q-255 0 -442 146l-21 -115h-102zM188 381l43 246h103l-41 -230q54 -89 157.5 -142.5t235.5 -53.5q143 0 222 63.5t79 157.5q0 38 -17 72t-37.5 56.5t-63.5 49.5t-67.5 39.5t-80 38t-72.5 33.5q-48 22 -84 40t-83 46.5t-81 55 t-69.5 64t-58 76.5t-36.5 89t-14 104q0 187 140.5 314.5t371.5 127.5q229 0 406 -127l18 96h105l-56 -311q-58 100 -187.5 171t-285.5 71q-187 0 -298 -99t-111 -243q0 -58 21.5 -109t52.5 -87.5t84 -73t96.5 -59.5t109.5 -54q16 -8 55.5 -26t65 -30t65.5 -33.5t66 -40.5 t56.5 -47.5t49 -57.5t30.5 -67t12 -79q0 -140 -108 -232t-296 -92q-173 0 -305 78.5t-193 204.5zM1182 971l110 626h103l-111 -626h-102z" />
<glyph unicode="T" horiz-adv-x="1486" d="M111 1139l84 458h1421l-82 -458h-102l63 358h-1216l-66 -358h-102zM242 1139l61 329h563l-233 -1339h-301l16 102h201l199 1135h-361l-41 -227h-104zM309 0l17 100h630l-16 -100h-631zM662 129l235 1339h565l-59 -329h-103l43 227h-362l-201 -1135h199l-16 -102h-301z " />
<glyph unicode="U" horiz-adv-x="1753" d="M156 1366l18 102h301l-151 -866q-8 -45 -8 -87q0 -96 39 -181q56 -123 172 -193.5t264 -70.5q118 0 225.5 47t184.5 123.5t128.5 169.5t67.5 188l153 870h299l-18 -102h-199l-137 -784q-19 -110 -77.5 -218t-147.5 -196.5t-214.5 -143.5t-264.5 -55q-88 0 -170.5 23 t-149.5 65t-121 101t-86.5 131.5t-44.5 156.5q-5 36 -5 73q0 50 9 102l131 745h-198zM180 1497l17 100h630l-16 -100h-631zM352 598l154 870h299l-19 -102h-198l-137 -784q-6 -32 -6 -63q0 -68 28 -129q40 -88 125 -138.5t193 -50.5q93 0 177.5 36.5t145 96.5t101.5 134.5 t55 152.5l129 745h-197l17 102h301l-152 -866q-16 -92 -65 -181t-121.5 -161.5t-175 -117t-215.5 -44.5q-103 0 -192.5 39.5t-149.5 106.5t-87 160q-17 57 -17 117q0 38 7 77zM1225 1497l16 100h631l-17 -100h-630z" />
<glyph unicode="V" horiz-adv-x="1728" d="M80 1366l18 102h275l356 -1443l-96 -25l-340 1366h-213zM104 1497l17 100h629l-17 -100h-629zM403 1468h324l-18 -102h-179l258 -1040l627 1040h-164l19 102h323l-843 -1405zM756 18l872 1450h273l-19 -102h-199l-841 -1399zM1276 1497l16 100h631l-16 -100h-631z" />
<glyph unicode="W" horiz-adv-x="2437" d="M90 1366l19 102h274l221 -1443l-98 -15l-211 1356h-205zM115 1497l16 100h629l-19 -100h-626zM412 1468h325l-18 -102h-191l152 -985l547 999l90 -49l-690 -1261zM631 20l690 1264l246 -1259l-101 -19l-190 981l-555 -1016zM1343 1327l99 19l186 -967l502 987h-176 l16 102h328l-711 -1398zM1593 20l736 1448h270l-16 -102h-193l-709 -1391zM1976 1497l17 100h628l-16 -100h-629z" />
<glyph unicode="X" horiz-adv-x="1603" d="M-111 0l19 100h627l-17 -100h-629zM-88 129l18 102h211l547 613l-282 522h-238l18 102h279l346 -639l-625 -700h-274zM190 1497l19 100h631l-19 -100h-631zM223 129l602 674l367 -674h-320l19 102h129l-215 396l-354 -396h106l-16 -102h-318zM496 1468h321l-18 -102h-131 l184 -340l305 340h-108l18 102h315l-551 -618zM846 823l575 645h277l-19 -102h-211l-497 -555l313 -580h238l-19 -102h-278zM850 0l16 100h631l-16 -100h-631zM1073 1497l17 100h630l-18 -100h-629z" />
<glyph unicode="Y" horiz-adv-x="1581" d="M86 1366l18 102h277l381 -835l-90 -504h-301l16 102h199l69 385l-342 750h-227zM109 1497l16 100h629l-17 -100h-628zM346 0l19 100h628l-16 -100h-631zM410 1468h321l-18 -102h-146l236 -514l416 514h-125l18 102h322l-654 -806zM700 129l91 502l675 837h277l-19 -102 h-206l-635 -784l-62 -351h197l-19 -102h-299zM1118 1497l17 100h630l-16 -100h-631z" />
<glyph unicode="Z" horiz-adv-x="1488" d="M-55 201l1245 1165h-733l-41 -227h-103l60 329h1073l-1434 -1343zM23 0v100h1177l62 359h104l-82 -459h-1261zM59 129l1434 1344l70 -76l-1246 -1166h775l38 228h103l-57 -330h-1117zM182 1139l82 458h1219v-100h-1135l-63 -358h-103z" />
<glyph unicode="[" horiz-adv-x="755" d="M-37 -551l418 2382h537l-19 -100h-434l-381 -2182h430l-16 -100h-535zM117 -422l372 2124h404l-16 -100h-304l-337 -1924h303l-19 -100h-403z" />
<glyph unicode="\" horiz-adv-x="1533" d="M248 1794h106l781 -2310h-105zM387 1794h105l782 -2310h-107z" />
<glyph unicode="]" horiz-adv-x="747" d="M-184 -551l18 100h434l381 2182h-430l17 100h534l-418 -2382h-536zM-160 -422l17 100h303l338 1924h-303l18 100h403l-372 -2124h-404z" />
<glyph unicode="^" horiz-adv-x="1208" d="M129 928l541 694l80 -61l-541 -695zM233 850l525 674l284 -697l-92 -39l-221 537l-416 -537zM774 1556l92 41l295 -720l-92 -37z" />
<glyph unicode="_" horiz-adv-x="1439" d="M-61 -340l18 100h1167l-16 -100h-1169zM-39 -211l19 100h1169l-19 -100h-1169z" />
<glyph unicode="`" horiz-adv-x="305" d="M-326 1577l60 80l426 -324l-60 -80zM-248 1679l60 82l426 -323l-60 -80z" />
<glyph unicode="a" horiz-adv-x="1257" d="M4 367q0 76 29.5 146.5t88.5 131.5t162.5 98t237.5 37q132 0 305 -43l4 23q2 14 2 26q-1 24 -9 42q-14 28 -36 43.5t-57 24t-59.5 10t-53.5 1.5q-98 0 -197.5 -21t-154.5 -44l-39 94q59 25 171.5 49.5t219.5 24.5q48 0 89 -5.5t81.5 -18t68.5 -34t49 -53.5q22 -31 26 -75 q1 -14 1 -31q0 -32 -5 -70l-21 -113q-217 70 -385 70q-109 0 -192.5 -28.5t-131 -75t-71 -100t-23.5 -109.5q0 -55 21.5 -105.5t61.5 -91.5t103.5 -65.5t141.5 -24.5q100 0 207 37.5t199 101.5l-21 -119h326l-17 -100h-430l6 35q-138 -55 -270 -55q-102 0 -185 33t-135 88 t-80 123.5t-28 142.5zM133 367q0 53 21 101.5t65 90.5t122 67t181 25q152 0 381 -69l-57 -322q-94 -70 -202 -110.5t-212 -40.5q-144 0 -221.5 75t-77.5 183zM174 1053q67 30 195.5 58t248.5 28q81 0 150 -13.5t132 -44.5t101 -81q38 -52 56 -126q9 -35 8 -76q0 -46 -10 -98 l-82 -469h194l-18 -102h-299l106 590q6 36 6 68q0 33 -6 62q-14 57 -45.5 92t-80.5 57.5t-100.5 31t-111.5 8.5q-111 0 -225.5 -24.5t-177.5 -52.5zM236 367q0 -68 49.5 -112t146.5 -44q163 0 320 106l34 193q-147 39 -264 39q-149 0 -217.5 -53.5t-68.5 -128.5z" />
<glyph unicode="b" horiz-adv-x="1458" d="M-82 0l16 100h328l60 346q28 -159 149.5 -262.5t286.5 -103.5q136 0 256.5 69t193 188.5t72.5 256.5q0 185 -127.5 315.5t-312.5 130.5q-143 0 -268 -75.5t-193 -198.5l137 780h-328l17 101h430l-105 -588q146 84 310 84q150 0 275 -74t196 -200t71 -275q0 -125 -51 -239 t-136 -196t-199.5 -130.5t-237.5 -48.5q-231 0 -387 159l-25 -139h-428zM-59 129l16 102h197l208 1184h-198l18 103h301l-245 -1389h-297zM344 528q0 130 68.5 242t183 177t244.5 65q176 0 293.5 -121t117.5 -297q0 -131 -68 -243.5t-181.5 -177t-243.5 -64.5 q-178 0 -296 120.5t-118 298.5zM446 528q0 -135 89.5 -226t222.5 -91q158 0 275.5 113.5t117.5 269.5q0 134 -89 225.5t-222 91.5q-157 0 -275.5 -114t-118.5 -269z" />
<glyph unicode="c" horiz-adv-x="1202" d="M35 526q0 166 86.5 309t230 225.5t307.5 82.5q146 0 275 -74l8 51h102l-45 -262q-36 82 -134 132t-206 50q-136 0 -257 -69t-194 -188.5t-73 -256.5q0 -187 128.5 -316.5t326.5 -129.5q209 0 420 147l59 -82q-110 -78 -237 -121.5t-242 -43.5q-160 0 -288 73.5 t-197.5 198t-69.5 274.5zM164 526q0 131 68.5 243.5t182.5 177.5t244 65q80 0 153.5 -27.5t122.5 -80t52 -118.5l-35 -198h-102l35 205q-11 47 -77 82.5t-149 35.5q-157 0 -275 -114.5t-118 -270.5q0 -137 89 -226t235 -89q171 0 344 121l57 -82q-201 -141 -401 -141 q-189 0 -307.5 119.5t-118.5 297.5zM981 588l92 532h105l-95 -532h-102z" />
<glyph unicode="d" horiz-adv-x="1454" d="M35 528q0 165 86.5 307.5t230 225t307.5 82.5q113 0 213.5 -43.5t174.5 -120.5l77 436h-198l18 103h299l-149 -854q-25 161 -147 268.5t-288 107.5q-136 0 -257 -69t-194 -188t-73 -255q0 -122 58 -225t160 -163t225 -60q145 0 270 77.5t192 204.5l-45 -262h326l-16 -100 h-431l11 61q-141 -81 -307 -81q-152 0 -277 73.5t-195.5 199t-70.5 275.5zM164 528q0 130 68.5 242t182.5 177t244 65q176 0 294 -121t118 -297q0 -131 -68 -243.5t-181.5 -177t-243.5 -64.5q-178 0 -296 120.5t-118 298.5zM266 528q0 -135 89.5 -226t222.5 -91 q158 0 275.5 113.5t117.5 269.5q0 134 -89.5 225.5t-222.5 91.5q-157 0 -275 -114t-118 -269zM948 1546l19 101h430l-248 -1416h194l-16 -102h-299l248 1417h-328z" />
<glyph unicode="e" horiz-adv-x="1163" d="M35 526q0 167 87 310t233 225t315 82q182 0 294.5 -97t112.5 -249q0 -102 -52 -182t-140 -129t-197.5 -74t-232.5 -25q-76 0 -164 10q35 -87 113.5 -136.5t191.5 -49.5q163 0 305 117l64 -80q-175 -139 -369 -139t-312 117t-120 294q165 -33 291 -33q144 0 261 35 t189 106.5t72 168.5q0 109 -81.5 176t-225.5 67q-141 0 -264.5 -69t-197 -187.5t-73.5 -257.5q0 -189 128 -317.5t333 -128.5q208 0 385 147l66 -80q-94 -76 -211.5 -121.5t-239.5 -45.5q-165 0 -294 74t-198 198t-69 274zM164 551q6 127 76 233t184.5 167t245.5 61 t204.5 -59t73.5 -156q0 -131 -139.5 -206t-353.5 -75q-137 0 -291 35zM281 631q93 -13 174 -13q173 0 283 52t110 127q0 50 -45.5 82t-132.5 32q-135 0 -243.5 -79.5t-145.5 -200.5z" />
<glyph unicode="f" horiz-adv-x="874" d="M-608 -219l100 -10q-1 -12 -1 -24q0 -66 27 -127q33 -73 109 -123t180 -50q73 0 133.5 21t105 62t78.5 91t58.5 118t41 132t30.5 143l172 977h479l-16 -100h-377l-160 -897q-12 -71 -26 -131.5t-37.5 -128.5t-52.5 -122t-71 -105.5t-92.5 -86t-118.5 -55t-147 -20.5 q-84 0 -156.5 26t-121.5 69.5t-83 100t-47 117.5q-9 43 -9 84q0 20 2 39zM-479 -231l102 -11q-2 -12 -2 -24q0 -59 41 -104q50 -54 145 -54q59 0 106 23t79.5 61t58.5 98.5t43 125t33 151.5l152 856h-211l18 100h311l-172 -973q-17 -95 -36 -167t-52.5 -146t-76 -121.5 t-107 -77.5t-146.5 -30q-97 0 -166 45t-97 111q-24 54 -24 112q0 12 1 25zM90 1020l16 100h211l5 17q13 72 27 132t37.5 129t52 123t70.5 105.5t92 86t118 55t147 20.5q105 0 189.5 -39.5t135 -103.5t74.5 -141q19 -60 19 -119q0 -18 -2 -35l-100 10q1 14 1 28q0 64 -27 124 q-32 73 -108.5 123.5t-181.5 50.5q-87 0 -157 -32.5t-115.5 -83t-81 -128.5t-55.5 -152.5t-37 -171.5l-19 -98h-311zM432 1020l17 94q14 79 29.5 140t38.5 126.5t54.5 112.5t72.5 86t97.5 58.5t124.5 19.5q98 0 167.5 -45t98.5 -110q22 -53 22 -110q0 -14 -1 -28l-102 10 q2 12 2 24q0 57 -42 103q-50 55 -145 55q-57 0 -103 -21.5t-78 -57.5t-57.5 -93.5t-42.5 -119t-32 -144.5h377l-19 -100h-479z" />
<glyph unicode="g" horiz-adv-x="1447" d="M35 528q0 165 86.5 307.5t230 225t307.5 82.5q112 0 212 -43t176 -119l24 139h428l-18 -100h-326l-61 -352q-27 160 -149 266t-286 106q-136 0 -257 -69t-194 -188t-73 -255q0 -122 58 -225t160 -163t225 -60q143 0 268 77t192 203l-67 -395q-13 -74 -33 -140t-58.5 -141 t-88.5 -128t-128.5 -88t-173.5 -35q-83 0 -147 24.5t-100.5 65t-55 86.5t-18.5 94q0 59 18 104l95 -43q-11 -22 -11 -61q0 -69 54 -119.5t165 -50.5q299 0 381 449l15 79q-146 -81 -307 -81q-152 0 -277 73.5t-195.5 199t-70.5 275.5zM39 -297q0 85 31 158l92 -41 q-23 -48 -23 -117q0 -52 20.5 -102.5t60.5 -95.5t110 -73t159 -28q101 0 184 37.5t136.5 93.5t94 134.5t61.5 147t34 144.5l181 1030h295l-17 -100h-194l-166 -950q-10 -56 -24.5 -109t-40 -119t-57.5 -122t-80 -110.5t-105 -93t-135 -62t-167 -23.5q-92 0 -169 25t-128 66 t-86.5 94t-51 107.5t-15.5 108.5zM164 528q0 130 68.5 242t182.5 177t244 65q176 0 294 -121t118 -297q0 -131 -68 -243.5t-181.5 -177t-243.5 -64.5q-178 0 -296 120.5t-118 298.5zM266 528q0 -135 89.5 -226t222.5 -91q158 0 275.5 113.5t117.5 269.5q0 134 -89.5 225.5 t-222.5 91.5q-157 0 -275 -114t-118 -269z" />
<glyph unicode="h" horiz-adv-x="1419" d="M-82 0l16 100h625l-16 -100h-625zM-59 129l16 102h197l208 1184h-198l18 103h301l-245 -1389h-297zM188 1546l17 101h430l-103 -586q151 82 297 82q64 0 124 -19t115.5 -59t91 -102.5t50.5 -148.5q6 -36 6 -76q0 -56 -12 -122l-67 -385h196l-18 -102h-299l90 504 q8 57 8 106q0 45 -7 83q-15 78 -60 126t-100 70t-118 22q-113 0 -228 -58t-212 -157l127 721h-328zM266 129l113 643q98 111 215.5 175.5t234.5 64.5q58 0 107.5 -20t89.5 -64t53 -116q6 -33 6 -74q0 -46 -8 -101l-94 -537h326l-17 -100h-428l115 655q7 44 7 80 q0 75 -30 115q-45 62 -127 61q-88 0 -180.5 -48.5t-175.5 -135.5l-86 -496h197l-19 -102h-299z" />
<glyph unicode="i" horiz-adv-x="729" d="M-49 0l18 100h623l-17 -100h-624zM-25 129l17 102h194l117 660h-197l17 100h301l-152 -862h-297zM129 1020l18 100h431l-158 -889h196l-18 -102h-297l156 891h-328zM315 1458q0 75 54.5 129.5t130.5 54.5q75 0 129.5 -54.5t54.5 -129.5t-54.5 -129.5t-129.5 -54.5 q-76 0 -130.5 54.5t-54.5 129.5zM412 1458q0 -36 26 -62t62 -26q35 0 60.5 26.5t25.5 61.5t-25.5 61.5t-60.5 26.5q-36 0 -62 -26t-26 -62zM440 1458q0 25 17 42.5t43 17.5q24 0 40.5 -17.5t16.5 -42.5t-16 -42t-41 -17t-42.5 17t-17.5 42z" />
<glyph unicode="j" horiz-adv-x="624" d="M-522 -301q0 85 30 156l93 -41q-23 -48 -23 -115q0 -43 15.5 -84t45.5 -76.5t81 -57.5t116 -22t120.5 23t95 64.5t70.5 90t52.5 108t34.5 108.5t22 102l187 1065h-328l16 100h433l-209 -1186q-9 -49 -20 -94.5t-31.5 -105t-46 -110t-64.5 -101t-85 -85.5t-110 -57 t-137 -22q-91 0 -162.5 31.5t-112.5 82t-62 108.5t-21 118zM-393 -301q0 57 18 102l94 -43q-10 -20 -10 -59q0 -48 31 -79.5t96 -31.5q195 0 266 387l162 916h-196l16 100h301l-182 -1032q-12 -64 -27 -120t-44.5 -123.5t-67.5 -115t-97 -80t-131 -32.5q-114 0 -171.5 63 t-57.5 148zM272 1458q0 75 54.5 129.5t130.5 54.5q75 0 129.5 -54.5t54.5 -129.5t-54.5 -129.5t-129.5 -54.5q-76 0 -130.5 54.5t-54.5 129.5zM369 1458q0 -36 26 -62t62 -26q35 0 60.5 26.5t25.5 61.5t-25.5 61.5t-60.5 26.5q-36 0 -62 -26t-26 -62zM397 1458q0 25 17 42.5 t43 17.5q24 0 40.5 -17.5t16.5 -42.5t-16 -42t-41 -17t-42.5 17t-17.5 42z" />
<glyph unicode="k" horiz-adv-x="1333" d="M-82 0l16 100h596l-16 -100h-596zM-59 129l16 102h197l208 1184h-198l18 103h301l-245 -1389h-297zM188 1546l17 101h430l-107 -603q182 99 344 99q150 0 248.5 -95t98.5 -233q0 -128 -88 -240.5t-265 -187.5l95 -156h266l-19 -102h-305l-184 311q200 60 299.5 161.5 t99.5 213.5q0 95 -69.5 161t-176.5 66q-234 0 -483 -221l127 725h-328zM266 129l115 643q256 242 491 242q98 0 158 -56.5t60 -142.5q0 -107 -97.5 -201t-300.5 -149l-28 96q167 46 245 114.5t78 139.5q0 42 -31 70t-84 28q-184 0 -399 -192l-86 -490h168l-18 -102h-271z M598 391l86 51l203 -342h315l-16 -100h-357z" />
<glyph unicode="l" horiz-adv-x="708" d="M90 1415l19 103h301l-193 -1096q-10 -50 -10 -92q-1 -24 3 -46q10 -58 30 -97.5t52 -63t62 -33.5t58 -10q88 0 178 76l65 -78q-122 -98 -243 -98q-33 0 -69 9t-76.5 30t-72 56t-56.5 86q-26 51 -30 120q-1 18 -1 37q0 55 10 122l172 975h-199zM115 1546l16 101h430 l-217 -1246q-8 -42 -8 -73q0 -24 5 -44q12 -42 30 -57.5t41 -15.5q25 0 44.5 8.5t53.5 36.5l63 -78q-83 -69 -161 -69q-26 0 -51.5 8.5t-53.5 29t-45 55.5q-16 34 -24 88q-2 18 -2 38q0 40 10 90l196 1128h-327z" />
<glyph unicode="m" horiz-adv-x="2031" d="M-47 0l16 100h625l-16 -100h-625zM-25 129l17 102h196l119 660h-198l16 100h301l-152 -862h-299zM131 1020l19 100h430l-9 -39q114 62 220 62q84 0 170 -38.5t141 -115.5q174 154 352 154q56 0 112 -16.5t111.5 -53t92.5 -94t55 -139.5q9 -39 8 -83q0 -50 -10 -106 l-76 -420h197l-19 -102h-297l94 541q9 46 9 86q0 30 -5 57q-12 62 -38.5 105t-67.5 70t-82.5 39.5t-83.5 12.5q-99 0 -200.5 -63t-188.5 -170q-9 60 -37.5 106.5t-68.5 73t-82.5 40t-85.5 13.5q-177 0 -365 -211l33 191h-328zM303 129l115 647q190 236 373 236 q51 0 97.5 -18t85.5 -56q40 -38 56 -106q9 -36 9 -77q0 -38 -7 -81l-100 -574h325l-16 -100h-428l119 690q6 37 6 67q0 65 -29 101q-43 52 -118 53q-123 0 -279 -180l-90 -500h196l-18 -102h-297zM965 129l96 541q7 37 7 70q0 11 -1 22q87 115 187.5 182.5t199.5 67.5 q40 0 77.5 -11t74 -35.5t59.5 -63.5t33 -96q4 -23 4 -50q0 -38 -8 -82l-99 -574h324l-16 -100h-428l120 690q6 37 6 67q0 65 -29 101q-43 52 -118 53q-67 0 -141.5 -48.5t-145.5 -135.5q0 -22 -8 -76l-74 -420h197l-18 -102h-299z" />
<glyph unicode="n" horiz-adv-x="1449" d="M-47 0l16 100h625l-16 -100h-625zM-25 129l17 102h196l117 660h-196l16 100h301l-154 -862h-297zM131 1020l19 100h430l-11 -57q150 80 295 80q64 0 124 -19t115.5 -59t91 -102.5t50.5 -148.5q6 -36 6 -76q0 -56 -12 -122l-68 -385h197l-18 -102h-299l90 504q8 57 8 106 q0 45 -7 83q-15 78 -60 126t-100 70t-118 22q-113 0 -228 -58t-212 -157l35 195h-328zM301 129l115 645q99 110 215.5 174t232.5 64q58 0 107.5 -20t89.5 -64t53 -116q6 -33 6 -74q0 -46 -8 -101l-94 -537h325l-16 -100h-428l115 655q7 44 7 80q0 75 -30 115q-45 62 -127 61 q-87 0 -180.5 -48.5t-173.5 -135.5l-88 -496h196l-18 -102h-299z" />
<glyph unicode="o" horiz-adv-x="1275" d="M35 528q0 165 86.5 307.5t230 225t307.5 82.5q150 0 275.5 -74t196.5 -200t71 -275q0 -125 -51 -239t-136 -196t-199.5 -130.5t-237.5 -48.5q-152 0 -277 73.5t-195.5 199t-70.5 275.5zM135 528q0 -122 58 -225t160 -163t225 -60q136 0 256.5 69t193 188.5t72.5 256.5 q0 185 -128 315.5t-313 130.5q-136 0 -257 -69t-194 -188t-73 -255zM164 528q0 130 68.5 242t182.5 177t244 65q176 0 294 -121t118 -297q0 -131 -68 -243.5t-181.5 -177t-243.5 -64.5q-178 0 -296 120.5t-118 298.5zM266 528q0 -135 89.5 -226t222.5 -91q158 0 275.5 113.5 t117.5 269.5q0 134 -89.5 225.5t-222.5 91.5q-157 0 -275 -114t-118 -269z" />
<glyph unicode="p" horiz-adv-x="1452" d="M-180 -526l16 100h625l-17 -100h-624zM-160 -397l17 102h198l209 1186h-198l16 100h301l-244 -1388h-299zM88 1020l18 100h431l-11 -61q146 84 308 84q150 0 275 -74t196 -200t71 -275q0 -125 -51 -239t-136 -196t-199.5 -130.5t-237.5 -48.5q-231 0 -387 159l-78 -434 h196l-16 -102h-299l147 846q28 -159 150 -264t287 -105q136 0 256.5 69t193 188.5t72.5 256.5q0 185 -127.5 315.5t-312.5 130.5q-143 0 -268.5 -76.5t-194.5 -199.5l45 256h-328zM338 528q0 130 68.5 242t183 177t244.5 65q176 0 293.5 -121t117.5 -297q0 -131 -68 -243.5 t-181.5 -177t-243.5 -64.5q-178 0 -296 120.5t-118 298.5zM440 528q0 -135 89.5 -226t222.5 -91q158 0 275.5 113.5t117.5 269.5q0 134 -89 225.5t-222 91.5q-157 0 -275.5 -114t-118.5 -269z" />
<glyph unicode="q" horiz-adv-x="1464" d="M35 528q0 165 86.5 307.5t230 225t307.5 82.5q112 0 212 -43t176 -119l24 139h428l-16 -100h-328l-61 -352q-27 160 -149 266t-286 106q-136 0 -257 -69t-194 -188t-73 -255q0 -122 58 -225t160 -163t225 -60q143 0 268 77t192 203l-131 -757h-299l17 102h196l64 356 q-146 -81 -307 -81q-152 0 -277 73.5t-195.5 199t-70.5 275.5zM164 528q0 130 68.5 242t182.5 177t244 65q176 0 294 -121t118 -297q0 -131 -68 -243.5t-181.5 -177t-243.5 -64.5q-178 0 -296 120.5t-118 298.5zM266 528q0 -135 89.5 -226t222.5 -91q158 0 275.5 113.5 t117.5 269.5q0 134 -89.5 225.5t-222.5 91.5q-157 0 -275 -114t-118 -269zM586 -526l18 100h623l-17 -100h-624zM936 -397l244 1388h297l-17 -100h-196l-209 -1186h196l-18 -102h-297z" />
<glyph unicode="r" horiz-adv-x="1107" d="M-55 0l18 100h625l-17 -100h-626zM-33 129l19 102h196l117 660h-199l17 100h301l-152 -862h-299zM123 1020l18 100h430l-16 -90q162 113 327 113q128 0 257 -68l-66 -383h-104l57 324q-61 22 -122 24h-20q-50 0 -94 -10q-52 -12 -103 -38t-92.5 -57t-79.5 -69t-65.5 -72 t-50.5 -69l52 295h-328zM295 129l90 520q13 24 31.5 52t46.5 64t60.5 69t73.5 66.5t85 56.5t95 39q47 15 95 16h9q53 -2 112 -17l-53 -303h-102l39 217q-66 -3 -132.5 -35.5t-117 -80.5t-86.5 -93.5t-58 -85.5l-67 -383h196l-18 -102h-299z" />
<glyph unicode="s" horiz-adv-x="1198" d="M-182 0l18 100h211l158 224q127 -119 242 -180.5t229 -61.5q123 0 212 88t89 211q0 80 -37 162.5t-81.5 137t-111 131t-96.5 120.5q-37 54 -47 108q-3 15 -3 29q1 41 19 83q26 58 87 105l63 -77q-66 -52 -66 -110q0 -39 29 -81q25 -35 94.5 -115t118 -141t90 -158 t41.5 -194q0 -166 -117.5 -282.5t-283.5 -116.5q-217 0 -453 190l-123 -172h-282zM-160 129l19 102h121l514 721q-21 66 -21 130q1 4 1 8q2 68 41 140.5t112 129.5l63 -80q-63 -49 -92 -109q-25 -51 -25 -100q0 -8 1 -17q5 -57 36 -112l-579 -813h-191zM221 346l406 569 q32 -45 97.5 -121t109 -129t79 -130.5t35.5 -153.5q0 -114 -79 -192t-193 -78q-109 0 -219.5 59t-235.5 176zM356 360q177 -149 320 -149q72 0 122 49.5t50 120.5q0 24 -5.5 49t-12 44.5t-23 47t-26 42.5t-34.5 46t-35 42.5t-41 47t-40 45.5z" />
<glyph unicode="t" horiz-adv-x="956" d="M41 891l16 100h303l-98 -563q-7 -49 -7 -90q0 -38 6 -70q13 -66 50.5 -108t82.5 -61t95 -19q52 0 101 20t94 63t72.5 122.5t27.5 185.5h101q0 -107 -25 -193t-64.5 -140.5t-93 -91t-106.5 -51.5t-107 -15q-66 0 -130 27.5t-116.5 81.5t-75.5 147q-12 50 -12 106 q0 49 9 104l78 445h-201zM63 1020l17 100h201l57 322l111 43l-82 -465h-304zM288 278q-5 27 -4 59q0 40 7 87l98 567h479l-16 -100h-377l-86 -483q-6 -36 -6 -66q0 -54 20 -84q31 -47 86 -47q69 0 117.5 60t48.5 200h101q0 -100 -24 -174t-64.5 -113t-85 -57t-93.5 -18 q-45 0 -84.5 17t-73 54.5t-43.5 97.5zM395 1020l84 477l111 43l-74 -420h377l-19 -100h-479z" />
<glyph unicode="u" horiz-adv-x="1406" d="M39 891l16 100h299l-88 -504q-9 -59 -9 -108q0 -44 7 -80q15 -77 60 -126t100 -71t119 -22q111 0 226.5 58t211.5 157l-35 -195h326l-17 -100h-430l11 57q-148 -77 -293 -77q-64 0 -124.5 19t-116 59t-91.5 102t-51 148q-6 36 -6 76q0 56 12 122l67 385h-194zM61 1020 l17 100h430l-115 -653q-8 -47 -8 -85q0 -71 29 -111q45 -62 129 -62q87 0 179 49t173 135l88 498h-197l17 100h301l-115 -645q-99 -110 -215 -173.5t-231 -63.5q-59 0 -109 20t-90 64.5t-52 115.5q-5 32 -5 69q0 47 8 105l92 537h-326zM809 1020l16 100h432l-157 -889h196 l-18 -102h-299l158 891h-328z" />
<glyph unicode="v" horiz-adv-x="1343" d="M10 891l19 100h262l250 -966l-99 -27l-229 893h-203zM35 1020l16 100h604l-18 -100h-602zM322 991h309l-17 -100h-163l147 -572l350 572h-151l16 100h311l-563 -928zM567 18l592 973h260l-16 -100h-189l-561 -924zM819 1020l19 100h606l-19 -100h-606z" />
<glyph unicode="w" horiz-adv-x="1884" d="M12 891l19 100h262l162 -966l-99 -17l-149 883h-195zM37 1020l16 100h604l-18 -100h-602zM322 991h311l-17 -100h-176l90 -531l349 601l86 -54l-488 -839zM481 18l492 844l190 -842l-98 -22l-135 592l-361 -621zM993 905l97 23l129 -576l280 539h-166l17 100h315 l-481 -928zM1190 16l506 975h260l-17 -100h-182l-477 -922zM1356 1020l18 100h606l-18 -100h-606z" />
<glyph unicode="x" horiz-adv-x="1308" d="M-76 0l19 100h540l-16 -100h-543zM-51 129l14 102h182l347 359l-183 301h-209l17 100h248l253 -418l-428 -444h-241zM123 1020l18 100h545l-18 -100h-545zM229 129l404 420l256 -420h-264l18 102h68l-95 154l-149 -154h41l-19 -102h-260zM397 991h265l-17 -100h-67 l77 -131l125 131h-41l17 100h262l-379 -395zM602 0l16 100h545l-16 -100h-545zM653 569l406 422h241l-16 -100h-182l-322 -334l199 -326h209l-19 -102h-245zM762 1020l18 100h545l-18 -100h-545z" />
<glyph unicode="y" horiz-adv-x="1396" d="M-354 -338l94 37q24 -59 61.5 -101.5t80.5 -65t85.5 -32.5t87.5 -10q129 0 249 94.5t245 296.5l676 1110h250l-17 -100h-178l-645 -1061q-139 -226 -279.5 -333t-300.5 -107q-55 0 -109.5 13t-112 42t-107 84.5t-80.5 132.5zM-231 -289l92 37q52 -127 194 -127 q91 0 182.5 76t200.5 252l17 28l-236 914h-205l19 100h264l264 -1032l-37 -61q-122 -199 -234 -289t-235 -90q-211 0 -286 192zM39 1020l16 100h607l-19 -100h-604zM328 991h309l-16 -100h-164l164 -641l391 641h-160l18 100h320l-606 -995zM877 1020l16 100h606l-18 -100 h-604z" />
<glyph unicode="z" horiz-adv-x="1206" d="M-41 203l838 688h-426l-33 -197h-105l54 297h790l-1054 -866zM31 0v100h874l58 326h104l-78 -426h-958zM72 129l1052 864l66 -78l-834 -684h441l34 195h103l-53 -297h-809zM102 694l76 426h938v-100h-854l-57 -326h-103z" />
<glyph unicode="{" horiz-adv-x="667" d="M-39 -205q0 59 22.5 129t45 116t61.5 114q16 28 40.5 69t37 63t26 49.5t19.5 48.5t6 40q0 39 -29 68t-86 32h-61l16 101h43q105 -4 161 -63.5t56 -137.5q0 -28 -7 -57.5t-24 -65t-30 -59.5t-41 -71t-41 -69q-56 -97 -85.5 -167.5t-29.5 -139.5q0 -105 76 -175.5 t215 -70.5h45l-16 -100h-29q-185 0 -288 100t-103 246zM66 653l18 101h8q96 0 156.5 57t60.5 129q0 36 -41 221q-26 132 -26 215q0 71 19 137.5t58.5 124.5t95 101t132 67.5t166.5 24.5h90l-19 -100h-71q-174 0 -272.5 -104t-98.5 -251q0 -71 25 -194q4 -22 13.5 -65t15 -68 t10 -56.5t4.5 -52.5q0 -53 -22 -104t-62 -92t-101 -66t-133 -25h-26zM90 -205q0 64 29 133t82 160q9 16 40.5 68.5t43 74t30.5 61.5t26 71t7 61q0 66 -41.5 126.5t-116.5 86.5q112 31 180 118.5t68 184.5q0 23 -5 57.5t-9 56t-15.5 71t-13.5 61.5q-24 118 -24 190 q0 140 89 233t253 93h65l-16 -100h-49q-119 0 -179.5 -63t-60.5 -163q0 -63 23 -168q3 -18 17 -82t21 -107.5t7 -78.5q0 -89 -42 -173.5t-118 -143.5q70 -91 70 -199q0 -40 -9 -80t-30 -84.5t-36 -73t-46 -79t-41 -68.5q-49 -84 -72.5 -139.5t-23.5 -104.5q0 -117 159 -117 h70l-19 -100h-51q-130 0 -196 60.5t-66 156.5z" />
<glyph unicode="|" horiz-adv-x="591" d="M-33 -539l412 2358h104l-411 -2358h-105zM100 -539l412 2358h102l-411 -2358h-103z" />
<glyph unicode="}" horiz-adv-x="661" d="M-154 -551l19 100h72q174 0 272 104t98 251q0 76 -24 194q-4 22 -13.5 65t-15 68t-10 56.5t-4.5 52.5q0 53 22 103.5t61.5 92t100.5 66.5t133 25h27l-19 -101h-8q-96 0 -156.5 -57t-60.5 -129q0 -36 41 -221q27 -137 27 -215q0 -71 -19 -137.5t-58.5 -124.5t-95 -101 t-132 -67.5t-166.5 -24.5h-91zM-129 -422l16 100h50q119 0 179 63t60 163q0 67 -22 168q-3 18 -17 82t-21 107.5t-7 78.5q0 89 41.5 173.5t117.5 143.5q-69 90 -69 199q0 40 9 80t30 85t35.5 72.5t46 79.5t40.5 68q50 85 73.5 140t23.5 104q0 117 -160 117h-70l19 100h51 q130 0 196 -60.5t66 -156.5q0 -64 -28.5 -134t-81.5 -159q-10 -18 -40.5 -69t-43 -73.5t-31 -61.5t-26 -70.5t-7.5 -61.5q0 -66 41.5 -126.5t116.5 -86.5q-112 -31 -180 -118.5t-68 -184.5q0 -23 5 -57.5t9 -56t15.5 -71t13.5 -61.5q25 -123 25 -190q0 -140 -89 -233 t-253 -93h-66zM252 1731l16 100h29q185 0 288 -100t103 -246q0 -59 -22.5 -129t-45 -116t-61.5 -114q-16 -28 -40.5 -69t-37 -63t-26 -49.5t-19.5 -48.5t-6 -40q0 -39 29 -68t86 -32h61l-16 -101h-43q-105 4 -161 63.5t-56 137.5q0 28 7 57.5t24 65t30 59.5t41 71t41 69 q56 97 85.5 167.5t29.5 139.5q0 105 -76 175.5t-215 70.5h-45z" />
<glyph unicode="~" horiz-adv-x="1163" d="M119 569q7 43 18.5 83.5t36.5 91.5t58 88t87.5 62.5t120.5 25.5q49 0 92.5 -15t72.5 -39t43.5 -39t23.5 -28q24 -28 38 -38.5t31 -10.5q67 0 95 157l98 -16q-43 -244 -193 -244q-18 0 -35 4.5t-28 9t-25 16t-19 16t-19 19.5t-15 17l-13 15q-13 14 -19 20t-22 19t-29.5 19 t-34 11.5t-42.5 5.5q-44 0 -80 -18t-59 -45t-41 -64t-27.5 -70t-15.5 -69zM246 547q43 244 194 244q18 0 35.5 -4.5t28.5 -9.5t25 -16.5t19 -16.5t18 -19.5t14 -15.5q3 -3 18 -20t25.5 -25.5t28.5 -21t40.5 -18.5t48.5 -6q44 0 80 18t59 45t41 64.5t27 70.5t15 69l100 -17 q-7 -43 -18.5 -83.5t-36.5 -91.5t-58.5 -87.5t-88 -62t-120.5 -25.5q-40 0 -78 12t-59.5 23.5t-47 35.5t-29.5 28.5t-17 21.5q-40 49 -70 49q-66 0 -94 -158z" />
<glyph unicode="&#xa1;" horiz-adv-x="626" d="M80 0l199 1124h102l-197 -1124h-104zM213 0l197 1124h104l-199 -1124h-102zM270 1450q0 75 54.5 129.5t130.5 54.5q75 0 129.5 -54.5t54.5 -129.5t-54.5 -129.5t-129.5 -54.5q-76 0 -130.5 54.5t-54.5 129.5zM367 1450q0 -36 26 -62t62 -26q35 0 60.5 26.5t25.5 61.5 t-25.5 61.5t-60.5 26.5q-36 0 -62 -26t-26 -62zM395 1450q0 25 17 42t43 17q25 0 41 -17t16 -42t-16 -42t-41 -17t-42.5 17t-17.5 42z" />
<glyph unicode="&#xa2;" horiz-adv-x="1216" d="M88 594q0 110 42 212.5t113.5 179.5t168.5 128.5t204 65.5l33 178h103l-50 -275h-14q-130 0 -245.5 -66t-185 -179.5t-69.5 -243.5q0 -161 100.5 -281t254.5 -143l-47 -272h-105l35 198q-153 56 -245.5 192t-92.5 306zM217 594q0 124 65 231t173.5 168.5t232.5 61.5h10 l-149 -856q-146 20 -239 131t-93 264zM317 594q0 -87 40 -156t110 -106l106 602q-111 -38 -183.5 -131.5t-72.5 -208.5zM524 -102l47 268h37q187 0 373 139l61 -80q-184 -142 -387 -157l-28 -170h-103zM575 195l152 858q89 -8 158.5 -50.5t99.5 -112t-6 -161.5l-92 35 q21 55 -1.5 98.5t-78.5 67.5l-109 -625q89 19 205 105l60 -82q-92 -69 -176.5 -101t-178.5 -32h-33zM731 1081l49 277h103l-35 -199q76 -24 135.5 -65.5t100.5 -103t46.5 -138.5t-28.5 -172l-96 37q40 106 7 184t-108.5 124.5t-173.5 55.5z" />
<glyph unicode="&#xa3;" horiz-adv-x="1376" d="M6 186q41 16 61 24.5t56 25t54.5 27.5t47 30.5t43.5 37.5t35 44t30.5 53.5t20 63.5t13.5 77h-197l16 101h285v-25q0 -79 -13 -145t-33.5 -114t-54 -89.5t-65.5 -68.5t-78 -53t-81.5 -42t-85.5 -37l-15 -6zM55 66q106 41 146 61q70 13 166.5 4t171.5 -25t165 -31.5 t148 -15.5q175 0 270 156l86 -51q-20 -35 -47 -66t-69.5 -65t-105 -54t-134.5 -20q-87 0 -304.5 41t-316.5 31q-23 -12 -137 -60zM193 698l16 103h151q-22 211 -22 276q0 102 29 195.5t85 171.5t151.5 125t217.5 47q89 0 163.5 -25t126 -68t87 -101t52 -122t16.5 -133h-101 q0 69 -21 130t-61.5 111t-108 79t-153.5 29q-95 0 -170 -37t-120.5 -100t-69 -140t-23.5 -162q0 -55 14 -188t17 -191h-276zM262 162q111 68 174.5 181.5t63.5 301.5v25h475l-17 -101h-360q-14 -195 -102 -323q45 -7 127 -23.5t136 -24.5t93 -8q103 0 160 93l86 -54 q-86 -141 -246 -141q-69 0 -273.5 39t-316.5 35zM467 1077q0 82 21 154t63 130.5t111.5 92t158.5 33.5q80 0 142 -26t99.5 -70.5t56 -101t18.5 -122.5h-103q0 100 -52.5 158.5t-160.5 58.5q-124 0 -189 -85.5t-65 -221.5q0 -31 4.5 -74.5t11.5 -104t11 -97.5h405l-18 -103 h-483q-3 61 -17 193.5t-14 185.5z" />
<glyph unicode="&#xa5;" horiz-adv-x="1798" d="M199 1366l18 102h277l288 -634h-348l17 100h172l-197 432h-227zM221 1497l17 100h628l-16 -100h-629zM352 367l19 100h473l-60 -338h-301l17 102h198l25 136h-371zM377 496l16 102h373l2 16l-39 91h-319l18 100h369l77 -172l-24 -137h-473zM459 0l18 100h629l-16 -100 h-631zM522 1468h322l-19 -102h-145l235 -514l416 514h-125l19 102h321l-653 -806zM813 129l59 338h474l-17 -100h-373l-22 -136h196l-18 -102h-299zM879 496l24 135l139 174h361l-17 -100h-292l-86 -107h360l-16 -102h-473zM1067 834l512 634h276l-18 -102h-207l-350 -432 h147l-18 -100h-342zM1231 1497l16 100h631l-16 -100h-631z" />
<glyph unicode="&#xa6;" horiz-adv-x="604" d="M-29 -539l183 1037h104l-182 -1037h-105zM104 -539l183 1037h102l-182 -1037h-103zM203 782l182 1037h104l-182 -1037h-104zM336 782l182 1037h103l-183 -1037h-102z" />
<glyph unicode="&#xa7;" horiz-adv-x="1087" d="M80 379l98 -17q-15 -85 8 -151t72.5 -104.5t111 -58t128.5 -19.5q128 0 206 70t78 169q0 82 -52.5 139t-143.5 103q139 13 223 84t84 168q0 32 -9 60.5t-22 50.5t-35.5 43t-41 34.5t-48 30t-46.5 24t-46.5 20.5t-38.5 17q-58 27 -93 47.5t-72 50.5t-54.5 66.5t-17.5 81.5 q0 90 68 150.5t188 60.5q50 0 96 -10.5t86 -34.5t67.5 -58t39 -85t1.5 -113l-100 16q16 92 -37 137.5t-153 45.5q-74 0 -115 -31.5t-41 -77.5q0 -43 39 -73.5t141 -79.5q7 -3 39.5 -17t52.5 -23.5t55.5 -30t59 -39t52.5 -47.5t46 -59t29 -71t12 -86q0 -93 -49.5 -169 t-138.5 -124q76 -90 76 -201q0 -141 -106.5 -240.5t-278.5 -99.5q-66 0 -130.5 15.5t-124.5 51t-102 86.5t-59.5 128t-1.5 170zM127 795q0 92 49 167t137 123q-75 88 -75 203q0 141 107 240.5t280 99.5q66 0 130 -15.5t124 -50.5t102 -86t59.5 -128t1.5 -170l-98 14 q14 85 -9 151.5t-72 105.5t-110 59t-128 20q-129 0 -207 -70.5t-78 -169.5q0 -83 51.5 -137.5t145.5 -103.5q-140 -13 -225 -84t-85 -168q0 -25 6 -49t14.5 -43t24.5 -38t28.5 -32t35.5 -28.5t36.5 -24t39.5 -21t36.5 -17t36.5 -15.5t31 -13q56 -26 92 -46.5t73 -50.5 t55 -67t18 -82q0 -90 -68.5 -150.5t-187.5 -60.5q-64 0 -120 17.5t-100.5 52t-64 93.5t-6.5 136l98 -14q-14 -92 39 -137t154 -45q73 0 114 31.5t41 76.5q0 42 -42.5 75.5t-137.5 76.5q-5 2 -39 17.5t-53 24t-55.5 30t-59 39.5t-52 47.5t-46.5 60t-29 71t-12 85.5zM256 795 q0 95 91.5 159.5t242.5 65.5l4 -2q12 -6 51.5 -24t61.5 -29.5t56 -34t53 -44.5t33.5 -54.5t14.5 -69.5q0 -95 -91 -160t-241 -65l-4 2q-10 5 -44.5 20t-52.5 24t-49.5 26.5t-49.5 34.5t-38 40t-29 51t-9 60zM358 795q0 -13 3 -24.5t11.5 -22.5t15 -19t22 -18t23.5 -15.5 t29 -16t29 -14t32.5 -14.5t31.5 -14q99 4 154 41t55 84q0 20 -10.5 38t-24 31.5t-40.5 29t-46 24.5t-54 25q-7 3 -12 5.5t-10 4.5q-99 -4 -154 -41.5t-55 -83.5z" />
<glyph unicode="&#xa8;" horiz-adv-x="550" d="M-209 1460q0 75 54.5 130t129.5 55q76 0 131.5 -55t55.5 -130t-55.5 -129.5t-131.5 -54.5q-75 0 -129.5 54.5t-54.5 129.5zM-111 1460q0 -35 25.5 -61.5t60.5 -26.5q36 0 62 26t26 62t-26 62t-62 26q-35 0 -60.5 -26.5t-25.5 -61.5zM-82 1460q0 25 16.5 42.5t40.5 17.5 q26 0 43 -17.5t17 -42.5t-17 -42t-43 -17q-25 0 -41 17t-16 42zM244 1460q0 75 54.5 130t129.5 55t129.5 -55t54.5 -130t-54.5 -129.5t-129.5 -54.5t-129.5 54.5t-54.5 129.5zM340 1460q0 -35 26.5 -61.5t61.5 -26.5t61.5 26.5t26.5 61.5t-26.5 61.5t-61.5 26.5t-61.5 -26.5 t-26.5 -61.5zM369 1460q0 25 17 42.5t42 17.5t42 -17.5t17 -42.5t-17 -42t-42 -17t-42 17t-17 42z" />
<glyph unicode="&#xa9;" horiz-adv-x="1847" d="M119 748q0 176 73 339t194 280t284.5 187t337.5 70q161 0 304 -61.5t244.5 -165.5t160.5 -246.5t59 -300.5q0 -177 -73 -340t-194 -280.5t-285 -188t-339 -70.5q-160 0 -303 61.5t-244 166t-160 248t-59 301.5zM219 748q0 -137 51.5 -261.5t139.5 -215t212 -144 t263 -53.5q123 0 242 39.5t217 112.5t173 168t116.5 213.5t41.5 242.5q0 183 -87 338t-240.5 245.5t-339.5 90.5q-154 0 -299 -62.5t-252.5 -166.5t-172.5 -248t-65 -299zM248 748q0 121 39.5 235t111.5 205.5t166 161t208.5 107.5t234.5 38q180 0 327 -86t229.5 -234 t82.5 -325q0 -150 -62.5 -289t-166 -239t-243.5 -160t-290 -60q-179 0 -325.5 86.5t-229 234.5t-82.5 325zM348 748q0 -150 70 -275t193.5 -197.5t273.5 -72.5q129 0 250.5 52.5t211 139.5t143.5 207t54 248q0 150 -69.5 275t-192.5 197.5t-274 72.5q-172 0 -324.5 -88 t-244 -238t-91.5 -321zM520 778q0 120 63.5 224t169 164.5t224.5 60.5q78 0 151 -31l5 16h102l-37 -204q-26 55 -87 86.5t-134 31.5q-140 0 -248 -104.5t-108 -243.5q0 -126 87.5 -215.5t215.5 -89.5q130 0 243 94l66 -80q-140 -116 -309 -116q-171 0 -287.5 119.5 t-116.5 287.5zM649 778q0 130 98.5 225t229.5 95q86 0 146 -42t63 -110h2l-25 -143h-104l24 137q0 22 -29.5 39.5t-76.5 17.5q-90 0 -158.5 -66t-68.5 -153q0 -75 49.5 -125.5t124.5 -50.5q45 0 81 14t82 50l64 -78q-106 -86 -227 -86q-119 0 -197 79.5t-78 196.5zM1192 803 l72 409h102l-72 -409h-102z" />
<glyph unicode="&#xaa;" horiz-adv-x="1060" d="M166 1212q0 162 120.5 280t282.5 118q119 0 213 -72l11 59h305l-13 -81h-223l-33 -187q-25 88 -95.5 143.5t-164.5 55.5q-128 0 -223.5 -94t-95.5 -222q0 -115 77.5 -193.5t192.5 -78.5q79 0 150 38t116 103l-22 -127h221l-14 -84h-307l2 15q-76 -29 -146 -29 q-150 0 -252 103.5t-102 252.5zM279 1212q0 119 85.5 203t204.5 84q105 0 173.5 -70.5t68.5 -175.5q0 -119 -85.5 -201.5t-205.5 -82.5q-105 0 -173 69t-68 174zM360 1212q0 -69 45.5 -115t114.5 -46q83 0 145 60t62 142q0 68 -45.5 115t-112.5 47q-83 0 -146 -60.5 t-63 -142.5zM797 983l90 504h192l-14 -84h-111l-59 -338h109l-13 -82h-194z" />
<glyph unicode="&#xab;" horiz-adv-x="1304" d="M84 588l80 59l315 -411l-80 -60zM98 743l455 406l68 -76l-455 -407zM195 653l444 398l68 -74l-375 -336l252 -328l-80 -61zM639 588l80 59l315 -411l-80 -60zM653 743l455 406l68 -76l-455 -407zM750 653l444 398l68 -74l-375 -336l252 -328l-80 -61z" />
<glyph unicode="&#xad;" d="M98 541l17 100h565l-16 -100h-566zM119 670l18 102h568l-19 -102h-567z" />
<glyph unicode="&#xae;" horiz-adv-x="1271" d="M170 1069q0 154 80 286t214.5 208.5t287.5 76.5q212 0 355.5 -146.5t143.5 -358.5q0 -154 -80 -286.5t-214 -209t-287 -76.5q-212 0 -356 147t-144 359zM233 1069q0 -184 126.5 -313t310.5 -129q135 0 254.5 69t191.5 186.5t72 252.5q0 120 -57 221.5t-157.5 161 t-221.5 59.5q-101 0 -196.5 -41t-166 -109t-113.5 -162.5t-43 -195.5zM262 1069q0 129 67.5 240t180.5 175t242 64q174 0 290.5 -119.5t116.5 -293.5q0 -129 -67 -240t-180 -175.5t-242 -64.5q-174 0 -291 120t-117 294zM326 1069q0 -147 99 -248.5t245 -101.5 q111 0 209.5 56.5t157.5 153t59 206.5q0 147 -99 248.5t-245 101.5q-111 0 -209.5 -56.5t-157.5 -153t-59 -206.5zM426 850l8 45h230l-9 -45h-229zM440 924l9 45h61l51 288h-65l8 46h110l-65 -379h-109zM510 1331l8 45h297q71 0 119.5 -46t48.5 -116q0 -63 -43.5 -114 t-110.5 -66l27 -65h96l-8 -45h-121l-59 149h10q68 0 116 43t48 98q0 49 -36 83t-87 34h-305zM578 924l26 149h127l62 -149h-78l8 45h4l-25 59h-61l-10 -59h47l-8 -45h-92zM610 1102l35 201h170q41 0 67.5 -24.5t26.5 -64.5q0 -46 -38.5 -79t-96.5 -33h-164zM662 1147h112 q38 0 64 21t26 46q0 19 -13.5 31t-35.5 12h-135zM700 850l9 45h229l-8 -45h-230z" />
<glyph unicode="&#xaf;" horiz-adv-x="806" d="M51 1286l17 100h653l-16 -100h-654zM74 1415l18 103h653l-18 -103h-653z" />
<glyph unicode="&#xb0;" horiz-adv-x="884" d="M174 1255q0 153 106.5 261t258.5 108t260 -108.5t108 -260.5t-108 -259t-260 -107t-258.5 107t-106.5 259zM274 1255q0 -108 78.5 -186t186.5 -78q109 0 188.5 78t79.5 186q0 109 -79.5 188t-188.5 79q-107 0 -186 -79t-79 -188zM303 1255q0 100 69 169t167 69 q100 0 169.5 -69t69.5 -169q0 -99 -69.5 -167t-169.5 -68q-99 0 -167.5 68t-68.5 167zM403 1255q0 -58 39.5 -96.5t96.5 -38.5q58 0 97.5 39t39.5 96q0 59 -39.5 98.5t-97.5 39.5q-56 0 -96 -40t-40 -98z" />
<glyph unicode="&#xb1;" horiz-adv-x="1181" d="M29 51l18 101h916l-17 -101h-917zM53 180l17 101h917l-18 -101h-916zM145 707l19 100h442l-78 -442h-100l59 342h-342zM170 836l16 100h340l60 340h102l-78 -440h-440zM557 365l78 442h442l-16 -100h-342l-60 -342h-102zM639 836l78 440h100l-59 -340h344l-19 -100h-444z " />
<glyph unicode="&#xb2;" horiz-adv-x="870" d="M39 651q14 78 46.5 146.5t70.5 116t90.5 91t94 69t93.5 52.5q24 13 72 37t69.5 35.5t54.5 32.5t47.5 36.5t26 38t11.5 46.5q0 50 -40.5 81t-107.5 31q-83 0 -136.5 -45t-47.5 -139l-82 -4q-3 58 11 104.5t40 77.5t62 51.5t74.5 29.5t78.5 9q101 0 165.5 -53.5 t64.5 -142.5q0 -33 -9.5 -62t-30.5 -54t-41 -44t-55 -39.5t-59.5 -33t-66 -33t-62.5 -31.5q-64 -33 -111.5 -64.5t-100.5 -81t-89 -118.5t-51 -154zM145 625q30 32 64.5 48.5t91.5 16.5q41 0 119 -20q7 -2 26 -7l28.5 -7.5t25.5 -6t30 -5t29 -1.5q107 0 166 82.5t25 208.5 l77 20q29 -116 1 -203.5t-101 -138.5t-168 -51q-19 0 -37.5 2t-37.5 6t-30 7t-31 8.5t-26 7.5q-59 16 -96 16q-35 0 -55 -9t-41 -32zM158 676q18 70 52 126.5t82 99t90.5 70t102.5 58.5q18 9 63.5 31t68.5 34.5t61.5 35t59.5 43t44 48t33 60.5t10 70q0 98 -74.5 161.5 t-183.5 63.5q-54 0 -106 -17.5t-97 -52t-70.5 -95t-21.5 -138.5l-84 -4q-4 81 18 148.5t60.5 111t90.5 73.5t104.5 43t105.5 13q142 0 241 -86t99 -221q0 -44 -11.5 -83.5t-28.5 -69.5t-45 -59t-53.5 -49t-62.5 -42t-63 -35t-63.5 -31.5t-55.5 -28.5q-74 -38 -124 -71.5 t-89 -79.5q25 -1 48 -5t54 -11.5t36 -8.5q84 -24 110 -24q55 0 78.5 39t3.5 112l80 21q31 -112 -18.5 -183t-143.5 -71q-17 0 -36 3t-28.5 5t-35.5 9.5t-31 8.5q-82 21 -127 21q-86 0 -143 -43z" />
<glyph unicode="&#xb3;" horiz-adv-x="829" d="M23 633l49 65q155 -114 321 -114q140 0 236 77.5t96 202.5q0 92 -59 160t-179 96q154 26 222.5 94t68.5 154q0 81 -66.5 145t-176.5 64q-109 0 -186 -65.5t-87 -178.5l-82 6q15 147 115 233.5t240 86.5q148 0 236.5 -88.5t88.5 -202.5q0 -169 -158 -262q105 -94 105 -242 q0 -108 -57 -192.5t-151 -128t-206 -43.5q-84 0 -184.5 34t-185.5 99zM90 721l49 65q123 -92 254 -92q98 0 159.5 48t61.5 122q0 75 -68 117.5t-235 42.5l15 84h18q181 -4 266.5 -71.5t85.5 -172.5q0 -114 -85 -183t-218 -69q-160 0 -303 109zM291 1329q10 104 76 161.5 t168 57.5q101 0 158 -53.5t57 -126.5q0 -43 -20 -81t-64 -72.5t-125 -55.5t-191 -22h-20l14 82h18q161 3 233.5 46.5t72.5 102.5q0 39 -35 67.5t-98 28.5q-70 0 -112.5 -36.5t-49.5 -106.5z" />
<glyph unicode="&#xb4;" horiz-adv-x="403" d="M-123 1452l543 324l51 -86l-541 -324zM-53 1341l538 322l54 -86l-541 -324z" />
<glyph unicode="&#xb5;" horiz-adv-x="1542" d="M61 -535l250 1426h-196l16 100h301l-268 -1526h-103zM137 1020l19 100h430l-119 -667q-17 -130 26.5 -187t124.5 -57q89 0 190.5 85t188.5 243l64 354h-197l17 100h301l-88 -491q-102 -186 -228 -288.5t-248 -102.5q-56 0 -103.5 18.5t-85.5 57.5t-56 108t-8 160l100 567 h-328zM193 -535l147 840q22 -113 99.5 -169t178.5 -56q118 0 240 89.5t221 250.5l-55 -320h326l-17 -100h-430l15 88q-145 -108 -300 -108q-125 0 -223 65l-100 -580h-102zM887 1020l16 100h432l-157 -889h196l-18 -102h-299l157 891h-327z" />
<glyph unicode="&#xb6;" horiz-adv-x="1560" d="M152 1006q0 118 51.5 228t136 189t196.5 126.5t228 47.5h840l-17 -100h-823q-128 0 -246 -68t-191 -182t-73 -241q0 -156 103 -262.5t261 -106.5h117l-90 -508h-301l16 102h199l55 306q-132 1 -238.5 64t-165 169.5t-58.5 235.5zM283 1006q0 121 68 228.5t179.5 170.5 t233.5 63h117l-142 -802h-121q-149 0 -242 96.5t-93 243.5zM322 0l16 100h999l-16 -100h-999zM383 1006q0 -105 65 -172.5t170 -67.5h37l107 600q-147 -2 -263 -111.5t-116 -248.5zM674 129l237 1339h340l-235 -1339h-342zM795 231h135l203 1135h-138zM1044 129l238 1339 h299l-16 -102h-199l-201 -1135h197l-19 -102h-299z" />
<glyph unicode="&#xb7;" horiz-adv-x="581" d="M113 721q0 75 54 129.5t130 54.5q75 0 129.5 -54.5t54.5 -129.5t-54.5 -129.5t-129.5 -54.5q-76 0 -130 54.5t-54 129.5zM209 721q0 -36 26 -62t62 -26q35 0 60.5 26.5t25.5 61.5t-25.5 61.5t-60.5 26.5q-36 0 -62 -26t-26 -62zM238 721q0 25 16.5 42t42.5 17 q25 0 41 -17t16 -42t-16 -42t-41 -17t-42 17t-17 42z" />
<glyph unicode="&#xb8;" horiz-adv-x="591" d="M154 -553l36 92q17 -7 47 -18t119.5 -29t173.5 -18q116 0 185 57t69 145q0 82 -67 143t-187 79l37 200l99 -16l-19 -109q114 -38 177 -116t63 -181q0 -132 -99 -217.5t-258 -85.5q-94 0 -188 18.5t-141 36.5zM203 -434l39 92q14 -6 38.5 -15t100 -23.5t149.5 -14.5 q125 0 125 71q0 31 -38 58t-117 37l12 100q121 -17 182.5 -68.5t61.5 -126.5q0 -78 -59.5 -126t-166.5 -48q-83 0 -164.5 16t-121.5 32zM401 -94l37 215l129 -23l-28 4l-39 -213z" />
<glyph unicode="&#xb9;" horiz-adv-x="591" d="M92 602l14 84h424l-14 -84h-424zM111 715l14 82h117l110 630l-88 -28l-26 80l219 69l-148 -833h-198zM205 1585l241 78l23 -78l-240 -78zM338 715l151 852l82 -15l-133 -755h111l-14 -82h-197z" />
<glyph unicode="&#xba;" horiz-adv-x="899" d="M166 1212q0 162 120.5 280t282.5 118q149 0 251 -104.5t102 -252.5q0 -108 -56 -200t-148.5 -144.5t-197.5 -52.5q-150 0 -252 103.5t-102 252.5zM250 1212q0 -115 77.5 -193.5t192.5 -78.5q129 0 224.5 92.5t95.5 220.5q0 115 -78 195t-193 80q-128 0 -223.5 -94 t-95.5 -222zM279 1212q0 119 85.5 203t204.5 84q105 0 173.5 -70.5t68.5 -175.5q0 -119 -85.5 -201.5t-205.5 -82.5q-105 0 -173 69t-68 174zM360 1212q0 -69 45.5 -115t114.5 -46q83 0 145 60t62 142q0 68 -45.5 115t-112.5 47q-83 0 -146 -60.5t-63 -142.5z" />
<glyph unicode="&#xbb;" horiz-adv-x="1302" d="M37 336l375 336l-252 327l80 62l309 -402l-445 -397zM123 240l455 407l67 -78l-455 -405zM264 1077l80 60l315 -412l-79 -59zM592 336l375 336l-252 327l80 62l309 -402l-445 -397zM678 240l455 407l67 -78l-455 -405zM819 1077l80 60l315 -412l-79 -59z" />
<glyph unicode="&#xbc;" horiz-adv-x="2086" d="M145 602l15 84h424l-15 -84h-424zM164 715l14 82h117l111 630l-89 -28l-26 80l219 69l-148 -833h-198zM209 0l1274 1597h106l-1274 -1597h-106zM258 1585l242 78l22 -78l-239 -78zM350 0l1274 1597h107l-1274 -1597h-107zM391 715l152 852l82 -15l-133 -755h110l-14 -82 h-197zM1018 408l653 759l62 -55l-652 -758zM1100 332q88 63 198 63q66 0 175.5 -20t138.5 -23l-43 -239h-199l14 82h117l15 86q-9 2 -39.5 8.5t-43.5 8.5t-38.5 6t-48.5 5.5t-48 1.5q-83 0 -149 -47zM1155 395l600 699l64 -56l-461 -534q55 -4 192 -29l43 236h84l-59 -330 q-26 3 -139 23t-181 20q-70 0 -143 -29zM1352 0l14 84h426l-14 -84h-426zM1597 113l43 237q20 -2 62 -2q120 0 201 78l57 -59q-103 -100 -250 -103l-12 -69h112l-14 -82h-199zM1647 379l59 332h86l-47 -250q43 8 80 45l57 -60q-39 -38 -80 -53.5t-100 -15.5q-37 0 -55 2z " />
<glyph unicode="&#xbd;" horiz-adv-x="2109" d="M127 602l14 84h424l-14 -84h-424zM145 715l15 82h116l111 630l-88 -28l-27 80l220 69l-148 -833h-199zM201 0l1274 1597h106l-1274 -1597h-106zM240 1585l241 78l23 -78l-240 -78zM342 0l1274 1597h106l-1273 -1597h-107zM373 715l151 852l82 -15l-133 -755h111l-15 -82 h-196zM1137 49q14 78 46.5 146.5t70.5 116t90.5 91t94 69t93.5 52.5q23 12 62.5 32t60.5 31t50.5 28t45 30t31.5 30t23 35.5t7 39.5q0 50 -40 81t-107 31q-83 0 -136.5 -45t-47.5 -139l-82 -4q-3 58 11 104.5t40 77.5t62 51.5t74.5 29.5t78.5 9q101 0 165 -53.5t64 -142.5 q0 -33 -9.5 -62t-30 -54t-41 -43.5t-55.5 -39.5t-58.5 -33.5t-65.5 -33t-63 -31.5q-64 -33 -111.5 -64.5t-100.5 -81t-89 -118.5t-51 -154zM1243 23q30 32 64.5 48.5t91.5 16.5q41 0 119 -20q7 -2 26 -7l28.5 -7.5t25.5 -6t30 -5t29 -1.5q107 0 165.5 82.5t24.5 208.5l78 20 q29 -116 1 -203.5t-101 -138.5t-168 -51q-19 0 -37.5 2t-37.5 6t-30 7t-31 8.5t-26 7.5q-59 16 -96 16q-35 0 -55 -9t-41 -32zM1255 74q18 70 52 126.5t82.5 99t91 70t102.5 58.5q18 9 63.5 31t68.5 34.5t61.5 35t59.5 43t44 48t33 60.5t10 70q0 98 -74.5 161.5t-183.5 63.5 q-54 0 -106 -17.5t-97 -52t-70.5 -95t-21.5 -138.5l-84 -4q-4 81 18 148.5t60.5 111t90.5 73.5t104.5 43t105.5 13q142 0 241 -86t99 -221q0 -44 -11.5 -83.5t-28.5 -69.5t-45 -59t-53.5 -49t-62.5 -42t-63 -35t-63.5 -31.5t-55.5 -28.5q-74 -38 -124 -71.5t-89 -79.5 q25 -1 48 -5t53 -11.5t36 -8.5q84 -24 111 -24q55 0 78.5 39t3.5 112l80 21q31 -112 -18.5 -183t-143.5 -71q-17 0 -36 3t-28.5 5t-35.5 9.5t-31 8.5q-82 21 -127 21q-87 0 -144 -43z" />
<glyph unicode="&#xbe;" horiz-adv-x="2357" d="M98 633l49 65q155 -114 322 -114q140 0 236 77.5t96 202.5q0 92 -59 160t-179 96q154 26 222.5 94t68.5 154q0 81 -66.5 145t-177.5 64q-109 0 -185.5 -65.5t-86.5 -178.5l-82 6q15 147 114.5 233.5t239.5 86.5q148 0 237 -88.5t89 -202.5q0 -169 -158 -262 q105 -94 105 -242q0 -108 -57 -192.5t-151 -128t-206 -43.5q-84 0 -185 34.5t-186 98.5zM166 721l49 65q123 -92 254 -92q98 0 159.5 48t61.5 122q0 75 -68 117.5t-235 42.5l14 84h19q181 -4 266.5 -71.5t85.5 -172.5q0 -114 -85 -183t-218 -69q-160 0 -303 109zM367 1329 q10 104 76 161.5t167 57.5t158 -53.5t57 -126.5q0 -43 -20 -81t-63.5 -72.5t-124.5 -55.5t-191 -22h-20l14 82h18q161 3 233 46.5t72 102.5q0 39 -35 67.5t-98 28.5q-70 0 -112 -36.5t-49 -106.5zM477 0l1274 1597h107l-1274 -1597h-107zM618 0l1274 1597h107l-1274 -1597 h-107zM1290 408l654 759l61 -55l-651 -758zM1372 332q88 63 199 63q66 0 175 -20t138 -23l-43 -239h-199l15 82h117l14 86q-10 2 -39.5 8t-43.5 8.5t-38.5 6.5t-47.5 5.5t-48 1.5q-84 0 -150 -47zM1427 395l601 699l63 -56l-461 -534q57 -4 193 -29l43 236h84l-60 -330 q-26 3 -138.5 23t-180.5 20q-71 0 -144 -29zM1624 0l14 84h426l-14 -84h-426zM1870 113l43 237q20 -2 61 -2q120 0 201 78l57 -59q-103 -100 -250 -103l-12 -69h113l-15 -82h-198zM1919 379l59 332h86l-47 -250q43 8 80 45l57 -60q-39 -38 -80 -53.5t-100 -15.5q-37 0 -55 2 z" />
<glyph unicode="&#xbf;" horiz-adv-x="1083" d="M31 356q0 53 13.5 103t33 88.5t52.5 77.5t62 66t72 58t71.5 48.5t70.5 42.5q71 41 103.5 61.5t67 47t44.5 47t6 42.5l-11 60l101 16l10 -57q9 -48 -5 -87.5t-58 -78t-78 -61t-107 -65.5l-7.5 -4.5t-7 -4t-7.5 -4.5q-59 -34 -95.5 -57t-85.5 -62.5t-76.5 -76.5t-48 -89.5 t-20.5 -110.5q0 -120 88.5 -203t229.5 -83q153 0 270 102t129 260l100 -8q-11 -133 -83.5 -238.5t-182 -161t-233.5 -55.5q-185 0 -301.5 112.5t-116.5 274.5zM160 356q0 45 11.5 84.5t36 74t49.5 61.5t66 56.5t70.5 48t77.5 46.5q135 80 174 111q117 90 114 194 q-1 14 -3 29l-11 59l99 17l10 -58q12 -63 -4 -121t-40.5 -96.5t-79 -83t-86 -64.5t-95.5 -57q-18 -11 -27 -16q-53 -31 -85.5 -52t-70 -50t-57.5 -54.5t-33.5 -59t-13.5 -69.5q0 -68 49.5 -111.5t137.5 -43.5q105 0 183 67t87 174l100 -8q-13 -149 -120 -242.5t-250 -93.5 q-132 0 -210.5 74t-78.5 184zM590 1450q0 75 54 129.5t130 54.5q75 0 129.5 -54.5t54.5 -129.5t-54.5 -129.5t-129.5 -54.5q-76 0 -130 54.5t-54 129.5zM686 1450q0 -36 26 -62t62 -26q35 0 60.5 26.5t25.5 61.5t-25.5 61.5t-60.5 26.5q-36 0 -62 -26t-26 -62zM715 1450 q0 25 16.5 42t42.5 17q25 0 41 -17t16 -42t-16 -42t-41 -17t-42 17t-17 42z" />
<glyph unicode="&#xc0;" horiz-adv-x="1748" d="M-150 0l17 100h629l-17 -100h-629zM-127 129l16 102h201l838 1399l86 -53l-869 -1448h-272zM178 129l262 436h820l108 -436h-324l19 102h178l-59 234h-684l-142 -234h164l-18 -102h-324zM459 594l561 936l233 -936h-794zM635 694h489l-143 576zM799 2011l59 80l426 -324 l-59 -79zM877 2114l59 81l426 -323l-59 -80zM1022 0l16 100h631l-16 -100h-631zM1040 1573l97 26l342 -1368h215l-19 -102h-274z" />
<glyph unicode="&#xc1;" horiz-adv-x="1748" d="M-150 0l17 100h629l-17 -100h-629zM-127 129l16 102h201l838 1399l86 -53l-869 -1448h-272zM178 129l262 436h820l108 -436h-324l19 102h178l-59 234h-684l-142 -234h164l-18 -102h-324zM459 594l561 936l233 -936h-794zM635 694h489l-143 576zM750 1886l542 324l51 -86 l-540 -324zM819 1776l539 321l53 -86l-541 -323zM1022 0l16 100h631l-16 -100h-631zM1040 1573l97 26l342 -1368h215l-19 -102h-274z" />
<glyph unicode="&#xc2;" horiz-adv-x="1748" d="M-150 0l17 100h629l-17 -100h-629zM-127 129l16 102h201l838 1399l86 -53l-869 -1448h-272zM178 129l262 436h820l108 -436h-324l19 102h178l-59 234h-684l-142 -234h164l-18 -102h-324zM459 594l561 936l233 -936h-794zM635 694h489l-143 576zM682 1907l428 268 l338 -287l-68 -78l-278 240l-367 -227zM752 1798l346 215l264 -225l-64 -76l-208 178l-285 -178zM1022 0l16 100h631l-16 -100h-631zM1040 1573l97 26l342 -1368h215l-19 -102h-274z" />
<glyph unicode="&#xc3;" horiz-adv-x="1748" d="M-150 0l17 100h629l-17 -100h-629zM-127 129l16 102h201l838 1399l86 -53l-869 -1448h-272zM178 129l262 436h820l108 -436h-324l19 102h178l-59 234h-684l-142 -234h164l-18 -102h-324zM459 594l561 936l233 -936h-794zM606 1759q7 43 18.5 83.5t36.5 91.5t58.5 87.5 t88 62t120.5 25.5q49 0 92.5 -15t72 -38.5t43 -38.5t23.5 -28q24 -29 38.5 -39.5t31.5 -10.5q66 0 94 158l98 -16q-43 -244 -192 -244q-16 0 -30 2.5t-26.5 8.5t-21 10.5t-19.5 14.5t-16 15t-15.5 16.5t-13.5 14.5q-1 1 -13 15t-18.5 20t-22 18.5t-29 19t-34 12t-42.5 5.5 q-44 0 -80 -18t-59 -45t-41 -64t-27.5 -70t-15.5 -69zM635 694h489l-143 576zM733 1737q43 243 195 243q18 0 35 -4.5t28.5 -10t25 -16.5t19 -16.5t17.5 -19t14 -15.5t18.5 -19.5t26 -25.5t28 -21t41 -18.5t48.5 -5.5q44 0 79.5 18t58.5 45t41 64.5t27 70.5t15 69l100 -17 q-7 -43 -18.5 -83.5t-36.5 -91.5t-58 -87.5t-87.5 -62t-120.5 -25.5q-135 0 -232 121q-40 49 -69 49q-66 0 -94 -158zM1022 0l16 100h631l-16 -100h-631zM1040 1573l97 26l342 -1368h215l-19 -102h-274z" />
<glyph unicode="&#xc4;" horiz-adv-x="1748" d="M-150 0l17 100h629l-17 -100h-629zM-127 129l16 102h201l838 1399l86 -53l-869 -1448h-272zM178 129l262 436h820l108 -436h-324l19 102h178l-59 234h-684l-142 -234h164l-18 -102h-324zM459 594l561 936l233 -936h-794zM635 694h489l-143 576zM666 1894q0 75 54.5 130 t129.5 55q76 0 131 -55t55 -130t-55 -129.5t-131 -54.5q-75 0 -129.5 54.5t-54.5 129.5zM764 1894q0 -35 25.5 -61.5t60.5 -26.5q36 0 62 26t26 62t-26 62t-62 26q-35 0 -60.5 -26.5t-25.5 -61.5zM793 1894q0 25 16.5 42.5t40.5 17.5q26 0 42.5 -17.5t16.5 -42.5t-16.5 -42 t-42.5 -17q-25 0 -41 17t-16 42zM1022 0l16 100h631l-16 -100h-631zM1040 1573l97 26l342 -1368h215l-19 -102h-274zM1118 1894q0 75 55 130t130 55t129.5 -55t54.5 -130t-54.5 -129.5t-129.5 -54.5t-130 54.5t-55 129.5zM1214 1894q0 -35 27 -61.5t62 -26.5t61.5 26.5 t26.5 61.5t-26.5 61.5t-61.5 26.5t-62 -26.5t-27 -61.5zM1243 1894q0 25 17.5 42.5t42.5 17.5t42 -17.5t17 -42.5t-17 -42t-42 -17t-42.5 17t-17.5 42z" />
<glyph unicode="&#xc5;" horiz-adv-x="1748" d="M-150 0l17 100h629l-17 -100h-629zM-127 129l16 102h201l778 1301q-96 83 -96 211q0 115 81.5 195.5t195.5 80.5q115 0 195.5 -80.5t80.5 -195.5q0 -82 -45 -149.5t-117 -102.5l316 -1260h215l-19 -102h-274l-361 1438h9q73 0 124.5 52t51.5 124q0 73 -51.5 124.5 t-124.5 51.5q-72 0 -124.5 -51.5t-52.5 -124.5q0 -63 39.5 -111.5t98.5 -60.5l-865 -1442h-272zM178 129l262 436h820l108 -436h-324l19 102h178l-59 234h-684l-142 -234h164l-18 -102h-324zM459 594l561 936l233 -936h-794zM635 694h489l-143 576zM901 1743q0 61 44 104 t104 43q61 0 104 -43t43 -104q0 -60 -43 -104t-104 -44q-60 0 -104 44t-44 104zM1004 1743q0 -19 13 -32t32 -13q20 0 33.5 13t13.5 32q0 20 -13.5 33.5t-33.5 13.5q-19 0 -32 -13.5t-13 -33.5zM1022 0l16 100h631l-16 -100h-631z" />
<glyph unicode="&#xc6;" horiz-adv-x="2375" d="M-150 0l19 100h625l-17 -100h-627zM-127 129l16 102h213l1004 1135h-76l19 102h280l-1182 -1339h-274zM184 129l387 438h691l-78 -438h-299l16 102h199l41 234h-525l-206 -234h106l-16 -102h-316zM598 596l770 872h51l-153 -872h-668zM821 696h361l88 506zM860 0l19 100 h1222l64 359h102l-82 -459h-1325zM1055 1497l16 100h1364l-82 -458h-102l63 358h-1259zM1212 129l119 670h656l-17 -101h-555l-82 -467h660l41 228h102l-59 -330h-865zM1335 827l115 641h831l-59 -329h-102l43 227h-631l-76 -438h555l-18 -101h-658z" />
<glyph unicode="&#xc7;" horiz-adv-x="1642" d="M84 748q0 142 47 276.5t131 242.5t195 190t245.5 126.5t274.5 44.5q127 0 247 -40t210 -113l22 122h105l-68 -378q-27 92 -106 163.5t-186.5 108.5t-223.5 37q-155 0 -301 -63t-253.5 -167.5t-173 -249t-65.5 -300.5q0 -249 155 -437t394 -231l-39 -211l-98 16l20 121 q-237 75 -384.5 279.5t-147.5 462.5zM213 748q0 202 105.5 375.5t281.5 274.5t377 101q129 0 241.5 -43.5t184.5 -127t76 -189.5l-39 -226h-105l41 236q-13 105 -129 176.5t-270 71.5q-173 0 -326 -88t-244.5 -238.5t-91.5 -322.5q0 -113 41.5 -214t112.5 -174t171.5 -116 t213.5 -43q272 0 489 190l68 -76q-246 -217 -557 -217q-180 0 -327.5 87t-230.5 236t-83 327zM348 -573l37 92q17 -7 47 -18t119.5 -29.5t173.5 -18.5q116 0 185 57.5t69 145.5q0 82 -67 142.5t-187 78.5l37 199q44 -6 92 -6q317 0 576 223l67 -76q-139 -121 -306.5 -184.5 t-336.5 -63.5h-10l-2 -16q114 -38 176.5 -116t62.5 -181q0 -132 -98.5 -217.5t-257.5 -85.5q-94 0 -188 18.5t-141 36.5zM397 -455l39 93q14 -6 39 -15t100.5 -24t149.5 -15q125 0 125 72q0 31 -38.5 57.5t-117.5 36.5l13 100q121 -17 182 -68t61 -126q0 -78 -59.5 -126 t-165.5 -48q-83 0 -165 16t-122 32zM1468 913l121 684h103l-121 -684h-103z" />
<glyph unicode="&#xc8;" horiz-adv-x="1482" d="M-31 0l17 100h1224l62 359h104l-84 -459h-1323zM-8 129l16 102h199l201 1135h-199l18 102h299l-233 -1339h-301zM231 1497l19 100h1292l-82 -458h-102l65 358h-1192zM322 129l116 670h658l-17 -101h-557l-82 -467h662l39 228h102l-57 -330h-864zM444 827l113 641h834 l-62 -329h-102l43 227h-631l-76 -438h555l-16 -101h-658zM729 2011l59 80l426 -324l-59 -79zM807 2114l59 81l426 -323l-59 -80z" />
<glyph unicode="&#xc9;" horiz-adv-x="1482" d="M-31 0l17 100h1224l62 359h104l-84 -459h-1323zM-8 129l16 102h199l201 1135h-199l18 102h299l-233 -1339h-301zM231 1497l19 100h1292l-82 -458h-102l65 358h-1192zM322 129l116 670h658l-17 -101h-557l-82 -467h662l39 228h102l-57 -330h-864zM444 827l113 641h834 l-62 -329h-102l43 227h-631l-76 -438h555l-16 -101h-658zM680 1886l543 324l51 -86l-541 -324zM750 1776l538 321l53 -86l-540 -323z" />
<glyph unicode="&#xca;" horiz-adv-x="1482" d="M-31 0l17 100h1224l62 359h104l-84 -459h-1323zM-8 129l16 102h199l201 1135h-199l18 102h299l-233 -1339h-301zM231 1497l19 100h1292l-82 -458h-102l65 358h-1192zM322 129l116 670h658l-17 -101h-557l-82 -467h662l39 228h102l-57 -330h-864zM444 827l113 641h834 l-62 -329h-102l43 227h-631l-76 -438h555l-16 -101h-658zM614 1907l428 268l338 -287l-67 -78l-279 240l-366 -227zM684 1798l346 215l264 -225l-63 -76l-209 178l-285 -178z" />
<glyph unicode="&#xcb;" horiz-adv-x="1482" d="M-31 0l17 100h1224l62 359h104l-84 -459h-1323zM-8 129l16 102h199l201 1135h-199l18 102h299l-233 -1339h-301zM231 1497l19 100h1292l-82 -458h-102l65 358h-1192zM322 129l116 670h658l-17 -101h-557l-82 -467h662l39 228h102l-57 -330h-864zM444 827l113 641h834 l-62 -329h-102l43 227h-631l-76 -438h555l-16 -101h-658zM594 1894q0 75 54.5 130t129.5 55q76 0 131.5 -55t55.5 -130t-55.5 -129.5t-131.5 -54.5q-75 0 -129.5 54.5t-54.5 129.5zM692 1894q0 -35 25.5 -61.5t60.5 -26.5q36 0 62 26t26 62t-26 62t-62 26q-35 0 -60.5 -26.5 t-25.5 -61.5zM721 1894q0 25 16.5 42.5t40.5 17.5q26 0 43 -17.5t17 -42.5t-17 -42t-43 -17q-25 0 -41 17t-16 42zM1047 1894q0 75 54.5 130t129.5 55t129.5 -55t54.5 -130t-54.5 -129.5t-129.5 -54.5t-129.5 54.5t-54.5 129.5zM1143 1894q0 -35 26.5 -61.5t61.5 -26.5 t61.5 26.5t26.5 61.5t-26.5 61.5t-61.5 26.5t-61.5 -26.5t-26.5 -61.5zM1171 1894q0 25 17.5 42.5t42.5 17.5t42 -17.5t17 -42.5t-17 -42t-42 -17t-42.5 17t-17.5 42z" />
<glyph unicode="&#xcc;" d="M-31 0l17 100h628l-16 -100h-629zM-8 129l16 102h199l201 1135h-199l16 102h301l-233 -1339h-301zM231 1497l17 100h631l-17 -100h-631zM322 129l235 1339h299l-16 -102h-201l-199 -1135h199l-18 -102h-299zM342 2011l59 80l426 -324l-59 -79zM420 2114l59 81l426 -323 l-59 -80z" />
<glyph unicode="&#xcd;" d="M-31 0l17 100h628l-16 -100h-629zM-8 129l16 102h199l201 1135h-199l16 102h301l-233 -1339h-301zM231 1497l17 100h631l-17 -100h-631zM293 1886l543 324l51 -86l-541 -324zM322 129l235 1339h299l-16 -102h-201l-199 -1135h199l-18 -102h-299zM362 1776l539 321l53 -86 l-540 -323z" />
<glyph unicode="&#xce;" d="M-31 0l17 100h628l-16 -100h-629zM-8 129l16 102h199l201 1135h-199l16 102h301l-233 -1339h-301zM225 1907l428 268l338 -287l-67 -78l-279 240l-366 -227zM231 1497l17 100h631l-17 -100h-631zM295 1798l346 215l264 -225l-63 -76l-209 178l-285 -178zM322 129 l235 1339h299l-16 -102h-201l-199 -1135h199l-18 -102h-299z" />
<glyph unicode="&#xcf;" d="M-31 0l17 100h628l-16 -100h-629zM-8 129l16 102h199l201 1135h-199l16 102h301l-233 -1339h-301zM209 1894q0 75 54.5 130t129.5 55q76 0 131.5 -55t55.5 -130t-55.5 -129.5t-131.5 -54.5q-75 0 -129.5 54.5t-54.5 129.5zM231 1497l17 100h631l-17 -100h-631zM307 1894 q0 -35 25.5 -61.5t60.5 -26.5q36 0 62 26t26 62t-26 62t-62 26q-35 0 -60.5 -26.5t-25.5 -61.5zM322 129l235 1339h299l-16 -102h-201l-199 -1135h199l-18 -102h-299zM336 1894q0 25 16.5 42.5t40.5 17.5q26 0 43 -17.5t17 -42.5t-17 -42t-43 -17q-25 0 -41 17t-16 42z M662 1894q0 75 54.5 130t129.5 55t129.5 -55t54.5 -130t-54.5 -129.5t-129.5 -54.5t-129.5 54.5t-54.5 129.5zM758 1894q0 -35 26.5 -61.5t61.5 -26.5t61.5 26.5t26.5 61.5t-26.5 61.5t-61.5 26.5t-61.5 -26.5t-26.5 -61.5zM786 1894q0 25 17.5 42.5t42.5 17.5t42 -17.5 t17 -42.5t-17 -42t-42 -17t-42.5 17t-17.5 42z" />
<glyph unicode="&#xd0;" horiz-adv-x="1710" d="M-27 0l17 100h772q237 0 423.5 111t287 298t100.5 413q0 270 -170.5 422.5t-444.5 152.5h-722l18 100h704q153 0 283.5 -45.5t226.5 -129.5t150.5 -212.5t54.5 -287.5q0 -189 -66 -357.5t-183.5 -293.5t-289 -198t-372.5 -73h-789zM-4 129l16 102h199l84 471h-199l19 101 h299l-117 -674h-301zM121 831l16 101h199l76 434h-199l18 102h299l-110 -637h-299zM326 129l118 674h359l-17 -101h-258l-84 -471h318q201 0 357.5 92t239.5 249t83 350q0 215 -128.5 329.5t-355.5 114.5h-315l-76 -434h260l-18 -101h-360l112 637h397q266 0 426 -142.5 t160 -403.5q0 -164 -56.5 -309.5t-156.5 -252.5t-247.5 -169t-321.5 -62h-436z" />
<glyph unicode="&#xd1;" horiz-adv-x="1820" d="M-33 0l17 100h628l-16 -100h-629zM-10 129l16 102h199l201 1135h-201l18 102h301l-233 -1339h-301zM227 1497l19 100h366l664 -1220l172 989h-199l19 102h301l-244 -1396l-774 1425h-324zM319 129l230 1311l772 -1415l-90 -48l-633 1160l-160 -906h199l-19 -102h-299z M668 1759q7 43 18.5 83.5t36.5 91.5t58 87.5t87.5 62t120.5 25.5q49 0 92.5 -15t72.5 -38.5t43.5 -38.5t23.5 -28q24 -29 38 -39.5t31 -10.5q66 0 94 158l99 -16q-43 -244 -193 -244q-18 0 -35 4.5t-28 9t-25 16t-19 16t-19 19.5t-15 17l-13 15q-13 14 -19 20t-22 19 t-29.5 19t-34 11.5t-42.5 5.5q-44 0 -80 -18t-59 -45t-41 -64t-27.5 -70t-15.5 -69zM795 1737q43 243 194 243q18 0 35 -4.5t28.5 -10t25 -16.5t19 -16.5t17.5 -19t14 -15.5t18.5 -19.5t26 -25.5t28 -21t41 -18.5t48.5 -5.5q44 0 79.5 18t58.5 45t41 64.5t27 70.5t15 69 l101 -17q-7 -43 -18.5 -83.5t-36.5 -91.5t-58.5 -87.5t-88 -62t-120.5 -25.5q-40 0 -78 12t-59.5 23.5t-47 35.5t-29.5 28.5t-17 21.5q-40 49 -70 49q-66 0 -94 -158zM1272 1497l18 100h631l-16 -100h-633zM1348 29l251 1439h299l-18 -102h-197l-237 -1354z" />
<glyph unicode="&#xd2;" horiz-adv-x="1785" d="M84 748q0 142 47 276.5t131 242.5t195 190t245.5 126.5t274.5 44.5q161 0 304.5 -61.5t245 -166.5t161 -248.5t59.5 -301.5q0 -177 -73 -340.5t-194.5 -281.5t-286 -188.5t-339.5 -70.5q-161 0 -304.5 62t-245 166.5t-161 248.5t-59.5 302zM184 748q0 -138 52 -263 t140.5 -216t213.5 -145t264 -54q155 0 301 63t253.5 167.5t173 249t65.5 300.5q0 138 -52 263t-140.5 216t-213.5 145t-264 54q-155 0 -301 -63t-253.5 -167.5t-173 -249t-65.5 -300.5zM213 748q0 202 105.5 375.5t281.5 274.5t377 101q180 0 327.5 -87t230.5 -235.5 t83 -326.5q0 -151 -62.5 -290.5t-166 -240.5t-244.5 -161t-291 -60q-180 0 -327.5 87t-230.5 236t-83 327zM315 748q0 -113 41.5 -214t112.5 -174t171.5 -116t213.5 -43q173 0 326.5 88t245.5 238.5t92 322.5q0 113 -41.5 214t-113.5 174t-172.5 116t-213.5 43 q-173 0 -326 -88t-244.5 -238.5t-91.5 -322.5zM834 2011l59 80l426 -324l-59 -79zM911 2114l60 81l426 -323l-60 -80z" />
<glyph unicode="&#xd3;" horiz-adv-x="1785" d="M84 748q0 142 47 276.5t131 242.5t195 190t245.5 126.5t274.5 44.5q161 0 304.5 -61.5t245 -166.5t161 -248.5t59.5 -301.5q0 -177 -73 -340.5t-194.5 -281.5t-286 -188.5t-339.5 -70.5q-161 0 -304.5 62t-245 166.5t-161 248.5t-59.5 302zM184 748q0 -138 52 -263 t140.5 -216t213.5 -145t264 -54q155 0 301 63t253.5 167.5t173 249t65.5 300.5q0 138 -52 263t-140.5 216t-213.5 145t-264 54q-155 0 -301 -63t-253.5 -167.5t-173 -249t-65.5 -300.5zM213 748q0 202 105.5 375.5t281.5 274.5t377 101q180 0 327.5 -87t230.5 -235.5 t83 -326.5q0 -151 -62.5 -290.5t-166 -240.5t-244.5 -161t-291 -60q-180 0 -327.5 87t-230.5 236t-83 327zM315 748q0 -113 41.5 -214t112.5 -174t171.5 -116t213.5 -43q173 0 326.5 88t245.5 238.5t92 322.5q0 113 -41.5 214t-113.5 174t-172.5 116t-213.5 43 q-173 0 -326 -88t-244.5 -238.5t-91.5 -322.5zM786 1886l543 324l51 -86l-540 -324zM856 1776l539 321l53 -86l-541 -323z" />
<glyph unicode="&#xd4;" horiz-adv-x="1785" d="M84 748q0 142 47 276.5t131 242.5t195 190t245.5 126.5t274.5 44.5q161 0 304.5 -61.5t245 -166.5t161 -248.5t59.5 -301.5q0 -177 -73 -340.5t-194.5 -281.5t-286 -188.5t-339.5 -70.5q-161 0 -304.5 62t-245 166.5t-161 248.5t-59.5 302zM184 748q0 -138 52 -263 t140.5 -216t213.5 -145t264 -54q155 0 301 63t253.5 167.5t173 249t65.5 300.5q0 138 -52 263t-140.5 216t-213.5 145t-264 54q-155 0 -301 -63t-253.5 -167.5t-173 -249t-65.5 -300.5zM213 748q0 202 105.5 375.5t281.5 274.5t377 101q180 0 327.5 -87t230.5 -235.5 t83 -326.5q0 -151 -62.5 -290.5t-166 -240.5t-244.5 -161t-291 -60q-180 0 -327.5 87t-230.5 236t-83 327zM315 748q0 -113 41.5 -214t112.5 -174t171.5 -116t213.5 -43q173 0 326.5 88t245.5 238.5t92 322.5q0 113 -41.5 214t-113.5 174t-172.5 116t-213.5 43 q-173 0 -326 -88t-244.5 -238.5t-91.5 -322.5zM719 1907l428 268l338 -287l-68 -78l-278 240l-367 -227zM788 1798l347 215l264 -225l-64 -76l-209 178l-284 -178z" />
<glyph unicode="&#xd5;" horiz-adv-x="1785" d="M84 748q0 142 47 276.5t131 242.5t195 190t245.5 126.5t274.5 44.5q161 0 304.5 -61.5t245 -166.5t161 -248.5t59.5 -301.5q0 -177 -73 -340.5t-194.5 -281.5t-286 -188.5t-339.5 -70.5q-161 0 -304.5 62t-245 166.5t-161 248.5t-59.5 302zM184 748q0 -138 52 -263 t140.5 -216t213.5 -145t264 -54q155 0 301 63t253.5 167.5t173 249t65.5 300.5q0 138 -52 263t-140.5 216t-213.5 145t-264 54q-155 0 -301 -63t-253.5 -167.5t-173 -249t-65.5 -300.5zM213 748q0 202 105.5 375.5t281.5 274.5t377 101q180 0 327.5 -87t230.5 -235.5 t83 -326.5q0 -151 -62.5 -290.5t-166 -240.5t-244.5 -161t-291 -60q-180 0 -327.5 87t-230.5 236t-83 327zM315 748q0 -113 41.5 -214t112.5 -174t171.5 -116t213.5 -43q173 0 326.5 88t245.5 238.5t92 322.5q0 113 -41.5 214t-113.5 174t-172.5 116t-213.5 43 q-173 0 -326 -88t-244.5 -238.5t-91.5 -322.5zM641 1759q7 43 18.5 83.5t36.5 91.5t58.5 87.5t88 62t120.5 25.5q49 0 92.5 -15t72 -38.5t43 -38.5t23.5 -28q24 -29 38.5 -39.5t31.5 -10.5q66 0 94 158l98 -16q-43 -244 -192 -244q-16 0 -30 2.5t-26.5 8.5t-21 10.5 t-19.5 14.5t-16 15t-15.5 16.5t-13.5 14.5q-1 1 -13 15t-18.5 20t-22 18.5t-29 19t-34 12t-42.5 5.5q-44 0 -80 -18t-59.5 -45t-41.5 -64t-27.5 -70t-15.5 -69zM768 1737q43 243 195 243q18 0 35 -4.5t28.5 -10t25 -16.5t19 -16.5t17.5 -19t14 -15.5t18.5 -19.5t26 -25.5 t28 -21t41 -18.5t48.5 -5.5q44 0 79.5 18t58.5 45t41 64.5t27 70.5t15 69l100 -17q-7 -43 -18.5 -83.5t-36.5 -91.5t-58 -87.5t-87.5 -62t-120.5 -25.5q-135 0 -232 121q-40 49 -69 49q-67 0 -95 -158z" />
<glyph unicode="&#xd6;" horiz-adv-x="1785" d="M84 748q0 142 47 276.5t131 242.5t195 190t245.5 126.5t274.5 44.5q161 0 304.5 -61.5t245 -166.5t161 -248.5t59.5 -301.5q0 -177 -73 -340.5t-194.5 -281.5t-286 -188.5t-339.5 -70.5q-161 0 -304.5 62t-245 166.5t-161 248.5t-59.5 302zM184 748q0 -138 52 -263 t140.5 -216t213.5 -145t264 -54q155 0 301 63t253.5 167.5t173 249t65.5 300.5q0 138 -52 263t-140.5 216t-213.5 145t-264 54q-155 0 -301 -63t-253.5 -167.5t-173 -249t-65.5 -300.5zM213 748q0 202 105.5 375.5t281.5 274.5t377 101q180 0 327.5 -87t230.5 -235.5 t83 -326.5q0 -151 -62.5 -290.5t-166 -240.5t-244.5 -161t-291 -60q-180 0 -327.5 87t-230.5 236t-83 327zM315 748q0 -113 41.5 -214t112.5 -174t171.5 -116t213.5 -43q173 0 326.5 88t245.5 238.5t92 322.5q0 113 -41.5 214t-113.5 174t-172.5 116t-213.5 43 q-173 0 -326 -88t-244.5 -238.5t-91.5 -322.5zM698 1894q0 75 55 130t130 55q76 0 131 -55t55 -130t-55 -129.5t-131 -54.5q-75 0 -130 54.5t-55 129.5zM797 1894q0 -35 25.5 -61.5t60.5 -26.5q36 0 62 26t26 62t-26 62t-62 26q-35 0 -60.5 -26.5t-25.5 -61.5zM825 1894 q0 25 16.5 42.5t41.5 17.5q26 0 42.5 -17.5t16.5 -42.5t-16.5 -42t-42.5 -17q-25 0 -41.5 17t-16.5 42zM1151 1894q0 75 54.5 130t129.5 55t130 -55t55 -130t-55 -129.5t-130 -54.5t-129.5 54.5t-54.5 129.5zM1247 1894q0 -35 26.5 -61.5t61.5 -26.5t61.5 26.5t26.5 61.5 t-26.5 61.5t-61.5 26.5t-61.5 -26.5t-26.5 -61.5zM1276 1894q0 25 17 42.5t42 17.5t42.5 -17.5t17.5 -42.5t-17.5 -42t-42.5 -17t-42 17t-17 42z" />
<glyph unicode="&#xd7;" horiz-adv-x="1122" d="M68 469l346 293l-232 280l78 64l295 -354l-424 -361zM150 371l423 358l293 -356l-75 -64l-230 275l-344 -291zM283 1124l77 66l230 -279l344 293l63 -78l-422 -358zM594 748l422 358l67 -78l-346 -295l230 -276l-78 -66z" />
<glyph unicode="&#xd8;" horiz-adv-x="1785" d="M84 748q0 142 47 276.5t131 242.5t195 190t245.5 126.5t274.5 44.5q216 0 389 -104l61 73h132l-173 -208q-183 139 -409 139q-155 0 -301 -63t-253.5 -167.5t-173 -249t-65.5 -300.5t64 -293t176 -232l-184 -223h-131l178 215q-97 106 -150 243.5t-53 289.5zM213 748 q0 202 105.5 375.5t281.5 274.5t377 101q222 0 391 -131l-926 -1122q-108 91 -168.5 221.5t-60.5 280.5zM274 0l170 207q180 -137 410 -137q155 0 301 63t253.5 167.5t173 249t65.5 300.5q0 154 -64 290.5t-176 231.5l186 225h131l-180 -217q97 -106 150 -242.5t53 -287.5 q0 -177 -73 -340.5t-194.5 -281.5t-286 -188.5t-339.5 -70.5q-213 0 -389 103l-59 -72h-132zM315 748q0 -207 121 -353l781 946q-115 56 -240 56q-173 0 -326 -88t-244.5 -238.5t-91.5 -322.5zM463 229l926 1121q108 -91 168.5 -220.5t60.5 -279.5q0 -151 -62.5 -290.5 t-166 -240.5t-244.5 -161t-291 -60q-222 0 -391 131zM614 254q109 -53 240 -53q173 0 326.5 88t245.5 238.5t92 322.5q0 202 -123 350z" />
<glyph unicode="&#xd9;" horiz-adv-x="1753" d="M156 1366l18 102h301l-151 -866q-25 -145 31 -268t172 -193.5t264 -70.5q118 0 225.5 47t184.5 123.5t128.5 169.5t67.5 188l153 870h299l-18 -102h-199l-137 -784q-19 -110 -77.5 -218t-147.5 -196.5t-214.5 -143.5t-264.5 -55q-88 0 -170.5 23t-149.5 65t-121 101 t-86.5 131.5t-44.5 156.5t4 175l131 745h-198zM180 1497l17 100h630l-16 -100h-631zM352 598l154 870h299l-19 -102h-198l-137 -784q-18 -104 22 -192t125 -138.5t193 -50.5q93 0 177.5 36.5t145 96.5t101.5 134.5t55 152.5l129 745h-197l17 102h301l-152 -866 q-16 -92 -65 -181t-121.5 -161.5t-175 -117t-215.5 -44.5q-103 0 -192.5 39.5t-149.5 106.5t-87 160t-10 194zM813 2011l59 80l426 -324l-59 -79zM891 2114l59 81l426 -323l-59 -80zM1225 1497l16 100h631l-17 -100h-630z" />
<glyph unicode="&#xda;" horiz-adv-x="1753" d="M156 1366l18 102h301l-151 -866q-25 -145 31 -268t172 -193.5t264 -70.5q118 0 225.5 47t184.5 123.5t128.5 169.5t67.5 188l153 870h299l-18 -102h-199l-137 -784q-19 -110 -77.5 -218t-147.5 -196.5t-214.5 -143.5t-264.5 -55q-88 0 -170.5 23t-149.5 65t-121 101 t-86.5 131.5t-44.5 156.5t4 175l131 745h-198zM180 1497l17 100h630l-16 -100h-631zM352 598l154 870h299l-19 -102h-198l-137 -784q-18 -104 22 -192t125 -138.5t193 -50.5q93 0 177.5 36.5t145 96.5t101.5 134.5t55 152.5l129 745h-197l17 102h301l-152 -866 q-16 -92 -65 -181t-121.5 -161.5t-175 -117t-215.5 -44.5q-103 0 -192.5 39.5t-149.5 106.5t-87 160t-10 194zM764 1886l543 324l51 -86l-541 -324zM834 1776l538 321l53 -86l-540 -323zM1225 1497l16 100h631l-17 -100h-630z" />
<glyph unicode="&#xdb;" horiz-adv-x="1753" d="M156 1366l18 102h301l-151 -866q-25 -145 31 -268t172 -193.5t264 -70.5q118 0 225.5 47t184.5 123.5t128.5 169.5t67.5 188l153 870h299l-18 -102h-199l-137 -784q-19 -110 -77.5 -218t-147.5 -196.5t-214.5 -143.5t-264.5 -55q-88 0 -170.5 23t-149.5 65t-121 101 t-86.5 131.5t-44.5 156.5t4 175l131 745h-198zM180 1497l17 100h630l-16 -100h-631zM352 598l154 870h299l-19 -102h-198l-137 -784q-18 -104 22 -192t125 -138.5t193 -50.5q93 0 177.5 36.5t145 96.5t101.5 134.5t55 152.5l129 745h-197l17 102h301l-152 -866 q-16 -92 -65 -181t-121.5 -161.5t-175 -117t-215.5 -44.5q-103 0 -192.5 39.5t-149.5 106.5t-87 160t-10 194zM696 1907l428 268l338 -287l-67 -78l-279 240l-366 -227zM766 1798l346 215l264 -225l-63 -76l-209 178l-285 -178zM1225 1497l16 100h631l-17 -100h-630z" />
<glyph unicode="&#xdc;" horiz-adv-x="1753" d="M156 1366l18 102h301l-151 -866q-25 -145 31 -268t172 -193.5t264 -70.5q118 0 225.5 47t184.5 123.5t128.5 169.5t67.5 188l153 870h299l-18 -102h-199l-137 -784q-19 -110 -77.5 -218t-147.5 -196.5t-214.5 -143.5t-264.5 -55q-88 0 -170.5 23t-149.5 65t-121 101 t-86.5 131.5t-44.5 156.5t4 175l131 745h-198zM180 1497l17 100h630l-16 -100h-631zM352 598l154 870h299l-19 -102h-198l-137 -784q-18 -104 22 -192t125 -138.5t193 -50.5q93 0 177.5 36.5t145 96.5t101.5 134.5t55 152.5l129 745h-197l17 102h301l-152 -866 q-16 -92 -65 -181t-121.5 -161.5t-175 -117t-215.5 -44.5q-103 0 -192.5 39.5t-149.5 106.5t-87 160t-10 194zM678 1894q0 75 54.5 130t129.5 55q76 0 131.5 -55t55.5 -130t-55.5 -129.5t-131.5 -54.5q-75 0 -129.5 54.5t-54.5 129.5zM776 1894q0 -35 25.5 -61.5t60.5 -26.5 q36 0 62 26t26 62t-26 62t-62 26q-35 0 -60.5 -26.5t-25.5 -61.5zM805 1894q0 25 16.5 42.5t40.5 17.5q26 0 43 -17.5t17 -42.5t-17 -42t-43 -17q-25 0 -41 17t-16 42zM1130 1894q0 75 55 130t130 55t129.5 -55t54.5 -130t-54.5 -129.5t-129.5 -54.5t-130 54.5t-55 129.5z M1225 1497l16 100h631l-17 -100h-630zM1227 1894q0 -35 26.5 -61.5t61.5 -26.5t61.5 26.5t26.5 61.5t-26.5 61.5t-61.5 26.5t-61.5 -26.5t-26.5 -61.5zM1255 1894q0 25 17.5 42.5t42.5 17.5t42 -17.5t17 -42.5t-17 -42t-42 -17t-42.5 17t-17.5 42z" />
<glyph unicode="&#xdd;" horiz-adv-x="1581" d="M86 1366l18 102h277l381 -835l-90 -504h-301l16 102h199l69 385l-342 750h-227zM109 1497l16 100h629l-17 -100h-628zM346 0l19 100h628l-16 -100h-631zM410 1468h321l-18 -102h-146l236 -514l416 514h-125l18 102h322l-654 -806zM674 1886l543 324l51 -86l-541 -324z M700 129l91 502l675 837h277l-19 -102h-206l-635 -784l-62 -351h197l-19 -102h-299zM743 1776l539 321l53 -86l-540 -323zM1118 1497l17 100h630l-16 -100h-631z" />
<glyph unicode="&#xde;" horiz-adv-x="1585" d="M-31 0l17 100h628l-16 -100h-629zM-8 129l16 102h199l201 1135h-199l18 102h299l-233 -1339h-301zM231 1497l19 100h629l-17 -100h-631zM322 129l49 281h598q104 0 198.5 36t161 95.5t105.5 139t39 163.5q0 146 -108 245t-261 99h-596l49 280h299l-16 -102h-201l-12 -78 h477q194 0 331.5 -127t137.5 -317q0 -106 -47 -204.5t-127 -171.5t-192.5 -117t-237.5 -44h-514l-15 -76h199l-18 -102h-299zM377 438l125 721h602q143 0 241.5 -89.5t98.5 -225.5q0 -80 -36.5 -154t-98.5 -129.5t-151 -89t-189 -33.5h-592zM496 539h473q157 0 265.5 92.5 t108.5 212.5q0 92 -68 153.5t-171 61.5h-518z" />
<glyph unicode="&#xdf;" horiz-adv-x="1398" d="M-51 0l18 100h328l176 1002q17 95 52 176t89 145.5t132.5 101t173.5 36.5q64 0 115.5 -20t82 -52t46.5 -69t16 -74q0 -40 -12.5 -72.5t-42.5 -63t-52 -47.5t-67 -49q-47 -31 -73 -50.5t-59.5 -53t-49 -72t-15.5 -84.5q0 -35 11.5 -66t25 -51.5t41.5 -44.5t44 -35t50 -32 q87 -53 135.5 -114.5t48.5 -156.5q0 -120 -84 -196t-209 -76q-157 0 -295 129l68 76q113 -105 227 -105q86 0 139.5 48.5t53.5 123.5q0 60 -32.5 99.5t-104.5 85.5q-27 17 -38.5 24.5t-39.5 28.5t-43 36.5t-37.5 42.5t-33.5 52t-20 59.5t-9 71.5q0 52 17 100t39 81 t59.5 67.5t62.5 52.5t63 43q72 50 100.5 80t28.5 68q0 44 -40 79t-117 35q-143 0 -231.5 -103t-117.5 -272l-190 -1085h-430zM-27 129l17 102h196l115 660h-197l19 100h299l-152 -862h-297zM129 1020l16 100h197q14 88 44.5 169.5t80 155t113.5 127.5t151 86t187 32 q95 0 171.5 -32t122.5 -83t70.5 -110t24.5 -119q0 -51 -16.5 -98t-37 -79t-58 -67t-58.5 -51t-60 -43q-79 -53 -110 -84.5t-31 -69.5q0 -34 22 -54.5t93 -64.5q243 -153 243 -381q0 -118 -60 -211t-156.5 -141.5t-207.5 -48.5q-117 0 -217.5 50.5t-165.5 111.5l68 73 q58 -54 139 -94.5t176 -40.5q135 0 228.5 84.5t93.5 216.5q0 54 -16.5 101t-47 82.5t-61.5 61t-72 50.5q-40 26 -60 40.5t-47.5 40.5t-39.5 56.5t-12 67.5q0 40 13.5 74t44 64t55.5 49t71 49q37 26 55 39.5t48 40.5t44.5 49.5t26.5 56t12 70.5q0 41 -18 82.5t-52 78 t-91 59.5t-127 23q-81 0 -152 -26t-124 -71t-94 -106.5t-67 -131.5t-39 -148l-16 -86h-297z" />
<glyph unicode="&#xe0;" horiz-adv-x="1259" d="M4 367q0 76 29.5 146.5t88.5 131.5t162.5 98t237.5 37q132 0 305 -43l4 23q7 40 -6.5 68.5t-36 43.5t-57.5 23.5t-59.5 10t-53.5 1.5q-98 0 -197.5 -21t-154.5 -44l-39 94q59 25 171.5 49.5t219.5 24.5q48 0 89 -5.5t81.5 -18t68.5 -34t49.5 -53.5t25.5 -75.5t-4 -100.5 l-21 -113q-217 70 -385 70q-109 0 -192.5 -28.5t-131 -75t-71 -100t-23.5 -109.5q0 -55 21.5 -105.5t61.5 -91.5t103.5 -65.5t141.5 -24.5q100 0 207 37.5t199 101.5l-21 -119h326l-17 -100h-430l6 35q-138 -55 -270 -55q-102 0 -185 33t-135 88t-80 123.5t-28 142.5z M133 367q0 53 21 101.5t65 90.5t122 67t181 25q152 0 381 -69l-57 -322q-94 -70 -202 -110.5t-212 -40.5q-144 0 -221.5 75t-77.5 183zM174 1053q67 30 195.5 58t248.5 28q81 0 150 -13.5t132 -44.5t101 -81.5t56 -125t-2 -174.5l-82 -469h194l-18 -102h-299l106 590 q13 73 -0.5 130t-45 92t-80.5 57.5t-100.5 31t-111.5 8.5q-111 0 -225.5 -24.5t-177.5 -52.5zM236 367q0 -68 49.5 -112t146.5 -44q163 0 320 106l34 193q-147 39 -264 39q-149 0 -217.5 -53.5t-68.5 -128.5zM475 1577l60 80l426 -324l-60 -80zM553 1679l59 82l426 -323 l-59 -80z" />
<glyph unicode="&#xe1;" horiz-adv-x="1259" d="M4 367q0 76 29.5 146.5t88.5 131.5t162.5 98t237.5 37q132 0 305 -43l4 23q7 40 -6.5 68.5t-36 43.5t-57.5 23.5t-59.5 10t-53.5 1.5q-98 0 -197.5 -21t-154.5 -44l-39 94q59 25 171.5 49.5t219.5 24.5q48 0 89 -5.5t81.5 -18t68.5 -34t49.5 -53.5t25.5 -75.5t-4 -100.5 l-21 -113q-217 70 -385 70q-109 0 -192.5 -28.5t-131 -75t-71 -100t-23.5 -109.5q0 -55 21.5 -105.5t61.5 -91.5t103.5 -65.5t141.5 -24.5q100 0 207 37.5t199 101.5l-21 -119h326l-17 -100h-430l6 35q-138 -55 -270 -55q-102 0 -185 33t-135 88t-80 123.5t-28 142.5z M133 367q0 53 21 101.5t65 90.5t122 67t181 25q152 0 381 -69l-57 -322q-94 -70 -202 -110.5t-212 -40.5q-144 0 -221.5 75t-77.5 183zM174 1053q67 30 195.5 58t248.5 28q81 0 150 -13.5t132 -44.5t101 -81.5t56 -125t-2 -174.5l-82 -469h194l-18 -102h-299l106 590 q13 73 -0.5 130t-45 92t-80.5 57.5t-100.5 31t-111.5 8.5q-111 0 -225.5 -24.5t-177.5 -52.5zM236 367q0 -68 49.5 -112t146.5 -44q163 0 320 106l34 193q-147 39 -264 39q-149 0 -217.5 -53.5t-68.5 -128.5zM426 1452l543 324l51 -86l-541 -324zM496 1341l538 322l53 -86 l-540 -324z" />
<glyph unicode="&#xe2;" horiz-adv-x="1259" d="M4 367q0 76 29.5 146.5t88.5 131.5t162.5 98t237.5 37q132 0 305 -43l4 23q7 40 -6.5 68.5t-36 43.5t-57.5 23.5t-59.5 10t-53.5 1.5q-98 0 -197.5 -21t-154.5 -44l-39 94q59 25 171.5 49.5t219.5 24.5q48 0 89 -5.5t81.5 -18t68.5 -34t49.5 -53.5t25.5 -75.5t-4 -100.5 l-21 -113q-217 70 -385 70q-109 0 -192.5 -28.5t-131 -75t-71 -100t-23.5 -109.5q0 -55 21.5 -105.5t61.5 -91.5t103.5 -65.5t141.5 -24.5q100 0 207 37.5t199 101.5l-21 -119h326l-17 -100h-430l6 35q-138 -55 -270 -55q-102 0 -185 33t-135 88t-80 123.5t-28 142.5z M133 367q0 53 21 101.5t65 90.5t122 67t181 25q152 0 381 -69l-57 -322q-94 -70 -202 -110.5t-212 -40.5q-144 0 -221.5 75t-77.5 183zM174 1053q67 30 195.5 58t248.5 28q81 0 150 -13.5t132 -44.5t101 -81.5t56 -125t-2 -174.5l-82 -469h194l-18 -102h-299l106 590 q13 73 -0.5 130t-45 92t-80.5 57.5t-100.5 31t-111.5 8.5q-111 0 -225.5 -24.5t-177.5 -52.5zM236 367q0 -68 49.5 -112t146.5 -44q163 0 320 106l34 193q-147 39 -264 39q-149 0 -217.5 -53.5t-68.5 -128.5zM356 1470l428 269l338 -287l-67 -78l-279 240l-366 -228z M426 1362l346 215l264 -225l-63 -76l-209 178l-285 -178z" />
<glyph unicode="&#xe3;" horiz-adv-x="1259" d="M4 367q0 76 29.5 146.5t88.5 131.5t162.5 98t237.5 37q132 0 305 -43l4 23q7 40 -6.5 68.5t-36 43.5t-57.5 23.5t-59.5 10t-53.5 1.5q-98 0 -197.5 -21t-154.5 -44l-39 94q59 25 171.5 49.5t219.5 24.5q48 0 89 -5.5t81.5 -18t68.5 -34t49.5 -53.5t25.5 -75.5t-4 -100.5 l-21 -113q-217 70 -385 70q-109 0 -192.5 -28.5t-131 -75t-71 -100t-23.5 -109.5q0 -55 21.5 -105.5t61.5 -91.5t103.5 -65.5t141.5 -24.5q100 0 207 37.5t199 101.5l-21 -119h326l-17 -100h-430l6 35q-138 -55 -270 -55q-102 0 -185 33t-135 88t-80 123.5t-28 142.5z M133 367q0 53 21 101.5t65 90.5t122 67t181 25q152 0 381 -69l-57 -322q-94 -70 -202 -110.5t-212 -40.5q-144 0 -221.5 75t-77.5 183zM174 1053q67 30 195.5 58t248.5 28q81 0 150 -13.5t132 -44.5t101 -81.5t56 -125t-2 -174.5l-82 -469h194l-18 -102h-299l106 590 q13 73 -0.5 130t-45 92t-80.5 57.5t-100.5 31t-111.5 8.5q-111 0 -225.5 -24.5t-177.5 -52.5zM236 367q0 -68 49.5 -112t146.5 -44q163 0 320 106l34 193q-147 39 -264 39q-149 0 -217.5 -53.5t-68.5 -128.5zM281 1325q7 43 18.5 83.5t36.5 91.5t58 87.5t87.5 62t120.5 25.5 q49 0 92.5 -15t72.5 -39t43.5 -39t23.5 -28q24 -28 38 -38.5t31 -10.5q66 0 94 158l99 -16q-43 -244 -193 -244q-18 0 -35 4.5t-28 9t-25 16t-19 16t-19 19.5t-15 17l-13 15q-13 14 -19 20t-22 19t-29.5 19t-34 11.5t-42.5 5.5q-44 0 -80 -18t-59 -45t-41 -64t-27.5 -70 t-15.5 -69zM408 1303q43 243 194 243q18 0 35 -4.5t28.5 -10t25 -16.5t19 -16.5t17.5 -19t14 -15.5t18.5 -19.5t26 -25.5t28 -21t41 -18.5t48.5 -5.5q54 0 95.5 25.5t66 69t38 84t21.5 87.5l101 -16q-7 -43 -18.5 -83.5t-36.5 -91.5t-58.5 -87.5t-88 -62t-120.5 -25.5 q-40 0 -78 12t-59.5 23.5t-47 35.5t-29.5 28.5t-17 21.5q-40 49 -70 49q-66 0 -94 -158z" />
<glyph unicode="&#xe4;" horiz-adv-x="1259" d="M4 367q0 76 29.5 146.5t88.5 131.5t162.5 98t237.5 37q132 0 305 -43l4 23q7 40 -6.5 68.5t-36 43.5t-57.5 23.5t-59.5 10t-53.5 1.5q-98 0 -197.5 -21t-154.5 -44l-39 94q59 25 171.5 49.5t219.5 24.5q48 0 89 -5.5t81.5 -18t68.5 -34t49.5 -53.5t25.5 -75.5t-4 -100.5 l-21 -113q-217 70 -385 70q-109 0 -192.5 -28.5t-131 -75t-71 -100t-23.5 -109.5q0 -55 21.5 -105.5t61.5 -91.5t103.5 -65.5t141.5 -24.5q100 0 207 37.5t199 101.5l-21 -119h326l-17 -100h-430l6 35q-138 -55 -270 -55q-102 0 -185 33t-135 88t-80 123.5t-28 142.5z M133 367q0 53 21 101.5t65 90.5t122 67t181 25q152 0 381 -69l-57 -322q-94 -70 -202 -110.5t-212 -40.5q-144 0 -221.5 75t-77.5 183zM174 1053q67 30 195.5 58t248.5 28q81 0 150 -13.5t132 -44.5t101 -81.5t56 -125t-2 -174.5l-82 -469h194l-18 -102h-299l106 590 q13 73 -0.5 130t-45 92t-80.5 57.5t-100.5 31t-111.5 8.5q-111 0 -225.5 -24.5t-177.5 -52.5zM236 367q0 -68 49.5 -112t146.5 -44q163 0 320 106l34 193q-147 39 -264 39q-149 0 -217.5 -53.5t-68.5 -128.5zM340 1460q0 75 54.5 130t129.5 55q76 0 131.5 -55t55.5 -130 t-55.5 -129.5t-131.5 -54.5q-75 0 -129.5 54.5t-54.5 129.5zM438 1460q0 -35 25.5 -61.5t60.5 -26.5q36 0 62 26t26 62t-26 62t-62 26q-35 0 -60.5 -26.5t-25.5 -61.5zM467 1460q0 25 16.5 42.5t40.5 17.5q26 0 43 -17.5t17 -42.5t-17 -42t-43 -17q-25 0 -41 17t-16 42z M793 1460q0 75 54.5 130t129.5 55t129.5 -55t54.5 -130t-54.5 -129.5t-129.5 -54.5t-129.5 54.5t-54.5 129.5zM889 1460q0 -35 26.5 -61.5t61.5 -26.5t61.5 26.5t26.5 61.5t-26.5 61.5t-61.5 26.5t-61.5 -26.5t-26.5 -61.5zM918 1460q0 25 17 42.5t42 17.5t42 -17.5 t17 -42.5t-17 -42t-42 -17t-42 17t-17 42z" />
<glyph unicode="&#xe5;" horiz-adv-x="1259" d="M4 367q0 76 29.5 146.5t88.5 131.5t162.5 98t237.5 37q132 0 305 -43l4 23q7 40 -6.5 68.5t-36 43.5t-57.5 23.5t-59.5 10t-53.5 1.5q-98 0 -197.5 -21t-154.5 -44l-39 94q59 25 171.5 49.5t219.5 24.5q48 0 89 -5.5t81.5 -18t68.5 -34t49.5 -53.5t25.5 -75.5t-4 -100.5 l-21 -113q-217 70 -385 70q-109 0 -192.5 -28.5t-131 -75t-71 -100t-23.5 -109.5q0 -55 21.5 -105.5t61.5 -91.5t103.5 -65.5t141.5 -24.5q100 0 207 37.5t199 101.5l-21 -119h326l-17 -100h-430l6 35q-138 -55 -270 -55q-102 0 -185 33t-135 88t-80 123.5t-28 142.5z M133 367q0 53 21 101.5t65 90.5t122 67t181 25q152 0 381 -69l-57 -322q-94 -70 -202 -110.5t-212 -40.5q-144 0 -221.5 75t-77.5 183zM174 1053q67 30 195.5 58t248.5 28q81 0 150 -13.5t132 -44.5t101 -81.5t56 -125t-2 -174.5l-82 -469h194l-18 -102h-299l106 590 q13 73 -0.5 130t-45 92t-80.5 57.5t-100.5 31t-111.5 8.5q-111 0 -225.5 -24.5t-177.5 -52.5zM236 367q0 -68 49.5 -112t146.5 -44q163 0 320 106l34 193q-147 39 -264 39q-149 0 -217.5 -53.5t-68.5 -128.5zM481 1509q0 115 81.5 196t195.5 81q115 0 195.5 -80.5 t80.5 -196.5q0 -114 -80.5 -195t-195.5 -81q-114 0 -195.5 81t-81.5 195zM582 1509q0 -72 52 -124t124 -52q73 0 124.5 52t51.5 124q0 74 -51.5 125.5t-124.5 51.5q-72 0 -124 -52t-52 -125zM610 1509q0 61 44 104.5t104 43.5q61 0 104 -43t43 -105q0 -60 -43 -103.5 t-104 -43.5q-60 0 -104 43.5t-44 103.5zM713 1509q0 -19 13 -32t32 -13q20 0 33.5 13t13.5 32q0 20 -13.5 33.5t-33.5 13.5q-19 0 -32 -13.5t-13 -33.5z" />
<glyph unicode="&#xe6;" horiz-adv-x="1927" d="M4 367q0 76 29.5 146.5t88.5 131.5t162.5 98t237.5 37q132 0 305 -43l4 23q8 39 -5 67.5t-36 43.5t-58 23.5t-60 10.5t-54 2q-98 0 -197.5 -21t-154.5 -44l-39 94q59 25 171.5 49.5t219.5 24.5q48 0 89 -5.5t81.5 -18t68.5 -34t49.5 -53.5t25.5 -75.5t-4 -100.5l-17 -90 l-6 -23q-226 70 -383 70q-109 0 -192.5 -28.5t-131 -75t-71 -100t-23.5 -109.5q0 -55 21.5 -105.5t61.5 -91.5t103.5 -65.5t141.5 -24.5q260 0 520 227q57 -104 163.5 -165.5t244.5 -61.5q208 0 385 147l65 -80q-94 -76 -211 -121.5t-239 -45.5q-133 0 -243 48t-185 134 q-250 -182 -500 -182q-102 0 -185 33t-135 88t-80 123.5t-28 142.5zM133 367q0 53 21 101.5t65 90.5t122 67t181 25q153 0 379 -69q-2 -18 -2 -56q0 -105 41 -192q-256 -225 -508 -225q-144 0 -221.5 75t-77.5 183zM174 1053q67 30 195.5 58t248.5 28q288 0 394 -154 q185 158 422 158q182 0 294.5 -97t112.5 -249q0 -102 -52 -182t-140 -129t-197.5 -74t-232.5 -25q-76 0 -164 10q35 -87 113.5 -136.5t191.5 -49.5q163 0 305 117l64 -80q-175 -139 -369 -139t-312 117t-120 294q165 -33 291 -33q144 0 261 35t189 106.5t72 168.5 q0 109 -81.5 176t-225.5 67q-149 0 -276 -75.5t-195 -200.5q4 63 -14 111.5t-51 78.5t-80 49.5t-95.5 27t-104.5 7.5q-111 0 -227 -24.5t-176 -52.5zM236 367q0 -68 49.5 -112t146.5 -44q191 0 389 154q-22 71 -22 143q-154 41 -277 41q-149 0 -217.5 -53.5t-68.5 -128.5z M928 551q6 127 76 233t184.5 167t245.5 61t204.5 -59t73.5 -156q0 -131 -139.5 -206t-353.5 -75q-137 0 -291 35zM1047 631q89 -13 172 -13q173 0 283 52t110 127q0 50 -45.5 82t-132.5 32q-135 0 -242.5 -79t-144.5 -201z" />
<glyph unicode="&#xe7;" horiz-adv-x="1202" d="M35 526q0 166 86.5 309t230 225.5t307.5 82.5q146 0 275 -74l8 51h102l-45 -262q-36 82 -134 132t-206 50q-136 0 -257 -69t-194 -188.5t-73 -256.5q0 -157 92 -276t244 -156l-39 -211l-98 17l20 127q-148 63 -233.5 197.5t-85.5 301.5zM86 -559l37 92q17 -7 47 -18 t119.5 -29t173.5 -18q116 0 185 57t69 145q0 82 -67 142.5t-187 78.5l35 197q41 -8 92 -8q209 0 420 147l59 -82q-110 -78 -237 -121.5t-242 -43.5h-8l-2 -13q114 -38 176.5 -116t62.5 -181q0 -132 -98.5 -217.5t-257.5 -85.5q-94 0 -188 18.5t-141 36.5zM135 -440l39 92 q14 -6 39 -15t100.5 -23.5t149.5 -14.5q125 0 125 71q0 31 -38.5 57.5t-117.5 36.5l12 101q121 -17 182.5 -68.5t61.5 -126.5q0 -78 -59.5 -126t-165.5 -48q-83 0 -165 16t-122 32zM164 526q0 131 68.5 243.5t182.5 177.5t244 65q80 0 153.5 -27.5t122.5 -80t52 -118.5 l-35 -198h-102l35 205q-11 47 -77 82.5t-149 35.5q-157 0 -275 -114.5t-118 -270.5q0 -137 89 -226t235 -89q171 0 344 121l57 -82q-201 -141 -401 -141q-189 0 -307.5 119.5t-118.5 297.5zM981 588l92 532h105l-95 -532h-102z" />
<glyph unicode="&#xe8;" horiz-adv-x="1163" d="M35 526q0 167 87 310t233 225t315 82q182 0 294.5 -97t112.5 -249q0 -102 -52 -182t-140 -129t-197.5 -74t-232.5 -25q-76 0 -164 10q35 -87 113.5 -136.5t191.5 -49.5q163 0 305 117l64 -80q-175 -139 -369 -139t-312 117t-120 294q165 -33 291 -33q144 0 261 35 t189 106.5t72 168.5q0 109 -81.5 176t-225.5 67q-141 0 -264.5 -69t-197 -187.5t-73.5 -257.5q0 -189 128 -317.5t333 -128.5q208 0 385 147l66 -80q-94 -76 -211.5 -121.5t-239.5 -45.5q-165 0 -294 74t-198 198t-69 274zM164 551q6 127 76 233t184.5 167t245.5 61 t204.5 -59t73.5 -156q0 -131 -139.5 -206t-353.5 -75q-137 0 -291 35zM281 631q93 -13 174 -13q173 0 283 52t110 127q0 50 -45.5 82t-132.5 32q-135 0 -243.5 -79.5t-145.5 -200.5zM479 1577l60 80l426 -324l-60 -80zM557 1679l59 82l426 -323l-59 -80z" />
<glyph unicode="&#xe9;" horiz-adv-x="1163" d="M35 526q0 167 87 310t233 225t315 82q182 0 294.5 -97t112.5 -249q0 -102 -52 -182t-140 -129t-197.5 -74t-232.5 -25q-76 0 -164 10q35 -87 113.5 -136.5t191.5 -49.5q163 0 305 117l64 -80q-175 -139 -369 -139t-312 117t-120 294q165 -33 291 -33q144 0 261 35 t189 106.5t72 168.5q0 109 -81.5 176t-225.5 67q-141 0 -264.5 -69t-197 -187.5t-73.5 -257.5q0 -189 128 -317.5t333 -128.5q208 0 385 147l66 -80q-94 -76 -211.5 -121.5t-239.5 -45.5q-165 0 -294 74t-198 198t-69 274zM164 551q6 127 76 233t184.5 167t245.5 61 t204.5 -59t73.5 -156q0 -131 -139.5 -206t-353.5 -75q-137 0 -291 35zM281 631q93 -13 174 -13q173 0 283 52t110 127q0 50 -45.5 82t-132.5 32q-135 0 -243.5 -79.5t-145.5 -200.5zM430 1452l543 324l51 -86l-541 -324zM500 1341l538 322l54 -86l-541 -324z" />
<glyph unicode="&#xea;" horiz-adv-x="1163" d="M35 526q0 167 87 310t233 225t315 82q182 0 294.5 -97t112.5 -249q0 -102 -52 -182t-140 -129t-197.5 -74t-232.5 -25q-76 0 -164 10q35 -87 113.5 -136.5t191.5 -49.5q163 0 305 117l64 -80q-175 -139 -369 -139t-312 117t-120 294q165 -33 291 -33q144 0 261 35 t189 106.5t72 168.5q0 109 -81.5 176t-225.5 67q-141 0 -264.5 -69t-197 -187.5t-73.5 -257.5q0 -189 128 -317.5t333 -128.5q208 0 385 147l66 -80q-94 -76 -211.5 -121.5t-239.5 -45.5q-165 0 -294 74t-198 198t-69 274zM164 551q6 127 76 233t184.5 167t245.5 61 t204.5 -59t73.5 -156q0 -131 -139.5 -206t-353.5 -75q-137 0 -291 35zM281 631q93 -13 174 -13q173 0 283 52t110 127q0 50 -45.5 82t-132.5 32q-135 0 -243.5 -79.5t-145.5 -200.5zM360 1470l428 269l338 -287l-67 -78l-279 240l-366 -228zM430 1362l346 215l264 -225 l-63 -76l-209 178l-285 -178z" />
<glyph unicode="&#xeb;" horiz-adv-x="1163" d="M35 526q0 167 87 310t233 225t315 82q182 0 294.5 -97t112.5 -249q0 -102 -52 -182t-140 -129t-197.5 -74t-232.5 -25q-76 0 -164 10q35 -87 113.5 -136.5t191.5 -49.5q163 0 305 117l64 -80q-175 -139 -369 -139t-312 117t-120 294q165 -33 291 -33q144 0 261 35 t189 106.5t72 168.5q0 109 -81.5 176t-225.5 67q-141 0 -264.5 -69t-197 -187.5t-73.5 -257.5q0 -189 128 -317.5t333 -128.5q208 0 385 147l66 -80q-94 -76 -211.5 -121.5t-239.5 -45.5q-165 0 -294 74t-198 198t-69 274zM164 551q6 127 76 233t184.5 167t245.5 61 t204.5 -59t73.5 -156q0 -131 -139.5 -206t-353.5 -75q-137 0 -291 35zM281 631q93 -13 174 -13q173 0 283 52t110 127q0 50 -45.5 82t-132.5 32q-135 0 -243.5 -79.5t-145.5 -200.5zM344 1460q0 75 54.5 130t129.5 55q76 0 131.5 -55t55.5 -130t-55.5 -129.5t-131.5 -54.5 q-75 0 -129.5 54.5t-54.5 129.5zM442 1460q0 -35 25.5 -61.5t60.5 -26.5q36 0 62 26t26 62t-26 62t-62 26q-35 0 -60.5 -26.5t-25.5 -61.5zM471 1460q0 25 16.5 42.5t40.5 17.5q26 0 43 -17.5t17 -42.5t-17 -42t-43 -17q-25 0 -41 17t-16 42zM797 1460q0 75 54.5 130 t129.5 55t129.5 -55t54.5 -130t-54.5 -129.5t-129.5 -54.5t-129.5 54.5t-54.5 129.5zM893 1460q0 -35 26.5 -61.5t61.5 -26.5t61.5 26.5t26.5 61.5t-26.5 61.5t-61.5 26.5t-61.5 -26.5t-26.5 -61.5zM922 1460q0 25 17 42.5t42 17.5t42 -17.5t17 -42.5t-17 -42t-42 -17 t-42 17t-17 42z" />
<glyph unicode="&#xec;" horiz-adv-x="724" d="M-53 0l18 100h623l-17 -100h-624zM-29 129l17 102h194l117 660h-197l17 100h301l-152 -862h-297zM125 1020l18 100h430l-157 -889h196l-18 -102h-297l156 891h-328zM201 1577l59 80l426 -324l-59 -80zM279 1679l59 82l426 -323l-59 -80z" />
<glyph unicode="&#xed;" horiz-adv-x="724" d="M-53 0l18 100h623l-17 -100h-624zM-29 129l17 102h194l117 660h-197l17 100h301l-152 -862h-297zM125 1020l18 100h430l-157 -889h196l-18 -102h-297l156 891h-328zM152 1452l542 324l51 -86l-540 -324zM221 1341l539 322l53 -86l-541 -324z" />
<glyph unicode="&#xee;" horiz-adv-x="724" d="M-53 0l18 100h623l-17 -100h-624zM-29 129l17 102h194l117 660h-197l17 100h301l-152 -862h-297zM84 1470l428 269l338 -287l-68 -78l-278 240l-367 -228zM125 1020l18 100h430l-157 -889h196l-18 -102h-297l156 891h-328zM154 1362l346 215l264 -225l-64 -76l-208 178 l-285 -178z" />
<glyph unicode="&#xef;" horiz-adv-x="724" d="M-53 0l18 100h623l-17 -100h-624zM-29 129l17 102h194l117 660h-197l17 100h301l-152 -862h-297zM59 1460q0 75 55 130t130 55q76 0 131 -55t55 -130t-55 -129.5t-131 -54.5q-75 0 -130 54.5t-55 129.5zM125 1020l18 100h430l-157 -889h196l-18 -102h-297l156 891h-328z M158 1460q0 -35 25.5 -61.5t60.5 -26.5q36 0 62 26t26 62t-26 62t-62 26q-35 0 -60.5 -26.5t-25.5 -61.5zM186 1460q0 25 16.5 42.5t41.5 17.5q26 0 42.5 -17.5t16.5 -42.5t-16.5 -42t-42.5 -17q-25 0 -41.5 17t-16.5 42zM512 1460q0 75 54.5 130t129.5 55t130 -55t55 -130 t-55 -129.5t-130 -54.5t-129.5 54.5t-54.5 129.5zM608 1460q0 -35 26.5 -61.5t61.5 -26.5t61.5 26.5t26.5 61.5t-26.5 61.5t-61.5 26.5t-61.5 -26.5t-26.5 -61.5zM637 1460q0 25 17 42.5t42 17.5t42.5 -17.5t17.5 -42.5t-17.5 -42t-42.5 -17t-42 17t-17 42z" />
<glyph unicode="&#xf0;" horiz-adv-x="1261" d="M35 518q0 162 84.5 301.5t225.5 220t302 80.5q125 0 242 -57q-39 89 -94 162q-38 49 -101 98l-176 -162l-65 74l233 215q104 -60 186 -162q183 -227 183 -569v-6q-26 101 -95 173t-149.5 103t-163.5 31q-99 0 -193.5 -40.5t-164 -108t-112 -160.5t-42.5 -193 q0 -182 125 -310t307 -128q68 0 135 18t137.5 64t123 115.5t86.5 183.5t34 258q0 168 -48 319.5t-140 266.5q-74 96 -186 163l186 172l68 -73l-95 -88q55 -47 107 -111q100 -125 154.5 -296t54.5 -353q0 -138 -28.5 -253.5t-77.5 -194t-110.5 -137t-132.5 -91t-137 -48 t-131 -15.5q-111 0 -210.5 42.5t-169.5 115t-111 171.5t-41 209zM152 1657q286 45 514 -51l141 131l67 -76l-192 -178q-222 121 -514 76zM164 518q0 127 66.5 236.5t178 173t238.5 63.5q75 0 146 -26.5t131.5 -79t92.5 -143.5t21 -207q-18 -96 -56 -171.5t-85.5 -122.5 t-105.5 -77.5t-113 -42.5t-111 -12q-172 0 -287.5 118t-115.5 291zM172 1530q275 44 487 -66l-227 -209l-70 74l107 96q-131 28 -281 5zM266 518q0 -131 85.5 -219t215.5 -88q56 0 110 16.5t107 52.5t94 104t60 161q7 88 -15.5 156.5t-66.5 108.5t-97 60.5t-112 20.5 q-151 0 -266 -111.5t-115 -261.5z" />
<glyph unicode="&#xf1;" horiz-adv-x="1449" d="M-47 0l16 100h625l-16 -100h-625zM-25 129l17 102h196l117 660h-196l16 100h301l-154 -862h-297zM131 1020l19 100h430l-11 -57q150 80 295 80q64 0 124 -19t115.5 -59t91 -102.5t50.5 -148.5t-6 -198l-68 -385h197l-18 -102h-299l90 504q16 111 1 188.5t-60 126 t-100 70.5t-118 22q-113 0 -228 -58t-212 -157l35 195h-328zM301 129l115 645q99 110 215.5 174t232.5 64q58 0 107.5 -20t89.5 -64t53 -116t-2 -175l-94 -537h325l-16 -100h-428l115 655q22 133 -23 194.5t-127 61.5q-87 0 -180.5 -48.5t-173.5 -135.5l-88 -496h196 l-18 -102h-299zM430 1325q7 43 18.5 83.5t36.5 91.5t58.5 87.5t88 62t120.5 25.5q49 0 92.5 -15t72 -39t43 -38.5t23.5 -28.5q24 -28 38.5 -38.5t31.5 -10.5q66 0 94 158l98 -16q-43 -244 -192 -244q-16 0 -30 2.5t-26.5 8.5t-21 10.5t-19.5 14.5t-16 15t-15.5 16.5 t-13.5 14.5q-1 1 -13 15t-18.5 20t-22 18.5t-29 19t-34 12t-42.5 5.5q-44 0 -80 -18t-59.5 -45t-41.5 -64t-27.5 -70t-15.5 -69zM557 1303q43 243 195 243q18 0 35 -4.5t28.5 -10t25 -16.5t19 -16.5t17.5 -19t14 -15.5t18.5 -19.5t26 -25.5t28 -21t41 -18.5t48.5 -5.5 q54 0 95.5 25.5t66 69t38 84t21.5 87.5l100 -16q-7 -43 -18.5 -83.5t-36.5 -91.5t-58 -87.5t-87.5 -62t-120.5 -25.5q-135 0 -232 121q-40 49 -69 49q-67 0 -95 -158z" />
<glyph unicode="&#xf2;" horiz-adv-x="1275" d="M35 528q0 165 86.5 307.5t230 225t307.5 82.5q150 0 275.5 -74t196.5 -200t71 -275q0 -125 -51 -239t-136 -196t-199.5 -130.5t-237.5 -48.5q-152 0 -277 73.5t-195.5 199t-70.5 275.5zM135 528q0 -122 58 -225t160 -163t225 -60q136 0 256.5 69t193 188.5t72.5 256.5 q0 185 -128 315.5t-313 130.5q-136 0 -257 -69t-194 -188t-73 -255zM164 528q0 130 68.5 242t182.5 177t244 65q176 0 294 -121t118 -297q0 -131 -68 -243.5t-181.5 -177t-243.5 -64.5q-178 0 -296 120.5t-118 298.5zM266 528q0 -135 89.5 -226t222.5 -91q158 0 275.5 113.5 t117.5 269.5q0 134 -89.5 225.5t-222.5 91.5q-157 0 -275 -114t-118 -269zM502 1577l59 80l426 -324l-59 -80zM580 1679l59 82l426 -323l-59 -80z" />
<glyph unicode="&#xf3;" horiz-adv-x="1275" d="M35 528q0 165 86.5 307.5t230 225t307.5 82.5q150 0 275.5 -74t196.5 -200t71 -275q0 -125 -51 -239t-136 -196t-199.5 -130.5t-237.5 -48.5q-152 0 -277 73.5t-195.5 199t-70.5 275.5zM135 528q0 -122 58 -225t160 -163t225 -60q136 0 256.5 69t193 188.5t72.5 256.5 q0 185 -128 315.5t-313 130.5q-136 0 -257 -69t-194 -188t-73 -255zM164 528q0 130 68.5 242t182.5 177t244 65q176 0 294 -121t118 -297q0 -131 -68 -243.5t-181.5 -177t-243.5 -64.5q-178 0 -296 120.5t-118 298.5zM266 528q0 -135 89.5 -226t222.5 -91q158 0 275.5 113.5 t117.5 269.5q0 134 -89.5 225.5t-222.5 91.5q-157 0 -275 -114t-118 -269zM453 1452l542 324l52 -86l-541 -324zM522 1341l539 322l53 -86l-541 -324z" />
<glyph unicode="&#xf4;" horiz-adv-x="1275" d="M35 528q0 165 86.5 307.5t230 225t307.5 82.5q150 0 275.5 -74t196.5 -200t71 -275q0 -125 -51 -239t-136 -196t-199.5 -130.5t-237.5 -48.5q-152 0 -277 73.5t-195.5 199t-70.5 275.5zM135 528q0 -122 58 -225t160 -163t225 -60q136 0 256.5 69t193 188.5t72.5 256.5 q0 185 -128 315.5t-313 130.5q-136 0 -257 -69t-194 -188t-73 -255zM164 528q0 130 68.5 242t182.5 177t244 65q176 0 294 -121t118 -297q0 -131 -68 -243.5t-181.5 -177t-243.5 -64.5q-178 0 -296 120.5t-118 298.5zM266 528q0 -135 89.5 -226t222.5 -91q158 0 275.5 113.5 t117.5 269.5q0 134 -89.5 225.5t-222.5 91.5q-157 0 -275 -114t-118 -269zM383 1470l428 269l338 -287l-68 -78l-278 240l-367 -228zM453 1362l346 215l264 -225l-64 -76l-208 178l-285 -178z" />
<glyph unicode="&#xf5;" horiz-adv-x="1275" d="M35 528q0 165 86.5 307.5t230 225t307.5 82.5q150 0 275.5 -74t196.5 -200t71 -275q0 -125 -51 -239t-136 -196t-199.5 -130.5t-237.5 -48.5q-152 0 -277 73.5t-195.5 199t-70.5 275.5zM135 528q0 -122 58 -225t160 -163t225 -60q136 0 256.5 69t193 188.5t72.5 256.5 q0 185 -128 315.5t-313 130.5q-136 0 -257 -69t-194 -188t-73 -255zM164 528q0 130 68.5 242t182.5 177t244 65q176 0 294 -121t118 -297q0 -131 -68 -243.5t-181.5 -177t-243.5 -64.5q-178 0 -296 120.5t-118 298.5zM266 528q0 -135 89.5 -226t222.5 -91q158 0 275.5 113.5 t117.5 269.5q0 134 -89.5 225.5t-222.5 91.5q-157 0 -275 -114t-118 -269zM309 1325q7 43 18.5 83.5t36.5 91.5t58.5 87.5t88 62t120.5 25.5q49 0 92.5 -15t72 -39t43 -38.5t23.5 -28.5q24 -28 38.5 -38.5t31.5 -10.5q66 0 94 158l98 -16q-43 -244 -192 -244q-18 0 -35 4.5 t-28 9t-25 16t-19 16t-19 19.5t-15 17l-13 15q-13 14 -19 20t-22 19t-29.5 19t-34 11.5t-42.5 5.5q-44 0 -80 -18t-59 -45t-41 -64t-27.5 -70t-15.5 -69zM436 1303q43 243 195 243q18 0 35 -4.5t28.5 -10t25 -16.5t19 -16.5t17.5 -19t14 -15.5t18.5 -19.5t26 -25.5t28 -21 t41 -18.5t48.5 -5.5q54 0 95.5 25.5t66 69t38 84t21.5 87.5l100 -16q-7 -43 -18.5 -83.5t-36.5 -91.5t-58 -87.5t-87.5 -62t-120.5 -25.5q-135 0 -232 121q-40 49 -69 49q-66 0 -94 -158z" />
<glyph unicode="&#xf6;" horiz-adv-x="1275" d="M35 528q0 165 86.5 307.5t230 225t307.5 82.5q150 0 275.5 -74t196.5 -200t71 -275q0 -125 -51 -239t-136 -196t-199.5 -130.5t-237.5 -48.5q-152 0 -277 73.5t-195.5 199t-70.5 275.5zM135 528q0 -122 58 -225t160 -163t225 -60q136 0 256.5 69t193 188.5t72.5 256.5 q0 185 -128 315.5t-313 130.5q-136 0 -257 -69t-194 -188t-73 -255zM164 528q0 130 68.5 242t182.5 177t244 65q176 0 294 -121t118 -297q0 -131 -68 -243.5t-181.5 -177t-243.5 -64.5q-178 0 -296 120.5t-118 298.5zM266 528q0 -135 89.5 -226t222.5 -91q158 0 275.5 113.5 t117.5 269.5q0 134 -89.5 225.5t-222.5 91.5q-157 0 -275 -114t-118 -269zM367 1460q0 75 54.5 130t129.5 55q76 0 131 -55t55 -130t-55 -129.5t-131 -54.5q-75 0 -129.5 54.5t-54.5 129.5zM465 1460q0 -35 25.5 -61.5t60.5 -26.5q36 0 62 26t26 62t-26 62t-62 26 q-35 0 -60.5 -26.5t-25.5 -61.5zM494 1460q0 25 16.5 42.5t40.5 17.5q26 0 42.5 -17.5t16.5 -42.5t-16.5 -42t-42.5 -17q-25 0 -41 17t-16 42zM819 1460q0 75 55 130t130 55t129.5 -55t54.5 -130t-54.5 -129.5t-129.5 -54.5t-130 54.5t-55 129.5zM915 1460q0 -35 27 -61.5 t62 -26.5t61.5 26.5t26.5 61.5t-26.5 61.5t-61.5 26.5t-62 -26.5t-27 -61.5zM944 1460q0 25 17.5 42.5t42.5 17.5t42 -17.5t17 -42.5t-17 -42t-42 -17t-42.5 17t-17.5 42z" />
<glyph unicode="&#xf7;" horiz-adv-x="1112" d="M92 635l19 100h915l-16 -100h-918zM117 764l16 100h918l-19 -100h-915zM322 371q0 75 54 129.5t130 54.5q75 0 129.5 -54.5t54.5 -129.5t-54.5 -130t-129.5 -55q-76 0 -130 55t-54 130zM418 371q0 -36 26 -62t62 -26q35 0 60.5 26.5t25.5 61.5t-25.5 61.5t-60.5 26.5 q-36 0 -62 -26t-26 -62zM446 371q0 25 17 42t43 17q25 0 41 -17t16 -42t-16.5 -42.5t-40.5 -17.5q-25 0 -42.5 17.5t-17.5 42.5zM455 1128q0 75 54 130t130 55q75 0 129.5 -55t54.5 -130t-54.5 -129.5t-129.5 -54.5q-76 0 -130 54.5t-54 129.5zM551 1128q0 -36 26 -62 t62 -26q35 0 60.5 26.5t25.5 61.5q0 36 -25.5 62.5t-60.5 26.5q-36 0 -62 -26.5t-26 -62.5zM580 1128q0 25 16.5 42.5t42.5 17.5q24 0 40.5 -17.5t16.5 -42.5t-16 -42t-41 -17t-42 17t-17 42z" />
<glyph unicode="&#xf8;" horiz-adv-x="1275" d="M-16 0l163 190q-112 143 -112 338q0 165 86.5 307.5t230 225t307.5 82.5q134 0 252 -62l35 39h135l-149 -174q-121 94 -273 94q-136 0 -257 -69t-194 -188t-73 -255q0 -100 39 -186t109 -149l-166 -193h-133zM154 0l149 174q121 -94 275 -94q136 0 256.5 69t193 188.5 t72.5 256.5q0 98 -39 185t-109 149l166 192h131l-162 -188q115 -147 115 -338q0 -125 -51 -239t-136 -196t-199.5 -130.5t-237.5 -48.5q-137 0 -256 61l-35 -41h-133zM164 528q0 130 68.5 242t182.5 177t244 65q144 0 254 -86l-614 -713q-64 58 -99.5 139.5t-35.5 175.5z M266 528q0 -88 37 -155l451 524q-51 14 -95 14q-157 0 -275 -114t-118 -269zM322 195l614 712q64 -58 99.5 -139t35.5 -174q0 -131 -68 -243.5t-181.5 -177t-243.5 -64.5q-147 0 -256 86zM479 225q43 -14 99 -14q158 0 275.5 113.5t117.5 269.5q0 85 -39 158z" />
<glyph unicode="&#xf9;" horiz-adv-x="1406" d="M39 891l16 100h299l-88 -504q-17 -111 -2 -188t60 -126t100 -71t119 -22q111 0 226.5 58t211.5 157l-35 -195h326l-17 -100h-430l11 57q-148 -77 -293 -77q-64 0 -124.5 19t-116 59t-91.5 102t-51 148t6 198l67 385h-194zM61 1020l17 100h430l-115 -653q-24 -134 21 -196 t129 -62q87 0 179 49t173 135l88 498h-197l17 100h301l-115 -645q-99 -110 -215 -173.5t-231 -63.5q-59 0 -109 20t-90 64.5t-52 115.5t3 174l92 537h-326zM551 1577l59 80l426 -324l-59 -80zM629 1679l59 82l426 -323l-59 -80zM809 1020l16 100h432l-157 -889h196l-18 -102 h-299l158 891h-328z" />
<glyph unicode="&#xfa;" horiz-adv-x="1406" d="M39 891l16 100h299l-88 -504q-17 -111 -2 -188t60 -126t100 -71t119 -22q111 0 226.5 58t211.5 157l-35 -195h326l-17 -100h-430l11 57q-148 -77 -293 -77q-64 0 -124.5 19t-116 59t-91.5 102t-51 148t6 198l67 385h-194zM61 1020l17 100h430l-115 -653q-24 -134 21 -196 t129 -62q87 0 179 49t173 135l88 498h-197l17 100h301l-115 -645q-99 -110 -215 -173.5t-231 -63.5q-59 0 -109 20t-90 64.5t-52 115.5t3 174l92 537h-326zM502 1452l542 324l52 -86l-541 -324zM571 1341l539 322l53 -86l-540 -324zM809 1020l16 100h432l-157 -889h196 l-18 -102h-299l158 891h-328z" />
<glyph unicode="&#xfb;" horiz-adv-x="1406" d="M39 891l16 100h299l-88 -504q-17 -111 -2 -188t60 -126t100 -71t119 -22q111 0 226.5 58t211.5 157l-35 -195h326l-17 -100h-430l11 57q-148 -77 -293 -77q-64 0 -124.5 19t-116 59t-91.5 102t-51 148t6 198l67 385h-194zM61 1020l17 100h430l-115 -653q-24 -134 21 -196 t129 -62q87 0 179 49t173 135l88 498h-197l17 100h301l-115 -645q-99 -110 -215 -173.5t-231 -63.5q-59 0 -109 20t-90 64.5t-52 115.5t3 174l92 537h-326zM434 1470l428 269l338 -287l-67 -78l-279 240l-367 -228zM504 1362l346 215l264 -225l-63 -76l-209 178l-285 -178z M809 1020l16 100h432l-157 -889h196l-18 -102h-299l158 891h-328z" />
<glyph unicode="&#xfc;" horiz-adv-x="1406" d="M39 891l16 100h299l-88 -504q-17 -111 -2 -188t60 -126t100 -71t119 -22q111 0 226.5 58t211.5 157l-35 -195h326l-17 -100h-430l11 57q-148 -77 -293 -77q-64 0 -124.5 19t-116 59t-91.5 102t-51 148t6 198l67 385h-194zM61 1020l17 100h430l-115 -653q-24 -134 21 -196 t129 -62q87 0 179 49t173 135l88 498h-197l17 100h301l-115 -645q-99 -110 -215 -173.5t-231 -63.5q-59 0 -109 20t-90 64.5t-52 115.5t3 174l92 537h-326zM416 1460q0 75 54.5 130t129.5 55q76 0 131 -55t55 -130t-55 -129.5t-131 -54.5q-75 0 -129.5 54.5t-54.5 129.5z M514 1460q0 -35 25.5 -61.5t60.5 -26.5q36 0 62 26t26 62t-26 62t-62 26q-35 0 -60.5 -26.5t-25.5 -61.5zM543 1460q0 25 16.5 42.5t40.5 17.5q26 0 42.5 -17.5t16.5 -42.5t-16.5 -42t-42.5 -17q-25 0 -41 17t-16 42zM809 1020l16 100h432l-157 -889h196l-18 -102h-299 l158 891h-328zM868 1460q0 75 55 130t130 55t129.5 -55t54.5 -130t-54.5 -129.5t-129.5 -54.5t-130 54.5t-55 129.5zM965 1460q0 -35 26.5 -61.5t61.5 -26.5t61.5 26.5t26.5 61.5t-26.5 61.5t-61.5 26.5t-61.5 -26.5t-26.5 -61.5zM993 1460q0 25 17.5 42.5t42.5 17.5 t42 -17.5t17 -42.5t-17 -42t-42 -17t-42.5 17t-17.5 42z" />
<glyph unicode="&#xfd;" horiz-adv-x="1396" d="M-354 -338l94 37q24 -59 61.5 -101.5t80.5 -65t85.5 -32.5t87.5 -10q129 0 249 94.5t245 296.5l676 1110h250l-17 -100h-178l-645 -1061q-139 -226 -279.5 -333t-300.5 -107q-55 0 -109.5 13t-112 42t-107 84.5t-80.5 132.5zM-231 -289l92 37q52 -127 194 -127 q91 0 182.5 76t200.5 252l17 28l-236 914h-205l19 100h264l264 -1032l-37 -61q-122 -199 -234 -289t-235 -90q-211 0 -286 192zM39 1020l16 100h607l-19 -100h-604zM328 991h309l-16 -100h-164l164 -641l391 641h-160l18 100h320l-606 -995zM520 1452l543 324l51 -86 l-541 -324zM590 1341l538 322l54 -86l-541 -324zM877 1020l16 100h606l-18 -100h-604z" />
<glyph unicode="&#xfe;" horiz-adv-x="1392" d="M-240 -526l17 100h624l-16 -100h-625zM-219 -397l16 102h199l291 1661h-199l18 102h302l-328 -1865h-299zM109 -397l147 846q28 -160 149.5 -264.5t286.5 -104.5q136 0 256.5 69t193 188.5t72.5 256.5q0 185 -127.5 315.5t-312.5 130.5q-143 0 -268 -75.5t-195 -200.5 l129 733h-327l16 100h430l-94 -538q146 84 309 84q150 0 275.5 -74t196.5 -200t71 -275q0 -125 -51.5 -239t-136.5 -196t-199.5 -130.5t-237.5 -48.5q-231 0 -389 161l-76 -436h197l-16 -102h-299zM279 528q0 130 68.5 242t182.5 177t244 65q176 0 294 -121t118 -297 q0 -131 -68 -243.5t-182 -177t-244 -64.5q-178 0 -295.5 120.5t-117.5 298.5zM381 528q0 -135 89 -226t222 -91q158 0 275.5 113.5t117.5 269.5q0 134 -89 225.5t-222 91.5q-157 0 -275 -114t-118 -269z" />
<glyph unicode="&#xff;" horiz-adv-x="1396" d="M-354 -338l94 37q24 -59 61.5 -101.5t80.5 -65t85.5 -32.5t87.5 -10q129 0 249 94.5t245 296.5l676 1110h250l-17 -100h-178l-645 -1061q-139 -226 -279.5 -333t-300.5 -107q-55 0 -109.5 13t-112 42t-107 84.5t-80.5 132.5zM-231 -289l92 37q52 -127 194 -127 q91 0 182.5 76t200.5 252l17 28l-236 914h-205l19 100h264l264 -1032l-37 -61q-122 -199 -234 -289t-235 -90q-211 0 -286 192zM39 1020l16 100h607l-19 -100h-604zM328 991h309l-16 -100h-164l164 -641l391 641h-160l18 100h320l-606 -995zM436 1460q0 75 55 130t130 55 q76 0 131 -55t55 -130t-55 -129.5t-131 -54.5q-75 0 -130 54.5t-55 129.5zM535 1460q0 -35 25.5 -61.5t60.5 -26.5q36 0 62 26t26 62t-26 62t-62 26q-35 0 -60.5 -26.5t-25.5 -61.5zM563 1460q0 25 16.5 42.5t41.5 17.5q26 0 42.5 -17.5t16.5 -42.5t-16.5 -42t-42.5 -17 q-25 0 -41.5 17t-16.5 42zM877 1020l16 100h606l-18 -100h-604zM889 1460q0 75 54.5 130t129.5 55t129.5 -55t54.5 -130t-54.5 -129.5t-129.5 -54.5t-129.5 54.5t-54.5 129.5zM985 1460q0 -35 26.5 -61.5t61.5 -26.5t61.5 26.5t26.5 61.5t-26.5 61.5t-61.5 26.5t-61.5 -26.5 t-26.5 -61.5zM1014 1460q0 25 17 42.5t42 17.5t42.5 -17.5t17.5 -42.5t-17.5 -42t-42.5 -17t-42 17t-17 42z" />
<glyph unicode="&#x152;" horiz-adv-x="2246" d="M84 698q0 136 34.5 259t97.5 221t152.5 177.5t197.5 132t234.5 81t262.5 28.5h1243l-80 -458h-104l65 358h-1124q-186 0 -347.5 -56.5t-279 -159t-185 -253t-67.5 -330.5q0 -118 49 -227.5t132.5 -191t203.5 -130.5t254 -49h1151l62 359h104l-82 -459h-1235 q-155 0 -293.5 56.5t-235.5 151t-153.5 222.5t-56.5 268zM213 698q0 233 111 409.5t303 268.5t436 92h227l-233 -1339h-234q-130 0 -244.5 46t-194 123.5t-125.5 181.5t-46 218zM315 698q0 -94 38 -179.5t104 -149t161.5 -101t204.5 -37.5h150l198 1135h-108 q-162 0 -300 -47t-237 -132t-155 -211t-56 -278zM1085 129l117 670h658l-17 -101h-555l-84 -467h662l39 228h102l-57 -330h-865zM1208 827l113 641h833l-61 -329h-102l43 227h-629l-76 -438h555l-18 -101h-658z" />
<glyph unicode="&#x153;" horiz-adv-x="2099" d="M35 528q0 165 86.5 307.5t230 225t307.5 82.5q138 0 255.5 -64t191.5 -174q91 111 222 174.5t278 63.5q182 0 294.5 -97t112.5 -249q0 -102 -52 -182t-140 -129t-197.5 -74t-232.5 -25q-76 0 -164 10q35 -87 113.5 -136.5t191.5 -49.5q163 0 305 117l64 -80 q-175 -139 -369 -139t-312 117t-120 294q165 -33 291 -33q144 0 261 35t189 106.5t72 168.5q0 109 -81.5 176t-225.5 67q-177 0 -319.5 -104.5t-194.5 -265.5q-27 159 -148 264.5t-285 105.5q-136 0 -257 -69t-194 -188t-73 -255q0 -122 58 -225t160 -163t225 -60 q169 0 308.5 104t190.5 265q25 -161 148.5 -265t306.5 -104q208 0 385 147l65 -80q-94 -76 -211 -121.5t-239 -45.5q-152 0 -272.5 62t-194.5 171q-89 -108 -217.5 -170.5t-269.5 -62.5q-152 0 -277 73.5t-195.5 199t-70.5 275.5zM164 528q0 130 68.5 242t182.5 177t244 65 q176 0 294 -121t118 -297q0 -131 -68 -243.5t-181.5 -177t-243.5 -64.5q-178 0 -296 120.5t-118 298.5zM266 528q0 -135 89.5 -226t222.5 -91q158 0 275.5 113.5t117.5 269.5q0 134 -89.5 225.5t-222.5 91.5q-157 0 -275 -114t-118 -269zM1100 551q6 127 76 233t184.5 167 t245.5 61t204.5 -59t73.5 -156q0 -131 -139.5 -206t-353.5 -75q-137 0 -291 35zM1217 631q93 -13 174 -13q173 0 283 52t110 127q0 50 -45.5 82t-132.5 32q-135 0 -243.5 -79.5t-145.5 -200.5z" />
<glyph unicode="&#x178;" horiz-adv-x="1581" d="M86 1366l18 102h277l381 -835l-90 -504h-301l16 102h199l69 385l-342 750h-227zM109 1497l16 100h629l-17 -100h-628zM346 0l19 100h628l-16 -100h-631zM410 1468h321l-18 -102h-146l236 -514l416 514h-125l18 102h322l-654 -806zM588 1894q0 75 54.5 130t129.5 55 q76 0 131 -55t55 -130t-55 -129.5t-131 -54.5q-75 0 -129.5 54.5t-54.5 129.5zM686 1894q0 -35 25.5 -61.5t60.5 -26.5q36 0 62 26t26 62t-26 62t-62 26q-35 0 -60.5 -26.5t-25.5 -61.5zM700 129l91 502l675 837h277l-19 -102h-206l-635 -784l-62 -351h197l-19 -102h-299z M715 1894q0 25 16.5 42.5t40.5 17.5q26 0 42.5 -17.5t16.5 -42.5t-16.5 -42t-42.5 -17q-25 0 -41 17t-16 42zM1040 1894q0 75 55 130t130 55t129.5 -55t54.5 -130t-54.5 -129.5t-129.5 -54.5t-130 54.5t-55 129.5zM1118 1497l17 100h630l-16 -100h-631zM1137 1894 q0 -35 26.5 -61.5t61.5 -26.5t61.5 26.5t26.5 61.5t-26.5 61.5t-61.5 26.5t-61.5 -26.5t-26.5 -61.5zM1165 1894q0 25 17.5 42.5t42.5 17.5t42 -17.5t17 -42.5t-17 -42t-42 -17t-42.5 17t-17.5 42z" />
<glyph unicode="&#x2c6;" horiz-adv-x="675" d="M-248 1470l428 269l338 -287l-67 -78l-279 240l-367 -228zM-178 1362l346 215l264 -225l-63 -76l-209 178l-285 -178z" />
<glyph unicode="&#x2dc;" horiz-adv-x="667" d="M96 1325q7 43 18.5 83.5t36.5 91.5t58.5 87.5t88 62t120.5 25.5q49 0 92.5 -15t72 -39t43 -38.5t23.5 -28.5q24 -28 38.5 -38.5t31.5 -10.5q66 0 94 158l98 -16q-43 -244 -192 -244q-18 0 -35 4.5t-28 9t-25 16t-19 16t-19 19.5t-15 17l-13 15q-13 14 -19 20t-22 19 t-29.5 19t-34 11.5t-42.5 5.5q-44 0 -80 -18t-59 -45t-41 -64t-27.5 -70t-15.5 -69zM223 1303q43 243 195 243q18 0 35 -4.5t28.5 -10t25 -16.5t19 -16.5t17.5 -19t14 -15.5t18.5 -19.5t26 -25.5t28 -21t41 -18.5t48.5 -5.5q54 0 95.5 25.5t66 69t38 84t21.5 87.5l100 -16 q-7 -43 -18.5 -83.5t-36.5 -91.5t-58 -87.5t-87.5 -62t-120.5 -25.5q-135 0 -232 121q-40 49 -69 49q-66 0 -94 -158z" />
<glyph unicode="&#x2000;" horiz-adv-x="1105" />
<glyph unicode="&#x2001;" horiz-adv-x="2210" />
<glyph unicode="&#x2002;" horiz-adv-x="1105" />
<glyph unicode="&#x2003;" horiz-adv-x="2210" />
<glyph unicode="&#x2004;" horiz-adv-x="736" />
<glyph unicode="&#x2005;" horiz-adv-x="552" />
<glyph unicode="&#x2006;" horiz-adv-x="368" />
<glyph unicode="&#x2007;" horiz-adv-x="368" />
<glyph unicode="&#x2008;" horiz-adv-x="276" />
<glyph unicode="&#x2009;" horiz-adv-x="442" />
<glyph unicode="&#x200a;" horiz-adv-x="122" />
<glyph unicode="&#x2010;" d="M98 541l17 100h565l-16 -100h-566zM119 670l18 102h568l-19 -102h-567z" />
<glyph unicode="&#x2011;" d="M98 541l17 100h565l-16 -100h-566zM119 670l18 102h568l-19 -102h-567z" />
<glyph unicode="&#x2012;" d="M98 541l17 100h565l-16 -100h-566zM119 670l18 102h568l-19 -102h-567z" />
<glyph unicode="&#x2013;" horiz-adv-x="1230" d="M100 541l19 100h983l-17 -100h-985zM125 670l16 102h985l-18 -102h-983z" />
<glyph unicode="&#x2014;" horiz-adv-x="1556" d="M100 541l19 100h1308l-16 -100h-1311zM125 670l16 102h1311l-18 -102h-1309z" />
<glyph unicode="&#x2018;" horiz-adv-x="567" d="M168 1176q0 67 33 143t80 136.5t94.5 111t80.5 78.5l33 28l60 -76q-12 -9 -31 -26t-68.5 -67t-87.5 -98.5t-69 -114t-31 -120.5q0 -53 27 -80.5t65 -27.5q36 0 62 26t26 62q0 31 -16 51.5t-31 24.5l-12 -27q11 -4 21 -17t10 -32q0 -23 -18 -41t-42 -18q-27 0 -45 20 t-18 59q0 52 28.5 112.5t69 110t81 91.5t68.5 66l29 24l60 -74q-107 -86 -181 -188q32 -15 61.5 -59t29.5 -103q0 -77 -53.5 -130.5t-131.5 -53.5q-73 0 -128.5 55t-55.5 154z" />
<glyph unicode="&#x2019;" horiz-adv-x="555" d="M160 1139q106 86 180 188q-31 15 -60.5 59t-29.5 103q0 77 53 130.5t131 53.5q73 0 128.5 -55t55.5 -154q0 -67 -33 -143t-80 -136.5t-94.5 -111t-80.5 -78.5l-33 -28l-59 75q12 9 31 26t68.5 67t87 98.5t68.5 114t31 120.5q0 53 -27.5 81t-64.5 28q-36 0 -62 -26 t-26 -62q0 -31 16 -51.5t31 -24.5l12 27q-10 4 -20 17t-10 32q0 24 17.5 41.5t41.5 17.5q27 0 45.5 -20.5t18.5 -59.5q0 -52 -28.5 -112t-69 -109.5t-81.5 -92t-69 -66.5l-29 -23z" />
<glyph unicode="&#x201a;" horiz-adv-x="585" d="M-70 -203q107 87 181 189q-32 15 -61.5 58.5t-29.5 102.5q0 77 53.5 131t131.5 54q73 0 128.5 -55t55.5 -154q0 -67 -33 -143t-80 -136.5t-94.5 -111.5t-80.5 -79l-33 -28l-60 76q12 9 31 26t68.5 67t87.5 98.5t69 114t31 120.5q0 53 -27.5 81t-64.5 28q-36 0 -62 -26.5 t-26 -62.5q0 -31 16 -51t31 -24l12 26q-11 4 -21 17t-10 32q0 24 18 42t42 18q27 0 45 -20.5t18 -59.5q0 -52 -28.5 -112t-69 -109.5t-81 -92t-69.5 -65.5l-28 -24z" />
<glyph unicode="&#x201c;" horiz-adv-x="1011" d="M166 1176q0 67 33 143t80 136.5t94.5 111t80.5 78.5l33 28l60 -76q-12 -9 -31 -26t-68.5 -67t-87.5 -98.5t-69 -114t-31 -120.5q0 -53 27 -80.5t65 -27.5q36 0 62 26t26 62q0 31 -16 51.5t-31 24.5l-12 -27q11 -4 21 -17t10 -32q0 -23 -18 -41t-42 -18q-27 0 -45 20 t-18 59q0 52 28.5 112.5t69 110t81 91.5t68.5 66l29 24l60 -74q-107 -86 -181 -188q32 -15 61.5 -59t29.5 -103q0 -77 -53.5 -130.5t-131.5 -53.5q-73 0 -128.5 55t-55.5 154zM612 1176q0 67 33 143t80.5 136.5t95 111t80.5 78.5l33 28l59 -76q-12 -9 -31 -26t-68.5 -67 t-87 -98.5t-68.5 -114t-31 -120.5q0 -53 27 -80.5t65 -27.5q36 0 62 26t26 62q0 31 -16 51.5t-31 24.5l-13 -27q11 -4 21 -17t10 -32q0 -24 -17.5 -41.5t-41.5 -17.5q-27 0 -45.5 20t-18.5 59q0 52 28.5 112.5t69.5 110t81.5 91.5t69.5 66l28 24l59 -74q-106 -86 -180 -188 q31 -15 60.5 -59t29.5 -103q0 -77 -53 -130.5t-131 -53.5q-73 0 -129 55t-56 154z" />
<glyph unicode="&#x201d;" horiz-adv-x="1001" d="M160 1139q106 86 180 188q-31 15 -60.5 59t-29.5 103q0 77 53 130.5t131 53.5q73 0 128.5 -55t55.5 -154q0 -67 -33 -143t-80 -136.5t-94.5 -111t-80.5 -78.5l-33 -28l-59 75q12 9 31 26t68.5 67t87 98.5t68.5 114t31 120.5q0 53 -27.5 81t-64.5 28q-36 0 -62 -26 t-26 -62q0 -31 16 -51.5t31 -24.5l12 27q-10 4 -20 17t-10 32q0 24 17.5 41.5t41.5 17.5q27 0 45.5 -20.5t18.5 -59.5q0 -52 -28.5 -112t-69 -109.5t-81.5 -92t-69 -66.5l-29 -23zM608 1139q106 86 180 188q-31 15 -60.5 59t-29.5 103q0 77 53.5 130.5t131.5 53.5 q73 0 128.5 -55t55.5 -154q0 -67 -33 -143t-80.5 -136.5t-95 -111t-80.5 -78.5l-33 -28l-59 75q12 9 31 26t68.5 67t87.5 98.5t69 114t31 120.5q0 53 -27.5 81t-64.5 28q-36 0 -62 -26t-26 -62q0 -31 16 -51.5t31 -24.5l12 27q-11 4 -21 17t-10 32q0 23 17.5 41t42.5 18 q27 0 45 -20.5t18 -59.5q0 -52 -28.5 -112t-69 -109.5t-81 -92t-69.5 -66.5l-28 -23z" />
<glyph unicode="&#x201e;" horiz-adv-x="1030" d="M-70 -203q107 87 181 189q-32 15 -61.5 58.5t-29.5 102.5q0 77 53.5 131t131.5 54q73 0 128.5 -55t55.5 -154q0 -67 -33 -143t-80 -136.5t-94.5 -111.5t-80.5 -79l-33 -28l-60 76q12 9 31 26t68.5 67t87.5 98.5t69 114t31 120.5q0 53 -27.5 81t-64.5 28q-36 0 -62 -26.5 t-26 -62.5q0 -31 16 -51t31 -24l12 26q-11 4 -21 17t-10 32q0 24 18 42t42 18q27 0 45 -20.5t18 -59.5q0 -52 -28.5 -112t-69 -109.5t-81 -92t-69.5 -65.5l-28 -24zM377 -203q106 87 180 189q-32 15 -61 58.5t-29 102.5q0 77 53 131t131 54q73 0 129 -55t56 -154 q0 -67 -33 -143t-80.5 -136.5t-95 -111.5t-80.5 -79l-33 -28l-59 76q12 9 31 26t68.5 67t87 98.5t68.5 114t31 120.5q0 53 -27.5 81t-64.5 28q-36 0 -62 -26.5t-26 -62.5q0 -31 16 -51t31 -24l13 26q-11 4 -21 17t-10 32q0 24 17.5 42t41.5 18q27 0 45.5 -20.5t18.5 -59.5 q0 -52 -28.5 -112t-69.5 -109.5t-81.5 -92t-69.5 -65.5l-28 -24z" />
<glyph unicode="&#x2022;" horiz-adv-x="907" d="M154 657q0 123 86 209t209 86t209.5 -86t86.5 -209t-86.5 -210t-209.5 -87t-209 87t-86 210zM254 657q0 -81 57.5 -137.5t137.5 -56.5q82 0 138 56t56 138q0 80 -56.5 137.5t-137.5 57.5q-79 0 -137 -58t-58 -137zM283 657q0 69 48.5 117.5t117.5 48.5t117 -48.5 t48 -117.5t-48 -117t-117 -48t-117.5 48t-48.5 117z" />
<glyph unicode="&#x2026;" horiz-adv-x="1519" d="M16 166q0 75 54.5 129.5t130.5 54.5q75 0 129.5 -54.5t54.5 -129.5t-54.5 -129.5t-129.5 -54.5q-76 0 -130.5 54.5t-54.5 129.5zM113 166q0 -36 26 -62t62 -26q35 0 60.5 26.5t25.5 61.5t-25.5 61.5t-60.5 26.5q-36 0 -62 -26t-26 -62zM141 166q0 25 17 42t43 17 q25 0 41 -17t16 -42t-16.5 -42.5t-40.5 -17.5q-25 0 -42.5 17.5t-17.5 42.5zM492 166q0 75 54 129.5t130 54.5q75 0 129.5 -54.5t54.5 -129.5t-54.5 -129.5t-129.5 -54.5q-76 0 -130 54.5t-54 129.5zM588 166q0 -36 26 -62t62 -26q35 0 60.5 26.5t25.5 61.5t-25.5 61.5 t-60.5 26.5q-36 0 -62 -26t-26 -62zM616 166q0 25 17 42t43 17q25 0 41 -17t16 -42t-16.5 -42.5t-40.5 -17.5q-25 0 -42.5 17.5t-17.5 42.5zM967 166q0 75 54 129.5t130 54.5q75 0 129.5 -54.5t54.5 -129.5t-54.5 -129.5t-129.5 -54.5q-76 0 -130 54.5t-54 129.5zM1063 166 q0 -36 26 -62t62 -26q35 0 60.5 26.5t25.5 61.5t-25.5 61.5t-60.5 26.5q-36 0 -62 -26t-26 -62zM1092 166q0 25 16.5 42t42.5 17q25 0 41 -17t16 -42t-16.5 -42.5t-40.5 -17.5q-25 0 -42 17.5t-17 42.5z" />
<glyph unicode="&#x202f;" horiz-adv-x="442" />
<glyph unicode="&#x2039;" horiz-adv-x="749" d="M84 588l80 59l315 -411l-80 -60zM98 743l455 406l68 -76l-455 -407zM195 653l444 398l68 -74l-375 -336l252 -328l-80 -61z" />
<glyph unicode="&#x203a;" horiz-adv-x="747" d="M37 336l375 336l-252 327l80 62l309 -402l-445 -397zM123 240l455 407l67 -78l-455 -405zM264 1077l80 60l315 -412l-79 -59z" />
<glyph unicode="&#x205f;" horiz-adv-x="552" />
<glyph unicode="&#x20ac;" horiz-adv-x="1826" d="M63 504l19 100h268q48 -232 230 -383t426 -151q316 0 575 223l68 -76q-139 -121 -306.5 -184.5t-336.5 -63.5q-260 0 -459.5 149t-274.5 386h-209zM88 633l16 100h132v15q0 54 6 106h-117l16 100h226q-31 -105 -31 -206q0 -66 8 -115h-256zM147 983l17 100h141 q106 241 332 393t491 152q127 0 247 -40t210 -113l23 122h104l-67 -378q-27 92 -106.5 163.5t-187 108.5t-223.5 37q-252 0 -462.5 -154.5t-290.5 -390.5h-228zM365 748q0 107 30 206h774l-16 -100h-676q-10 -58 -10 -106v-15h580l-19 -100h-655q-8 49 -8 115zM379 604h643 l-16 -100h-486q66 -138 195.5 -220.5t290.5 -82.5q272 0 489 190l68 -76q-246 -217 -557 -217q-235 0 -408 142.5t-219 363.5zM403 983q79 225 280.5 370.5t444.5 145.5q129 0 241.5 -43.5t184.5 -127t76 -189.5l-39 -226h-104l41 236q-13 105 -129 176.5t-271 71.5 q-170 0 -320 -86t-241 -228h627l-18 -100h-773zM1620 913l121 684h102l-121 -684h-102z" />
<glyph unicode="&#x2122;" horiz-adv-x="1640" d="M227 1421l11 74h249l-96 -537h-74l84 463h-174zM244 1524l10 73h522l-10 -73h-522zM420 958l94 537h246l-12 -74h-175l-79 -463h-74zM778 958l107 639l71 -14l-104 -625h-74zM881 958l94 568l178 -492l-68 -26l-84 231l-47 -281h-73zM985 1587l68 27l139 -389l295 409 l57 -43l-373 -522zM1180 1030l350 490l-105 -562h-73l47 256l-162 -227zM1454 958l117 621l71 -12l-114 -609h-74z" />
<glyph unicode="&#x25fc;" horiz-adv-x="1116" d="M0 0v1116h1116v-1116h-1116z" />
</font>
</defs>
</svg>
