<?xml version="1.0" standalone="no"?>
<!DOCTYPE svg PUBLIC "-//W3C//DTD SVG 1.1//EN" "http://www.w3.org/Graphics/SVG/1.1/DTD/svg11.dtd" >
<svg xmlns="http://www.w3.org/2000/svg">
<metadata></metadata>
<defs>
<font id="gist_uprightextrabold" horiz-adv-x="1722" >
<font-face units-per-em="2048" ascent="1638" descent="-410" />
<missing-glyph horiz-adv-x="497" />
<glyph unicode="&#xfb01;" horiz-adv-x="1425" d="M-455 -197l123 -12q-8 -91 37.5 -168t125.5 -119.5t175 -42.5q379 0 379 539v985h682v-833h-305v124h182v584h-436v-860q0 -319 -130 -491.5t-372 -172.5q-125 0 -235 60t-174 169t-52 238zM-303 -213l125 -10q-8 -63 48.5 -113.5t135.5 -50.5q114 0 170.5 89t56.5 298 v860h-202v125h325v-985q0 -510 -350 -510q-87 0 -160.5 38.5t-115 107.5t-33.5 151zM31 1014v123h202q10 328 147 504t382 176q98 0 190.5 -39t161 -105.5t106 -162t29.5 -201.5l-125 10q8 103 -41 190t-135 135t-186 48q-197 0 -301.5 -154t-104.5 -459v-65h-325zM385 1014 v65q0 584 377 584q93 0 172 -44t124.5 -123.5t37.5 -174.5l-123 10q7 83 -57 146t-154 63q-121 0 -184 -94.5t-70 -308.5h713v-861h180v-124h-305v862h-711zM762 0v123h639v-123h-639z" />
<glyph unicode="&#xfb02;" horiz-adv-x="1599" d="M-455 -197l123 -12q-8 -91 37.5 -168t125.5 -119.5t175 -42.5q379 0 379 539v985h506v-125h-383v-860q0 -319 -130 -491.5t-372 -172.5q-92 0 -180 36t-153 96.5t-101 149t-27 185.5zM-303 -213l125 -10q-8 -63 48.5 -113.5t135.5 -50.5q116 0 171.5 89t55.5 298v860 h-202v125h325v-985q0 -510 -350 -510q-87 0 -160.5 38.5t-115 107.5t-33.5 151zM31 1014v123h202v18q0 157 42 283.5t117 209.5t177.5 127t223.5 44q170 0 310.5 -78.5t199.5 -188.5v-1157q0 -139 81 -139q37 0 70 33l84 -90q-71 -68 -154 -68q-33 0 -65.5 11.5t-66 38.5 t-54 82t-20.5 132v1123q-51 74 -156 126t-229 52q-199 0 -318 -138t-119 -403v-141h-325zM385 1014v141q0 253 110.5 382.5t297.5 129.5q115 0 210 -45t146 -113v-1114q0 -68 17 -121.5t42 -85t58 -51.5t62 -27.5t56 -7.5q96 0 175 76l86 -92q-56 -50 -128.5 -78t-132.5 -28 q-40 0 -83 10t-94 38.5t-90 72.5t-65 120t-26 174v1067q-91 80 -233 80q-285 0 -285 -387v-18h383v-123h-506z" />
<glyph unicode="&#xfb03;" horiz-adv-x="2177" d="M-455 -197l123 -12q-8 -91 37.5 -168t125.5 -119.5t175 -42.5q379 0 379 539v985h721v-985q0 -510 -348 -510q-117 0 -213 74l80 96q59 -47 133 -47q114 0 169.5 89t55.5 298v860h-475v-860q0 -319 -130 -491.5t-372 -172.5q-92 0 -180 36t-153 96.5t-101 149t-27 185.5z M-303 -211l125 -12q-8 -63 48.5 -113.5t135.5 -50.5q116 0 171.5 89t55.5 298v860h-202v125h325v-985q0 -510 -350 -510q-86 0 -160 39t-115.5 108.5t-33.5 151.5zM31 1014v123h207q27 291 179.5 451.5t379.5 160.5q188 0 338 -102q135 170 378 170q98 0 190 -39 t160.5 -105.5t106 -162t29.5 -201.5l-123 10q8 103 -41.5 190t-135.5 135t-186 48q-249 0 -348 -240q-57 75 -154.5 123.5t-213.5 48.5q-200 0 -320.5 -153t-120.5 -447v-10h-325zM385 1014v10q0 279 113.5 425t298.5 146q116 0 211 -50t145 -128q-47 -136 -47 -338v-65 h-721zM449 -551l79 94q95 -82 230 -82q377 0 377 539v985h684v-833h-306v124h181v584h-434v-860q0 -318 -130.5 -491t-371.5 -173q-83 0 -167.5 31t-141.5 82zM512 1137h471q6 138 33 252q-88 84 -219 84q-114 0 -189.5 -83.5t-95.5 -252.5zM1135 1014v65q0 584 378 584 q93 0 172 -44t124.5 -123.5t37.5 -174.5l-125 10q7 83 -56 146t-153 63q-121 0 -183.5 -94.5t-69.5 -308.5h710v-861h182v-124h-305v862h-712zM1513 0v123h639v-123h-639z" />
<glyph unicode="&#xfb04;" horiz-adv-x="2349" d="M-455 -197l123 -12q-8 -91 37.5 -168t125.5 -119.5t175 -42.5q379 0 379 539v985h721v-985q0 -510 -348 -510q-117 0 -213 74l80 96q59 -47 133 -47q114 0 169.5 89t55.5 298v860h-475v-860q0 -319 -130 -491.5t-372 -172.5q-92 0 -180 36t-153 96.5t-101 149t-27 185.5z M-303 -213l125 -10q-8 -63 48.5 -113.5t135.5 -50.5q116 0 171.5 89t55.5 298v860h-202v125h325v-985q0 -510 -350 -510q-87 0 -160.5 38.5t-115 107.5t-33.5 151zM31 1014v123h207q26 292 177 452t378 160q188 0 344 -107q154 177 407 177q170 0 309.5 -78.5t198.5 -188.5 v-1157q0 -139 82 -139q37 0 72 33l84 -90q-71 -68 -156 -68q-33 0 -65.5 11.5t-65.5 38.5t-53.5 82t-20.5 132v1123q-53 74 -157 126t-228 52q-132 0 -231 -61t-152 -181q-58 74 -156 122t-212 48q-199 0 -318 -152t-119 -446v-12h-325zM385 1014v12q0 278 112.5 423.5 t295.5 145.5q116 0 210.5 -49.5t143.5 -124.5q-41 -112 -41 -266v-141h-721zM449 -551l79 94q95 -82 230 -82q377 0 377 539v985h505v-125h-380v-860q0 -318 -130.5 -491t-371.5 -173q-83 0 -167.5 31t-141.5 82zM512 1137h471v18q0 123 29 236q-89 82 -219 82 q-113 0 -187.5 -83t-93.5 -253zM1135 1014v141q0 253 110.5 382.5t298.5 129.5q115 0 209.5 -45t147.5 -113v-1114q0 -68 17 -121.5t42 -85t57.5 -51.5t61 -27.5t55.5 -7.5q97 0 176 76l84 -92q-55 -50 -126.5 -78t-133.5 -28q-40 0 -83 10t-94 38.5t-90 72.5t-65 120 t-26 174v1067q-87 80 -232 80q-284 0 -284 -387v-18h380v-123h-505z" />
<glyph horiz-adv-x="2048" />
<glyph horiz-adv-x="2048" />
<glyph unicode="&#xd;" horiz-adv-x="2048" />
<glyph unicode=" "  horiz-adv-x="497" />
<glyph unicode="&#x09;" horiz-adv-x="497" />
<glyph unicode="&#xa0;" horiz-adv-x="497" />
<glyph unicode="!" horiz-adv-x="638" d="M104 172q0 89 63 152t152 63q88 0 152 -63t64 -152q0 -88 -64 -151.5t-152 -63.5q-89 0 -152 63.5t-63 151.5zM180 498v1099h125v-1099h-125zM223 172q0 -38 28 -66t68 -28q38 0 66.5 28t28.5 66q0 40 -28 68t-67 28q-40 0 -68 -28t-28 -68zM252 172q0 29 19 48.5 t48 19.5q28 0 47 -19.5t19 -48.5q0 -28 -19 -47t-47 -19q-29 0 -48 19t-19 47zM334 498v1099h123v-1099h-123z" />
<glyph unicode="&#x22;" horiz-adv-x="946" d="M117 965v632h125v-632h-125zM270 965v632h123v-632h-123zM551 965v632h125v-632h-125zM705 965v632h122v-632h-122z" />
<glyph unicode="#" horiz-adv-x="1482" d="M84 401v123h367l-91 -524h-127l70 401h-219zM84 553v123h266l41 231h-225v123h373l-82 -477h-373zM166 1059v125h272l74 413h127l-94 -538h-379zM389 0l90 524h424l-90 -524h-127l70 401h-172l-70 -401h-125zM485 553l82 477h424l-82 -477h-424zM573 1059l95 538h125 l-74 -413h172l74 413h127l-95 -538h-424zM631 676h172l41 231h-172zM842 0l90 524h381v-123h-277l-69 -401h-125zM938 553l82 477h379v-123h-275l-41 -231h230v-123h-375zM1026 1059l94 538h125l-74 -413h228v-125h-373z" />
<glyph unicode="$" horiz-adv-x="1253" d="M82 575l123 -10q-8 -98 19.5 -173.5t83.5 -122t128.5 -71.5t159.5 -30v-266h-123v157q-88 18 -161 57.5t-129.5 101t-83.5 153t-17 204.5zM102 1133q0 154 101 265.5t270 143.5v154h123v-266q-172 -1 -271.5 -83.5t-99.5 -213.5q0 -68 28.5 -122t85.5 -94t114 -66 t143 -56v-598q-83 4 -151 27t-119.5 65.5t-76 112.5t-16.5 161l125 -10q-14 -157 115 -209v365q-63 25 -111.5 49t-99.5 61.5t-84 80t-54.5 102.5t-21.5 131zM254 1133q0 119 91 193t251 75v-574q-64 22 -108.5 41t-92 46.5t-76 57.5t-47 71t-18.5 90zM379 1133 q0 -69 94 -121v245q-94 -40 -94 -124zM625 -98v266h8q192 0 299.5 83.5t107.5 215.5q0 60 -28 111t-61 83t-98.5 65t-100.5 46t-107 38q-13 5 -20 7v582q163 -6 255.5 -93t73.5 -245l-125 16q15 124 -79 172v-344q62 -22 111 -44.5t109 -61.5t100 -83t67.5 -109t27.5 -140 q0 -160 -111.5 -273.5t-303.5 -142.5v-149h-125zM625 197v589q160 -55 221 -89q166 -89 166 -230q0 -117 -101 -193.5t-278 -76.5h-8zM625 1427v269h125v-158q84 -20 153 -61t119.5 -102t73 -147t10.5 -188l-123 17q19 170 -83.5 267t-274.5 103zM750 332q69 17 104 53 t35 82q0 78 -139 141v-276z" />
<glyph unicode="%" horiz-adv-x="1996" d="M76 1196q0 173 124.5 296.5t297.5 123.5t296.5 -123.5t123.5 -296.5t-123.5 -296.5t-296.5 -123.5t-297.5 123.5t-124.5 296.5zM201 1196q0 -122 87 -209.5t210 -87.5q121 0 208 87.5t87 209.5t-87 209.5t-208 87.5q-123 0 -210 -87.5t-87 -209.5zM229 1196 q0 113 77.5 190.5t191.5 77.5q112 0 189 -77.5t77 -190.5t-77 -190.5t-189 -77.5q-114 0 -191.5 77.5t-77.5 190.5zM346 0l989 1597h148l-989 -1597h-148zM352 1196q0 -62 41.5 -102.5t104.5 -40.5q62 0 102.5 40.5t40.5 102.5q0 63 -40.5 104t-102.5 41q-63 0 -104.5 -41 t-41.5 -104zM528 0l990 1597h143l-989 -1597h-144zM1079 387q0 173 124.5 296.5t297.5 123.5t296.5 -123.5t123.5 -296.5t-123.5 -296.5t-296.5 -123.5t-297.5 123.5t-124.5 296.5zM1204 387q0 -122 87 -209.5t210 -87.5q121 0 208 87.5t87 209.5t-87 209.5t-208 87.5 q-123 0 -210 -87.5t-87 -209.5zM1233 387q0 113 77 190.5t191 77.5q112 0 189 -77.5t77 -190.5t-77 -190.5t-189 -77.5q-114 0 -191 77.5t-77 190.5zM1356 387q0 -62 41 -102.5t104 -40.5q62 0 103 41t41 102q0 63 -41 104t-103 41q-63 0 -104 -41t-41 -104z" />
<glyph unicode="&#x26;" horiz-adv-x="1554" d="M80 582q0 192 105.5 349t277.5 230q-17 63 -17 115q0 158 108.5 267.5t274.5 109.5q76 0 141.5 -26t110 -69t71.5 -101t31.5 -120.5t-15.5 -129t-64 -124.5l-100 78q44 56 51.5 122t-17 119.5t-80 89.5t-129.5 36q-111 0 -184.5 -74t-73.5 -178q0 -117 97 -191 q-195 -19 -329 -165t-134 -338q0 -215 149 -362.5t379 -147.5q106 0 195.5 35t146.5 91.5t89 127.5t32 145q0 110 -61 187t-156 112q66 72 130.5 114t143.5 42q103 0 193 -90l-88 -88q-32 30 -55 41.5t-50 11.5q-31 0 -65 -17q133 -130 133 -313q0 -78 -25 -154t-75 -143 t-119.5 -117.5t-164.5 -80t-204 -29.5q-142 0 -264 49.5t-207 135t-133.5 202.5t-48.5 248zM233 582q0 196 140.5 336.5t341.5 140.5q58 -26 114 -29l-6 -125q-64 3 -135 27q-139 -9 -234.5 -111t-95.5 -239q0 -153 104.5 -255t270.5 -102q142 0 225.5 74.5t83.5 171.5 q0 76 -57 123q-93 -96 -194 -151t-224 -56l-2 125q111 1 194 54t183 163l14 19q94 -30 152.5 -101t58.5 -176q0 -70 -29 -135.5t-82 -118.5t-137 -85t-186 -32q-221 0 -360.5 138t-139.5 344zM563 666q71 1 126.5 37t137.5 128q31 35 44 48.5t51.5 51t68.5 57t73.5 44t91 36 t97.5 11.5q166 0 301 -135l-88 -88q-98 98 -213 98q-43 0 -87 -15t-73 -31.5t-68 -52t-53.5 -51t-49.5 -54.5q-98 -108 -176 -158t-181 -51zM600 1276q0 95 64 159t165 64q65 0 114 -31t70.5 -77.5t14.5 -104.5t-47 -108l-98 77q35 44 18 81.5t-72 37.5q-49 0 -76.5 -27 t-27.5 -71q0 -40 29 -64.5t86 -27.5l-9 -125q-105 6 -168 66t-63 151z" />
<glyph unicode="'" horiz-adv-x="512" d="M117 965v632h125v-632h-125zM270 965v632h123v-632h-123z" />
<glyph unicode="(" horiz-adv-x="749" d="M43 639q0 207 43 400t119 347t169 275.5t201 210.5l78 -98q-99 -80 -184 -191t-154 -253t-109 -320.5t-40 -370.5q0 -191 40 -369.5t109 -320t154 -252.5t184 -191l-78 -98q-86 71 -162.5 161t-145 207t-118 248.5t-78 290t-28.5 324.5zM195 639q0 189 38.5 364 t106 313.5t150.5 247.5t180 189l80 -98q-119 -96 -213 -236t-156 -345t-62 -435q0 -229 62 -433.5t156 -344.5t213 -236l-80 -98q-97 80 -180 189t-150.5 247.5t-106 313t-38.5 362.5z" />
<glyph unicode=")" horiz-adv-x="749" d="M0 -362q88 71 163.5 169.5t136 224.5t95.5 286.5t35 334.5t-35 333.5t-95.5 286t-136 225t-163.5 169.5l80 98q97 -80 180 -189t150.5 -247.5t106 -313t38.5 -362.5q0 -189 -38.5 -364t-106 -313.5t-150.5 -247.5t-180 -189zM96 -481q99 80 184 191t154.5 252.5 t109.5 320t40 370.5q0 191 -40 369.5t-109.5 320t-154.5 252.5t-184 191l78 98q108 -89 201.5 -210.5t169 -275t119 -346t43.5 -399.5t-43.5 -400t-119 -347t-168.5 -275.5t-202 -210.5z" />
<glyph unicode="*" horiz-adv-x="942" d="M78 1249l39 117l327 -111l-200 -276l-101 72l103 141zM125 1395l41 116l166 -57v174h123v-344zM268 963l201 276l203 -278l-99 -72l-104 139l-100 -137zM483 1284v344h125v-174l166 55l37 -114zM492 1255l329 111l41 -119l-172 -57l105 -141l-99 -72z" />
<glyph unicode="+" horiz-adv-x="1091" d="M84 612v123h446v-446h-122v323h-324zM84 764v123h324v321h122v-444h-446zM559 289v446h451v-123h-326v-323h-125zM559 764v444h125v-321h326v-123h-451z" />
<glyph unicode="," horiz-adv-x="567" d="M53 -233q80 95 137 206q-131 67 -131 199q0 89 63 152t152 63q92 0 157 -71t65 -191q0 -68 -24.5 -148t-60 -145t-71 -120.5t-60.5 -86.5l-24 -31l-88 76q9 10 23 28.5t50.5 73.5t64 107.5t50.5 122.5t23 127q0 71 -31 105t-74 34q-40 0 -68 -28t-28 -68q0 -12 3.5 -23.5 t7 -19t11 -16.5t11 -12t11.5 -10l9 -7l13 27q-37 28 -37 61q0 29 19 48.5t48 19.5q32 0 54 -27.5t22 -87.5q0 -52 -21.5 -116t-52 -118t-60.5 -100.5t-52 -72.5l-21 -27z" />
<glyph unicode="-" horiz-adv-x="802" d="M104 528v123h592v-123h-592zM104 680v123h592v-123h-592z" />
<glyph unicode="." horiz-adv-x="581" d="M76 172q0 89 63 152t152 63q88 0 151.5 -63t63.5 -152q0 -88 -63.5 -151.5t-151.5 -63.5q-89 0 -152 63.5t-63 151.5zM195 172q0 -38 28 -66t68 -28q38 0 66 28t28 66q0 40 -28 68t-66 28q-40 0 -68 -28t-28 -68zM223 172q0 29 19.5 48.5t48.5 19.5q28 0 46.5 -19.5 t18.5 -48.5q0 -28 -18.5 -47t-46.5 -19q-29 0 -48.5 19t-19.5 47z" />
<glyph unicode="/" horiz-adv-x="1570" d="M51 -496l1159 2272h138l-1162 -2272h-135zM219 -496l1159 2272h140l-1160 -2272h-139z" />
<glyph unicode="0" horiz-adv-x="1425" d="M86 799q0 132 25.5 253.5t77.5 226.5t125.5 182.5t175.5 122t221 44.5q120 0 222.5 -44.5t176 -122t126 -182.5t78 -226.5t25.5 -253.5t-25.5 -254t-78 -226.5t-126 -182.5t-176 -122.5t-222.5 -44.5q-119 0 -221 44.5t-175.5 122.5t-125.5 182.5t-77.5 226.5t-25.5 254z M211 799q0 -195 58 -354t173 -256t269 -97q94 0 174.5 36.5t140.5 101.5t102.5 153.5t64 194t21.5 221.5q0 195 -58 353.5t-174 255.5t-271 97q-154 0 -269 -97t-173 -255.5t-58 -353.5zM240 799q0 191 54 343t162.5 243.5t254.5 91.5q147 0 256.5 -91.5t164 -243.5 t54.5 -343t-54.5 -343t-164 -243.5t-256.5 -91.5q-146 0 -254.5 91.5t-162.5 243.5t-54 343zM362 799q0 -246 96 -399.5t253 -153.5q159 0 255.5 153.5t96.5 399.5t-96.5 399.5t-255.5 153.5q-157 0 -253 -153.5t-96 -399.5z" />
<glyph unicode="1" horiz-adv-x="843" d="M57 1540l344 119l39 -119l-342 -117zM109 1395l325 112v-1355h-309v124h184v1057l-159 -55zM125 0v123h645v-123h-645zM463 152v1376h123v-1252h184v-124h-307z" />
<glyph unicode="2" horiz-adv-x="1310" d="M68 23q0 91 17 174.5t43.5 147.5t69.5 124.5t82.5 103t96 87.5t97 72.5t97.5 62.5q47 29 63.5 39t56 35t54 36.5t44 34.5t41 37.5t30 37t25 42t12.5 43.5t6 49q0 96 -62.5 149.5t-168.5 53.5q-130 0 -209 -72.5t-60 -202.5l-124 -16q-11 80 5.5 149t54 117t90.5 82.5 t115 51t128 16.5q154 0 254 -88t100 -240q0 -54 -13.5 -101.5t-41.5 -88t-59 -74t-77.5 -67.5t-85.5 -59t-94 -59q-13 -8 -20 -12q-55 -34 -93 -58.5t-88.5 -64t-84.5 -75.5t-71 -87.5t-58.5 -106t-35.5 -124.5t-14 -149h-122zM127 1042q-15 113 10.5 210.5t79 165 t128.5 116t158.5 71.5t168.5 23q135 0 249.5 -55.5t186.5 -166.5t72 -257q0 -89 -29.5 -168.5t-71 -135t-107.5 -111t-117 -88.5t-121 -76q-13 -7 -19 -11q-122 -75 -197.5 -139t-120.5 -150q20 2 43 2q80 0 246 -45q110 -26 158 -26q77 0 98.5 52t-24.5 169l114 43 q68 -172 13.5 -279.5t-201.5 -107.5q-67 0 -189 31q-141 38 -215 38q-129 0 -221 -88q3 70 18 132.5t36.5 111t56.5 95t67 80t80 70t84.5 60.5t89.5 56q161 99 221 147q157 126 179 280q4 28 4 58q0 162 -111 259t-272 97q-87 0 -167 -29t-143.5 -83t-95 -141.5 t-16.5 -194.5zM215 12q86 107 225 107q63 0 207 -39q122 -31 197 -31q105 0 172 55.5t79.5 150.5t-36.5 222l117 47q51 -122 46.5 -231t-48 -191t-130.5 -130t-200 -48q-82 0 -228 37q-133 35 -176 35q-77 0 -129 -59z" />
<glyph unicode="3" horiz-adv-x="1241" d="M53 -12l68 102q247 -164 469 -164q194 0 321 118.5t127 305.5q0 163 -119 279.5t-339 152.5q108 18 188.5 59t126 95t67 112.5t21.5 120.5q0 153 -106.5 244.5t-260.5 91.5q-162 0 -275.5 -98t-123.5 -258l-125 10q17 215 165 342t359 127q131 0 241.5 -53.5 t179.5 -159.5t69 -246q0 -104 -48.5 -203.5t-146.5 -174.5q122 -77 187 -191t65 -250q0 -160 -76 -285.5t-206.5 -193.5t-290.5 -68q-116 0 -257.5 46.5t-279.5 138.5zM137 115l68 102q208 -137 385 -137q137 0 217 73t80 197q0 129 -125 212t-367 83v123h29 q279 -7 432.5 -123t153.5 -295q0 -178 -117.5 -286.5t-302.5 -108.5q-218 0 -453 160zM246 1147q10 152 112.5 241t257.5 89q146 0 242 -83t96 -225q0 -53 -18 -103.5t-60 -100t-104.5 -86.5t-159.5 -59.5t-217 -22.5v125q119 0 207 22.5t135.5 60t69.5 78.5t22 86 q0 86 -57.5 134.5t-155.5 48.5q-106 0 -173.5 -57t-73.5 -156z" />
<glyph unicode="4" horiz-adv-x="1390" d="M-6 451l784 1208l107 -60l-783 -1208zM123 373q118 92 278 92q97 0 270.5 -30t231.5 -36v-403h-307v125h184v168q-31 5 -96.5 17.5t-101.5 18.5t-87.5 11.5t-93.5 5.5q-63 0 -109 -16t-91 -52zM166 434l745 1149l107 -61l-588 -904q121 -4 350 -47v359h123v-502 q-42 5 -222 35.5t-280 30.5q-133 0 -235 -60zM596 -33h643v-123h-643v123zM932 -4v401q58 -4 88 -4q97 0 161 29t111 90l101 -74q-119 -159 -336 -170v-147h182v-125h-307zM932 426v504h125v-385q42 3 66 16.5t48 44.5l99 -76q-43 -59 -100 -83.5t-150 -24.5q-59 0 -88 4z " />
<glyph unicode="5" horiz-adv-x="1277" d="M39 -39l72 100q192 -135 426 -135q229 0 382.5 145.5t153.5 360.5q0 136 -65 242t-169.5 160.5t-228.5 54.5q-165 0 -307 -92l62 649h593v-309h-122v184h-357l-33 -330q90 23 164 23q117 0 223 -41t187.5 -115t129.5 -184.5t48 -241.5q0 -176 -87.5 -320.5t-239 -226.5 t-334.5 -82q-136 0 -268.5 44.5t-229.5 113.5zM127 86l70 100q148 -106 340 -106q168 0 276.5 99.5t108.5 252.5q0 141 -88 223t-224 82q-132 0 -241 -82l-74 99q138 106 315 106q119 0 217 -50t157.5 -149t59.5 -229q0 -206 -144 -341.5t-363 -135.5q-232 0 -410 131z M150 780l75 817h887v-460h-125v338h-647l-68 -707z" />
<glyph unicode="6" horiz-adv-x="1349" d="M41 813q0 159 29 304.5t86.5 268.5t138 213.5t190 141.5t236.5 51q147 0 268 -64t195 -186l-107 -63q-57 93 -148.5 141.5t-207.5 48.5q-168 0 -295.5 -114t-193.5 -307.5t-66 -434.5q0 -198 45 -344l4 -12q32 -97 83.5 -170t114 -115t129 -62t138.5 -20q192 0 317 136.5 t125 334.5q0 201 -129 335t-327 134q-182 0 -309.5 -110.5t-151.5 -278.5q-10 66 -10 172q0 235 63 422t184 296t279 109q224 0 330 -178l-103 -61q-37 60 -91 87.5t-136 27.5q-137 0 -239 -122.5t-142 -332.5q148 92 326 92q166 0 299 -78.5t206.5 -213.5t73.5 -300 q0 -161 -70 -296t-200.5 -216.5t-294.5 -81.5q-94 0 -183 28t-172.5 93t-146 160.5t-100 241t-37.5 323.5zM240 477q-22 102 2 199t81.5 168t147.5 114t195 43q189 0 308.5 -124t119.5 -316q0 -189 -115.5 -315.5t-298.5 -126.5q-68 0 -131 20t-122 61t-108 112t-79 165z M358 510q46 -138 132.5 -202t189.5 -64q130 0 210.5 89t80.5 228q0 140 -84.5 228t-220.5 88q-155 0 -245.5 -108.5t-62.5 -258.5z" />
<glyph unicode="7" horiz-adv-x="1236" d="M47 1106v491h1083v-122h-958v-369h-125zM201 1106v340h903l-334 -533q-363 -575 -289 -989l-121 -22q-41 237 33 501t273 576l215 342h-557v-215h-123zM510 -72q-37 206 32 443t253 526l348 555l106 -66l-350 -555q-331 -522 -268 -882z" />
<glyph unicode="8" horiz-adv-x="1392" d="M76 487q0 277 262 435q-203 157 -203 393q0 141 76 251t203 168t282 58q115 0 218 -34.5t179.5 -95.5t121.5 -151t45 -196q0 -235 -205 -393q262 -158 262 -435q0 -148 -81.5 -269.5t-223.5 -190t-316 -68.5q-173 0 -315 68.5t-223.5 190t-81.5 269.5zM201 487 q0 -171 140.5 -288t354.5 -117q216 0 357 117t141 288q0 74 -27 137.5t-69 108t-101.5 80.5t-116 58t-120.5 38q75 20 141 57t119 87.5t84 118.5t31 143q0 154 -125.5 254t-313.5 100q-186 0 -312 -100t-126 -254q0 -147 108.5 -255t264.5 -151q-63 -16 -119.5 -38t-115 -58 t-100.5 -80.5t-68.5 -108t-26.5 -137.5zM229 487q0 75 30.5 139t77 107t111 77t124 53t124.5 32q65 -13 125 -32t124.5 -53t111.5 -77t77.5 -107t30.5 -139q0 -162 -131 -269t-338 -107q-205 0 -336 107.5t-131 268.5zM287 1315q0 144 115 234.5t294 90.5q181 0 295.5 -90.5 t114.5 -234.5q0 -77 -35 -145t-93.5 -116.5t-130.5 -81.5t-151 -48q-79 15 -151.5 48t-130.5 81.5t-92.5 116.5t-34.5 145zM352 487q0 -107 93.5 -179t250.5 -72t250.5 72t93.5 179q0 59 -29 107.5t-80 81t-108.5 54.5t-126.5 36q-69 -14 -126.5 -36t-108.5 -54.5t-80 -81 t-29 -107.5zM412 1315q0 -92 80.5 -164t203.5 -102q125 30 206 102t81 164q0 89 -77 145t-210 56q-131 0 -207.5 -56t-76.5 -145z" />
<glyph unicode="9" horiz-adv-x="1347" d="M63 1034q0 161 70.5 296t201 216.5t294.5 81.5q94 0 183 -28t172.5 -93t146 -160.5t100 -241t37.5 -323.5q0 -159 -29 -304.5t-86.5 -268.5t-138 -213.5t-190 -141.5t-236.5 -51q-147 0 -268 64t-195 186l106 64q57 -93 149 -142t208 -49q168 0 295.5 114t193.5 307.5 t66 434.5q0 198 -45 344l-4 13q-32 97 -83.5 169.5t-114 114.5t-129 62t-138.5 20q-192 0 -317.5 -136.5t-125.5 -334.5q0 -201 129.5 -335t327.5 -134q182 0 309.5 110.5t151.5 278.5q10 -66 10 -172q0 -235 -63 -422t-184 -296t-279 -109q-224 0 -330 178l102 62 q37 -60 91.5 -87.5t136.5 -27.5q137 0 239 122.5t142 332.5q-150 -93 -326 -93q-166 0 -299 78.5t-207 213.5t-74 300zM215 1034q0 189 115.5 316t298.5 127q68 0 131 -20t122 -61.5t108 -112.5t79 -165q22 -102 -2 -199t-81.5 -168t-147.5 -114t-195 -43q-189 0 -308.5 124 t-119.5 316zM338 1034q0 -140 84.5 -227.5t220.5 -87.5q155 0 245 108t62 258q-32 94 -85 156t-111.5 86.5t-124.5 24.5q-130 0 -210.5 -89.5t-80.5 -228.5z" />
<glyph unicode=":" horiz-adv-x="638" d="M104 172q0 89 63 152t152 63q88 0 152 -63t64 -152q0 -88 -64 -151.5t-152 -63.5q-89 0 -152 63.5t-63 151.5zM104 879q0 89 63 152t152 63q88 0 152 -63t64 -152q0 -88 -64 -151.5t-152 -63.5q-89 0 -152 63.5t-63 151.5zM223 172q0 -38 28 -66t68 -28q38 0 66.5 28 t28.5 66q0 40 -28 68t-67 28q-40 0 -68 -28t-28 -68zM223 879q0 -39 28.5 -67t67.5 -28q38 0 66.5 28.5t28.5 66.5q0 39 -28 67.5t-67 28.5q-40 0 -68 -28t-28 -68zM252 172q0 29 19 48.5t48 19.5q28 0 47 -19.5t19 -48.5q0 -28 -19 -47t-47 -19q-29 0 -48 19t-19 47z M252 879q0 29 19 48t48 19q28 0 47 -19t19 -48q0 -28 -19 -47t-47 -19q-29 0 -48 19t-19 47z" />
<glyph unicode=";" horiz-adv-x="626" d="M88 -233q80 95 137 206q-131 67 -131 199q0 89 63 152t152 63q92 0 156.5 -71t64.5 -191q0 -68 -24.5 -148t-59.5 -145t-70.5 -120.5t-59.5 -86.5l-25 -31l-88 76q9 10 23 28.5t50.5 73.5t64 107.5t50.5 122.5t23 127q0 71 -31 105t-74 34q-40 0 -68 -28t-28 -68 q0 -12 3.5 -23.5t7 -19t11 -16.5t11 -12t12.5 -10l8 -7l13 27q-37 28 -37 61q0 29 19 48.5t48 19.5q32 0 54 -27.5t22 -87.5q0 -52 -21.5 -116t-51.5 -118t-60.5 -100.5t-51.5 -72.5l-22 -27zM94 879q0 89 63 152t152 63q88 0 151.5 -63t63.5 -152q0 -88 -63.5 -151.5 t-151.5 -63.5q-89 0 -152 63.5t-63 151.5zM213 879q0 -39 28.5 -67t67.5 -28q38 0 66 28.5t28 66.5q0 40 -28 68t-66 28q-40 0 -68 -28t-28 -68zM242 879q0 29 19 48t48 19q28 0 47 -19t19 -48q0 -28 -19 -47t-47 -19q-29 0 -48 19t-19 47z" />
<glyph unicode="&#x3c;" horiz-adv-x="1171" d="M76 627l59 110l854 -448l-57 -111zM76 872l856 449l57 -113l-854 -446zM170 750l831 436l60 -111l-623 -325l623 -326l-60 -111z" />
<glyph unicode="=" horiz-adv-x="1177" d="M125 369v123h926v-123h-926zM125 520v123h926v-123h-926zM125 858v123h926v-123h-926zM125 1010v123h926v-123h-926z" />
<glyph unicode="&#x3e;" horiz-adv-x="1171" d="M111 424l622 326l-622 325l59 111l831 -436l-831 -437zM182 291l854 446l60 -110l-856 -449zM182 1210l58 111l856 -449l-60 -110z" />
<glyph unicode="?" horiz-adv-x="1101" d="M86 1133q-11 95 13 177t72.5 139.5t114.5 98.5t139 60.5t146 19.5q92 0 175 -30.5t145 -85.5t98.5 -137t36.5 -179q0 -72 -22 -138t-51.5 -111t-77.5 -90t-80 -68.5t-78 -53.5q-112 -70 -140.5 -99.5t-19.5 -70.5l12 -49l-118 -31l-13 50q-8 30 -7.5 57t6 49t22 44.5 t32 39t45 38.5t53 37t62.5 40q44 29 71 48.5t65.5 55t60.5 69t38.5 82t16.5 101.5q0 137 -96 223t-236 86q-71 0 -138.5 -24t-121 -68t-82 -113.5t-18.5 -152.5zM240 1151q-13 101 34 177t126 112.5t171 36.5q132 0 217.5 -76.5t85.5 -204.5q0 -49 -15 -93t-35.5 -75.5 t-56.5 -64.5t-62.5 -52t-69.5 -47q-34 -21 -56 -35.5t-49.5 -34.5t-44.5 -36t-35.5 -37t-27.5 -41.5t-15.5 -44.5t-5.5 -51.5t9 -57.5l12 -49l-119 -31l-12 52q-11 45 -12.5 87t8.5 78t24 67.5t38 60.5t47 52t56 47t57.5 41t59.5 38q94 62 137.5 110.5t43.5 116.5 q0 73 -47.5 114.5t-131.5 41.5q-99 0 -159 -50.5t-50 -136.5zM252 172q0 89 63 152t152 63q88 0 151.5 -63t63.5 -152q0 -88 -63.5 -151.5t-151.5 -63.5q-89 0 -152 63.5t-63 151.5zM371 172q0 -38 28 -66t68 -28q38 0 66 28t28 66q0 40 -28 68t-66 28q-40 0 -68 -28 t-28 -68zM399 172q0 29 19.5 48.5t48.5 19.5q28 0 46.5 -19.5t18.5 -48.5q0 -28 -18.5 -47t-46.5 -19q-29 0 -48.5 19t-19.5 47z" />
<glyph unicode="@" horiz-adv-x="1992" d="M80 528q0 194 79.5 372t212 306t311.5 204.5t370 76.5q175 0 331.5 -65t267.5 -174.5t175.5 -257t64.5 -308.5q0 -237 -119 -390t-298 -153q-159 0 -263 99q-133 -99 -288 -99q-177 0 -298.5 123.5t-121.5 298.5q0 126 65.5 234.5t174.5 171.5t233 63q119 0 213 -57l8 43 h127l-59 -336q-25 99 -104.5 163t-184.5 64q-139 0 -243.5 -103.5t-104.5 -242.5q0 -124 85.5 -211.5t209.5 -87.5q97 0 182.5 53.5t130.5 139.5q9 -89 74.5 -141t163.5 -52q123 0 208.5 117t85.5 303q0 135 -55 260t-149.5 217.5t-228 147.5t-283.5 55q-166 0 -322.5 -66.5 t-272 -178.5t-185.5 -266.5t-70 -322.5q0 -198 93.5 -364t258.5 -262.5t365 -96.5q210 0 393 101l59 -111q-217 -114 -452 -114q-176 0 -332.5 67t-267.5 180.5t-175.5 270t-64.5 329.5zM231 528q0 163 67.5 312.5t179 257t262.5 171.5t313 64q145 0 273.5 -52.5t219 -141 t143 -208t52.5 -249.5q0 -174 -77.5 -282.5t-188.5 -108.5q-107 0 -168 69t-37 181l84 475h125l-88 -498q-13 -55 8 -78.5t76 -23.5t98 71t43 195q0 142 -72 262.5t-202 193t-289 72.5q-183 0 -343.5 -92t-257 -249.5t-96.5 -340.5q0 -159 73 -290t202.5 -206t288.5 -75 q163 0 323 82l57 -109q-187 -96 -380 -96q-194 0 -352.5 92t-247.5 251t-89 351zM657 561q0 130 95 224t225 94q117 0 192.5 -78.5t75.5 -194.5q0 -130 -95 -222.5t-226 -92.5q-115 0 -191 77.5t-76 192.5zM780 561q0 -63 40 -104t104 -41q80 0 139 56t59 134 q0 65 -40.5 106.5t-104.5 41.5q-78 0 -137.5 -57.5t-59.5 -135.5z" />
<glyph unicode="A" d="M-33 0v123h643v-123h-643zM-33 152v124h203l565 1338l113 -49l-600 -1413h-281zM279 152l180 426h803l180 -426h-332v124h145l-73 177h-641l-76 -177h145v-124h-331zM471 606l389 920l389 -920h-778zM657 729h408l-205 481zM872 1565l115 49l565 -1338h201v-124h-283z M1110 0v123h643v-123h-643z" />
<glyph unicode="B" horiz-adv-x="1583" d="M80 0v123h909q179 0 297.5 110t118.5 263q0 125 -85 225.5t-222 132.5q99 32 161 115.5t62 185.5q0 134 -100 227t-273 93h-868v122h868q114 0 209 -36t157.5 -96.5t97 -140.5t34.5 -169q0 -159 -105 -283q88 -69 137.5 -167.5t49.5 -208.5q0 -100 -40.5 -190.5 t-111 -158t-171.5 -107.5t-216 -40h-909zM80 152v124h184v1045h-184v125h309v-1294h-309zM418 152v686h586q164 -4 268 -104t104 -238q0 -143 -108.5 -243.5t-278.5 -100.5h-571zM418 866v580h530q163 0 253.5 -83t90.5 -208q0 -120 -85.5 -204.5t-217.5 -84.5h-571z M541 276h448q118 0 190 64t72 156t-72 155.5t-190 63.5h-448v-439zM541 991h456q77 1 124.5 48t47.5 116q0 74 -56 120t-165 46h-407v-330z" />
<glyph unicode="C" horiz-adv-x="1636" d="M49 799q0 168 66 321.5t177 264.5t265 177t322 66q213 0 397 -102v71h123v-372q-60 126 -207.5 203t-312.5 77q-190 0 -353 -95t-258.5 -258t-95.5 -353t95.5 -353t258.5 -258.5t353 -95.5q161 0 314 57t275 164l82 -92q-135 -119 -314.5 -185.5t-356.5 -66.5 q-168 0 -322 66t-265 177t-177 265t-66 322zM201 799q0 138 53.5 263.5t144.5 216.5t216.5 144.5t263.5 53.5q124 0 237 -42.5t191 -124.5t92 -186v-211h-123v195q-12 100 -130.5 172t-266.5 72q-112 0 -214.5 -44t-176.5 -118t-118 -176.5t-44 -214.5t44 -214.5t118 -176.5 t176.5 -118t214.5 -44q281 0 487 182l82 -92q-119 -105 -265 -160t-304 -55q-138 0 -263.5 53.5t-216.5 144.5t-144.5 216.5t-53.5 263.5zM1427 913v684h123v-684h-123z" />
<glyph unicode="D" horiz-adv-x="1685" d="M84 0v123h754q204 0 357 90.5t231.5 242.5t78.5 343q0 190 -78.5 342t-231.5 243t-357 91h-754v122h754q181 0 331 -63t250 -171t154.5 -253.5t54.5 -310.5t-54.5 -310.5t-154.5 -254t-250 -171.5t-331 -63h-754zM84 152v124h182v1045h-182v125h307v-1294h-307zM420 152 v1294h418q149 0 270.5 -49.5t201.5 -136.5t123.5 -205t43.5 -256t-43.5 -256t-123.5 -205t-201.5 -136.5t-270.5 -49.5h-418zM543 276h295q242 0 378 145t136 378t-136 377.5t-378 144.5h-295v-1045z" />
<glyph unicode="E" horiz-adv-x="1460" d="M80 0v123h1182v369h122v-492h-1304zM80 152v124h184v1045h-184v125h309v-1294h-309zM80 1475v122h1294v-491h-125v369h-1169zM418 152v647h635v-125h-512v-398h569v216h123v-340h-815zM418 827v619h803v-340h-123v215h-557v-371h512v-123h-635z" />
<glyph unicode="F" horiz-adv-x="1398" d="M84 0v123h639v-123h-639zM84 152v124h182v1045h-182v125h307v-1294h-307zM84 1475v122h1292v-491h-125v369h-1167zM420 152v606h618v-123h-495v-359h180v-124h-303zM420 786v660h803v-340h-123v215h-557v-410h495v-125h-618z" />
<glyph unicode="G" horiz-adv-x="1697" d="M49 797q0 170 66 324t177 265t265 176.5t322 65.5q213 0 397 -102v71h123v-372q-60 126 -207.5 203t-312.5 77q-143 0 -273.5 -56t-225.5 -151t-151.5 -226t-56.5 -275q0 -142 54.5 -272t147 -225t223 -151.5t275.5 -56.5q163 0 309 68.5t263 193.5v-354h-123v96 q-209 -127 -449 -127q-229 0 -418.5 112t-297 302t-107.5 414zM201 797q0 140 53.5 266t144.5 216.5t216.5 144t263.5 53.5q124 0 237 -42.5t191 -124.5t92 -186v-157h-123v141q-12 100 -130.5 172t-266.5 72q-112 0 -214.5 -43.5t-176.5 -117.5t-118 -177t-44 -217 q0 -151 70.5 -277t197 -200t280.5 -74q256 0 447 203v139h-444v125h567v-316q-247 -276 -572 -276q-188 0 -342.5 91t-241.5 245.5t-87 339.5zM877 741v123h718v-864h-122v741h-596zM1427 967v630h123v-630h-123z" />
<glyph unicode="H" horiz-adv-x="1798" d="M80 0v123h645v-123h-645zM80 152v124h184v1045h-184v125h309v-1294h-309zM80 1475v122h645v-122h-645zM418 152v647h960v-647h-309v124h184v398h-712v-398h184v-124h-307zM418 827v619h307v-125h-184v-371h712v371h-184v125h309v-619h-960zM1069 0v123h645v-123h-645z M1069 1475v122h645v-122h-645zM1407 152v1294h307v-125h-184v-1045h184v-124h-307z" />
<glyph unicode="I" horiz-adv-x="806" d="M80 0v123h645v-123h-645zM80 152v124h184v1045h-184v125h309v-1294h-309zM80 1475v122h645v-122h-645zM418 152v1294h307v-125h-184v-1045h184v-124h-307z" />
<glyph unicode="J" horiz-adv-x="1296" d="M53 311q0 60 8 101l121 -25q-6 -30 -6 -76q0 -104 46.5 -192t142 -144.5t223.5 -56.5q72 0 132.5 18.5t113 61t89 107t57.5 160.5t21 218v992h-639v122h762v-1114q0 -179 -41 -314t-115.5 -215.5t-169.5 -119.5t-210 -39q-126 0 -229.5 43t-169 115.5t-101 164.5 t-35.5 193zM205 311q0 40 6 70l123 -25q-4 -24 -4 -45q0 -107 65.5 -173t192.5 -66q63 0 108.5 19.5t81 65t53 127t17.5 199.5v838h-486v125h611v-963q0 -145 -29 -251t-82 -167t-121 -89.5t-153 -28.5q-182 0 -282.5 104.5t-100.5 259.5z" />
<glyph unicode="K" horiz-adv-x="1597" d="M80 0v123h645v-123h-645zM80 152v124h184v1045h-184v125h309v-1294h-309zM80 1475v122h645v-122h-645zM418 152v362l299 320l530 -711h330v-123h-389l-481 643l-166 -178v-189h184v-124h-307zM418 555v891h307v-125h-184v-453l424 453h-33v125h319zM737 856l553 590h285 v-125h-232l-444 -473l426 -572h252v-124h-315zM932 1475v122h643v-122h-643z" />
<glyph unicode="L" horiz-adv-x="1372" d="M84 0v123h1139v369h125v-492h-1264zM84 152v124h182v1045h-182v125h307v-1294h-307zM84 1475v122h643v-122h-643zM420 152v1294h307v-125h-184v-1045h528v216h123v-340h-774z" />
<glyph unicode="M" horiz-adv-x="2078" d="M82 0v123h643v-123h-643zM82 152v124h182v1045h-182v125h307v-1294h-307zM82 1475v122h401l553 -1003l557 1003h402v-122h-330l-627 -1137l-626 1137h-330zM418 152v1253l608 -1102l-111 -59l-374 682v-650h184v-124h-307zM1051 303l608 1102v-1253h-307v124h182v648 l-377 -680zM1352 0v123h643v-123h-643zM1688 152v1294h307v-125h-185v-1045h185v-124h-307z" />
<glyph unicode="N" horiz-adv-x="1775" d="M76 1321v125h311v-1294h-307v124h182v1045h-186zM76 1475v122h397l799 -1122v846h-185v125h308v-1360l-985 1389h-334zM80 0v123h643v-123h-643zM416 152v1261l981 -1380l-101 -72l-757 1063v-748h184v-124h-307zM1087 1475v122h644v-122h-644zM1423 41v1405h308v-125 h-183v-1280h-125z" />
<glyph unicode="O" horiz-adv-x="1757" d="M49 799q0 168 66 321.5t177 264.5t265 177t322 66t321.5 -66t264.5 -177t177 -264.5t66 -321.5t-66 -322t-177 -265t-264.5 -177t-321.5 -66t-322 66t-265 177t-177 265t-66 322zM172 799q0 -190 95.5 -353t258.5 -258.5t353 -95.5t353 95.5t258 258.5t95 353 q0 142 -56.5 273t-151 225.5t-225.5 151t-273 56.5q-190 0 -353 -95t-258.5 -258t-95.5 -353zM201 799q0 138 53.5 263.5t144.5 216.5t216.5 144.5t263.5 53.5t263.5 -53.5t216 -144.5t144 -216.5t53.5 -263.5t-53.5 -263.5t-144 -216.5t-216 -144.5t-263.5 -53.5 t-263.5 53.5t-216.5 144.5t-144.5 216.5t-53.5 263.5zM326 799q0 -112 44 -214.5t118 -176.5t176.5 -118t214.5 -44t214.5 44t176.5 118t118 176.5t44 214.5t-44 214.5t-118 176.5t-176.5 118t-214.5 44t-214.5 -44t-176.5 -118t-118 -176.5t-44 -214.5z" />
<glyph unicode="P" horiz-adv-x="1566" d="M84 0v123h643v-123h-643zM84 152v124h182v1045h-182v125h307v-1294h-307zM84 1475v122h872q127 0 237 -43.5t185.5 -117t118.5 -171t43 -204.5q0 -145 -73 -267.5t-207.5 -196t-303.5 -73.5h-413v-248h184v-124h-307v497h536q201 0 331 121t130 291q0 82 -34 157.5 t-93.5 132.5t-146.5 90.5t-187 33.5h-872zM420 678v768h536q192 0 312.5 -112t120.5 -273t-120.5 -272t-312.5 -111h-536zM543 801h413q140 0 224 75t84 185t-84 185t-224 75h-413v-520z" />
<glyph unicode="Q" horiz-adv-x="1757" d="M49 799q0 168 66 321.5t177 264.5t265 177t322 66t321.5 -66t264.5 -177t177 -264.5t66 -321.5q0 -217 -105 -402.5t-282 -298.5l102 -49q99 -48 165 -74t132 -39q28 -5 52 -5q33 0 60 11q47 17 81 64l100 -72q-32 -45 -71.5 -73.5t-79.5 -41.5q-36 -12 -82 -12h-7 q-50 1 -93.5 9.5t-101 29.5t-102.5 41t-106 50q-10 5 -47.5 23.5t-50.5 24.5t-46.5 22t-50 23t-45.5 20t-48.5 20t-44 15.5t-46.5 14.5q252 42 423 241t171 458q0 142 -56.5 273t-151 225.5t-225.5 151t-273 56.5q-190 0 -353 -95t-258.5 -258t-95.5 -353t95.5 -353 t258.5 -258.5t353 -95.5q22 -1 45 -4.5t51 -11.5t48.5 -14t55.5 -20.5t52 -21.5t57.5 -26t54 -25.5t59.5 -29t56 -27.5q62 -30 107.5 -50.5t105.5 -42t106.5 -30.5t100.5 -10h7q49 0 89 13q43 14 86 45.5t78 80.5l100 -72q-46 -65 -103.5 -106.5t-114.5 -60.5t-125 -20h-13 q-61 0 -113 9q-58 9 -128 32.5t-121.5 45.5t-114.5 53q-17 8 -70 34.5t-72 35.5t-61.5 29.5t-64.5 28.5t-54 19.5t-56 16.5t-46 6h-2q-168 0 -322 66t-265 177t-177 265t-66 322zM201 799q0 138 53.5 263.5t144.5 216.5t216.5 144.5t263.5 53.5t263.5 -53.5t216 -144.5 t144 -216.5t53.5 -263.5t-53.5 -263.5t-144 -216.5t-216 -144.5t-263.5 -53.5t-263.5 53.5t-216.5 144.5t-144.5 216.5t-53.5 263.5zM326 799q0 -112 44 -214.5t118 -176.5t176.5 -118t214.5 -44t214.5 44t176.5 118t118 176.5t44 214.5t-44 214.5t-118 176.5t-176.5 118 t-214.5 44t-214.5 -44t-176.5 -118t-118 -176.5t-44 -214.5z" />
<glyph unicode="R" horiz-adv-x="1650" d="M80 0v123h645v-123h-645zM80 152v124h184v1045h-184v125h309v-1294h-309zM80 1475v122h915q121 0 226 -41.5t177 -111.5t113 -163.5t41 -195.5q0 -175 -112 -312t-295 -181l223 -316h229v-124h-292l-385 546h75q189 0 310.5 113.5t121.5 273.5q0 161 -121.5 275.5 t-310.5 114.5h-915zM418 152v546h465l385 -546h-314v124h74l-211 299h-276v-299h184v-124h-307zM418 727v719h577q180 0 292 -104.5t112 -256.5q0 -150 -112 -254t-292 -104h-577zM541 850h454q129 0 205 67.5t76 167.5t-76 168t-205 68h-454v-471zM954 0v123h643v-123h-643 z" />
<glyph unicode="S" horiz-adv-x="1353" d="M96 0v627h125v-627h-125zM115 1178q0 194 141 322t362 128q179 0 338 -86v55h125v-325q-69 100 -195 166.5t-268 66.5q-169 0 -273.5 -93t-104.5 -234q0 -64 23.5 -117t59 -90.5t95.5 -72t113.5 -56.5t132.5 -49q173 -60 228 -86q175 -82 214 -205q12 -39 12 -82 q0 -130 -94.5 -214.5t-261.5 -84.5q-158 0 -294.5 75t-217.5 199v232h123v-193q67 -87 170 -137.5t219 -50.5t174.5 48t58.5 126q0 45 -23.5 80.5t-84 67.5t-101.5 48.5t-138 50.5q-17 6 -25 9q-56 20 -100.5 37.5t-99.5 44.5t-96.5 55t-83 67t-68.5 82t-43.5 98.5 t-16.5 117.5zM250 0v346q88 -115 224 -184.5t288 -69.5q177 0 281 94.5t104 233.5q0 49 -15 93t-37 76t-60.5 62.5t-71 50.5t-84 42t-85 34.5t-87.5 30.5q-24 8 -35 12q-76 26 -129 47.5t-109 53.5t-89.5 66.5t-55 83t-21.5 106.5q0 131 95 215t255 84q150 0 278 -74.5 t185 -181.5v-250h-125v215q-45 69 -139 117.5t-199 48.5q-109 0 -168 -48t-59 -126t74.5 -128.5t249.5 -111.5q165 -59 208 -78q253 -111 321 -286q28 -71 28 -154q0 -190 -140 -320.5t-370 -130.5q-205 0 -389 109v-78h-123zM1110 971v626h123v-626h-123z" />
<glyph unicode="T" horiz-adv-x="1478" d="M27 1106v491h1425v-491h-125v369h-1177v-369h-123zM178 1106v340h547v-1294h-307v124h182v1045h-297v-215h-125zM418 0v123h643v-123h-643zM754 152v1294h544v-340h-122v215h-299v-1045h184v-124h-307z" />
<glyph unicode="U" horiz-adv-x="1720" d="M37 1321v125h307v-830q0 -109 34 -203.5t97.5 -166t163.5 -113t223 -41.5t222 41.5t162.5 113t97.5 166t34 203.5v830h308v-125h-185v-705q0 -106 -26 -202t-79.5 -177t-128.5 -141t-179 -93.5t-226 -33.5q-152 0 -275.5 51.5t-202.5 141t-121 205.5t-42 249v705h-184z M37 1475v122h643v-122h-643zM373 616v830h307v-125h-184v-705q0 -170 93.5 -270t272.5 -100q178 0 271.5 100t93.5 270v705h-185v125h308v-830q0 -106 -31 -195.5t-91 -156.5t-153.5 -105t-212.5 -38q-158 0 -270.5 66.5t-165.5 176.5t-53 252zM1042 1475v122h644v-122h-644 z" />
<glyph unicode="V" d="M-31 1321v125h281l600 -1415l-115 -47l-565 1337h-201zM-31 1475v122h643v-122h-643zM281 1446h331v-125h-147l395 -934l395 934h-143v125h332l-582 -1374zM874 31l599 1415h282v-125h-203l-565 -1337zM1112 1475v122h643v-122h-643z" />
<glyph unicode="W" horiz-adv-x="2412" d="M-25 1321v125h279l467 -1413l-117 -39l-438 1327h-191zM-25 1475v122h643v-122h-643zM287 1446h331v-125h-161l286 -866l334 901l115 -45l-457 -1229zM750 33l456 1231l457 -1231l-115 -45l-342 923l-342 -923zM1221 1311l114 45l334 -901l285 866h-160v125h332 l-451 -1364zM1692 33l465 1413h278v-125h-188l-439 -1327zM1794 1475v122h641v-122h-641z" />
<glyph unicode="X" horiz-adv-x="1615" d="M10 0v123h643v-123h-643zM10 152v124h221l406 549l-365 496h-221v125h283l457 -621l-498 -673h-283zM51 1475v122h643v-122h-643zM330 152l479 649l481 -649h-325v124h79l-235 318l-236 -318h80v-124h-323zM371 1446h323v-125h-80l195 -264l195 264h-80v125h325 l-440 -596zM827 825l459 621h283v-125h-221l-367 -496l408 -549h221v-124h-283zM924 1475v122h645v-122h-645zM965 0v123h645v-123h-645z" />
<glyph unicode="Y" horiz-adv-x="1558" d="M-31 1321v125h283l514 -811v-483h-309v124h184v324l-457 721h-215zM-31 1475v122h645v-122h-645zM287 1446h327v-125h-100l266 -422l267 422h-101v125h326l-492 -778zM457 0v123h645v-123h-645zM795 152v483l512 811h282v-125h-217l-454 -721v-324h184v-124h-307z M946 1475v122h643v-122h-643z" />
<glyph unicode="Z" horiz-adv-x="1486" d="M43 229l997 1092h-651v-215h-123v340h1055l-1184 -1299zM115 1106v491h1239v-122h-1116v-369h-123zM147 0v123h1137v369h123v-492h-1260zM180 152l1184 1298l92 -82l-995 -1092h669v216h125v-340h-1075z" />
<glyph unicode="[" horiz-adv-x="757" d="M164 -573v2426h563v-122h-440v-2182h440v-122h-563zM315 -422v2124h412v-123h-287v-1878h287v-123h-412z" />
<glyph unicode="\" horiz-adv-x="1568" d="M51 1776h142l1157 -2272h-138zM223 1776h137l1158 -2272h-136z" />
<glyph unicode="]" horiz-adv-x="757" d="M31 -299h286v1878h-286v123h411v-2124h-411v123zM31 -451h440v2182h-440v122h563v-2426h-563v122z" />
<glyph unicode="^" horiz-adv-x="1204" d="M76 913l407 695l107 -64l-406 -692zM211 838l391 671l393 -673l-106 -62l-287 492l-287 -492zM614 1544l109 64l405 -695l-106 -61z" />
<glyph unicode="_" horiz-adv-x="1398" d="M102 -88h1194v-123h-1194v123zM102 -240h1194v-122h-1194v122z" />
<glyph unicode="`" horiz-adv-x="305" d="M-383 1577l68 102l489 -323l-68 -103zM-299 1704l68 104l489 -325l-68 -103z" />
<glyph unicode="a" horiz-adv-x="1253" d="M49 389q0 59 16 116t53.5 112t92.5 96.5t139 66.5t187 25q110 0 249 -29q-6 53 -54 75.5t-152 22.5q-162 0 -361 -67l-41 117q215 73 400 73h11q322 0 322 -235v-144q-219 64 -374 64q-96 0 -169.5 -26t-114.5 -69.5t-61 -93.5t-20 -104q0 -125 97 -206t249 -81 q104 0 208 38t185 102v-119h334v-123h-459v33q-138 -53 -268 -53q-131 0 -238 51t-169 144.5t-62 213.5zM127 1069q238 79 451 82q72 0 137.5 -11t130 -39t112 -71t76.5 -111.5t29 -156.5v-486h182v-124h-305v610q0 74 -29.5 127.5t-82 82.5t-114.5 42q-57 12 -125 12h-11 q-190 0 -408 -74zM201 389q0 51 17.5 96t55 84t105 61.5t158.5 22.5q149 0 374 -67v-310q-82 -67 -184.5 -106t-208.5 -39q-144 0 -230.5 71t-86.5 187zM324 389q0 -60 50 -96.5t144 -36.5q143 0 268 80v158q-141 34 -249 34q-213 0 -213 -139z" />
<glyph unicode="b" horiz-adv-x="1429" d="M27 0v123h333v289q48 -136 169 -223t270 -87q125 0 232 63t170 170t63 232q0 126 -63 233t-170 169.5t-232 62.5q-149 0 -270 -87t-169 -224v803h-333v123h456v-582q145 92 316 92q159 0 295 -79t215.5 -215t79.5 -296q0 -159 -79.5 -294.5t-215.5 -214t-295 -78.5 q-176 0 -316 92v-72h-456zM27 152v124h182v1094h-182v125h305v-1343h-305zM362 567q0 183 127.5 310t309.5 127t309 -127t127 -310q0 -181 -127.5 -308.5t-308.5 -127.5q-182 0 -309.5 127.5t-127.5 308.5zM487 567q0 -129 91.5 -220t220.5 -91q130 0 221.5 91t91.5 220 q0 131 -91.5 222.5t-221.5 91.5q-129 0 -220.5 -92t-91.5 -222z" />
<glyph unicode="c" horiz-adv-x="1187" d="M43 567q0 160 79 296t214.5 215t294.5 79q106 0 209 -39v2h123v-254q-47 76 -138 121t-194 45q-125 0 -232 -62.5t-170 -169.5t-63 -233q0 -195 135.5 -330t347.5 -135q106 0 208.5 38t184.5 108l78 -96q-92 -80 -218.5 -126t-252.5 -46q-133 0 -247 46.5t-192 126 t-122.5 187t-44.5 227.5zM195 567q0 183 127 310t309 127q119 0 212 -57t120 -152v-207h-123v182q-18 46 -76 78.5t-133 32.5q-129 0 -220.5 -92t-91.5 -222q0 -135 89.5 -223t240.5 -88q164 0 297 109l78 -97q-165 -137 -375 -137q-203 0 -328.5 125t-125.5 311zM991 588 v532h125v-532h-125z" />
<glyph unicode="d" horiz-adv-x="1431" d="M43 567q0 160 79 296t214.5 215t294.5 79q167 0 315 -92v305h-182v125h305v-774q-50 137 -170.5 224t-267.5 87q-125 0 -232 -62.5t-170 -169.5t-63 -233q0 -125 63 -232t170 -170t232 -63q147 0 267.5 87t170.5 223v-289h334v-123h-457v72q-143 -92 -315 -92 q-159 0 -294.5 78.5t-214.5 214t-79 294.5zM195 567q0 183 127 310t309 127t309 -127t127 -310q0 -181 -127.5 -308.5t-308.5 -127.5t-308.5 127.5t-127.5 308.5zM319 567q0 -129 91.5 -220t220.5 -91q130 0 221.5 91t91.5 220q0 131 -91.5 222.5t-221.5 91.5 q-129 0 -220.5 -92t-91.5 -222zM764 1524v123h459v-1371h180v-124h-305v1372h-334z" />
<glyph unicode="e" horiz-adv-x="1218" d="M43 565q0 115 42 222t117 189t187 131.5t242 49.5q126 0 232 -44.5t174 -119.5t106 -168q36 -87 35 -184v-13q-2 -104 -45 -198h-785q38 -80 118 -127t191 -47q163 0 299 109l78 -99q-177 -135 -377 -135q-202 0 -329.5 121.5t-132.5 300.5h849q9 42 9 84q0 43 -10 87 q-20 86 -72 154.5t-141 111t-199 42.5q-102 0 -190.5 -38.5t-148 -103.5t-93 -149.5t-33.5 -175.5q0 -193 138 -328t353 -135q210 0 394 144l79 -94q-97 -80 -223 -126t-250 -46q-134 0 -249.5 46.5t-195 126t-124.5 186.5t-45 226zM195 582q4 114 57 209t152.5 154 t226.5 59q98 0 179 -37t130 -97q48 -60 70 -136q14 -48 14 -97q0 -27 -4 -55h-825zM348 707h547q-24 76 -94 125t-170 49t-173 -47.5t-110 -126.5z" />
<glyph unicode="f" horiz-adv-x="892" d="M-455 -197l123 -12q-1 -16 -1 -31q0 -118 91 -203q102 -96 248 -96q379 0 379 539v985h506v-125h-383v-860q0 -319 -130 -491.5t-372 -172.5q-125 0 -234.5 60t-173.5 169q-55 93 -55 201q0 18 2 37zM-303 -211l125 -12q-1 -8 -1 -15q0 -54 49 -98q57 -51 136 -51 q114 0 170.5 89t56.5 298v860h-202v125h325v-985q0 -510 -350 -510q-86 0 -160 39t-116 109q-34 58 -34 125q0 13 1 26zM31 1014v123h202q0 317 129.5 488t372.5 171q93 0 181 -36t153 -97t101 -149q28 -70 28 -146q0 -19 -2 -39l-123 12q1 14 1 27q0 76 -38 141 q-46 77 -126 119.5t-175 42.5q-379 0 -379 -538v-119h-325zM385 1014v119q0 509 350 509q86 0 160 -39t115 -109q35 -58 35 -125q0 -13 -1 -26l-124 13q1 6 1 12q0 56 -51 102q-56 50 -135 50q-114 0 -170.5 -88.5t-56.5 -294.5h383v-123h-506z" />
<glyph unicode="g" horiz-adv-x="1431" d="M43 567q0 160 79 296t214.5 215t294.5 79q167 0 315 -92v72h457v-123h-334v-293q-50 137 -170.5 224t-267.5 87q-125 0 -232 -62.5t-170 -169.5t-63 -233q0 -125 63 -232t170 -170t232 -63q147 0 267.5 87t170.5 223v-488q0 -222 -104.5 -334t-284.5 -112 q-146 0 -246 88.5t-100 216.5q0 29 6 59l121 -20q-4 -24 -4 -39q0 -75 64 -128.5t159 -53.5q266 0 266 323v148q-143 -92 -315 -92q-159 0 -294.5 78.5t-214.5 214t-79 294.5zM180 -217q0 38 8 86l123 -23q-6 -30 -6 -63q0 -137 110 -235.5t265 -98.5q190 0 304 122t114 353 v1061h305v-125h-180v-936q0 -143 -41 -257.5t-114 -189t-172 -114t-216 -39.5q-134 0 -249 61t-183 167t-68 231zM195 567q0 183 127 310t309 127t309 -127t127 -310q0 -181 -127.5 -308.5t-308.5 -127.5t-308.5 127.5t-127.5 308.5zM319 567q0 -129 91.5 -220t220.5 -91 q130 0 221.5 91t91.5 220q0 131 -91.5 222.5t-221.5 91.5q-129 0 -220.5 -92t-91.5 -222z" />
<glyph unicode="h" horiz-adv-x="1400" d="M27 0v123h639v-123h-639zM27 152v124h182v1094h-182v125h305v-1343h-305zM27 1524v123h458v-568q140 78 281 78q62 0 122 -15.5t120 -53.5t105 -94t73 -143.5t28 -195.5v-379h181v-124h-305v503q0 82 -19.5 148t-51 108t-74 70t-87 39.5t-92.5 11.5q-106 0 -213.5 -56.5 t-192.5 -152.5v701h-333zM360 152v626q85 105 191.5 165.5t214.5 60.5q57 0 107 -17.5t93.5 -55.5t69 -109t25.5 -167v-532h334v-123h-457v655q0 226 -172 226q-71 0 -145.5 -39t-135.5 -109v-457h181v-124h-306z" />
<glyph unicode="i" horiz-adv-x="735" d="M66 0v123h639v-123h-639zM66 152v124h180v584h-180v125h305v-833h-305zM66 1014v123h456v-861h183v-124h-306v862h-333zM150 1470q0 89 63 152.5t152 63.5q88 0 151.5 -63.5t63.5 -152.5q0 -88 -63.5 -151.5t-151.5 -63.5q-89 0 -152 63.5t-63 151.5zM268 1470 q0 -38 28.5 -66t68.5 -28q38 0 66 28t28 66q0 40 -28 68.5t-66 28.5q-40 0 -68.5 -28.5t-28.5 -68.5zM297 1470q0 29 19.5 48.5t48.5 19.5q28 0 46.5 -19.5t18.5 -48.5q0 -28 -18.5 -46.5t-46.5 -18.5q-29 0 -48.5 18.5t-19.5 46.5z" />
<glyph unicode="j" horiz-adv-x="636" d="M-354 -238q0 40 8 80l123 -24q-6 -24 -6 -56q0 -116 81.5 -200t196.5 -84q145 0 229 102t84 301v1133h-333v123h458v-1256q0 -247 -121.5 -386.5t-316.5 -139.5q-168 0 -285.5 119.5t-117.5 287.5zM-201 -238q0 14 6 50l121 -25q-4 -20 -4 -25q0 -56 36.5 -94.5 t90.5 -38.5q162 0 162 252v979h-182v125h305v-1104q0 -188 -75.5 -281.5t-209.5 -93.5q-105 0 -177.5 75t-72.5 181zM115 1470q0 89 63 152.5t152 63.5q88 0 151.5 -63.5t63.5 -152.5q0 -88 -63.5 -151.5t-151.5 -63.5q-89 0 -152 63.5t-63 151.5zM233 1470q0 -38 28.5 -66 t68.5 -28q38 0 66 28t28 66q0 40 -28 68.5t-66 28.5q-40 0 -68.5 -28.5t-28.5 -68.5zM262 1470q0 29 19.5 48.5t48.5 19.5q28 0 46.5 -19.5t18.5 -48.5q0 -28 -18.5 -46.5t-46.5 -18.5q-29 0 -48.5 18.5t-19.5 46.5z" />
<glyph unicode="k" horiz-adv-x="1331" d="M29 0v123h610v-123h-610zM29 152v124h182v1094h-182v125h305v-1343h-305zM29 1524v123h458v-580q161 92 318 92q170 0 280.5 -112.5t110.5 -266.5q0 -112 -60 -209t-182 -165l103 -130h254v-124h-314l-245 307q157 53 235 140.5t78 184.5q0 104 -75.5 180t-192.5 76 q-91 0 -207.5 -51t-227.5 -160v695h-333zM362 152v636q112 117 227.5 170.5t207.5 53.5q107 0 173 -66.5t66 -161.5q0 -94 -75 -174.5t-234 -128.5l-33 115q118 36 173 85t55 99q0 45 -31.5 74t-85.5 29q-65 0 -149 -37t-169 -119v-451h152v-124h-277zM627 377l96 78 l262 -332h326v-123h-387z" />
<glyph unicode="l" horiz-adv-x="718" d="M-33 1370v125h305v-1100q0 -84 24.5 -145.5t63 -91.5t75 -43t71.5 -13q97 0 176 76l84 -92q-55 -50 -126.5 -78t-133.5 -28q-40 0 -83 10t-94 38.5t-90 72.5t-65.5 120t-26.5 174v975h-180zM-33 1524v123h457v-1252q0 -139 82 -139q37 0 72 33l84 -90q-71 -68 -156 -68 q-33 0 -65.5 11.5t-65.5 38.5t-53.5 82t-20.5 132v1129h-334z" />
<glyph unicode="m" horiz-adv-x="1992" d="M61 860v125h308v-833h-306v124h183v584h-185zM61 1014v123h461v-37q108 57 228 57q81 0 162.5 -32.5t142.5 -100.5q156 133 336 133q55 0 109 -13.5t109.5 -47t97.5 -83.5t68.5 -129.5t26.5 -178.5v-429h185v-124h-308v553q0 72 -18 129.5t-46.5 94t-67 60.5t-77 33.5 t-79.5 9.5q-100 0 -194 -58t-171 -161q-18 78 -65 129t-99.5 70.5t-111.5 19.5q-98 0 -189.5 -54.5t-163.5 -150.5v187h-336zM63 0v123h639v-123h-639zM397 152v624q73 108 163 168t190 60q49 0 92.5 -14.5t82.5 -47t62 -93.5t23 -144v-582h333v-123h-458v705 q0 176 -135 176q-115 0 -228 -144v-461h180v-124h-305zM1034 772q159 232 357 232q49 0 92.5 -14.5t82.5 -47t62 -93.5t23 -144v-582h336v-123h-461v705q0 176 -135 176q-119 0 -232 -144q2 -10 2 -32v-429h182v-124h-305v553q0 27 -4 67z" />
<glyph unicode="n" horiz-adv-x="1431" d="M61 0v123h639v-123h-639zM61 152v124h183v584h-183v125h306v-833h-306zM61 1014v123h457v-58q140 78 283 78q62 0 121.5 -15.5t119.5 -53.5t104.5 -94t72.5 -143.5t28 -195.5v-379h183v-124h-306v503q0 82 -19 148t-50.5 108t-74.5 70t-87 39.5t-92 11.5 q-108 0 -214 -56.5t-192 -152.5v191h-334zM395 152v626q86 106 191 166t215 60q57 0 107 -17.5t93.5 -55.5t69 -109t25.5 -167v-532h334v-123h-457v655q0 226 -172 226q-72 0 -146 -39.5t-137 -110.5v-455h182v-124h-305z" />
<glyph unicode="o" horiz-adv-x="1261" d="M43 567q0 160 79 296t214.5 215t294.5 79t295 -79t215.5 -215t79.5 -296q0 -159 -79.5 -294.5t-215.5 -214t-295 -78.5t-294.5 78.5t-214.5 214t-79 294.5zM166 567q0 -125 63 -232t170 -170t232 -63t232 63t170 170t63 232q0 126 -63 233t-170 169.5t-232 62.5 t-232 -62.5t-170 -169.5t-63 -233zM195 567q0 183 127 310t309 127t309 -127t127 -310q0 -181 -127.5 -308.5t-308.5 -127.5t-308.5 127.5t-127.5 308.5zM319 567q0 -129 91.5 -220t220.5 -91q130 0 221.5 91t91.5 220q0 131 -91.5 222.5t-221.5 91.5q-129 0 -220.5 -92 t-91.5 -222z" />
<glyph unicode="p" horiz-adv-x="1433" d="M31 -233h180v1093h-180v125h305v-1341h-305v123zM31 -385h639v-123h-639v123zM31 1014v123h456v-72q145 92 316 92q159 0 295 -79t215.5 -215t79.5 -296q0 -159 -79.5 -294.5t-215.5 -214t-295 -78.5q-176 0 -316 92v-305h183v-123h-305v768q48 -136 168.5 -223 t269.5 -87q125 0 232 63t170 170t63 232q0 126 -63 233t-170 169.5t-232 62.5q-149 0 -269.5 -87t-168.5 -224v293h-334zM367 567q0 183 127 310t309 127t309 -127t127 -310q0 -181 -127.5 -308.5t-308.5 -127.5t-308.5 127.5t-127.5 308.5zM492 567q0 -129 91 -220t220 -91 q130 0 221.5 91t91.5 220q0 131 -91.5 222.5t-221.5 91.5q-129 0 -220 -92t-91 -222z" />
<glyph unicode="q" horiz-adv-x="1492" d="M43 567q0 160 79 296t214.5 215t294.5 79q167 0 315 -92v72h457v-123h-334v-293q-50 137 -170.5 224t-267.5 87q-125 0 -232 -62.5t-170 -169.5t-63 -233q0 -125 63 -232t170 -170t232 -63q147 0 267.5 87t170.5 223v-768h-305v123h182v305q-143 -92 -315 -92 q-159 0 -294.5 78.5t-214.5 214t-79 294.5zM195 567q0 183 127 310t309 127t309 -127t127 -310q0 -181 -127.5 -308.5t-308.5 -127.5t-308.5 127.5t-127.5 308.5zM319 567q0 -129 91.5 -220t220.5 -91q130 0 221.5 91t91.5 220q0 131 -91.5 222.5t-221.5 91.5 q-129 0 -220.5 -92t-91.5 -222zM764 -385h639v-123h-639v123zM1098 -356v1341h305v-125h-180v-1093h180v-123h-305z" />
<glyph unicode="r" horiz-adv-x="1128" d="M66 0v123h639v-123h-639zM66 152v124h182v584h-182v125h305v-833h-305zM66 1014v123h458v-78q140 99 300 99q129 0 270 -64v-408h-125v324q-64 21 -125 23h-16q-52 1 -94 -11q-50 -14 -96.5 -40t-81.5 -57t-66.5 -68.5t-52.5 -70.5t-38 -67v295h-333zM399 152v491 q7 24 22 55.5t41 73t59 78t77 72.5t96 56t114 26q15 2 29 1q49 0 103 -16v-303h-123v195q-56 -4 -107.5 -33t-87.5 -70.5t-59.5 -79.5t-38.5 -73v-349h181v-124h-306z" />
<glyph unicode="s" horiz-adv-x="1171" d="M-76 0v123h215l103 174q242 -195 438 -195q140 0 221.5 85.5t81.5 209.5q0 67 -28 133t-74.5 122t-92.5 101.5t-96 92.5t-71 74q-60 73 -60 154q0 6 1 14q6 88 87 167l86 -90q-45 -43 -49 -83v-8q0 -36 33 -77q16 -20 67 -67.5t101.5 -99t102 -118t84 -149t32.5 -166.5 q0 -107 -50 -201t-149 -155t-227 -61q-181 0 -401 139l-70 -119h-285zM-76 152v124h129l383 656q-30 67 -30 138q0 40 10 82q27 116 127 212l86 -88q-81 -78 -93 -171q-2 -16 -3 -31q0 -76 47 -144l-457 -778h-199zM256 322l342 583q25 -32 93 -97.5t121 -120t97.5 -134.5 t44.5 -156q0 -110 -74.5 -188t-199.5 -78q-183 0 -424 191zM418 356q149 -100 262 -100q71 0 111 39.5t40 101.5q0 37 -16.5 75.5t-52.5 81t-63.5 71t-77.5 75.5z" />
<glyph unicode="t" horiz-adv-x="978" d="M16 860v125h312v-561q1 -88 25.5 -153.5t64 -100.5t81.5 -51.5t87 -16.5q127 0 199 111q53 82 53 199q0 43 -7 90l121 18q9 -60 9 -114q0 -160 -80 -274q-107 -152 -295 -152q-49 0 -98.5 13t-101.5 46t-91.5 81.5t-65 127t-26.5 176.5v436h-187zM16 1014v123h187v303 l125 51v-477h-312zM356 424v561h500v-125h-377v-432q2 -172 107 -172q58 0 84 56q17 37 17 97q0 32 -5 70l121 19q7 -45 7 -85q0 -107 -47 -181q-64 -101 -177 -101q-42 0 -79 14.5t-72 45.5t-56.5 91t-22.5 142zM356 1014v489l123 51v-417h377v-123h-500z" />
<glyph unicode="u" horiz-adv-x="1400" d="M4 860v125h305v-504q0 -82 19.5 -148t51 -108t74 -70t87 -39.5t92.5 -11.5q108 0 215 57t190 156v-194h334v-123h-459v55q-140 -75 -280 -75q-63 0 -123.5 15.5t-120.5 53t-104.5 93.5t-72.5 143.5t-28 195.5v379h-180zM4 1014v123h457v-656q0 -225 172 -225 q70 0 142.5 39t137.5 111v454h-180v125h305v-627q-83 -104 -189.5 -164.5t-215.5 -60.5q-57 0 -107 17.5t-93.5 55.5t-69 108.5t-25.5 166.5v533h-334zM733 1014v123h457v-861h182v-124h-305v862h-334z" />
<glyph unicode="v" horiz-adv-x="1341" d="M-25 860v125h269l415 -954l-114 -49l-381 878h-189zM-25 1014v123h619v-123h-619zM274 985h320v-125h-129l205 -477l207 477h-129v125h317l-393 -913zM684 31l412 954h270v-125h-188l-381 -878zM748 1014v123h618v-123h-618z" />
<glyph unicode="w" horiz-adv-x="1880" d="M-20 860v125h266l329 -952l-116 -41l-301 868h-178zM-20 1014v123h618v-123h-618zM279 985h319v-125h-145l147 -428l211 516l115 -45l-336 -823zM602 31l338 831l336 -831l-117 -47l-219 542l-221 -542zM954 903l115 45l209 -516l147 428h-145v125h319l-313 -905z M1280 1014v123h618v-123h-618zM1303 31l327 954h268v-125h-180l-299 -868z" />
<glyph unicode="x" horiz-adv-x="1304" d="M41 0v123h557v-123h-557zM41 152v124h192l244 306l-223 278h-193v125h250l324 -403l-344 -430h-250zM61 1014v123h557v-123h-557zM326 152l325 407l326 -407h-268v124h12l-68 84l-69 -84h14v-124h-272zM346 985h272v-125h-14l47 -59l47 59h-10v125h268l-305 -383z M670 580l321 405h254v-125h-192l-224 -280l244 -304h193v-124h-254zM688 1014v123h557v-123h-557zM709 0v123h557v-123h-557z" />
<glyph unicode="y" horiz-adv-x="1404" d="M-178 -334l106 62q34 -60 79 -104t93 -67t92.5 -33.5t90.5 -10.5q127 0 226.5 89t186.5 292l471 1091h260v-125h-178l-440 -1016q-99 -229 -228 -341.5t-298 -112.5q-58 0 -115.5 13t-120 42.5t-121.5 86t-104 134.5zM-47 -258l108 61q77 -137 222 -137q76 0 140.5 65 t133.5 224l-393 905h-189v125h269l448 -1030l-20 -49q-80 -190 -175.5 -277.5t-213.5 -87.5q-211 0 -330 201zM-25 1014v123h619v-123h-619zM274 985h320v-125h-129l242 -559l241 559h-139v125h328l-430 -997zM809 1014v123h618v-123h-618z" />
<glyph unicode="z" horiz-adv-x="1202" d="M59 238l660 622h-338v-172h-123v297h772l-885 -838zM106 688v449h961v-123h-838v-326h-123zM156 0v123h858v326h123v-449h-981zM190 152l885 835l86 -88l-661 -623h360v173h125v-297h-795z" />
<glyph unicode="{" horiz-adv-x="663" d="M70 502v123h41q120 -4 188 -75.5t68 -162.5q0 -17 -2 -34.5t-8 -39.5t-10.5 -37.5t-15 -43t-15.5 -40.5t-19 -46t-18 -44q-66 -158 -66 -262q0 -125 86 -208t242 -83h63v-122h-63q-108 0 -195 33.5t-142 91t-84.5 131.5t-29.5 157q0 112 72 307q5 11 15 35t14.5 34.5 t12.5 30t11.5 29.5t9.5 25.5t8.5 25t5.5 21.5t4 21t1 18q0 44 -34 77.5t-97 37.5h-43zM70 653v123h43q62 3 96.5 37.5t34.5 79.5q0 9 -1 18t-4 21t-5.5 21.5t-8.5 25t-9.5 25.5t-11.5 29.5t-12.5 30t-14.5 34.5t-15 35q-72 195 -72 307q0 83 29.5 157t84.5 131.5t142 91 t195 33.5h63v-122h-63q-156 0 -242 -83t-86 -208q0 -102 63 -262l16.5 -38.5t17 -40.5t14.5 -36t15 -38.5t11 -33.5t9.5 -35.5t5 -30.5t2.5 -32q0 -94 -72 -167t-197 -73h-28zM197 639q93 28 145.5 101t52.5 153q0 25 -4 51.5t-17 64t-19 53.5t-27.5 68t-24.5 60 q-61 157 -61 250q0 116 77 189t222 73h63v-123h-63q-174 0 -174 -139q0 -79 53 -207q3 -7 21 -50.5t24 -58.5t20 -54t19 -62t10.5 -55t5.5 -60q0 -144 -98 -254q98 -110 98 -252q0 -28 -5.5 -60t-10.5 -55t-19 -62t-20 -54t-24 -58.5t-21 -50.5q-53 -128 -53 -207 q0 -139 174 -139h63v-123h-63q-145 0 -222 73t-77 189q0 93 61 250q6 15 21.5 52t22 54t18 48.5t16.5 51.5t9.5 45t4.5 46q0 79 -53 151.5t-145 100.5z" />
<glyph unicode="|" horiz-adv-x="604" d="M164 -539v2358h125v-2358h-125zM317 -539v2358h123v-2358h-123z" />
<glyph unicode="}" horiz-adv-x="663" d="M59 -299h64q174 0 174 139q0 79 -53 207q-4 11 -21 50.5t-24 57.5t-20 55t-19.5 61.5t-11.5 56t-5 59.5q0 143 99 254q-99 111 -99 252q0 28 5 59.5t11.5 56t19.5 61.5t20 55t24 57.5t21 50.5q53 128 53 207q0 139 -174 139h-64v123h64q145 0 222 -73t77 -189 q0 -90 -62 -250q-6 -15 -21.5 -52t-22 -54t-18 -48.5t-16.5 -51.5t-9.5 -45t-4.5 -46q0 -78 53.5 -151t145.5 -101q-93 -28 -146 -101t-53 -153q0 -25 4 -51.5t17 -64t19 -53.5t27.5 -68t24.5 -60q62 -160 62 -250q0 -116 -77 -189t-222 -73h-64v123zM59 -451h64 q156 0 242 83t86 208q0 99 -64 262q-66 155 -80 211q-10 41 -10 74q0 95 71.5 167.5t196.5 72.5h29v-123h-43q-62 -3 -96.5 -37.5t-34.5 -79.5q0 -9 1 -18t4 -21t5.5 -21.5t8.5 -25t9.5 -25.5t11.5 -29.5t12.5 -30t14.5 -34.5t15 -35q71 -192 71 -307q0 -83 -29 -157 t-84 -131.5t-142 -91t-195 -33.5h-64v122zM59 1731v122h64q108 0 195 -33.5t142 -91t84 -131.5t29 -157q0 -115 -71 -307q-5 -11 -15 -35t-14.5 -34.5t-12.5 -30t-11.5 -29.5t-9.5 -25.5t-8.5 -25t-5.5 -21.5t-4 -21t-1 -18q0 -44 34 -77.5t97 -37.5h43v-123h-41 q-120 4 -188 75.5t-68 162.5q0 17 2 34.5t8 39.5t10.5 37.5t15 43t15.5 40.5t19 46t18 44q66 158 66 262q0 125 -86 208t-242 83h-64z" />
<glyph unicode="~" horiz-adv-x="1191" d="M131 514q0 46 4.5 89.5t23.5 104t50.5 104t92 75t142.5 31.5q49 0 96 -16.5t71.5 -33t52.5 -40.5l28 -25q11 -9 22 -19.5t15.5 -14.5t10 -7.5t8.5 -4.5t8 -1q37 0 37 127h125q0 -252 -162 -252q-21 0 -38.5 4.5t-34 14.5t-26 17.5t-25.5 22t-22 19.5q-1 1 -26 23.5 t-38.5 31.5t-42.5 20t-59 11q-190 0 -190 -281h-123zM283 514q0 252 161 252q25 0 50 -10t36.5 -18t34.5 -28t25 -22q5 -4 22 -20t28.5 -24.5t30 -19.5t40 -16.5t45.5 -5.5q190 0 190 281h123q0 -46 -4.5 -89.5t-23.5 -104t-50.5 -104t-92 -75t-142.5 -31.5q-50 0 -96 16 t-69 31.5t-52.5 41t-30.5 26.5q-7 7 -16.5 15.5t-14 12.5t-10 8.5t-8.5 6t-7 3t-8 1.5q-20 0 -28 -30.5t-8 -96.5h-125z" />
<glyph unicode="&#xa1;" horiz-adv-x="638" d="M104 1425q0 89 63 152t152 63q88 0 152 -63t64 -152q0 -88 -64 -151.5t-152 -63.5q-89 0 -152 63.5t-63 151.5zM180 0v1100h125v-1100h-125zM223 1425q0 -38 28 -66t68 -28q38 0 66.5 28t28.5 66q0 40 -28.5 68.5t-66.5 28.5q-40 0 -68 -28.5t-28 -68.5zM252 1425 q0 29 19 48.5t48 19.5q28 0 47 -19.5t19 -48.5q0 -28 -19 -46.5t-47 -18.5q-29 0 -48 18.5t-19 46.5zM334 0v1100h123v-1100h-123z" />
<glyph unicode="&#xa2;" horiz-adv-x="1202" d="M84 625q0 190 113 338t292 198v189h125v-291q-172 -12 -289.5 -138t-117.5 -296q0 -171 116.5 -297.5t290.5 -139.5v-280h-125v180q-180 51 -292.5 199.5t-112.5 337.5zM236 625q0 162 108 278.5t270 126.5v-813q-164 13 -271 129.5t-107 278.5zM358 625 q0 -76 34.5 -139.5t96.5 -100.5v477q-61 -37 -96 -100t-35 -137zM643 -92v280h6q93 0 191.5 36.5t185.5 99.5l74 -99q-141 -108 -334 -149v-168h-123zM643 217v815h2q46 0 90 -8.5t88 -31t75 -56t46.5 -88.5t7.5 -125l-123 14q11 105 -63 146v-525q85 27 168 88l74 -100 q-176 -129 -359 -129h-6zM643 1061v289h123v-181q56 -12 106 -33t98 -59t80.5 -88t48 -123.5t5.5 -160.5l-123 14q9 76 -8.5 137t-52.5 98.5t-84 62.5t-96 34.5t-95 9.5h-2z" />
<glyph unicode="&#xa3;" horiz-adv-x="1363" d="M94 223q80 30 131.5 63.5t76.5 73t33.5 76.5t8.5 90v25h-188v123h297q14 -79 14 -148q0 -50 -6.5 -90.5t-27 -89.5t-55.5 -88.5t-96 -79t-145 -69.5zM147 80q85 30 134 63q138 17 381 -26q19 -3 72.5 -11.5t77 -12.5t60 -7.5t62.5 -3.5q177 0 242 154l114 -52 q-12 -25 -27 -49t-46 -58t-67.5 -58.5t-93.5 -42t-122 -17.5q-72 0 -295 35q-203 39 -320 29q-55 -29 -129 -58zM156 702v123h129q-66 180 -66 318q0 143 64.5 252.5t169 165t229.5 55.5q130 0 237.5 -53t177.5 -161.5t79 -256.5l-123 -8q-12 167 -117 261.5t-254 94.5 q-143 0 -241.5 -95.5t-98.5 -254.5q0 -50 10.5 -104t21 -88.5t32.5 -96.5q41 -145 43 -152h-293zM330 176q166 127 166 350q0 75 -13 148h478v-123h-340v-25q0 -132 -48 -241l115 -19q191 -30 246 -30q44 0 66 14.5t38 48.5l113 -51q-11 -27 -25 -47.5t-38.5 -42.5 t-63.5 -34.5t-90 -12.5q-53 0 -270 34q-228 37 -334 31zM371 1143q0 150 88.5 235.5t222.5 85.5q144 0 238 -85.5t104 -241.5l-125 -11q-6 106 -64 159.5t-153 53.5q-87 0 -136.5 -50t-49.5 -146q0 -38 8 -80t17 -70.5t30 -91.5q2 -9 22 -76h388v-123h-484q-9 52 -43 160 q-22 62 -32.5 95t-20.5 85.5t-10 100.5z" />
<glyph unicode="&#xa5;" horiz-adv-x="1771" d="M74 1321v125h282l387 -612h-352v122h129l-231 365h-215zM74 1475v122h645v-122h-645zM391 354v123h479v-325h-309v124h184v78h-354zM391 506v125h334l-31 49h-303v125h371l108 -170v-129h-479zM391 1446h328v-125h-101l267 -422l266 422h-100v125h325l-491 -778zM561 0 v123h645v-123h-645zM899 152v325h477v-123h-354v-78h184v-124h-307zM899 506v129l107 170h370v-125h-305l-31 -49h336v-125h-477zM1024 834l387 612h283v-125h-217l-232 -365h131v-122h-352zM1051 1475v122h643v-122h-643z" />
<glyph unicode="&#xa6;" horiz-adv-x="610" d="M166 782v1037h125v-1037h-125zM168 498h125v-1037h-125v1037zM319 782v1037h123v-1037h-123zM322 498h122v-1037h-122v1037z" />
<glyph unicode="&#xa7;" horiz-adv-x="1095" d="M88 801q0 148 123 250q-88 91 -88 221q0 154 117 255t299 101q90 0 170.5 -28t141.5 -80t90.5 -136t16.5 -188l-120 16q17 138 -70.5 215.5t-228.5 77.5q-135 0 -214 -65t-79 -168q0 -91 60 -146.5t171 -99.5q-129 -16 -196.5 -79.5t-67.5 -145.5q0 -48 23 -89.5 t48 -66.5t79 -52t79 -36t84 -29q11 -4 17 -6q54 -18 89 -32.5t74.5 -36t62 -44t37.5 -54.5t15 -70q0 -91 -70.5 -148t-193.5 -57q-132 0 -208 66.5t-62 191.5l123 -16q-7 -61 27.5 -89t119.5 -28q69 0 104 23t35 57q0 30 -43 57t-149 64q-142 47 -208 84q-208 114 -208 311z M137 358l121 -16q-18 -136 70.5 -213.5t228.5 -77.5q135 0 214 65.5t79 168.5q0 89 -60.5 143.5t-171.5 97.5q128 18 196.5 83t68.5 147q0 34 -11.5 65t-27 53.5t-45.5 44.5t-51.5 35t-61 29t-59 23t-58.5 20q-6 2 -10 3.5t-8 2.5q-54 19 -88.5 33.5t-74 36.5t-62 45 t-37.5 55t-15 70q0 91 70.5 148t194.5 57q134 0 209 -66.5t61 -193.5l-123 16q8 62 -26.5 90.5t-120.5 28.5q-69 0 -104.5 -23t-35.5 -57q0 -31 42 -57t151 -66q132 -45 184 -71q232 -116 232 -322q0 -148 -125 -252q90 -93 90 -219q0 -155 -117 -256t-299 -101 q-71 0 -137 17t-122.5 52.5t-96 85.5t-57.5 121t-7 154zM242 801q0 80 76.5 139.5t224.5 63.5q135 -45 182 -70q129 -68 129 -178q0 -81 -77.5 -141.5t-225.5 -63.5q-132 45 -178 69q-131 69 -131 181zM365 801q0 -36 48.5 -63t151.5 -62q84 4 125 28t41 52q0 34 -51.5 61 t-155.5 62q-81 -4 -120 -27t-39 -51z" />
<glyph unicode="&#xa8;" horiz-adv-x="524" d="M-508 1485q0 88 63 151.5t152 63.5q88 0 150.5 -63.5t62.5 -151.5q0 -89 -62.5 -152t-150.5 -63q-89 0 -152 63t-63 152zM-389 1485q0 -40 28 -68t68 -28q38 0 66 28t28 68q0 38 -28 66t-66 28q-40 0 -68 -28t-28 -66zM-360 1485q0 28 19 46.5t48 18.5q28 0 47 -18.5 t19 -46.5q0 -29 -19 -48.5t-47 -19.5q-29 0 -48 19.5t-19 48.5zM-43 1485q0 88 63.5 151.5t151.5 63.5q89 0 152 -63.5t63 -151.5q0 -89 -63 -152t-152 -63q-88 0 -151.5 63t-63.5 152zM78 1485q0 -40 28 -68t66 -28q40 0 68 28t28 68q0 38 -28 66t-68 28q-38 0 -66 -28 t-28 -66zM106 1485q0 28 19 46.5t47 18.5q29 0 48.5 -18.5t19.5 -46.5q0 -29 -19.5 -48.5t-48.5 -19.5q-28 0 -47 19.5t-19 48.5z" />
<glyph unicode="&#xa9;" horiz-adv-x="1826" d="M80 801q0 113 30 221t84 199t131 168t168 131t199 84t221 30q169 0 323.5 -66t266 -177.5t178 -266t66.5 -323.5t-66.5 -323.5t-178 -266t-266 -178t-323.5 -66.5t-323.5 66.5t-266 178t-177.5 266t-66 323.5zM205 801q0 -143 56.5 -274.5t151.5 -226.5t226 -151.5 t274 -56.5q191 0 354.5 95.5t259 259t95.5 354.5q0 144 -56.5 275.5t-151.5 226.5t-226.5 151.5t-274.5 56.5t-274 -56.5t-226 -151.5t-151.5 -226.5t-56.5 -275.5zM233 801q0 140 53.5 266t144.5 217.5t217 145t265 53.5t265 -53.5t217 -145t144.5 -217.5t53.5 -266 q0 -139 -53.5 -265t-144.5 -217t-217 -144.5t-265 -53.5t-265 53.5t-217 144.5t-144.5 217t-53.5 265zM356 801q0 -113 44 -216t118.5 -178t177.5 -119t217 -44t217 44t177.5 119t118.5 178t44 216q0 152 -74.5 280t-202.5 202.5t-280 74.5t-280 -74.5t-202.5 -202.5 t-74.5 -280zM479 799q0 180 126.5 307t303.5 127q48 0 109 -14h104v-211q-34 45 -91.5 72.5t-121.5 27.5q-125 0 -216 -91t-91 -218q0 -124 91.5 -213.5t221.5 -89.5q131 0 265 92l71 -101q-73 -52 -163.5 -84t-172.5 -32q-182 0 -309 126t-127 302zM631 799q0 118 81 199 t197 81q80 0 139 -38t74 -103v-154h-123v134q-25 38 -90 38q-66 0 -109.5 -45.5t-43.5 -111.5q0 -64 45 -108t114 -44q79 0 177 66l71 -101q-122 -88 -248 -88q-121 0 -202.5 80t-81.5 195zM1151 784v435h123v-435h-123z" />
<glyph unicode="&#xaa;" horiz-adv-x="1069" d="M59 1227q0 158 111.5 270.5t269.5 112.5q99 0 181 -45v32h315v-88h-227v-161q-36 78 -108.5 126t-160.5 48q-121 0 -207 -86.5t-86 -208.5q0 -121 85.5 -207t207.5 -86q88 0 160.5 47t108.5 123v-156h227v-88h-315v29q-79 -43 -181 -43q-158 0 -269.5 111.5t-111.5 269.5 zM176 1227q0 113 76 189.5t188 76.5q113 0 190 -77t77 -189t-77 -188t-190 -76q-112 0 -188 75.5t-76 188.5zM264 1227q0 -73 51 -124.5t125 -51.5q73 0 125.5 52t52.5 124q0 73 -52 125.5t-126 52.5q-72 0 -124 -52.5t-52 -125.5zM737 977v504h199v-88h-111v-328h111v-88 h-199z" />
<glyph unicode="&#xab;" horiz-adv-x="1323" d="M74 571l90 84l383 -403l-90 -84zM74 760l383 403l90 -84l-383 -403zM195 666l372 393l92 -84l-294 -309l294 -310l-92 -84zM657 571l91 84l382 -403l-90 -84zM657 760l383 403l90 -84l-382 -403zM778 666l373 393l92 -84l-295 -309l295 -310l-92 -84z" />
<glyph unicode="&#xad;" horiz-adv-x="802" d="M104 528v123h592v-123h-592zM104 680v123h592v-123h-592z" />
<glyph unicode="&#xae;" horiz-adv-x="1339" d="M121 1096q0 112 43 214t116.5 175.5t175.5 116.5t214 43t214 -43t176 -116.5t117.5 -175.5t43.5 -214t-43.5 -214t-117.5 -175.5t-176 -116.5t-214 -43t-214 43t-175.5 116.5t-116.5 175.5t-43 214zM195 1096q0 -128 64 -237.5t173.5 -173.5t237.5 -64t237.5 64 t173.5 173.5t64 237.5t-64 237.5t-173.5 173.5t-237.5 64t-237.5 -64t-173.5 -173.5t-64 -237.5zM223 1096q0 186 130.5 316t316.5 130t316 -130t130 -316t-130 -316.5t-316 -130.5t-316.5 130.5t-130.5 316.5zM299 1096q0 -154 108.5 -263.5t262.5 -109.5q138 0 245 92 h-204v74h235v-43q96 107 96 250q0 154 -108.5 263t-263.5 109q-120 0 -215 -69h286q95 0 156 -59t61 -144q0 -57 -28.5 -104.5t-79.5 -73.5l16 -27h80v-73h-127l-86 149h8q62 0 103 38.5t41 90.5t-41 90.5t-103 38.5h-313v53q-129 -113 -129 -282zM428 1223v73h117v-378 h-115v73h39v232h-41zM430 815v74h236v-74h-236zM573 918v149h129l86 -149h-88l-34 61v-61h-93zM573 1096v200h168q52 0 83.5 -28.5t31.5 -71.5t-31.5 -71.5t-83.5 -28.5h-168zM647 1169h94q39 0 39 27t-39 27h-94v-54z" />
<glyph unicode="&#xaf;" horiz-adv-x="811" d="M-180 1280v123h659v-123h-659zM-180 1432v124h659v-124h-659z" />
<glyph unicode="&#xb0;" horiz-adv-x="878" d="M59 1255q0 157 111.5 270t267.5 113q157 0 270 -113t113 -270t-112.5 -269t-270.5 -112q-157 0 -268 112t-111 269zM182 1255q0 -104 76 -180t180 -76q106 0 182 76t76 180q0 105 -76.5 181.5t-181.5 76.5q-104 0 -180 -77t-76 -181zM211 1255q0 96 66 163t161 67 q96 0 163 -67t67 -163q0 -95 -66.5 -161t-163.5 -66q-95 0 -161 66t-66 161zM334 1255q0 -45 29.5 -74.5t74.5 -29.5q46 0 76.5 30t30.5 74q0 46 -30.5 76.5t-76.5 30.5q-43 0 -73.5 -31t-30.5 -76z" />
<glyph unicode="&#xb1;" horiz-adv-x="1171" d="M123 51v123h926v-123h-926zM123 203v123h926v-123h-926zM123 709v122h446v-446h-123v324h-323zM123 860v123h323v322h123v-445h-446zM598 385v446h451v-122h-326v-324h-125zM598 860v445h125v-322h326v-123h-451z" />
<glyph unicode="&#xb2;" horiz-adv-x="874" d="M27 629q0 71 14 132.5t42.5 110.5t58 86.5t73 72t74.5 55.5t76 47q42 25 60 36t48.5 31t43.5 33t29 31.5t21.5 37t5.5 39.5q0 54 -36.5 83.5t-102.5 29.5q-83 0 -131 -43t-35 -125l-86 -14q-11 67 6.5 120.5t56 85t87 48t102.5 16.5q100 0 164 -53.5t64 -147.5 q0 -29 -8 -56t-17 -46.5t-32 -43t-36 -35.5t-47.5 -34.5t-47.5 -30.5t-54 -31q-8 -5 -12 -7q-52 -30 -85.5 -52.5t-77 -62t-69 -80.5t-43.5 -101.5t-18 -131.5h-88zM68 1253q-14 80 2 149t53 115t89 79t108.5 48t113.5 15q91 0 168 -36.5t126.5 -110t49.5 -171.5 q0 -34 -7 -65.5t-15.5 -56.5t-28 -52t-32.5 -44.5t-41 -41t-41.5 -34.5t-46.5 -32t-43.5 -27t-43.5 -25q-8 -5 -12 -7q-72 -43 -114.5 -75.5t-71.5 -73.5h10q26 0 52.5 -4t60 -11.5t42.5 -9.5q77 -18 103 -18q91 0 31 127l82 37q48 -117 13.5 -184.5t-126.5 -67.5 q-37 0 -123 20q-99 23 -135 23q-84 0 -148 -53q4 59 23 109.5t42.5 84.5t64 68.5t70 54t79.5 49.5q121 70 164 106q104 88 104 203q0 105 -74.5 167.5t-181.5 62.5q-57 0 -111 -19t-97 -54.5t-64 -95.5t-8 -134zM141 621q50 69 150 69q32 0 127 -22q90 -21 131 -21 q107 0 150 81.5t-13 211.5l80 37q52 -121 38 -214t-83.5 -148.5t-171.5 -55.5q-53 0 -152 23q-86 20 -106 20q-53 0 -80 -35z" />
<glyph unicode="&#xb3;" horiz-adv-x="827" d="M12 614l47 74q168 -110 326 -110q128 0 213.5 75t85.5 193q0 99 -74 171t-213 99q129 27 189.5 94.5t60.5 145.5q0 98 -71 156.5t-173 58.5q-108 0 -185 -66t-89 -178l-88 8q17 150 119 237t243 87q136 0 234 -82t98 -221q0 -142 -112 -234q149 -100 149 -276 q0 -158 -112 -257.5t-275 -99.5q-80 0 -178.5 31t-194.5 94zM76 713l47 73q139 -92 262 -92q83 0 132.5 42t49.5 110q0 75 -79 121.5t-246 46.5v88q201 0 307 -71t106 -185q0 -109 -75 -174.5t-195 -65.5q-147 0 -309 107zM158 1323q12 104 78.5 161.5t166.5 57.5 q95 0 155 -49.5t60 -136.5q0 -41 -19 -79t-60.5 -72t-117.5 -54.5t-179 -20.5v89h16q145 3 208.5 43.5t63.5 93.5q0 47 -33 72.5t-94 25.5q-67 0 -108.5 -36t-48.5 -105z" />
<glyph unicode="&#xb4;" horiz-adv-x="403" d="M-383 1483l489 325l68 -104l-489 -324zM-299 1356l489 323l68 -102l-489 -324z" />
<glyph unicode="&#xb5;" horiz-adv-x="1529" d="M76 860v125h305v-1520h-125v1395h-180zM76 1014v123h456v-656q0 -225 173 -225q70 0 142.5 39t137.5 111v454h-180v125h305v-627q-83 -104 -189.5 -164.5t-215.5 -60.5q-57 0 -107 17.5t-93.5 55.5t-69 108.5t-25.5 166.5v533h-334zM410 303q39 -103 119 -151t176 -48 q108 0 215 57t190 156v-194h334v-123h-459v55q-140 -75 -280 -75q-94 0 -173 32v-547h-122v838zM805 1014v123h457v-861h182v-124h-305v862h-334z" />
<glyph unicode="&#xb6;" horiz-adv-x="1550" d="M84 1057q0 109 42.5 209t114.5 172.5t171.5 115.5t208.5 43h815v-122h-815q-170 0 -292 -123t-122 -295q0 -171 121.5 -292.5t292.5 -121.5h120v-491h-307v124h184v242q-146 0 -269 72.5t-194 196.5t-71 270zM236 1057q0 163 112 276t273 113h120v-774h-120 q-162 0 -273.5 111.5t-111.5 273.5zM358 1057q0 -110 75.5 -186t184.5 -76v526q-109 -2 -184.5 -78t-75.5 -186zM434 0v123h1002v-123h-1002zM770 152v1294h330v-1294h-330zM893 276h84v1045h-84v-1045zM1128 152v1294h308v-125h-185v-1045h185v-124h-308z" />
<glyph unicode="&#xb7;" horiz-adv-x="610" d="M90 752q0 89 63 152t152 63q88 0 151.5 -63t63.5 -152q0 -88 -63.5 -151.5t-151.5 -63.5q-89 0 -152 63.5t-63 151.5zM209 752q0 -38 28.5 -66.5t67.5 -28.5q38 0 66 28.5t28 66.5q0 40 -28 68t-66 28q-40 0 -68 -28t-28 -68zM238 752q0 29 19 48t48 19q28 0 47 -19 t19 -48q0 -28 -19 -47t-47 -19q-29 0 -48 19t-19 47z" />
<glyph unicode="&#xb8;" horiz-adv-x="591" d="M229 -549l54 111q17 -8 46 -20t111.5 -32t155.5 -20q129 0 200.5 59.5t71.5 149.5q0 39 -15.5 75.5t-47.5 69t-91.5 50.5t-138.5 14v217h125v-102q76 -13 135 -47t92 -81t49.5 -96.5t16.5 -99.5q0 -139 -110 -235.5t-287 -96.5q-84 0 -176 21t-142 42zM295 -414l53 113 q14 -6 37.5 -15.5t89 -25.5t121.5 -16q61 0 91 17t30 40q0 32 -31 46t-113 7l-10 125q147 12 212 -42t65 -136q0 -77 -64.5 -128.5t-179.5 -51.5q-69 0 -144.5 16.5t-115.5 33.5zM424 -109v234h123v-234h-123z" />
<glyph unicode="&#xb9;" horiz-adv-x="595" d="M43 1583l231 78l29 -82l-231 -78zM80 1473l213 71v-835h-203v88h115v626l-96 -32zM90 592v88h434v-88h-434zM322 709v856h88v-768h114v-88h-202z" />
<glyph unicode="&#xba;" horiz-adv-x="903" d="M59 1227q0 158 111.5 270.5t269.5 112.5t270.5 -112.5t112.5 -270.5t-112.5 -269.5t-270.5 -111.5t-269.5 111.5t-111.5 269.5zM147 1227q0 -121 85.5 -207t207.5 -86t208.5 86t86.5 207t-86.5 208t-208.5 87q-121 0 -207 -86.5t-86 -208.5zM176 1227q0 113 76 189.5 t188 76.5q113 0 190 -77t77 -189t-77 -188t-190 -76q-112 0 -188 75.5t-76 188.5zM264 1227q0 -73 51 -124.5t125 -51.5q73 0 125.5 52t52.5 124q0 73 -52 125.5t-126 52.5q-72 0 -124 -52.5t-52 -125.5z" />
<glyph unicode="&#xbb;" horiz-adv-x="1325" d="M82 354l295 310l-295 309l92 84l373 -393l-373 -394zM195 250l383 403l90 -84l-383 -403zM195 1077l90 84l383 -403l-90 -84zM666 354l295 310l-295 309l92 84l372 -393l-372 -394zM778 250l383 403l90 -84l-383 -403zM778 1077l90 84l383 -403l-90 -84z" />
<glyph unicode="&#xbc;" horiz-adv-x="2111" d="M96 1583l232 78l28 -82l-231 -78zM133 1473l213 71v-835h-203v88h115v626l-96 -32zM143 592v88h435v-88h-435zM322 0l993 1597h104l-993 -1597h-104zM375 709v856h88v-768h115v-88h-203zM461 0l993 1597h102l-993 -1597h-102zM1051 406l528 774l72 -50l-529 -774z M1143 336q76 63 188 63q67 0 180 -19t142 -22v-241h-203v88h115v76q-24 3 -75.5 12t-88 13.5t-70.5 4.5q-76 0 -133 -43zM1186 395l489 719l72 -49l-375 -551q55 -2 193 -25v226h88v-328q-20 2 -136.5 21.5t-185.5 19.5q-83 0 -145 -33zM1450 0v88h434v-88h-434zM1681 117 v237q20 -2 64 -2q125 0 188 80l70 -55q-86 -107 -234 -113v-59h115v-88h-203zM1681 383v332h88v-246q45 2 74 35l68 -55q-29 -37 -67.5 -52.5t-98.5 -15.5q-44 0 -64 2z" />
<glyph unicode="&#xbd;" horiz-adv-x="2162" d="M80 1583l231 78l29 -82l-231 -78zM117 1473l213 71v-835h-203v88h115v626l-97 -32zM127 592v88h434v-88h-434zM315 0l994 1597h104l-993 -1597h-105zM358 709v856h88v-768h115v-88h-203zM455 0l993 1597h102l-993 -1597h-102zM1241 37q0 71 14 132.5t42.5 110.5t58 86.5 t73 72t74.5 55.5t76 47q49 29 71 42.5t55 37.5t47 40.5t25 40t11 48.5q0 54 -36.5 83t-102.5 29q-83 0 -131 -43t-35 -125l-86 -14q-11 67 6.5 120.5t56 85t87 48t102.5 16.5q100 0 163.5 -53t63.5 -147q0 -23 -5.5 -45t-11 -39.5t-21.5 -37t-25 -31.5t-33 -30.5t-34 -26.5 t-40.5 -26.5t-40 -23.5t-43.5 -25q-52 -30 -85.5 -52.5t-77 -62t-69 -80.5t-43.5 -101.5t-18 -131.5h-88zM1282 662q-14 80 2.5 148.5t53.5 115t89 79t108.5 47.5t113.5 15q91 0 168 -36t126.5 -109.5t49.5 -171.5q0 -59 -20 -111.5t-49 -89.5t-72 -72t-78.5 -57.5 t-79.5 -47.5q-3 -1 -4.5 -2t-4 -2.5t-4.5 -2.5q-70 -42 -113.5 -75t-72.5 -75h10q26 0 52.5 -4t60.5 -11.5t43 -9.5q77 -18 102 -18q91 0 31 127l82 37q48 -117 13.5 -184.5t-126.5 -67.5q-37 0 -123 20q-99 23 -135 23q-83 0 -147 -53q4 59 23 109t42 84.5t63.5 69 t70.5 54.5t79 49q121 71 165 107q104 88 104 203q0 105 -74.5 167t-181.5 62q-57 0 -111 -19t-97.5 -54.5t-64.5 -95.5t-8 -134zM1356 29q50 69 149 69q32 0 127 -22q90 -21 131 -21q107 0 150.5 81.5t-12.5 211.5l79 37q52 -121 38 -214t-83.5 -148.5t-171.5 -55.5 q-52 0 -151 23q-86 20 -107 20q-53 0 -80 -35z" />
<glyph unicode="&#xbe;" horiz-adv-x="2377" d="M102 614l48 74q168 -110 325 -110q128 0 213.5 75t85.5 193q0 99 -74 171t-213 99q129 27 189.5 94.5t60.5 145.5q0 98 -70.5 156.5t-172.5 58.5q-108 0 -185.5 -66t-89.5 -178l-88 8q17 150 119.5 237t243.5 87q136 0 233.5 -82t97.5 -221q0 -142 -112 -234 q149 -100 149 -276q0 -158 -112 -257.5t-275 -99.5q-80 0 -178.5 31t-194.5 94zM166 713l47 73q139 -92 262 -92q83 0 132.5 42t49.5 110q0 75 -79 121.5t-246 46.5v88q201 0 307 -71t106 -185q0 -109 -75 -174.5t-195 -65.5q-147 0 -309 107zM248 1323q12 104 79 161.5 t167 57.5q95 0 155 -49.5t60 -136.5q0 -41 -19.5 -79t-60.5 -72t-117.5 -54.5t-179.5 -20.5v89h16q145 3 209 43.5t64 93.5q0 47 -33 72.5t-94 25.5q-67 0 -109 -36t-49 -105zM588 0l993 1597h105l-994 -1597h-104zM727 0l993 1597h103l-994 -1597h-102zM1317 406l528 774 l72 -50l-528 -774zM1409 336q76 63 188 63q67 0 180 -19t142 -22v-241h-203v88h115v76q-24 3 -75.5 12t-88 13.5t-70.5 4.5q-76 0 -133 -43zM1452 395l490 719l71 -49l-375 -551q55 -2 193 -25v226h88v-328q-20 2 -136.5 21.5t-185.5 19.5q-83 0 -145 -33zM1716 0v88h434 v-88h-434zM1948 117v237q20 -2 63 -2q126 0 189 80l69 -55q-86 -107 -233 -113v-59h114v-88h-202zM1948 383v332h88v-246q44 2 73 35l68 -55q-29 -37 -67.5 -52.5t-98.5 -15.5q-43 0 -63 2z" />
<glyph unicode="&#xbf;" horiz-adv-x="1101" d="M76 391q0 73 22.5 139t52 110.5t78 90t79.5 68t79 53.5q111 70 139 99.5t19 70.5l-13 49l119 31l13 -49q8 -30 7.5 -57t-6 -49t-21.5 -44.5t-31.5 -39t-45 -38.5t-52.5 -37t-62 -40q-44 -28 -71.5 -48t-66.5 -55t-61 -69t-38.5 -82.5t-16.5 -102.5q0 -137 95.5 -222 t235.5 -85q72 0 139.5 23.5t120.5 67t81.5 112.5t19.5 151l125 17q13 -118 -26.5 -215t-113 -156.5t-163.5 -92t-183 -32.5q-124 0 -226.5 51.5t-165 151.5t-62.5 229zM227 391q0 50 15.5 94t35.5 75t57 64t63.5 52t70.5 47q34 21 55.5 35.5t49 34.5t44 36t35 37t27.5 41.5 t15.5 44.5t5.5 51.5t-9 57.5l-12 49l119 31l12 -51q11 -45 12.5 -86.5t-8.5 -77.5t-23.5 -67t-38 -60t-47 -52t-55.5 -47.5t-57 -40.5t-59 -38q-95 -63 -139 -112t-44 -118q0 -73 47 -114t131 -41q99 0 159 50t50 136l123 14q10 -76 -15 -139t-73.5 -102t-111.5 -60.5 t-132 -21.5q-132 0 -217.5 75t-85.5 203zM420 1415q0 89 63 152t152 63q88 0 151.5 -63t63.5 -152q0 -88 -63.5 -151.5t-151.5 -63.5q-89 0 -152 63.5t-63 151.5zM539 1415q0 -38 28 -66t68 -28q38 0 66 28t28 66q0 40 -28 68t-66 28q-40 0 -68 -28t-28 -68zM567 1415 q0 29 19.5 48.5t48.5 19.5q28 0 46.5 -19.5t18.5 -48.5q0 -28 -18.5 -46.5t-46.5 -18.5q-29 0 -48.5 18.5t-19.5 46.5z" />
<glyph unicode="&#xc0;" d="M-33 0v123h643v-123h-643zM-33 152v124h203l565 1338l113 -49l-600 -1413h-281zM279 152l180 426h803l180 -426h-332v124h145l-73 177h-641l-76 -177h145v-124h-331zM471 606l389 920l389 -920h-778zM541 1999l67 102l490 -323l-68 -103zM625 2126l67 104l490 -325 l-68 -103zM657 729h408l-205 481zM872 1565l115 49l565 -1338h201v-124h-283zM1110 0v123h643v-123h-643z" />
<glyph unicode="&#xc1;" d="M-33 0v123h643v-123h-643zM-33 152v124h203l565 1338l113 -49l-600 -1413h-281zM279 152l180 426h803l180 -426h-332v124h145l-73 177h-641l-76 -177h145v-124h-331zM471 606l389 920l389 -920h-778zM541 1905l489 325l68 -104l-490 -324zM625 1778l489 323l68 -102 l-490 -324zM657 729h408l-205 481zM872 1565l115 49l565 -1338h201v-124h-283zM1110 0v123h643v-123h-643z" />
<glyph unicode="&#xc2;" d="M-33 0v123h643v-123h-643zM-33 152v124h203l565 1338l113 -49l-600 -1413h-281zM279 152l180 426h803l180 -426h-332v124h145l-73 177h-641l-76 -177h145v-124h-331zM465 1921l397 285l395 -285l-71 -100l-324 233l-323 -233zM471 606l389 920l389 -920h-778zM555 1796 l307 221l307 -221l-71 -100l-236 170l-235 -170zM657 729h408l-205 481zM872 1565l115 49l565 -1338h201v-124h-283zM1110 0v123h643v-123h-643z" />
<glyph unicode="&#xc3;" d="M-33 0v123h643v-123h-643zM-33 152v124h203l565 1338l113 -49l-600 -1413h-281zM279 152l180 426h803l180 -426h-332v124h145l-73 177h-641l-76 -177h145v-124h-331zM391 1731q0 31 2 61t10 71.5t21 77t37 72.5t56 62.5t80.5 42t107.5 16.5q49 0 96 -16.5t71 -33 t51.5 -41t28.5 -24.5q11 -9 22 -19.5t15.5 -14.5t10 -7.5t8.5 -4.5t8 -1q37 0 37 127h125q0 -252 -162 -252q-21 0 -38.5 4.5t-34 14.5t-26 17.5t-25.5 22t-22 19.5q-2 2 -26 23.5t-37.5 31t-42.5 20.5t-59 11q-49 0 -85 -19.5t-56 -48.5t-31.5 -69.5t-15 -73t-3.5 -69.5 h-123zM471 606l389 920l389 -920h-778zM543 1731q0 251 162 251q25 0 49.5 -9.5t36 -17.5t34.5 -28t25 -22q5 -4 22 -20t28.5 -24.5t30 -19.5t40 -16.5t45.5 -5.5q190 0 190 280h123q0 -31 -2 -61t-10 -71.5t-21 -77t-36.5 -72.5t-55.5 -62.5t-80.5 -42t-107.5 -16.5 q-50 0 -96 16t-68.5 31t-52.5 41t-31 26q-9 8 -19.5 18t-15 14.5t-10 8.5t-9.5 5.5t-9 1.5q-37 0 -37 -127h-125zM657 729h408l-205 481zM872 1565l115 49l565 -1338h201v-124h-283zM1110 0v123h643v-123h-643z" />
<glyph unicode="&#xc4;" d="M-33 0v123h643v-123h-643zM-33 152v124h203l565 1338l113 -49l-600 -1413h-281zM279 152l180 426h803l180 -426h-332v124h145l-73 177h-641l-76 -177h145v-124h-331zM416 1907q0 88 63 151.5t152 63.5q88 0 150.5 -63.5t62.5 -151.5q0 -89 -62.5 -152t-150.5 -63 q-89 0 -152 63t-63 152zM471 606l389 920l389 -920h-778zM535 1907q0 -40 28 -68.5t68 -28.5q38 0 66 28.5t28 68.5q0 38 -28 66t-66 28q-40 0 -68 -28t-28 -66zM563 1907q0 28 19.5 46.5t48.5 18.5q28 0 46.5 -18.5t18.5 -46.5q0 -29 -18.5 -48.5t-46.5 -19.5 q-29 0 -48.5 19.5t-19.5 48.5zM657 729h408l-205 481zM872 1565l115 49l565 -1338h201v-124h-283zM881 1907q0 88 63.5 151.5t151.5 63.5q89 0 152 -63.5t63 -151.5q0 -89 -63 -152t-152 -63q-88 0 -151.5 63t-63.5 152zM1001 1907q0 -40 28.5 -68.5t66.5 -28.5 q40 0 68 28.5t28 68.5q0 38 -28 66t-68 28q-38 0 -66.5 -28t-28.5 -66zM1030 1907q0 28 19 46.5t47 18.5q29 0 48 -18.5t19 -46.5q0 -29 -19 -48.5t-48 -19.5q-28 0 -47 19.5t-19 48.5zM1110 0v123h643v-123h-643z" />
<glyph unicode="&#xc5;" d="M-33 0v123h643v-123h-643zM-33 152v124h203l514 1219q-55 40 -86 102.5t-31 133.5q0 121 86.5 206.5t206.5 85.5q121 0 208 -86t87 -206q0 -71 -32 -133.5t-87 -102.5l516 -1219h201v-124h-283l-596 1407q68 6 113 54.5t45 117.5q0 71 -50 120.5t-122 49.5 q-70 0 -120 -49.5t-50 -120.5q0 -68 44.5 -117t109.5 -55l-596 -1407h-281zM279 152l180 426h803l180 -426h-332v124h145l-73 177h-641l-76 -177h145v-124h-331zM471 606l389 920l389 -920h-778zM657 729h408l-205 481zM719 1731q0 57 42 99t99 42q58 0 101 -42t43 -99 q0 -59 -43 -101.5t-101 -42.5q-57 0 -99 43t-42 101zM823 1729q0 -15 11 -26t26 -11t26 11t11 26t-11 25.5t-26 10.5t-26 -10.5t-11 -25.5zM1110 0v123h643v-123h-643z" />
<glyph unicode="&#xc6;" horiz-adv-x="2332" d="M-35 0v123h637v-123h-637zM-35 152v124h217l740 1045h-58v125h297l-915 -1294h-281zM283 152l297 421h667v-421h-307v124h184v175h-479l-123 -175h80v-124h-319zM600 602l598 844h49v-844h-647zM840 727h284v399zM864 1475v122h1368v-491h-123v369h-1245zM940 0v123h1206 v369h123v-492h-1329zM1276 152v647h637v-125h-512v-398h592v216h125v-340h-842zM1276 827v619h805v-340h-123v215h-557v-371h512v-123h-637z" />
<glyph unicode="&#xc7;" horiz-adv-x="1636" d="M49 799q0 168 66 321.5t177 264.5t265 177t322 66q213 0 397 -102v71h123v-372q-60 126 -207.5 203t-312.5 77q-190 0 -353 -95t-258.5 -258t-95.5 -353q0 -136 51.5 -261.5t139 -219.5t208 -154t254.5 -70v-231h-123v127q-282 61 -467.5 287.5t-185.5 521.5zM201 799 q0 138 53.5 263.5t144.5 216.5t216.5 144.5t263.5 53.5q124 0 237 -42.5t191 -124.5t92 -186v-211h-123v195q-12 100 -130.5 172t-266.5 72q-112 0 -214.5 -44t-176.5 -118t-118 -176.5t-44 -214.5t44 -214.5t118 -176.5t176.5 -118t214.5 -44q281 0 487 182l82 -92 q-119 -105 -265 -160t-304 -55q-138 0 -263.5 53.5t-216.5 144.5t-144.5 216.5t-53.5 263.5zM508 -578l53 111q17 -8 46 -20t111.5 -32t155.5 -20q129 0 201 59.5t72 149.5q0 39 -15.5 75.5t-47.5 69t-91.5 50.5t-138.5 14v213h25q160 0 312 57t275 164l84 -92 q-105 -92 -240.5 -153.5t-277.5 -85.5q120 -36 180 -124.5t60 -187.5q0 -139 -110.5 -235.5t-287.5 -96.5q-84 0 -175.5 21t-140.5 42zM573 -442l54 112q13 -6 36.5 -15.5t89 -25.5t121.5 -16q61 0 91 17t30 40q0 32 -30.5 46.5t-112.5 7.5l-10 124q147 12 211.5 -42 t64.5 -136q0 -77 -64.5 -128.5t-179.5 -51.5q-69 0 -144.5 17t-115.5 34zM1427 913v684h123v-684h-123z" />
<glyph unicode="&#xc8;" horiz-adv-x="1460" d="M80 0v123h1182v369h122v-492h-1304zM80 152v124h184v1045h-184v125h309v-1294h-309zM80 1475v122h1294v-491h-125v369h-1169zM418 152v647h635v-125h-512v-398h569v216h123v-340h-815zM418 827v619h803v-340h-123v215h-557v-371h512v-123h-635zM465 1999l67 102l490 -323 l-68 -103zM549 2126l67 104l490 -325l-68 -103z" />
<glyph unicode="&#xc9;" horiz-adv-x="1460" d="M80 0v123h1182v369h122v-492h-1304zM80 152v124h184v1045h-184v125h309v-1294h-309zM80 1475v122h1294v-491h-125v369h-1169zM418 152v647h635v-125h-512v-398h569v216h123v-340h-815zM418 827v619h803v-340h-123v215h-557v-371h512v-123h-635zM465 1905l489 325l68 -104 l-490 -324zM549 1778l489 323l68 -102l-490 -324z" />
<glyph unicode="&#xca;" horiz-adv-x="1460" d="M80 0v123h1182v369h122v-492h-1304zM80 152v124h184v1045h-184v125h309v-1294h-309zM80 1475v122h1294v-491h-125v369h-1169zM389 1921l397 285l396 -285l-72 -100l-324 233l-323 -233zM418 152v647h635v-125h-512v-398h569v216h123v-340h-815zM418 827v619h803v-340 h-123v215h-557v-371h512v-123h-635zM479 1796l307 221l308 -221l-72 -100l-236 170l-235 -170z" />
<glyph unicode="&#xcb;" horiz-adv-x="1460" d="M80 0v123h1182v369h122v-492h-1304zM80 152v124h184v1045h-184v125h309v-1294h-309zM80 1475v122h1294v-491h-125v369h-1169zM340 1907q0 88 63 151.5t152 63.5q88 0 150.5 -63.5t62.5 -151.5q0 -89 -62.5 -152t-150.5 -63q-89 0 -152 63t-63 152zM418 152v647h635v-125 h-512v-398h569v216h123v-340h-815zM418 827v619h803v-340h-123v215h-557v-371h512v-123h-635zM459 1907q0 -40 28 -68.5t68 -28.5q38 0 66 28.5t28 68.5q0 38 -28 66t-66 28q-40 0 -68 -28t-28 -66zM487 1907q0 28 19.5 46.5t48.5 18.5q28 0 47 -18.5t19 -46.5 q0 -29 -19 -48.5t-47 -19.5q-29 0 -48.5 19.5t-19.5 48.5zM805 1907q0 88 63.5 151.5t151.5 63.5q89 0 152 -63.5t63 -151.5q0 -89 -63 -152t-152 -63q-88 0 -151.5 63t-63.5 152zM926 1907q0 -40 28 -68.5t66 -28.5q40 0 68 28.5t28 68.5q0 38 -28 66t-68 28q-38 0 -66 -28 t-28 -66zM954 1907q0 28 19 46.5t47 18.5q29 0 48 -18.5t19 -46.5q0 -29 -19 -48.5t-48 -19.5q-28 0 -47 19.5t-19 48.5z" />
<glyph unicode="&#xcc;" horiz-adv-x="806" d="M80 0v123h645v-123h-645zM80 152v124h184v1045h-184v125h309v-1294h-309zM80 1475v122h645v-122h-645zM82 1999l68 102l489 -323l-68 -103zM166 2126l67 104l490 -325l-68 -103zM418 152v1294h307v-125h-184v-1045h184v-124h-307z" />
<glyph unicode="&#xcd;" horiz-adv-x="806" d="M80 0v123h645v-123h-645zM80 152v124h184v1045h-184v125h309v-1294h-309zM80 1475v122h645v-122h-645zM82 1905l489 325l68 -104l-489 -324zM166 1778l489 323l68 -102l-490 -324zM418 152v1294h307v-125h-184v-1045h184v-124h-307z" />
<glyph unicode="&#xce;" horiz-adv-x="806" d="M6 1921l397 285l396 -285l-72 -100l-324 233l-323 -233zM80 0v123h645v-123h-645zM80 152v124h184v1045h-184v125h309v-1294h-309zM80 1475v122h645v-122h-645zM96 1796l307 221l308 -221l-72 -100l-236 170l-235 -170zM418 152v1294h307v-125h-184v-1045h184v-124h-307z " />
<glyph unicode="&#xcf;" horiz-adv-x="806" d="M-43 1907q0 88 63 151.5t152 63.5q88 0 150.5 -63.5t62.5 -151.5q0 -89 -62.5 -152t-150.5 -63q-89 0 -152 63t-63 152zM76 1907q0 -40 28 -68.5t68 -28.5q38 0 66 28.5t28 68.5q0 38 -28 66t-66 28q-40 0 -68 -28t-28 -66zM80 0v123h645v-123h-645zM80 152v124h184v1045 h-184v125h309v-1294h-309zM80 1475v122h645v-122h-645zM104 1907q0 28 19.5 46.5t48.5 18.5q28 0 47 -18.5t19 -46.5q0 -29 -19 -48.5t-47 -19.5q-29 0 -48.5 19.5t-19.5 48.5zM418 152v1294h307v-125h-184v-1045h184v-124h-307zM422 1907q0 88 63.5 151.5t151.5 63.5 q89 0 152 -63.5t63 -151.5q0 -89 -63 -152t-152 -63q-88 0 -151.5 63t-63.5 152zM543 1907q0 -40 28 -68.5t66 -28.5q40 0 68 28.5t28 68.5q0 38 -28 66t-68 28q-38 0 -66 -28t-28 -66zM571 1907q0 28 19 46.5t47 18.5q29 0 48.5 -18.5t19.5 -46.5q0 -29 -19.5 -48.5 t-48.5 -19.5q-28 0 -47 19.5t-19 48.5z" />
<glyph unicode="&#xd0;" horiz-adv-x="1683" d="M82 0v123h754q204 0 357 90.5t231.5 242.5t78.5 343q0 190 -78.5 342t-231.5 243t-357 91h-754v122h754q181 0 331 -63t250 -171t154.5 -253.5t54.5 -310.5t-54.5 -310.5t-154.5 -254t-250 -171.5t-331 -63h-754zM82 152v124h182v404h-182v123h307v-651h-307zM82 831v123 h182v367h-182v125h307v-615h-307zM418 152v651h373v-123h-250v-404h295q242 0 378 145t136 378t-136 377.5t-378 144.5h-295v-367h250v-123h-373v615h418q149 0 270.5 -49.5t201.5 -136.5t123.5 -205t43.5 -256t-43.5 -256t-123.5 -205t-201.5 -136.5t-270.5 -49.5h-418z " />
<glyph unicode="&#xd1;" horiz-adv-x="1775" d="M76 1321v125h311v-1294h-307v124h182v1045h-186zM76 1475v122h397l799 -1122v846h-185v125h308v-1360l-985 1389h-334zM80 0v123h643v-123h-643zM416 152v1261l981 -1380l-101 -72l-757 1063v-748h184v-124h-307zM434 1731q0 31 2 61t10 71.5t21 77t37 72.5t56 62.5 t80.5 42t107.5 16.5q49 0 96 -16.5t71 -33t51.5 -41t28.5 -24.5q11 -9 22 -19.5t15.5 -14.5t10 -7.5t8.5 -4.5t8 -1q37 0 37 127h125q0 -252 -162 -252q-21 0 -38.5 4.5t-34 14.5t-26 17.5t-25.5 22t-22 19.5q-2 2 -26 23.5t-37.5 31t-42.5 20.5t-59 11q-49 0 -85 -19.5 t-56 -48.5t-31.5 -69.5t-15 -73t-3.5 -69.5h-123zM586 1731q0 251 162 251q25 0 49.5 -9.5t36 -17.5t34.5 -28t25 -22q5 -4 22 -20t28.5 -24.5t30 -19.5t40 -16.5t45.5 -5.5q190 0 190 280h123q0 -31 -2 -61t-10 -71.5t-21 -77t-36.5 -72.5t-55.5 -62.5t-80.5 -42 t-107.5 -16.5q-50 0 -96 16t-68.5 31t-52.5 41t-31 26q-9 8 -19.5 18t-15 14.5t-10 8.5t-9.5 5.5t-9 1.5q-37 0 -37 -127h-125zM1087 1475v122h644v-122h-644zM1423 41v1405h308v-125h-183v-1280h-125z" />
<glyph unicode="&#xd2;" horiz-adv-x="1757" d="M49 799q0 168 66 321.5t177 264.5t265 177t322 66t321.5 -66t264.5 -177t177 -264.5t66 -321.5t-66 -322t-177 -265t-264.5 -177t-321.5 -66t-322 66t-265 177t-177 265t-66 322zM172 799q0 -190 95.5 -353t258.5 -258.5t353 -95.5t353 95.5t258 258.5t95 353 q0 142 -56.5 273t-151 225.5t-225.5 151t-273 56.5q-190 0 -353 -95t-258.5 -258t-95.5 -353zM201 799q0 138 53.5 263.5t144.5 216.5t216.5 144.5t263.5 53.5t263.5 -53.5t216 -144.5t144 -216.5t53.5 -263.5t-53.5 -263.5t-144 -216.5t-216 -144.5t-263.5 -53.5 t-263.5 53.5t-216.5 144.5t-144.5 216.5t-53.5 263.5zM326 799q0 -112 44 -214.5t118 -176.5t176.5 -118t214.5 -44t214.5 44t176.5 118t118 176.5t44 214.5t-44 214.5t-118 176.5t-176.5 118t-214.5 44t-214.5 -44t-176.5 -118t-118 -176.5t-44 -214.5zM557 1999l68 102 l489 -323l-67 -103zM641 2126l68 104l489 -325l-68 -103z" />
<glyph unicode="&#xd3;" horiz-adv-x="1757" d="M49 799q0 168 66 321.5t177 264.5t265 177t322 66t321.5 -66t264.5 -177t177 -264.5t66 -321.5t-66 -322t-177 -265t-264.5 -177t-321.5 -66t-322 66t-265 177t-177 265t-66 322zM172 799q0 -190 95.5 -353t258.5 -258.5t353 -95.5t353 95.5t258 258.5t95 353 q0 142 -56.5 273t-151 225.5t-225.5 151t-273 56.5q-190 0 -353 -95t-258.5 -258t-95.5 -353zM201 799q0 138 53.5 263.5t144.5 216.5t216.5 144.5t263.5 53.5t263.5 -53.5t216 -144.5t144 -216.5t53.5 -263.5t-53.5 -263.5t-144 -216.5t-216 -144.5t-263.5 -53.5 t-263.5 53.5t-216.5 144.5t-144.5 216.5t-53.5 263.5zM326 799q0 -112 44 -214.5t118 -176.5t176.5 -118t214.5 -44t214.5 44t176.5 118t118 176.5t44 214.5t-44 214.5t-118 176.5t-176.5 118t-214.5 44t-214.5 -44t-176.5 -118t-118 -176.5t-44 -214.5zM557 1905l490 325 l67 -104l-489 -324zM641 1778l489 323l68 -102l-489 -324z" />
<glyph unicode="&#xd4;" horiz-adv-x="1757" d="M49 799q0 168 66 321.5t177 264.5t265 177t322 66t321.5 -66t264.5 -177t177 -264.5t66 -321.5t-66 -322t-177 -265t-264.5 -177t-321.5 -66t-322 66t-265 177t-177 265t-66 322zM172 799q0 -190 95.5 -353t258.5 -258.5t353 -95.5t353 95.5t258 258.5t95 353 q0 142 -56.5 273t-151 225.5t-225.5 151t-273 56.5q-190 0 -353 -95t-258.5 -258t-95.5 -353zM201 799q0 138 53.5 263.5t144.5 216.5t216.5 144.5t263.5 53.5t263.5 -53.5t216 -144.5t144 -216.5t53.5 -263.5t-53.5 -263.5t-144 -216.5t-216 -144.5t-263.5 -53.5 t-263.5 53.5t-216.5 144.5t-144.5 216.5t-53.5 263.5zM326 799q0 -112 44 -214.5t118 -176.5t176.5 -118t214.5 -44t214.5 44t176.5 118t118 176.5t44 214.5t-44 214.5t-118 176.5t-176.5 118t-214.5 44t-214.5 -44t-176.5 -118t-118 -176.5t-44 -214.5zM481 1921l398 285 l395 -285l-72 -100l-323 233l-324 -233zM571 1796l308 221l307 -221l-72 -100l-235 170l-236 -170z" />
<glyph unicode="&#xd5;" horiz-adv-x="1757" d="M49 799q0 168 66 321.5t177 264.5t265 177t322 66t321.5 -66t264.5 -177t177 -264.5t66 -321.5t-66 -322t-177 -265t-264.5 -177t-321.5 -66t-322 66t-265 177t-177 265t-66 322zM172 799q0 -190 95.5 -353t258.5 -258.5t353 -95.5t353 95.5t258 258.5t95 353 q0 142 -56.5 273t-151 225.5t-225.5 151t-273 56.5q-190 0 -353 -95t-258.5 -258t-95.5 -353zM201 799q0 138 53.5 263.5t144.5 216.5t216.5 144.5t263.5 53.5t263.5 -53.5t216 -144.5t144 -216.5t53.5 -263.5t-53.5 -263.5t-144 -216.5t-216 -144.5t-263.5 -53.5 t-263.5 53.5t-216.5 144.5t-144.5 216.5t-53.5 263.5zM326 799q0 -112 44 -214.5t118 -176.5t176.5 -118t214.5 -44t214.5 44t176.5 118t118 176.5t44 214.5t-44 214.5t-118 176.5t-176.5 118t-214.5 44t-214.5 -44t-176.5 -118t-118 -176.5t-44 -214.5zM410 1729q0 31 2 61 t10 71.5t21 77t36.5 72.5t55.5 62.5t80.5 42t107.5 16.5q49 0 96 -16.5t71.5 -33t52.5 -40.5l28 -25l22 -20t15.5 -14t9.5 -7.5t8 -4.5t8 -1q37 0 37 127h125q0 -252 -162 -252q-25 0 -49.5 9.5t-34.5 16.5t-34.5 28.5t-26.5 23.5q-1 1 -26 23.5t-38.5 31.5t-42.5 20t-59 11 q-49 0 -85 -19.5t-56 -48.5t-31.5 -69.5t-15 -73t-3.5 -69.5h-122zM561 1729q0 251 162 251q25 0 49.5 -9.5t36 -17.5t34.5 -28t25 -22q5 -4 22 -20t28.5 -24.5t30 -19.5t40 -16.5t45.5 -5.5q49 0 85 19.5t56 48.5t31.5 69.5t15 73t3.5 69.5h123q0 -31 -2 -61t-10 -71.5 t-21 -77t-37 -72.5t-56 -62.5t-80.5 -42t-107.5 -16.5q-50 0 -96 16t-68.5 31t-52.5 41t-31 26q-9 8 -20 18t-15 14t-10 8.5t-9.5 5.5t-8.5 1q-37 0 -37 -126h-125z" />
<glyph unicode="&#xd6;" horiz-adv-x="1757" d="M49 799q0 168 66 321.5t177 264.5t265 177t322 66t321.5 -66t264.5 -177t177 -264.5t66 -321.5t-66 -322t-177 -265t-264.5 -177t-321.5 -66t-322 66t-265 177t-177 265t-66 322zM172 799q0 -190 95.5 -353t258.5 -258.5t353 -95.5t353 95.5t258 258.5t95 353 q0 142 -56.5 273t-151 225.5t-225.5 151t-273 56.5q-190 0 -353 -95t-258.5 -258t-95.5 -353zM201 799q0 138 53.5 263.5t144.5 216.5t216.5 144.5t263.5 53.5t263.5 -53.5t216 -144.5t144 -216.5t53.5 -263.5t-53.5 -263.5t-144 -216.5t-216 -144.5t-263.5 -53.5 t-263.5 53.5t-216.5 144.5t-144.5 216.5t-53.5 263.5zM326 799q0 -112 44 -214.5t118 -176.5t176.5 -118t214.5 -44t214.5 44t176.5 118t118 176.5t44 214.5t-44 214.5t-118 176.5t-176.5 118t-214.5 44t-214.5 -44t-176.5 -118t-118 -176.5t-44 -214.5zM432 1907 q0 88 63 151.5t152 63.5q88 0 150.5 -63.5t62.5 -151.5q0 -89 -62.5 -152t-150.5 -63q-89 0 -152 63t-63 152zM551 1907q0 -40 28 -68.5t68 -28.5q38 0 66 28.5t28 68.5q0 38 -28 66t-66 28q-40 0 -68 -28t-28 -66zM580 1907q0 28 19 46.5t48 18.5q28 0 47 -18.5t19 -46.5 q0 -29 -19 -48.5t-47 -19.5q-29 0 -48 19.5t-19 48.5zM897 1907q0 88 63.5 151.5t151.5 63.5q89 0 152 -63.5t63 -151.5q0 -89 -63 -152t-152 -63q-88 0 -151.5 63t-63.5 152zM1018 1907q0 -40 28 -68.5t66 -28.5q40 0 68 28.5t28 68.5q0 38 -28 66t-68 28q-38 0 -66 -28 t-28 -66zM1047 1907q0 28 18.5 46.5t46.5 18.5q29 0 48.5 -18.5t19.5 -46.5q0 -29 -19.5 -48.5t-48.5 -19.5q-28 0 -46.5 19.5t-18.5 48.5z" />
<glyph unicode="&#xd7;" horiz-adv-x="1112" d="M100 485l262 263l-260 262l86 86l347 -348l-349 -349zM207 379l348 348l350 -348l-86 -86l-264 262l-262 -262zM209 1116l86 86l260 -262l266 266l86 -86l-352 -352zM575 748l353 352l86 -86l-266 -266l264 -263l-86 -86z" />
<glyph unicode="&#xd8;" horiz-adv-x="1757" d="M49 799q0 168 66 321.5t177 264.5t265 177t322 66q171 0 327 -67l25 36h147l-129 -198q-170 106 -370 106q-190 0 -353 -95t-258.5 -258t-95.5 -353q0 -176 83 -329.5t224 -252.5l-141 -217h-148l123 190q-124 116 -194 274t-70 335zM201 799q0 138 53.5 263.5 t144.5 216.5t216.5 144.5t263.5 53.5q190 0 354 -101l-739 -1136q-135 94 -214 241.5t-79 317.5zM326 799q0 -215 143 -371l584 895q-89 29 -174 29q-112 0 -214.5 -44t-176.5 -118t-118 -176.5t-44 -214.5zM375 0l129 201q170 -109 375 -109q190 0 353 95.5t258 258.5 t95 353q0 178 -84.5 331t-228.5 252l141 215h148l-123 -188q127 -116 198.5 -274t71.5 -336q0 -168 -66 -322t-177 -265t-264.5 -177t-321.5 -66t-334 70l-25 -39h-145zM518 223l739 1137q138 -94 218.5 -242t80.5 -319q0 -138 -53.5 -263.5t-144 -216.5t-216 -144.5 t-263.5 -53.5q-200 0 -361 102zM698 274q89 -28 181 -28q112 0 214.5 44t176.5 118t118 176.5t44 214.5q0 106 -39 203t-109 172z" />
<glyph unicode="&#xd9;" horiz-adv-x="1720" d="M37 1321v125h307v-830q0 -109 34 -203.5t97.5 -166t163.5 -113t223 -41.5t222 41.5t162.5 113t97.5 166t34 203.5v830h308v-125h-185v-705q0 -106 -26 -202t-79.5 -177t-128.5 -141t-179 -93.5t-226 -33.5q-152 0 -275.5 51.5t-202.5 141t-121 205.5t-42 249v705h-184z M37 1475v122h643v-122h-643zM373 616v830h307v-125h-184v-705q0 -170 93.5 -270t272.5 -100q178 0 271.5 100t93.5 270v705h-185v125h308v-830q0 -106 -31 -195.5t-91 -156.5t-153.5 -105t-212.5 -38q-158 0 -270.5 66.5t-165.5 176.5t-53 252zM541 1999l67 102l490 -323 l-68 -103zM625 2126l67 104l490 -325l-68 -103zM1042 1475v122h644v-122h-644z" />
<glyph unicode="&#xda;" horiz-adv-x="1720" d="M37 1321v125h307v-830q0 -109 34 -203.5t97.5 -166t163.5 -113t223 -41.5t222 41.5t162.5 113t97.5 166t34 203.5v830h308v-125h-185v-705q0 -106 -26 -202t-79.5 -177t-128.5 -141t-179 -93.5t-226 -33.5q-152 0 -275.5 51.5t-202.5 141t-121 205.5t-42 249v705h-184z M37 1475v122h643v-122h-643zM373 616v830h307v-125h-184v-705q0 -170 93.5 -270t272.5 -100q178 0 271.5 100t93.5 270v705h-185v125h308v-830q0 -106 -31 -195.5t-91 -156.5t-153.5 -105t-212.5 -38q-158 0 -270.5 66.5t-165.5 176.5t-53 252zM541 1905l489 325l68 -104 l-490 -324zM625 1778l489 323l68 -102l-490 -324zM1042 1475v122h644v-122h-644z" />
<glyph unicode="&#xdb;" horiz-adv-x="1720" d="M37 1321v125h307v-830q0 -109 34 -203.5t97.5 -166t163.5 -113t223 -41.5t222 41.5t162.5 113t97.5 166t34 203.5v830h308v-125h-185v-705q0 -106 -26 -202t-79.5 -177t-128.5 -141t-179 -93.5t-226 -33.5q-152 0 -275.5 51.5t-202.5 141t-121 205.5t-42 249v705h-184z M37 1475v122h643v-122h-643zM373 616v830h307v-125h-184v-705q0 -170 93.5 -270t272.5 -100q178 0 271.5 100t93.5 270v705h-185v125h308v-830q0 -106 -31 -195.5t-91 -156.5t-153.5 -105t-212.5 -38q-158 0 -270.5 66.5t-165.5 176.5t-53 252zM465 1921l397 285l395 -285 l-71 -100l-324 233l-323 -233zM555 1796l307 221l307 -221l-71 -100l-236 170l-235 -170zM1042 1475v122h644v-122h-644z" />
<glyph unicode="&#xdc;" horiz-adv-x="1720" d="M37 1321v125h307v-830q0 -109 34 -203.5t97.5 -166t163.5 -113t223 -41.5t222 41.5t162.5 113t97.5 166t34 203.5v830h308v-125h-185v-705q0 -106 -26 -202t-79.5 -177t-128.5 -141t-179 -93.5t-226 -33.5q-152 0 -275.5 51.5t-202.5 141t-121 205.5t-42 249v705h-184z M37 1475v122h643v-122h-643zM373 616v830h307v-125h-184v-705q0 -170 93.5 -270t272.5 -100q178 0 271.5 100t93.5 270v705h-185v125h308v-830q0 -106 -31 -195.5t-91 -156.5t-153.5 -105t-212.5 -38q-158 0 -270.5 66.5t-165.5 176.5t-53 252zM416 1907q0 88 63 151.5 t152 63.5q88 0 150.5 -63.5t62.5 -151.5q0 -89 -62.5 -152t-150.5 -63q-89 0 -152 63t-63 152zM535 1907q0 -40 28 -68.5t68 -28.5q38 0 66 28.5t28 68.5q0 38 -28 66t-66 28q-40 0 -68 -28t-28 -66zM563 1907q0 28 19.5 46.5t48.5 18.5q28 0 46.5 -18.5t18.5 -46.5 q0 -29 -18.5 -48.5t-46.5 -19.5q-29 0 -48.5 19.5t-19.5 48.5zM881 1907q0 88 63.5 151.5t151.5 63.5q89 0 152 -63.5t63 -151.5q0 -89 -63 -152t-152 -63q-88 0 -151.5 63t-63.5 152zM1001 1907q0 -40 28.5 -68.5t66.5 -28.5q40 0 68 28.5t28 68.5q0 38 -28 66t-68 28 q-38 0 -66.5 -28t-28.5 -66zM1030 1907q0 28 19 46.5t47 18.5q29 0 48 -18.5t19 -46.5q0 -29 -19 -48.5t-48 -19.5q-28 0 -47 19.5t-19 48.5zM1042 1475v122h644v-122h-644z" />
<glyph unicode="&#xdd;" horiz-adv-x="1558" d="M-31 1321v125h283l514 -811v-483h-309v124h184v324l-457 721h-215zM-31 1475v122h645v-122h-645zM287 1446h327v-125h-100l266 -422l267 422h-101v125h326l-492 -778zM457 0v123h645v-123h-645zM459 1905l489 325l68 -104l-490 -324zM543 1778l489 323l68 -102l-490 -324 zM795 152v483l512 811h282v-125h-217l-454 -721v-324h184v-124h-307zM946 1475v122h643v-122h-643z" />
<glyph unicode="&#xde;" horiz-adv-x="1564" d="M80 0v123h645v-123h-645zM80 152v124h184v1045h-184v125h309v-1294h-309zM80 1475v122h645v-122h-645zM418 152v282h592q176 0 290.5 107.5t114.5 257.5q0 149 -114.5 256.5t-290.5 107.5h-592v283h307v-125h-184v-35h469q114 0 213.5 -39.5t168 -106t107.5 -155.5 t39 -186q0 -98 -39 -187t-107.5 -155.5t-168 -106t-213.5 -39.5h-469v-35h184v-124h-307zM418 463v672h592q166 0 271 -98.5t105 -237.5q0 -140 -105 -238t-271 -98h-592zM541 588h469q116 0 184 60.5t68 150.5t-68 150.5t-184 60.5h-469v-422z" />
<glyph unicode="&#xdf;" horiz-adv-x="1380" d="M66 0v123h333v973q0 75 12 139t40 120t69.5 96t103.5 62.5t140 22.5q74 0 129.5 -20t85.5 -53.5t44.5 -70.5t14.5 -77q0 -16 -2.5 -31t-5.5 -27t-11 -26.5t-12 -23t-17 -23t-17.5 -20t-21.5 -21t-20.5 -19t-23 -20.5t-22.5 -19q-56 -48 -88.5 -97t-32.5 -114 q0 -45 15.5 -81t48.5 -65.5t61 -47.5t74 -43q105 -60 138 -88q93 -75 93 -189q0 -117 -79.5 -185.5t-190.5 -68.5q-148 0 -269 140l-20 -19q125 -149 289 -149q118 0 208.5 77t90.5 205q0 34 -8 64.5t-17 52t-31.5 46.5t-35 37.5t-45 34t-44 28.5t-48.5 28q-4 3 -6.5 4t-6 3 t-6.5 4q-45 24 -71 41t-55.5 43t-42.5 57.5t-13 70.5q0 57 29.5 101t82.5 90q2 2 21.5 18t23.5 20t21.5 19.5t22.5 22t18.5 22t18.5 25.5t14 26t12.5 30t6.5 31.5t3 35.5q0 44 -16.5 85.5t-50.5 79.5t-95 61.5t-141 23.5q-83 0 -149.5 -25t-111.5 -68t-75 -103t-43.5 -128 t-13.5 -145v-82h-305v123h180q4 87 24.5 165t61.5 149.5t99 123.5t143.5 82.5t189.5 30.5q112 0 198.5 -35t134.5 -91.5t71.5 -119t23.5 -127.5q0 -30 -4 -58t-14.5 -53.5t-19 -46t-26.5 -43t-27.5 -35.5t-31.5 -33t-29.5 -27t-30 -25.5t-24.5 -20.5q-38 -34 -52.5 -55 t-14.5 -44q0 -26 23.5 -46.5t94.5 -59.5q116 -63 169 -107q141 -121 141 -301q0 -95 -36.5 -174t-97 -128t-135 -76t-153.5 -27q-68 0 -132 20t-113 53t-81.5 62t-58.5 60l213 178q77 -99 172 -99q64 0 104.5 35.5t40.5 95.5q0 54 -32.5 83t-133.5 83q-42 24 -67 40t-67 50 t-66 67.5t-43 84t-19 106.5q0 163 164 306q69 58 89.5 81.5t20.5 53.5q0 98 -151 98q-242 0 -242 -317v-1096h-456zM66 152v124h180v586h-180v123h305v-833h-305z" />
<glyph unicode="&#xe0;" horiz-adv-x="1253" d="M49 389q0 59 16 116t53.5 112t92.5 96.5t139 66.5t187 25q110 0 249 -29q-6 53 -54 75.5t-152 22.5q-162 0 -361 -67l-41 117q215 73 400 73q333 4 333 -235v-144q-219 64 -374 64q-96 0 -169.5 -26t-114.5 -69.5t-61 -93.5t-20 -104q0 -125 97 -206t249 -81 q104 0 208 38t185 102v-119h334v-123h-459v33q-138 -53 -268 -53q-131 0 -238 51t-169 144.5t-62 213.5zM127 1069q238 79 451 82q72 0 137.5 -11t130 -39t112 -71t76.5 -111.5t29 -156.5v-486h182v-124h-305v610q0 74 -29.5 127.5t-82 82.5t-114 42t-136.5 12 q-190 0 -408 -74zM201 389q0 51 17.5 96t55 84t105 61.5t158.5 22.5q149 0 374 -67v-310q-82 -67 -184.5 -106t-208.5 -39q-144 0 -230.5 71t-86.5 187zM297 1577l68 102l489 -323l-68 -103zM324 389q0 -60 50 -96.5t144 -36.5q143 0 268 80v158q-141 34 -249 34 q-213 0 -213 -139zM381 1704l68 104l489 -325l-68 -103z" />
<glyph unicode="&#xe1;" horiz-adv-x="1253" d="M49 389q0 59 16 116t53.5 112t92.5 96.5t139 66.5t187 25q110 0 249 -29q-6 53 -54 75.5t-152 22.5q-162 0 -361 -67l-41 117q215 73 400 73q333 4 333 -235v-144q-219 64 -374 64q-96 0 -169.5 -26t-114.5 -69.5t-61 -93.5t-20 -104q0 -125 97 -206t249 -81 q104 0 208 38t185 102v-119h334v-123h-459v33q-138 -53 -268 -53q-131 0 -238 51t-169 144.5t-62 213.5zM127 1069q238 79 451 82q72 0 137.5 -11t130 -39t112 -71t76.5 -111.5t29 -156.5v-486h182v-124h-305v610q0 74 -29.5 127.5t-82 82.5t-114 42t-136.5 12 q-190 0 -408 -74zM201 389q0 51 17.5 96t55 84t105 61.5t158.5 22.5q149 0 374 -67v-310q-82 -67 -184.5 -106t-208.5 -39q-144 0 -230.5 71t-86.5 187zM297 1483l489 325l68 -104l-489 -324zM324 389q0 -60 50 -96.5t144 -36.5q143 0 268 80v158q-141 34 -249 34 q-213 0 -213 -139zM381 1356l489 323l68 -102l-489 -324z" />
<glyph unicode="&#xe2;" horiz-adv-x="1253" d="M49 389q0 59 16 116t53.5 112t92.5 96.5t139 66.5t187 25q110 0 249 -29q-6 53 -54 75.5t-152 22.5q-162 0 -361 -67l-41 117q215 73 400 73q333 4 333 -235v-144q-219 64 -374 64q-96 0 -169.5 -26t-114.5 -69.5t-61 -93.5t-20 -104q0 -125 97 -206t249 -81 q104 0 208 38t185 102v-119h334v-123h-459v33q-138 -53 -268 -53q-131 0 -238 51t-169 144.5t-62 213.5zM127 1069q238 79 451 82q72 0 137.5 -11t130 -39t112 -71t76.5 -111.5t29 -156.5v-486h182v-124h-305v610q0 74 -29.5 127.5t-82 82.5t-114 42t-136.5 12 q-190 0 -408 -74zM201 389q0 51 17.5 96t55 84t105 61.5t158.5 22.5q149 0 374 -67v-310q-82 -67 -184.5 -106t-208.5 -39q-144 0 -230.5 71t-86.5 187zM221 1499l397 285l396 -285l-72 -100l-324 233l-323 -233zM311 1374l307 221l308 -221l-72 -100l-236 170l-235 -170z M324 389q0 -60 50 -96.5t144 -36.5q143 0 268 80v158q-141 34 -249 34q-213 0 -213 -139z" />
<glyph unicode="&#xe3;" horiz-adv-x="1253" d="M49 389q0 59 16 116t53.5 112t92.5 96.5t139 66.5t187 25q110 0 249 -29q-6 53 -54 75.5t-152 22.5q-162 0 -361 -67l-41 117q215 73 400 73q333 4 333 -235v-144q-219 64 -374 64q-96 0 -169.5 -26t-114.5 -69.5t-61 -93.5t-20 -104q0 -125 97 -206t249 -81 q104 0 208 38t185 102v-119h334v-123h-459v33q-138 -53 -268 -53q-131 0 -238 51t-169 144.5t-62 213.5zM127 1069q238 79 451 82q72 0 137.5 -11t130 -39t112 -71t76.5 -111.5t29 -156.5v-486h182v-124h-305v610q0 74 -29.5 127.5t-82 82.5t-114 42t-136.5 12 q-190 0 -408 -74zM150 1309q0 31 2 61t10 71.5t21 77t36.5 72.5t55.5 62.5t80.5 42t107.5 16.5q49 0 96 -16.5t71.5 -33t52.5 -40.5l28 -25l22 -20t15.5 -14t9.5 -7.5t8 -4.5t8 -1q37 0 37 127h125q0 -252 -162 -252q-25 0 -49.5 9.5t-34.5 16.5t-34.5 28.5t-26.5 23.5 q-1 1 -26 23.5t-38.5 31.5t-42.5 20t-59 11q-49 0 -85 -19.5t-56 -48.5t-31.5 -69.5t-15 -73t-3.5 -69.5h-122zM201 389q0 51 17.5 96t55 84t105 61.5t158.5 22.5q149 0 374 -67v-310q-82 -67 -184.5 -106t-208.5 -39q-144 0 -230.5 71t-86.5 187zM301 1309q0 252 162 252 q25 0 49.5 -9.5t36.5 -18t34 -28t25 -22.5q5 -4 22 -20t28.5 -24.5t30 -19.5t40 -16.5t45.5 -5.5q49 0 85 19.5t56 48.5t31.5 69.5t15 73t3.5 69.5h122q0 -31 -2 -61t-10 -71.5t-21 -77t-36.5 -72.5t-55.5 -62.5t-80.5 -42t-107.5 -16.5q-50 0 -96 16t-69 31.5t-52.5 41 t-30.5 26.5q-9 8 -20 18t-15 14t-10 8.5t-9.5 5.5t-8.5 1q-37 0 -37 -127h-125zM324 389q0 -60 50 -96.5t144 -36.5q143 0 268 80v158q-141 34 -249 34q-213 0 -213 -139z" />
<glyph unicode="&#xe4;" horiz-adv-x="1253" d="M49 389q0 59 16 116t53.5 112t92.5 96.5t139 66.5t187 25q110 0 249 -29q-6 53 -54 75.5t-152 22.5q-162 0 -361 -67l-41 117q215 73 400 73q333 4 333 -235v-144q-219 64 -374 64q-96 0 -169.5 -26t-114.5 -69.5t-61 -93.5t-20 -104q0 -125 97 -206t249 -81 q104 0 208 38t185 102v-119h334v-123h-459v33q-138 -53 -268 -53q-131 0 -238 51t-169 144.5t-62 213.5zM127 1069q238 79 451 82q72 0 137.5 -11t130 -39t112 -71t76.5 -111.5t29 -156.5v-486h182v-124h-305v610q0 74 -29.5 127.5t-82 82.5t-114 42t-136.5 12 q-190 0 -408 -74zM172 1485q0 88 63 151.5t152 63.5q88 0 150.5 -63.5t62.5 -151.5q0 -89 -62.5 -152t-150.5 -63q-89 0 -152 63t-63 152zM201 389q0 51 17.5 96t55 84t105 61.5t158.5 22.5q149 0 374 -67v-310q-82 -67 -184.5 -106t-208.5 -39q-144 0 -230.5 71t-86.5 187z M291 1485q0 -40 28 -68t68 -28q38 0 66 28t28 68q0 38 -28 66t-66 28q-40 0 -68 -28t-28 -66zM319 1485q0 28 19.5 46.5t48.5 18.5q28 0 47 -18.5t19 -46.5q0 -29 -19 -48.5t-47 -19.5q-29 0 -48.5 19.5t-19.5 48.5zM324 389q0 -60 50 -96.5t144 -36.5q143 0 268 80v158 q-141 34 -249 34q-213 0 -213 -139zM637 1485q0 88 63.5 151.5t151.5 63.5q89 0 152 -63.5t63 -151.5q0 -89 -63 -152t-152 -63q-88 0 -151.5 63t-63.5 152zM758 1485q0 -40 28 -68t66 -28q40 0 68 28t28 68q0 38 -28 66t-68 28q-38 0 -66 -28t-28 -66zM786 1485 q0 28 19 46.5t47 18.5q29 0 48.5 -18.5t19.5 -46.5q0 -29 -19.5 -48.5t-48.5 -19.5q-28 0 -47 19.5t-19 48.5z" />
<glyph unicode="&#xe5;" horiz-adv-x="1253" d="M49 389q0 59 16 116t53.5 112t92.5 96.5t139 66.5t187 25q110 0 249 -29q-6 53 -54 75.5t-152 22.5q-162 0 -361 -67l-41 117q215 73 400 73q333 4 333 -235v-144q-219 64 -374 64q-96 0 -169.5 -26t-114.5 -69.5t-61 -93.5t-20 -104q0 -125 97 -206t249 -81 q104 0 208 38t185 102v-119h334v-123h-459v33q-138 -53 -268 -53q-131 0 -238 51t-169 144.5t-62 213.5zM127 1069q238 79 451 82q72 0 137.5 -11t130 -39t112 -71t76.5 -111.5t29 -156.5v-486h182v-124h-305v610q0 74 -29.5 127.5t-82 82.5t-114 42t-136.5 12 q-190 0 -408 -74zM201 389q0 51 17.5 96t55 84t105 61.5t158.5 22.5q149 0 374 -67v-310q-82 -67 -184.5 -106t-208.5 -39q-144 0 -230.5 71t-86.5 187zM324 389q0 -60 50 -96.5t144 -36.5q143 0 268 80v158q-141 34 -249 34q-213 0 -213 -139zM326 1528q0 121 86 207 t206 86q121 0 208 -86.5t87 -206.5q0 -122 -86.5 -208.5t-208.5 -86.5q-120 0 -206 87t-86 208zM449 1528q0 -72 49 -122t120 -50q72 0 122.5 50t50.5 122q0 71 -50.5 120.5t-122.5 49.5q-70 0 -119.5 -49.5t-49.5 -120.5zM477 1528q0 57 42 99t99 42q58 0 101 -42t43 -99 q0 -58 -43 -101t-101 -43q-57 0 -99 43t-42 101zM582 1526q0 -15 10.5 -26t25.5 -11t26 11t11 26t-11 26t-26 11t-25.5 -11t-10.5 -26z" />
<glyph unicode="&#xe6;" horiz-adv-x="1968" d="M49 389q0 75 27 145t82.5 132.5t153.5 100.5t225 38q94 0 249 -29q-6 53 -54 75.5t-152 22.5q-162 0 -361 -67l-41 117q215 73 400 73q333 4 333 -235v-144q-219 64 -374 64q-96 0 -169.5 -26t-114.5 -69.5t-61 -93.5t-20 -104q0 -125 97 -206t249 -81q117 0 242 51.5 t229 153.5q65 -95 173 -150t241 -55q209 0 393 144l80 -94q-97 -80 -223 -126t-250 -46q-255 0 -426 155q-213 -155 -459 -155q-131 0 -238 51t-169 144.5t-62 213.5zM127 1069q238 79 451 82q273 0 401 -145q164 151 397 151q126 0 232 -44.5t174 -119.5t106 -168 t35.5 -196.5t-45.5 -198.5h-784q38 -80 118 -127t191 -47q163 0 299 109l78 -99q-177 -135 -377 -135q-202 0 -330 121.5t-133 300.5h850q19 86 -1.5 171.5t-72.5 154t-141 111t-199 42.5q-156 0 -272.5 -84.5t-163.5 -218.5v33q0 74 -29.5 127.5t-82 82.5t-114 42 t-136.5 12q-190 0 -408 -74zM201 389q0 51 17.5 96t55 84t105 61.5t158.5 22.5q149 0 374 -67v-21q0 -127 62 -233q-101 -101 -220.5 -151t-234.5 -50q-142 0 -229.5 71t-87.5 187zM324 389q0 -60 50 -96.5t144 -36.5q162 0 305 109q-25 73 -30 127q-141 36 -256 36 q-213 0 -213 -139zM940 582q4 114 57 209t152.5 154t226.5 59q98 0 179 -37t130 -97t70.5 -135.5t9.5 -152.5h-825zM1094 707h546q-24 76 -94 125t-170 49q-99 0 -172 -47t-110 -127z" />
<glyph unicode="&#xe7;" horiz-adv-x="1187" d="M43 567q0 160 79 296t214.5 215t294.5 79q106 0 209 -39v2h123v-254q-47 76 -138 121t-194 45q-125 0 -232 -62.5t-170 -169.5t-63 -233q0 -174 110.5 -303t290.5 -155v-232h-123v133q-185 60 -293 211.5t-108 345.5zM195 567q0 183 127 310t309 127q119 0 212 -57 t120 -152v-207h-123v182q-18 46 -76 78.5t-133 32.5q-129 0 -220.5 -92t-91.5 -222q0 -135 89.5 -223t240.5 -88q164 0 297 109l78 -97q-165 -137 -375 -137q-203 0 -328.5 125t-125.5 311zM250 -563l53 110q17 -8 46 -20t111.5 -31.5t155.5 -19.5q129 0 201 59.5t72 149.5 q0 39 -15.5 75.5t-47.5 69t-91.5 50.5t-138.5 14v210q16 -2 53 -2q106 0 208.5 38t184.5 108l78 -96q-141 -122 -336 -158q79 -25 132.5 -78t75.5 -111.5t22 -119.5q0 -139 -110.5 -235.5t-287.5 -96.5q-84 0 -175.5 21t-140.5 42zM315 -428l54 113q13 -6 36.5 -16t89 -26 t121.5 -16q61 0 91 17.5t30 40.5q0 32 -30.5 46t-112.5 7l-10 125q147 12 211.5 -42t64.5 -136q0 -77 -64.5 -129t-179.5 -52q-69 0 -144.5 17t-115.5 34zM991 588v532h125v-532h-125z" />
<glyph unicode="&#xe8;" horiz-adv-x="1218" d="M43 565q0 115 42 222t117 189t187 131.5t242 49.5q126 0 232 -44.5t174 -119.5t106 -168t35.5 -196.5t-45.5 -198.5h-785q38 -80 118 -127t191 -47q163 0 299 109l78 -99q-177 -135 -377 -135q-202 0 -329.5 121.5t-132.5 300.5h849q19 86 -1 171.5t-72 154t-141 111 t-199 42.5q-102 0 -190.5 -38.5t-148 -103.5t-93 -149.5t-33.5 -175.5q0 -193 138 -328t353 -135q210 0 394 144l79 -94q-97 -80 -223 -126t-250 -46q-134 0 -249.5 46.5t-195 126t-124.5 186.5t-45 226zM195 582q4 114 57 209t152.5 154t226.5 59q98 0 179 -37t130 -97 t70.5 -135.5t9.5 -152.5h-825zM338 1577l68 102l489 -323l-68 -103zM348 707h547q-24 76 -94 125t-170 49t-173 -47.5t-110 -126.5zM422 1704l67 104l490 -325l-68 -103z" />
<glyph unicode="&#xe9;" horiz-adv-x="1218" d="M43 565q0 115 42 222t117 189t187 131.5t242 49.5q126 0 232 -44.5t174 -119.5t106 -168t35.5 -196.5t-45.5 -198.5h-785q38 -80 118 -127t191 -47q163 0 299 109l78 -99q-177 -135 -377 -135q-202 0 -329.5 121.5t-132.5 300.5h849q19 86 -1 171.5t-72 154t-141 111 t-199 42.5q-102 0 -190.5 -38.5t-148 -103.5t-93 -149.5t-33.5 -175.5q0 -193 138 -328t353 -135q210 0 394 144l79 -94q-97 -80 -223 -126t-250 -46q-134 0 -249.5 46.5t-195 126t-124.5 186.5t-45 226zM195 582q4 114 57 209t152.5 154t226.5 59q98 0 179 -37t130 -97 t70.5 -135.5t9.5 -152.5h-825zM338 1483l489 325l68 -104l-489 -324zM348 707h547q-24 76 -94 125t-170 49t-173 -47.5t-110 -126.5zM422 1356l489 323l68 -102l-490 -324z" />
<glyph unicode="&#xea;" horiz-adv-x="1218" d="M43 565q0 115 42 222t117 189t187 131.5t242 49.5q126 0 232 -44.5t174 -119.5t106 -168t35.5 -196.5t-45.5 -198.5h-785q38 -80 118 -127t191 -47q163 0 299 109l78 -99q-177 -135 -377 -135q-202 0 -329.5 121.5t-132.5 300.5h849q19 86 -1 171.5t-72 154t-141 111 t-199 42.5q-102 0 -190.5 -38.5t-148 -103.5t-93 -149.5t-33.5 -175.5q0 -193 138 -328t353 -135q210 0 394 144l79 -94q-97 -80 -223 -126t-250 -46q-134 0 -249.5 46.5t-195 126t-124.5 186.5t-45 226zM195 582q4 114 57 209t152.5 154t226.5 59q98 0 179 -37t130 -97 t70.5 -135.5t9.5 -152.5h-825zM262 1499l397 285l396 -285l-72 -100l-324 233l-323 -233zM348 707h547q-24 76 -94 125t-170 49t-173 -47.5t-110 -126.5zM352 1374l307 221l308 -221l-72 -100l-236 170l-235 -170z" />
<glyph unicode="&#xeb;" horiz-adv-x="1218" d="M43 565q0 115 42 222t117 189t187 131.5t242 49.5q126 0 232 -44.5t174 -119.5t106 -168t35.5 -196.5t-45.5 -198.5h-785q38 -80 118 -127t191 -47q163 0 299 109l78 -99q-177 -135 -377 -135q-202 0 -329.5 121.5t-132.5 300.5h849q19 86 -1 171.5t-72 154t-141 111 t-199 42.5q-102 0 -190.5 -38.5t-148 -103.5t-93 -149.5t-33.5 -175.5q0 -193 138 -328t353 -135q210 0 394 144l79 -94q-97 -80 -223 -126t-250 -46q-134 0 -249.5 46.5t-195 126t-124.5 186.5t-45 226zM195 582q4 114 57 209t152.5 154t226.5 59q98 0 179 -37t130 -97 t70.5 -135.5t9.5 -152.5h-825zM213 1485q0 88 63 151.5t152 63.5q88 0 150.5 -63.5t62.5 -151.5q0 -89 -62.5 -152t-150.5 -63q-89 0 -152 63t-63 152zM332 1485q0 -40 28 -68t68 -28q38 0 66 28t28 68q0 38 -28 66t-66 28q-40 0 -68 -28t-28 -66zM348 707h547 q-24 76 -94 125t-170 49t-173 -47.5t-110 -126.5zM360 1485q0 28 19.5 46.5t48.5 18.5q28 0 47 -18.5t19 -46.5q0 -29 -19 -48.5t-47 -19.5q-29 0 -48.5 19.5t-19.5 48.5zM678 1485q0 88 63.5 151.5t151.5 63.5q89 0 152 -63.5t63 -151.5q0 -89 -63 -152t-152 -63 q-88 0 -151.5 63t-63.5 152zM799 1485q0 -40 28 -68t66 -28q40 0 68 28t28 68q0 38 -28 66t-68 28q-38 0 -66 -28t-28 -66zM827 1485q0 28 19 46.5t47 18.5q29 0 48.5 -18.5t19.5 -46.5q0 -29 -19.5 -48.5t-48.5 -19.5q-28 0 -47 19.5t-19 48.5z" />
<glyph unicode="&#xec;" horiz-adv-x="735" d="M27 1577l67 102l490 -323l-68 -103zM66 0v123h639v-123h-639zM66 152v124h180v584h-180v125h305v-833h-305zM66 1014v123h456v-861h183v-124h-306v862h-333zM111 1704l67 104l490 -325l-68 -103z" />
<glyph unicode="&#xed;" horiz-adv-x="735" d="M27 1483l489 325l68 -104l-490 -324zM66 0v123h639v-123h-639zM66 152v124h180v584h-180v125h305v-833h-305zM66 1014v123h456v-861h183v-124h-306v862h-333zM111 1356l489 323l68 -102l-490 -324z" />
<glyph unicode="&#xee;" horiz-adv-x="735" d="M-49 1499l397 285l395 -285l-71 -100l-324 233l-323 -233zM41 1374l307 221l307 -221l-71 -100l-236 170l-235 -170zM66 0v123h639v-123h-639zM66 152v124h180v584h-180v125h305v-833h-305zM66 1014v123h456v-861h183v-124h-306v862h-333z" />
<glyph unicode="&#xef;" horiz-adv-x="735" d="M-109 1485q0 88 63 151.5t152 63.5q88 0 150.5 -63.5t62.5 -151.5q0 -89 -62.5 -152t-150.5 -63q-89 0 -152 63t-63 152zM10 1485q0 -40 28 -68t68 -28q38 0 66.5 28.5t28.5 67.5q0 38 -28.5 66t-66.5 28q-40 0 -68 -28t-28 -66zM39 1485q0 28 19 46.5t48 18.5 q28 0 47 -18.5t19 -46.5q0 -29 -19 -48.5t-47 -19.5q-29 0 -48 19.5t-19 48.5zM66 0v123h639v-123h-639zM66 152v124h180v584h-180v125h305v-833h-305zM66 1014v123h456v-861h183v-124h-306v862h-333zM356 1485q0 88 63.5 151.5t151.5 63.5q89 0 152 -63.5t63 -151.5 q0 -89 -63 -152t-152 -63q-88 0 -151.5 63t-63.5 152zM477 1485q0 -40 28 -68t66 -28q40 0 68.5 28t28.5 68q0 38 -28.5 66t-68.5 28q-38 0 -66 -28t-28 -66zM506 1485q0 28 18.5 46.5t46.5 18.5q29 0 48.5 -18.5t19.5 -46.5q0 -29 -19.5 -48.5t-48.5 -19.5 q-28 0 -46.5 19.5t-18.5 48.5z" />
<glyph unicode="&#xf0;" horiz-adv-x="1282" d="M14 1661q255 36 484 -41l110 121l90 -80l-166 -184q-229 100 -501 63zM35 1511q258 36 477 -57l-193 -211l-92 82l60 66q-111 15 -236 0zM45 559q0 157 78 290.5t211.5 211.5t290.5 78q60 0 123 -13q-24 30 -56 62q-62 58 -129 100l-133 -147l-90 82l199 219 q128 -58 239 -166q118 -113 187.5 -260t83.5 -305q-40 134 -151.5 219.5t-272.5 85.5q-187 0 -322 -135t-135 -322q0 -123 58.5 -228.5t159 -167t218.5 -61.5q111 0 202.5 43t151 117t91.5 171t32 206q0 180 -74 354.5t-208 302.5q-108 105 -240 168l160 176l90 -81l-57 -64 q70 -49 133 -109q153 -146 236 -343t83 -404q0 -104 -25 -201t-75.5 -180.5t-121 -145.5t-168 -97t-210.5 -35q-114 0 -218 46.5t-178.5 124.5t-118.5 185t-44 223zM197 559q0 117 57 215.5t155.5 155.5t215.5 57q138 0 240 -71.5t146 -182t27 -231.5q-34 -166 -147 -268.5 t-287 -102.5q-170 0 -288.5 124.5t-118.5 303.5zM322 559q0 -127 82.5 -215t199.5 -88q122 0 202 68.5t107 187.5q23 141 -58 245.5t-230 104.5q-126 0 -214.5 -88.5t-88.5 -214.5z" />
<glyph unicode="&#xf1;" horiz-adv-x="1431" d="M61 0v123h639v-123h-639zM61 152v124h183v584h-183v125h306v-833h-306zM61 1014v123h457v-58q140 78 283 78q62 0 121.5 -15.5t119.5 -53.5t104.5 -94t72.5 -143.5t28 -195.5v-379h183v-124h-306v503q0 82 -19 148t-50.5 108t-74.5 70t-87 39.5t-92 11.5 q-108 0 -214 -56.5t-192 -152.5v191h-334zM276 1309q0 31 2 61t10 71.5t21 77t37 72.5t56 62.5t80.5 42t107.5 16.5q49 0 96 -16.5t71.5 -33t52.5 -40.5l28 -25l22 -20t15.5 -14t9.5 -7.5t8 -4.5t8 -1q37 0 37 127h125q0 -252 -162 -252q-25 0 -49.5 9.5t-34.5 16.5 t-34.5 28.5t-26.5 23.5q-1 1 -26 23.5t-38.5 31.5t-42.5 20t-59 11q-49 0 -85 -19.5t-56 -48.5t-31.5 -69.5t-15 -73t-3.5 -69.5h-123zM395 152v626q86 106 191 166t215 60q57 0 107 -17.5t93.5 -55.5t69 -109t25.5 -167v-532h334v-123h-457v655q0 226 -172 226 q-72 0 -146 -39.5t-137 -110.5v-455h182v-124h-305zM428 1309q0 252 162 252q25 0 49.5 -9.5t36.5 -18t34 -28t25 -22.5q5 -4 22 -20t28.5 -24.5t30 -19.5t40 -16.5t45.5 -5.5q49 0 85 19.5t56 48.5t31.5 69.5t15 73t3.5 69.5h122q0 -31 -2 -61t-10 -71.5t-21 -77 t-36.5 -72.5t-55.5 -62.5t-80.5 -42t-107.5 -16.5q-50 0 -96 16t-69 31.5t-52.5 41t-30.5 26.5q-9 8 -20 18t-15 14t-10 8.5t-9.5 5.5t-8.5 1q-37 0 -37 -127h-125z" />
<glyph unicode="&#xf2;" horiz-adv-x="1261" d="M43 567q0 160 79 296t214.5 215t294.5 79t295 -79t215.5 -215t79.5 -296q0 -159 -79.5 -294.5t-215.5 -214t-295 -78.5t-294.5 78.5t-214.5 214t-79 294.5zM166 567q0 -125 63 -232t170 -170t232 -63t232 63t170 170t63 232q0 126 -63 233t-170 169.5t-232 62.5 t-232 -62.5t-170 -169.5t-63 -233zM195 567q0 183 127 310t309 127t309 -127t127 -310q0 -181 -127.5 -308.5t-308.5 -127.5t-308.5 127.5t-127.5 308.5zM311 1577l68 102l489 -323l-67 -103zM319 567q0 -129 91.5 -220t220.5 -91q130 0 221.5 91t91.5 220 q0 131 -91.5 222.5t-221.5 91.5q-129 0 -220.5 -92t-91.5 -222zM395 1704l68 104l489 -325l-67 -103z" />
<glyph unicode="&#xf3;" horiz-adv-x="1261" d="M43 567q0 160 79 296t214.5 215t294.5 79t295 -79t215.5 -215t79.5 -296q0 -159 -79.5 -294.5t-215.5 -214t-295 -78.5t-294.5 78.5t-214.5 214t-79 294.5zM166 567q0 -125 63 -232t170 -170t232 -63t232 63t170 170t63 232q0 126 -63 233t-170 169.5t-232 62.5 t-232 -62.5t-170 -169.5t-63 -233zM195 567q0 183 127 310t309 127t309 -127t127 -310q0 -181 -127.5 -308.5t-308.5 -127.5t-308.5 127.5t-127.5 308.5zM311 1483l490 325l67 -104l-489 -324zM319 567q0 -129 91.5 -220t220.5 -91q130 0 221.5 91t91.5 220 q0 131 -91.5 222.5t-221.5 91.5q-129 0 -220.5 -92t-91.5 -222zM395 1356l490 323l67 -102l-489 -324z" />
<glyph unicode="&#xf4;" horiz-adv-x="1261" d="M43 567q0 160 79 296t214.5 215t294.5 79t295 -79t215.5 -215t79.5 -296q0 -159 -79.5 -294.5t-215.5 -214t-295 -78.5t-294.5 78.5t-214.5 214t-79 294.5zM166 567q0 -125 63 -232t170 -170t232 -63t232 63t170 170t63 232q0 126 -63 233t-170 169.5t-232 62.5 t-232 -62.5t-170 -169.5t-63 -233zM195 567q0 183 127 310t309 127t309 -127t127 -310q0 -181 -127.5 -308.5t-308.5 -127.5t-308.5 127.5t-127.5 308.5zM233 1499l398 285l395 -285l-72 -100l-323 233l-324 -233zM319 567q0 -129 91.5 -220t220.5 -91q130 0 221.5 91 t91.5 220q0 131 -91.5 222.5t-221.5 91.5q-129 0 -220.5 -92t-91.5 -222zM324 1374l307 221l307 -221l-72 -100l-235 170l-236 -170z" />
<glyph unicode="&#xf5;" horiz-adv-x="1261" d="M43 567q0 160 79 296t214.5 215t294.5 79t295 -79t215.5 -215t79.5 -296q0 -159 -79.5 -294.5t-215.5 -214t-295 -78.5t-294.5 78.5t-214.5 214t-79 294.5zM162 1309q0 31 2 61t10 71.5t21 77t36.5 72.5t55.5 62.5t80.5 42t107.5 16.5q49 0 96 -16.5t71.5 -33t52.5 -40.5 l28 -25l22 -20t15.5 -14t9.5 -7.5t8 -4.5t8 -1q37 0 37 127h125q0 -252 -162 -252q-25 0 -49.5 9.5t-34.5 16.5t-34.5 28.5t-26.5 23.5q-1 1 -26 23.5t-38.5 31.5t-42.5 20t-59 11q-190 0 -190 -280h-123zM166 567q0 -125 63 -232t170 -170t232 -63t232 63t170 170t63 232 q0 126 -63 233t-170 169.5t-232 62.5t-232 -62.5t-170 -169.5t-63 -233zM195 567q0 183 127 310t309 127t309 -127t127 -310q0 -181 -127.5 -308.5t-308.5 -127.5t-308.5 127.5t-127.5 308.5zM313 1309q0 252 162 252q25 0 50 -10t36.5 -18t34.5 -28t25 -22q1 -1 27.5 -25 t38.5 -31.5t40.5 -18.5t58.5 -11q49 0 85 19.5t56 48.5t31.5 69.5t15 73t3.5 69.5h123q0 -31 -2 -61t-10 -71.5t-21 -77t-37 -72.5t-56 -62.5t-80.5 -42t-107.5 -16.5q-50 0 -96 16t-68.5 31.5t-52 41t-30.5 26.5q-7 7 -16.5 15.5t-14 12.5t-10 8.5t-8.5 6t-7 3t-8 1.5 q-37 0 -37 -127h-125zM319 567q0 -129 91.5 -220t220.5 -91q130 0 221.5 91t91.5 220q0 131 -91.5 222.5t-221.5 91.5q-129 0 -220.5 -92t-91.5 -222z" />
<glyph unicode="&#xf6;" horiz-adv-x="1261" d="M43 567q0 160 79 296t214.5 215t294.5 79t295 -79t215.5 -215t79.5 -296q0 -159 -79.5 -294.5t-215.5 -214t-295 -78.5t-294.5 78.5t-214.5 214t-79 294.5zM166 567q0 -125 63 -232t170 -170t232 -63t232 63t170 170t63 232q0 126 -63 233t-170 169.5t-232 62.5 t-232 -62.5t-170 -169.5t-63 -233zM184 1485q0 88 63 151.5t152 63.5q88 0 150.5 -63.5t62.5 -151.5q0 -89 -62.5 -152t-150.5 -63q-89 0 -152 63t-63 152zM195 567q0 183 127 310t309 127t309 -127t127 -310q0 -181 -127.5 -308.5t-308.5 -127.5t-308.5 127.5t-127.5 308.5 zM303 1485q0 -40 28 -68t68 -28q39 0 67 28.5t28 67.5q0 38 -28.5 66t-66.5 28q-40 0 -68 -28t-28 -66zM319 567q0 -129 91.5 -220t220.5 -91q130 0 221.5 91t91.5 220q0 131 -91.5 222.5t-221.5 91.5q-129 0 -220.5 -92t-91.5 -222zM332 1485q0 28 19 46.5t48 18.5 q28 0 47 -18.5t19 -46.5q0 -29 -19 -48.5t-47 -19.5q-29 0 -48 19.5t-19 48.5zM649 1485q0 88 63.5 151.5t151.5 63.5q89 0 152 -63.5t63 -151.5q0 -89 -63 -152t-152 -63q-88 0 -151.5 63t-63.5 152zM770 1485q0 -40 28 -68t66 -28q40 0 68.5 28t28.5 68q0 38 -28.5 66 t-68.5 28q-38 0 -66 -28t-28 -66zM799 1485q0 28 18.5 46.5t46.5 18.5q29 0 48.5 -18.5t19.5 -46.5q0 -29 -19.5 -48.5t-48.5 -19.5q-28 0 -46.5 19.5t-18.5 48.5z" />
<glyph unicode="&#xf7;" horiz-adv-x="1073" d="M74 612v123h925v-123h-925zM74 764v123h925v-123h-925zM322 371q0 89 63 152t152 63q88 0 151.5 -63t63.5 -152q0 -88 -63.5 -151.5t-151.5 -63.5q-89 0 -152 63.5t-63 151.5zM322 1128q0 89 63 152t152 63q88 0 151.5 -63t63.5 -152q0 -88 -63.5 -151.5t-151.5 -63.5 q-89 0 -152 63.5t-63 151.5zM440 371q0 -38 28.5 -66.5t68.5 -28.5q38 0 66 28.5t28 66.5q0 40 -28 68t-66 28q-40 0 -68.5 -28t-28.5 -68zM440 1128q0 -38 28.5 -66t68.5 -28q38 0 66 28t28 66q0 40 -28 68.5t-66 28.5q-40 0 -68.5 -28.5t-28.5 -68.5zM469 371 q0 29 19.5 48t48.5 19q28 0 46.5 -19t18.5 -48q0 -28 -18.5 -47t-46.5 -19q-29 0 -48.5 19t-19.5 47zM469 1128q0 29 19.5 48.5t48.5 19.5q28 0 46.5 -19.5t18.5 -48.5q0 -28 -18.5 -46.5t-46.5 -18.5q-29 0 -48.5 18.5t-19.5 46.5z" />
<glyph unicode="&#xf8;" horiz-adv-x="1261" d="M45 567q0 160 79 296t214.5 215t294.5 79q107 0 205 -39l12 19h149l-120 -176q-114 71 -246 71q-125 0 -232 -62.5t-170 -169.5t-63 -233q0 -112 50 -210t138 -162l-133 -195h-149l121 176q-150 166 -150 391zM197 567q0 183 127 310t309 127q122 0 231 -66l-493 -721 q-81 61 -127.5 153t-46.5 197zM260 0l121 178q112 -76 252 -76q125 0 232 63t170 170t63 232q0 113 -52.5 212t-142.5 165l133 193h148l-117 -172q74 -80 115 -182.5t41 -215.5q0 -159 -79.5 -294.5t-215.5 -214t-295 -78.5q-113 0 -213 38l-12 -18h-148zM322 567 q0 -87 36 -149l316 461q-14 2 -41 2q-129 0 -220 -92t-91 -222zM395 201l494 721q84 -61 132 -154t48 -201q0 -181 -127.5 -308.5t-308.5 -127.5q-132 0 -238 70zM584 260q32 -4 49 -4q130 0 221.5 91t91.5 220q0 86 -43 158z" />
<glyph unicode="&#xf9;" horiz-adv-x="1400" d="M4 860v125h305v-504q0 -82 19.5 -148t51 -108t74 -70t87 -39.5t92.5 -11.5q108 0 215 57t190 156v-194h334v-123h-459v55q-140 -75 -280 -75q-63 0 -123.5 15.5t-120.5 53t-104.5 93.5t-72.5 143.5t-28 195.5v379h-180zM4 1014v123h457v-656q0 -225 172 -225 q70 0 142.5 39t137.5 111v454h-180v125h305v-627q-83 -104 -189.5 -164.5t-215.5 -60.5q-57 0 -107 17.5t-93.5 55.5t-69 108.5t-25.5 166.5v533h-334zM367 1577l67 102l490 -323l-68 -103zM451 1704l67 104l490 -325l-68 -103zM733 1014v123h457v-861h182v-124h-305v862 h-334z" />
<glyph unicode="&#xfa;" horiz-adv-x="1400" d="M4 860v125h305v-504q0 -82 19.5 -148t51 -108t74 -70t87 -39.5t92.5 -11.5q108 0 215 57t190 156v-194h334v-123h-459v55q-140 -75 -280 -75q-63 0 -123.5 15.5t-120.5 53t-104.5 93.5t-72.5 143.5t-28 195.5v379h-180zM4 1014v123h457v-656q0 -225 172 -225 q70 0 142.5 39t137.5 111v454h-180v125h305v-627q-83 -104 -189.5 -164.5t-215.5 -60.5q-57 0 -107 17.5t-93.5 55.5t-69 108.5t-25.5 166.5v533h-334zM367 1483l489 325l68 -104l-490 -324zM451 1356l489 323l68 -102l-490 -324zM733 1014v123h457v-861h182v-124h-305v862 h-334z" />
<glyph unicode="&#xfb;" horiz-adv-x="1400" d="M4 860v125h305v-504q0 -82 19.5 -148t51 -108t74 -70t87 -39.5t92.5 -11.5q108 0 215 57t190 156v-194h334v-123h-459v55q-140 -75 -280 -75q-63 0 -123.5 15.5t-120.5 53t-104.5 93.5t-72.5 143.5t-28 195.5v379h-180zM4 1014v123h457v-656q0 -225 172 -225 q70 0 142.5 39t137.5 111v454h-180v125h305v-627q-83 -104 -189.5 -164.5t-215.5 -60.5q-57 0 -107 17.5t-93.5 55.5t-69 108.5t-25.5 166.5v533h-334zM291 1499l397 285l395 -285l-71 -100l-324 233l-323 -233zM381 1374l307 221l307 -221l-71 -100l-236 170l-235 -170z M733 1014v123h457v-861h182v-124h-305v862h-334z" />
<glyph unicode="&#xfc;" horiz-adv-x="1400" d="M4 860v125h305v-504q0 -82 19.5 -148t51 -108t74 -70t87 -39.5t92.5 -11.5q108 0 215 57t190 156v-194h334v-123h-459v55q-140 -75 -280 -75q-63 0 -123.5 15.5t-120.5 53t-104.5 93.5t-72.5 143.5t-28 195.5v379h-180zM4 1014v123h457v-656q0 -225 172 -225 q70 0 142.5 39t137.5 111v454h-180v125h305v-627q-83 -104 -189.5 -164.5t-215.5 -60.5q-57 0 -107 17.5t-93.5 55.5t-69 108.5t-25.5 166.5v533h-334zM242 1485q0 88 63 151.5t152 63.5q88 0 150.5 -63.5t62.5 -151.5q0 -89 -62.5 -152t-150.5 -63q-89 0 -152 63t-63 152z M360 1485q0 -40 28.5 -68t68.5 -28q38 0 66 28t28 68q0 38 -28 66t-66 28q-40 0 -68.5 -28t-28.5 -66zM389 1485q0 28 19.5 46.5t48.5 18.5q28 0 46.5 -18.5t18.5 -46.5q0 -29 -18.5 -48.5t-46.5 -19.5q-29 0 -48.5 19.5t-19.5 48.5zM707 1485q0 88 63.5 151.5t151.5 63.5 q89 0 152 -63.5t63 -151.5q0 -89 -63 -152t-152 -63q-88 0 -151.5 63t-63.5 152zM733 1014v123h457v-861h182v-124h-305v862h-334zM827 1485q0 -39 28.5 -67.5t66.5 -28.5q40 0 68 28t28 68q0 38 -28 66t-68 28q-38 0 -66.5 -28t-28.5 -66zM856 1485q0 28 19 46.5t47 18.5 q29 0 48 -18.5t19 -46.5q0 -29 -19 -48.5t-48 -19.5q-28 0 -47 19.5t-19 48.5z" />
<glyph unicode="&#xfd;" horiz-adv-x="1404" d="M-178 -334l106 62q34 -60 79 -104t93 -67t92.5 -33.5t90.5 -10.5q127 0 226.5 89t186.5 292l471 1091h260v-125h-178l-440 -1016q-99 -229 -228 -341.5t-298 -112.5q-58 0 -115.5 13t-120 42.5t-121.5 86t-104 134.5zM-47 -258l108 61q77 -137 222 -137q76 0 140.5 65 t133.5 224l-393 905h-189v125h269l448 -1030l-20 -49q-80 -190 -175.5 -277.5t-213.5 -87.5q-211 0 -330 201zM-25 1014v123h619v-123h-619zM274 985h320v-125h-129l242 -559l241 559h-139v125h328l-430 -997zM381 1483l489 325l68 -104l-489 -324zM465 1356l489 323 l68 -102l-490 -324zM809 1014v123h618v-123h-618z" />
<glyph unicode="&#xfe;" horiz-adv-x="1374" d="M-29 -233h181v1554h-181v125h305v-1802h-305v123zM-29 -385h639v-123h-639v123zM-29 1475v122h457v-532q145 92 315 92q159 0 295 -79t215.5 -215t79.5 -296q0 -159 -79.5 -294.5t-215.5 -214t-295 -78.5q-175 0 -315 92v-305h182v-123h-305v768q48 -136 168.5 -223 t269.5 -87q125 0 232 63t170 170t63 232q0 126 -63 233t-170 169.5t-232 62.5q-149 0 -269.5 -87t-168.5 -224v754h-334zM307 567q0 183 127 310t309 127t309.5 -127t127.5 -310q0 -181 -127.5 -308.5t-309.5 -127.5q-181 0 -308.5 127.5t-127.5 308.5zM432 567 q0 -129 91 -220t220 -91q130 0 222 91t92 220q0 131 -91.5 222.5t-222.5 91.5q-129 0 -220 -92t-91 -222z" />
<glyph unicode="&#xff;" horiz-adv-x="1404" d="M-178 -334l106 62q34 -60 79 -104t93 -67t92.5 -33.5t90.5 -10.5q127 0 226.5 89t186.5 292l471 1091h260v-125h-178l-440 -1016q-99 -229 -228 -341.5t-298 -112.5q-58 0 -115.5 13t-120 42.5t-121.5 86t-104 134.5zM-47 -258l108 61q77 -137 222 -137q76 0 140.5 65 t133.5 224l-393 905h-189v125h269l448 -1030l-20 -49q-80 -190 -175.5 -277.5t-213.5 -87.5q-211 0 -330 201zM-25 1014v123h619v-123h-619zM256 1485q0 88 63 151.5t152 63.5q88 0 150.5 -63.5t62.5 -151.5q0 -89 -62.5 -152t-150.5 -63q-89 0 -152 63t-63 152zM274 985 h320v-125h-129l242 -559l241 559h-139v125h328l-430 -997zM375 1485q0 -40 28 -68t68 -28q38 0 66 28t28 68q0 38 -28 66t-66 28q-40 0 -68 -28t-28 -66zM403 1485q0 28 19.5 46.5t48.5 18.5q28 0 47 -18.5t19 -46.5q0 -29 -19 -48.5t-47 -19.5q-29 0 -48.5 19.5t-19.5 48.5 zM721 1485q0 88 63.5 151.5t151.5 63.5q89 0 152 -63.5t63 -151.5q0 -89 -63 -152t-152 -63q-88 0 -151.5 63t-63.5 152zM809 1014v123h618v-123h-618zM842 1485q0 -40 28 -68t66 -28q40 0 68 28t28 68q0 38 -28 66t-68 28q-38 0 -66 -28t-28 -66zM870 1485q0 28 19 46.5 t47 18.5q29 0 48.5 -18.5t19.5 -46.5q0 -29 -19.5 -48.5t-48.5 -19.5q-28 0 -47 19.5t-19 48.5z" />
<glyph unicode="&#x152;" horiz-adv-x="2213" d="M53 799q0 130 38 249.5t113 219t179.5 173.5t246 115t304.5 41h1182v-491h-125v369h-1057q-176 0 -320.5 -53.5t-239.5 -145.5t-146.5 -214.5t-51.5 -262.5t51.5 -262.5t146.5 -214.5t239.5 -145.5t320.5 -53.5h1094v369h124v-492h-1218q-163 0 -304.5 41.5t-246 115 t-179.5 173.5t-113 219.5t-38 249.5zM205 799q0 108 30.5 205t91.5 177.5t147.5 139.5t204 92t255.5 33h196v-1294h-196q-138 0 -255.5 33t-204 92t-147.5 139.5t-91.5 177.5t-30.5 205zM330 799q0 -111 39.5 -205.5t114 -165.5t190 -111.5t260.5 -40.5h72v1045h-72 q-145 0 -260.5 -40t-190 -111t-114 -165.5t-39.5 -205.5zM1159 152v647h635v-125h-512v-398h594v216h123v-340h-840zM1159 827v619h803v-340h-123v215h-557v-371h512v-123h-635z" />
<glyph unicode="&#x153;" horiz-adv-x="2125" d="M43 569q0 160 79 296t214.5 215t294.5 79q131 0 249 -56t201 -153q80 97 195.5 153t257.5 56q126 0 232 -44.5t174 -119.5t106 -168t35.5 -196.5t-45.5 -198.5h-785q38 -80 118.5 -127t191.5 -47q163 0 299 109l77 -99q-177 -135 -376 -135q-202 0 -330 121.5t-133 300.5 h850q19 86 -1.5 171.5t-72.5 154t-141 111t-199 42.5q-172 0 -294 -100.5t-159 -253.5q-37 153 -163.5 253.5t-286.5 100.5q-125 0 -232 -62.5t-170 -169.5t-63 -233q0 -125 63 -232t170 -170t232 -63q160 0 285.5 100.5t164.5 252.5q38 -155 167.5 -254t312.5 -99 q209 0 393 144l80 -94q-97 -80 -223 -126t-250 -46q-149 0 -272.5 55t-207.5 153q-84 -97 -201 -152.5t-249 -55.5q-159 0 -294.5 78.5t-214.5 214t-79 294.5zM195 569q0 183 127 310t309 127t309 -127t127 -310q0 -181 -127.5 -308.5t-308.5 -127.5t-308.5 127.5 t-127.5 308.5zM319 569q0 -129 91.5 -220t220.5 -91q130 0 221.5 91t91.5 220q0 131 -91.5 222.5t-221.5 91.5q-129 0 -220.5 -92t-91.5 -222zM1098 584q4 114 57 209t152.5 154t226.5 59q98 0 179 -37t130 -97t70.5 -135.5t9.5 -152.5h-825zM1251 709h547q-24 76 -94 125 t-170 49t-173 -47.5t-110 -126.5z" />
<glyph unicode="&#x178;" horiz-adv-x="1558" d="M-31 1321v125h283l514 -811v-483h-309v124h184v324l-457 721h-215zM-31 1475v122h645v-122h-645zM287 1446h327v-125h-100l266 -422l267 422h-101v125h326l-492 -778zM334 1907q0 88 63 151.5t152 63.5q88 0 150.5 -63.5t62.5 -151.5q0 -89 -62.5 -152t-150.5 -63 q-89 0 -152 63t-63 152zM453 1907q0 -40 28 -68.5t68 -28.5q38 0 66 28.5t28 68.5q0 38 -28 66t-66 28q-40 0 -68 -28t-28 -66zM457 0v123h645v-123h-645zM481 1907q0 28 19.5 46.5t48.5 18.5q28 0 46.5 -18.5t18.5 -46.5q0 -29 -18.5 -48.5t-46.5 -19.5q-29 0 -48.5 19.5 t-19.5 48.5zM795 152v483l512 811h282v-125h-217l-454 -721v-324h184v-124h-307zM799 1907q0 88 63.5 151.5t151.5 63.5q89 0 152 -63.5t63 -151.5q0 -89 -63 -152t-152 -63q-88 0 -151.5 63t-63.5 152zM920 1907q0 -40 28 -68.5t66 -28.5q40 0 68 28.5t28 68.5q0 38 -28 66 t-68 28q-38 0 -66 -28t-28 -66zM946 1475v122h643v-122h-643zM948 1907q0 28 19 46.5t47 18.5q29 0 48 -18.5t19 -46.5q0 -29 -19 -48.5t-48 -19.5q-28 0 -47 19.5t-19 48.5z" />
<glyph unicode="&#x2c6;" horiz-adv-x="677" d="M-248 1499l398 285l395 -285l-72 -100l-323 233l-324 -233zM-158 1374l308 221l307 -221l-72 -100l-235 170l-236 -170z" />
<glyph unicode="&#x2dc;" horiz-adv-x="679" d="M-152 1309q0 31 2 61t10 71.5t21 77t37 72.5t56 62.5t80.5 42t107.5 16.5q49 0 96 -16.5t71.5 -33t52.5 -40.5l28 -25l22 -20t15.5 -14t9.5 -7.5t8 -4.5t8 -1q37 0 37 127h125q0 -252 -162 -252q-25 0 -49.5 9.5t-34.5 16.5t-34.5 28.5t-26.5 23.5q-1 1 -26 23.5 t-38.5 31.5t-42.5 20t-59 11q-49 0 -85 -19.5t-56 -48.5t-31.5 -69.5t-15 -73t-3.5 -69.5h-123zM0 1309q0 252 162 252q25 0 49.5 -9.5t36.5 -18t34 -28t25 -22.5q5 -4 22 -20t28.5 -24.5t30 -19.5t40 -16.5t45.5 -5.5q49 0 85 19.5t56 48.5t31.5 69.5t15 73t3.5 69.5h122 q0 -31 -2 -61t-10 -71.5t-21 -77t-36.5 -72.5t-55.5 -62.5t-80.5 -42t-107.5 -16.5q-50 0 -96 16t-69 31.5t-52.5 41t-30.5 26.5q-9 8 -20 18t-15 14t-10 8.5t-9.5 5.5t-8.5 1q-37 0 -37 -127h-125z" />
<glyph unicode="&#x2000;" horiz-adv-x="1115" />
<glyph unicode="&#x2001;" horiz-adv-x="2230" />
<glyph unicode="&#x2002;" horiz-adv-x="1115" />
<glyph unicode="&#x2003;" horiz-adv-x="2230" />
<glyph unicode="&#x2004;" horiz-adv-x="743" />
<glyph unicode="&#x2005;" horiz-adv-x="557" />
<glyph unicode="&#x2006;" horiz-adv-x="371" />
<glyph unicode="&#x2007;" horiz-adv-x="371" />
<glyph unicode="&#x2008;" horiz-adv-x="278" />
<glyph unicode="&#x2009;" horiz-adv-x="446" />
<glyph unicode="&#x200a;" horiz-adv-x="123" />
<glyph unicode="&#x2010;" horiz-adv-x="802" d="M104 528v123h592v-123h-592zM104 680v123h592v-123h-592z" />
<glyph unicode="&#x2011;" horiz-adv-x="802" d="M104 528v123h592v-123h-592zM104 680v123h592v-123h-592z" />
<glyph unicode="&#x2012;" horiz-adv-x="802" d="M104 528v123h592v-123h-592zM104 680v123h592v-123h-592z" />
<glyph unicode="&#x2013;" horiz-adv-x="1222" d="M104 528v123h1010v-123h-1010zM104 680v123h1010v-123h-1010z" />
<glyph unicode="&#x2014;" horiz-adv-x="1548" d="M104 528v123h1336v-123h-1336zM104 680v123h1336v-123h-1336z" />
<glyph unicode="&#x2018;" horiz-adv-x="577" d="M61 1161q0 68 24.5 148t60 145t71 120.5t59.5 86.5l25 31l88 -76q-9 -10 -23 -28.5t-50.5 -73.5t-64 -107.5t-50.5 -122.5t-23 -127q0 -71 31 -105t74 -34q40 0 68 28t28 68q0 12 -3.5 23.5t-7 19t-11 16.5t-11 12t-12.5 10l-8 7l-13 -26q37 -28 37 -62q0 -29 -19 -48 t-48 -19q-32 0 -54 27.5t-22 86.5q0 52 21.5 116t51.5 118t60.5 100.5t51.5 72.5l22 27l90 -75q-80 -96 -137 -207q131 -67 131 -199q0 -89 -63 -152t-152 -63q-92 0 -157 71t-65 191z" />
<glyph unicode="&#x2019;" horiz-adv-x="567" d="M70 1063q80 96 137 207q-131 67 -131 198q0 89 63 152t152 63q92 0 156.5 -71t64.5 -191q0 -68 -24.5 -148t-60 -145t-71 -120t-60.5 -86l-24 -31l-88 76q9 10 23 28.5t50.5 73t64 107t50.5 122.5t23 127q0 71 -30.5 105.5t-73.5 34.5q-40 0 -68 -28.5t-28 -68.5 q0 -12 3.5 -23.5t7 -19t11 -16.5t11 -12t12.5 -10l8 -7l12 27q-37 28 -37 61q0 29 19.5 48.5t48.5 19.5q32 0 54 -27.5t22 -87.5q0 -52 -21.5 -116t-51.5 -118t-60.5 -100.5t-51.5 -72.5l-22 -27z" />
<glyph unicode="&#x201a;" horiz-adv-x="569" d="M53 -233q80 95 137 206q-131 67 -131 199q0 89 63 152t152 63q92 0 157 -71t65 -191q0 -68 -24.5 -148t-60 -145t-71 -120.5t-60.5 -86.5l-24 -31l-88 76q9 10 23 28.5t50.5 73.5t64 107.5t50.5 122.5t23 127q0 71 -31 105t-74 34q-40 0 -68 -28t-28 -68q0 -12 3.5 -23.5 t7 -19t11 -16.5t11 -12t11.5 -10l9 -7l13 27q-37 28 -37 61q0 29 19 48.5t48 19.5q32 0 54 -27.5t22 -87.5q0 -52 -21.5 -116t-52 -118t-60.5 -100.5t-52 -72.5l-21 -27z" />
<glyph unicode="&#x201c;" horiz-adv-x="1071" d="M61 1161q0 68 24.5 148t60 145t71 120.5t59.5 86.5l25 31l88 -76q-9 -10 -23 -28.5t-50.5 -73.5t-64 -107.5t-50.5 -122.5t-23 -127q0 -71 31 -105t74 -34q40 0 68 28t28 68q0 12 -3.5 23.5t-7 19t-11 16.5t-11 12t-12.5 10l-8 7l-13 -26q37 -28 37 -62q0 -29 -19 -48 t-48 -19q-32 0 -54 27.5t-22 86.5q0 52 21.5 116t51.5 118t60.5 100.5t51.5 72.5l22 27l90 -75q-80 -96 -137 -207q131 -67 131 -199q0 -89 -63 -152t-152 -63q-92 0 -157 71t-65 191zM555 1161q0 68 24.5 148t60 145t71 120.5t59.5 86.5l25 31l88 -76q-9 -10 -23 -28.5 t-50.5 -73.5t-64 -107.5t-50.5 -122.5t-23 -127q0 -71 30.5 -105t73.5 -34q40 0 68 28t28 68q0 12 -3.5 23.5t-7 19t-11 16.5t-11 12t-11.5 10l-9 7l-12 -26q37 -28 37 -62q0 -29 -19.5 -48t-48.5 -19q-32 0 -54 27.5t-22 86.5q0 52 21.5 116t52 118t60.5 100.5t52 72.5 l21 27l90 -75q-80 -96 -137 -207q131 -67 131 -199q0 -89 -63 -152t-152 -63q-92 0 -156.5 71t-64.5 191z" />
<glyph unicode="&#x201d;" horiz-adv-x="1058" d="M72 1063q80 96 137 207q-131 67 -131 198q0 89 63 152t152 63q92 0 156.5 -71t64.5 -191q0 -68 -24.5 -148t-60 -145t-71 -120t-60.5 -86l-24 -31l-88 76q9 10 23 28.5t50.5 73t64 107t50.5 122.5t23 127q0 71 -30.5 105.5t-73.5 34.5q-40 0 -68 -28.5t-28 -68.5 q0 -12 3.5 -23.5t7 -19t11 -16.5t11 -12t12.5 -10l8 -7l12 27q-37 28 -37 61q0 29 19.5 48.5t48.5 19.5q32 0 54 -27.5t22 -87.5q0 -52 -21.5 -116t-51.5 -118t-60.5 -100.5t-51.5 -72.5l-22 -27zM561 1063q80 96 137 207q-131 67 -131 198q0 89 63 152t152 63q92 0 157 -71 t65 -191q0 -68 -24.5 -148t-60 -145t-71 -120t-60.5 -86l-24 -31l-88 76q9 10 23 28.5t50.5 73t64 107t50.5 122.5t23 127q0 71 -31 105.5t-74 34.5q-40 0 -68 -28.5t-28 -68.5q0 -12 3.5 -23.5t7 -19t11 -16.5t11 -12t11.5 -10l9 -7l13 27q-37 28 -37 61q0 29 19 48.5 t48 19.5q32 0 54 -27.5t22 -87.5q0 -52 -21.5 -116t-52 -118t-60.5 -100.5t-52 -72.5l-21 -27z" />
<glyph unicode="&#x201e;" horiz-adv-x="1056" d="M53 -233q80 95 137 206q-131 67 -131 199q0 89 63 152t152 63q92 0 157 -71t65 -191q0 -68 -24.5 -148t-60 -145t-71 -120.5t-60.5 -86.5l-24 -31l-88 76q9 10 23 28.5t50.5 73.5t64 107.5t50.5 122.5t23 127q0 71 -31 105t-74 34q-40 0 -68 -28t-28 -68q0 -12 3.5 -23.5 t7 -19t11 -16.5t11 -12t11.5 -10l9 -7l13 27q-37 28 -37 61q0 29 19 48.5t48 19.5q32 0 54 -27.5t22 -87.5q0 -52 -21.5 -116t-52 -118t-60.5 -100.5t-52 -72.5l-21 -27zM541 -233q80 95 137 206q-131 67 -131 199q0 89 63 152t152 63q92 0 156.5 -71t64.5 -191 q0 -68 -24.5 -148t-60 -145t-71 -120.5t-59.5 -86.5l-25 -31l-88 76q9 10 23 28.5t50.5 73.5t64 107.5t50.5 122.5t23 127q0 71 -30.5 105t-73.5 34q-40 0 -68 -28t-28 -68q0 -12 3.5 -23.5t7 -19t11 -16.5t11 -12t11.5 -10l9 -7l12 27q-37 28 -37 61q0 29 19.5 48.5 t48.5 19.5q32 0 54 -27.5t22 -87.5q0 -52 -21.5 -116t-52 -118t-60.5 -100.5t-52 -72.5l-21 -27z" />
<glyph unicode="&#x2022;" horiz-adv-x="876" d="M139 664q0 125 87.5 213t211.5 88q123 0 211 -88.5t88 -212.5q0 -123 -88 -211t-211 -88q-124 0 -211.5 88t-87.5 211zM262 664q0 -72 51.5 -123.5t124.5 -51.5t124.5 51.5t51.5 123.5q0 74 -51 125t-125 51t-125 -51t-51 -125zM291 664q0 62 42.5 104.5t104.5 42.5 q60 0 104 -43t44 -104q0 -60 -44 -103t-104 -43q-61 0 -104 43t-43 103z" />
<glyph unicode="&#x2026;" horiz-adv-x="1640" d="M82 197q0 89 63 152t152 63q88 0 151.5 -63t63.5 -152q0 -88 -63.5 -151.5t-151.5 -63.5q-89 0 -152 63.5t-63 151.5zM201 197q0 -39 28.5 -67t67.5 -28q38 0 66 28.5t28 66.5q0 40 -28 68t-66 28q-40 0 -68 -28t-28 -68zM229 197q0 29 19.5 48t48.5 19q28 0 46.5 -19 t18.5 -48q0 -28 -18.5 -47t-46.5 -19q-29 0 -48.5 19t-19.5 47zM606 197q0 89 63 152t152 63q88 0 151.5 -63t63.5 -152q0 -88 -63.5 -151.5t-151.5 -63.5q-89 0 -152 63.5t-63 151.5zM725 197q0 -39 28.5 -67t67.5 -28q38 0 66 28.5t28 66.5q0 40 -28 68t-66 28 q-40 0 -68 -28t-28 -68zM754 197q0 29 19 48t48 19q28 0 47 -19t19 -48q0 -28 -19 -47t-47 -19q-29 0 -48 19t-19 47zM1130 197q0 89 63.5 152t152.5 63q88 0 151.5 -63t63.5 -152q0 -88 -63.5 -151.5t-151.5 -63.5q-89 0 -152.5 63.5t-63.5 151.5zM1249 197 q0 -38 28.5 -66.5t68.5 -28.5q38 0 66 28.5t28 66.5q0 40 -28 68t-66 28q-40 0 -68.5 -28t-28.5 -68zM1278 197q0 29 19.5 48t48.5 19q28 0 46.5 -19t18.5 -48q0 -28 -18.5 -47t-46.5 -19q-29 0 -48.5 19t-19.5 47z" />
<glyph unicode="&#x202f;" horiz-adv-x="446" />
<glyph unicode="&#x2039;" horiz-adv-x="741" d="M74 571l90 84l383 -403l-90 -84zM74 760l383 403l90 -84l-383 -403zM195 666l372 393l92 -84l-294 -309l294 -310l-92 -84z" />
<glyph unicode="&#x203a;" horiz-adv-x="741" d="M82 356l295 310l-295 309l92 84l373 -393l-373 -394zM195 252l383 403l90 -84l-383 -403zM195 1079l90 84l383 -403l-90 -84z" />
<glyph unicode="&#x205f;" horiz-adv-x="557" />
<glyph unicode="&#x20ac;" horiz-adv-x="1802" d="M84 479v125h250q65 -224 254 -368t426 -144q160 0 312.5 57t275.5 164l84 -92q-135 -119 -315 -185.5t-357 -66.5q-254 0 -461.5 141t-304.5 369h-164zM84 633v123h102q-2 14 -2 43v30h-100v125h240q-17 -87 -17 -155q0 -82 19 -166h-242zM84 983v123h160 q94 232 303.5 377t466.5 145q213 0 397 -102v71h123v-372q-60 126 -207.5 203t-312.5 77q-240 0 -430 -147.5t-252 -374.5h-248zM336 799q0 73 16 155h754v-125h-645v-30q0 -29 2 -43h557v-123h-664q-20 76 -20 166zM360 983q61 216 242 355t412 139q124 0 237 -42.5 t191 -124.5t92 -186v-211h-123v195q-12 100 -130.5 172t-266.5 72q-142 0 -263 -66.5t-198 -179.5h553v-123h-746zM365 604h655v-125h-459q76 -108 196 -170.5t257 -62.5q281 0 487 182l82 -92q-119 -105 -265 -160t-304 -55q-228 0 -407.5 135t-241.5 348zM1563 913v684 h123v-684h-123z" />
<glyph unicode="&#x2122;" horiz-adv-x="1640" d="M90 1395v88h248v-537h-88v449h-160zM90 1511v86h522v-86h-522zM367 946v537h245v-88h-159v-449h-86zM702 946v631h86v-631h-86zM815 1583l78 41l205 -383l205 383l77 -41l-280 -528zM817 946v576l270 -502l-77 -41l-107 197v-230h-86zM1112 1020l266 500v-574h-86v225 l-102 -192zM1407 946v631h88v-631h-88z" />
<glyph unicode="&#x25fc;" horiz-adv-x="1136" d="M0 0v1137h1137v-1137h-1137z" />
</font>
</defs>
</svg>
