<?xml version="1.0" standalone="no"?>
<!DOCTYPE svg PUBLIC "-//W3C//DTD SVG 1.1//EN" "http://www.w3.org/Graphics/SVG/1.1/DTD/svg11.dtd" >
<svg xmlns="http://www.w3.org/2000/svg">
<metadata></metadata>
<defs>
<font id="gist_upright_linelight" horiz-adv-x="1830" >
<font-face units-per-em="2048" ascent="1638" descent="-410" />
<missing-glyph horiz-adv-x="581" />
<glyph unicode="&#xfb01;" horiz-adv-x="1372" d="M-371 -268l29 -2q-10 -121 79.5 -202t221.5 -81q171 0 265.5 120.5t94.5 364.5v1074h-286v28h286v117q0 289 112 436.5t310 147.5q155 0 260 -102.5t93 -254.5l-29 4q12 137 -85 230.5t-239 93.5q-186 0 -289.5 -138.5t-103.5 -416.5v-117h719v-950h287v-29h-602v29h286 v922h-690v-1074q0 -256 -102.5 -385t-286.5 -129q-144 0 -242 90t-88 224z" />
<glyph unicode="&#xfb02;" horiz-adv-x="1527" d="M-371 -268l29 -2q-9 -123 79.5 -203t225.5 -80q164 0 260 122.5t96 362.5v1074h-286v28h286v187q0 253 112.5 383.5t303.5 130.5q117 0 217.5 -49t149.5 -119v-1217q0 -70 15 -123.5t37 -83.5t53 -49t58 -25t56 -6q93 0 178 74l19 -22q-96 -80 -197 -80q-31 0 -61 7 t-65 28t-61 54.5t-43.5 92t-17.5 133.5v1209q-48 64 -138.5 105.5t-199.5 41.5q-179 0 -283 -122t-104 -363v-187h434v-28h-434v-1074q0 -255 -103 -384.5t-282 -129.5q-148 0 -245.5 89t-88.5 225z" />
<glyph unicode="&#xfb03;" horiz-adv-x="2138" d="M-371 -268l29 -2q-9 -123 79.5 -203t225.5 -80q164 0 260 122.5t96 362.5v1074h-286v28h286v21q0 300 122.5 456t326.5 156q115 0 216 -50t159 -124q105 242 362 242q101 0 185 -45.5t131 -128t39 -183.5l-29 4q10 137 -87 230.5t-239 93.5q-185 0 -288 -138.5 t-103 -416.5v-117h717v-950h287v-29h-602v29h286v922h-688v-1074q0 -256 -103 -385t-288 -129q-128 0 -223 76l16 23q86 -70 207 -70q171 0 266.5 120.5t95.5 364.5v1074h-737v-1074q0 -255 -103 -384.5t-282 -129.5q-149 0 -246 89.5t-88 224.5zM348 1034h737v117 q0 187 45 309q-50 75 -148.5 126.5t-213.5 51.5q-189 0 -304.5 -149t-115.5 -434v-21z" />
<glyph unicode="&#xfb04;" horiz-adv-x="2291" d="M-371 -268l29 -2q-9 -123 79.5 -203t225.5 -80q164 0 260 122.5t96 362.5v1074h-286v28h286v27q0 298 121 452t324 154q113 0 212 -49t157 -121q50 118 144 178t222 60q119 0 219.5 -49t147.5 -119v-1217q0 -70 15 -123.5t37.5 -83.5t53.5 -49t58.5 -25t56.5 -6 q94 0 176 74l18 -22q-92 -80 -194 -80q-31 0 -61 7t-65.5 28t-62 54.5t-44 92t-17.5 133.5v1209q-47 63 -138 105t-200 42q-177 0 -281 -122t-104 -363v-187h432v-28h-432v-1074q0 -256 -103 -385t-288 -129q-128 0 -223 76l16 23q86 -70 207 -70q171 0 266.5 120.5 t95.5 364.5v1074h-737v-1074q0 -255 -103 -384.5t-282 -129.5q-149 0 -246 89.5t-88 224.5zM348 1034h737v187q0 138 35 241q-50 75 -146 125.5t-210 50.5q-188 0 -302 -147.5t-114 -429.5v-27z" />
<glyph horiz-adv-x="2048" />
<glyph horiz-adv-x="2048" />
<glyph unicode="&#xd;" horiz-adv-x="2048" />
<glyph unicode=" "  horiz-adv-x="581" />
<glyph unicode="&#x09;" horiz-adv-x="581" />
<glyph unicode="&#xa0;" horiz-adv-x="581" />
<glyph unicode="!" horiz-adv-x="585" d="M221 96q0 29 21.5 50.5t50.5 21.5t50.5 -21.5t21.5 -50.5t-21.5 -50t-50.5 -21t-50.5 21t-21.5 50zM250 96q0 -18 12.5 -30.5t30.5 -12.5t30.5 12.5t12.5 30.5q0 19 -12 31t-31 12t-31 -12t-12 -31zM279 424v1173h28v-1173h-28z" />
<glyph unicode="&#x22;" horiz-adv-x="899" d="M219 965v632h29v-632h-29zM653 965v632h29v-632h-29z" />
<glyph unicode="#" horiz-adv-x="1476" d="M96 496v28h328l94 533h-332v28h336l90 512h29l-90 -512h471l90 512h29l-90 -512h329v-28h-333l-95 -533h332v-28h-336l-86 -496h-28l86 496h-471l-87 -496h-28l86 496h-324zM453 524h471l94 533h-471z" />
<glyph unicode="$" horiz-adv-x="1224" d="M170 549l29 -2q-10 -98 16.5 -173.5t82 -121.5t128 -70.5t162.5 -29.5v643q-74 26 -124.5 47t-106.5 53.5t-89.5 67.5t-55.5 84.5t-22 109.5q0 139 107 228t291 90v221h28v-221q182 -8 293 -114.5t90 -287.5l-28 4q21 170 -80 265.5t-275 101.5v-627q176 -59 253 -102 q192 -106 192 -273q0 -140 -114 -229.5t-320 -89.5h-11v-221h-28v221q-94 5 -171.5 32t-137.5 76.5t-89.5 131t-19.5 186.5zM219 1157q0 -53 19.5 -97.5t50 -76.5t82 -61.5t99.5 -49.5t118 -45v619q-171 -1 -270 -81.5t-99 -207.5zM616 152h11q190 0 297.5 82.5t107.5 207.5 q0 34 -9.5 65t-22 55t-38.5 48.5t-45 40.5t-57 35.5t-58 29.5t-64.5 27t-60.5 22.5t-61 20.5v-634z" />
<glyph unicode="%" horiz-adv-x="2033" d="M137 1241q0 133 96.5 229.5t229.5 96.5q135 0 231.5 -96t96.5 -230t-96.5 -230t-231.5 -96q-133 0 -229.5 96.5t-96.5 229.5zM166 1241q0 -125 86 -211t211 -86q126 0 212.5 86t86.5 211t-86.5 211t-212.5 86q-125 0 -211 -86t-86 -211zM504 0l991 1597h35l-991 -1597 h-35zM1243 358q0 134 96.5 230t229.5 96t229 -96t96 -230q0 -135 -95.5 -230t-229.5 -95t-230 95t-96 230zM1272 358q0 -126 86 -211.5t211 -85.5t211 85.5t86 211.5q0 124 -86 210.5t-211 86.5t-211 -86.5t-86 -210.5z" />
<glyph unicode="&#x26;" horiz-adv-x="1650" d="M166 563q0 138 66.5 258.5t182.5 197t255 87.5q-109 75 -109 209q0 110 80.5 190t198.5 80q79 0 138.5 -38.5t86 -96t19 -128.5t-53.5 -132l-24 16q43 55 50 118.5t-16.5 114t-76.5 84t-123 33.5q-109 0 -179.5 -70t-70.5 -171q0 -100 69 -165t181 -71v-28q-70 3 -125 28 q-143 0 -263 -70t-188.5 -188.5t-68.5 -257.5q0 -108 39.5 -203.5t109 -165.5t171.5 -110.5t222 -40.5q109 0 199.5 34.5t147.5 91.5t88.5 128t31.5 147q0 91 -41 159.5t-110 109.5q-16 -40 -25.5 -61.5t-26.5 -59t-30.5 -58.5t-33.5 -50t-40.5 -45.5t-45.5 -33t-55 -23.5 t-63 -7q-79 0 -135.5 56t-56.5 134q0 101 91.5 164.5t227.5 63.5q92 0 176 -41q27 62 51.5 104.5t61 86t85.5 65.5t109 22q88 0 147.5 -61.5t59.5 -139.5q0 -93 -65 -167l-21 20q58 67 58 147q0 69 -50 120.5t-129 51.5q-55 0 -99.5 -20t-77.5 -60t-56 -82t-47 -102 q76 -44 123 -119.5t47 -173.5q0 -80 -34 -156.5t-96 -137.5t-157.5 -98.5t-208.5 -37.5q-165 0 -296.5 74t-203 199t-71.5 276zM569 565q0 -69 47 -115.5t117 -46.5q34 0 64 10.5t53 24.5t46 42.5t37.5 50t34.5 62.5t29.5 64t28.5 70q-75 37 -166 37q-129 0 -210 -54.5 t-81 -144.5z" />
<glyph unicode="'" horiz-adv-x="464" d="M217 965v632h29v-632h-29z" />
<glyph unicode="(" horiz-adv-x="720" d="M145 639q0 192 39.5 370.5t108.5 320.5t154 253t184 191l16 -23q-97 -80 -180 -189t-150 -247.5t-105 -313t-38 -362.5t38 -362t105 -312.5t150 -247t180 -188.5l-16 -23q-99 80 -184 191t-154 252.5t-108.5 320t-39.5 369.5z" />
<glyph unicode=")" horiz-adv-x="720" d="M74 -465q97 80 180 189t150 247.5t105 313t38 362.5t-38 362t-105 312.5t-150 247t-180 188.5l16 23q98 -79 183 -190.5t154 -253t108.5 -320t39.5 -369.5q0 -192 -39.5 -370.5t-108.5 -320t-153.5 -252.5t-183.5 -191z" />
<glyph unicode="*" horiz-adv-x="972" d="M133 1366l10 27l328 -109v344h29v-344l329 109l9 -29l-330 -109l205 -278l-25 -19l-203 281l-202 -278l-23 18l201 276z" />
<glyph unicode="+" horiz-adv-x="1126" d="M115 735v29h432v432h28v-432h437v-29h-437v-434h-28v434h-432z" />
<glyph unicode="," horiz-adv-x="630" d="M170 -303q8 8 22 22.5t49 58.5t61.5 85.5t48.5 97t22 100.5q0 78 -51 78q-19 0 -31 -12t-12 -31q0 -20 14.5 -32t30.5 -7l-2 -28q-29 -3 -50.5 17.5t-21.5 49.5t21.5 50.5t50.5 21.5q33 0 56 -25t23 -75q0 -51 -21.5 -110t-52.5 -107t-62.5 -89t-52.5 -64l-22 -22z" />
<glyph unicode="-" horiz-adv-x="813" d="M147 623v28h519v-28h-519z" />
<glyph unicode="." horiz-adv-x="528" d="M193 96q0 29 21 50.5t50 21.5t50.5 -21.5t21.5 -50.5t-21.5 -50t-50.5 -21t-50 21t-21 50zM221 96q0 -18 12.5 -30.5t30.5 -12.5t30.5 12.5t12.5 30.5q0 19 -12 31t-31 12t-31 -12t-12 -31z" />
<glyph unicode="/" horiz-adv-x="1402" d="M121 -467l1128 2214h31l-1128 -2214h-31z" />
<glyph unicode="0" horiz-adv-x="1454" d="M176 799q0 127 23.5 242.5t70 212.5t112 168t154 111t191.5 40q102 0 190.5 -40t154 -111t112.5 -168t70.5 -212.5t23.5 -242.5t-23.5 -242.5t-70.5 -212.5t-112.5 -168t-154 -111t-190.5 -40q-103 0 -191.5 40t-154 111t-112 168t-70 212.5t-23.5 242.5zM205 799 q0 -124 22 -236.5t66 -205.5t106 -161t146 -105.5t182 -37.5q161 0 281.5 101t180.5 268.5t60 376.5q0 124 -22 236t-66.5 205t-106.5 161t-145.5 105.5t-181.5 37.5q-122 0 -222 -58t-165 -159.5t-100 -236.5t-35 -291z" />
<glyph unicode="1" horiz-adv-x="804" d="M104 1468l322 117l4 -14h16v-1487h289v-29h-604v29h287v1466l-305 -110z" />
<glyph unicode="2" horiz-adv-x="1300" d="M152 2q0 79 15 151t38 127.5t62 109.5t75 91.5t90.5 80.5t94.5 69.5t100 64.5q173 107 235 157q156 125 183 271q6 34 6 70q0 161 -109.5 255.5t-277.5 94.5q-116 0 -214 -46t-157.5 -138t-52.5 -211l-29 -2q-5 96 31.5 177.5t100.5 135t147.5 83.5t173.5 30 q113 0 207 -44.5t151 -132t57 -202.5q0 -53 -13 -101.5t-32.5 -87t-54 -78t-65.5 -68t-79.5 -63t-83.5 -57t-90 -56.5q-12 -7 -18 -11q-58 -36 -96.5 -62t-90.5 -66t-86 -74.5t-72 -83.5t-60.5 -99.5t-38.5 -114.5t-19 -135q93 80 213 80q78 0 246 -45q148 -37 213 -37 q157 0 219 106.5t6 264.5l27 8q31 -83 27 -157t-34 -130t-93.5 -88.5t-151.5 -32.5q-73 0 -221 37q-168 45 -238 45q-129 0 -217 -94l-10 8h-14z" />
<glyph unicode="3" horiz-adv-x="1230" d="M123 0l16 25q225 -138 434 -138q203 0 332 118.5t129 313.5q0 198 -167.5 326.5t-444.5 128.5v29q113 0 206.5 24.5t156.5 64.5t107 93t63.5 109.5t19.5 113.5q0 155 -105 245.5t-264 90.5q-163 0 -271.5 -84.5t-123.5 -214.5l-29 4q19 139 136.5 231.5t287.5 92.5 q166 0 282 -99.5t116 -265.5q0 -66 -25.5 -130t-74.5 -122.5t-130.5 -103t-185.5 -64.5q218 -36 346.5 -164.5t128.5 -304.5q0 -204 -138.5 -332t-351.5 -128q-219 0 -450 141z" />
<glyph unicode="4" horiz-adv-x="1355" d="M76 365l803 1245l24 -15l-766 -1187q95 55 236 55q95 0 289.5 -34.5t257.5 -39.5v483h28v-485h35q100 0 155.5 28.5t96.5 86.5l25 -17q-45 -62 -107.5 -94.5t-169.5 -32.5h-35v-430h289v-28h-604v28h287v432q-67 6 -261 40t-286 34q-172 0 -277 -88l-8 10z" />
<glyph unicode="5" horiz-adv-x="1275" d="M113 -23l16 25q174 -115 406 -115q155 0 281.5 67.5t198.5 187t72 266.5q0 142 -65.5 250.5t-172.5 163.5t-237 55q-191 0 -346 -117l-8 12l-14 2l75 768h703v-330h-29v301h-649l-70 -710q156 102 338 102q136 0 250 -59.5t184 -174.5t70 -263q0 -153 -76.5 -279 t-209.5 -198t-295 -72q-235 0 -422 118z" />
<glyph unicode="6" horiz-adv-x="1366" d="M139 807q0 195 42 365t118.5 295t190.5 196.5t251 71.5q127 0 226.5 -52t160.5 -151l-24 -16q-115 190 -363 190q-172 0 -303.5 -118.5t-200.5 -322t-69 -458.5q0 -105 12 -193q22 185 162.5 305.5t339.5 120.5q215 0 354.5 -145t139.5 -363q0 -214 -135.5 -360.5 t-344.5 -146.5q-84 0 -161 24.5t-150.5 82.5t-127 145.5t-86 223.5t-32.5 306zM217 440q33 -102 86.5 -179t118.5 -121t133 -65.5t141 -21.5q199 0 325 137.5t126 341.5q0 209 -130 344.5t-335 135.5q-152 0 -271.5 -79t-173 -212t-20.5 -281z" />
<glyph unicode="7" horiz-adv-x="1163" d="M129 1202v340h963v-16l12 -8l-346 -578q-353 -590 -277 -1010l-28 -6q-78 437 280 1032l332 557h-907v-311h-29z" />
<glyph unicode="8" horiz-adv-x="1409" d="M166 453q0 81 29.5 150.5t75 117.5t110 87.5t126 62.5t130.5 40q-81 23 -153 63t-130 95t-91.5 129t-33.5 156q0 166 136 274.5t340 108.5q201 0 338 -108.5t137 -274.5q0 -160 -119 -277.5t-291 -165.5q69 -17 130.5 -41t126.5 -63t111 -87t75.5 -117.5t29.5 -149.5 q0 -185 -153 -312t-385 -127q-234 0 -386.5 127t-152.5 312zM195 453q0 -175 142.5 -292.5t367.5 -117.5q223 0 366 117.5t143 292.5q0 82 -33 152t-84 116.5t-121.5 83.5t-135 57.5t-135.5 34.5q-71 -14 -136 -34.5t-135.5 -57t-121.5 -83.5t-84 -117t-33 -152zM258 1354 q0 -84 38 -158.5t101.5 -127.5t142.5 -89t165 -53q86 17 164 53t142 89t102 127.5t38 158.5q0 157 -125.5 255.5t-320.5 98.5q-197 0 -322 -98t-125 -256z" />
<glyph unicode="9" horiz-adv-x="1366" d="M158 1065q0 140 60 255.5t170.5 184t248.5 68.5q84 0 161 -24.5t150.5 -82.5t127 -145.5t86 -223.5t32.5 -306q0 -195 -42 -365t-118.5 -295t-190.5 -196.5t-251 -71.5q-127 0 -226.5 52t-160.5 151l24 16q115 -191 363 -191q172 0 303.5 119t200.5 322.5t69 458.5 q0 103 -12 192q-22 -185 -162.5 -305.5t-339.5 -120.5q-215 0 -354 145t-139 363zM186 1065q0 -208 129.5 -343.5t335.5 -135.5q152 0 271.5 79t173 211.5t20.5 280.5q-33 102 -86.5 179t-118.5 121t-133 65.5t-141 21.5q-199 0 -325 -137.5t-126 -341.5z" />
<glyph unicode=":" horiz-adv-x="544" d="M201 96q0 29 21 50.5t50 21.5t50.5 -21.5t21.5 -50.5t-21.5 -50t-50.5 -21t-50 21t-21 50zM201 823q0 29 21 50.5t50 21.5t50.5 -21.5t21.5 -50.5t-21.5 -50t-50.5 -21t-50 21t-21 50zM229 96q0 -18 12.5 -30.5t30.5 -12.5t30.5 12.5t12.5 30.5q0 19 -12 31t-31 12 t-31 -12t-12 -31zM229 823q0 -18 12.5 -30.5t30.5 -12.5t30.5 12.5t12.5 30.5q0 19 -12 31t-31 12t-31 -12t-12 -31z" />
<glyph unicode=";" horiz-adv-x="606" d="M158 -303q8 8 21.5 22.5t48.5 58.5t61.5 85.5t48.5 97t22 100.5q0 78 -51 78q-19 0 -31 -12t-12 -31q0 -20 14.5 -32t30.5 -7l-2 -28q-29 -3 -50 17t-21 50q0 29 21 50.5t50 21.5q33 0 56.5 -25t23.5 -75q0 -51 -21.5 -110t-52.5 -107t-62.5 -89t-52.5 -64l-22 -22z M238 823q0 29 21 50.5t50 21.5t50.5 -21.5t21.5 -50.5t-21.5 -50t-50.5 -21t-50 21t-21 50zM266 823q0 -18 12.5 -30.5t30.5 -12.5t30.5 12.5t12.5 30.5q0 19 -12 31t-31 12t-31 -12t-12 -31z" />
<glyph unicode="&#x3c;" horiz-adv-x="1179" d="M119 737l6 13l-6 12l856 448l12 -24l-833 -436l833 -437l-12 -24z" />
<glyph unicode="=" horiz-adv-x="1216" d="M160 492v28h897v-28h-897zM160 981v29h897v-29h-897z" />
<glyph unicode="&#x3e;" horiz-adv-x="1179" d="M193 313l833 437l-833 436l12 24l856 -448l-6 -12l6 -13l-856 -448z" />
<glyph unicode="?" horiz-adv-x="1036" d="M158 1192q-10 89 19.5 163.5t87 120.5t129.5 71.5t149 25.5q150 0 251 -91t101 -239q0 -58 -18 -110.5t-41.5 -88.5t-64.5 -73.5t-70 -58t-74 -48.5q-34 -21 -53 -33.5t-46.5 -31.5t-42 -31.5t-33.5 -30.5t-28 -33t-18.5 -35t-12 -39.5t-1.5 -43t7 -49.5l13 -54l-29 -8 l-12 53q-8 33 -9 62t6 55t16.5 47.5t29 44t37 39.5t47 38t52.5 36.5t60 38.5q45 28 73 48t66.5 54.5t61 68t39 81.5t16.5 102q0 138 -91 219.5t-232 81.5q-74 0 -141.5 -23t-120 -65.5t-79 -110t-16.5 -149.5zM358 96q0 29 21.5 50.5t50.5 21.5t50.5 -21.5t21.5 -50.5 t-21.5 -50t-50.5 -21t-50.5 21t-21.5 50zM387 96q0 -18 12.5 -30.5t30.5 -12.5t30.5 12.5t12.5 30.5q0 19 -12 31t-31 12t-31 -12t-12 -31z" />
<glyph unicode="@" horiz-adv-x="2078" d="M164 494q0 185 76.5 356t203.5 294.5t298.5 197t355.5 73.5q165 0 312.5 -60t252.5 -161t166 -240t61 -292q0 -203 -94.5 -330t-228.5 -127q-101 0 -167 56.5t-73 156.5q-50 -95 -144.5 -154t-201.5 -59q-137 0 -230.5 95t-93.5 232q0 153 115 265t268 112q115 0 204 -73 t114 -183l53 297h29l-80 -448q-22 -122 39 -195.5t168 -73.5q121 0 208 119t87 310q0 148 -58.5 282t-159.5 231t-243.5 154t-302.5 57q-179 0 -345.5 -71t-289.5 -190t-196.5 -284.5t-73.5 -346.5q0 -212 97.5 -387.5t271.5 -278t388 -102.5q210 0 420 106l14 -25 q-200 -110 -434 -110q-165 0 -311.5 63t-250.5 170t-164 254t-60 310zM686 532q0 -128 83.5 -213.5t211.5 -85.5q144 0 250 102t106 245q0 127 -85 214t-212 87q-143 0 -248.5 -102.5t-105.5 -246.5z" />
<glyph unicode="A" horiz-adv-x="1769" d="M-35 55v29h262l645 1509l13 -6l12 6l645 -1509h264v-29h-606v29h311l-194 459h-862l-197 -459h313v-29h-606zM467 571h838l-420 981z" />
<glyph unicode="B" horiz-adv-x="1638" d="M86 55v29h287v1429h-287v29h907q189 0 298.5 -101.5t109.5 -246.5q0 -115 -70 -207.5t-184 -126.5q154 -33 249 -144.5t95 -250.5q0 -81 -34 -155.5t-93 -131t-145 -90t-185 -33.5h-948zM401 84h633q189 0 308.5 111.5t119.5 269.5q0 153 -115 263t-298 116h-15h-633 v-760zM401 872h633h15q142 4 232.5 98t90.5 224q0 136 -99.5 227.5t-279.5 91.5h-592v-641z" />
<glyph unicode="C" horiz-adv-x="1685" d="M141 799q0 208 104.5 386.5t283 283t386.5 104.5q185 0 344.5 -84.5t221.5 -224.5v333h28v-682h-28v244q-15 114 -99 203.5t-206.5 135.5t-260.5 46q-152 0 -290 -59t-237.5 -158.5t-158.5 -237.5t-59 -290t59 -290t158.5 -238t237.5 -159t290 -59q173 0 317 51t277 170 l19 -22q-138 -121 -288 -174t-325 -53q-208 0 -386.5 104.5t-283 283t-104.5 386.5z" />
<glyph unicode="D" horiz-adv-x="1748" d="M86 55v29h289v1429h-289v29h797q165 0 301 -57.5t226 -158t139.5 -236t49.5 -291.5q0 -157 -49.5 -292.5t-139.5 -236t-226 -158t-301 -57.5h-797zM403 84h480q213 0 370.5 94.5t237.5 255.5t80 365t-80 364.5t-237.5 255t-370.5 94.5h-480v-1429z" />
<glyph unicode="E" horiz-adv-x="1486" d="M86 55v29h287v1429h-287v29h1235v-338h-29v309h-891v-684h705v-28h-705v-717h906v309h28v-338h-1249z" />
<glyph unicode="F" horiz-adv-x="1427" d="M86 55v29h289v1429h-289v29h1237v-338h-29v309h-891v-729h682v-28h-682v-672h304v-29h-621z" />
<glyph unicode="G" horiz-adv-x="1732" d="M141 795q0 159 62 303.5t166 248t247 165t299 61.5q185 0 344.5 -84.5t221.5 -224.5v333h28v-610h-28v172q-15 114 -99 203.5t-206.5 135.5t-260.5 46q-152 0 -290 -58.5t-237.5 -158t-158.5 -238.5t-59 -294q0 -202 96 -372t266.5 -270t378.5 -100q343 0 594 307v345 h-604v28h633v-733h-29v315q-250 -290 -594 -290q-160 0 -303.5 61.5t-245.5 165.5t-161.5 246t-59.5 297z" />
<glyph unicode="H" horiz-adv-x="1865" d="M86 55v29h287v1429h-287v29h604v-29h-289v-684h1063v684h-286v29h604v-29h-289v-1429h289v-29h-604v29h286v717h-1063v-717h289v-29h-604z" />
<glyph unicode="I" horiz-adv-x="776" d="M86 55v29h287v1429h-287v29h604v-29h-289v-1429h289v-29h-604z" />
<glyph unicode="J" horiz-adv-x="1323" d="M145 258q0 40 7 80l28 -6q-6 -34 -6 -74q0 -77 27 -145t78 -120.5t131 -83t180 -30.5q94 0 168.5 31t132.5 97.5t89.5 182t31.5 273.5v1050h-611v29h639v-1079q0 -164 -33.5 -285t-96 -191.5t-142 -103.5t-178.5 -33q-104 0 -190 33.5t-141 90.5t-84.5 130t-29.5 154z " />
<glyph unicode="K" horiz-adv-x="1652" d="M86 55v29h287v1429h-287v29h604v-29h-289v-985l922 985h-299v29h604v-29h-266l-606 -649l577 -780h297v-29h-311l-584 787l-334 -357v-401h289v-29h-604z" />
<glyph unicode="L" horiz-adv-x="1390" d="M86 55v29h289v1429h-289v29h606v-29h-289v-1429h863v309h28v-338h-1208z" />
<glyph unicode="M" horiz-adv-x="2172" d="M84 55v29h289v1429h-289v29h311l690 -1253l693 1253h311v-29h-289v-1429h289v-29h-606v29h289v1389l-674 -1219l-13 6l-12 -6l-672 1219v-1389h287v-29h-604z" />
<glyph unicode="N" horiz-adv-x="1855" d="M82 55v29h289v1429h-289v29h309l1094 -1489v1460h-287v29h604v-29h-289v-1503h-14l-12 -8l-1088 1481v-1399h287v-29h-604z" />
<glyph unicode="O" d="M141 799q0 208 104.5 386.5t283 283t386.5 104.5t387 -104.5t283.5 -283t104.5 -386.5t-104.5 -386.5t-283.5 -283t-387 -104.5t-386.5 104.5t-283 283t-104.5 386.5zM170 799q0 -152 59 -290t158.5 -238t237.5 -159t290 -59q203 0 374.5 100t271.5 271.5t100 374.5 q0 152 -59 290t-159 237.5t-238 158.5t-290 59t-290 -59t-237.5 -159t-158.5 -238t-59 -289z" />
<glyph unicode="P" horiz-adv-x="1611" d="M86 55v29h289v1429h-289v29h909q147 0 264.5 -63t180.5 -166.5t63 -225.5q0 -185 -143.5 -319.5t-364.5 -134.5h-592v-549h289v-29h-606zM403 662h592q212 0 346 124.5t134 300.5q0 178 -133.5 302t-346.5 124h-592v-851z" />
<glyph unicode="Q" d="M141 799q0 208 104.5 386.5t283 283t386.5 104.5t387 -104.5t283.5 -283t104.5 -386.5q0 -141 -51 -272.5t-138.5 -232.5t-208.5 -170t-258 -91q35 -9 70.5 -21.5t82.5 -33t70 -31t85 -39.5t75 -35q62 -29 109 -49.5t105 -40.5t103.5 -28.5t95.5 -8.5q2 -1 4 -1 q49 0 88 13q42 12 83 40.5t74 72.5l22 -18q-43 -55 -94 -87.5t-109 -41.5q-41 -6 -81 -6q-17 0 -33 2q-57 3 -125.5 24.5t-125 44t-128.5 57.5q-11 5 -57 27.5t-60 29t-55 26t-59 26t-53 21t-56 20.5t-50 14t-53 11t-47 4q-208 0 -386.5 104.5t-283 283t-104.5 386.5z M170 799q0 -152 59 -290t158.5 -238t237.5 -159t290 -59q203 0 374.5 100t271.5 271.5t100 374.5q0 152 -59 290t-159 237.5t-238 158.5t-290 59t-290 -59t-237.5 -159t-158.5 -238t-59 -289z" />
<glyph unicode="R" horiz-adv-x="1695" d="M86 55v29h287v1429h-287v29h954q104 0 194.5 -34.5t152 -93t96.5 -136t35 -162.5q0 -84 -35 -161.5t-96.5 -136.5t-152 -94.5t-194.5 -35.5h-94l430 -604h275v-29h-607v29h295l-430 604h-508v-604h289v-29h-604zM401 717h639q198 0 323.5 117t125.5 282q0 166 -125 281.5 t-324 115.5h-639v-796z" />
<glyph unicode="S" horiz-adv-x="1374" d="M186 0v625h29v-269q89 -137 240 -220t323 -83q184 0 288.5 94t104.5 236q0 50 -16.5 94.5t-35 75.5t-63.5 64t-70.5 50t-90 44t-87 35t-93.5 32q-29 10 -43 15q-67 23 -115 42t-107 47t-98.5 59.5t-75.5 72t-53.5 92t-17.5 111.5q0 152 115 254t301 102q157 0 296 -73.5 t213 -182.5v280h29v-624h-29v291q-60 115 -201 197.5t-308 82.5q-177 0 -282.5 -92.5t-105.5 -234.5q0 -66 26 -121.5t64.5 -93.5t103 -74t118.5 -57.5t135 -49.5q183 -63 242 -91q207 -94 259 -235q19 -53 19 -112q0 -152 -114.5 -255t-307.5 -103q-166 0 -316.5 76.5 t-246.5 203.5v-305h-29z" />
<glyph unicode="T" horiz-adv-x="1499" d="M102 1204v338h1297v-338h-29v309h-606v-1429h289v-29h-604v29h286v1429h-604v-309h-29z" />
<glyph unicode="U" horiz-adv-x="1822" d="M47 1513v29h604v-29h-289v-917q0 -114 36 -212.5t103.5 -172.5t173 -116t236.5 -42q132 0 237.5 42t173 116t103 172t35.5 213v917h-291v29h607v-29h-287v-917q0 -117 -38.5 -220.5t-110 -181.5t-182.5 -123.5t-247 -45.5q-135 0 -246 45.5t-182.5 123.5t-110 181.5 t-38.5 220.5v917h-287z" />
<glyph unicode="V" horiz-adv-x="1767" d="M-37 1513v29h604v-29h-311l627 -1470l626 1470h-311v29h604v-29h-262l-645 -1511l-12 6l-13 -6l-645 1511h-262z" />
<glyph unicode="W" horiz-adv-x="2486" d="M-27 1513v29h600v-29h-311l481 -1460l486 1311l14 -4l14 4l484 -1311l483 1460h-311v29h602v-29h-260l-498 -1509l-14 4l-14 -4l-486 1313l-485 -1313l-15 4l-14 -4l-500 1509h-256z" />
<glyph unicode="X" horiz-adv-x="1589" d="M4 55v29h262l508 743l-467 686h-262v29h604v-29h-307l451 -659l450 659h-303v29h604v-29h-264l-469 -686l510 -743h264v-29h-604v29h303l-491 717l-492 -717h307v-29h-604z" />
<glyph unicode="Y" horiz-adv-x="1640" d="M-25 1513v29h605v-29h-306l545 -862l547 862h-307v29h606v-29h-264l-567 -895v-534h288v-29h-604v29h287v534l-565 895h-265z" />
<glyph unicode="Z" horiz-adv-x="1476" d="M111 80l1220 1433h-1120v-309h-29v338h1180v-14l10 -10l-1220 -1434h1142v309h29v-338h-1202v15z" />
<glyph unicode="[" horiz-adv-x="741" d="M266 -451v2182h422v-29h-393v-2124h393v-29h-422z" />
<glyph unicode="\" horiz-adv-x="1400" d="M121 1747h31l1128 -2214h-31z" />
<glyph unicode="]" horiz-adv-x="741" d="M53 -422h393v2124h-393v29h422v-2182h-422v29z" />
<glyph unicode="^" horiz-adv-x="1183" d="M150 860l428 729l14 -8l12 8l428 -729l-26 -16l-414 710l-418 -708z" />
<glyph unicode="_" horiz-adv-x="1415" d="M147 -211h1121v-29h-1121v29z" />
<glyph unicode="`" horiz-adv-x="305" d="M-295 1622l16 25l476 -324l-17 -25z" />
<glyph unicode="a" horiz-adv-x="1265" d="M125 352q0 47 13 91.5t43.5 86.5t75.5 74t114.5 51t154.5 19q174 0 414 -72v158q0 73 -26 126.5t-73.5 84t-106.5 45t-132 16.5h-13q-176 0 -409 -78l-8 29q233 78 417 78h13q77 -2 140.5 -18.5t115.5 -51t81.5 -93.5t29.5 -138v-676h286v-29h-315v133q-91 -71 -205 -112 t-227 -41q-168 0 -275.5 89t-107.5 228zM154 352q0 -130 97 -209.5t257 -79.5q116 0 229 43t203 117v346q-250 76 -414 76q-100 0 -175 -25.5t-116.5 -68.5t-61 -93t-19.5 -106z" />
<glyph unicode="b" horiz-adv-x="1472" d="M25 55v29h286v1479h-286v28h315v-882q52 153 185 250.5t298 97.5q138 0 256 -69t187 -186.5t69 -254.5q0 -138 -69 -256t-187 -187t-256 -69q-166 0 -298.5 97t-184.5 251v-328h-315zM342 547q0 -132 64 -243.5t174.5 -176t242.5 -64.5q201 0 342.5 141.5t141.5 342.5 q0 131 -64.5 241.5t-176 175t-243.5 64.5t-242.5 -64.5t-174.5 -175t-64 -241.5z" />
<glyph unicode="c" horiz-adv-x="1222" d="M137 547q0 137 68.5 254.5t186 186.5t255.5 69q118 0 226.5 -54t160.5 -143v225h29v-497h-29v194q-21 106 -136 176t-251 70q-132 0 -242.5 -64.5t-174.5 -175t-64 -241.5q0 -100 36 -188.5t100.5 -154t159 -103.5t204.5 -38q216 0 397 152l16 -22q-188 -158 -413 -158 q-115 0 -214.5 40.5t-168 110t-107.5 163t-39 198.5z" />
<glyph unicode="d" horiz-adv-x="1474" d="M137 547q0 137 68.5 254.5t186 186.5t255.5 69q165 0 299.5 -98.5t186.5 -251.5v856h-287v28h315v-1507h287v-29h-315v330q-53 -154 -187 -252t-299 -98q-138 0 -255.5 69t-186 187t-68.5 256zM166 547q0 -132 64 -243.5t174.5 -176t242.5 -64.5t243 64.5t175.5 176 t64.5 243.5q0 131 -64.5 241.5t-175.5 175t-243 64.5t-242.5 -64.5t-174.5 -175t-64 -241.5z" />
<glyph unicode="e" horiz-adv-x="1243" d="M137 545q0 134 62.5 250t180.5 189t267 73q120 0 218.5 -47t156 -122t79.5 -169q11 -48 11 -96q0 -46 -10 -91h-936q5 -199 144 -334t356 -135q218 0 399 152l16 -22q-188 -158 -415 -158q-114 0 -213.5 40.5t-168 109.5t-108 162.5t-39.5 197.5zM166 561h911q6 32 6 65 q0 52 -15 102q-24 84 -78.5 150.5t-144.5 108t-198 41.5q-140 0 -250.5 -65.5t-169 -171t-61.5 -230.5z" />
<glyph unicode="f" horiz-adv-x="835" d="M-371 -268l29 -2q-1 -12 -1 -24q0 -105 80 -178q89 -81 222 -81q171 0 265.5 120.5t94.5 364.5v1074h-286v28h286v166q0 256 103 385t287 129q144 0 241 -90q89 -82 89 -200q0 -12 -1 -25l-28 4q1 14 1 28q0 102 -79 173q-91 82 -223 82q-171 0 -266 -121.5t-95 -364.5 v-166h434v-28h-434v-1074q0 -256 -102.5 -385t-286.5 -129q-94 0 -172 40t-122 113q-37 62 -37 134q0 13 1 27z" />
<glyph unicode="g" horiz-adv-x="1468" d="M137 547q0 137 68.5 254.5t186 186.5t255.5 69q165 0 299.5 -98.5t186.5 -251.5v327h315v-28h-287v-1131q0 -281 -119.5 -422t-341.5 -141q-170 0 -290.5 107.5t-120.5 258.5q0 32 6 74l29 -4q-7 -49 -7 -70q0 -141 111 -239t272 -98q210 0 321.5 132t111.5 402v510 q-53 -154 -187 -252t-299 -98q-138 0 -255.5 69t-186 187t-68.5 256zM166 547q0 -132 64 -243.5t174.5 -176t242.5 -64.5t243 64.5t175.5 176t64.5 243.5q0 131 -64.5 241.5t-175.5 175t-243 64.5t-242.5 -64.5t-174.5 -175t-64 -241.5z" />
<glyph unicode="h" horiz-adv-x="1421" d="M25 55v29h286v1479h-286v28h315v-768q90 107 204 170.5t230 63.5q52 0 98.5 -10.5t93.5 -38t81 -70.5t55.5 -113.5t21.5 -160.5v-580h287v-29h-315v609q0 86 -19.5 151.5t-50 105t-74 64.5t-86.5 34t-92 9q-120 0 -233.5 -68t-200.5 -184v-692h287v-29h-602z" />
<glyph unicode="i" horiz-adv-x="696" d="M68 55v29h286v922h-286v28h315v-950h287v-29h-602zM276 1432q0 29 21.5 50t50.5 21t50.5 -21t21.5 -50t-21.5 -50.5t-50.5 -21.5t-50.5 21.5t-21.5 50.5zM305 1432q0 -18 12.5 -30.5t30.5 -12.5t30.5 12.5t12.5 30.5q0 19 -12 31t-31 12t-31 -12t-12 -31z" />
<glyph unicode="j" horiz-adv-x="600" d="M-301 -266q0 25 6 61l29 -4q-6 -36 -6 -57q0 -118 80 -200.5t196 -82.5q154 0 236 111t82 336v1108h-287v28h315v-1136q0 -238 -89 -357t-257 -119q-125 0 -215 92.5t-90 219.5zM244 1432q0 29 21 50t50 21t50.5 -21t21.5 -50t-21.5 -50.5t-50.5 -21.5t-50 21.5t-21 50.5 zM272 1432q0 -18 12.5 -30.5t30.5 -12.5t30.5 12.5t12.5 30.5q0 19 -12 31t-31 12t-31 -12t-12 -31z" />
<glyph unicode="k" horiz-adv-x="1310" d="M27 55v29h286v1479h-286v28h315v-772q117 122 246 180t237 58q133 0 213 -80.5t80 -190.5q0 -113 -94 -210.5t-289 -155.5l246 -336h295v-29h-309l-269 363l13 8l-4 16q201 55 292 145t91 199q0 102 -70 172t-195 70q-110 0 -238 -61t-245 -191v-692h258v-29h-573z" />
<glyph unicode="l" horiz-adv-x="700" d="M-41 1563v28h315v-1241q0 -70 15 -123.5t38 -83.5t54 -49t58.5 -25t56.5 -6q94 0 176 74l18 -22q-96 -80 -194 -80q-31 0 -61 7t-65.5 28t-62 54.5t-44 92t-17.5 133.5v1213h-287z" />
<glyph unicode="m" horiz-adv-x="2101" d="M70 1006v28h317v-207q80 107 179 168.5t208 61.5q46 0 91 -13t88.5 -39.5t77.5 -76t50 -115.5q86 114 188 179t212 65q56 0 109.5 -18.5t102.5 -59t79 -115.5t30 -176v-604h287v-29h-315v633q0 95 -26.5 164.5t-71 106t-93 53t-102.5 16.5q-217 0 -391 -256q6 -40 6 -84 v-604h286v-29h-315v633q0 95 -26.5 164.5t-71 106t-93 53t-102.5 16.5q-218 0 -387 -252v-692h287v-29h-602v29h286v922h-288z" />
<glyph unicode="n" horiz-adv-x="1466" d="M70 55v29h286v922h-286v28h315v-211q90 107 204 170.5t230 63.5q52 0 98.5 -10.5t93.5 -38t81 -70.5t55.5 -113.5t21.5 -160.5v-580h287v-29h-315v609q0 86 -19.5 151.5t-50 105t-74 64.5t-86.5 34t-92 9q-120 0 -233.5 -68t-200.5 -184v-692h287v-29h-602z" />
<glyph unicode="o" horiz-adv-x="1296" d="M137 547q0 137 68.5 254.5t186 186.5t255.5 69t256 -69t187 -186.5t69 -254.5q0 -138 -69 -256t-187 -187t-256 -69t-255.5 69t-186 187t-68.5 256zM166 547q0 -132 64 -243.5t174.5 -176t242.5 -64.5t243 64.5t175.5 176t64.5 243.5q0 131 -64.5 241.5t-175.5 175 t-243 64.5t-242.5 -64.5t-174.5 -175t-64 -241.5z" />
<glyph unicode="p" horiz-adv-x="1472" d="M25 -475h286v1481h-286v28h315v-325q52 153 185 250.5t298 97.5q138 0 256 -69t187 -186.5t69 -254.5q0 -138 -69 -256t-187 -187t-256 -69q-166 0 -298.5 97t-184.5 251v-858h287v-31h-602v31zM342 547q0 -132 64 -243.5t174.5 -176t242.5 -64.5q201 0 342.5 141.5 t141.5 342.5q0 131 -64.5 241.5t-176 175t-243.5 64.5t-242.5 -64.5t-174.5 -175t-64 -241.5z" />
<glyph unicode="q" horiz-adv-x="1464" d="M137 547q0 137 68.5 254.5t186 186.5t255.5 69q165 0 299.5 -98.5t186.5 -251.5v327h315v-28h-287v-1481h287v-31h-602v31h287v860q-53 -154 -187 -252t-299 -98q-138 0 -255.5 69t-186 187t-68.5 256zM166 547q0 -132 64 -243.5t174.5 -176t242.5 -64.5t243 64.5 t175.5 176t64.5 243.5q0 131 -64.5 241.5t-175.5 175t-243 64.5t-242.5 -64.5t-174.5 -175t-64 -241.5z" />
<glyph unicode="r" horiz-adv-x="1071" d="M63 55v29h287v922h-287v28h316v-299q19 37 42 73t56 74.5t70 69.5t84 56q47 26 97 38q41 10 89 10q12 0 24 -1q62 -3 126 -25v-323h-29v303q-58 19 -110 19q-10 0 -20 -1q-62 -4 -113 -20.5t-96 -49.5t-80 -68.5t-63.5 -78.5t-46.5 -79t-30 -70v-578h287v-29h-603z" />
<glyph unicode="s" horiz-adv-x="1202" d="M-86 55v29h182l502 856q-53 73 -53 144q0 13 2 25q11 83 98 169l21 -21q-87 -85 -93 -161q0 -6 -1 -12q0 -71 65 -148q28 -33 86.5 -88t107.5 -104.5t99 -111t79 -132t29 -142.5q0 -132 -90 -227.5t-243 -95.5q-103 0 -217.5 52t-260.5 163l-114 -195h-199zM242 274 q147 -110 256.5 -160.5t206.5 -50.5q140 0 222.5 86.5t82.5 208.5q0 82 -47 168t-103 143.5t-134.5 133t-109.5 112.5z" />
<glyph unicode="t" horiz-adv-x="929" d="M14 1006v28h287v436l29 13v-449h442v-28h-442v-631q1 -72 17.5 -128.5t41 -90.5t57.5 -55.5t63.5 -29.5t63.5 -8q50 0 95 21t80.5 61.5t51.5 110.5q9 41 9 89q0 33 -4 69l29 4q4 -34 4 -66q0 -56 -12 -104q-19 -76 -59 -121t-90 -68.5t-104 -23.5q-44 0 -87.5 16t-86 52 t-70 106t-28.5 166v631h-287z" />
<glyph unicode="u" horiz-adv-x="1421" d="M6 1006v28h316v-606q0 -107 28 -182.5t77 -114t101.5 -54.5t116.5 -16q118 0 232 68t200 182v695h-286v28h315v-950h287v-29h-316v209q-89 -105 -203 -168t-229 -63q-52 0 -99 10.5t-94.5 38t-81.5 71t-55.5 114t-21.5 161.5v578h-287z" />
<glyph unicode="v" horiz-adv-x="1368" d="M-16 1006v28h581v-28h-301l420 -963l418 963h-299v28h581v-28h-251l-437 -1004l-12 6l-12 -6l-439 1004h-249z" />
<glyph unicode="w" horiz-adv-x="1918" d="M-14 1006v28h581v-28h-301l330 -955l350 867l15 -7l14 7l346 -867l332 955h-301v28h581v-28h-250l-346 -1002l-12 4l-14 -6l-350 872l-353 -872l-12 6l-14 -4l-349 1002h-247z" />
<glyph unicode="x" horiz-adv-x="1306" d="M43 55v29h231l361 473l-340 449h-232v28h521v-28h-252l321 -424l320 424h-250v28h520v-28h-233l-338 -449l358 -473h234v-29h-521v29h250l-340 448l-342 -448h252v-29h-520z" />
<glyph unicode="y" horiz-adv-x="1394" d="M-121 -362l25 16q59 -97 142.5 -138.5t172.5 -41.5q130 0 233 95t195 308l37 88l-451 1041h-249v28h581v-28h-301l436 -1006l435 1006h-308v28h582v-28h-244l-493 -1141q-94 -218 -204.5 -319t-248.5 -101q-93 0 -185.5 45t-154.5 148z" />
<glyph unicode="z" horiz-adv-x="1200" d="M121 80l909 926h-827v-297h-29v325h891v-14l10 -10l-909 -926h848v297h28v-326h-911v15z" />
<glyph unicode="{" horiz-adv-x="669" d="M76 625v28h28q125 0 197 73t72 167q0 37 -16 92t-28.5 85.5t-45.5 109.5q-64 163 -64 262q0 52 16 101t48.5 92.5t91 69.5t135.5 26h82v-29h-82q-70 0 -122.5 -22.5t-82 -61t-43.5 -82.5t-14 -94q0 -93 61 -250q5 -12 21.5 -51.5t22.5 -55t17.5 -48.5t16.5 -52.5t9.5 -45 t4.5 -46.5q0 -80 -52.5 -153t-145.5 -101q92 -28 145 -100.5t53 -151.5q0 -21 -4.5 -46.5t-9.5 -45t-16.5 -52.5t-17.5 -48.5t-22.5 -55t-21.5 -51.5q-61 -157 -61 -250q0 -50 14 -94t43.5 -82.5t82 -61t122.5 -22.5h82v-29h-82q-77 0 -135.5 26t-91 69.5t-48.5 92.5 t-16 101q0 104 66 262q4 9 16 39t16 40.5t14 36.5t14 38.5t11 34t9.5 35.5t5 31t2.5 32q0 91 -68 162.5t-188 75.5h-13h-28z" />
<glyph unicode="|" horiz-adv-x="557" d="M264 -539v2358h29v-2358h-29z" />
<glyph unicode="}" horiz-adv-x="669" d="M78 -422h82q70 0 122.5 22.5t82 61t43.5 82.5t14 94q0 90 -62 250q-5 12 -21.5 51.5t-22.5 55t-17.5 48.5t-16.5 52.5t-9.5 45t-4.5 46.5q0 80 53 153t146 101q-92 28 -145.5 101t-53.5 151q0 21 4.5 46.5t9.5 45t16.5 52.5t17.5 48.5t22.5 55t21.5 51.5q62 160 62 250 q0 50 -14 94t-43.5 82.5t-82 61t-122.5 22.5h-82v29h82q77 0 135.5 -26t91 -69.5t48.5 -92.5t16 -101q0 -104 -66 -262q-4 -9 -16 -39t-16 -40.5t-14 -36.5t-14 -38.5t-11 -34t-9.5 -35.5t-5 -31t-2.5 -32q0 -91 68 -162.5t188 -75.5h12h29v-28h-29q-125 0 -196.5 -72.5 t-71.5 -167.5q0 -37 16 -92t28.5 -85.5t45.5 -109.5q64 -163 64 -262q0 -52 -16 -101t-48.5 -92.5t-91 -69.5t-135.5 -26h-82v29z" />
<glyph unicode="~" horiz-adv-x="1116" d="M223 627q0 45 8.5 85t27 77t54 59t84.5 22q47 0 87.5 -25t86.5 -73q45 -47 79 -68.5t75 -21.5t70.5 18.5t45 50.5t22.5 68t7 78h29q0 -45 -8.5 -85t-27 -77.5t-54 -59.5t-84.5 -22q-47 0 -87.5 25.5t-86.5 73.5q-45 47 -79 68.5t-75 21.5t-70.5 -18.5t-45 -50.5 t-22.5 -68t-7 -78h-29z" />
<glyph unicode="&#xa1;" horiz-adv-x="585" d="M221 1499q0 29 21.5 50.5t50.5 21.5t50.5 -21.5t21.5 -50.5t-21.5 -50.5t-50.5 -21.5t-50.5 21.5t-21.5 50.5zM250 1499q0 -18 12.5 -30.5t30.5 -12.5t30.5 12.5t12.5 30.5q0 19 -12 31t-31 12t-31 -12t-12 -31zM279 0v1174h28v-1174h-28z" />
<glyph unicode="&#xa2;" horiz-adv-x="1259" d="M170 625q0 133 64 247t177 182.5t251 73.5v246h28v-246q59 -1 115.5 -14t113 -43.5t96 -75t59 -116t7.5 -160.5l-28 4q11 82 -6.5 148t-53 107t-87.5 69t-105 40t-111 13v-950q95 2 200 37t195 104l17 -21q-91 -72 -202.5 -109.5t-209.5 -39.5v-244h-28v244 q-137 4 -250.5 73t-177.5 183.5t-64 247.5zM199 625q0 -195 132.5 -332t330.5 -143v950q-132 -5 -238 -69.5t-165.5 -171t-59.5 -234.5z" />
<glyph unicode="&#xa3;" horiz-adv-x="1320" d="M109 61q91 33 157.5 76t104 86t59.5 96t28.5 97.5t6.5 99.5q0 78 -12 148h-271v28h267q-12 65 -52 178q-65 189 -65 312q0 173 105 276t261 103q147 0 247 -89.5t110 -236.5l-29 -4q-10 140 -100.5 220.5t-227.5 80.5q-146 0 -242 -93.5t-96 -256.5q0 -50 10.5 -105.5 t22 -94.5t33.5 -103q38 -111 51 -187h467v-28h-461q11 -83 11 -148q0 -112 -37.5 -207t-141.5 -174q116 7 336 -43q200 -49 267 -49q55 0 97.5 13.5t69.5 38.5t41.5 47t28.5 51l27 -13q-76 -166 -264 -166q-73 0 -273 49q-123 28 -214 39t-167 -2q-60 -36 -147 -67z" />
<glyph unicode="&#xa5;" horiz-adv-x="1847" d="M80 1513v29h604v-29h-305l545 -862l546 862h-307v29h606v-29h-264l-430 -677h328v-29h-346l-119 -189v-143h465v-29h-465v-362h289v-29h-604v29h286v362h-465v29h465v143l-118 189h-347v29h328l-428 677h-264z" />
<glyph unicode="&#xa6;" horiz-adv-x="563" d="M266 782v1037h29v-1037h-29zM268 498h29v-1037h-29v1037z" />
<glyph unicode="&#xa7;" horiz-adv-x="1085" d="M178 803q0 91 75.5 160.5t219.5 87.5q-59 23 -101.5 46t-80 54.5t-57 73.5t-19.5 94q0 111 85.5 182.5t231.5 71.5q154 0 249.5 -84.5t76.5 -233.5l-29 5q18 137 -66 210.5t-231 73.5q-134 0 -211 -63t-77 -162q0 -42 16.5 -77t41.5 -60t68 -49t82 -39.5t97 -36.5 q136 -48 176 -67q175 -83 184 -221v-15q0 -91 -76 -160.5t-221 -87.5q123 -48 190.5 -109t67.5 -159q0 -111 -84.5 -181.5t-230.5 -70.5q-100 0 -178 34.5t-121 107.5t-29 173l29 -4q-18 -137 67 -210t232 -73q134 0 210.5 62.5t76.5 161.5q0 51 -22 91.5t-69 72t-91.5 52.5 t-118.5 48q-146 49 -203 79q-160 84 -160 222zM207 803q0 -26 7 -50t16 -42.5t29 -37.5t34 -31.5t43 -27.5l43.5 -22.5t50 -20.5t47 -17t48.5 -16q16 -5 24 -8q161 3 246.5 69.5t85.5 154.5q0 25 -6.5 48t-15 41.5t-26 36.5t-31.5 30.5t-39.5 27t-41 22.5t-46 20t-45 17 t-46.5 16t-43 15q-165 -4 -249.5 -70t-84.5 -155z" />
<glyph unicode="&#xa8;" horiz-adv-x="651" d="M-326 1413q0 29 21.5 50.5t50.5 21.5t50.5 -21.5t21.5 -50.5t-21.5 -50.5t-50.5 -21.5t-50.5 21.5t-21.5 50.5zM-297 1413q0 -18 12.5 -30.5t30.5 -12.5q19 0 31 12t12 31t-12 31t-31 12q-18 0 -30.5 -12.5t-12.5 -30.5zM98 1413q0 29 21.5 50.5t50.5 21.5t50.5 -21.5 t21.5 -50.5t-21.5 -50.5t-50.5 -21.5t-50.5 21.5t-21.5 50.5zM127 1413q0 -18 12.5 -30.5t30.5 -12.5q19 0 31 12t12 31t-12 31t-31 12q-18 0 -30.5 -12.5t-12.5 -30.5z" />
<glyph unicode="&#xa9;" horiz-adv-x="1845" d="M170 799q0 122 38 236.5t108 207t162.5 162t207 107.5t236.5 38q153 0 292.5 -59.5t240.5 -160t160.5 -239.5t59.5 -292t-59.5 -292t-160.5 -240t-240.5 -160.5t-292.5 -59.5q-152 0 -291.5 59.5t-240.5 160.5t-160.5 240.5t-59.5 291.5zM199 799q0 -197 96.5 -363.5 t263 -263t363.5 -96.5q198 0 365 96.5t263.5 263t96.5 363.5t-96.5 363.5t-263.5 263t-365 96.5q-197 0 -363.5 -96.5t-263 -263t-96.5 -363.5zM563 797q0 149 107.5 256.5t257.5 107.5q78 0 153.5 -35t114.5 -92v168h29v-364h-29v125q-15 74 -94.5 122t-173.5 48 q-141 0 -238.5 -98t-97.5 -238q0 -139 98 -236.5t244 -97.5q153 0 285 98l16 -22q-70 -51 -151 -78t-150 -27q-155 0 -263 107t-108 256z" />
<glyph unicode="&#xaa;" horiz-adv-x="1071" d="M156 1266q0 122 86 208.5t207 86.5q88 0 160 -48.5t108 -126.5v162h198v-28h-170v-504h170v-29h-198v156q-36 -76 -108 -123t-160 -47q-121 0 -207 85.5t-86 207.5zM184 1266q0 -112 76 -188.5t189 -76.5t189.5 76.5t76.5 188.5t-76.5 189t-189.5 77q-112 0 -188.5 -76.5 t-76.5 -189.5z" />
<glyph unicode="&#xab;" horiz-adv-x="1210" d="M150 627l10 10l-10 10l385 410l22 -19l-379 -401l379 -399l-22 -21zM647 627l10 10l-10 10l385 410l23 -19l-379 -401l379 -399l-23 -21z" />
<glyph unicode="&#xad;" horiz-adv-x="813" d="M147 623v28h519v-28h-519z" />
<glyph unicode="&#xae;" horiz-adv-x="1282" d="M166 1114q0 128 64 237.5t173.5 173.5t237.5 64t237.5 -64t173.5 -173.5t64 -237.5t-64 -237.5t-173.5 -173.5t-237.5 -64t-237.5 64t-173.5 173.5t-64 237.5zM195 1114q0 -186 130 -316t316 -130t316 130t130 316t-130 316.5t-316 130.5t-316 -130.5t-130 -316.5z M412 1315v28h295q62 0 102.5 -38.5t40.5 -90.5t-40.5 -90.5t-102.5 -38.5h-9l86 -149h109v-29h-217v29h78l-86 149h-129v-149h92v-29h-217v29h96v379h-98zM539 1114h168q52 0 83 28.5t31 71.5t-31 72t-83 29h-168v-201z" />
<glyph unicode="&#xaf;" horiz-adv-x="800" d="M-162 1354v28h643v-28h-643z" />
<glyph unicode="&#xb0;" horiz-adv-x="894" d="M164 1255q0 117 82.5 201t199.5 84q116 0 200.5 -84t84.5 -201q0 -116 -84.5 -199t-200.5 -83q-117 0 -199.5 82.5t-82.5 199.5zM193 1255q0 -107 73 -180.5t180 -73.5q106 0 181 73.5t75 180.5t-75 181.5t-181 74.5q-107 0 -180 -74t-73 -182z" />
<glyph unicode="&#xb1;" horiz-adv-x="1220" d="M160 106v29h897v-29h-897zM162 760v28h432v433h29v-433h436v-28h-436v-434h-29v434h-432z" />
<glyph unicode="&#xb2;" horiz-adv-x="845" d="M115 668q0 71 18 131.5t43.5 101.5t69 80.5t77 62t85.5 52.5q123 70 165 107q89 77 89 177q0 94 -64 147.5t-164 53.5q-54 0 -102.5 -16.5t-87 -48t-56 -85t-6.5 -120.5l-28 -4q-13 74 8 134t64 95.5t97 54.5t111 19q107 0 181.5 -62.5t74.5 -167.5q0 -44 -15 -83.5 t-37.5 -67.5t-59 -57t-67 -48t-73.5 -44q-3 -1 -4.5 -2t-3.5 -2.5t-4 -2.5l-4 -2q-48 -28 -79.5 -49t-71 -56t-63.5 -70t-42.5 -86t-22.5 -110q66 50 144 50q42 0 139 -27q10 -2 31 -7.5t32.5 -8t28.5 -5t31 -2.5q92 0 126.5 67.5t-13.5 184.5l24 13q56 -131 13 -212 t-150 -81q-36 0 -131 22q-97 27 -131 27q-92 0 -148 -64l-10 11h-14z" />
<glyph unicode="&#xb3;" horiz-adv-x="825" d="M76 727l16 25q162 -107 309 -107q120 0 195.5 65.5t75.5 174.5q0 114 -106.5 185t-307.5 71v28q103 0 179.5 20.5t117.5 54.5t60.5 72t19.5 79q0 87 -60 136.5t-155 49.5q-100 0 -167 -57.5t-79 -161.5l-29 2q12 115 89.5 180.5t185.5 65.5q102 0 173 -58.5t71 -156.5 q0 -78 -60.5 -145.5t-189.5 -94.5q139 -27 212.5 -99t73.5 -171q0 -118 -85.5 -193.5t-213.5 -75.5q-156 0 -325 111z" />
<glyph unicode="&#xb4;" horiz-adv-x="403" d="M-295 1323l475 324l17 -25l-476 -324z" />
<glyph unicode="&#xb5;" horiz-adv-x="1550" d="M76 1006v28h315v-606q0 -86 19.5 -152.5t50 -106t74 -65t87 -34.5t93.5 -9q118 0 232 68t200 182v695h-287v28h316v-950h286v-29h-315v209q-89 -105 -203 -168t-229 -63q-108 0 -195.5 49t-128.5 162v-776h-29v1538h-286z" />
<glyph unicode="&#xb6;" horiz-adv-x="1560" d="M141 1083q0 189 135 324t324 135h844v-29h-289v-1429h289v-29h-1000v29h287v543h-131q-124 0 -230 61.5t-167.5 166.5t-61.5 228zM170 1083q0 -179 125 -303.5t305 -124.5h131v858h-131q-180 0 -305 -125t-125 -305zM760 84h366v1429h-366v-1429z" />
<glyph unicode="&#xb7;" horiz-adv-x="538" d="M197 659q0 29 21 50.5t50 21.5t50.5 -21.5t21.5 -50.5t-21.5 -50t-50.5 -21t-50 21t-21 50zM225 659q0 -18 12.5 -30.5t30.5 -12.5t30.5 12.5t12.5 30.5q0 19 -12 31t-31 12t-31 -12t-12 -31z" />
<glyph unicode="&#xb8;" horiz-adv-x="589" d="M211 -477l12 24q16 -8 43.5 -20.5t103.5 -33.5t140 -21q116 0 180 56t64 140q0 39 -15 74t-45.5 65t-86.5 45t-130 9l-2 14h-14v182h28v-166q148 5 220.5 -63.5t72.5 -159.5q0 -94 -73.5 -159.5t-198.5 -65.5q-68 0 -143 20t-115 40z" />
<glyph unicode="&#xb9;" horiz-adv-x="565" d="M94 1540l201 78l4 -14h16v-856h174v-29h-376v29h174v833l-185 -70z" />
<glyph unicode="&#xba;" horiz-adv-x="901" d="M156 1266q0 122 86 208.5t207 86.5t207.5 -86.5t86.5 -208.5q0 -121 -86 -207t-208 -86q-121 0 -207 85.5t-86 207.5zM184 1266q0 -112 76 -188.5t189 -76.5t189.5 76.5t76.5 188.5t-76.5 189t-189.5 77q-112 0 -188.5 -76.5t-76.5 -189.5z" />
<glyph unicode="&#xbb;" horiz-adv-x="1216" d="M158 242l379 401l-379 399l22 21l385 -410l-10 -10l10 -10l-385 -410zM657 242l379 401l-379 399l23 21l385 -410l-10 -10l10 -10l-385 -410z" />
<glyph unicode="&#xbc;" horiz-adv-x="1957" d="M127 1540l201 78l4 -14h16v-856h174v-29h-377v29h174v833l-184 -70zM367 0l993 1597h35l-994 -1597h-34zM1061 317l528 773l23 -17l-488 -717q62 33 146 33q65 0 172.5 -20.5t148.5 -24.5v332h29v-334h35q60 0 98.5 15.5t67.5 52.5l20 -19q-64 -78 -186 -78h-35v-235h174 v-29h-377v29h174v237q-43 4 -150.5 24.5t-170.5 20.5q-113 0 -189 -63l-10 12z" />
<glyph unicode="&#xbd;" horiz-adv-x="1933" d="M115 1540l200 78l4 -14h17v-856h174v-29h-377v29h174v833l-184 -70zM360 0l994 1597h35l-994 -1597h-35zM1184 0q0 71 18 131.5t43.5 101.5t69 80.5t77 62t85.5 52.5q34 20 43.5 25t40 23.5t40.5 26.5t34 26.5t33 30.5t25 31.5t21.5 37t11 39.5t5.5 45q0 94 -64 147 t-164 53q-54 0 -102.5 -16.5t-87 -48t-56 -85t-6.5 -120.5l-28 -4q-13 74 8 134t64 95.5t97 54.5t111 19q107 0 181.5 -62t74.5 -167q0 -45 -16 -84.5t-37 -67.5t-59.5 -58t-67 -47.5t-74.5 -44.5q-3 -2 -5 -3t-4.5 -2.5t-4.5 -2.5q-62 -36 -100 -63.5t-82 -72t-68 -103 t-29 -131.5q65 49 144 49q42 0 139 -27q95 -22 123 -22q92 0 126.5 67.5t-13.5 184.5l24 12q56 -131 13 -212t-150 -81q-32 0 -131 23q-93 26 -131 26q-93 0 -148 -63l-10 10h-14z" />
<glyph unicode="&#xbe;" horiz-adv-x="2201" d="M131 727l16 25q162 -107 310 -107q120 0 195 65.5t75 174.5q0 114 -106.5 185t-307.5 71v28q103 0 179.5 20.5t117.5 54.5t60.5 72t19.5 79q0 87 -60 136.5t-155 49.5q-100 0 -167 -57.5t-79 -161.5l-28 2q12 115 89 180.5t185 65.5q102 0 173 -58.5t71 -156.5 q0 -78 -60.5 -145.5t-189.5 -94.5q139 -27 213 -99t74 -171q0 -118 -85.5 -193.5t-213.5 -75.5q-157 0 -326 111zM608 0l994 1597h34l-993 -1597h-35zM1305 317l528 773l22 -17l-487 -717q62 33 145 33q65 0 173.5 -20.5t148.5 -24.5v332h29v-334h34q60 0 98.5 15.5 t67.5 52.5l21 -19q-64 -78 -187 -78h-34v-235h174v-29h-377v29h174v237q-43 4 -151 24.5t-171 20.5q-112 0 -188 -63l-10 12z" />
<glyph unicode="&#xbf;" horiz-adv-x="1036" d="M141 352q0 58 18 110.5t42 88.5t65 73.5t70 57.5t74 49q43 27 67.5 43t56 39.5t47.5 41t33.5 41.5t23 47.5t5.5 53t-8 62.5l-12 51l28 6l13 -49q9 -37 8.5 -70.5t-7 -60t-25.5 -53.5t-36.5 -46.5t-50.5 -44.5t-58.5 -41.5t-68.5 -43.5q-44 -28 -72.5 -48t-67 -55 t-61 -68.5t-39 -81.5t-16.5 -102q0 -138 91.5 -219.5t232.5 -81.5q74 0 141.5 23t119.5 65.5t78.5 110t16.5 149.5l29 2q8 -71 -10.5 -133.5t-55.5 -106.5t-88.5 -75.5t-110.5 -47t-120 -15.5q-150 0 -251.5 91t-101.5 238zM535 1497q0 29 21 50.5t50 21.5t50.5 -21.5 t21.5 -50.5t-21.5 -50.5t-50.5 -21.5t-50 21.5t-21 50.5zM563 1497q0 -18 12.5 -30.5t30.5 -12.5t30.5 12.5t12.5 30.5q0 19 -12 31t-31 12t-31 -12t-12 -31z" />
<glyph unicode="&#xc0;" horiz-adv-x="1769" d="M-35 55v29h262l645 1509l13 -6l12 6l645 -1509h264v-29h-606v29h311l-194 459h-862l-197 -459h313v-29h-606zM467 571h838l-420 981zM639 2081l16 24l475 -323l-16 -25z" />
<glyph unicode="&#xc1;" horiz-adv-x="1769" d="M-35 55v29h262l645 1509l13 -6l12 6l645 -1509h264v-29h-606v29h311l-194 459h-862l-197 -459h313v-29h-606zM467 571h838l-420 981zM639 1782l475 323l16 -24l-475 -324z" />
<glyph unicode="&#xc2;" horiz-adv-x="1769" d="M-35 55h606v29h-313l197 459h862l194 -459h-311v-29h606v29h-264l-645 1509l-12 -6l-13 6l-645 -1509h-262v-29zM467 571l418 981l420 -981h-838zM563 1802l322 234l321 -234l-16 -24l-305 221l-303 -221z" />
<glyph unicode="&#xc3;" horiz-adv-x="1769" d="M-35 55v29h262l645 1509l13 -6l12 6l645 -1509h264v-29h-606v29h311l-194 459h-862l-197 -459h313v-29h-606zM467 571h838l-420 981zM547 1761q0 45 8.5 85t27 77.5t54 59.5t84.5 22q47 0 87.5 -25t86.5 -73q45 -47 79 -68.5t75 -21.5t70.5 18.5t45 50.5t22.5 68t7 78h29 q0 -45 -8.5 -85t-27 -77.5t-54 -59.5t-84.5 -22q-81 0 -175 98q-45 47 -78.5 68.5t-74.5 21.5q-54 0 -88.5 -33.5t-46 -78.5t-11.5 -103h-28z" />
<glyph unicode="&#xc4;" horiz-adv-x="1769" d="M-35 55v29h262l645 1509l13 -6l12 6l645 -1509h264v-29h-606v29h311l-194 459h-862l-197 -459h313v-29h-606zM467 571h838l-420 981zM600 1872q0 29 21.5 50.5t50.5 21.5t50 -21.5t21 -50.5t-21 -50.5t-50 -21.5t-50.5 21.5t-21.5 50.5zM629 1872q0 -18 12.5 -30.5 t30.5 -12.5q19 0 31 12t12 31t-12 31t-31 12q-18 0 -30.5 -12.5t-12.5 -30.5zM1024 1872q0 29 21.5 50.5t50.5 21.5t50 -21.5t21 -50.5t-21 -50.5t-50 -21.5t-50.5 21.5t-21.5 50.5zM1053 1872q0 -18 12.5 -30.5t30.5 -12.5q19 0 31 12t12 31t-12 31t-31 12 q-18 0 -30.5 -12.5t-12.5 -30.5z" />
<glyph unicode="&#xc5;" horiz-adv-x="1771" d="M-33 55v29h262l641 1501q-71 6 -121.5 60.5t-50.5 126.5q0 76 56 132t133 56q75 0 130.5 -56t55.5 -132q0 -72 -50.5 -126.5t-121.5 -60.5l643 -1501h264v-29h-606v29h311l-194 459h-862l-197 -459h313v-29h-606zM469 571h838l-420 981zM727 1772q0 -66 46.5 -112 t113.5 -46q66 0 111.5 46t45.5 112q0 67 -45.5 113t-111.5 46q-68 0 -114 -46t-46 -113z" />
<glyph unicode="&#xc6;" horiz-adv-x="2443" d="M-41 55v29h262l1012 1429h-252v29h1294v-338h-28v309h-891v-684h702v-28h-702v-717h911v309h29v-338h-1256v29h287v469h-737l-332 -469h305v-29h-604zM610 582h717v931h-57z" />
<glyph unicode="&#xc7;" horiz-adv-x="1685" d="M141 799q0 208 104.5 386.5t283 283t386.5 104.5q185 0 344.5 -84.5t221.5 -224.5v333h28v-682h-28v244q-15 114 -99 203.5t-206.5 135.5t-260.5 46q-152 0 -290 -59t-237.5 -158.5t-158.5 -237.5t-59 -290t59 -290t158.5 -238t237.5 -159t290 -59q173 0 317 51t277 170 l19 -22q-138 -121 -288 -174t-325 -53h-34v-160q148 5 220.5 -63.5t72.5 -159.5q0 -94 -74 -160t-199 -66q-68 0 -143 20t-116 40l-40 20l12 25q16 -9 43.5 -21.5t103.5 -33.5t140 -21q116 0 180 56.5t64 140.5q0 39 -15 74t-45.5 64.5t-86.5 44.5t-130 9l-2 14h-14v179 q-146 12 -277.5 78t-226.5 168.5t-151 240t-56 285.5z" />
<glyph unicode="&#xc8;" horiz-adv-x="1486" d="M86 55v29h287v1429h-287v29h1235v-338h-29v309h-891v-684h705v-28h-705v-717h906v309h28v-338h-1249zM537 2081l16 24l475 -323l-16 -25z" />
<glyph unicode="&#xc9;" horiz-adv-x="1486" d="M86 55v29h287v1429h-287v29h1235v-338h-29v309h-891v-684h705v-28h-705v-717h906v309h28v-338h-1249zM537 1782l475 323l16 -24l-475 -324z" />
<glyph unicode="&#xca;" horiz-adv-x="1486" d="M86 55h1249v338h-28v-309h-906v717h705v28h-705v684h891v-309h29v338h-1235v-29h287v-1429h-287v-29zM459 1802l321 234l322 -234l-17 -24l-305 221l-303 -221z" />
<glyph unicode="&#xcb;" horiz-adv-x="1486" d="M86 55v29h287v1429h-287v29h1235v-338h-29v309h-891v-684h705v-28h-705v-717h906v309h28v-338h-1249zM498 1872q0 29 21 50.5t50 21.5t50.5 -21.5t21.5 -50.5t-21.5 -50.5t-50.5 -21.5t-50 21.5t-21 50.5zM526 1872q0 -18 12.5 -30.5t30.5 -12.5q19 0 31 12t12 31t-12 31 t-31 12q-18 0 -30.5 -12.5t-12.5 -30.5zM922 1872q0 29 21 50.5t50 21.5t50.5 -21.5t21.5 -50.5t-21.5 -50.5t-50.5 -21.5t-50 21.5t-21 50.5zM950 1872q0 -18 12.5 -30.5t30.5 -12.5q19 0 31 12t12 31t-12 31t-31 12q-18 0 -30.5 -12.5t-12.5 -30.5z" />
<glyph unicode="&#xcc;" horiz-adv-x="776" d="M86 55v29h287v1429h-287v29h604v-29h-289v-1429h289v-29h-604zM141 2081l17 24l475 -323l-17 -25z" />
<glyph unicode="&#xcd;" horiz-adv-x="776" d="M86 55v29h287v1429h-287v29h604v-29h-289v-1429h289v-29h-604zM141 1782l475 323l17 -24l-475 -324z" />
<glyph unicode="&#xce;" horiz-adv-x="776" d="M66 1802l321 234l322 -234l-17 -24l-305 221l-303 -221zM86 55h604v29h-289v1429h289v29h-604v-29h287v-1429h-287v-29z" />
<glyph unicode="&#xcf;" horiz-adv-x="776" d="M86 55v29h287v1429h-287v29h604v-29h-289v-1429h289v-29h-604zM104 1872q0 29 21.5 50.5t50.5 21.5t50.5 -21.5t21.5 -50.5t-21.5 -50.5t-50.5 -21.5t-50.5 21.5t-21.5 50.5zM133 1872q0 -18 12.5 -30.5t30.5 -12.5q19 0 31 12t12 31t-12 31t-31 12q-18 0 -30.5 -12.5 t-12.5 -30.5zM528 1872q0 29 21.5 50.5t50.5 21.5t50.5 -21.5t21.5 -50.5t-21.5 -50.5t-50.5 -21.5t-50.5 21.5t-21.5 50.5zM557 1872q0 -18 12.5 -30.5t30.5 -12.5q19 0 31 12t12 31t-12 31t-31 12q-18 0 -30.5 -12.5t-12.5 -30.5z" />
<glyph unicode="&#xd0;" horiz-adv-x="1748" d="M86 55v29h289v719h-269v28h269v682h-289v29h797q165 0 301 -57.5t226 -158t139.5 -236t49.5 -291.5q0 -157 -49.5 -292.5t-139.5 -236t-226 -158t-301 -57.5h-797zM403 84h480q213 0 370.5 94.5t237.5 255.5t80 365t-80 364.5t-237.5 255t-370.5 94.5h-480v-682h357v-28 h-357v-719z" />
<glyph unicode="&#xd1;" horiz-adv-x="1855" d="M82 55v29h289v1429h-289v29h309l1094 -1489v1460h-287v29h604v-29h-289v-1503h-14l-12 -8l-1088 1481v-1399h287v-29h-604zM604 1761q0 45 8.5 85t27 77.5t54 59.5t84.5 22q47 0 87.5 -25t86.5 -73q45 -47 79 -68.5t75 -21.5t70.5 18.5t45 50.5t22.5 68t7 78h29 q0 -45 -8.5 -85t-27 -77.5t-54 -59.5t-84.5 -22q-47 0 -87.5 25t-86.5 73q-45 47 -79 68.5t-75 21.5t-70.5 -18.5t-45 -50.5t-22.5 -68t-7 -78h-29z" />
<glyph unicode="&#xd2;" d="M141 799q0 208 104.5 386.5t283 283t386.5 104.5t387 -104.5t283.5 -283t104.5 -386.5t-104.5 -386.5t-283.5 -283t-387 -104.5t-386.5 104.5t-283 283t-104.5 386.5zM170 799q0 -152 59 -290t158.5 -238t237.5 -159t290 -59q203 0 374.5 100t271.5 271.5t100 374.5 q0 152 -59 290t-159 237.5t-238 158.5t-290 59t-290 -59t-237.5 -159t-158.5 -238t-59 -289zM670 2081l16 24l475 -323l-16 -25z" />
<glyph unicode="&#xd3;" d="M141 799q0 208 104.5 386.5t283 283t386.5 104.5t387 -104.5t283.5 -283t104.5 -386.5t-104.5 -386.5t-283.5 -283t-387 -104.5t-386.5 104.5t-283 283t-104.5 386.5zM170 799q0 -152 59 -290t158.5 -238t237.5 -159t290 -59q203 0 374.5 100t271.5 271.5t100 374.5 q0 152 -59 290t-159 237.5t-238 158.5t-290 59t-290 -59t-237.5 -159t-158.5 -238t-59 -289zM670 1782l475 323l16 -24l-475 -324z" />
<glyph unicode="&#xd4;" d="M141 799q0 -208 104.5 -386.5t283 -283t386.5 -104.5t387 104.5t283.5 283t104.5 386.5t-104.5 386.5t-283.5 283t-387 104.5t-386.5 -104.5t-283 -283t-104.5 -386.5zM170 799q0 151 59 289t158.5 238t237.5 159t290 59t290 -59t238 -158.5t159 -237.5t59 -290 q0 -203 -100 -374.5t-271.5 -271.5t-374.5 -100q-152 0 -290 59t-237.5 159t-158.5 238t-59 290zM594 1802l321 234l322 -234l-16 -24l-306 221l-303 -221z" />
<glyph unicode="&#xd5;" d="M141 799q0 208 104.5 386.5t283 283t386.5 104.5t387 -104.5t283.5 -283t104.5 -386.5t-104.5 -386.5t-283.5 -283t-387 -104.5t-386.5 104.5t-283 283t-104.5 386.5zM170 799q0 -152 59 -290t158.5 -238t237.5 -159t290 -59q203 0 374.5 100t271.5 271.5t100 374.5 q0 152 -59 290t-159 237.5t-238 158.5t-290 59t-290 -59t-237.5 -159t-158.5 -238t-59 -289zM578 1765q0 45 8.5 85t27 77.5t54 59.5t84.5 22q47 0 87.5 -25t86.5 -73q45 -47 78.5 -68.5t74.5 -21.5q54 0 88.5 33.5t46 78.5t11.5 103h28q0 -45 -8.5 -85t-27 -77.5t-54 -59.5 t-84.5 -22q-47 0 -87.5 25t-86.5 73q-45 47 -78.5 68.5t-74.5 21.5q-54 0 -88.5 -33.5t-46 -78.5t-11.5 -103h-28z" />
<glyph unicode="&#xd6;" d="M141 799q0 208 104.5 386.5t283 283t386.5 104.5t387 -104.5t283.5 -283t104.5 -386.5t-104.5 -386.5t-283.5 -283t-387 -104.5t-386.5 104.5t-283 283t-104.5 386.5zM170 799q0 -152 59 -290t158.5 -238t237.5 -159t290 -59q203 0 374.5 100t271.5 271.5t100 374.5 q0 152 -59 290t-159 237.5t-238 158.5t-290 59t-290 -59t-237.5 -159t-158.5 -238t-59 -289zM631 1872q0 29 21 50.5t50 21.5t50.5 -21.5t21.5 -50.5t-21.5 -50.5t-50.5 -21.5t-50 21.5t-21 50.5zM659 1872q0 -18 12.5 -30.5t30.5 -12.5q19 0 31 12t12 31t-12 31t-31 12 q-18 0 -30.5 -12.5t-12.5 -30.5zM1055 1872q0 29 21 50.5t50 21.5t50.5 -21.5t21.5 -50.5t-21.5 -50.5t-50.5 -21.5t-50 21.5t-21 50.5zM1083 1872q0 -18 12.5 -30.5t30.5 -12.5q19 0 31 12t12 31t-12 31t-31 12q-18 0 -30.5 -12.5t-12.5 -30.5z" />
<glyph unicode="&#xd7;" horiz-adv-x="1132" d="M176 381l369 369l-367 366l21 21l364 -369l371 371l20 -21l-370 -370l370 -369l-20 -21l-369 371l-368 -369z" />
<glyph unicode="&#xd8;" d="M141 799q0 208 104.5 386.5t283 283t386.5 104.5q220 0 408 -117l92 141h35l-104 -157q158 -108 251 -277t93 -364q0 -208 -104.5 -386.5t-283.5 -283t-387 -104.5q-226 0 -411 118l-94 -143h-35l104 160q-156 108 -247 276t-91 363zM170 799q0 -189 87 -351.5 t237 -265.5l813 1250q-176 112 -392 112q-152 0 -290 -59t-237.5 -159t-158.5 -238t-59 -289zM518 168q179 -115 397 -115q203 0 374.5 100t271.5 271.5t100 374.5q0 189 -89 352t-241 266z" />
<glyph unicode="&#xd9;" horiz-adv-x="1824" d="M49 1513v29h604v-29h-288v-917q0 -115 36 -213t103.5 -172t172.5 -116t236 -42q132 0 237.5 42t173 116t103 172t35.5 213v917h-291v29h607v-29h-287v-917q0 -117 -38.5 -220.5t-110 -181.5t-182.5 -123.5t-247 -45.5q-135 0 -246 45.5t-182.5 123.5t-110 181.5 t-38.5 220.5v917h-287zM668 2081l16 24l475 -323l-16 -25z" />
<glyph unicode="&#xda;" horiz-adv-x="1824" d="M49 1513v29h604v-29h-288v-917q0 -115 36 -213t103.5 -172t172.5 -116t236 -42q132 0 237.5 42t173 116t103 172t35.5 213v917h-291v29h607v-29h-287v-917q0 -117 -38.5 -220.5t-110 -181.5t-182.5 -123.5t-247 -45.5q-135 0 -246 45.5t-182.5 123.5t-110 181.5 t-38.5 220.5v917h-287zM668 1782l475 323l16 -24l-475 -324z" />
<glyph unicode="&#xdb;" horiz-adv-x="1822" d="M47 1513h287v-917q0 -117 38.5 -220.5t110 -181.5t182.5 -123.5t246 -45.5q136 0 247 45.5t182.5 123.5t110 181.5t38.5 220.5v917h287v29h-607v-29h291v-917q0 -115 -35.5 -213t-103 -172t-173 -116t-237.5 -42q-131 0 -236.5 42t-173 116t-103.5 172.5t-36 212.5v917 h289v29h-604v-29zM590 1802l321 234l322 -234l-16 -24l-306 221l-303 -221z" />
<glyph unicode="&#xdc;" horiz-adv-x="1822" d="M47 1513v29h604v-29h-289v-917q0 -114 36 -212.5t103.5 -172.5t173 -116t236.5 -42q132 0 237.5 42t173 116t103 172t35.5 213v917h-291v29h607v-29h-287v-917q0 -117 -38.5 -220.5t-110 -181.5t-182.5 -123.5t-247 -45.5q-135 0 -246 45.5t-182.5 123.5t-110 181.5 t-38.5 220.5v917h-287zM627 1872q0 29 21 50.5t50 21.5t50.5 -21.5t21.5 -50.5t-21.5 -50.5t-50.5 -21.5t-50 21.5t-21 50.5zM655 1872q0 -18 12.5 -30.5t30.5 -12.5q19 0 31 12t12 31t-12 31t-31 12q-18 0 -30.5 -12.5t-12.5 -30.5zM1051 1872q0 29 21 50.5t50 21.5 t50.5 -21.5t21.5 -50.5t-21.5 -50.5t-50.5 -21.5t-50 21.5t-21 50.5zM1079 1872q0 -18 12.5 -30.5t30.5 -12.5q19 0 31 12t12 31t-12 31t-31 12q-18 0 -30.5 -12.5t-12.5 -30.5z" />
<glyph unicode="&#xdd;" horiz-adv-x="1640" d="M-25 1513v29h605v-29h-306l545 -862l547 862h-307v29h606v-29h-264l-567 -895v-534h288v-29h-604v29h287v534l-565 895h-265zM573 1782l476 323l16 -24l-475 -324z" />
<glyph unicode="&#xde;" horiz-adv-x="1617" d="M86 55v29h287v1429h-287v29h604v-29h-289v-274h607q143 0 257 -61t175 -161t61 -218q0 -180 -139 -310.5t-354 -130.5h-607v-274h289v-29h-604zM401 387h607q137 0 244.5 57t164 150.5t56.5 204.5q0 172 -129 291.5t-336 119.5h-607v-823z" />
<glyph unicode="&#xdf;" horiz-adv-x="1415" d="M68 55v29h286v920h-286v28h286v90q0 85 15 160t48 141t82 113t122 74.5t163 27.5q89 0 156.5 -25.5t105 -67t56 -87.5t18.5 -94q0 -24 -5 -47t-11.5 -41t-20 -38.5t-23 -33t-29 -31t-29.5 -27.5t-32 -28t-30 -26q-60 -50 -91.5 -98t-31.5 -113q0 -43 15 -78t47.5 -64.5 t60.5 -47.5t78 -46q34 -19 43 -24t41 -24.5t42.5 -28t36.5 -29t36.5 -35t27.5 -38t24 -45t13 -50t6 -58.5q0 -95 -48 -167t-121.5 -107t-157.5 -35q-178 0 -318 166l21 18q134 -155 297 -155q124 0 211.5 75t87.5 205q0 35 -8.5 67t-19 55.5t-34.5 49t-38.5 39t-49.5 36 t-49.5 30.5t-54.5 31q-41 23 -64.5 37t-57 40t-51.5 50t-31.5 58.5t-13.5 74.5q0 72 35 125.5t97 105.5l35 30t37 32.5t30.5 30t29.5 35.5l20 35t16 43t4 46q0 45 -16.5 86.5t-50.5 78.5t-96 59t-145 22q-106 0 -185.5 -38t-125.5 -106t-68 -154t-22 -190v-1067h-315z" />
<glyph unicode="&#xe0;" horiz-adv-x="1265" d="M125 352q0 47 13 91.5t43.5 86.5t75.5 74t114.5 51t154.5 19q174 0 414 -72v158q0 73 -26 126.5t-73.5 84t-106.5 45t-132 16.5q-180 3 -422 -78l-8 29q242 81 430 78q77 -2 140.5 -18.5t115.5 -51t81.5 -93.5t29.5 -138v-676h286v-29h-315v133q-91 -71 -205 -112 t-227 -41q-168 0 -275.5 89t-107.5 228zM154 352q0 -130 97 -209.5t257 -79.5q116 0 229 43t203 117v346q-250 76 -414 76q-100 0 -175 -25.5t-116.5 -68.5t-61 -93t-19.5 -106zM354 1622l17 25l475 -324l-17 -25z" />
<glyph unicode="&#xe1;" horiz-adv-x="1265" d="M125 352q0 47 13 91.5t43.5 86.5t75.5 74t114.5 51t154.5 19q174 0 414 -72v158q0 73 -26 126.5t-73.5 84t-106.5 45t-132 16.5q-180 3 -422 -78l-8 29q242 81 430 78q77 -2 140.5 -18.5t115.5 -51t81.5 -93.5t29.5 -138v-676h286v-29h-315v133q-91 -71 -205 -112 t-227 -41q-168 0 -275.5 89t-107.5 228zM154 352q0 -130 97 -209.5t257 -79.5q116 0 229 43t203 117v346q-250 76 -414 76q-100 0 -175 -25.5t-116.5 -68.5t-61 -93t-19.5 -106zM354 1323l475 324l17 -25l-475 -324z" />
<glyph unicode="&#xe2;" horiz-adv-x="1265" d="M125 352q0 -139 107.5 -228t275.5 -89q113 0 227 41t205 112v-133h315v29h-286v676q0 79 -29.5 138t-81.5 93.5t-115.5 51t-140.5 18.5q-188 3 -430 -78l8 -29q242 81 422 78q73 -2 132 -16.5t106.5 -45t73.5 -84t26 -126.5v-158q-240 72 -414 72q-85 0 -154.5 -19 t-114.5 -51t-75.5 -74t-43.5 -86.5t-13 -91.5zM154 352q0 56 19.5 106t61 93t116.5 68.5t175 25.5q164 0 414 -76v-346q-90 -74 -203 -117t-229 -43q-160 0 -257 79.5t-97 209.5zM279 1343l321 234l322 -234l-17 -24l-305 221l-303 -221z" />
<glyph unicode="&#xe3;" horiz-adv-x="1265" d="M125 352q0 47 13 91.5t43.5 86.5t75.5 74t114.5 51t154.5 19q174 0 414 -72v158q0 73 -26 126.5t-73.5 84t-106.5 45t-132 16.5q-180 3 -422 -78l-8 29q242 81 430 78q77 -2 140.5 -18.5t115.5 -51t81.5 -93.5t29.5 -138v-676h286v-29h-315v133q-91 -71 -205 -112 t-227 -41q-168 0 -275.5 89t-107.5 228zM154 352q0 -130 97 -209.5t257 -79.5q116 0 229 43t203 117v346q-250 76 -414 76q-100 0 -175 -25.5t-116.5 -68.5t-61 -93t-19.5 -106zM262 1303q0 45 8.5 85t27 77t54 59t84.5 22q47 0 87.5 -25t86.5 -73q45 -47 79 -68.5t75 -21.5 t70.5 18.5t45 50.5t22.5 68t7 78h29q0 -45 -8.5 -85t-27 -77.5t-54 -59.5t-84.5 -22q-47 0 -87.5 25t-86.5 73q-45 47 -79 69t-75 22t-70.5 -18.5t-45 -50.5t-22.5 -68t-7 -78h-29z" />
<glyph unicode="&#xe4;" horiz-adv-x="1265" d="M125 352q0 47 13 91.5t43.5 86.5t75.5 74t114.5 51t154.5 19q174 0 414 -72v158q0 73 -26 126.5t-73.5 84t-106.5 45t-132 16.5q-180 3 -422 -78l-8 29q242 81 430 78q77 -2 140.5 -18.5t115.5 -51t81.5 -93.5t29.5 -138v-676h286v-29h-315v133q-91 -71 -205 -112 t-227 -41q-168 0 -275.5 89t-107.5 228zM154 352q0 -130 97 -209.5t257 -79.5q116 0 229 43t203 117v346q-250 76 -414 76q-100 0 -175 -25.5t-116.5 -68.5t-61 -93t-19.5 -106zM315 1413q0 29 21.5 50.5t50.5 21.5t50.5 -21.5t21.5 -50.5t-21.5 -50.5t-50.5 -21.5 t-50.5 21.5t-21.5 50.5zM344 1413q0 -18 12.5 -30.5t30.5 -12.5q19 0 31 12t12 31t-12 31t-31 12q-18 0 -30.5 -12.5t-12.5 -30.5zM739 1413q0 29 21.5 50.5t50.5 21.5t50.5 -21.5t21.5 -50.5t-21.5 -50.5t-50.5 -21.5t-50.5 21.5t-21.5 50.5zM768 1413q0 -18 12.5 -30.5 t30.5 -12.5q19 0 31 12t12 31t-12 31t-31 12q-18 0 -30.5 -12.5t-12.5 -30.5z" />
<glyph unicode="&#xe5;" horiz-adv-x="1265" d="M125 352q0 47 13 91.5t43.5 86.5t75.5 74t114.5 51t154.5 19q174 0 414 -72v158q0 73 -26 126.5t-73.5 84t-106.5 45t-132 16.5q-180 3 -422 -78l-8 29q242 81 430 78q77 -2 140.5 -18.5t115.5 -51t81.5 -93.5t29.5 -138v-676h286v-29h-315v133q-91 -71 -205 -112 t-227 -41q-168 0 -275.5 89t-107.5 228zM154 352q0 -130 97 -209.5t257 -79.5q116 0 229 43t203 117v346q-250 76 -414 76q-100 0 -175 -25.5t-116.5 -68.5t-61 -93t-19.5 -106zM412 1475q0 77 56 132.5t132 55.5q75 0 130.5 -56t55.5 -132q0 -75 -55.5 -131t-130.5 -56 q-76 0 -132 56t-56 131zM440 1475q0 -66 46.5 -112t113.5 -46q66 0 112 46t46 112q0 67 -46 113t-112 46q-68 0 -114 -46t-46 -113z" />
<glyph unicode="&#xe6;" horiz-adv-x="2043" d="M125 352q0 47 13 91.5t43.5 86.5t75.5 74t114.5 51t154.5 19q174 0 414 -72v158q0 73 -26 126.5t-73.5 84t-106.5 45t-132 16.5q-180 3 -422 -78l-8 29q242 81 430 78q77 -2 140.5 -18.5t115.5 -51t81.5 -93.5t29.5 -138v-45q52 151 179.5 246.5t301.5 95.5 q120 0 218.5 -47t156 -122t79.5 -169t1 -187h-936q5 -199 143.5 -334t355.5 -135q219 0 400 152l16 -22q-188 -158 -416 -158q-143 0 -258 60.5t-184 164.5q-118 -115 -253.5 -170t-264.5 -55q-166 0 -274.5 89t-108.5 228zM154 352q0 -130 97.5 -209.5t256.5 -79.5 q127 0 256.5 54t245.5 168q-70 121 -70 260v24q-250 76 -414 76q-100 0 -175 -25.5t-116.5 -68.5t-61 -93t-19.5 -106zM969 561h911q15 84 -9 167.5t-78.5 150t-144.5 108t-198 41.5q-140 0 -250.5 -65.5t-169 -171t-61.5 -230.5z" />
<glyph unicode="&#xe7;" horiz-adv-x="1222" d="M137 547q0 137 68.5 254.5t186 186.5t255.5 69q118 0 226.5 -54t160.5 -143v225h29v-497h-29v194q-21 106 -136 176t-251 70q-132 0 -242.5 -64.5t-174.5 -175t-64 -241.5q0 -100 36 -188.5t100.5 -154t159 -103.5t204.5 -38q216 0 397 152l16 -22q-188 -158 -413 -158 q-36 0 -52 2v-160q148 5 220.5 -63.5t72.5 -159.5q0 -94 -73.5 -159.5t-198.5 -65.5q-68 0 -143 19.5t-116 39.5l-40 20l12 25q16 -9 43.5 -21.5t103.5 -33.5t140 -21q116 0 180 56.5t64 140.5q0 39 -15 74t-45.5 64.5t-86.5 44.5t-130 9l-2 15h-14v178 q-200 27 -324.5 170.5t-124.5 337.5z" />
<glyph unicode="&#xe8;" horiz-adv-x="1243" d="M137 545q0 134 62.5 250t180.5 189t267 73q120 0 218.5 -47t156 -122t79.5 -169t1 -187h-936q5 -199 144 -334t356 -135q218 0 399 152l16 -22q-188 -158 -415 -158q-114 0 -213.5 40.5t-168 109.5t-108 162.5t-39.5 197.5zM166 561h911q15 84 -9 167.5t-78.5 150 t-144.5 108t-198 41.5q-140 0 -250.5 -65.5t-169 -171t-61.5 -230.5zM416 1622l16 25l475 -324l-16 -25z" />
<glyph unicode="&#xe9;" horiz-adv-x="1243" d="M137 545q0 134 62.5 250t180.5 189t267 73q120 0 218.5 -47t156 -122t79.5 -169t1 -187h-936q5 -199 144 -334t356 -135q218 0 399 152l16 -22q-188 -158 -415 -158q-114 0 -213.5 40.5t-168 109.5t-108 162.5t-39.5 197.5zM166 561h911q15 84 -9 167.5t-78.5 150 t-144.5 108t-198 41.5q-140 0 -250.5 -65.5t-169 -171t-61.5 -230.5zM416 1323l475 324l16 -25l-475 -324z" />
<glyph unicode="&#xea;" horiz-adv-x="1243" d="M137 545q0 -104 39.5 -197.5t108 -162.5t168 -109.5t213.5 -40.5q227 0 415 158l-16 22q-181 -152 -399 -152q-217 0 -356 135t-144 334h936q21 93 -1 187t-79.5 169t-156 122t-218.5 47q-149 0 -267 -73t-180.5 -189t-62.5 -250zM166 561q3 125 61.5 230.5t169 171 t250.5 65.5q108 0 198 -41.5t144.5 -108t78.5 -150t9 -167.5h-911zM338 1343l321 234l322 -234l-16 -24l-306 221l-303 -221z" />
<glyph unicode="&#xeb;" horiz-adv-x="1243" d="M137 545q0 134 62.5 250t180.5 189t267 73q120 0 218.5 -47t156 -122t79.5 -169t1 -187h-936q5 -199 144 -334t356 -135q218 0 399 152l16 -22q-188 -158 -415 -158q-114 0 -213.5 40.5t-168 109.5t-108 162.5t-39.5 197.5zM166 561h911q15 84 -9 167.5t-78.5 150 t-144.5 108t-198 41.5q-140 0 -250.5 -65.5t-169 -171t-61.5 -230.5zM377 1413q0 29 21.5 50.5t50.5 21.5t50 -21.5t21 -50.5t-21 -50.5t-50 -21.5t-50.5 21.5t-21.5 50.5zM406 1413q0 -18 12.5 -30.5t30.5 -12.5q19 0 31 12t12 31t-12 31t-31 12q-18 0 -30.5 -12.5 t-12.5 -30.5zM801 1413q0 29 21 50.5t50 21.5t50.5 -21.5t21.5 -50.5t-21.5 -50.5t-50.5 -21.5t-50 21.5t-21 50.5zM829 1413q0 -18 12.5 -30.5t30.5 -12.5q19 0 31 12t12 31t-12 31t-31 12q-18 0 -30.5 -12.5t-12.5 -30.5z" />
<glyph unicode="&#xec;" horiz-adv-x="696" d="M68 55v29h286v922h-286v28h315v-950h287v-29h-602zM68 1622l16 25l475 -324l-16 -25z" />
<glyph unicode="&#xed;" horiz-adv-x="696" d="M68 55v29h286v922h-286v28h315v-950h287v-29h-602zM68 1323l475 324l16 -25l-475 -324z" />
<glyph unicode="&#xee;" horiz-adv-x="696" d="M-8 1343l321 234l322 -234l-17 -24l-305 221l-303 -221zM68 55h602v29h-287v950h-315v-28h286v-922h-286v-29z" />
<glyph unicode="&#xef;" horiz-adv-x="696" d="M27 1413q0 29 21 50.5t50 21.5t50.5 -21.5t21.5 -50.5t-21.5 -50.5t-50.5 -21.5t-50 21.5t-21 50.5zM55 1413q0 -18 12.5 -30.5t30.5 -12.5q19 0 31 12t12 31t-12 31t-31 12q-18 0 -30.5 -12.5t-12.5 -30.5zM68 55v29h286v922h-286v28h315v-950h287v-29h-602zM451 1413 q0 29 21 50.5t50 21.5t50.5 -21.5t21.5 -50.5t-21.5 -50.5t-50.5 -21.5t-50 21.5t-21 50.5zM479 1413q0 -18 12.5 -30.5t30.5 -12.5q19 0 31 12t12 31t-12 31t-31 12q-18 0 -30.5 -12.5t-12.5 -30.5z" />
<glyph unicode="&#xf0;" horiz-adv-x="1310" d="M-12 1597q315 42 581 -86l166 181l21 -21l-160 -174q126 -66 229 -166q144 -140 224.5 -329.5t80.5 -383.5q0 -119 -35 -224t-99 -185.5t-163.5 -127t-220.5 -46.5q-128 0 -237 67t-172.5 181t-63.5 247q0 99 40 191t106.5 158.5t158.5 106.5t191 40q177 0 298.5 -94.5 t164.5 -243.5q-12 171 -88.5 334t-204.5 289q-104 101 -227 164l-199 -218l-21 21l191 211q-256 122 -557 80zM168 530q0 -127 59 -234.5t161 -170t224 -62.5q187 0 310 109t163 289q15 98 -9.5 194t-81.5 172t-151 123t-208 47q-127 0 -234.5 -62.5t-170 -170t-62.5 -234.5 z" />
<glyph unicode="&#xf1;" horiz-adv-x="1466" d="M70 55v29h286v922h-286v28h315v-211q90 107 204 170.5t230 63.5q52 0 98.5 -10.5t93.5 -38t81 -70.5t55.5 -113.5t21.5 -160.5v-580h287v-29h-315v609q0 86 -19.5 151.5t-50 105t-74 64.5t-86.5 34t-92 9q-120 0 -233.5 -68t-200.5 -184v-692h287v-29h-602zM426 1303 q0 45 8.5 85t27 77t54 59t84.5 22q47 0 87.5 -25t86.5 -73q45 -47 79 -68.5t75 -21.5t70.5 18.5t45 50.5t22.5 68t7 78h29q0 -45 -8.5 -85t-27 -77.5t-54 -59.5t-84.5 -22q-47 0 -87.5 25t-86.5 73q-45 47 -79 69t-75 22t-70.5 -18.5t-45 -50.5t-22.5 -68t-7 -78h-29z" />
<glyph unicode="&#xf2;" horiz-adv-x="1296" d="M137 547q0 137 68.5 254.5t186 186.5t255.5 69t256 -69t187 -186.5t69 -254.5q0 -138 -69 -256t-187 -187t-256 -69t-255.5 69t-186 187t-68.5 256zM166 547q0 -132 64 -243.5t174.5 -176t242.5 -64.5t243 64.5t175.5 176t64.5 243.5q0 131 -64.5 241.5t-175.5 175 t-243 64.5t-242.5 -64.5t-174.5 -175t-64 -241.5zM401 1622l17 25l475 -324l-16 -25z" />
<glyph unicode="&#xf3;" horiz-adv-x="1296" d="M137 547q0 137 68.5 254.5t186 186.5t255.5 69t256 -69t187 -186.5t69 -254.5q0 -138 -69 -256t-187 -187t-256 -69t-255.5 69t-186 187t-68.5 256zM166 547q0 -132 64 -243.5t174.5 -176t242.5 -64.5t243 64.5t175.5 176t64.5 243.5q0 131 -64.5 241.5t-175.5 175 t-243 64.5t-242.5 -64.5t-174.5 -175t-64 -241.5zM401 1323l476 324l16 -25l-475 -324z" />
<glyph unicode="&#xf4;" horiz-adv-x="1296" d="M137 547q0 -138 68.5 -256t186 -187t255.5 -69t256 69t187 187t69 256q0 137 -69 254.5t-187 186.5t-256 69t-255.5 -69t-186 -186.5t-68.5 -254.5zM166 547q0 131 64 241.5t174.5 175t242.5 64.5t243 -64.5t175.5 -175t64.5 -241.5q0 -132 -64.5 -243.5t-175.5 -176 t-243 -64.5t-242.5 64.5t-174.5 176t-64 243.5zM326 1343l321 234l322 -234l-17 -24l-305 221l-303 -221z" />
<glyph unicode="&#xf5;" horiz-adv-x="1296" d="M137 547q0 137 68.5 254.5t186 186.5t255.5 69t256 -69t187 -186.5t69 -254.5q0 -138 -69 -256t-187 -187t-256 -69t-255.5 69t-186 187t-68.5 256zM166 547q0 -132 64 -243.5t174.5 -176t242.5 -64.5t243 64.5t175.5 176t64.5 243.5q0 131 -64.5 241.5t-175.5 175 t-243 64.5t-242.5 -64.5t-174.5 -175t-64 -241.5zM309 1303q0 45 8.5 85t27 77t54 59t84.5 22q47 0 87.5 -25t86.5 -73q45 -47 79 -68.5t75 -21.5t70.5 18.5t45 50.5t22.5 68t7 78h29q0 -45 -8.5 -85t-27 -77.5t-54 -59.5t-84.5 -22q-47 0 -87.5 25t-86.5 73q-45 47 -79 69 t-75 22t-70.5 -18.5t-45 -50.5t-22.5 -68t-7 -78h-29z" />
<glyph unicode="&#xf6;" horiz-adv-x="1296" d="M137 547q0 137 68.5 254.5t186 186.5t255.5 69t256 -69t187 -186.5t69 -254.5q0 -138 -69 -256t-187 -187t-256 -69t-255.5 69t-186 187t-68.5 256zM166 547q0 -132 64 -243.5t174.5 -176t242.5 -64.5t243 64.5t175.5 176t64.5 243.5q0 131 -64.5 241.5t-175.5 175 t-243 64.5t-242.5 -64.5t-174.5 -175t-64 -241.5zM365 1413q0 29 21 50.5t50 21.5t50.5 -21.5t21.5 -50.5t-21.5 -50.5t-50.5 -21.5t-50 21.5t-21 50.5zM393 1413q0 -18 12.5 -30.5t30.5 -12.5q19 0 31 12t12 31t-12 31t-31 12q-18 0 -30.5 -12.5t-12.5 -30.5zM788 1413 q0 29 21.5 50.5t50.5 21.5t50.5 -21.5t21.5 -50.5t-21.5 -50.5t-50.5 -21.5t-50.5 21.5t-21.5 50.5zM817 1413q0 -18 12.5 -30.5t30.5 -12.5q19 0 31 12t12 31t-12 31t-31 12q-18 0 -30.5 -12.5t-12.5 -30.5z" />
<glyph unicode="&#xf7;" horiz-adv-x="1191" d="M147 735v29h897v-29h-897zM522 371q0 29 21.5 50t50.5 21t50.5 -21t21.5 -50t-21.5 -50.5t-50.5 -21.5t-50.5 21.5t-21.5 50.5zM522 1126q0 29 21.5 50.5t50.5 21.5t50.5 -21.5t21.5 -50.5t-21.5 -50t-50.5 -21t-50.5 21t-21.5 50zM551 371q0 -18 12.5 -30.5t30.5 -12.5 t30.5 12.5t12.5 30.5q0 19 -12 31t-31 12t-31 -12t-12 -31zM551 1126q0 -18 12.5 -30.5t30.5 -12.5t30.5 12.5t12.5 30.5q0 19 -12 31t-31 12t-31 -12t-12 -31z" />
<glyph unicode="&#xf8;" horiz-adv-x="1296" d="M137 547q0 137 68.5 254.5t186 186.5t255.5 69q146 0 275 -82l77 115h37l-90 -132q98 -72 155.5 -180t57.5 -231q0 -138 -69 -256t-187 -187t-256 -69q-149 0 -278 82l-80 -117h-37l92 135q-95 70 -151 179t-56 233zM166 547q0 -119 51.5 -220.5t142.5 -168.5l545 794 q-120 76 -258 76q-132 0 -242.5 -64.5t-174.5 -175t-64 -241.5zM385 139q115 -76 262 -76q132 0 243 64.5t175.5 176t64.5 243.5q0 118 -53.5 220t-146.5 169z" />
<glyph unicode="&#xf9;" horiz-adv-x="1421" d="M6 1006v28h316v-606q0 -107 28 -182.5t77 -114t101.5 -54.5t116.5 -16q118 0 232 68t200 182v695h-286v28h315v-950h287v-29h-316v209q-89 -105 -203 -168t-229 -63q-52 0 -99 10.5t-94.5 38t-81.5 71t-55.5 114t-21.5 161.5v578h-287zM455 1622l16 25l475 -324l-16 -25z " />
<glyph unicode="&#xfa;" horiz-adv-x="1421" d="M6 1006v28h316v-606q0 -107 28 -182.5t77 -114t101.5 -54.5t116.5 -16q118 0 232 68t200 182v695h-286v28h315v-950h287v-29h-316v209q-89 -105 -203 -168t-229 -63q-52 0 -99 10.5t-94.5 38t-81.5 71t-55.5 114t-21.5 161.5v578h-287zM455 1323l475 324l16 -25 l-475 -324z" />
<glyph unicode="&#xfb;" horiz-adv-x="1421" d="M6 1006h287v-578q0 -91 21.5 -161.5t55.5 -114t81.5 -71t94.5 -38t99 -10.5q115 0 229 63t203 168v-209h316v29h-287v950h-315v-28h286v-695q-86 -114 -200 -182t-232 -68q-64 0 -116.5 16t-101.5 54.5t-77 114t-28 182.5v606h-316v-28zM379 1343l321 234l322 -234 l-16 -24l-306 221l-303 -221z" />
<glyph unicode="&#xfc;" horiz-adv-x="1421" d="M6 1006v28h316v-606q0 -107 28 -182.5t77 -114t101.5 -54.5t116.5 -16q118 0 232 68t200 182v695h-286v28h315v-950h287v-29h-316v209q-89 -105 -203 -168t-229 -63q-52 0 -99 10.5t-94.5 38t-81.5 71t-55.5 114t-21.5 161.5v578h-287zM416 1413q0 29 21 50.5t50 21.5 t50.5 -21.5t21.5 -50.5t-21.5 -50.5t-50.5 -21.5t-50 21.5t-21 50.5zM444 1413q0 -18 12.5 -30.5t30.5 -12.5q19 0 31 12t12 31t-12 31t-31 12q-18 0 -30.5 -12.5t-12.5 -30.5zM840 1413q0 29 21 50.5t50 21.5t50.5 -21.5t21.5 -50.5t-21.5 -50.5t-50.5 -21.5t-50 21.5 t-21 50.5zM868 1413q0 -18 12.5 -30.5t30.5 -12.5q19 0 31 12t12 31t-12 31t-31 12q-18 0 -30.5 -12.5t-12.5 -30.5z" />
<glyph unicode="&#xfd;" horiz-adv-x="1394" d="M-121 -362l25 16q59 -97 142.5 -138.5t172.5 -41.5q130 0 233 95t195 308l37 88l-451 1041h-249v28h581v-28h-301l436 -1006l435 1006h-308v28h582v-28h-244l-493 -1141q-94 -218 -204.5 -319t-248.5 -101q-93 0 -185.5 45t-154.5 148zM451 1323l475 324l16 -25 l-475 -324z" />
<glyph unicode="&#xfe;" horiz-adv-x="1413" d="M-35 -475h287v1988h-287v29h316v-833q52 153 185 250.5t298 97.5q138 0 256 -69t187 -186.5t69 -254.5q0 -138 -69 -256t-187 -187t-256 -69q-166 0 -298.5 97t-184.5 251v-858h286v-31h-602v31zM283 547q0 -132 64 -243.5t174.5 -176t242.5 -64.5t243 64.5t175.5 176 t64.5 243.5q0 131 -64.5 241.5t-175.5 175t-243 64.5t-242.5 -64.5t-174.5 -175t-64 -241.5z" />
<glyph unicode="&#xff;" horiz-adv-x="1394" d="M-121 -362l25 16q59 -97 142.5 -138.5t172.5 -41.5q130 0 233 95t195 308l37 88l-451 1041h-249v28h581v-28h-301l436 -1006l435 1006h-308v28h582v-28h-244l-493 -1141q-94 -218 -204.5 -319t-248.5 -101q-93 0 -185.5 45t-154.5 148zM412 1413q0 29 21 50.5t50 21.5 t50.5 -21.5t21.5 -50.5t-21.5 -50.5t-50.5 -21.5t-50 21.5t-21 50.5zM440 1413q0 -18 12.5 -30.5t30.5 -12.5q19 0 31 12t12 31t-12 31t-31 12q-18 0 -30.5 -12.5t-12.5 -30.5zM836 1413q0 29 21 50.5t50 21.5t50.5 -21.5t21.5 -50.5t-21.5 -50.5t-50.5 -21.5t-50 21.5 t-21 50.5zM864 1413q0 -18 12.5 -30.5t30.5 -12.5q19 0 31 12t12 31t-12 31t-31 12q-18 0 -30.5 -12.5t-12.5 -30.5z" />
<glyph unicode="&#x152;" horiz-adv-x="2314" d="M145 799q0 154 56.5 289t160.5 236t261.5 159.5t347.5 58.5h1173v-338h-28v309h-891v-684h704v-28h-704v-717h911v309h29v-338h-1194q-190 0 -347.5 58.5t-261.5 159.5t-160.5 236.5t-56.5 289.5zM174 799q0 -149 54 -279t153.5 -227t251.5 -153t338 -56h225v1429h-225 q-186 0 -338 -55.5t-251.5 -152.5t-153.5 -227t-54 -279z" />
<glyph unicode="&#x153;" horiz-adv-x="2238" d="M137 539q0 137 68.5 254.5t186 186.5t255.5 69q178 0 318 -113.5t180 -282.5q38 170 172.5 283t324.5 113q120 0 218.5 -47t156 -122t79.5 -169t1 -187h-936q5 -199 144 -334t356 -135q218 0 399 152l17 -23q-187 -157 -416 -157q-197 0 -337.5 111t-178.5 284 q-40 -170 -180 -282.5t-318 -112.5q-138 0 -255.5 69t-186 187t-68.5 256zM166 539q0 -132 64 -243.5t174.5 -176t242.5 -64.5t243 64.5t175.5 176t64.5 243.5q0 131 -64.5 241.5t-175.5 175t-243 64.5t-242.5 -64.5t-174.5 -175t-64 -241.5zM1161 553h912q15 84 -9.5 168 t-79 150t-144.5 107.5t-198 41.5q-140 0 -250.5 -65.5t-169 -171t-61.5 -230.5z" />
<glyph unicode="&#x178;" horiz-adv-x="1640" d="M-25 1513v29h605v-29h-306l545 -862l547 862h-307v29h606v-29h-264l-567 -895v-534h288v-29h-604v29h287v534l-565 895h-265zM537 1872q0 29 21 50.5t50 21.5t50.5 -21.5t21.5 -50.5t-21.5 -50.5t-50.5 -21.5t-50 21.5t-21 50.5zM565 1872q0 -18 12.5 -30.5t30.5 -12.5 q19 0 31 12t12 31t-12 31t-31 12q-18 0 -30.5 -12.5t-12.5 -30.5zM961 1872q0 29 21 50.5t50 21.5t50.5 -21.5t21.5 -50.5t-21.5 -50.5t-50.5 -21.5t-50 21.5t-21 50.5zM989 1872q0 -18 12.5 -30.5t30.5 -12.5q19 0 31 12t12 31t-12 31t-31 12q-18 0 -30.5 -12.5 t-12.5 -30.5z" />
<glyph unicode="&#x2c6;" horiz-adv-x="671" d="M-199 1343l322 234l321 -234l-16 -24l-305 221l-303 -221z" />
<glyph unicode="&#x2dc;" horiz-adv-x="645" d="M-20 1303q0 45 8.5 85t27 77t54 59t84.5 22q47 0 87.5 -25t86.5 -73q45 -47 78.5 -68.5t74.5 -21.5q54 0 88.5 33.5t46 78.5t11.5 103h28q0 -45 -8.5 -85t-27 -77.5t-54 -59.5t-84.5 -22q-47 0 -87.5 25t-86.5 73q-46 47 -79 69t-74 22q-54 0 -88.5 -33.5t-46 -78.5 t-11.5 -103h-28z" />
<glyph unicode="&#x2000;" horiz-adv-x="1052" />
<glyph unicode="&#x2001;" horiz-adv-x="2105" />
<glyph unicode="&#x2002;" horiz-adv-x="1052" />
<glyph unicode="&#x2003;" horiz-adv-x="2105" />
<glyph unicode="&#x2004;" horiz-adv-x="701" />
<glyph unicode="&#x2005;" horiz-adv-x="526" />
<glyph unicode="&#x2006;" horiz-adv-x="350" />
<glyph unicode="&#x2007;" horiz-adv-x="350" />
<glyph unicode="&#x2008;" horiz-adv-x="263" />
<glyph unicode="&#x2009;" horiz-adv-x="421" />
<glyph unicode="&#x200a;" horiz-adv-x="116" />
<glyph unicode="&#x2010;" horiz-adv-x="813" d="M147 623v28h519v-28h-519z" />
<glyph unicode="&#x2011;" horiz-adv-x="813" d="M147 623v28h519v-28h-519z" />
<glyph unicode="&#x2012;" horiz-adv-x="813" d="M147 623v28h519v-28h-519z" />
<glyph unicode="&#x2013;" horiz-adv-x="1232" d="M147 623v28h936v-28h-936z" />
<glyph unicode="&#x2014;" horiz-adv-x="1558" d="M147 623v28h1262v-28h-1262z" />
<glyph unicode="&#x2018;" horiz-adv-x="534" d="M166 1255q0 51 21.5 110t52.5 107t62.5 89t53.5 63l21 23l20 -21q-8 -8 -21.5 -22.5t-48.5 -58.5t-61.5 -85.5t-48.5 -97t-22 -100.5q0 -78 51 -78q19 0 31 12t12 31q0 20 -14.5 32t-30.5 7l2 28q29 3 50 -17t21 -50q0 -29 -21 -50.5t-50 -21.5q-33 0 -56.5 25t-23.5 75z " />
<glyph unicode="&#x2019;" horiz-adv-x="532" d="M150 1128q8 8 21.5 23t48.5 58.5t61.5 85.5t48.5 97.5t22 100.5q0 78 -51 78q-19 0 -31 -12t-12 -31q0 -20 14.5 -32t30.5 -7l-2 -29q-29 -3 -50.5 17.5t-21.5 50.5q0 29 21.5 50t50.5 21q33 0 56.5 -25t23.5 -75q0 -51 -21.5 -110t-52.5 -107t-62.5 -88.5t-52.5 -63.5 l-22 -22z" />
<glyph unicode="&#x201a;" horiz-adv-x="626" d="M168 -303q8 8 22 22.5t49 58.5t61.5 85.5t48.5 97t22 100.5q0 78 -52 78q-19 0 -31 -12t-12 -31q0 -20 15 -32t31 -7l-3 -28q-29 -3 -50 17t-21 50q0 29 21 50.5t50 21.5q33 0 56.5 -25t23.5 -75q0 -51 -21.5 -110t-52.5 -107t-62.5 -89t-52.5 -64l-22 -22z" />
<glyph unicode="&#x201c;" horiz-adv-x="907" d="M166 1255q0 51 21.5 110t52.5 107t62.5 89t53.5 63l21 23l20 -21q-8 -8 -21.5 -22.5t-48.5 -58.5t-61.5 -85.5t-48.5 -97t-22 -100.5q0 -78 51 -78q19 0 31 12t12 31q0 20 -14.5 32t-30.5 7l2 28q29 3 50 -17t21 -50q0 -29 -21 -50.5t-50 -21.5q-33 0 -56.5 25t-23.5 75z M539 1255q0 51 21.5 110t52.5 107t62.5 89t52.5 63l22 23l20 -21q-8 -8 -22 -22.5t-49 -58.5t-61.5 -85.5t-48.5 -97t-22 -100.5q0 -78 51 -78q19 0 31.5 12t12.5 31q0 20 -15 32t-31 7l2 28q29 3 50.5 -17.5t21.5 -49.5t-21.5 -50.5t-50.5 -21.5q-33 0 -56 25t-23 75z" />
<glyph unicode="&#x201d;" horiz-adv-x="899" d="M150 1130q8 8 21.5 23t48.5 58.5t61.5 85.5t48.5 97.5t22 100.5q0 78 -51 78q-19 0 -31 -12t-12 -31q0 -20 14.5 -32t30.5 -7l-2 -29q-29 -3 -50.5 17.5t-21.5 50.5q0 29 21.5 50.5t50.5 21.5q33 0 56.5 -25.5t23.5 -75.5q0 -51 -21.5 -110t-52.5 -107t-62.5 -88.5 t-52.5 -63.5l-22 -22zM514 1130q8 8 22 23t49 58.5t61.5 85.5t48.5 97.5t22 100.5q0 78 -51 78q-19 0 -31 -12t-12 -31q0 -20 14.5 -32t30.5 -7l-2 -29q-29 -3 -50.5 17.5t-21.5 50.5q0 29 21.5 50.5t50.5 21.5q33 0 56 -25.5t23 -75.5q0 -51 -21.5 -110t-52.5 -107 t-62 -88.5t-53 -63.5l-21 -22z" />
<glyph unicode="&#x201e;" horiz-adv-x="993" d="M168 -303q8 8 22 22.5t49 58.5t61.5 85.5t48.5 97t22 100.5q0 78 -52 78q-19 0 -31 -12t-12 -31q0 -20 15 -32t31 -7l-3 -28q-29 -3 -50 17t-21 50q0 29 21 50.5t50 21.5q33 0 56.5 -25t23.5 -75q0 -51 -21.5 -110t-52.5 -107t-62.5 -89t-52.5 -64l-22 -22zM535 -303 q8 8 21.5 22.5t48.5 58.5t61.5 85.5t48.5 97t22 100.5q0 78 -51 78q-19 0 -31 -12t-12 -31q0 -20 14.5 -32t30.5 -7l-2 -28q-29 -3 -50.5 17.5t-21.5 49.5t21.5 50.5t50.5 21.5q33 0 56.5 -25t23.5 -75q0 -51 -21.5 -110t-53 -107t-62.5 -89t-53 -64l-21 -22z" />
<glyph unicode="&#x2022;" horiz-adv-x="933" d="M233 643q0 95 69 163t165 68q95 0 164 -68t69 -163q0 -96 -68.5 -164.5t-164.5 -68.5t-165 68.5t-69 164.5zM262 643q0 -86 60 -145.5t145 -59.5q86 0 145.5 59.5t59.5 145.5q0 85 -59.5 144t-145.5 59q-85 0 -145 -59t-60 -144z" />
<glyph unicode="&#x2026;" horiz-adv-x="1284" d="M193 102q0 29 21 50.5t50 21.5t50.5 -21.5t21.5 -50.5t-21.5 -50t-50.5 -21t-50 21t-21 50zM221 102q0 -18 12.5 -30.5t30.5 -12.5t30.5 12.5t12.5 30.5q0 19 -12 31t-31 12t-31 -12t-12 -31zM569 102q0 29 21.5 50.5t50.5 21.5t50.5 -21.5t21.5 -50.5t-21.5 -50 t-50.5 -21t-50.5 21t-21.5 50zM598 102q0 -18 12.5 -30.5t30.5 -12.5t30.5 12.5t12.5 30.5q0 19 -12 31t-31 12t-31 -12t-12 -31zM946 102q0 29 21.5 50.5t50.5 21.5t50.5 -21.5t21.5 -50.5t-21.5 -50t-50.5 -21t-50.5 21t-21.5 50zM975 102q0 -18 12.5 -30.5t30.5 -12.5 t30.5 12.5t12.5 30.5q0 19 -12 31t-31 12t-31 -12t-12 -31z" />
<glyph unicode="&#x202f;" horiz-adv-x="421" />
<glyph unicode="&#x2039;" horiz-adv-x="712" d="M150 627l10 10l-10 10l385 410l22 -19l-379 -401l379 -399l-22 -21z" />
<glyph unicode="&#x203a;" horiz-adv-x="712" d="M158 238l379 401l-379 399l22 21l385 -410l-10 -10l10 -10l-385 -410z" />
<glyph unicode="&#x205f;" horiz-adv-x="526" />
<glyph unicode="&#x20ac;" horiz-adv-x="1882" d="M100 606v29h224q-19 84 -19 164q0 70 17 157h-222v29h228q64 255 274 421.5t477 166.5q185 0 344.5 -84.5t221.5 -224.5v333h28v-682h-28v244q-15 114 -99 203.5t-206.5 135.5t-260.5 46q-258 0 -458.5 -157.5t-264.5 -401.5h785v-29h-791q-16 -68 -16 -157 q0 -87 18 -164h703v-29h-697q65 -242 264.5 -397.5t456.5 -155.5q173 0 317 51t277 170l19 -22q-138 -121 -288 -174t-325 -53q-266 0 -475 164t-274 417h-230z" />
<glyph unicode="&#x2122;" horiz-adv-x="1648" d="M111 1522v28h522v-28h-246v-537h-29v537h-247zM815 985v608h14l13 6l278 -505l277 505l12 -6h14v-608h-28v553l-262 -479l-13 6l-12 -6l-264 479v-553h-29z" />
<glyph unicode="&#x25fc;" horiz-adv-x="1034" d="M0 0v1034h1034v-1034h-1034z" />
</font>
</defs>
</svg>
