<?xml version="1.0" standalone="no"?>
<!DOCTYPE svg PUBLIC "-//W3C//DTD SVG 1.1//EN" "http://www.w3.org/Graphics/SVG/1.1/DTD/svg11.dtd" >
<svg xmlns="http://www.w3.org/2000/svg">
<metadata></metadata>
<defs>
<font id="gistlight" horiz-adv-x="1775" >
<font-face units-per-em="2048" ascent="1638" descent="-410" />
<missing-glyph horiz-adv-x="585" />
<glyph unicode="&#xfb01;" horiz-adv-x="1388" d="M-594 -262l55 -6q-6 -55 12.5 -109.5t57.5 -100.5t105.5 -75t148.5 -29q63 0 117 16.5t94.5 44.5t75 70.5t58.5 88.5t44 104.5t33 112.5t24 118l183 1033h690l-164 -922h-287l9 55h231l143 811h-577l-174 -987q-11 -66 -25 -123t-36 -119.5t-48.5 -113t-65.5 -97t-85 -78 t-107.5 -50.5t-132.5 -19q-96 0 -173.5 35t-123 90t-67.5 120.5t-15 129.5zM-510 -270l55 -6q-10 -81 55.5 -151.5t184.5 -70.5q69 0 124 26t92 68t66 107.5t47 131.5t33 153l170 962h-233l10 56h291l-182 -1029q-16 -91 -35 -160.5t-52.5 -142.5t-76 -120t-108 -77 t-146.5 -30q-99 0 -171 45t-101.5 108.5t-22.5 129.5zM100 1034l11 56h231l6 30q13 74 28 138t39 134t53 126t70.5 108.5t91 87t115 55.5t142.5 21q100 0 181.5 -38.5t129 -99.5t70.5 -133.5t16 -144.5l-55 6q6 61 -13.5 123t-60.5 114t-111 85t-157 33q-94 0 -170 -36 t-126 -92.5t-88.5 -142t-60 -168t-39.5 -186.5l-14 -76h-289zM420 1034l12 72q12 72 25.5 131t34.5 122.5t45.5 112.5t59 94.5t76 75t96 47t118.5 17.5q104 0 180 -51.5t108 -124t25 -146.5l-55 7q6 60 -20 118.5t-89 100t-149 41.5q-76 0 -137.5 -29.5t-102.5 -78 t-73.5 -123t-52 -150t-36.5 -174.5l-2 -6h719l-168 -951h230l-9 -55h-286l168 950h-717zM637 0l10 55h602l-10 -55h-602z" />
<glyph unicode="&#xfb02;" horiz-adv-x="1531" d="M-592 -262l55 -6q-8 -74 24.5 -144.5t111 -120t186.5 -49.5q87 0 157 32t116.5 83t82 126.5t55 149t35.5 164.5l183 1033h432l-10 -56h-377l-172 -987q-12 -66 -26 -122.5t-36 -119.5t-48.5 -113t-65.5 -97.5t-85 -78.5t-107.5 -50t-133.5 -19q-95 0 -172 35t-122.5 90 t-67.5 120.5t-15 129.5zM-508 -270l55 -6q-10 -81 55 -151.5t183 -70.5q69 0 124.5 26t93 68t66.5 107.5t46 131.5t32 153l170 962h-231l10 56h289l-182 -1029q-16 -90 -34.5 -160.5t-52 -142.5t-76.5 -119.5t-108 -77.5t-147 -30q-98 0 -170 45t-101.5 108.5t-21.5 129.5z M102 1034l11 56h229l18 98q12 66 25.5 122t36 119.5t50.5 113.5t69 98t90.5 79.5t117 50.5t146.5 19q260 0 430 -207l-209 -1198q-13 -63 -8 -108.5t17 -76t33 -48.5t40.5 -25.5t38.5 -7.5q36 0 66.5 13t72.5 48l35 -43q-92 -74 -174 -74q-22 0 -44.5 6.5t-47.5 21 t-43.5 39.5t-33 61.5t-16 87t8.5 116.5l205 1172q-155 168 -371 168q-97 0 -174 -32.5t-126.5 -83.5t-86.5 -128t-56.5 -149t-35.5 -164l-27 -144h-287zM420 1034l24 140q16 91 34.5 160t53.5 142.5t81.5 121t118.5 78t163 30.5q196 0 340 -147l-203 -1160 q-16 -85 -6 -147.5t31 -104t54.5 -66.5t64.5 -35.5t61 -10.5q91 0 190 80l37 -43q-112 -92 -227 -92q-36 0 -74.5 12.5t-80.5 42t-69.5 79t-41 123t5.5 173.5l199 1128q-119 113 -281 113q-79 0 -140.5 -26.5t-102 -69t-72 -109t-49 -131.5t-33.5 -152l-15 -73h379l-10 -56 h-432z" />
<glyph unicode="&#xfb03;" horiz-adv-x="2154" d="M-592 -262l55 -6q-7 -74 26 -144.5t111 -120t185 -49.5q87 0 157 32t116.5 83t82 126.5t55 149t35.5 164.5l183 1033h735l-182 -1029q-16 -90 -34.5 -160.5t-52 -142.5t-76.5 -119.5t-108 -77.5t-147 -30q-135 0 -219 84l39 39q68 -68 180 -68q69 0 124 26t92.5 68.5 t66.5 107.5t46.5 131.5t32.5 152.5l170 962h-620l-174 -987q-12 -66 -26 -122.5t-36 -119.5t-48.5 -113t-65.5 -97.5t-85 -78.5t-107.5 -50t-133.5 -19q-95 0 -172 35t-122.5 90t-67.5 120.5t-15 129.5zM-537 -266v-2l29 -2zM-508 -270l55 -6q-10 -81 55 -151.5t183 -70.5 q69 0 124.5 26t93 68t66.5 107.5t46 131.5t32 153l170 962h-233l10 56h291l-182 -1029q-16 -90 -34.5 -160.5t-52 -142.5t-76.5 -119.5t-108 -77.5t-147 -30q-74 0 -134 26t-95.5 68t-52 91.5t-11.5 97.5zM100 1034l11 56h231q21 104 47 187t71 169.5t103 144.5t144.5 94.5 t193.5 36.5q207 0 365 -145q138 213 385 213q100 0 181.5 -38.5t129.5 -99.5t71 -133.5t15 -144.5l-55 6q6 61 -13.5 123t-60.5 114t-111 85t-157 33q-246 0 -373 -248q-153 180 -377 180q-100 0 -180 -36.5t-133 -94t-94 -144t-64 -170t-41 -188.5h-289zM270 -530l39 41 q93 -93 240 -93q87 0 157 32t116.5 83t82 126.5t55 149t35.5 164.5l183 1033h692l-166 -922h-287l10 55h230l145 811h-577l-174 -987q-12 -66 -26 -122.5t-36 -119.5t-49 -113.5t-66 -97.5t-85 -78t-107.5 -50t-132.5 -19q-85 0 -157.5 30t-121.5 77zM309 -489l21 20z M418 1034q19 103 41 183t61 162.5t88.5 136.5t124.5 88t168 34q213 0 363 -180q-62 -136 -97 -348l-14 -76h-735zM485 1090h621l6 30q32 197 88 330q-127 133 -299 133q-93 0 -165 -37.5t-120 -108.5t-78.5 -154t-52.5 -193zM1184 1034l12 72q12 72 26 131t34.5 122.5 t45.5 113t59.5 94.5t76 74.5t96 47t117.5 17.5q79 0 143.5 -30t102 -77.5t55 -103.5t12.5 -111l-55 7q7 60 -19 118.5t-89.5 100t-149.5 41.5q-76 0 -136.5 -29.5t-102 -78t-73.5 -123t-51.5 -150.5t-36.5 -174l-2 -6h719l-168 -951h230l-13 -55h-284l170 950h-719zM1401 0 l10 55h602l-10 -55h-602zM1964 1384l29 -4zM2013 55l6 29h-2z" />
<glyph unicode="&#xfb04;" horiz-adv-x="2297" d="M-592 -262l55 -6q-7 -54 11.5 -109.5t57.5 -101t105 -74.5t148 -29q63 0 117 16.5t94.5 44.5t75 70.5t58.5 88.5t44 104.5t33 112.5t24 118l183 1033h735l-182 -1029q-16 -91 -35 -160.5t-52.5 -142.5t-76 -120t-108 -77t-146.5 -30q-134 0 -221 84l39 39q71 -68 182 -68 q69 0 124 26t92 68t66 107.5t47 131.5t33 153l170 962h-622l-172 -987q-12 -66 -26 -122.5t-36 -119.5t-49 -113.5t-66 -97.5t-85 -78t-107.5 -50t-132.5 -19q-96 0 -173.5 35t-123 90t-67 120.5t-13.5 129.5zM-508 -270l55 -6q-10 -81 55 -151.5t183 -70.5q69 0 124 26 t92.5 68.5t66.5 107.5t46.5 131.5t32.5 152.5l170 962h-233l10 56h291l-182 -1029q-16 -91 -35 -160.5t-52.5 -142.5t-76 -120t-108 -77t-146.5 -30q-75 0 -135.5 26t-96 68t-51.5 91t-10 98zM100 1034l11 56h231q14 72 30 134t41.5 128t56 118.5t74 101t94 80.5t117.5 51 t144 19q203 0 361 -139q137 207 399 207q254 0 432 -207l-213 -1208q-11 -77 -5 -126.5t30 -78.5t48.5 -40t51.5 -11q34 0 64.5 13t72.5 48l35 -43q-50 -40 -89 -57t-83 -17q-28 0 -56 8.5t-57.5 30t-47.5 58t-26 92t7 131.5l207 1184q-152 168 -371 168q-262 0 -387 -242 q-153 174 -373 174q-100 0 -180 -36.5t-132.5 -94t-93 -144t-63.5 -170t-41 -188.5h-289zM268 -530l39 41q97 -93 242 -93q63 0 117 16.5t94.5 44.5t75 70.5t58.5 88.5t44 104.5t33 112.5t24 118l183 1033h432l-11 -56h-374l-174 -987q-12 -66 -26 -122.5t-36 -119.5 t-49 -113.5t-66 -97.5t-85 -78t-107.5 -50t-132.5 -19q-170 0 -281 107zM418 1034q18 103 40 183.5t60.5 162.5t88 136t124.5 88t168 34q208 0 361 -174q-53 -119 -80 -286l-27 -144h-735zM483 1090h623l18 98q23 148 70 266q-126 129 -295 129q-75 0 -136.5 -26t-105 -68.5 t-78 -108t-56.5 -134t-40 -156.5zM1184 1034l24 140q16 91 34.5 160t53.5 142.5t81.5 121t118.5 78t163 30.5q199 0 340 -147l-205 -1172q-16 -82 -6 -142.5t31.5 -100.5t56 -64.5t66 -34.5t61.5 -10q92 0 190 82l37 -45q-115 -92 -227 -92q-36 0 -75 12.5t-81.5 41 t-70.5 76.5t-42 119t5 168l200 1141q-116 113 -280 113q-78 0 -139.5 -26.5t-102.5 -69t-72 -108.5t-48.5 -132t-32.5 -152l-15 -73h375l-10 -56h-430z" />
<glyph horiz-adv-x="2048" />
<glyph horiz-adv-x="2048" />
<glyph unicode="&#xd;" horiz-adv-x="2048" />
<glyph unicode=" "  horiz-adv-x="585" />
<glyph unicode="&#x09;" horiz-adv-x="585" />
<glyph unicode="&#xa0;" horiz-adv-x="585" />
<glyph unicode="!" horiz-adv-x="591" d="M68 96q0 51 36.5 88t88.5 37q51 0 86.5 -37t35.5 -88t-35.5 -87t-86.5 -36q-52 0 -88.5 36t-36.5 87zM121 96q0 -30 20.5 -50.5t51.5 -20.5q29 0 49 21t20 50q0 30 -20 51t-49 21q-30 0 -51 -21t-21 -51zM150 96q0 19 11.5 31t31.5 12q17 0 28.5 -12t11.5 -31 q0 -18 -11 -30.5t-29 -12.5q-19 0 -31 12t-12 31zM178 424l209 1173h57l-208 -1173h-58zM264 424l209 1173h55l-206 -1173h-58z" />
<glyph unicode="&#x22;" horiz-adv-x="905" d="M215 965l111 632h59l-113 -632h-57zM301 965l113 632h57l-113 -632h-57zM649 965l111 632h59l-112 -632h-58zM735 965l113 632h57l-112 -632h-58z" />
<glyph unicode="#" horiz-adv-x="1470" d="M53 440l10 56h322l-174 -496h-57l153 440h-254zM70 524l10 58h276l148 419h-262l10 56h330l-187 -533h-325zM244 0l174 496h465l-172 -496h-60l154 440h-348l-154 -440h-59zM258 1085l10 56h285l160 456h59l-180 -512h-334zM428 524l186 533h465l-186 -533h-465zM506 582 h348l147 419h-348zM625 1085l180 512h57l-160 -456h349l161 456h58l-180 -512h-465zM743 0l172 496h336l-10 -56h-287l-153 -440h-58zM926 524l186 533h334l-10 -56h-283l-147 -419h260l-11 -58h-329zM1122 1085l181 512h59l-160 -456h258l-10 -56h-328z" />
<glyph unicode="$" horiz-adv-x="1236" d="M90 602l53 -10q-17 -95 8 -176t80.5 -136t126 -91.5t150.5 -53.5l-41 -233h-59l32 194q-81 24 -149 66t-121.5 103.5t-75.5 148.5t-4 188zM172 588l55 -8q-23 -131 47 -220.5t191 -128.5l94 543q-69 34 -119 66t-99 78t-75 106.5t-26 132.5q0 158 118 265.5t316 107.5h18 l31 166h57l-39 -226q-57 5 -67 5q-172 0 -275.5 -92.5t-103.5 -225.5q0 -53 19 -99.5t47 -80t75.5 -66.5t88 -55t100.5 -49l-113 -643q-76 15 -141 48.5t-117 84.5t-74.5 126.5t-7.5 164.5zM324 1157q0 124 93.5 206.5t256.5 82.5q21 0 61 -4l-106 -608q-58 27 -96.5 48 t-81.5 51.5t-68.5 61t-42 72.5t-16.5 90zM379 1157q0 -79 51.5 -132.5t155.5 -106.5l82 473q-134 -1 -211.5 -69t-77.5 -165zM496 -98l39 229q44 -8 96 -8q182 0 289.5 93t107.5 233q0 33 -7.5 64t-18 55.5t-31 49.5t-36 42t-45.5 37.5t-46.5 31.5t-51 28.5t-48 23.5 t-48 21.5t-41.5 18.5l109 619q73 -11 132.5 -40.5t104.5 -77.5t62.5 -121.5t1.5 -164.5l-53 11q23 131 -34.5 213t-168.5 112l-90 -516q41 -19 64 -30t67 -36t70.5 -45.5t61 -54t54 -67t33.5 -79t14 -95.5q0 -163 -123.5 -272t-328.5 -109q-33 0 -49 2l-29 -168h-57z M541 158l110 635q129 -59 171 -85q176 -107 177 -259q0 -128 -98.5 -212.5t-269.5 -84.5q-43 0 -90 6zM606 207h25q146 0 229.5 70t83.5 172q0 49 -21 90.5t-61 73.5t-77 53.5t-91 46.5zM768 1466l41 230h57l-32 -189q61 -16 112.5 -43t96.5 -68.5t72.5 -95.5t38.5 -124 t-5 -154l-55 10q18 97 -2 176t-69.5 130.5t-113.5 83t-141 44.5z" />
<glyph unicode="%" horiz-adv-x="2056" d="M188 1241q0 160 111.5 270.5t271.5 110.5t270.5 -110.5t110.5 -270.5t-110.5 -271.5t-270.5 -111.5t-271.5 111.5t-111.5 271.5zM244 1241q0 -134 96 -230t231 -96q133 0 229.5 96.5t96.5 229.5t-96.5 229.5t-229.5 96.5q-135 0 -231 -96t-96 -230zM272 1241 q0 125 86.5 211t212.5 86q125 0 211 -86t86 -211t-86 -211t-211 -86q-126 0 -212.5 86t-86.5 211zM326 0l1273 1597h70l-1274 -1597h-69zM328 1241q0 -100 71.5 -171t171.5 -71q99 0 170.5 71.5t71.5 170.5q0 98 -72 170t-170 72q-101 0 -172 -71.5t-71 -170.5zM432 0 l1272 1597h74l-1274 -1597h-72zM1151 358q0 160 110.5 270.5t270.5 110.5t270.5 -110.5t110.5 -270.5t-110.5 -271.5t-270.5 -111.5t-270.5 111.5t-110.5 271.5zM1206 358q0 -135 96 -230t230 -95t230 95t96 230q0 134 -96 230t-230 96t-230 -96t-96 -230zM1235 358 q0 124 86.5 210.5t210.5 86.5t210.5 -86.5t86.5 -210.5q0 -126 -86 -211.5t-211 -85.5t-211 85.5t-86 211.5zM1290 358q0 -101 71 -171t171 -70t171 70t71 171q0 99 -71.5 170.5t-170.5 71.5t-170.5 -71.5t-71.5 -170.5z" />
<glyph unicode="&#x26;" horiz-adv-x="1671" d="M106 575q0 123 45.5 234.5t122 191t177.5 130.5t211 61q-25 61 -25 125q0 129 92.5 226t237.5 97q66 0 125 -24t101 -63.5t66 -93.5t25.5 -111.5t-26.5 -120.5t-84 -117l-39 41q56 53 78 115.5t10 117.5t-45.5 101t-89.5 73t-121 27q-118 0 -196.5 -82.5t-78.5 -185.5 q0 -107 72 -182q-114 11 -223.5 -27t-193 -112t-134.5 -184.5t-51 -236.5q0 -127 46.5 -234.5t125 -178t179 -109.5t210.5 -39q130 0 241.5 58t176.5 157t65 215q0 71 -32 136.5t-87 113.5q67 106 130.5 159.5t146.5 53.5q94 0 144.5 -54.5t50.5 -123.5q0 -49 -25.5 -94 t-63.5 -76l-34 45q67 53 67 125q0 48 -36 85.5t-103 37.5q-104 0 -205 -150q103 -114 103 -258q0 -133 -73 -244.5t-197 -176t-269 -64.5q-121 0 -232 42.5t-197 119t-137 194.5t-51 260zM190 575q0 123 54 231.5t139.5 179t197 102.5t222.5 12q51 -39 119 -56l-13 -53 q-69 17 -127 56q-132 22 -256 -34t-202 -174t-78 -264t67 -256t174 -165.5t236 -55.5q165 0 282 102t117 244q0 72 -43 134q-36 -55 -68 -94.5t-74 -77t-91.5 -57t-104.5 -19.5q-112 0 -186 71.5t-74 178.5q0 110 91 189t245 79q122 0 232 -60q67 97 142.5 151t172.5 54 q66 0 121 -25.5t88 -65.5t51 -85.5t18 -87.5q0 -69 -35.5 -133.5t-84.5 -101.5l-35 45q40 30 70 82.5t30 107.5q0 77 -59 142t-164 65q-90 0 -161 -58t-140 -165q-111 80 -246 80q-132 0 -206 -62t-74 -151q0 -82 58.5 -138.5t145.5 -56.5q54 0 100.5 21.5t89 67t71.5 86.5 t71 110q105 -95 105 -226q0 -167 -133 -284t-322 -117q-107 0 -203 36t-169.5 102.5t-117 168.5t-43.5 225zM565 580q0 76 66.5 130t185.5 54q133 0 232 -76q-32 -54 -55 -88t-54.5 -73t-59.5 -61t-64 -37t-75 -15q-78 0 -127 47t-49 119zM621 580q0 -47 33.5 -79t86.5 -32 q64 0 114.5 49t117.5 154q-72 37 -156 37q-94 0 -145 -38.5t-51 -90.5zM721 1317q0 96 68.5 167.5t177.5 71.5q59 0 109 -23.5t79.5 -64.5t39.5 -89.5t-10.5 -104t-70.5 -103.5l-37 41q64 61 65.5 130t-48.5 114t-127 45q-83 0 -137 -56t-54 -128q0 -66 42 -117.5t126 -73.5 l-14 -53q-105 25 -157 91t-52 153z" />
<glyph unicode="'" horiz-adv-x="471" d="M215 965l111 632h59l-113 -632h-57zM301 965l113 632h57l-113 -632h-57z" />
<glyph unicode="(" horiz-adv-x="722" d="M66 395q0 194 42 380.5t112.5 338t166.5 288t199 238.5t215 181l30 -45q-109 -77 -208.5 -176t-192 -231t-160.5 -279t-108.5 -327t-40.5 -368q0 -286 88 -522.5t227 -366.5l-37 -41q-147 136 -240 384t-93 546zM150 395q0 230 59.5 444.5t161 384t221.5 300.5t256 227 l33 -45q-104 -74 -199 -168.5t-183 -219.5t-152.5 -264.5t-103 -310t-38.5 -348.5q0 -273 80.5 -490.5t210.5 -336.5l-39 -41q-137 127 -222 356t-85 512z" />
<glyph unicode=")" horiz-adv-x="720" d="M-166 -420q104 74 199 168.5t183 219.5t152.5 264.5t103 310t38.5 348.5q0 273 -80.5 490.5t-210.5 336.5l39 41q137 -127 222 -356t85 -512q0 -230 -59.5 -444.5t-161 -384t-221.5 -300.5t-256 -227zM-117 -489q109 77 208.5 176t192.5 231t161 278.5t108.5 326.5 t40.5 368q0 286 -88 522.5t-227 366.5l36 41q147 -136 240.5 -384t93.5 -546q0 -194 -42 -380.5t-112.5 -338t-166.5 -288t-199 -238.5t-215 -181z" />
<glyph unicode="*" horiz-adv-x="972" d="M238 1382l26 50l301 -166l-246 -236l-38 41l192 182zM276 1456l27 49l236 -129l45 262l53 -10l-57 -336zM340 1010l246 235l151 -305l-49 -25l-119 240l-190 -186zM606 1286l60 338l55 -8l-45 -264l266 39l6 -56zM610 1257l342 50l9 -54l-265 -39l117 -237l-51 -25z" />
<glyph unicode="+" horiz-adv-x="1114" d="M111 680l10 55h432l-76 -434h-57l65 379h-374zM127 764l8 55h375l65 377h58l-76 -432h-430zM506 301l76 434h434l-10 -55h-377l-66 -379h-57zM586 764l76 432h57l-66 -377h377l-10 -55h-434z" />
<glyph unicode="," horiz-adv-x="632" d="M-23 -231q16 11 41 30.5t81 75.5t87 107q-33 8 -58.5 39.5t-25.5 74.5q0 52 35 87.5t88 35.5q51 0 88 -37.5t37 -101.5q0 -59 -30.5 -123t-73.5 -114t-86.5 -92t-73.5 -65l-31 -22l-30 41q11 8 29.5 22t66.5 57t84 85.5t66 101.5t30 111q0 41 -22.5 63.5t-53.5 22.5 q-30 0 -50.5 -21t-20.5 -51q0 -28 17 -46.5t40 -20.5l4 28q-13 2 -23 12.5t-10 26.5q0 18 12.5 30.5t30.5 12.5q20 0 33.5 -15t13.5 -42q0 -48 -27.5 -102t-66.5 -97t-78 -79t-66 -56l-28 -20z" />
<glyph unicode="-" horiz-adv-x="817" d="M131 567l8 56h518l-8 -56h-518zM145 651l11 58h518l-10 -58h-519z" />
<glyph unicode="." horiz-adv-x="532" d="M43 96q0 51 36.5 88t88.5 37q51 0 87 -37t36 -88t-36 -87t-87 -36q-52 0 -88.5 36t-36.5 87zM96 96q0 -30 21 -50.5t51 -20.5q29 0 49.5 21t20.5 50t-20.5 50.5t-49.5 21.5q-30 0 -51 -21t-21 -51zM125 96q0 19 11.5 31t31.5 12q17 0 29 -12t12 -31q0 -18 -11.5 -30.5 t-29.5 -12.5q-19 0 -31 12t-12 31z" />
<glyph unicode="/" horiz-adv-x="1423" d="M-137 -467l1517 2214h68l-1518 -2214h-67zM-33 -467l1518 2214h65l-1517 -2214h-66z" />
<glyph unicode="0" horiz-adv-x="1454" d="M137 651q0 183 49.5 357.5t136.5 312.5t219 222.5t285 84.5q249 0 393 -182.5t144 -497.5q0 -145 -31 -287.5t-91.5 -267t-142.5 -219.5t-192.5 -150t-232.5 -55q-246 0 -391.5 184t-145.5 498zM193 651q0 -294 129 -460t352 -166q137 0 257.5 79.5t202 209t128.5 295.5 t47 339q0 294 -128.5 459.5t-353.5 165.5q-138 0 -258.5 -79.5t-201.5 -209.5t-127.5 -295.5t-46.5 -337.5zM221 651q0 135 28 266t81.5 243.5t126.5 198.5t168.5 135.5t201.5 49.5q213 0 333 -156.5t120 -439.5q0 -135 -28 -266.5t-82 -244.5t-126.5 -199t-168.5 -135.5 t-201 -49.5q-211 0 -332 157.5t-121 440.5zM276 651q0 -258 107.5 -400t290.5 -142q153 0 281 120.5t199 312.5t71 406q0 259 -106.5 400t-291.5 141q-154 0 -282.5 -121t-198.5 -312.5t-70 -404.5z" />
<glyph unicode="1" horiz-adv-x="802" d="M14 0l11 55h604l-11 -55h-604zM31 84l10 55h229l234 1327l-234 -80l-18 54l321 108l-258 -1464h-284zM225 1520l346 118l17 -53l-344 -117zM344 84l262 1485l56 -10l-250 -1420h231l-10 -55h-289z" />
<glyph unicode="2" horiz-adv-x="1308" d="M-14 14q21 118 68.5 219.5t103.5 173t135 136.5t146 105.5t153 84.5q31 16 82.5 41.5t80 40t72 38t68 39t58 39.5t52 44t40 47.5t32 54.5t18 60t7.5 69q0 124 -94 203.5t-242 79.5q-68 0 -133 -22t-119.5 -63t-88.5 -107.5t-36 -149.5l-55 2q2 96 41.5 174t102 125 t136.5 71.5t152 24.5q173 0 283 -94t110 -244q0 -42 -8 -80.5t-20.5 -69.5t-36 -61.5t-45 -53.5t-57 -49.5t-62.5 -44t-72.5 -42t-75.5 -39.5t-81.5 -40.5t-82.5 -41.5q-86 -44 -149.5 -83t-138.5 -100t-127.5 -128t-96.5 -162.5t-65 -206.5zM63 -6q108 92 236 92 q71 0 199 -35q161 -49 247 -49q176 0 265.5 118.5t58.5 289.5l53 12q24 -128 -13.5 -236t-132.5 -173.5t-231 -65.5q-87 0 -264 51q-104 33 -182 33q-55 0 -100.5 -18.5t-96.5 -61.5zM78 39q16 72 43 136.5t58.5 115.5t74.5 98t83.5 82.5t93.5 71t98 61t102 55.5 q31 16 83 41.5t82.5 41t77 40.5t74.5 43.5t65.5 46t59.5 51.5t46.5 57t38 66t22 74t8.5 86q0 159 -120 263t-302 104q-64 0 -127.5 -16.5t-123 -51t-105.5 -83.5t-74.5 -119.5t-30.5 -153.5h-57q2 94 35 174t86 135t120 94t137.5 57.5t139.5 18.5q206 0 341.5 -118 t135.5 -304q0 -50 -9.5 -96t-24.5 -83.5t-42 -74t-51.5 -63.5t-64.5 -57t-70.5 -50t-78.5 -46t-80 -42t-84.5 -42.5t-82.5 -41.5q-68 -35 -119.5 -65t-110.5 -73.5t-102.5 -88t-84.5 -104.5t-68 -129q64 22 129 22q86 0 221 -41q160 -45 225 -45q133 0 198.5 88t41.5 221 l55 11q28 -157 -53.5 -266t-241.5 -109q-78 0 -239 49q-128 35 -207 35q-116 0 -221 -76z" />
<glyph unicode="3" horiz-adv-x="1224" d="M-18 -51l30 47q221 -137 449 -137q107 0 204.5 35.5t170.5 98.5t116 155t43 198q0 173 -106 287.5t-285 152.5q119 19 214 63.5t153.5 105t89.5 130t31 142.5q0 61 -23.5 121t-69 111t-121 82.5t-169.5 31.5q-165 0 -280 -91t-150 -231l-54 13q38 157 169 260.5 t315 103.5q106 0 192.5 -37t138.5 -96.5t79.5 -128.5t27.5 -139q0 -140 -91 -261t-263 -188q122 -65 190 -175t68 -257q0 -159 -81.5 -284.5t-215.5 -192t-293 -66.5q-243 0 -479 146zM29 20l28 46q202 -123 404 -123q123 0 225.5 50t163.5 143t61 210q0 169 -124 268 t-338 105h-21l10 55q237 0 383 -114.5t146 -313.5q0 -136 -68.5 -242t-183 -161.5t-254.5 -55.5q-221 0 -432 133zM307 1245q32 132 139 215.5t263 83.5q88 0 158 -28t111.5 -74.5t63 -101.5t21.5 -113q0 -79 -39.5 -153t-114 -135.5t-195.5 -98.5t-270 -37l11 55 q133 0 241 32.5t174.5 86t102 118t35.5 132.5q0 49 -18 94t-52.5 83.5t-94 61.5t-134.5 23q-135 0 -227.5 -71t-121.5 -183z" />
<glyph unicode="4" horiz-adv-x="1347" d="M-20 403l1015 1235l45 -36l-1015 -1233zM43 346q126 88 291 88q94 0 280.5 -34.5t251.5 -39.5l-75 -432h-287l10 56h229l58 329q-37 5 -211.5 35.5t-255.5 30.5q-146 0 -260 -78zM96 412l965 1173l43 -37l-852 -1036q40 6 82 6q95 0 279 -32t212 -35l74 421h57l-86 -483 q-67 5 -254 39.5t-282 34.5q-138 0 -238 -51zM487 -156l11 56h604l-10 -56h-605zM819 -72l76 430h37q107 0 174.5 32t120.5 93l41 -34q-60 -68 -135.5 -106.5t-190.5 -39.5l-55 -319h231l-10 -56h-289zM899 387l86 485h57l-75 -430q70 4 112 27.5t84 71.5l41 -39 q-51 -57 -111.5 -86t-160.5 -29h-33z" />
<glyph unicode="5" horiz-adv-x="1271" d="M-37 -70l31 47q190 -118 414 -118q122 -1 241 44t212.5 124t151.5 196.5t58 251.5q0 196 -126 313t-304 117q-179 0 -344 -100l192 708h650l-54 -301h-57l45 246h-538l-152 -551q133 54 258 54q131 0 240 -55.5t177 -168t68 -262.5q0 -148 -62.5 -276.5t-164 -214 t-230 -134t-261.5 -47.5q-120 0 -236 34.5t-209 92.5zM10 2l29 47q167 -106 369 -106q145 0 276.5 66t217 190t85.5 276q0 160 -99.5 253t-246.5 93q-175 0 -328 -106l-32 45q165 117 360 117q172 0 286.5 -107t114.5 -295q0 -128 -54.5 -240t-143.5 -187.5t-203 -118.5 t-233 -42q-219 0 -398 115zM205 791l221 806h813l-68 -385h-57l57 330h-702l-211 -766z" />
<glyph unicode="6" horiz-adv-x="1359" d="M127 608q0 148 32 308.5t99 317t160.5 280.5t228 201t289.5 77q135 0 244.5 -60.5t169.5 -175.5l-47 -26q-55 101 -150.5 154t-216.5 53q-120 0 -227.5 -51t-188.5 -138t-146.5 -200t-106.5 -240t-63 -254.5t-22 -245.5q0 -152 43.5 -268.5t116 -183t156.5 -99t176 -32.5 q101 0 193.5 41t162 112.5t111 176t41.5 223.5q0 91 -27 168.5t-71.5 131t-102.5 91.5t-120 55.5t-124 17.5q-176 0 -327.5 -112.5t-198.5 -286.5q3 99 19.5 203.5t48.5 208.5t76.5 200t105 178.5t131 143.5t159.5 96t185 35q239 0 342 -190l-49 -27q-90 162 -293 162 q-123 0 -231.5 -63.5t-187 -171t-134.5 -238.5t-86 -277q87 91 203 143t237 52q86 0 172.5 -33t160.5 -95t120.5 -164.5t46.5 -227.5q0 -132 -45.5 -246.5t-122 -193.5t-179.5 -124t-216 -45q-80 0 -155.5 21.5t-147.5 70.5t-125.5 121.5t-86 182t-32.5 243.5zM229 428 q-19 119 18.5 229.5t112 187.5t174.5 123t203 46q60 0 118.5 -16.5t112.5 -51.5t95 -85t65.5 -123t24.5 -160q0 -115 -38.5 -214t-104 -166.5t-153 -106t-183.5 -38.5q-73 0 -141 21t-129.5 64t-107.5 117.5t-67 172.5zM285 438q39 -167 146 -247t243 -80q84 0 161 34 t135.5 94t93 148.5t34.5 190.5q0 93 -32 168t-85 120t-115.5 68.5t-128.5 23.5q-92 0 -181.5 -41.5t-156 -109.5t-99.5 -166.5t-15 -202.5z" />
<glyph unicode="7" horiz-adv-x="1165" d="M164 1204l69 393h1006v-55h-958l-60 -338h-57zM250 1204l55 309h905l-430 -557q-464 -599 -461 -1030h-55q-3 448 473 1065l361 467h-748l-43 -254h-57zM348 -74q-3 419 455 1014l446 578l45 -33l-448 -580q-443 -575 -443 -979h-55z" />
<glyph unicode="8" horiz-adv-x="1406" d="M66 397q0 86 30 160.5t75.5 126.5t115 98t132.5 75t144 58q-272 164 -272 410q0 102 46 190t123 148.5t180 94.5t216 34q221 0 358.5 -121t137.5 -297q0 -304 -422 -479q73 -38 128 -78.5t102 -93t72 -119.5t25 -145q0 -119 -52 -215t-141 -157.5t-204.5 -94.5 t-245.5 -33q-243 0 -395.5 122.5t-152.5 315.5zM123 397q0 -169 134 -276t357 -107q95 0 182.5 19t161.5 56.5t128.5 90.5t85 124.5t30.5 154.5q0 55 -15 104t-44 90t-64.5 75t-86 65.5t-98 56t-108.5 51.5q63 21 114.5 42t114 52.5t109.5 68.5t88 82.5t62.5 103.5t21.5 124 q0 151 -122 257t-318 106q-135 0 -251.5 -52t-186.5 -147.5t-70 -212.5q0 -260 354 -420q-47 -15 -79 -26t-79 -28t-80.5 -33t-75.5 -37t-72 -43.5t-62.5 -50t-54 -58.5t-40 -66.5t-27.5 -77.5t-9 -88zM152 397q0 86 39 158t85 116.5t140 90t146 64.5t162 54q7 3 11.5 4.5 t9.5 2.5q100 -42 168.5 -78.5t132.5 -88t96 -116.5t32 -145q0 -129 -76 -225t-202 -143.5t-282 -47.5q-211 0 -336.5 98.5t-125.5 255.5zM207 397q0 -129 110.5 -214t296.5 -85q219 0 361.5 98t142.5 263q0 65 -27 119t-80.5 98.5t-116 79t-151.5 71.5q-58 -19 -86.5 -28.5 t-83 -29t-83.5 -33.5t-74 -37t-70 -43.5t-55.5 -50t-46 -60t-26.5 -68.5t-11 -80zM377 1325q0 165 139 274t340 109q187 0 299.5 -96.5t112.5 -237.5q0 -55 -18 -105t-46.5 -89t-73 -74.5t-87.5 -61t-100 -51t-100.5 -41.5t-99.5 -34q-366 152 -366 407zM432 1325 q0 -210 316 -350q72 24 130 47.5t123 60.5t108 77t72 95.5t29 118.5q0 115 -97 197t-257 82q-177 0 -300.5 -95t-123.5 -233z" />
<glyph unicode="9" horiz-adv-x="1359" d="M57 41l47 27q55 -101 150.5 -154t216.5 -53q103 0 197.5 38t169 104t138 155t109 191t77.5 212t47.5 218.5t15.5 209.5q0 123 -29 223t-77 166t-112.5 111t-133 64.5t-140.5 19.5q-101 0 -193.5 -41t-162 -112.5t-111 -176t-41.5 -223.5q0 -91 27 -169t71.5 -131.5 t102.5 -91.5t120 -55.5t124 -17.5q176 0 327.5 112.5t198.5 286.5q-3 -99 -19.5 -203.5t-48.5 -208.5t-76.5 -200t-105 -178.5t-131 -143.5t-159.5 -96t-185 -35q-238 0 -342 191l49 26q90 -161 293 -161q99 0 189 42t160.5 113t128.5 167.5t97.5 203.5t63.5 223 q-87 -91 -203 -142.5t-237 -51.5q-86 0 -172.5 33t-160.5 95t-120.5 164.5t-46.5 227.5q0 132 45.5 246.5t122.5 193t179.5 123.5t215.5 45q80 0 155.5 -21.5t147.5 -70.5t125.5 -121.5t86 -182t32.5 -243.5q0 -148 -32 -308.5t-99 -317t-160.5 -280.5t-228 -201t-289.5 -77 q-135 0 -244.5 60.5t-169.5 175.5zM254 1020q0 115 38.5 213.5t104 166t153 106t183.5 38.5q73 0 141 -21t129.5 -64t107.5 -117.5t67 -172.5q19 -119 -18.5 -229.5t-112 -187t-174.5 -122.5t-203 -46q-60 0 -118.5 16.5t-112.5 51.5t-95 85t-65.5 123t-24.5 160zM309 1020 q0 -75 21.5 -139t57 -108t82 -74.5t97.5 -45t103 -14.5q92 0 181.5 41.5t156 109.5t99.5 166.5t15 202.5q-39 167 -146.5 247.5t-242.5 80.5q-84 0 -161 -34t-135.5 -94t-93 -148.5t-34.5 -190.5z" />
<glyph unicode=":" horiz-adv-x="548" d="M51 96q0 51 36.5 88t88.5 37q51 0 87 -37t36 -88t-36 -87t-87 -36q-52 0 -88.5 36t-36.5 87zM104 96q0 -30 21 -50.5t51 -20.5q29 0 49.5 21t20.5 50t-20.5 50.5t-49.5 21.5q-30 0 -51 -21t-21 -51zM133 96q0 19 11.5 31t31.5 12q17 0 29 -12t12 -31q0 -18 -11.5 -30.5 t-29.5 -12.5q-19 0 -31 12t-12 31zM178 823q0 51 36.5 88t88.5 37q51 0 87 -37t36 -88t-36 -87t-87 -36q-52 0 -88.5 36t-36.5 87zM231 823q0 -29 20.5 -50t51.5 -21q29 0 49.5 21t20.5 50t-20.5 50.5t-49.5 21.5q-30 0 -51 -21t-21 -51zM260 823q0 19 11.5 31t31.5 12 q17 0 29 -12t12 -31q0 -18 -11.5 -30.5t-29.5 -12.5q-19 0 -31 12t-12 31z" />
<glyph unicode=";" horiz-adv-x="608" d="M-35 -229q16 11 41 30.5t81 75.5t87 107q-33 8 -58.5 39.5t-25.5 74.5q0 52 35 87.5t88 35.5q51 0 88 -37.5t37 -101.5q0 -59 -30.5 -123t-73.5 -114t-86.5 -92t-73.5 -65l-31 -22l-31 41q11 8 30 22t66.5 57t84 85.5t66.5 101.5t30 111q0 41 -22.5 63.5t-53.5 22.5 q-30 0 -51 -21t-21 -51q0 -28 17.5 -46.5t40.5 -20.5l4 28q-13 2 -23 12.5t-10 26.5q0 18 12.5 30.5t30.5 12.5q20 0 33.5 -15t13.5 -42q0 -48 -27.5 -102t-66.5 -97t-78 -79t-66 -56l-28 -20zM217 823q0 51 36.5 88t88.5 37q51 0 87 -37t36 -88t-36 -87t-87 -36 q-52 0 -88.5 36t-36.5 87zM270 823q0 -29 21 -50t51 -21q29 0 49.5 21t20.5 50t-20.5 50.5t-49.5 21.5q-30 0 -51 -21t-21 -51zM299 823q0 19 11.5 31t31.5 12q17 0 29 -12t12 -31q0 -18 -11.5 -30.5t-29.5 -12.5q-19 0 -31 12t-12 31z" />
<glyph unicode="&#x3c;" horiz-adv-x="1179" d="M106 688l27 49l778 -450l-28 -47zM113 813l936 449l22 -52l-936 -448zM172 748l911 438l25 -51l-815 -392l661 -381l-28 -49z" />
<glyph unicode="=" horiz-adv-x="1222" d="M119 436l10 56h897l-10 -56h-897zM135 520l10 55h897l-10 -55h-897zM205 926l10 55h897l-10 -55h-897zM221 1010l10 55h897l-10 -55h-897z" />
<glyph unicode="&#x3e;" horiz-adv-x="1181" d="M102 365l816 391l-662 381l29 49l753 -434l-911 -439zM139 289l936 448l23 -51l-936 -448zM299 1212l29 48l776 -449l-27 -49z" />
<glyph unicode="?" horiz-adv-x="1038" d="M195 1200q11 123 80.5 222t173.5 152.5t219 53.5q172 0 278.5 -101.5t106.5 -252.5q0 -68 -23.5 -130.5t-56.5 -106.5t-87 -88.5t-96 -71t-102 -60.5q-147 -85 -191 -122q-81 -68 -67 -142l10 -59l-53 -11l-10 60q-10 51 4.5 93.5t64 84.5t84 64.5t115.5 68.5q11 7 17 10 q60 35 98.5 59.5t88.5 65.5t78.5 79t49 92t20.5 114q0 126 -91.5 212.5t-237.5 86.5q-161 0 -283 -107t-135 -272zM203 96q0 51 36.5 88t88.5 37q51 0 87 -37t36 -88t-36 -87t-87 -36q-52 0 -88.5 36t-36.5 87zM256 96q0 -30 21 -50.5t51 -20.5q29 0 49 21t20 50 q0 30 -20 51t-49 21q-30 0 -51 -21t-21 -51zM279 1192q13 156 125 254t264 98q137 0 219 -76.5t82 -193.5q0 -55 -19.5 -104.5t-46 -85t-75.5 -74.5t-85 -62.5t-96 -58.5q-141 -82 -186 -116q-125 -96 -117 -208q1 -13 4 -26l10 -62l-55 -10l-10 61q-11 58 3 110t42 90.5 t74.5 76t89 64.5t96.5 58q13 7 20 11q59 34 93.5 55.5t78 55.5t67 64.5t40 72.5t16.5 88q0 92 -67 153.5t-178 61.5q-130 0 -226 -84t-106 -217zM285 96q0 19 11.5 31t31.5 12q17 0 29 -12t12 -31q0 -18 -11.5 -30.5t-29.5 -12.5q-19 0 -31 12t-12 31z" />
<glyph unicode="@" horiz-adv-x="2066" d="M80 434q0 165 57 323t158 285.5t232 224.5t288.5 150t317.5 53q173 0 323 -59t254 -159.5t163.5 -239t59.5 -293.5q0 -126 -34.5 -234.5t-92.5 -181.5t-134 -114.5t-159 -41.5q-85 0 -150 37t-99 101q-67 -64 -154 -101t-178 -37q-155 0 -254.5 104t-99.5 257 q0 122 67 228t176 167.5t230 61.5q90 0 165 -38.5t123 -105.5l37 129h56l-86 -303q-14 112 -96 187t-199 75q-105 0 -201.5 -55t-156.5 -148t-60 -198q0 -129 85 -216t214 -87q106 0 203 56.5t155 148.5q0 -93 62 -149t161 -56q149 0 257 142.5t108 371.5q0 144 -55.5 272 t-153 221.5t-237 148t-299.5 54.5q-189 0 -371.5 -80t-320 -212t-222 -314t-84.5 -375q0 -204 91.5 -372t257 -266.5t372.5 -98.5q232 0 440 108l25 -51q-216 -112 -465 -112q-169 0 -314.5 62t-246 168t-158 252t-57.5 310zM164 434q0 151 52.5 296.5t145.5 262.5 t213.5 206t265 138t292.5 49q156 0 290.5 -52t227 -141.5t145.5 -212t53 -261.5q0 -214 -101 -350t-235 -136q-104 0 -158 71.5t-24 178.5l131 467h58l-136 -481q-23 -83 14 -131.5t115 -48.5q110 0 195.5 119.5t85.5 310.5q0 127 -49 239.5t-135 194t-210 129t-267 47.5 q-115 0 -229.5 -33t-215 -92t-187.5 -142.5t-149 -181.5t-97.5 -213t-35.5 -233q0 -136 47 -256.5t130 -208t202.5 -138t257.5 -50.5q206 0 404 98l24 -51q-215 -102 -428 -102q-201 0 -360 94t-245.5 255.5t-86.5 358.5zM662 508q0 99 55 185.5t145 137t189 50.5 q120 0 195 -79t75 -198q0 -150 -118 -260.5t-271 -110.5q-120 0 -195 77.5t-75 197.5zM717 508q0 -95 60 -157t155 -62q128 0 231 95.5t103 219.5q0 95 -60.5 158t-154.5 63q-129 0 -231.5 -96t-102.5 -221z" />
<glyph unicode="A" d="M-152 0l11 55h604l-10 -55h-605zM-135 84l10 55h217l895 1485l49 -29l-911 -1511h-260zM158 84l276 459h860l115 -459h-309l10 55h229l-88 348h-784l-211 -348h223l-10 -55h-311zM453 571l589 977l246 -977h-835zM551 627h666l-195 782zM1063 1591l51 15l369 -1467h231 l-10 -55h-264zM1083 0l11 55h604l-10 -55h-605z" />
<glyph unicode="B" horiz-adv-x="1648" d="M-25 0l11 55h952q108 0 206.5 38.5t168 101.5t110.5 146t41 169q0 125 -78 220t-200 128q135 35 225 141t90 230q0 134 -89 223.5t-218 89.5h-948l10 55h938q154 0 258 -104t104 -264q0 -112 -62 -212t-165 -161q89 -56 140 -145.5t51 -200.5q0 -99 -45.5 -192.5 t-122 -163.5t-185.5 -112t-229 -42h-963zM-8 84l10 55h229l232 1319h-232l11 55h286l-249 -1429h-287zM307 84l133 760h652q145 -5 244.5 -99t99.5 -235q0 -110 -64.5 -207.5t-180 -158t-253.5 -60.5h-631zM373 139h565q183 0 312.5 113t129.5 258q0 116 -83.5 194.5 t-206.5 83.5h-605zM446 872l113 641h635q120 0 199.5 -79.5t79.5 -204.5q0 -138 -111.5 -244.5t-269.5 -112.5h-646zM510 928h582q132 4 228.5 96t96.5 205q0 99 -64 164t-159 65h-590z" />
<glyph unicode="C" horiz-adv-x="1675" d="M111 743q0 178 73.5 342t195 283t286.5 189.5t342 70.5q156 0 294.5 -56.5t223.5 -158.5l33 184h57l-64 -352q-42 147 -197 237.5t-347 90.5q-165 0 -320.5 -67t-269.5 -178.5t-183 -265t-69 -319.5q0 -147 55 -279.5t149 -229t226.5 -153t280.5 -56.5q163 0 308.5 53.5 t287.5 173.5l38 -41q-282 -242 -634 -242q-161 0 -304 61t-244 164.5t-159.5 246.5t-58.5 302zM195 743q0 161 66 309.5t176.5 256t260 171.5t310.5 64q139 0 257.5 -46.5t193.5 -135t79 -201.5l-43 -246h-57l43 250q-7 93 -73.5 167.5t-172 115.5t-227.5 41 q-148 0 -288 -60.5t-243 -161t-165 -238.5t-62 -286q0 -174 82 -319.5t226 -230t319 -84.5q152 0 281.5 47t260.5 159l35 -41q-134 -118 -275 -169.5t-302 -51.5q-192 0 -349 92t-245 250t-88 348zM1524 915l121 682h57l-121 -682h-57z" />
<glyph unicode="D" horiz-adv-x="1753" d="M-25 0l11 55h798q186 0 346.5 69.5t270.5 188t172.5 279t62.5 340.5q0 191 -84.5 330.5t-230.5 209.5t-336 70h-739l10 55h729q206 0 364.5 -76t250.5 -228t92 -361q0 -191 -66.5 -362t-183.5 -297t-288 -199.5t-370 -73.5h-809zM-8 84l10 55h229l232 1319h-232l11 55 h286l-249 -1429h-287zM307 84l252 1429h426q185 0 324.5 -65.5t219 -198t79.5 -317.5q0 -140 -37.5 -268.5t-110 -233.5t-172 -183t-229 -120.5t-275.5 -42.5h-477zM373 139h411q135 0 255.5 40t213.5 112.5t160.5 171t103 218.5t35.5 251q0 250 -154 388t-413 138h-381z " />
<glyph unicode="E" horiz-adv-x="1495" d="M-25 0l11 55h1255l59 338h58l-72 -393h-1311zM-8 84l10 55h229l232 1319h-232l11 55h286l-249 -1429h-287zM246 1542l10 55h1292l-69 -393h-58l62 338h-1237zM307 84l127 717h701l-11 -56h-645l-106 -606h798l43 254h58l-55 -309h-910zM438 829l121 684h891l-57 -309h-58 l47 254h-778l-100 -573h645l-8 -56h-703z" />
<glyph unicode="F" horiz-adv-x="1439" d="M-25 0l11 55h604l-10 -55h-605zM-8 84l10 55h229l232 1319h-232l11 55h286l-249 -1429h-287zM246 1542l10 55h1292l-69 -393h-58l62 338h-1237zM307 84l119 672h680l-10 -56h-625l-98 -561h231l-8 -55h-289zM430 784l129 729h891l-57 -309h-58l47 254h-778l-108 -618h626 l-10 -56h-682z" />
<glyph unicode="G" horiz-adv-x="1724" d="M111 743q0 178 73.5 342t195 283t286.5 189.5t342 70.5q156 0 294.5 -56.5t223.5 -158.5l33 184h57l-62 -354q-42 149 -197 239.5t-349 90.5q-165 0 -320.5 -67t-269.5 -178.5t-183 -265t-69 -319.5q0 -195 92 -360.5t251 -261.5t347 -96q363 0 590 276l-51 -301h-60 l25 139q-218 -170 -504 -170q-205 0 -376.5 103t-270 281t-98.5 390zM195 743q0 161 66 309.5t176.5 256t260 171.5t310.5 64q139 0 257.5 -46.5t193.5 -135t79 -201.5h2l-31 -174h-59l31 180q-7 92 -73.5 166t-172 115t-227.5 41q-148 0 -288 -60.5t-243 -161t-165 -238.5 t-62 -286q0 -173 81 -319t220.5 -230.5t304.5 -84.5q340 0 547 272l49 268h-551l10 56h607l-60 -343q-226 -309 -602 -309q-137 0 -259.5 54t-210.5 146t-139.5 220t-51.5 270zM918 733l10 55h688l-135 -788h-58l60 346l67 387h-632zM1538 987l107 610h57l-107 -610h-57z " />
<glyph unicode="H" horiz-adv-x="1880" d="M-27 0l11 55h604l-10 -55h-605zM-10 84l10 55h231l232 1319h-234l11 55h288l-249 -1429h-289zM246 1542l8 55h606l-10 -55h-604zM307 84l127 717h1059l-125 -717h-287l11 55h229l106 606h-948l-106 -606h231l-10 -55h-287zM438 829l121 684h285l-10 -55h-230l-100 -573 h948l100 573h-231l10 55h287l-119 -684h-1061zM1065 0l10 55h604l-10 -55h-604zM1337 1542l11 55h604l-10 -55h-605zM1397 84l252 1429h286l-10 -55h-229l-232 -1319h232l-10 -55h-289z" />
<glyph unicode="I" horiz-adv-x="788" d="M-25 0l11 55h604l-10 -55h-605zM-8 84l10 55h229l230 1319h-232l11 55h286l-247 -1429h-287zM246 1542l8 55h606l-10 -55h-604zM307 84l250 1429h287l-10 -55h-230l-231 -1319h231l-8 -55h-289z" />
<glyph unicode="J" horiz-adv-x="1300" d="M14 210q3 60 23 116l51 -21q-22 -61 -22 -126q0 -61 22 -119q23 -60 66 -106.5t117 -75t169 -28.5q77 0 144.5 21t117.5 55.5t92.5 84t72 101.5t52.5 112.5t36.5 112.5t23.5 107l192 1098h-639l9 55h696l-203 -1163q-11 -57 -25.5 -111t-40 -120t-57 -121.5t-78.5 -110 t-102 -92.5t-130 -61t-161 -23q-90 0 -164.5 24t-123.5 64.5t-82.5 93.5t-45.5 113q-11 47 -11 96q0 12 1 24zM117 297l53 -18q-17 -47 -18 -95v-3q0 -46 18 -90q17 -45 50 -80t90 -56t130 -21q88 0 161 34.5t120.5 86.5t84.5 125.5t56.5 139t32.5 139.5l176 999h-555l10 55 h613l-189 -1064q-14 -78 -35 -148t-62 -150.5t-94 -138t-136 -95.5t-183 -38q-86 0 -154 26t-107.5 69t-60.5 98q-21 54 -21 110q0 59 20 115z" />
<glyph unicode="K" horiz-adv-x="1654" d="M-25 0l11 55h604l-10 -55h-605zM-8 84l10 55h229l232 1319h-232l11 55h286l-249 -1429h-287zM246 1542l10 55h604l-8 -55h-606zM307 84l72 403l395 355l447 -787h307l-10 -55h-328l-430 754l-332 -299l-55 -316h231l-10 -55h-287zM387 532l172 981h287l-10 -55h-232 l-137 -780l866 780h-166l11 55h299l-717 -645zM795 860l727 653h262l-10 -55h-232l-676 -608l404 -711h274l-10 -55h-297zM1184 1542l10 55h604l-8 -55h-606z" />
<glyph unicode="L" horiz-adv-x="1390" d="M-27 0l11 55h1208l59 338h58l-72 -393h-1264zM-10 84l10 55h229l232 1319h-232l11 55h286l-250 -1429h-286zM246 1542l8 55h606l-10 -55h-604zM305 84l252 1429h287l-10 -55h-230l-231 -1319h747l45 254h58l-56 -309h-862z" />
<glyph unicode="M" horiz-adv-x="2189" d="M-25 0l11 55h602l-10 -55h-603zM-8 84l10 55h229l232 1319h-232l11 55h286l-249 -1429h-287zM246 1542l10 55h338l444 -1191l873 1191h348l-8 -55h-314l-913 -1251l-467 1251h-311zM307 84l244 1389l455 -1219l-52 -18l-385 1028l-196 -1125h231l-10 -55h-287zM1032 252 l887 1214l-242 -1382h-286l10 55h229l195 1104l-748 -1024zM1374 0l10 55h605l-11 -55h-604zM1706 84l252 1429h287l-11 -55h-229l-231 -1319h231l-10 -55h-289z" />
<glyph unicode="N" horiz-adv-x="1873" d="M-27 0l11 55h604l-10 -55h-605zM-10 84l10 55h229l232 1319h-234l11 55h288l-250 -1429h-286zM244 1542l10 55h332l770 -1384l219 1245h-234l11 55h288l-256 -1462l-831 1491h-309zM305 84l246 1401l829 -1481l-49 -27l-753 1346l-207 -1184h231l-8 -55h-289zM1358 1542 l10 55h604l-8 -55h-606zM1407 8l264 1505h287l-10 -55h-232l-256 -1460z" />
<glyph unicode="O" horiz-adv-x="1837" d="M111 743q0 179 73.5 343t195 282.5t286.5 189t342 70.5q161 0 304 -61t244 -164.5t159.5 -246.5t58.5 -302q0 -179 -73.5 -343t-195 -282.5t-286.5 -189t-342 -70.5q-161 0 -304 61t-244 164.5t-159.5 246.5t-58.5 302zM166 743q0 -147 55 -279.5t149 -229t226.5 -153 t280.5 -56.5q164 0 319 66.5t269.5 177.5t183.5 265t69 320q0 147 -54.5 279.5t-148.5 229t-226.5 153.5t-280.5 57q-165 0 -320.5 -66.5t-269.5 -178t-183 -265.5t-69 -320zM195 743q0 162 66 310.5t176.5 255.5t260 171t310.5 64q192 0 349 -92t245 -250t88 -348 q0 -161 -66.5 -310t-177 -256t-260 -171t-309.5 -64q-192 0 -349 92t-245 250t-88 348zM250 743q0 -174 82 -319.5t226 -230t319 -84.5q148 0 287 60t242 160t165.5 238t62.5 287q0 174 -81.5 319.5t-225.5 230.5t-319 85q-198 0 -373 -101t-280 -273.5t-105 -371.5z" />
<glyph unicode="P" horiz-adv-x="1617" d="M-25 0l11 55h604l-10 -55h-605zM-8 84l10 55h229l232 1319h-232l11 55h286l-249 -1429h-287zM246 1542l10 55h899q132 0 243 -58t176.5 -163t65.5 -235q0 -111 -50 -214t-134.5 -180t-204 -123t-252.5 -46h-550l-76 -439h231l-8 -55h-289l96 549h596q121 0 231 42.5 t187 112.5t122.5 162.5t45.5 190.5q0 170 -125.5 285.5t-304.5 115.5h-909zM410 662l149 851h596q169 0 285 -105.5t116 -266.5q0 -94 -42.5 -181t-115.5 -153t-177.5 -105.5t-221.5 -39.5h-589zM473 717h526q105 0 199 36t160 94.5t104.5 135.5t38.5 158 q0 134 -100.5 225.5t-245.5 91.5h-551z" />
<glyph unicode="Q" horiz-adv-x="1835" d="M111 743q0 179 73.5 343t195 282.5t286.5 189t342 70.5q161 0 304 -61t244 -164.5t159.5 -246.5t58.5 -302q0 -282 -169 -511t-431 -323q49 -23 196 -100q56 -29 97 -47.5t91.5 -37.5t89.5 -26.5t84 -8.5h7q40 0 75 10q37 12 76.5 36.5t75.5 63.5l39 -37 q-49 -52 -101.5 -83.5t-107.5 -39.5q-38 -5 -74 -5q-17 0 -34 1q-51 4 -113.5 26t-111.5 44t-117 57q-21 11 -70 36t-75.5 38t-66.5 32t-74 32t-67 22q147 22 280.5 95.5t231.5 181.5t155.5 250t57.5 294q0 147 -54.5 279.5t-148.5 229t-226.5 153.5t-280.5 57 q-165 0 -320.5 -66.5t-269.5 -178t-183 -265.5t-69 -320q0 -147 55 -279.5t149 -229t226.5 -153t280.5 -56.5q29 -1 59 -6t65.5 -17t61 -21.5t68.5 -30.5t64 -31.5t70.5 -37t67.5 -35.5q68 -35 119 -57t116.5 -44.5t120.5 -26.5q17 -1 34 -1q39 0 81 6q59 8 115.5 40 t108.5 87l40 -36q-50 -53 -106 -87.5t-108 -49.5q-50 -15 -109 -15h-3q-61 1 -111.5 10t-112 31t-107 43t-104.5 51q-11 6 -66.5 35t-70.5 36.5t-60 29.5t-66.5 29.5t-56 19.5t-62 16.5t-53.5 5.5q-161 1 -302.5 62t-242 164.5t-158.5 246t-58 301.5zM195 743 q0 162 66 310.5t176.5 255.5t260 171t310.5 64q192 0 349 -92t245 -250t88 -348q0 -161 -66.5 -310t-177 -256t-260 -171t-309.5 -64q-192 0 -349 92t-245 250t-88 348zM250 743q0 -174 82 -319.5t226 -230t319 -84.5q148 0 287 60t242 160t165.5 238t62.5 287 q0 174 -81.5 319.5t-225.5 230.5t-319 85q-198 0 -373 -101t-280 -273.5t-105 -371.5z" />
<glyph unicode="R" horiz-adv-x="1699" d="M-25 0l11 55h604l-10 -55h-605zM-8 84l10 55h229l232 1319h-232l11 55h286l-249 -1429h-287zM246 1542l10 55h946q191 0 325 -123.5t134 -308.5q0 -105 -47 -202.5t-127 -170t-192.5 -116t-237.5 -43.5h-8l262 -494h254l-11 -55h-276l-324 604h103q149 0 276.5 67.5 t200 177t72.5 232.5q0 158 -119 267.5t-285 109.5h-956zM307 84l107 604h510l321 -604h-297l10 55h195l-264 494h-430l-86 -494h231l-8 -55h-289zM420 717l139 796h643q157 0 266 -99.5t109 -248.5q0 -87 -40 -169t-108.5 -143.5t-166 -98.5t-205.5 -37h-637zM483 774h574 q128 0 236 56t168.5 145.5t60.5 189.5q0 124 -93.5 208.5t-226.5 84.5h-598zM934 0l10 55h604l-10 -55h-604z" />
<glyph unicode="S" horiz-adv-x="1374" d="M12 0l111 625h57l-110 -625h-58zM98 0l56 311q73 -129 215 -207.5t323 -78.5q212 0 334.5 105.5t122.5 266.5q0 48 -14 92t-33.5 77t-54.5 66t-62.5 54t-73.5 46.5t-71.5 37.5t-71 32t-59.5 27q-69 32 -115 56t-99.5 60t-84 72t-51.5 86t-21 107q0 142 108.5 238 t296.5 96q182 0 320 -84.5t176 -197.5l-51 -289h-60l52 287q-39 91 -161 160t-276 69q-164 0 -257 -80t-93 -199q0 -47 18 -88t44.5 -71.5t75 -62t91 -53.5t111.5 -54q14 -7 60 -27.5t74 -34.5t76 -41t79.5 -51t69 -61t59.5 -75t37.5 -88.5t15.5 -105.5q0 -184 -139.5 -306 t-372.5 -122q-153 0 -284.5 55t-221.5 150l-30 -174h-58zM162 354l47 271h57l-47 -265q61 -111 186.5 -181t286.5 -70q173 0 273 83t100 205q0 37 -11.5 71.5t-28 60.5t-46 52.5t-54 44t-63.5 39t-64 33t-65.5 30t-58.5 26.5q-73 34 -121.5 59.5t-110.5 69t-99 87t-63 106 t-26 134.5q0 177 133 297.5t356 120.5q138 0 260 -49.5t209 -130.5l27 149h59l-51 -286q-56 108 -195 185t-309 77q-197 0 -315.5 -105.5t-118.5 -257.5q0 -52 14 -97.5t43 -83t61.5 -67.5t81.5 -59.5t89 -50.5t98 -47q17 -8 59 -27.5t69 -32t69 -36t70 -43.5t60.5 -50.5 t51.5 -61.5t32 -72t13 -85q0 -148 -114.5 -246t-313.5 -98q-185 0 -325.5 83.5t-204.5 217.5zM1217 973l110 624h57l-110 -624h-57z" />
<glyph unicode="T" horiz-adv-x="1495" d="M137 1204l72 393h1409l-70 -393h-57l59 338h-1294l-61 -338h-58zM223 1204l58 309h602l-250 -1429h-287l8 55h232l231 1319h-491l-43 -254h-60zM330 0l10 55h604l-10 -55h-604zM662 84l251 1429h605l-56 -309h-57l47 254h-491l-232 -1319h232l-11 -55h-288z" />
<glyph unicode="U" horiz-adv-x="1820" d="M186 1458l11 55h286l-161 -919q-8 -48 -9 -94q0 -102 42 -194q60 -132 184 -206.5t282 -74.5q126 0 242 50.5t198.5 132t138 181t73.5 201.5l161 923h287l-10 -55h-230l-155 -878q-15 -86 -55 -173t-105 -165.5t-146 -139.5t-184.5 -97t-214.5 -36q-130 0 -243 50 t-189 135q-77 84 -111 202q-21 72 -21 149q0 49 9 99l152 854h-232zM203 1542l10 55h604l-10 -55h-604zM350 590l164 923h287l-10 -55h-230l-158 -878q-7 -39 -7 -76q0 -85 35 -161q50 -109 154 -171.5t236 -62.5q110 0 211 43.5t173 114t120 158.5t64 179l149 854h-231 l10 55h287l-160 -919q-14 -79 -50 -156t-93 -146.5t-128 -123t-162.5 -84.5t-189.5 -31q-110 0 -206.5 42.5t-161 113.5t-93.5 171q-18 60 -18 124q0 42 8 86zM1323 1542l10 55h604l-10 -55h-604z" />
<glyph unicode="V" horiz-adv-x="1763" d="M96 1458l10 55h263l379 -1509l-54 -12l-368 1466h-230zM113 1542l10 55h602l-10 -55h-602zM399 1513h310l-11 -55h-229l319 -1268l764 1268h-223l10 55h312l-883 -1468zM774 0l912 1513h258l-11 -55h-217l-895 -1485zM1346 1542l10 55h604l-10 -55h-604z" />
<glyph unicode="W" horiz-adv-x="2484" d="M109 1458l10 55h258l233 -1507l-55 -8l-227 1460h-219zM125 1542l8 55h600l-10 -55h-598zM406 1513h313l-10 -55h-238l191 -1235l638 1172l50 -29l-717 -1315zM637 2l717 1317l256 -1313l-56 -10l-225 1159l-643 -1180zM1376 1362l56 10l221 -1147l626 1233h-231l10 55 h314l-742 -1462zM1636 2l766 1511h258l-10 -55h-215l-749 -1481zM2064 1542l9 55h604l-11 -55h-602z" />
<glyph unicode="X" horiz-adv-x="1581" d="M-113 0l11 55h602l-11 -55h-602zM-96 84l8 55h223l602 699l-315 620h-240l11 55h266l346 -684l-641 -745h-260zM197 1542l10 55h606l-10 -55h-606zM201 84l618 719l365 -719h-307l10 55h205l-285 563l-485 -563h192l-8 -55h-305zM489 1513h308l-11 -55h-206l256 -504 l434 504h-195l10 55h306l-568 -659zM838 825l589 688h265l-11 -55h-225l-551 -641l346 -678h240l-10 -55h-267zM860 0l10 55h607l-11 -55h-606zM1092 1542l10 55h604l-10 -55h-604z" />
<glyph unicode="Y" horiz-adv-x="1624" d="M104 1458l11 55h264l407 -890l-96 -539h-287l11 55h229l84 475l-387 844h-236zM121 1542l10 55h600l-8 -55h-602zM387 0l10 55h604l-10 -55h-604zM408 1513h309l-10 -55h-211l321 -702l567 702h-198l10 55h307l-698 -862zM719 84l96 537l721 892h264l-10 -55h-223 l-701 -866l-80 -453h232l-10 -55h-289zM1202 1542l8 55h607l-11 -55h-604z" />
<glyph unicode="Z" horiz-adv-x="1480" d="M-33 119l1374 1339h-938l-43 -254h-57l55 309h1117l-1473 -1433zM14 0v55h1219l59 338h58l-72 -393h-1264zM47 84l1475 1434l39 -41l-1377 -1338h979l43 254h58l-56 -309h-1161zM217 1204l70 393h1224v-55h-1177l-60 -338h-57z" />
<glyph unicode="[" horiz-adv-x="741" d="M2 -506l404 2292h479l-11 -55h-423l-381 -2182h419l-10 -55h-477zM102 -422l373 2124h393l-10 -55h-336l-354 -2014h336l-8 -55h-394z" />
<glyph unicode="\" horiz-adv-x="1417" d="M250 1763h57l760 -2248h-55zM340 1763h59l758 -2248h-57z" />
<glyph unicode="]" horiz-adv-x="739" d="M-158 -506l11 55h423l381 2182h-419l10 55h477l-403 -2292h-480zM-141 -422l10 55h336l354 2014h-336l8 55h394l-373 -2124h-393z" />
<glyph unicode="^" horiz-adv-x="1187" d="M143 901l559 723l43 -33l-559 -723zM211 852l543 700l295 -714l-50 -21l-260 629l-485 -629zM770 1589l51 21l305 -740l-51 -20z" />
<glyph unicode="_" horiz-adv-x="1429" d="M-23 -295l11 55h1120l-10 -55h-1121zM-6 -211l10 55h1120l-10 -55h-1120z" />
<glyph unicode="`" horiz-adv-x="305" d="M-135 1575l35 43l417 -322l-34 -43zM-84 1642l33 44l418 -322l-33 -45z" />
<glyph unicode="a" horiz-adv-x="1263" d="M18 340q0 56 16 109.5t53.5 105t93 89.5t141.5 61.5t192 23.5q160 0 369 -57l12 61q6 28 6 52q1 11 -1 23q-4 34 -15 59t-32.5 43.5t-45.5 31t-55.5 20t-62 10.5t-64.5 3q-103 0 -207.5 -22.5t-157.5 -47.5l-22 51q58 27 169 51.5t218 24.5q51 0 95 -6t86 -20t71.5 -37.5 t51.5 -58.5q22 -34 26 -82q1 -15 1 -31q0 -36 -6 -80l-22 -117q-235 74 -414 74q-94 0 -170.5 -20.5t-125.5 -53.5t-82.5 -77t-47.5 -89.5t-14 -93.5q0 -56 20.5 -108.5t61 -97.5t110.5 -72t160 -27q223 0 428 143l-23 -123h316l-10 -55h-373l12 70q-178 -90 -350 -90 q-102 0 -183 33t-128.5 86t-72 115t-24.5 126zM102 340q0 45 13 87t43.5 82t76.5 70t118 48t161 18q172 0 410 -74l-64 -350q-204 -158 -434 -158q-85 0 -149.5 24t-101.5 65t-55 88.5t-18 99.5zM158 340q0 -93 65 -157t203 -64q198 0 383 133l49 283q-193 55 -344 55 q-96 0 -168 -22.5t-111.5 -60t-58 -79.5t-18.5 -88zM201 1032q64 30 186 57t238 27q59 0 113 -9t106 -28.5t91 -51.5t67 -78q30 -46 36 -107q2 -21 1 -45q0 -44 -7 -95l-100 -563h229l-10 -55h-287l115 629q6 43 6 80q1 19 -1 39q-6 52 -31 91t-58 65.5t-79 42.5t-92.5 23 t-98.5 7q-111 0 -225.5 -25.5t-174.5 -54.5z" />
<glyph unicode="b" horiz-adv-x="1488" d="M-82 0l10 55h316l65 377q27 -171 157 -284t308 -113q145 0 273 73.5t205 200.5t77 273q0 197 -136 336t-333 139q-155 0 -288.5 -82.5t-206.5 -218.5l147 835h-315l10 56h373l-121 -684q177 149 401 149q147 0 268 -70.5t189.5 -192t68.5 -267.5q0 -123 -50 -234.5 t-133 -192t-195.5 -128t-233.5 -47.5q-142 0 -258.5 65t-185.5 176l-39 -221h-373zM-66 84l9 55h229l240 1368h-232l10 56h289l-260 -1479h-285zM332 510q0 140 72.5 260t194 189t261.5 69q188 0 314 -129t126 -317q0 -105 -42.5 -201.5t-114 -166t-168.5 -110.5t-201 -41 q-189 0 -315.5 129t-126.5 318zM389 510q0 -164 111 -277.5t274 -113.5q123 0 232 62.5t174 170t65 230.5q0 164 -111 277.5t-274 113.5q-123 0 -232 -62.5t-174 -170t-65 -230.5z" />
<glyph unicode="c" horiz-adv-x="1220" d="M61 508q0 164 84.5 304t225.5 220t303 80q91 0 178 -29.5t149 -83.5l17 91h57l-41 -232q-36 89 -139.5 144t-220.5 55q-146 0 -274 -73.5t-205.5 -201t-77.5 -274.5q0 -198 136.5 -335.5t346.5 -137.5q100 0 212.5 36.5t217.5 112.5l33 -43q-111 -82 -233 -121.5 t-230 -39.5q-156 0 -280 71t-191.5 191t-67.5 266zM145 508q0 141 73 261.5t194.5 189.5t261.5 69q88 0 166 -30t128.5 -86.5t53.5 -127.5l-35 -196h-57l35 203q-7 76 -94 129t-197 53q-92 0 -178.5 -37.5t-151 -99.5t-103 -148.5t-38.5 -179.5q0 -166 110.5 -277.5 t286.5 -111.5q198 0 381 133l31 -43q-197 -146 -412 -146q-201 0 -328 128t-127 317zM1016 588l35 196l53 306h59l-90 -502h-57z" />
<glyph unicode="d" horiz-adv-x="1484" d="M61 510q0 163 84.5 302.5t225.5 219.5t303 80q141 0 258 -66.5t188 -179.5l113 641h-234l11 56h288l-161 -914q-24 174 -154.5 291t-308.5 117q-145 0 -273.5 -73.5t-206 -200.5t-77.5 -273q0 -198 136.5 -336.5t334.5 -138.5q156 0 290.5 85t204.5 222l-49 -287h314 l-11 -55h-370l22 131q-175 -151 -401 -151q-148 0 -269 70.5t-189.5 192t-68.5 267.5zM145 510q0 140 73 260t194.5 189t261.5 69q188 0 314 -129t126 -317q0 -105 -42.5 -201.5t-114 -166t-168.5 -110.5t-201 -41q-189 0 -316 129t-127 318zM203 510q0 -164 111 -277.5 t274 -113.5q123 0 232 62.5t174 170t65 230.5q0 164 -111 277.5t-274 113.5q-123 0 -232 -62.5t-174 -170t-65 -230.5zM1016 1591l10 56h371l-264 -1508h229l-8 -55h-287l264 1507h-315z" />
<glyph unicode="e" horiz-adv-x="1173" d="M61 508q0 165 85.5 305t229 219.5t310.5 79.5q173 0 277 -87.5t104 -225.5q0 -125 -86 -214t-221 -130t-301 -41q-117 0 -250 20q24 -139 130.5 -227t266.5 -88q182 0 340 123l35 -43q-176 -136 -375 -136q-206 0 -332.5 126t-128.5 315q168 -35 314 -35q152 0 275.5 37 t200.5 113t77 180q0 116 -86.5 187t-239.5 71q-150 0 -281.5 -73.5t-209.5 -200.5t-78 -275q0 -130 60 -237.5t172.5 -171.5t256.5 -64q213 0 391 141l35 -43q-84 -68 -194 -110.5t-232 -42.5q-161 0 -286.5 71.5t-192 191t-66.5 265.5zM145 532q7 137 82 251.5t196.5 179.5 t262.5 65q140 0 218.5 -63t78.5 -166q0 -95 -70.5 -164t-187.5 -103t-266 -34q-154 0 -314 34zM207 578q131 -23 252 -23q204 0 336.5 67.5t132.5 176.5q0 76 -63.5 125t-178.5 49q-178 0 -314.5 -113.5t-164.5 -281.5z" />
<glyph unicode="f" horiz-adv-x="839" d="M-594 -262l55 -6q-2 -14 -2 -29q0 -59 27 -115q33 -71 111.5 -120.5t185.5 -49.5q63 0 117 16.5t94.5 44.5t75 70.5t58.5 88.5t44 104.5t33 112.5t24 118l183 1033h432l-10 -56h-375l-174 -987q-12 -66 -26 -122.5t-36 -119.5t-49 -113.5t-66 -97.5t-85 -78t-107.5 -50 t-132.5 -19q-96 0 -173.5 35t-123 90t-66.5 120q-16 48 -16 95q0 18 2 35zM-510 -270l55 -6q-2 -12 -2 -25q0 -67 56 -127q66 -70 184 -70q69 0 124 26t92.5 68.5t66.5 107.5t46.5 131.5t32.5 152.5l172 962h-231l10 56h285l-180 -1029q-16 -91 -35 -160.5t-52.5 -142.5 t-76 -120t-108 -77t-146.5 -30q-98 0 -169.5 45t-101.5 108q-23 52 -23 105q0 12 1 25zM100 1034l11 56h231l14 79q11 66 25 123t36 119.5t48.5 113t65.5 97t85 78t107.5 50.5t132.5 19q96 0 173.5 -34.5t123 -90t67.5 -120.5q17 -50 17 -100q0 -15 -2 -31l-55 6q1 12 1 23 q0 44 -15 87q-18 55 -56.5 101t-105 75t-148.5 29q-63 0 -117 -16.5t-94.5 -44.5t-75 -70.5t-58.5 -88.5t-44 -104.5t-33 -112.5t-24 -118l-23 -125h-287zM416 1034l22 121q16 91 35 161t52.5 142.5t76 120t108 77.5t146.5 30q99 0 171 -45t101 -109q24 -51 24 -104 q0 -12 -1 -25l-57 6q2 13 2 25q0 67 -56 126q-65 70 -184 70q-69 0 -124 -26t-92 -68t-66 -107t-47 -131t-33 -153l-11 -55h375l-8 -56h-434z" />
<glyph unicode="g" horiz-adv-x="1478" d="M61 510q0 163 84.5 302.5t225.5 219.5t303 80q140 0 257 -65.5t187 -178.5l39 222h371l-10 -56h-316l-65 -377q-28 171 -157.5 285.5t-305.5 114.5q-145 0 -273.5 -73.5t-206 -200.5t-77.5 -273q0 -198 136.5 -336.5t334.5 -138.5q153 0 286 82.5t205 216.5l-73 -424 q-14 -79 -34.5 -149t-61.5 -150t-94.5 -137t-137.5 -95t-186 -38q-89 0 -157.5 26.5t-107 70t-58 92.5t-19.5 101q0 61 18 113l53 -23q-16 -36 -16 -90q0 -43 16 -83t48.5 -75t90 -56t132.5 -21q89 0 163 34t121.5 85.5t84.5 124.5t56.5 139t32.5 141l37 207 q-174 -147 -399 -147q-148 0 -269 70.5t-189.5 192t-68.5 267.5zM66 -369q0 83 26 146l49 -21q-20 -45 -20 -125q0 -43 13 -86t42 -85.5t71 -75t105.5 -52.5t139.5 -20q78 0 146.5 21t119 55.5t93 83.5t71.5 100.5t52.5 112.5t36.5 113.5t23 107.5l193 1100h284l-10 -56 h-227l-184 -1054q-11 -58 -25.5 -112t-40 -120t-57 -121.5t-79 -109.5t-103 -92t-131 -61t-162.5 -23q-86 0 -158.5 24t-121 62.5t-82.5 88t-49 100t-15 99.5zM145 510q0 140 73 260t194.5 189t261.5 69q188 0 314 -129t126 -317q0 -105 -42.5 -201.5t-114 -166 t-168.5 -110.5t-201 -41q-189 0 -316 129t-127 318zM203 510q0 -164 111 -277.5t274 -113.5q123 0 232 62.5t174 170t65 230.5q0 164 -111 277.5t-274 113.5q-123 0 -232 -62.5t-174 -170t-65 -230.5z" />
<glyph unicode="h" horiz-adv-x="1425" d="M-80 0l10 55h600l-10 -55h-600zM-63 84l8 55h229l242 1368h-234l11 56h288l-262 -1479h-282zM199 1591l10 56h371l-119 -674q194 139 375 139q61 0 118 -17.5t108 -55t84 -96.5t46 -141q5 -33 5 -70q0 -55 -11 -118l-84 -475h229l-10 -55h-287l96 539q9 62 9 114 q1 47 -7 87q-16 82 -63.5 134t-106 75.5t-126.5 23.5q-117 0 -237.5 -62.5t-219.5 -169.5l135 766h-315zM248 84l123 690q103 118 224 186t241 68q63 0 116 -21t96 -69q42 -48 56 -124q6 -35 7 -77q0 -50 -9 -110l-101 -572h316l-10 -55h-371l111 637q8 54 8 98q0 32 -4 58 q-10 64 -44 104t-76.5 58t-94.5 18q-103 0 -212 -60.5t-202 -164.5l-107 -609h230l-10 -55h-287z" />
<glyph unicode="i" horiz-adv-x="704" d="M-47 0l10 55h600l-10 -55h-600zM-31 84l11 55h227l145 811h-231l10 56h287l-164 -922h-285zM135 1034l10 56h373l-168 -951h230l-11 -55h-286l168 950h-316zM367 1432q0 51 36.5 87.5t88.5 36.5q51 0 86.5 -36.5t35.5 -87.5t-35.5 -87t-86.5 -36q-52 0 -88.5 36t-36.5 87 zM420 1432q0 -30 21 -51t51 -21q29 0 49 21t20 51q0 29 -20 50t-49 21q-30 0 -51 -20.5t-21 -50.5zM449 1432q0 19 11.5 31t31.5 12q17 0 28.5 -12t11.5 -31q0 -18 -11 -30.5t-29 -12.5q-19 0 -31 12t-12 31z" />
<glyph unicode="j" horiz-adv-x="610" d="M-520 -322q0 79 26 142l52 -21q-23 -62 -23 -121q0 -46 16.5 -90t48 -82t85.5 -61t122 -23q83 0 151.5 37t111.5 90.5t77.5 129.5t51.5 138t30 132l191 1085h-316l9 56h372l-202 -1151q-9 -50 -20.5 -96t-32 -105.5t-45.5 -109.5t-63 -99.5t-82 -84t-104 -56t-129 -21.5 q-81 0 -146 29t-103 75.5t-58 99.5t-20 107zM-436 -322q0 63 20 109l51 -23q-16 -40 -16 -86q0 -72 47 -122t141 -50q252 0 338 457l174 987h-231l10 56h289l-186 -1053q-95 -502 -394 -502q-121 0 -182 67.5t-61 159.5zM301 1432q0 51 36.5 87.5t88.5 36.5q51 0 87 -36.5 t36 -87.5t-36 -87t-87 -36q-52 0 -88.5 36t-36.5 87zM354 1432q0 -30 21 -51t51 -21q29 0 49.5 21.5t20.5 50.5t-20.5 50t-49.5 21q-30 0 -51 -20.5t-21 -50.5zM383 1432q0 19 11.5 31t31.5 12q17 0 29 -12t12 -31q0 -18 -11.5 -30.5t-29.5 -12.5q-19 0 -31 12t-12 31z" />
<glyph unicode="k" horiz-adv-x="1323" d="M-80 0l10 55h572l-10 -55h-572zM-63 84l8 55h229l242 1368h-234l11 56h288l-262 -1479h-282zM199 1591l10 56h371l-121 -693q218 158 422 158q143 0 235 -84.5t92 -210.5q0 -137 -105 -249t-321 -183l140 -246h270l-8 -55h-295l-189 334q228 62 340.5 168t112.5 231 q0 100 -77 170t-195 70q-110 0 -240 -57.5t-262 -178.5l135 770h-315zM248 84l123 690q264 254 510 254q109 0 176 -60t67 -151q0 -117 -109 -217t-339 -158l-14 52q208 55 306.5 141t98.5 182q0 65 -51 110.5t-135 45.5q-218 0 -459 -225l-107 -609h201l-10 -55h-258z M621 393l47 27l204 -365h306l-11 -55h-327z" />
<glyph unicode="l" horiz-adv-x="702" d="M109 1507l10 56h289l-209 -1176q-10 -50 -10 -93q0 -26 4 -50q10 -60 31.5 -100t56 -64.5t66 -34.5t61.5 -10q92 0 190 82l37 -45q-115 -92 -227 -92q-36 0 -74.5 12.5t-81.5 41t-71 76.5t-42 119q-6 31 -6 67q0 46 10 101l197 1110h-231zM123 1591l10 56h373l-223 -1272 q-7 -50 -8 -88q0 -21 3 -39q6 -50 30 -78.5t48.5 -39.5t51.5 -11q34 0 64.5 13t72.5 48l35 -43q-50 -40 -89 -57t-83 -17q-28 0 -55.5 8.5t-57.5 30t-48 58.5q-19 36 -27 92q-3 20 -3 42q0 40 10 89l213 1208h-317z" />
<glyph unicode="m" horiz-adv-x="2091" d="M-45 0l10 55h600l-10 -55h-600zM-29 84l11 55h227l141 811h-231l10 56h287l-37 -215l-123 -707h-285zM133 1034l10 56h373l-18 -101q155 123 309 123q90 0 180.5 -49t136.5 -145q191 194 389 194q51 0 103 -15t104 -48.5t87 -86.5t52 -129q8 -37 8 -79q0 -45 -9 -97 l-93 -518h230l-8 -55h-287l102 584q9 48 9 89q0 34 -6 63q-14 65 -42.5 110.5t-72.5 73.5t-88 40.5t-89 12.5q-106 0 -213.5 -67t-199.5 -183q-7 53 -28.5 96t-51.5 71t-67 47t-73.5 27.5t-72.5 8.5q-98 0 -199.5 -61t-193.5 -165l35 203h-316zM285 84l118 692 q95 118 198.5 185t205.5 67q54 0 104 -18.5t93 -57.5q44 -40 62 -112q10 -38 9 -81q0 -41 -8 -87l-109 -617h316l-10 -55h-371l119 680q8 41 8 75q0 22 -4 42q-8 50 -27 83.5t-50 54t-63.5 29.5t-68.5 9q-85 0 -176 -58.5t-172 -160.5l-107 -615h230l-11 -55h-286zM991 84 l105 584q8 47 8 94q92 126 197 196t212 70q42 0 82.5 -11t80.5 -36.5t65 -66.5t37 -101q5 -26 6 -55q0 -39 -10 -86l-107 -617h313l-10 -55h-371l119 680q6 43 6 79q0 33 -6 61q-10 56 -44.5 90.5t-74.5 48.5t-86 14q-175 0 -356 -230q0 -24 -8 -86l-90 -518h229l-10 -55 h-287z" />
<glyph unicode="n" horiz-adv-x="1460" d="M-45 0l10 55h600l-10 -55h-600zM-29 84l9 55h229l143 811h-231l10 56h289l-166 -922h-283zM137 1034l10 56h371l-20 -117q186 139 372 139q61 0 118 -17.5t108.5 -55t83.5 -96.5t46 -141q6 -34 6 -72q0 -54 -11 -116l-84 -475h229l-10 -55h-287l96 539q9 61 9 112 q0 49 -8 89q-16 82 -63.5 134t-106 75.5t-126.5 23.5q-117 0 -235.5 -62t-218.5 -168l37 207h-316zM283 84l123 690q103 118 223.5 186t240.5 68q50 0 94 -13.5t83.5 -43t63.5 -76t33 -113.5q3 -24 3 -51q0 -48 -10 -104l-101 -572h316l-11 -55h-370l110 637q8 54 8 98 q0 32 -4 58q-10 64 -44 104t-76.5 58t-94.5 18q-104 0 -212 -60t-201 -165l-107 -609h230l-11 -55h-286z" />
<glyph unicode="o" horiz-adv-x="1302" d="M61 510q0 163 84.5 302.5t225.5 219.5t303 80q147 0 268 -70.5t189.5 -192t68.5 -267.5q0 -123 -50 -234.5t-133 -192t-195.5 -128t-233.5 -47.5q-148 0 -269 70.5t-189.5 192t-68.5 267.5zM117 510q0 -198 136.5 -336.5t334.5 -138.5q145 0 273 73.5t205 200.5t77 273 q0 197 -136 336t-333 139q-145 0 -273.5 -73.5t-206 -200.5t-77.5 -273zM145 510q0 140 73 260t194.5 189t261.5 69q188 0 314 -129t126 -317q0 -105 -42.5 -201.5t-114 -166t-168.5 -110.5t-201 -41q-189 0 -316 129t-127 318zM203 510q0 -164 111 -277.5t274 -113.5 q123 0 232 62.5t174 170t65 230.5q0 164 -111 277.5t-274 113.5q-123 0 -232 -62.5t-174 -170t-65 -230.5z" />
<glyph unicode="p" horiz-adv-x="1482" d="M-186 -561l10 55h600l-10 -55h-600zM-172 -475l10 55h230l241 1370h-233l10 56h289l-260 -1481h-287zM92 1034l10 56h371l-22 -132q175 154 403 154q147 0 268 -70.5t189.5 -192t68.5 -267.5q0 -123 -50 -234.5t-133 -192t-195.5 -128t-233.5 -47.5q-142 0 -259 65 t-187 178l-111 -643h229l-10 -55h-287l160 909q27 -172 157 -285.5t308 -113.5q145 0 273 73.5t205 200.5t77 273q0 197 -136 336t-333 139q-154 0 -288.5 -83.5t-207.5 -217.5l50 278h-316zM326 510q0 140 72.5 260t194 189t261.5 69q188 0 314 -129t126 -317 q0 -105 -42.5 -201.5t-114 -166t-168.5 -110.5t-201 -41q-189 0 -315.5 129t-126.5 318zM383 510q0 -164 111 -277.5t274 -113.5q123 0 232 62.5t174 170t65 230.5q0 164 -111 277.5t-274 113.5q-123 0 -232 -62.5t-174 -170t-65 -230.5z" />
<glyph unicode="q" horiz-adv-x="1468" d="M61 510q0 163 84.5 302.5t225.5 219.5t303 80q140 0 256.5 -66.5t187.5 -179.5l41 224h371l-10 -56h-316l-67 -381q-25 173 -155 288.5t-308 115.5q-145 0 -273.5 -73.5t-206 -200.5t-77.5 -273q0 -198 136.5 -336.5t334.5 -138.5q155 0 288.5 83t204.5 218l-143 -811 h-285l11 55h227l96 549q-177 -149 -399 -149q-148 0 -269 70.5t-189.5 192t-68.5 267.5zM145 510q0 140 73 260t194.5 189t261.5 69q188 0 314 -129t126 -317q0 -105 -42.5 -201.5t-114 -166t-168.5 -110.5t-201 -41q-189 0 -316 129t-127 318zM203 510q0 -164 111 -277.5 t274 -113.5q123 0 232 62.5t174 170t65 230.5q0 164 -111 277.5t-274 113.5q-123 0 -232 -62.5t-174 -170t-65 -230.5zM637 -561l10 55h600l-10 -55h-600zM967 -475l262 1481h284l-10 -56h-229l-240 -1370h230l-11 -55h-286z" />
<glyph unicode="r" horiz-adv-x="1075" d="M-55 0l10 55h602l-10 -55h-602zM-39 84l10 55h230l145 811h-233l10 56h289l-164 -922h-287zM129 1034l10 56h371l-29 -160q59 56 124 96t143 66q62 21 131 21q17 1 35 -1q89 -6 178 -49l-62 -356h-57l57 323q-70 25 -140 26h-6q-66 0 -124 -20q-61 -21 -116 -52.5 t-103 -75.5t-84 -85.5t-66 -85.5l53 297h-315zM276 84l103 580q19 34 44.5 70t62 78.5t77.5 77.5t91.5 67.5t104 49t114.5 20.5q10 1 20 1q52 0 104 -18l-53 -303h-57l47 260q-22 3 -45 3q-45 0 -89 -12q-68 -18 -122 -52t-104 -81.5t-84 -92t-58 -87.5l-88 -506h229 l-10 -55h-287z" />
<glyph unicode="s" horiz-adv-x="1224" d="M-184 0l10 55h203l168 238q140 -131 259 -194.5t238 -63.5q131 0 225.5 93.5t94.5 225.5q0 69 -24 137t-66 128t-84 110.5t-94 110t-80 100.5q-54 73 -54 140q0 12 2 22q11 76 105 155l37 -43q-76 -62 -86 -117l-2 -18q0 -48 43 -108q27 -38 79.5 -98t96 -112.5 t87.5 -117t69.5 -139t25.5 -150.5q0 -156 -109.5 -265t-265.5 -109q-225 0 -489 231l-150 -211h-239zM-168 84l8 55h144l575 813q-29 59 -29 120q0 35 10 71q26 98 128 182l34 -45q-117 -95 -117 -202q0 -63 40 -130l-613 -864h-180zM213 315l430 607q33 -47 102.5 -127.5 t116 -137.5t85 -140.5t38.5 -162.5q0 -123 -84.5 -207t-206.5 -84q-114 0 -227.5 61.5t-253.5 190.5zM287 326q119 -108 215 -157.5t192 -49.5q97 0 166.5 69t69.5 166q0 51 -16 100.5t-50.5 100.5t-64 88t-80.5 95t-76 89z" />
<glyph unicode="t" horiz-adv-x="933" d="M59 950l11 56h286l-106 -611q-8 -51 -8 -94q0 -39 6 -71q14 -68 53.5 -112t86 -63.5t97.5 -19.5q40 0 80 11.5t80.5 40t71 70.5t50 109t19.5 150h56q0 -94 -23.5 -170t-60.5 -124.5t-85 -81.5t-95 -46.5t-93 -13.5q-48 0 -94.5 15t-89.5 47.5t-71 82.5t-40 120 q-5 29 -5 62q0 46 10 99l94 544h-230zM76 1034l10 56h227l64 358l61 25l-78 -439h-284zM277 238q-5 29 -5 64q0 41 7 89l106 615h442l-10 -56h-385l-98 -569q-6 -41 -6 -75q0 -25 3 -46q8 -50 33 -81.5t55.5 -45.5t65.5 -14q39 0 75 15t69 47t53 92.5t20 142.5h56 q0 -97 -25.5 -169t-67 -110.5t-87 -56t-93.5 -17.5q-47 0 -88 17.5t-75 56.5t-45 101zM391 1034l80 451l59 24l-73 -419h387l-10 -56h-443z" />
<glyph unicode="u" horiz-adv-x="1413" d="M47 950l10 56h287l-96 -539q-9 -60 -9 -111q0 -48 8 -88q16 -82 63.5 -134.5t106 -76.5t126.5 -24q115 0 234.5 61.5t219.5 165.5l-36 -205h315l-10 -55h-371l20 115q-189 -138 -372 -138q-61 0 -117.5 17.5t-107.5 55.5t-84 96q-32 60 -46 142q-6 34 -6 72q0 54 11 117 l83 473h-229zM63 1034l9 56h370l-110 -637q-8 -55 -8 -100q0 -30 4 -56q10 -64 44 -104t76.5 -58t94.5 -18q102 0 210 60t201 163l109 610h-232l11 56h288l-124 -693q-102 -117 -223 -184.5t-240 -67.5q-50 0 -94 13.5t-83.5 43.5t-63.5 77t-33 113q-3 24 -3 51q0 48 10 104 l101 571h-314zM848 1034l8 56h373l-168 -951h229l-10 -55h-287l170 950h-315z" />
<glyph unicode="v" horiz-adv-x="1366" d="M29 950l10 56h250l260 -1002l-53 -12l-250 958h-217zM45 1034l10 56h580l-10 -56h-580zM319 1006h299l-10 -56h-217l199 -766l467 766h-209l10 56h297l-586 -961zM575 0l615 1006h250l-10 -56h-209l-598 -977zM862 1034l10 56h582l-10 -56h-582z" />
<glyph unicode="w" horiz-adv-x="1914" d="M31 950l10 56h250l170 -1000l-55 -8l-162 952h-213zM47 1034l10 56h580l-10 -56h-580zM319 1006h302l-11 -56h-223l125 -737l426 733l47 -28l-502 -869zM487 0l504 870l197 -868l-53 -10l-166 729l-434 -748zM1012 913l53 13l162 -719l389 743h-219l10 56h301l-500 -959z M1214 0l525 1006h250l-11 -56h-206l-508 -977zM1411 1034l10 56h582l-10 -56h-582z" />
<glyph unicode="x" horiz-adv-x="1310" d="M-72 0l11 55h518l-11 -55h-518zM-55 84l8 55h194l402 428l-221 383h-213l10 56h233l260 -447l-444 -475h-229zM129 1034l10 56h520l-10 -56h-520zM213 84l420 448l262 -448h-252l10 55h146l-176 301l-281 -301h131l-10 -55h-250zM391 1006h254l-10 -56h-148l162 -276 l258 276h-133l10 56h250l-395 -424zM627 0l10 55h520l-10 -55h-520zM653 555l420 451h230l-9 -56h-196l-375 -403l238 -408h213l-11 -55h-235zM788 1034l11 56h520l-10 -56h-521z" />
<glyph unicode="y" horiz-adv-x="1390" d="M-352 -381l53 21q23 -54 59 -94t79 -61t84.5 -30.5t84.5 -9.5q137 0 264.5 100.5t259.5 317.5l699 1143h237l-10 -56h-198l-680 -1116q-139 -228 -279 -336t-293 -108q-48 0 -96 11.5t-98.5 36t-94.5 71t-71 110.5zM-274 -348l51 20q63 -143 231 -143q112 0 222 89.5 t231 289.5l41 69l-250 973h-219l10 56h252l266 -1039l-53 -88q-129 -214 -249 -309.5t-251 -95.5q-56 0 -106 14.5t-99 56t-77 107.5zM49 1034l8 56h582l-8 -56h-582zM326 1006h299l-11 -56h-219l209 -809l492 809h-219l10 56h309l-612 -1004zM893 1034l10 56h582l-10 -56 h-582z" />
<glyph unicode="z" horiz-adv-x="1208" d="M-20 123l964 827h-631l-39 -241h-59l53 297h826l-1080 -926zM25 0v55h909l57 326h58l-70 -381h-954zM61 84l1082 926l35 -43l-965 -828h651l41 242h58l-54 -297h-848zM129 709l68 381h936v-56h-889l-58 -325h-57z" />
<glyph unicode="{" horiz-adv-x="665" d="M10 -207q0 55 20.5 120t42.5 107.5t60 108.5q14 24 41 69.5t39.5 67.5t28 54t22 56.5t6.5 47.5q0 56 -42.5 99t-121.5 46h-51l11 56h43q105 -4 161 -63.5t56 -137.5q0 -28 -7 -57.5t-24.5 -65.5t-30.5 -60t-41 -71.5t-41 -69.5q-38 -66 -58 -105t-39 -96t-19 -106 q0 -101 67.5 -172.5t200.5 -71.5h57l-10 -55h-47q-81 0 -145 26.5t-102 70t-57.5 95t-19.5 107.5zM72 653l10 56h16q114 0 188 71t74 160q0 19 -4.5 48t-9 52.5t-14 67t-13.5 63.5q-26 110 -26 201q0 58 14 115t46 111.5t77.5 96t113.5 66.5t150 25h94l-10 -55h-84 q-72 0 -131 -21.5t-98 -57t-66 -82.5t-39 -96.5t-12 -101.5q0 -69 25 -188q4 -21 14 -65t15 -69t9.5 -57t4.5 -53q0 -53 -22 -104t-62 -92t-101 -66t-133 -25h-26zM94 -207q0 65 28.5 132t84.5 161q7 11 40.5 68t43.5 76t30 61t26.5 72.5t6.5 60.5q0 66 -41 126.5t-116 86.5 q112 31 179.5 118t67.5 185q0 19 -2.5 41.5t-8 51.5t-9.5 49t-12 55.5t-11 50.5q-24 114 -24 184q0 63 18 120t54 105t99.5 76.5t145.5 28.5h78l-10 -55h-68q-68 0 -120.5 -23.5t-82.5 -63.5t-44.5 -87.5t-14.5 -100.5q0 -46 23 -172q3 -17 14 -64.5t16 -73t10 -61.5t5 -61 q0 -91 -48.5 -175t-134.5 -136q45 -42 69 -96.5t24 -108.5q0 -36 -8.5 -72.5t-28 -78t-34 -68t-44.5 -77t-41 -69.5q-53 -89 -78.5 -149.5t-25.5 -116.5q0 -71 44 -115.5t140 -44.5h74l-11 -55h-63q-122 0 -181 61t-59 154z" />
<glyph unicode="|" horiz-adv-x="561" d="M-2 -539l412 2358h59l-412 -2358h-59zM86 -539l412 2358h57l-412 -2358h-57z" />
<glyph unicode="}" horiz-adv-x="665" d="M-133 -506l10 55h84q72 0 131 21.5t98 57t66 82.5t39 96.5t12 101.5q0 74 -24 188q-4 21 -14 65t-15 69t-9.5 57t-4.5 53q0 108 84 195.5t219 91.5h41l-11 -56h-16q-114 0 -188 -71t-74 -160q0 -19 4.5 -48t9 -52.5t14 -67t13.5 -63.5q26 -110 26 -201q0 -58 -14 -115 t-46 -111.5t-77.5 -96t-113.5 -66.5t-150 -25h-94zM-117 -422l11 55h67q68 0 120.5 23.5t82.5 63.5t44.5 87.5t14.5 100.5q0 51 -22 172q-3 17 -14 64.5t-16 73t-10 61.5t-5 61q0 90 47.5 174t132.5 137q-44 40 -67 94.5t-23 110.5q0 36 8.5 72t28 78.5t33 68t44.5 77 t41 69.5q53 90 79 150t26 116q0 71 -44 115.5t-140 44.5h-74l10 55h64q122 0 180.5 -61t58.5 -154q0 -65 -28.5 -132.5t-83.5 -160.5q-9 -15 -41 -68.5t-43 -75t-30.5 -62t-26.5 -71.5t-7 -61q0 -66 41.5 -127.5t116.5 -87.5q-112 -30 -180 -116.5t-68 -184.5 q0 -19 2.5 -41.5t8 -51.5t9.5 -49t12 -55.5t11 -50.5q25 -119 25 -184q0 -63 -18 -120t-54.5 -105t-100 -76.5t-145.5 -28.5h-78zM264 1731l10 55h48q81 0 145 -26.5t101.5 -70t57 -95t19.5 -107.5q0 -55 -20.5 -120t-42.5 -107.5t-60 -108.5q-14 -24 -41 -69.5t-39.5 -67.5 t-28 -54t-22 -56.5t-6.5 -47.5q0 -58 44.5 -101.5t127.5 -43.5h43l-10 -56h-45q-105 3 -160 62.5t-55 138.5q0 28 7 57t24.5 66t30 60t41 72t40.5 69q39 67 58.5 105t39 95.5t19.5 106.5q0 101 -67.5 172.5t-200.5 71.5h-58z" />
<glyph unicode="~" horiz-adv-x="1107" d="M156 639q7 38 19 75t34 76.5t51 68.5t71.5 48t92.5 19q109 0 201 -119q30 -38 52 -54t46 -16q51 0 83.5 48t45.5 124l53 -10q-38 -217 -182 -217q-42 0 -71 21t-68 67q-37 47 -74 73.5t-86 26.5q-48 0 -86.5 -22t-63.5 -58.5t-40.5 -76.5t-22.5 -84zM240 625 q10 58 29.5 103.5t60 79.5t94.5 34q42 0 71.5 -21.5t65.5 -66.5q39 -48 76 -74.5t86 -26.5q38 0 71 14.5t55.5 38t40.5 56t28 64.5t16 67l55 -8q-8 -49 -26 -95t-48.5 -91.5t-80 -73t-111.5 -27.5q-113 0 -201 119q-30 38 -52 53.5t-46 15.5q-51 0 -83.5 -48t-45.5 -124z " />
<glyph unicode="&#xa1;" horiz-adv-x="593" d="M111 0l206 1174h58l-207 -1174h-57zM197 0l206 1174h60l-209 -1174h-57zM326 1499q0 51 36.5 88t88.5 37q51 0 86.5 -37t35.5 -88t-35.5 -87t-86.5 -36q-52 0 -88.5 36t-36.5 87zM379 1499q0 -30 21 -51t51 -21q29 0 49 21t20 51t-20 51t-49 21q-30 0 -51 -21t-21 -51z M408 1499q0 19 11.5 31t31.5 12q17 0 29 -12t12 -31q0 -18 -11.5 -30.5t-29.5 -12.5q-19 0 -31 12t-12 31z" />
<glyph unicode="&#xa2;" horiz-adv-x="1236" d="M106 590q0 117 47 225t125.5 187.5t185 128.5t222.5 53l35 190h57l-43 -246h-24q-107 0 -208 -43.5t-176 -115.5t-120 -172t-45 -207q0 -177 112 -308.5t283 -156.5l-43 -248h-57l35 205q-171 43 -278.5 183.5t-107.5 324.5zM190 590q0 103 42.5 198t113 163t166.5 108.5 t199 40.5h18l-166 -946q-163 22 -268 144.5t-105 291.5zM246 590q0 -133 74.5 -234t195.5 -137l146 821q-171 -19 -293.5 -149.5t-122.5 -300.5zM543 -123l43 246q20 -2 39 -2q206 0 395 147l35 -43q-199 -156 -422 -159l-33 -189h-57zM590 150l168 948q97 -10 173 -57 t109 -124.5t-6 -179.5l-51 21q39 101 -15.5 175.5t-164.5 100.5l-146 -829q156 9 314 131l33 -45q-179 -141 -379 -141h-35zM762 1124l45 250h57l-37 -205q80 -18 146 -57t111.5 -98t54 -136t-26.5 -171l-51 20q44 114 8 199.5t-118.5 136.5t-188.5 61z" />
<glyph unicode="&#xa3;" horiz-adv-x="1337" d="M-12 111q60 23 90.5 36t82.5 39.5t80 49.5t64 61t55 80t33.5 101.5t16.5 129.5h-220l11 56h264v-27q0 -115 -30 -206t-66 -144.5t-110 -103t-117 -69t-132 -54.5q-1 -1 -2 -1zM18 31q109 40 156 65q71 14 167 3t171 -30t165 -37t150 -18q57 0 106 16t84 43t58 52.5 t41 54.5l47 -28q-19 -32 -45.5 -62t-67 -61.5t-99 -50.5t-124.5 -19q-78 0 -200 27.5t-238.5 48t-202.5 8.5q-37 -19 -147 -61zM207 692l8 58h188q-3 41 -11.5 114.5t-13.5 131t-5 100.5q0 98 28.5 189t83.5 166t146 120t205 45q98 0 175 -32t123.5 -86.5t70.5 -122 t24 -142.5h-55q0 65 -20.5 122.5t-60.5 104t-106.5 74t-150.5 27.5q-101 0 -181 -39.5t-128.5 -106t-73.5 -148t-25 -171.5q0 -59 16 -200t19 -204h-256zM238 131q57 35 100.5 77t80 102t56 142.5t19.5 184.5v27h467l-11 -56h-403q-8 -276 -162 -430q69 -9 224 -44.5 t218 -35.5q138 0 215 125l48 -28q-94 -152 -263 -152q-65 0 -170.5 24t-218 45.5t-200.5 18.5zM457 1096q0 69 14 132t44 118.5t74 96.5t107.5 65t139.5 24q154 0 231.5 -84.5t77.5 -214.5h-55q0 107 -64 175.5t-190 68.5q-80 0 -143.5 -30.5t-102 -83.5t-58.5 -121 t-20 -146q0 -52 14 -179.5t17 -166.5h434l-10 -58h-475q-3 66 -19 207.5t-16 196.5z" />
<glyph unicode="&#xa5;" horiz-adv-x="1851" d="M215 1458l10 55h264l310 -677h-330l8 55h234l-260 567h-236zM231 1542l11 55h600l-8 -55h-603zM391 391l10 55h463l-63 -362h-287l10 55h230l43 252h-406zM408 475l10 55h403l17 84l-64 138h-321l10 55h350l84 -184l-27 -148h-462zM498 0l10 55h604l-10 -55h-604z M518 1513h309l-10 -55h-211l322 -702l567 702h-199l11 55h307l-699 -862zM829 84l66 362h465l-10 -55h-410l-43 -252h231l-10 -55h-289zM899 475l27 146l149 186h346l-10 -55h-305l-129 -160l-12 -62h409l-8 -55h-467zM1100 836l547 677h264l-10 -55h-224l-458 -567h219 l-11 -55h-327zM1313 1542l8 55h606l-10 -55h-604z" />
<glyph unicode="&#xa6;" horiz-adv-x="573" d="M2 -539l182 1037h60l-183 -1037h-59zM90 -539l182 1037h58l-183 -1037h-57zM233 782l183 1037h59l-182 -1037h-60zM322 782l182 1037h57l-182 -1037h-57z" />
<glyph unicode="&#xa7;" horiz-adv-x="1079" d="M98 348l56 -10q-15 -90 9 -160t76 -110.5t117 -61t136 -20.5q136 0 218.5 73.5t82.5 178.5q0 87 -55.5 146.5t-155.5 111.5q149 12 239 87t90 179q0 33 -9.5 64t-23 53.5t-38 45.5t-43.5 37.5t-50.5 31.5t-49 25t-49 22l-40.5 18q-61 28 -99 49.5t-77.5 53t-58.5 70.5 t-19 87q0 96 73 160.5t200 64.5q68 0 127.5 -18.5t106.5 -55.5t68 -100t7 -145l-55 8q23 128 -52 192t-202 64q-101 0 -159 -49.5t-58 -120.5q0 -68 52 -111t169 -98q10 -5 41.5 -18.5t52.5 -23t55 -28.5t57 -36.5t50 -44t43.5 -54.5t27.5 -65t11 -78q0 -100 -64 -178.5 t-176 -116.5q119 -96 119 -229q0 -129 -97 -218.5t-259 -89.5q-62 0 -123 14.5t-117 48t-95.5 80.5t-56.5 118.5t-2 156.5zM152 797q0 99 62.5 175.5t174.5 114.5q-121 95 -121 232q0 130 98.5 219.5t260.5 89.5q62 0 123 -14.5t117 -48t95 -80.5t56 -118.5t2 -156.5l-55 11 q15 89 -9 159t-76 110.5t-117 61.5t-136 21q-136 0 -218.5 -74t-82.5 -180q0 -89 55.5 -147.5t155.5 -108.5q-150 -13 -240 -88t-90 -178q0 -27 6.5 -52t14.5 -45t26 -40.5t30 -34t38 -30t38 -25t42 -22.5t38.5 -18t39 -16.5t32.5 -13.5q60 -28 98 -50t77 -54t58 -71t19 -87 q0 -96 -72.5 -160t-199.5 -64q-68 0 -127.5 18.5t-107 55t-68.5 99.5t-7 145l56 -8q-12 -65 4 -115t53.5 -79.5t87 -44.5t109.5 -15q100 0 158.5 48.5t58.5 119.5q0 36 -14.5 64.5t-47.5 54t-67 44t-91 45.5q-6 3 -41.5 18.5t-53 24t-54 29t-57.5 37t-49.5 44t-43.5 55 t-26.5 65t-11.5 78.5zM236 797q0 101 97.5 170t258.5 69l4 -2q13 -6 54 -25t65 -31t60 -36.5t56.5 -47.5t36 -58t15.5 -74q0 -101 -97.5 -170.5t-257.5 -69.5l-4 2q-10 5 -41 18.5t-47.5 21t-46.5 24t-48 29.5t-40.5 33.5t-34.5 41.5t-21 48t-9 57zM291 797 q0 -40 18.5 -72.5t60 -59.5t68 -40.5t80.5 -36.5q16 -7 23 -10q132 3 209 56.5t77 127.5q0 22 -7.5 42t-16.5 35t-29.5 32.5t-32.5 27t-41.5 24.5t-40.5 20t-44.5 20t-39.5 18q-132 -3 -208 -57t-76 -127z" />
<glyph unicode="&#xa8;" horiz-adv-x="544" d="M-129 1413q0 51 36 87t87 36q52 0 88.5 -36t36.5 -87t-36.5 -88t-88.5 -37q-51 0 -87 37t-36 88zM-76 1413q0 -29 20.5 -50.5t49.5 -21.5q30 0 51 21t21 51t-21 51t-51 21q-29 0 -49.5 -21.5t-20.5 -50.5zM-47 1413q0 18 11.5 30.5t29.5 12.5q19 0 31 -12t12 -31 t-11.5 -31t-31.5 -12q-17 0 -29 12t-12 31zM295 1413q0 51 36 87t87 36t88 -36t37 -87t-37 -88t-88 -37t-87 37t-36 88zM346 1413q0 -29 21.5 -50.5t50.5 -21.5t50 21.5t21 50.5t-21 50.5t-50 21.5t-50.5 -21.5t-21.5 -50.5zM375 1413q0 18 12.5 30.5t30.5 12.5q19 0 31 -12 t12 -31t-12 -31t-31 -12q-18 0 -30.5 12.5t-12.5 30.5z" />
<glyph unicode="&#xa9;" horiz-adv-x="1853" d="M141 745q0 139 45.5 270.5t127.5 237.5t190.5 186t240 123.5t269.5 43.5q157 0 296.5 -59.5t238 -160.5t155.5 -240t57 -294q0 -174 -71.5 -334t-190 -275t-279.5 -184t-333 -69q-157 0 -296.5 59.5t-237.5 160.5t-155 240.5t-57 294.5zM197 745q0 -191 89.5 -351 t248.5 -253.5t352 -93.5q160 0 310.5 65t262 173t179 257t67.5 310q0 191 -90 351t-249.5 253.5t-352.5 93.5q-160 0 -310.5 -65t-261.5 -173t-178 -257t-67 -310zM225 745q0 156 64.5 300.5t171.5 248.5t252 166t301 62q187 0 339.5 -89t238 -242.5t85.5 -338.5 q0 -156 -64.5 -300t-172 -248t-252.5 -166t-301 -62q-187 0 -339 88.5t-237.5 242t-85.5 338.5zM281 745q0 -169 78.5 -309.5t218 -222.5t309.5 -82q144 0 279.5 58t235 155t160 230.5t60.5 277.5q0 126 -46.5 239.5t-127 196t-194 130.5t-240.5 48q-144 0 -279 -58 t-234.5 -155t-159.5 -230.5t-60 -277.5zM543 772q0 120 62.5 223t166.5 162.5t223 59.5q124 0 213 -62l9 47h57l-31 -174q-29 61 -98 97t-150 36q-102 0 -193.5 -52.5t-147.5 -143t-56 -193.5q0 -139 98 -238.5t238 -99.5q142 0 276 103l35 -43q-150 -117 -311 -117 q-166 0 -278.5 115.5t-112.5 279.5zM627 772q0 148 110 254.5t258 106.5q96 0 164.5 -47.5t71.5 -122.5l-21 -125h-59l23 131q-6 46 -58 77t-121 31q-124 0 -218.5 -91.5t-94.5 -213.5q0 -106 73 -180t179 -74q62 0 113 18.5t112 65.5l35 -43q-67 -52 -127.5 -74t-132.5 -22 q-131 0 -219 89.5t-88 219.5zM1239 838l64 364h57l-64 -364h-57z" />
<glyph unicode="&#xaa;" horiz-adv-x="1064" d="M207 1245q0 151 109 258t259 107q140 0 234 -101l16 88h252l-10 -49h-199l-32 -186q-25 88 -96 143.5t-165 55.5q-128 0 -223.5 -94t-95.5 -222q0 -115 77.5 -193.5t192.5 -78.5q79 0 151 38t116 103l-23 -127h197l-9 -49h-247l6 39q-83 -53 -191 -53q-137 0 -228 92.5 t-91 228.5zM285 1245q0 119 85.5 203t204.5 84q105 0 173.5 -70.5t68.5 -175.5q0 -119 -86 -202t-205 -83q-105 0 -173 69.5t-68 174.5zM334 1245q0 -83 54.5 -138.5t137.5 -55.5q96 0 169 69.5t73 165.5q0 82 -56 139.5t-137 57.5q-97 0 -169 -71.5t-72 -166.5zM803 1016 l90 504h168l-8 -50h-119l-72 -405h119l-10 -49h-168z" />
<glyph unicode="&#xab;" horiz-adv-x="1220" d="M104 596l43 33l316 -412l-43 -33zM113 690l458 410l37 -41l-458 -412zM178 635l449 401l37 -41l-410 -366l276 -361l-43 -35zM604 596l43 33l316 -412l-43 -33zM612 690l459 410l37 -41l-459 -412zM678 635l448 401l37 -41l-409 -366l276 -361l-43 -35z" />
<glyph unicode="&#xad;" horiz-adv-x="817" d="M131 567l8 56h518l-8 -56h-518zM145 651l11 58h518l-10 -58h-519z" />
<glyph unicode="&#xae;" horiz-adv-x="1265" d="M188 1081q0 149 77.5 276.5t207 201t277.5 73.5q204 0 341.5 -140.5t137.5 -344.5q0 -149 -77 -276.5t-206 -201t-278 -73.5q-203 0 -341.5 141t-138.5 344zM231 1081q0 -184 126.5 -313t310.5 -129q135 0 254.5 69t191.5 186.5t72 252.5q0 120 -57 221.5t-157.5 161 t-221.5 59.5q-101 0 -196.5 -41t-166 -109t-113.5 -162.5t-43 -195.5zM260 1081q0 129 67.5 240t180.5 175.5t242 64.5q174 0 290.5 -120t116.5 -294q0 -129 -67 -240t-180 -175t-242 -64q-174 0 -291 119.5t-117 293.5zM303 1081q0 -154 106 -262t259 -108q179 0 312.5 130 t133.5 306q0 155 -105 263t-259 108q-116 0 -219.5 -59.5t-165.5 -161t-62 -216.5zM438 870l6 37h218l-7 -37h-217zM451 936l8 37h55l55 305h-61l6 37h98l-65 -379h-96zM520 1343l8 37h285q68 0 114 -43t46 -110q0 -63 -44.5 -112.5t-113.5 -61.5l33 -80h90l-8 -37h-109 l-59 149h10q68 0 116 43.5t48 98.5q0 49 -36 82.5t-87 33.5h-293zM575 936l27 149h127l62 -149h-78l8 37h16l-30 76h-74l-12 -76h55l-8 -37h-93zM608 1114l35 201h170q42 0 68 -24.5t26 -63.5q0 -46 -38.5 -79.5t-96.5 -33.5h-164zM651 1151h121q41 0 69.5 24t28.5 52 q0 22 -16 36.5t-41 14.5h-139zM700 870l7 37h217l-6 -37h-218z" />
<glyph unicode="&#xaf;" horiz-adv-x="800" d="M63 1298l11 56h643l-10 -56h-644zM80 1382l10 56h643l-10 -56h-643z" />
<glyph unicode="&#xb0;" horiz-adv-x="894" d="M207 1255q0 142 98 241t240 99q141 0 240.5 -99.5t99.5 -240.5q0 -140 -100 -238.5t-240 -98.5q-142 0 -240 98t-98 239zM262 1255q0 -117 83 -199.5t200 -82.5q116 0 200 83t84 199q0 117 -84 201t-200 84q-117 0 -200 -84t-83 -201zM291 1255q0 107 73.5 181.5 t180.5 74.5q106 0 181 -74.5t75 -181.5t-75 -180.5t-181 -73.5q-107 0 -180.5 73.5t-73.5 180.5zM346 1255q0 -83 58 -140.5t141 -57.5t140.5 58t57.5 140t-58.5 141.5t-139.5 59.5q-82 0 -140.5 -59t-58.5 -142z" />
<glyph unicode="&#xb1;" horiz-adv-x="1216" d="M57 51l11 55h897l-11 -55h-897zM74 135l10 55h897l-10 -55h-897zM176 705l10 55h432l-75 -434h-58l66 379h-375zM193 788l8 56h374l66 377h57l-75 -433h-430zM571 326l76 434h434l-10 -55h-377l-65 -379h-58zM651 788l76 433h57l-65 -377h377l-11 -56h-434z" />
<glyph unicode="&#xb2;" horiz-adv-x="851" d="M70 678q14 75 45 140t67 110t86.5 86t90 65t90.5 51q22 12 57 29.5t55.5 28t49 26.5t45.5 28t36 29t29 33t17 36.5t7 43.5q0 64 -51 106t-129 42q-44 0 -83 -12t-70.5 -37t-49 -69.5t-14.5 -102.5l-49 -2q-4 72 18 126.5t62.5 85t87.5 45.5t98 15q101 0 165.5 -53.5 t64.5 -143.5q0 -29 -8.5 -55.5t-20 -46.5t-34 -41t-41 -35t-51.5 -32.5t-53 -29t-58.5 -29.5t-57.5 -28q-65 -34 -111.5 -64.5t-100 -80t-89.5 -118t-51 -154.5zM143 657q32 30 67 46t89 16q44 0 119 -23q98 -26 139 -26q107 0 166 82.5t25 208.5l47 12q41 -152 -31.5 -252 t-206.5 -100q-58 0 -154 30q-70 19 -104 19q-43 0 -68.5 -11t-52.5 -36zM156 707q17 71 51 128t83.5 100t90.5 69.5t102 58.5q19 10 58 29t60.5 29.5t56 30t54 34.5t43.5 38.5t37 46t22 51.5t9 62q0 99 -75 162.5t-183 63.5q-54 0 -106 -17t-97 -51.5t-70.5 -94.5 t-21.5 -138l-51 -4q-3 73 17 134t55.5 101t82.5 67.5t95 39.5t96 12q130 0 218.5 -76t88.5 -199q0 -39 -10 -74t-25.5 -62t-41.5 -53t-49 -44t-58.5 -39t-60 -33.5t-62.5 -31.5t-57 -29q-45 -23 -78 -43t-70 -47.5t-66.5 -61.5t-51.5 -75q27 6 57 6q56 0 141 -25 q81 -24 117 -24q71 0 105.5 51t9.5 141l47 12q31 -112 -18.5 -183t-143.5 -71q-17 0 -35.5 3t-30 6t-34 9.5t-31.5 8.5q-75 23 -127 23q-86 0 -143 -41z" />
<glyph unicode="&#xb3;" horiz-adv-x="825" d="M57 692l29 39q157 -115 322 -115q139 0 235 78.5t96 202.5q0 92 -58.5 160t-178.5 96q154 26 222.5 94t68.5 154q0 81 -66.5 145t-177.5 64t-187 -65.5t-86 -178.5l-49 4q13 131 104 210t218 79q134 0 213.5 -78t79.5 -180q0 -79 -44.5 -146.5t-142.5 -109.5 q133 -87 133 -248q0 -149 -109 -239.5t-271 -90.5q-81 0 -175 31.5t-176 93.5zM104 754l29 39q136 -99 275 -99q111 0 182.5 56.5t71.5 146.5q0 195 -332 195l8 49h20q181 -4 267 -71.5t86 -172.5q0 -114 -85 -183t-218 -69q-161 0 -304 109zM305 1362q10 104 75.5 161.5 t168.5 57.5q101 0 158 -53.5t57 -126.5q0 -44 -20.5 -82.5t-66 -73.5t-131 -55.5t-202.5 -20.5l10 50h21q181 3 260.5 55.5t79.5 126.5q0 52 -44.5 91.5t-121.5 39.5q-84 0 -135 -45.5t-60 -130.5z" />
<glyph unicode="&#xb4;" horiz-adv-x="403" d="M-92 1374l530 322l29 -47l-530 -322zM-47 1303l528 319l31 -47l-530 -322z" />
<glyph unicode="&#xb5;" horiz-adv-x="1548" d="M94 -532l260 1482h-229l10 56h287l-270 -1538h-58zM139 1034l11 56h370l-119 -676q-17 -152 45.5 -224.5t165.5 -72.5q111 0 230.5 101t218.5 286l80 446h-232l11 56h288l-94 -521q-110 -203 -241 -313.5t-261 -110.5q-57 0 -106.5 19t-90 57.5t-60 108t-11.5 160.5 l111 628h-316zM180 -532l142 804q22 -119 103.5 -179t186.5 -60q125 0 253 97t235 273l-62 -348h316l-11 -55h-370l33 184q-194 -207 -394 -207q-76 0 -146.5 29t-119.5 86l-108 -624h-58zM926 1034l8 56h373l-168 -951h231l-10 -55h-289l70 391l100 559h-315z" />
<glyph unicode="&#xb6;" horiz-adv-x="1562" d="M158 1020q0 115 50.5 222t132.5 184.5t192 124t225 46.5h852l-11 -55h-841q-103 0 -202.5 -43t-174.5 -114t-121.5 -167.5t-46.5 -197.5q0 -166 110 -279.5t277 -113.5h127l-96 -543h-287l10 55h230l75 432h-59q-193 0 -317.5 129t-124.5 320zM242 1020q0 129 73 243.5 t192.5 182t250.5 67.5h125l-152 -858h-131q-158 0 -258 104t-100 261zM297 1020q0 -133 85 -221t218 -88h84l133 747h-59q-116 0 -223 -61t-172.5 -163t-65.5 -214zM328 0l10 55h999l-10 -55h-999zM659 84l254 1429h365l-252 -1429h-367zM727 139h252l233 1319h-254z M1055 84l254 1429h284l-10 -55h-229l-232 -1319h232l-11 -55h-288z" />
<glyph unicode="&#xb7;" horiz-adv-x="538" d="M143 659q0 51 36.5 88t88.5 37q51 0 87 -37t36 -88t-36 -86.5t-87 -35.5q-52 0 -88.5 35.5t-36.5 86.5zM197 659q0 -30 20.5 -50.5t50.5 -20.5q29 0 49.5 21t20.5 50t-20.5 50.5t-49.5 21.5q-30 0 -50.5 -21t-20.5 -51zM225 659q0 19 11.5 31t31.5 12q17 0 29 -12t12 -31 q0 -18 -11.5 -30.5t-29.5 -12.5q-19 0 -31 12t-12 31z" />
<glyph unicode="&#xb8;" horiz-adv-x="589" d="M174 -549l21 49q15 -6 42 -15.5t107 -25.5t156 -16q116 0 185 60.5t69 154.5q0 85 -70.5 148t-198.5 83l31 162l53 -8l-18 -109q125 -32 192.5 -104.5t67.5 -171.5q0 -120 -85 -195t-226 -75q-81 0 -162.5 16t-122.5 32zM207 -473l20 51q13 -5 37 -13.5t96 -22t140 -13.5 q82 0 126 35t44 94q0 53 -53.5 94.5t-155.5 54.5l6 56q128 -18 193 -72.5t65 -132.5q0 -85 -59 -135.5t-166 -50.5q-74 0 -147 14t-109 28zM399 -111l33 179l55 -11l-32 -178z" />
<glyph unicode="&#xb9;" horiz-adv-x="565" d="M115 670l8 49h375l-9 -49h-374zM129 748l8 49h123l125 708l-115 -41l-14 47l193 70l-146 -833h-174zM231 1587l218 78l14 -47l-215 -78zM332 748l149 854l49 -11l-139 -794h121l-8 -49h-172z" />
<glyph unicode="&#xba;" horiz-adv-x="897" d="M207 1245q0 151 109 258t259 107q137 0 228.5 -94t91.5 -230q0 -151 -109 -256.5t-260 -105.5q-137 0 -228 92.5t-91 228.5zM256 1245q0 -115 77.5 -193.5t192.5 -78.5q129 0 224.5 92.5t95.5 220.5q0 115 -78 195t-193 80q-128 0 -223.5 -94t-95.5 -222zM285 1245 q0 119 85.5 203t204.5 84q105 0 173.5 -70.5t68.5 -175.5q0 -119 -86 -202t-205 -83q-105 0 -173 69.5t-68 174.5zM334 1245q0 -83 54.5 -138.5t137.5 -55.5q96 0 169 69.5t73 165.5q0 82 -56 139.5t-137 57.5q-97 0 -169 -71.5t-72 -166.5z" />
<glyph unicode="&#xbb;" horiz-adv-x="1222" d="M51 285l410 366l-277 361l43 35l310 -402l-449 -401zM106 221l459 412l37 -43l-459 -410zM252 1063l43 33l315 -412l-43 -33zM551 285l410 366l-277 361l43 35l309 -402l-448 -401zM606 221l459 412l37 -43l-459 -410zM752 1063l43 33l315 -412l-43 -33z" />
<glyph unicode="&#xbc;" horiz-adv-x="1968" d="M150 670l8 49h374l-8 -49h-374zM164 748l8 49h123l125 708l-115 -41l-14 47l192 70l-145 -833h-174zM184 0l1274 1597h64l-1274 -1597h-64zM266 1587l217 78l15 -47l-215 -78zM283 0l1273 1597h64l-1274 -1597h-63zM367 748l149 854l49 -11l-139 -794h121l-8 -49h-172z M969 350l653 760l37 -31l-653 -760zM1024 297q88 63 199 63q64 0 170.5 -20.5t142.5 -24.5l-43 -237h-172l8 49h121l27 145q-29 5 -79.5 16t-91.5 17t-83 6q-94 0 -170 -55zM1079 360l600 699l37 -33l-506 -588h13q51 0 99 -6.5t99 -17.5t78 -15l51 277h52l-62 -332 q-38 4 -145 24.5t-172 20.5q-71 0 -144 -29zM1307 0l8 49h375l-9 -49h-374zM1522 78l43 235h37q119 0 200 78l35 -37q-97 -90 -231 -90l-25 -137h123l-10 -49h-172zM1569 342l61 334h51l-51 -285q36 3 62 16t55 42l35 -37q-40 -38 -80 -54t-100 -16h-33z" />
<glyph unicode="&#xbd;" horiz-adv-x="1945" d="M131 670l8 49h375l-8 -49h-375zM145 748l9 49h122l125 708l-114 -41l-15 47l193 70l-146 -833h-174zM176 0l1274 1597h63l-1273 -1597h-64zM248 1587l217 78l14 -47l-215 -78zM274 0l1274 1597h64l-1274 -1597h-64zM348 748l150 854l49 -11l-139 -794h120l-8 -49h-172z M1030 20q14 75 45 140t67 110t86.5 86.5t90 66t90.5 50.5q23 12 64.5 33t63.5 32.5t53.5 30t48.5 33.5t34.5 35t25 42t7.5 48q0 64 -51 105.5t-129 41.5q-44 0 -83 -12t-70.5 -37t-49 -69.5t-14.5 -102.5l-49 -2q-4 72 18 127t62.5 85.5t87.5 45.5t98 15q101 0 165 -53.5 t64 -143.5q0 -29 -8.5 -55.5t-19.5 -46.5t-34 -41t-41 -35t-51 -33t-53 -29t-59 -29t-57 -28q-51 -26 -88.5 -49t-84.5 -61t-79.5 -79t-60.5 -100.5t-40 -128.5zM1104 0q64 61 156 61q46 0 118 -22q101 -27 140 -27q107 0 165.5 82.5t24.5 208.5l47 12q26 -106 2 -184 t-88.5 -123t-150.5 -45q-54 0 -154 31q-67 18 -104 18q-43 0 -68.5 -11t-52.5 -36zM1116 49q14 57 41 107t56.5 84.5t72.5 67.5t76.5 53t81.5 45q19 10 58 29t60.5 29.5t56 30t54 34.5t43.5 38.5t37 46t22 51.5t9 62q0 99 -75 162t-183 63q-54 0 -106 -17t-97 -51.5 t-70.5 -94.5t-21.5 -138l-51 -4q-3 73 17 134t55.5 101t82.5 67.5t95 39.5t96 12q130 0 218.5 -75.5t88.5 -198.5q0 -39 -10 -74t-25.5 -62t-42 -53.5t-49.5 -44.5t-58.5 -39t-60 -33.5t-62.5 -31.5t-57 -29q-45 -23 -78 -43t-70 -47.5t-66.5 -61.5t-51.5 -75q27 6 58 6 q59 0 141 -24q84 -25 117 -25q71 0 105 51.5t9 141.5l47 12q31 -112 -18 -183t-143 -71q-17 0 -35.5 3t-30 5.5t-35 9.5t-31.5 9q-72 22 -126 22q-87 0 -144 -41z" />
<glyph unicode="&#xbe;" horiz-adv-x="2228" d="M113 692l28 39q157 -115 322 -115q139 0 235.5 78.5t96.5 202.5q0 92 -59 160t-179 96q154 26 222.5 94t68.5 154q0 81 -66.5 145t-177.5 64t-186.5 -65.5t-85.5 -178.5l-49 4q13 131 103.5 210t217.5 79q134 0 213.5 -78t79.5 -180q0 -79 -44 -147t-142 -109 q133 -87 133 -248q0 -149 -109.5 -239.5t-271.5 -90.5q-81 0 -174.5 31.5t-175.5 93.5zM160 754l28 39q136 -99 275 -99q111 0 182.5 56.5t71.5 146.5q0 195 -332 195l8 49h21q181 -4 266.5 -71.5t85.5 -172.5q0 -114 -85 -183t-218 -69q-160 0 -303 109zM360 1362 q10 104 75.5 161.5t168.5 57.5q101 0 158 -53.5t57 -126.5q0 -44 -20.5 -82.5t-66 -73.5t-131 -55.5t-202.5 -20.5l11 50h20q181 3 260.5 55.5t79.5 126.5q0 52 -44.5 91.5t-121.5 39.5q-84 0 -134.5 -45t-59.5 -131zM444 0l1274 1597h64l-1274 -1597h-64zM543 0l1274 1597 h63l-1274 -1597h-63zM1229 350l653 760l37 -31l-653 -760zM1284 297q88 63 199 63q64 0 170.5 -20.5t142.5 -24.5l-43 -237h-172l8 49h121l27 145q-29 5 -79.5 16t-91.5 17t-83 6q-94 0 -170 -55zM1339 360l600 699l37 -33l-506 -588h13q51 0 99 -6.5t99 -17.5t78 -15 l51 277h52l-62 -332q-38 4 -145 24.5t-172 20.5q-71 0 -144 -29zM1567 0l8 49h375l-8 -49h-375zM1782 78l43 235h37q119 0 200 78l35 -37q-97 -90 -231 -90l-25 -137h123l-10 -49h-172zM1829 342l61 334h52l-52 -285q36 3 62 16t55 42l35 -37q-40 -38 -80 -54t-100 -16h-33z " />
<glyph unicode="&#xbf;" horiz-adv-x="1038" d="M33 324q0 68 23.5 130.5t56.5 106t87.5 88.5t95 71t101.5 60q149 86 195 125q77 66 65 139l-12 60l53 10l13 -59q8 -42 -4 -80t-34 -66.5t-64 -60t-79 -54.5t-93 -55q-7 -4 -11 -6q-50 -29 -83 -49.5t-77 -52t-71.5 -61.5t-54.5 -68t-39.5 -83t-12.5 -95 q0 -126 92 -212.5t238 -86.5q160 0 282.5 106t135.5 270l55 -4q-10 -123 -79.5 -222.5t-173.5 -152.5t-220 -53q-171 0 -278 102t-107 253zM117 324q0 55 19.5 104.5t46.5 85.5t75 74.5t85 62t97 58.5q141 82 188 118q124 97 114 211q-1 10 -3 21l-12 59l55 12l13 -61 q11 -57 -3.5 -109.5t-41 -89.5t-76 -76.5t-87.5 -63.5t-97 -58q-15 -9 -23 -13q-49 -28 -77.5 -46t-67.5 -45.5t-61.5 -51t-44.5 -54t-32 -65t-10 -73.5q0 -92 66.5 -153.5t177.5 -61.5q130 0 227 84.5t107 216.5l55 -7q-13 -154 -125 -252t-264 -98q-137 0 -219 77t-82 194 zM637 1499q0 51 36.5 88t88.5 37q51 0 87 -37t36 -88t-36 -87t-87 -36q-52 0 -88.5 36t-36.5 87zM690 1499q0 -30 21 -51t51 -21q29 0 49 21t20 51t-20 51t-49 21q-30 0 -51 -21t-21 -51zM719 1499q0 19 11.5 31t31.5 12q17 0 29 -12t12 -31q0 -18 -11.5 -30.5t-29.5 -12.5 q-19 0 -31 12t-12 31z" />
<glyph unicode="&#xc0;" d="M-152 0l11 55h604l-10 -55h-605zM-135 84l10 55h217l895 1485l49 -29l-911 -1511h-260zM158 84l276 459h860l115 -459h-309l10 55h229l-88 348h-784l-211 -348h223l-10 -55h-311zM453 571l589 977l246 -977h-835zM551 627h666l-195 782zM848 2034l35 43l417 -322l-34 -43 zM899 2101l33 43l418 -321l-33 -45zM1063 1591l51 15l369 -1467h231l-10 -55h-264zM1083 0l11 55h604l-10 -55h-605z" />
<glyph unicode="&#xc1;" d="M-152 0l11 55h604l-10 -55h-605zM-135 84l10 55h217l895 1485l49 -29l-911 -1511h-260zM158 84l276 459h860l115 -459h-309l10 55h229l-88 348h-784l-211 -348h223l-10 -55h-311zM453 571l589 977l246 -977h-835zM551 627h666l-195 782zM799 1833l530 321l29 -47 l-531 -321zM844 1761l528 320l31 -47l-531 -322zM1063 1591l51 15l369 -1467h231l-10 -55h-264zM1083 0l11 55h604l-10 -55h-605z" />
<glyph unicode="&#xc2;" d="M-152 0l11 55h604l-10 -55h-605zM-135 84l10 55h217l895 1485l49 -29l-911 -1511h-260zM158 84l276 459h860l115 -459h-309l10 55h229l-88 348h-784l-211 -348h223l-10 -55h-311zM453 571l589 977l246 -977h-835zM551 627h666l-195 782zM727 1851l397 254l314 -260 l-37 -43l-281 236l-364 -234zM772 1780l344 221l268 -219l-36 -43l-236 194l-311 -200zM1063 1591l51 15l369 -1467h231l-10 -55h-264zM1083 0l11 55h604l-10 -55h-605z" />
<glyph unicode="&#xc3;" d="M-152 0l11 55h604l-10 -55h-605zM-135 84l10 55h217l895 1485l49 -29l-911 -1511h-260zM158 84l276 459h860l115 -459h-309l10 55h229l-88 348h-784l-211 -348h223l-10 -55h-311zM453 571l589 977l246 -977h-835zM551 627h666l-195 782zM680 1774q8 49 26.5 95t49 91 t80.5 72.5t112 27.5q110 0 201 -118q30 -38 52 -54t46 -16q51 0 83.5 48t45.5 124l54 -10q-7 -43 -20 -78.5t-34 -68.5t-54 -51.5t-75 -18.5t-71 21t-68 67q-37 47 -74 73.5t-86 26.5q-48 0 -86.5 -22t-63.5 -58.5t-40.5 -77t-22.5 -84.5zM764 1759q10 58 29.5 103.5 t60 79.5t94.5 34q42 0 71.5 -21.5t65.5 -66.5q39 -48 76 -74t86 -26q38 0 71 14.5t55.5 38t40.5 56t28 64.5t16 67l55 -9q-8 -49 -26 -95t-48.5 -91t-80 -72.5t-111.5 -27.5q-113 0 -200 118q-30 38 -52.5 54t-46.5 16q-51 0 -83.5 -48t-45.5 -124zM1063 1591l51 15 l369 -1467h231l-10 -55h-264zM1083 0l11 55h604l-10 -55h-605z" />
<glyph unicode="&#xc4;" d="M-152 0l11 55h604l-10 -55h-605zM-135 84l10 55h217l895 1485l49 -29l-911 -1511h-260zM158 84l276 459h860l115 -459h-309l10 55h229l-88 348h-784l-211 -348h223l-10 -55h-311zM453 571l589 977l246 -977h-835zM551 627h666l-195 782zM758 1872q0 51 36 87t87 36 q52 0 88.5 -36t36.5 -87t-36.5 -88t-88.5 -37q-51 0 -87 37t-36 88zM811 1872q0 -29 20.5 -50.5t49.5 -21.5q30 0 50.5 21t20.5 51t-20.5 51t-50.5 21q-29 0 -49.5 -21.5t-20.5 -50.5zM840 1872q0 18 11.5 30.5t29.5 12.5q19 0 31 -12t12 -31t-11.5 -31t-31.5 -12 q-17 0 -29 12t-12 31zM1063 1591l51 15l369 -1467h231l-10 -55h-264zM1083 0l11 55h604l-10 -55h-605zM1182 1872q0 51 36 87t87 36t88 -36t37 -87t-37 -88t-88 -37t-87 37t-36 88zM1233 1872q0 -29 21.5 -50.5t50.5 -21.5t50 21.5t21 50.5t-21 50.5t-50 21.5t-50.5 -21.5 t-21.5 -50.5zM1262 1872q0 18 12.5 30.5t30.5 12.5q19 0 31 -12t12 -31t-12 -31t-31 -12q-18 0 -30.5 12.5t-12.5 30.5z" />
<glyph unicode="&#xc5;" d="M-152 0l11 55h604l-10 -55h-605zM-135 84l10 55h217l858 1424q-55 31 -87 86.5t-32 122.5q0 101 70.5 172t171.5 71t171.5 -70.5t70.5 -172.5q0 -85 -52 -150t-133 -86l353 -1397h231l-10 -55h-264l-377 1501h10q76 0 131.5 56t55.5 131q0 77 -55.5 132.5t-131.5 55.5 t-131 -55.5t-55 -132.5q0 -66 41 -118t104 -65l-907 -1505h-260zM158 84l276 459h860l115 -459h-309l10 55h229l-88 348h-784l-211 -348h223l-10 -55h-311zM453 571l589 977l246 -977h-835zM551 627h666l-195 782zM915 1772q0 67 46 113t112 46t112 -46t46 -113 q0 -66 -46 -112t-112 -46t-112 46t-46 112zM971 1772q0 -41 30.5 -72t71.5 -31t72 31t31 72t-31 72.5t-72 31.5t-71.5 -31.5t-30.5 -72.5zM1083 0l11 55h604l-10 -55h-605z" />
<glyph unicode="&#xc6;" horiz-adv-x="2447" d="M-156 0l11 55h602l-11 -55h-602zM-139 84l10 55h223l1168 1319h-140l11 55h251l-1263 -1429h-260zM158 84l415 469h736l-82 -469h-287l10 55h232l61 357h-647l-315 -357h192l-10 -55h-305zM598 582l825 931h56l-164 -931h-717zM721 637h547l135 770zM924 0l10 55h1259 l60 336h57l-72 -391h-1314zM1139 1542l8 55h1352l-70 -393h-57l59 338h-1292zM1255 84l127 717h703l-10 -56h-645l-107 -606h799l45 252h57l-55 -307h-914zM1389 829l120 684h889l-55 -309h-57l47 254h-779l-100 -573h645l-8 -56h-702z" />
<glyph unicode="&#xc7;" horiz-adv-x="1675" d="M111 743q0 178 73.5 342t195 283t286.5 189.5t342 70.5q156 0 294.5 -56.5t223.5 -158.5l33 184h57l-64 -352q-42 147 -197 237.5t-347 90.5q-165 0 -320.5 -67t-269.5 -178.5t-183 -265t-69 -319.5q0 -265 162.5 -463.5t416.5 -244.5l-32 -174l-56 10l23 123 q-166 42 -295.5 150t-201.5 264t-72 335zM195 743q0 161 66 309.5t176.5 256t260 171.5t310.5 64q139 0 257.5 -46.5t193.5 -135t79 -201.5l-43 -246h-57l43 250q-7 93 -73.5 167.5t-172 115.5t-227.5 41q-148 0 -288 -60.5t-243 -161t-165 -238.5t-62 -286 q0 -174 82 -319.5t226 -230t319 -84.5q152 0 281.5 47t260.5 159l35 -41q-134 -118 -275 -169.5t-302 -51.5q-192 0 -349 92t-245 250t-88 348zM432 -567l21 49q15 -6 42 -15.5t107 -25.5t156 -16q116 0 185 60.5t69 154.5q0 85 -70.5 148t-198.5 83l29 160q52 -6 105 -6 q163 0 308.5 53.5t287.5 173.5l38 -41q-282 -242 -634 -242q-10 0 -30 1t-30 1l-8 -55q125 -32 192.5 -104.5t67.5 -171.5q0 -120 -85 -195.5t-226 -75.5q-81 0 -162.5 16t-122.5 32zM465 -492l20 52q13 -5 37 -13.5t96 -22t140 -13.5q82 0 126 35t44 94q0 53 -53.5 94.5 t-155.5 54.5l6 55q128 -18 193 -72t65 -132q0 -85 -59 -136t-166 -51q-74 0 -147 13.5t-109 27.5zM1524 915l121 682h57l-121 -682h-57z" />
<glyph unicode="&#xc8;" horiz-adv-x="1495" d="M-25 0l11 55h1255l59 338h58l-72 -393h-1311zM-8 84l10 55h229l232 1319h-232l11 55h286l-249 -1429h-287zM246 1542l10 55h1292l-69 -393h-58l62 338h-1237zM307 84l127 717h701l-11 -56h-645l-106 -606h798l43 254h58l-55 -309h-910zM438 829l121 684h891l-57 -309h-58 l47 254h-778l-100 -573h645l-8 -56h-703zM758 2032l35 43l417 -322l-34 -43zM809 2099l33 43l418 -321l-33 -45z" />
<glyph unicode="&#xc9;" horiz-adv-x="1495" d="M-25 0l11 55h1255l59 338h58l-72 -393h-1311zM-8 84l10 55h229l232 1319h-232l11 55h286l-249 -1429h-287zM246 1542l10 55h1292l-69 -393h-58l62 338h-1237zM307 84l127 717h701l-11 -56h-645l-106 -606h798l43 254h58l-55 -309h-910zM438 829l121 684h891l-57 -309h-58 l47 254h-778l-100 -573h645l-8 -56h-703zM709 1833l530 321l29 -47l-531 -321zM754 1761l528 320l31 -47l-531 -322z" />
<glyph unicode="&#xca;" horiz-adv-x="1495" d="M-25 0l11 55h1255l59 338h58l-72 -393h-1311zM-8 84l10 55h229l232 1319h-232l11 55h286l-249 -1429h-287zM246 1542l10 55h1292l-69 -393h-58l62 338h-1237zM307 84l127 717h701l-11 -56h-645l-106 -606h798l43 254h58l-55 -309h-910zM438 829l121 684h891l-57 -309h-58 l47 254h-778l-100 -573h645l-8 -56h-703zM637 1851l397 254l314 -260l-37 -43l-281 236l-364 -234zM682 1780l344 221l268 -219l-37 -43l-235 194l-311 -200z" />
<glyph unicode="&#xcb;" horiz-adv-x="1495" d="M-25 0l11 55h1255l59 338h58l-72 -393h-1311zM-8 84l10 55h229l232 1319h-232l11 55h286l-249 -1429h-287zM246 1542l10 55h1292l-69 -393h-58l62 338h-1237zM307 84l127 717h701l-11 -56h-645l-106 -606h798l43 254h58l-55 -309h-910zM438 829l121 684h891l-57 -309h-58 l47 254h-778l-100 -573h645l-8 -56h-703zM666 1872q0 51 35.5 87t86.5 36q52 0 88.5 -36t36.5 -87t-36.5 -88t-88.5 -37q-51 0 -86.5 37t-35.5 88zM719 1872q0 -30 20 -51t49 -21q30 0 51 21t21 51t-21 51t-51 21q-29 0 -49 -21t-20 -51zM748 1872q0 18 11 30.5t29 12.5 q19 0 31 -12t12 -31t-11.5 -31t-31.5 -12q-17 0 -28.5 12t-11.5 31zM1090 1872q0 51 35.5 87t86.5 36t88 -36t37 -87t-37 -88t-88 -37t-86.5 37t-35.5 88zM1141 1872q0 -29 21 -50.5t50 -21.5t50.5 21.5t21.5 50.5t-21.5 50.5t-50.5 21.5t-50 -21.5t-21 -50.5zM1169 1872 q0 18 12.5 30.5t30.5 12.5q19 0 31 -12t12 -31t-12 -31t-31 -12q-18 0 -30.5 12.5t-12.5 30.5z" />
<glyph unicode="&#xcc;" horiz-adv-x="788" d="M-25 0l11 55h604l-10 -55h-605zM-8 84l10 55h229l230 1319h-232l11 55h286l-247 -1429h-287zM246 1542l8 55h606l-10 -55h-604zM307 84l250 1429h287l-10 -55h-230l-231 -1319h231l-8 -55h-289zM362 2034l35 43l418 -322l-35 -43zM414 2101l32 43l418 -321l-33 -45z" />
<glyph unicode="&#xcd;" horiz-adv-x="788" d="M-25 0l11 55h604l-10 -55h-605zM-8 84l10 55h229l230 1319h-232l11 55h286l-247 -1429h-287zM246 1542l8 55h606l-10 -55h-604zM307 84l250 1429h287l-10 -55h-230l-231 -1319h231l-8 -55h-289zM313 1833l531 321l28 -47l-530 -321zM358 1761l529 320l31 -47l-531 -322z " />
<glyph unicode="&#xce;" horiz-adv-x="788" d="M-25 0l11 55h604l-10 -55h-605zM-8 84l10 55h229l230 1319h-232l11 55h286l-247 -1429h-287zM240 1851l397 254l313 -260l-37 -43l-280 236l-365 -234zM246 1542l8 55h606l-10 -55h-604zM285 1780l344 221l268 -219l-37 -43l-235 194l-312 -200zM307 84l250 1429h287 l-10 -55h-230l-231 -1319h231l-8 -55h-289z" />
<glyph unicode="&#xcf;" horiz-adv-x="788" d="M-25 0l11 55h604l-10 -55h-605zM-8 84l10 55h229l230 1319h-232l11 55h286l-247 -1429h-287zM246 1542l8 55h606l-10 -55h-604zM270 1872q0 51 36 87t87 36q52 0 88.5 -36t36.5 -87t-36.5 -88t-88.5 -37q-51 0 -87 37t-36 88zM307 84l250 1429h287l-10 -55h-230 l-231 -1319h231l-8 -55h-289zM324 1872q0 -30 20 -51t49 -21q30 0 51 21t21 51t-21 51t-51 21q-29 0 -49 -21t-20 -51zM352 1872q0 18 11.5 30.5t29.5 12.5q19 0 31 -12t12 -31t-11.5 -31t-31.5 -12q-17 0 -29 12t-12 31zM694 1872q0 51 36 87t87 36t88 -36t37 -87t-37 -88 t-88 -37t-87 37t-36 88zM745 1872q0 -29 21.5 -50.5t50.5 -21.5t50.5 21.5t21.5 50.5t-21.5 50.5t-50.5 21.5t-50.5 -21.5t-21.5 -50.5zM774 1872q0 18 12.5 30.5t30.5 12.5q19 0 31 -12t12 -31t-12 -31t-31 -12q-18 0 -30.5 12.5t-12.5 30.5z" />
<glyph unicode="&#xd0;" horiz-adv-x="1753" d="M-23 0l11 55h798q186 0 346.5 69.5t270.5 188t172.5 279t62.5 340.5q0 191 -84.5 330.5t-230.5 209.5t-336 70h-739l10 55h729q206 0 364.5 -76t250.5 -228t92 -361q0 -191 -66.5 -362t-183.5 -297t-288 -199.5t-370 -73.5h-809zM-6 84l10 55h229l107 609h-215l10 55h271 l-125 -719h-287zM141 831l11 56h213l100 571h-232l11 55h286l-118 -682h-271zM309 84l127 719h352l-10 -55h-297l-106 -609h411q135 0 255.5 40t213.5 112.5t160.5 171t103 218.5t35.5 251q0 250 -154 388t-413 138h-381l-100 -571h299l-10 -56h-355l121 682h426 q185 0 324.5 -65.5t219 -198t79.5 -317.5q0 -140 -37.5 -268.5t-110 -233.5t-172 -183t-229 -120.5t-275.5 -42.5h-477z" />
<glyph unicode="&#xd1;" horiz-adv-x="1873" d="M-27 0l11 55h604l-10 -55h-605zM-10 84l10 55h229l232 1319h-234l11 55h288l-250 -1429h-286zM244 1542l10 55h332l770 -1384l219 1245h-234l11 55h288l-256 -1462l-831 1491h-309zM305 84l246 1401l829 -1481l-49 -27l-753 1346l-207 -1184h231l-8 -55h-289zM750 1774 q8 49 26.5 95t49 91t80.5 72.5t112 27.5q110 0 201 -118q30 -38 52 -54t46 -16q51 0 83.5 48t45.5 124l53 -10q-38 -217 -182 -217q-42 0 -71 21t-68 67q-37 47 -74 73.5t-86 26.5q-48 0 -86.5 -22t-63.5 -58.5t-40.5 -77t-22.5 -84.5zM834 1759q10 58 29.5 103.5t60 79.5 t94.5 34q42 0 71.5 -21.5t65.5 -66.5q39 -48 76 -74t86 -26q38 0 71 14.5t55.5 38t40.5 56t28 64.5t16 67l55 -9q-8 -49 -26 -95t-48.5 -91t-80 -72.5t-111.5 -27.5q-114 0 -201 118q-30 38 -52 54t-46 16q-51 0 -83.5 -48t-45.5 -124zM1358 1542l10 55h604l-8 -55h-606z M1407 8l264 1505h287l-10 -55h-232l-256 -1460z" />
<glyph unicode="&#xd2;" horiz-adv-x="1837" d="M111 743q0 179 73.5 343t195 282.5t286.5 189t342 70.5q161 0 304 -61t244 -164.5t159.5 -246.5t58.5 -302q0 -179 -73.5 -343t-195 -282.5t-286.5 -189t-342 -70.5q-161 0 -304 61t-244 164.5t-159.5 246.5t-58.5 302zM166 743q0 -147 55 -279.5t149 -229t226.5 -153 t280.5 -56.5q164 0 319 66.5t269.5 177.5t183.5 265t69 320q0 147 -54.5 279.5t-148.5 229t-226.5 153.5t-280.5 57q-165 0 -320.5 -66.5t-269.5 -178t-183 -265.5t-69 -320zM195 743q0 162 66 310.5t176.5 255.5t260 171t310.5 64q192 0 349 -92t245 -250t88 -348 q0 -161 -66.5 -310t-177 -256t-260 -171t-309.5 -64q-192 0 -349 92t-245 250t-88 348zM250 743q0 -174 82 -319.5t226 -230t319 -84.5q148 0 287 60t242 160t165.5 238t62.5 287q0 174 -81.5 319.5t-225.5 230.5t-319 85q-198 0 -373 -101t-280 -273.5t-105 -371.5z M889 2034l35 43l417 -322l-34 -43zM940 2101l33 43l418 -321l-33 -45z" />
<glyph unicode="&#xd3;" horiz-adv-x="1837" d="M111 743q0 179 73.5 343t195 282.5t286.5 189t342 70.5q161 0 304 -61t244 -164.5t159.5 -246.5t58.5 -302q0 -179 -73.5 -343t-195 -282.5t-286.5 -189t-342 -70.5q-161 0 -304 61t-244 164.5t-159.5 246.5t-58.5 302zM166 743q0 -147 55 -279.5t149 -229t226.5 -153 t280.5 -56.5q164 0 319 66.5t269.5 177.5t183.5 265t69 320q0 147 -54.5 279.5t-148.5 229t-226.5 153.5t-280.5 57q-165 0 -320.5 -66.5t-269.5 -178t-183 -265.5t-69 -320zM195 743q0 162 66 310.5t176.5 255.5t260 171t310.5 64q192 0 349 -92t245 -250t88 -348 q0 -161 -66.5 -310t-177 -256t-260 -171t-309.5 -64q-192 0 -349 92t-245 250t-88 348zM250 743q0 -174 82 -319.5t226 -230t319 -84.5q148 0 287 60t242 160t165.5 238t62.5 287q0 174 -81.5 319.5t-225.5 230.5t-319 85q-198 0 -373 -101t-280 -273.5t-105 -371.5z M840 1833l530 321l29 -47l-531 -321zM885 1761l528 320l31 -47l-531 -322z" />
<glyph unicode="&#xd4;" horiz-adv-x="1837" d="M111 743q0 179 73.5 343t195 282.5t286.5 189t342 70.5q161 0 304 -61t244 -164.5t159.5 -246.5t58.5 -302q0 -179 -73.5 -343t-195 -282.5t-286.5 -189t-342 -70.5q-161 0 -304 61t-244 164.5t-159.5 246.5t-58.5 302zM166 743q0 -147 55 -279.5t149 -229t226.5 -153 t280.5 -56.5q164 0 319 66.5t269.5 177.5t183.5 265t69 320q0 147 -54.5 279.5t-148.5 229t-226.5 153.5t-280.5 57q-165 0 -320.5 -66.5t-269.5 -178t-183 -265.5t-69 -320zM195 743q0 162 66 310.5t176.5 255.5t260 171t310.5 64q192 0 349 -92t245 -250t88 -348 q0 -161 -66.5 -310t-177 -256t-260 -171t-309.5 -64q-192 0 -349 92t-245 250t-88 348zM250 743q0 -174 82 -319.5t226 -230t319 -84.5q148 0 287 60t242 160t165.5 238t62.5 287q0 174 -81.5 319.5t-225.5 230.5t-319 85q-198 0 -373 -101t-280 -273.5t-105 -371.5z M768 1851l397 254l314 -260l-37 -43l-281 236l-364 -234zM813 1780l344 221l268 -219l-36 -43l-236 194l-311 -200z" />
<glyph unicode="&#xd5;" horiz-adv-x="1837" d="M111 743q0 179 73.5 343t195 282.5t286.5 189t342 70.5q161 0 304 -61t244 -164.5t159.5 -246.5t58.5 -302q0 -179 -73.5 -343t-195 -282.5t-286.5 -189t-342 -70.5q-161 0 -304 61t-244 164.5t-159.5 246.5t-58.5 302zM166 743q0 -147 55 -279.5t149 -229t226.5 -153 t280.5 -56.5q164 0 319 66.5t269.5 177.5t183.5 265t69 320q0 147 -54.5 279.5t-148.5 229t-226.5 153.5t-280.5 57q-165 0 -320.5 -66.5t-269.5 -178t-183 -265.5t-69 -320zM195 743q0 162 66 310.5t176.5 255.5t260 171t310.5 64q192 0 349 -92t245 -250t88 -348 q0 -161 -66.5 -310t-177 -256t-260 -171t-309.5 -64q-192 0 -349 92t-245 250t-88 348zM250 743q0 -174 82 -319.5t226 -230t319 -84.5q148 0 287 60t242 160t165.5 238t62.5 287q0 174 -81.5 319.5t-225.5 230.5t-319 85q-198 0 -373 -101t-280 -273.5t-105 -371.5z M719 1778q8 49 26.5 95t49 91t80.5 72.5t112 27.5q110 0 201 -118q30 -38 52 -54t46 -16q51 0 83.5 48t45.5 124l53 -10q-38 -217 -182 -217q-42 0 -71 21t-68 67q-37 47 -74 73.5t-86 26.5q-48 0 -86.5 -22t-63.5 -58.5t-40.5 -77t-22.5 -84.5zM803 1763q10 58 29.5 103.5 t60 79.5t94.5 34q42 0 71.5 -21.5t65.5 -66.5q39 -48 76 -74t86 -26q38 0 71 14.5t55.5 38t40.5 56t28 64.5t16 67l55 -9q-8 -49 -26 -95t-48.5 -91t-80 -72.5t-111.5 -27.5q-114 0 -201 118q-30 38 -52 54t-46 16q-51 0 -83.5 -48t-45.5 -124z" />
<glyph unicode="&#xd6;" horiz-adv-x="1837" d="M111 743q0 179 73.5 343t195 282.5t286.5 189t342 70.5q161 0 304 -61t244 -164.5t159.5 -246.5t58.5 -302q0 -179 -73.5 -343t-195 -282.5t-286.5 -189t-342 -70.5q-161 0 -304 61t-244 164.5t-159.5 246.5t-58.5 302zM166 743q0 -147 55 -279.5t149 -229t226.5 -153 t280.5 -56.5q164 0 319 66.5t269.5 177.5t183.5 265t69 320q0 147 -54.5 279.5t-148.5 229t-226.5 153.5t-280.5 57q-165 0 -320.5 -66.5t-269.5 -178t-183 -265.5t-69 -320zM195 743q0 162 66 310.5t176.5 255.5t260 171t310.5 64q192 0 349 -92t245 -250t88 -348 q0 -161 -66.5 -310t-177 -256t-260 -171t-309.5 -64q-192 0 -349 92t-245 250t-88 348zM250 743q0 -174 82 -319.5t226 -230t319 -84.5q148 0 287 60t242 160t165.5 238t62.5 287q0 174 -81.5 319.5t-225.5 230.5t-319 85q-198 0 -373 -101t-280 -273.5t-105 -371.5z M797 1872q0 51 36 87t87 36q52 0 88 -36t36 -87t-36 -88t-88 -37q-51 0 -87 37t-36 88zM850 1872q0 -29 20.5 -50.5t49.5 -21.5q30 0 50.5 21t20.5 51t-20.5 51t-50.5 21q-29 0 -49.5 -21.5t-20.5 -50.5zM879 1872q0 18 11.5 30.5t29.5 12.5q19 0 31 -12t12 -31t-11.5 -31 t-31.5 -12q-17 0 -29 12t-12 31zM1221 1872q0 51 35.5 87t86.5 36t88 -36t37 -87t-37 -88t-88 -37t-86.5 37t-35.5 88zM1272 1872q0 -29 21 -50.5t50 -21.5t50.5 21.5t21.5 50.5t-21.5 50.5t-50.5 21.5t-50 -21.5t-21 -50.5zM1300 1872q0 18 12.5 30.5t30.5 12.5 q19 0 31 -12t12 -31t-12 -31t-31 -12q-18 0 -30.5 12.5t-12.5 30.5z" />
<glyph unicode="&#xd7;" horiz-adv-x="1134" d="M88 422l393 334l-268 325l43 35l303 -366l-436 -369zM141 360l437 369l305 -369l-43 -34l-269 321l-393 -332zM276 1135l46 36l268 -323l391 332l35 -43l-436 -369zM598 745l436 371l39 -43l-393 -334l268 -323l-45 -37z" />
<glyph unicode="&#xd8;" horiz-adv-x="1837" d="M111 743q0 179 73.5 343t195 282.5t286.5 189t342 70.5q235 0 424 -125l77 94h74l-141 -172q-191 148 -434 148q-165 0 -320.5 -66.5t-269.5 -178t-183 -265.5t-69 -320q0 -167 67 -311.5t187 -245.5l-154 -186h-73l149 182q-110 105 -170.5 251t-60.5 310zM195 743 q0 162 66 310.5t176.5 255.5t260 171t310.5 64q237 0 415 -139l-985 -1196q-115 95 -179 234t-64 300zM250 743q0 -132 47.5 -248.5t134.5 -203.5l909 1104q-153 94 -333 94q-198 0 -373 -101t-280 -273.5t-105 -371.5zM301 0l141 170q188 -145 435 -145q164 0 319 66.5 t269.5 177.5t183.5 265t69 320q0 165 -67.5 309t-186.5 246l156 188h72l-150 -182q109 -106 170.5 -252t61.5 -309q0 -179 -73.5 -343t-195 -282.5t-286.5 -189t-342 -70.5q-235 0 -426 123l-76 -92h-74zM459 190l987 1196q115 -95 179.5 -233t64.5 -299t-66.5 -310 t-177 -256t-260 -171t-309.5 -64q-235 0 -418 137zM541 203q148 -94 336 -94q148 0 287 60t242 160t165.5 238t62.5 287q0 131 -48 248t-134 205z" />
<glyph unicode="&#xd9;" horiz-adv-x="1820" d="M186 1458l11 55h286l-161 -919q-27 -156 33 -287.5t184 -206.5t282 -75q126 0 242 50.5t198.5 132t138 181t73.5 201.5l161 923h287l-10 -55h-230l-155 -878q-15 -86 -55 -173t-105 -165.5t-146 -139.5t-184.5 -97t-214.5 -36q-130 0 -243 50t-189 134.5t-110.5 202.5 t-12.5 248l152 854h-232zM203 1542l10 55h604l-10 -55h-604zM350 590l164 923h287l-10 -55h-230l-158 -878q-22 -128 28 -237t154 -171.5t236 -62.5q110 0 211 43.5t173 114t120 158.5t64 179l149 854h-231l10 55h287l-160 -919q-14 -79 -50 -156t-93 -146.5t-128 -123 t-162.5 -84.5t-189.5 -31q-110 0 -206.5 42.5t-161 113.5t-93.5 171t-10 210zM879 2034l34 43l418 -322l-35 -43zM930 2101l33 43l417 -321l-32 -45zM1323 1542l10 55h604l-10 -55h-604z" />
<glyph unicode="&#xda;" horiz-adv-x="1820" d="M186 1458l11 55h286l-161 -919q-27 -156 33 -287.5t184 -206.5t282 -75q126 0 242 50.5t198.5 132t138 181t73.5 201.5l161 923h287l-10 -55h-230l-155 -878q-15 -86 -55 -173t-105 -165.5t-146 -139.5t-184.5 -97t-214.5 -36q-130 0 -243 50t-189 134.5t-110.5 202.5 t-12.5 248l152 854h-232zM203 1542l10 55h604l-10 -55h-604zM350 590l164 923h287l-10 -55h-230l-158 -878q-22 -128 28 -237t154 -171.5t236 -62.5q110 0 211 43.5t173 114t120 158.5t64 179l149 854h-231l10 55h287l-160 -919q-14 -79 -50 -156t-93 -146.5t-128 -123 t-162.5 -84.5t-189.5 -31q-110 0 -206.5 42.5t-161 113.5t-93.5 171t-10 210zM829 1833l531 321l29 -47l-531 -321zM874 1761l529 320l31 -47l-531 -322zM1323 1542l10 55h604l-10 -55h-604z" />
<glyph unicode="&#xdb;" horiz-adv-x="1820" d="M186 1458l11 55h286l-161 -919q-27 -156 33 -287.5t184 -206.5t282 -75q126 0 242 50.5t198.5 132t138 181t73.5 201.5l161 923h287l-10 -55h-230l-155 -878q-15 -86 -55 -173t-105 -165.5t-146 -139.5t-184.5 -97t-214.5 -36q-130 0 -243 50t-189 134.5t-110.5 202.5 t-12.5 248l152 854h-232zM203 1542l10 55h604l-10 -55h-604zM350 590l164 923h287l-10 -55h-230l-158 -878q-22 -128 28 -237t154 -171.5t236 -62.5q110 0 211 43.5t173 114t120 158.5t64 179l149 854h-231l10 55h287l-160 -919q-14 -79 -50 -156t-93 -146.5t-128 -123 t-162.5 -84.5t-189.5 -31q-110 0 -206.5 42.5t-161 113.5t-93.5 171t-10 210zM756 1851l397 254l313 -260l-36 -43l-281 236l-365 -234zM801 1780l344 221l268 -219l-37 -43l-235 194l-312 -200zM1323 1542l10 55h604l-10 -55h-604z" />
<glyph unicode="&#xdc;" horiz-adv-x="1820" d="M186 1458l11 55h286l-161 -919q-27 -156 33 -287.5t184 -206.5t282 -75q126 0 242 50.5t198.5 132t138 181t73.5 201.5l161 923h287l-10 -55h-230l-155 -878q-15 -86 -55 -173t-105 -165.5t-146 -139.5t-184.5 -97t-214.5 -36q-130 0 -243 50t-189 134.5t-110.5 202.5 t-12.5 248l152 854h-232zM203 1542l10 55h604l-10 -55h-604zM350 590l164 923h287l-10 -55h-230l-158 -878q-22 -128 28 -237t154 -171.5t236 -62.5q110 0 211 43.5t173 114t120 158.5t64 179l149 854h-231l10 55h287l-160 -919q-14 -79 -50 -156t-93 -146.5t-128 -123 t-162.5 -84.5t-189.5 -31q-110 0 -206.5 42.5t-161 113.5t-93.5 171t-10 210zM786 1872q0 51 36 87t87 36q52 0 88.5 -36t36.5 -87t-36.5 -88t-88.5 -37q-51 0 -87 37t-36 88zM840 1872q0 -30 20 -51t49 -21q30 0 51 21t21 51t-21 51t-51 21q-29 0 -49 -21t-20 -51z M868 1872q0 18 11.5 30.5t29.5 12.5q19 0 31 -12t12 -31t-11.5 -31t-31.5 -12q-17 0 -29 12t-12 31zM1210 1872q0 51 36 87t87 36t88 -36t37 -87t-37 -88t-88 -37t-87 37t-36 88zM1262 1872q0 -29 21 -50.5t50 -21.5t50.5 21.5t21.5 50.5t-21.5 50.5t-50.5 21.5t-50 -21.5 t-21 -50.5zM1290 1872q0 18 12.5 30.5t30.5 12.5q19 0 31 -12t12 -31t-12 -31t-31 -12q-18 0 -30.5 12.5t-12.5 30.5zM1323 1542l10 55h604l-10 -55h-604z" />
<glyph unicode="&#xdd;" horiz-adv-x="1624" d="M104 1458l11 55h264l407 -890l-96 -539h-287l11 55h229l84 475l-387 844h-236zM121 1542l10 55h600l-8 -55h-602zM387 0l10 55h604l-10 -55h-604zM408 1513h309l-10 -55h-211l321 -702l567 702h-198l10 55h307l-698 -862zM719 84l96 537l721 892h264l-10 -55h-223 l-701 -866l-80 -453h232l-10 -55h-289zM727 1833l530 321l29 -47l-530 -321zM772 1761l528 320l31 -47l-530 -322zM1202 1542l8 55h607l-11 -55h-604z" />
<glyph unicode="&#xde;" horiz-adv-x="1622" d="M-25 0l11 55h604l-10 -55h-605zM-8 84l10 55h229l232 1319h-232l11 55h286l-249 -1429h-287zM246 1542l10 55h604l-8 -55h-606zM307 84l49 274h607q118 0 224.5 41t182 108.5t120 157.5t44.5 185q0 165 -123 277t-295 112h-606l49 274h287l-10 -55h-232l-29 -164h541 q128 0 236 -56t172.5 -158.5t64.5 -229.5q0 -108 -48.5 -208.5t-131 -175.5t-199.5 -120t-247 -45h-562l-28 -162h231l-8 -55h-289zM360 387l146 823h610q164 0 276.5 -102t112.5 -258q0 -90 -41.5 -175t-113 -148.5t-173 -101.5t-214.5 -38h-603zM426 442h537 q101 0 192 34.5t155.5 91t102 130.5t37.5 152q0 129 -97.5 217t-236.5 88h-565z" />
<glyph unicode="&#xdf;" horiz-adv-x="1425" d="M-47 0l10 55h316l188 1065q14 81 40 152t67.5 133.5t93.5 107.5t123 71t153 26q68 0 123 -21.5t87.5 -55.5t49.5 -73.5t17 -79.5q0 -34 -11.5 -65.5t-24.5 -52t-44 -48t-47.5 -40t-57.5 -41.5q-52 -35 -78.5 -55t-63 -56t-53 -76.5t-16.5 -89.5q0 -35 10.5 -66 t25.5 -53.5t40 -45t45.5 -37t49.5 -33.5q9 -6 14 -9q36 -24 59.5 -41.5t52 -45t45 -54.5t28 -64.5t11.5 -80.5q0 -129 -93.5 -211t-227.5 -82q-99 0 -188.5 46t-141.5 105l41 39q45 -52 124.5 -93.5t164.5 -41.5q109 0 187.5 68t78.5 170q0 81 -41.5 131.5t-128.5 107.5 q-33 21 -46.5 30.5t-45 33t-47.5 43.5t-35.5 49t-28 63t-8.5 72q0 48 16 92t36.5 73.5t58 63.5t60.5 50.5t65 44.5q57 38 85.5 61t51 59.5t22.5 79.5q0 65 -58 119.5t-163 54.5q-175 0 -282 -123t-140 -319l-198 -1112h-371zM-31 84l11 55h229l141 809h-231l10 56h287 l-162 -920h-285zM135 1032l10 55h230l8 48q20 111 63.5 208.5t111.5 177.5t167.5 126.5t218.5 46.5q72 0 132.5 -19.5t102 -51t70.5 -73t42.5 -84.5t13.5 -86q0 -34 -8 -66t-18 -56t-32 -51t-35.5 -42t-43.5 -39t-41.5 -32t-43.5 -31q-40 -27 -57.5 -39.5t-45.5 -36 t-39.5 -40t-21.5 -41t-10 -50.5q0 -28 8 -49.5t29.5 -42t38.5 -33t55 -36.5q4 -3 6 -4t5 -3l6 -4q37 -24 64.5 -45.5t61.5 -56t56 -70t37.5 -84.5t15.5 -102q0 -165 -121 -271t-286 -106q-117 0 -225.5 56.5t-165.5 121.5l41 39q53 -61 149 -111.5t201 -50.5q142 0 246 91.5 t104 230.5q0 57 -17.5 105.5t-51 86.5t-64.5 63.5t-76 55.5q-86 57 -111 82q-61 59 -61 137q0 35 12.5 67t27 53.5t47 49t51.5 41t61 41.5q40 28 58.5 42t50.5 43.5t47 53t27.5 59t12.5 74.5q0 43 -19 87.5t-55 83t-96.5 63t-134.5 24.5q-108 0 -197 -42t-150.5 -114.5 t-101 -162.5t-57.5 -195l-16 -92h-287z" />
<glyph unicode="&#xe0;" horiz-adv-x="1263" d="M18 340q0 56 16 109.5t53.5 105t93 89.5t141.5 61.5t192 23.5q160 0 369 -57l12 61q9 42 4.5 75.5t-15 58.5t-32 43.5t-45.5 31t-55.5 20t-62 10.5t-64.5 3q-103 0 -207.5 -22.5t-157.5 -47.5l-22 51q58 27 169 51.5t218 24.5q51 0 95 -6t86 -20t71.5 -37.5t51.5 -58.5 t26 -82.5t-5 -110.5l-22 -117q-235 74 -414 74q-94 0 -170.5 -20.5t-125.5 -53.5t-82.5 -77t-47.5 -89.5t-14 -93.5q0 -56 20.5 -108.5t61 -97.5t110.5 -72t160 -27q223 0 428 143l-23 -123h316l-10 -55h-373l12 70q-178 -90 -350 -90q-102 0 -183 33t-128.5 86t-72 115 t-24.5 126zM102 340q0 45 13 87t43.5 82t76.5 70t118 48t161 18q172 0 410 -74l-64 -350q-204 -158 -434 -158q-85 0 -149.5 24t-101.5 65t-55 88.5t-18 99.5zM158 340q0 -93 65 -157t203 -64q198 0 383 133l49 283q-193 55 -344 55q-96 0 -168 -22.5t-111.5 -60t-58 -79.5 t-18.5 -88zM201 1032q64 30 186 57t238 27q59 0 113 -9t106 -28.5t91 -51.5t67.5 -78t35 -107t-5.5 -140l-100 -563h229l-10 -55h-287l115 629q10 67 4.5 119.5t-30.5 91t-58 65t-79 42.5t-92.5 23t-98.5 7q-111 0 -225.5 -25.5t-174.5 -54.5zM489 1575l35 43l418 -322 l-35 -43zM541 1642l32 44l418 -322l-33 -45z" />
<glyph unicode="&#xe1;" horiz-adv-x="1263" d="M18 340q0 56 16 109.5t53.5 105t93 89.5t141.5 61.5t192 23.5q160 0 369 -57l12 61q9 42 4.5 75.5t-15 58.5t-32 43.5t-45.5 31t-55.5 20t-62 10.5t-64.5 3q-103 0 -207.5 -22.5t-157.5 -47.5l-22 51q58 27 169 51.5t218 24.5q51 0 95 -6t86 -20t71.5 -37.5t51.5 -58.5 t26 -82.5t-5 -110.5l-22 -117q-235 74 -414 74q-94 0 -170.5 -20.5t-125.5 -53.5t-82.5 -77t-47.5 -89.5t-14 -93.5q0 -56 20.5 -108.5t61 -97.5t110.5 -72t160 -27q223 0 428 143l-23 -123h316l-10 -55h-373l12 70q-178 -90 -350 -90q-102 0 -183 33t-128.5 86t-72 115 t-24.5 126zM102 340q0 45 13 87t43.5 82t76.5 70t118 48t161 18q172 0 410 -74l-64 -350q-204 -158 -434 -158q-85 0 -149.5 24t-101.5 65t-55 88.5t-18 99.5zM158 340q0 -93 65 -157t203 -64q198 0 383 133l49 283q-193 55 -344 55q-96 0 -168 -22.5t-111.5 -60t-58 -79.5 t-18.5 -88zM201 1032q64 30 186 57t238 27q59 0 113 -9t106 -28.5t91 -51.5t67.5 -78t35 -107t-5.5 -140l-100 -563h229l-10 -55h-287l115 629q10 67 4.5 119.5t-30.5 91t-58 65t-79 42.5t-92.5 23t-98.5 7q-111 0 -225.5 -25.5t-174.5 -54.5zM438 1374l531 322l28 -47 l-530 -322zM483 1303l529 319l30 -47l-530 -322z" />
<glyph unicode="&#xe2;" horiz-adv-x="1263" d="M18 340q0 56 16 109.5t53.5 105t93 89.5t141.5 61.5t192 23.5q160 0 369 -57l12 61q9 42 4.5 75.5t-15 58.5t-32 43.5t-45.5 31t-55.5 20t-62 10.5t-64.5 3q-103 0 -207.5 -22.5t-157.5 -47.5l-22 51q58 27 169 51.5t218 24.5q51 0 95 -6t86 -20t71.5 -37.5t51.5 -58.5 t26 -82.5t-5 -110.5l-22 -117q-235 74 -414 74q-94 0 -170.5 -20.5t-125.5 -53.5t-82.5 -77t-47.5 -89.5t-14 -93.5q0 -56 20.5 -108.5t61 -97.5t110.5 -72t160 -27q223 0 428 143l-23 -123h316l-10 -55h-373l12 70q-178 -90 -350 -90q-102 0 -183 33t-128.5 86t-72 115 t-24.5 126zM102 340q0 45 13 87t43.5 82t76.5 70t118 48t161 18q172 0 410 -74l-64 -350q-204 -158 -434 -158q-85 0 -149.5 24t-101.5 65t-55 88.5t-18 99.5zM158 340q0 -93 65 -157t203 -64q198 0 383 133l49 283q-193 55 -344 55q-96 0 -168 -22.5t-111.5 -60t-58 -79.5 t-18.5 -88zM201 1032q64 30 186 57t238 27q59 0 113 -9t106 -28.5t91 -51.5t67.5 -78t35 -107t-5.5 -140l-100 -563h229l-10 -55h-287l115 629q10 67 4.5 119.5t-30.5 91t-58 65t-79 42.5t-92.5 23t-98.5 7q-111 0 -225.5 -25.5t-174.5 -54.5zM367 1391l397 254l313 -261 l-37 -43l-280 236l-365 -234zM412 1319l344 221l268 -219l-37 -43l-235 195l-312 -201z" />
<glyph unicode="&#xe3;" horiz-adv-x="1263" d="M18 340q0 56 16 109.5t53.5 105t93 89.5t141.5 61.5t192 23.5q160 0 369 -57l12 61q9 42 4.5 75.5t-15 58.5t-32 43.5t-45.5 31t-55.5 20t-62 10.5t-64.5 3q-103 0 -207.5 -22.5t-157.5 -47.5l-22 51q58 27 169 51.5t218 24.5q51 0 95 -6t86 -20t71.5 -37.5t51.5 -58.5 t26 -82.5t-5 -110.5l-22 -117q-235 74 -414 74q-94 0 -170.5 -20.5t-125.5 -53.5t-82.5 -77t-47.5 -89.5t-14 -93.5q0 -56 20.5 -108.5t61 -97.5t110.5 -72t160 -27q223 0 428 143l-23 -123h316l-10 -55h-373l12 70q-178 -90 -350 -90q-102 0 -183 33t-128.5 86t-72 115 t-24.5 126zM102 340q0 45 13 87t43.5 82t76.5 70t118 48t161 18q172 0 410 -74l-64 -350q-204 -158 -434 -158q-85 0 -149.5 24t-101.5 65t-55 88.5t-18 99.5zM158 340q0 -93 65 -157t203 -64q198 0 383 133l49 283q-193 55 -344 55q-96 0 -168 -22.5t-111.5 -60t-58 -79.5 t-18.5 -88zM201 1032q64 30 186 57t238 27q59 0 113 -9t106 -28.5t91 -51.5t67.5 -78t35 -107t-5.5 -140l-100 -563h229l-10 -55h-287l115 629q10 67 4.5 119.5t-30.5 91t-58 65t-79 42.5t-92.5 23t-98.5 7q-111 0 -225.5 -25.5t-174.5 -54.5zM319 1315q8 49 26.5 95 t49.5 91.5t81 73t112 27.5q108 0 200 -119q30 -38 52.5 -54t46.5 -16q51 0 83.5 48t45.5 124l53 -10q-38 -217 -182 -217q-42 0 -71 21t-68 67q-37 47 -74 73.5t-86 26.5q-48 0 -86.5 -22t-63.5 -58.5t-40.5 -76.5t-22.5 -84zM403 1300q10 58 30 104t60.5 80t94.5 34 q42 0 71.5 -21.5t65.5 -66.5q39 -48 76 -74.5t86 -26.5q38 0 71 14.5t55.5 38t40.5 56t28 64.5t16 67l55 -8q-8 -49 -26 -95t-48.5 -91.5t-80 -73t-111.5 -27.5q-113 0 -201 119q-30 38 -52 53.5t-46 15.5q-51 0 -83.5 -48t-45.5 -124z" />
<glyph unicode="&#xe4;" horiz-adv-x="1263" d="M18 340q0 56 16 109.5t53.5 105t93 89.5t141.5 61.5t192 23.5q160 0 369 -57l12 61q9 42 4.5 75.5t-15 58.5t-32 43.5t-45.5 31t-55.5 20t-62 10.5t-64.5 3q-103 0 -207.5 -22.5t-157.5 -47.5l-22 51q58 27 169 51.5t218 24.5q51 0 95 -6t86 -20t71.5 -37.5t51.5 -58.5 t26 -82.5t-5 -110.5l-22 -117q-235 74 -414 74q-94 0 -170.5 -20.5t-125.5 -53.5t-82.5 -77t-47.5 -89.5t-14 -93.5q0 -56 20.5 -108.5t61 -97.5t110.5 -72t160 -27q223 0 428 143l-23 -123h316l-10 -55h-373l12 70q-178 -90 -350 -90q-102 0 -183 33t-128.5 86t-72 115 t-24.5 126zM102 340q0 45 13 87t43.5 82t76.5 70t118 48t161 18q172 0 410 -74l-64 -350q-204 -158 -434 -158q-85 0 -149.5 24t-101.5 65t-55 88.5t-18 99.5zM158 340q0 -93 65 -157t203 -64q198 0 383 133l49 283q-193 55 -344 55q-96 0 -168 -22.5t-111.5 -60t-58 -79.5 t-18.5 -88zM201 1032q64 30 186 57t238 27q59 0 113 -9t106 -28.5t91 -51.5t67.5 -78t35 -107t-5.5 -140l-100 -563h229l-10 -55h-287l115 629q10 67 4.5 119.5t-30.5 91t-58 65t-79 42.5t-92.5 23t-98.5 7q-111 0 -225.5 -25.5t-174.5 -54.5zM397 1413q0 51 36 87t87 36 q52 0 88.5 -36t36.5 -87t-36.5 -88t-88.5 -37q-51 0 -87 37t-36 88zM451 1413q0 -30 20 -51t49 -21q30 0 51 21t21 51t-21 51t-51 21q-29 0 -49 -21t-20 -51zM479 1413q0 18 11.5 30.5t29.5 12.5q19 0 31 -12t12 -31t-11.5 -31t-31.5 -12q-17 0 -29 12t-12 31zM821 1413 q0 51 36 87t87 36t88 -36t37 -87t-37 -88t-88 -37t-87 37t-36 88zM872 1413q0 -29 21.5 -50.5t50.5 -21.5t50.5 21.5t21.5 50.5t-21.5 50.5t-50.5 21.5t-50.5 -21.5t-21.5 -50.5zM901 1413q0 18 12.5 30.5t30.5 12.5q19 0 31 -12t12 -31t-12 -31t-31 -12q-18 0 -30.5 12.5 t-12.5 30.5z" />
<glyph unicode="&#xe5;" horiz-adv-x="1263" d="M18 340q0 56 16 109.5t53.5 105t93 89.5t141.5 61.5t192 23.5q160 0 369 -57l12 61q9 42 4.5 75.5t-15 58.5t-32 43.5t-45.5 31t-55.5 20t-62 10.5t-64.5 3q-103 0 -207.5 -22.5t-157.5 -47.5l-22 51q58 27 169 51.5t218 24.5q51 0 95 -6t86 -20t71.5 -37.5t51.5 -58.5 t26 -82.5t-5 -110.5l-22 -117q-235 74 -414 74q-94 0 -170.5 -20.5t-125.5 -53.5t-82.5 -77t-47.5 -89.5t-14 -93.5q0 -56 20.5 -108.5t61 -97.5t110.5 -72t160 -27q223 0 428 143l-23 -123h316l-10 -55h-373l12 70q-178 -90 -350 -90q-102 0 -183 33t-128.5 86t-72 115 t-24.5 126zM102 340q0 45 13 87t43.5 82t76.5 70t118 48t161 18q172 0 410 -74l-64 -350q-204 -158 -434 -158q-85 0 -149.5 24t-101.5 65t-55 88.5t-18 99.5zM158 340q0 -93 65 -157t203 -64q198 0 383 133l49 283q-193 55 -344 55q-96 0 -168 -22.5t-111.5 -60t-58 -79.5 t-18.5 -88zM201 1032q64 30 186 57t238 27q59 0 113 -9t106 -28.5t91 -51.5t67.5 -78t35 -107t-5.5 -140l-100 -563h229l-10 -55h-287l115 629q10 67 4.5 119.5t-30.5 91t-58 65t-79 42.5t-92.5 23t-98.5 7q-111 0 -225.5 -25.5t-174.5 -54.5zM502 1475q0 101 70 172t171 71 t171.5 -70t70.5 -173q0 -101 -70.5 -171.5t-171.5 -70.5t-171 70.5t-70 171.5zM557 1475q0 -75 55 -131t131 -56t131.5 56t55.5 131q0 77 -55.5 132.5t-131.5 55.5t-131 -55.5t-55 -132.5zM586 1475q0 67 45.5 113t111.5 46t112 -46t46 -113q0 -66 -46 -112t-112 -46 t-111.5 46t-45.5 112zM641 1475q0 -41 30.5 -72t71.5 -31t72 31t31 72t-31 72.5t-72 31.5t-71.5 -31.5t-30.5 -72.5z" />
<glyph unicode="&#xe6;" horiz-adv-x="1976" d="M18 340q0 56 16 109.5t53.5 105t93 89.5t141.5 61.5t192 23.5q159 0 371 -57l10 61q9 42 4.5 75.5t-15 58.5t-32 43.5t-45.5 31t-55.5 20t-62 10.5t-64.5 3q-103 0 -207.5 -22.5t-157.5 -47.5l-22 51q58 27 169 51.5t218 24.5q44 0 82 -4.5t75.5 -14.5t66 -26.5t53 -40.5 t37 -57t17.5 -76t-6 -96l-14 -82q-4 -9 -8 -35q-235 74 -414 74q-94 0 -170.5 -20.5t-125.5 -53.5t-82.5 -77t-47.5 -89.5t-14 -93.5q0 -56 20.5 -108.5t61 -97.5t110.5 -72t160 -27q290 0 549 244q60 -112 173 -178t261 -66q213 0 391 141l35 -43q-84 -68 -194 -110.5 t-232 -42.5q-144 0 -258.5 56.5t-187.5 156.5q-252 -213 -537 -213q-102 0 -183 33t-128.5 86t-72 115t-24.5 126zM102 340q0 45 13 87t43.5 82t76.5 70t118 48t161 18q172 0 410 -74q-4 -40 -4 -63q0 -110 41 -203q-254 -242 -535 -242q-85 0 -149.5 24t-101.5 65t-55 88.5 t-18 99.5zM158 340q0 -93 65 -157t203 -64q244 0 469 200q-31 91 -31 189v24q-197 58 -350 58q-96 0 -168 -22.5t-111.5 -60t-58 -79.5t-18.5 -88zM201 1032q64 30 186 57t238 27q66 0 125.5 -11t114 -34.5t95.5 -65.5t62 -98q87 97 209 151t258 54q173 0 277 -87.5 t104 -225.5q0 -125 -86 -214t-221 -130t-301 -41q-117 0 -250 20q24 -139 130.5 -227t266.5 -88q182 0 340 123l35 -43q-176 -136 -375 -136q-206 0 -332.5 126t-128.5 315q168 -35 314 -35q152 0 275.5 37t200.5 113t77 180q0 116 -86.5 187t-239.5 71q-159 0 -295 -81.5 t-209 -215.5q5 67 -13.5 120t-52.5 86t-82.5 55t-100.5 31t-111 9q-111 0 -225.5 -25.5t-174.5 -54.5zM948 532q7 137 82 251.5t196.5 179.5t262.5 65q140 0 218.5 -63t78.5 -166q0 -95 -70.5 -164t-187.5 -103t-266 -34q-154 0 -314 34zM1010 578q131 -23 252 -23 q204 0 336.5 67.5t132.5 176.5q0 76 -63.5 125t-178.5 49q-178 0 -314.5 -113.5t-164.5 -281.5z" />
<glyph unicode="&#xe7;" horiz-adv-x="1220" d="M61 508q0 164 84.5 304t225.5 220t303 80q91 0 178 -29.5t149 -83.5l17 91h57l-41 -232q-36 89 -139.5 144t-220.5 55q-146 0 -274 -73.5t-205.5 -201t-77.5 -274.5q0 -167 99.5 -295t262.5 -166l-33 -176l-55 10l23 127q-161 54 -257 189.5t-96 310.5zM145 508 q0 141 73 261.5t194.5 189.5t261.5 69q88 0 166 -30t128.5 -86.5t53.5 -127.5l-35 -196h-57l35 203q-7 76 -94 129t-197 53q-92 0 -178.5 -37.5t-151 -99.5t-103 -148.5t-38.5 -179.5q0 -166 110.5 -277.5t286.5 -111.5q198 0 381 133l31 -43q-197 -146 -412 -146 q-201 0 -328 128t-127 317zM166 -557l20 49q15 -6 42.5 -15.5t107.5 -25.5t156 -16q116 0 184.5 60.5t68.5 154.5q0 85 -70 148t-198 83l31 160q44 -6 92 -6q100 0 212.5 36.5t217.5 112.5l33 -43q-111 -82 -233 -121.5t-230 -39.5q-8 0 -24.5 1t-24.5 1l-8 -56 q125 -32 192.5 -104.5t67.5 -171.5q0 -120 -85 -195.5t-226 -75.5q-81 0 -162.5 16t-122.5 32zM199 -481l20 51q13 -5 37 -13.5t96 -22t140 -13.5q82 0 126 35t44 94q0 53 -53.5 94.5t-155.5 54.5l6 56q128 -18 193 -72.5t65 -132.5q0 -85 -59 -136t-166 -51q-74 0 -147 14 t-109 28zM1016 588l35 196l53 306h59l-90 -502h-57z" />
<glyph unicode="&#xe8;" horiz-adv-x="1173" d="M61 508q0 165 85.5 305t229 219.5t310.5 79.5q173 0 277 -87.5t104 -225.5q0 -125 -86 -214t-221 -130t-301 -41q-117 0 -250 20q24 -139 130.5 -227t266.5 -88q182 0 340 123l35 -43q-176 -136 -375 -136q-206 0 -332.5 126t-128.5 315q168 -35 314 -35q152 0 275.5 37 t200.5 113t77 180q0 116 -86.5 187t-239.5 71q-150 0 -281.5 -73.5t-209.5 -200.5t-78 -275q0 -130 60 -237.5t172.5 -171.5t256.5 -64q213 0 391 141l35 -43q-84 -68 -194 -110.5t-232 -42.5q-161 0 -286.5 71.5t-192 191t-66.5 265.5zM145 532q7 137 82 251.5t196.5 179.5 t262.5 65q140 0 218.5 -63t78.5 -166q0 -95 -70.5 -164t-187.5 -103t-266 -34q-154 0 -314 34zM207 578q131 -23 252 -23q204 0 336.5 67.5t132.5 176.5q0 76 -63.5 125t-178.5 49q-178 0 -314.5 -113.5t-164.5 -281.5zM506 1575l35 43l417 -322l-34 -43zM557 1642l33 44 l418 -322l-33 -45z" />
<glyph unicode="&#xe9;" horiz-adv-x="1173" d="M61 508q0 165 85.5 305t229 219.5t310.5 79.5q173 0 277 -87.5t104 -225.5q0 -125 -86 -214t-221 -130t-301 -41q-117 0 -250 20q24 -139 130.5 -227t266.5 -88q182 0 340 123l35 -43q-176 -136 -375 -136q-206 0 -332.5 126t-128.5 315q168 -35 314 -35q152 0 275.5 37 t200.5 113t77 180q0 116 -86.5 187t-239.5 71q-150 0 -281.5 -73.5t-209.5 -200.5t-78 -275q0 -130 60 -237.5t172.5 -171.5t256.5 -64q213 0 391 141l35 -43q-84 -68 -194 -110.5t-232 -42.5q-161 0 -286.5 71.5t-192 191t-66.5 265.5zM145 532q7 137 82 251.5t196.5 179.5 t262.5 65q140 0 218.5 -63t78.5 -166q0 -95 -70.5 -164t-187.5 -103t-266 -34q-154 0 -314 34zM207 578q131 -23 252 -23q204 0 336.5 67.5t132.5 176.5q0 76 -63.5 125t-178.5 49q-178 0 -314.5 -113.5t-164.5 -281.5zM455 1374l530 322l29 -47l-531 -322zM500 1303 l528 319l31 -47l-531 -322z" />
<glyph unicode="&#xea;" horiz-adv-x="1173" d="M61 508q0 165 85.5 305t229 219.5t310.5 79.5q173 0 277 -87.5t104 -225.5q0 -125 -86 -214t-221 -130t-301 -41q-117 0 -250 20q24 -139 130.5 -227t266.5 -88q182 0 340 123l35 -43q-176 -136 -375 -136q-206 0 -332.5 126t-128.5 315q168 -35 314 -35q152 0 275.5 37 t200.5 113t77 180q0 116 -86.5 187t-239.5 71q-150 0 -281.5 -73.5t-209.5 -200.5t-78 -275q0 -130 60 -237.5t172.5 -171.5t256.5 -64q213 0 391 141l35 -43q-84 -68 -194 -110.5t-232 -42.5q-161 0 -286.5 71.5t-192 191t-66.5 265.5zM145 532q7 137 82 251.5t196.5 179.5 t262.5 65q140 0 218.5 -63t78.5 -166q0 -95 -70.5 -164t-187.5 -103t-266 -34q-154 0 -314 34zM207 578q131 -23 252 -23q204 0 336.5 67.5t132.5 176.5q0 76 -63.5 125t-178.5 49q-178 0 -314.5 -113.5t-164.5 -281.5zM383 1391l397 254l314 -261l-37 -43l-281 236 l-364 -234zM428 1319l344 221l268 -219l-36 -43l-236 195l-311 -201z" />
<glyph unicode="&#xeb;" horiz-adv-x="1173" d="M61 508q0 165 85.5 305t229 219.5t310.5 79.5q173 0 277 -87.5t104 -225.5q0 -125 -86 -214t-221 -130t-301 -41q-117 0 -250 20q24 -139 130.5 -227t266.5 -88q182 0 340 123l35 -43q-176 -136 -375 -136q-206 0 -332.5 126t-128.5 315q168 -35 314 -35q152 0 275.5 37 t200.5 113t77 180q0 116 -86.5 187t-239.5 71q-150 0 -281.5 -73.5t-209.5 -200.5t-78 -275q0 -130 60 -237.5t172.5 -171.5t256.5 -64q213 0 391 141l35 -43q-84 -68 -194 -110.5t-232 -42.5q-161 0 -286.5 71.5t-192 191t-66.5 265.5zM145 532q7 137 82 251.5t196.5 179.5 t262.5 65q140 0 218.5 -63t78.5 -166q0 -95 -70.5 -164t-187.5 -103t-266 -34q-154 0 -314 34zM207 578q131 -23 252 -23q204 0 336.5 67.5t132.5 176.5q0 76 -63.5 125t-178.5 49q-178 0 -314.5 -113.5t-164.5 -281.5zM414 1413q0 51 36 87t87 36q52 0 88.5 -36t36.5 -87 t-36.5 -88t-88.5 -37q-51 0 -87 37t-36 88zM467 1413q0 -29 20.5 -50.5t49.5 -21.5q30 0 50.5 21t20.5 51t-20.5 51t-50.5 21q-29 0 -49.5 -21.5t-20.5 -50.5zM496 1413q0 18 11.5 30.5t29.5 12.5q19 0 31 -12t12 -31t-11.5 -31t-31.5 -12q-17 0 -29 12t-12 31zM838 1413 q0 51 36 87t87 36t87.5 -36t36.5 -87t-36.5 -88t-87.5 -37t-87 37t-36 88zM889 1413q0 -29 21.5 -50.5t50.5 -21.5t50 21.5t21 50.5t-21 50.5t-50 21.5t-50.5 -21.5t-21.5 -50.5zM918 1413q0 18 12.5 30.5t30.5 12.5q19 0 31 -12t12 -31t-12 -31t-31 -12q-18 0 -30.5 12.5 t-12.5 30.5z" />
<glyph unicode="&#xec;" horiz-adv-x="702" d="M-49 0l10 55h600l-10 -55h-600zM-33 84l10 55h228l145 811h-231l10 56h287l-164 -922h-285zM133 1034l10 56h373l-168 -951h230l-11 -55h-286l168 950h-316zM205 1575l35 43l417 -322l-34 -43zM256 1642l33 44l418 -322l-33 -45z" />
<glyph unicode="&#xed;" horiz-adv-x="702" d="M-49 0l10 55h600l-10 -55h-600zM-33 84l10 55h228l145 811h-231l10 56h287l-164 -922h-285zM133 1034l10 56h373l-168 -951h230l-11 -55h-286l168 950h-316zM156 1374l530 322l29 -47l-531 -322zM201 1303l528 319l31 -47l-531 -322z" />
<glyph unicode="&#xee;" horiz-adv-x="702" d="M-49 0l10 55h600l-10 -55h-600zM-33 84l10 55h228l145 811h-231l10 56h287l-164 -922h-285zM84 1391l397 254l314 -261l-37 -43l-281 236l-364 -234zM129 1319l344 221l268 -219l-36 -43l-236 195l-311 -201zM133 1034l10 56h373l-168 -951h230l-11 -55h-286l168 950 h-316z" />
<glyph unicode="&#xef;" horiz-adv-x="702" d="M-49 0l10 55h600l-10 -55h-600zM-33 84l10 55h228l145 811h-231l10 56h287l-164 -922h-285zM111 1413q0 51 35.5 87t86.5 36q52 0 88.5 -36t36.5 -87t-36.5 -88t-88.5 -37q-51 0 -86.5 37t-35.5 88zM133 1034l10 56h373l-168 -951h230l-11 -55h-286l168 950h-316z M164 1413q0 -30 20 -51t49 -21q30 0 51 21t21 51t-21 51t-51 21q-29 0 -49 -21t-20 -51zM193 1413q0 18 11 30.5t29 12.5q19 0 31 -12t12 -31t-11.5 -31t-31.5 -12q-17 0 -28.5 12t-11.5 31zM535 1413q0 51 35.5 87t86.5 36t88 -36t37 -87t-37 -88t-88 -37t-86.5 37 t-35.5 88zM586 1413q0 -29 21 -50.5t50 -21.5t50.5 21.5t21.5 50.5t-21.5 50.5t-50.5 21.5t-50 -21.5t-21 -50.5zM614 1413q0 18 12.5 30.5t30.5 12.5q19 0 31 -12t12 -31t-12 -31t-31 -12q-18 0 -30.5 12.5t-12.5 30.5z" />
<glyph unicode="&#xf0;" horiz-adv-x="1296" d="M61 500q0 158 82.5 294t220.5 214.5t295 78.5q95 0 189.5 -36t165.5 -105q-42 199 -148 338q-60 75 -131 129l-215 -196l-35 40l244 226q98 -60 178 -164q92 -119 139.5 -275t47.5 -331v-17q-26 110 -98 188.5t-158.5 113t-178.5 34.5q-106 0 -206 -43t-173.5 -114.5 t-118 -170t-44.5 -204.5q0 -194 131.5 -329.5t324.5 -135.5q72 0 143 19t146 68t131.5 123t92.5 195t36 273q0 177 -49 338t-141 284q-80 104 -180 168l180 164l37 -41l-129 -119q73 -56 135 -137q97 -128 150 -300.5t53 -356.5q0 -118 -21 -219.5t-56.5 -175t-85 -132.5 t-103.5 -97t-114 -63t-115.5 -35.5t-109.5 -10.5q-218 0 -365 151t-147 369zM145 500q0 135 70.5 251.5t189 184.5t254.5 68q63 0 124.5 -17t118.5 -55t98.5 -92t63 -135.5t13.5 -178.5q-18 -104 -58.5 -186t-91.5 -133t-113.5 -84.5t-121.5 -46.5t-119 -13q-184 0 -306 126 t-122 311zM182 1657q296 50 535 -70l157 144l37 -43l-186 -168q-230 132 -532 82zM197 1573q293 50 508 -74l-240 -221l-39 41l180 166q-175 73 -401 33zM201 500q0 -160 107 -270.5t265 -110.5q53 0 105 11.5t106.5 40.5t99.5 73t81.5 114.5t54.5 159.5q8 88 -9 161 t-52.5 122t-85 83t-103.5 49t-111 15q-120 0 -226 -61t-169 -164.5t-63 -222.5z" />
<glyph unicode="&#xf1;" horiz-adv-x="1460" d="M-45 0l10 55h600l-10 -55h-600zM-29 84l9 55h229l143 811h-231l10 56h289l-166 -922h-283zM137 1034l10 56h371l-20 -117q186 139 372 139q61 0 118 -17.5t108.5 -55t84 -96.5t46 -140.5t-5.5 -188.5l-84 -475h229l-10 -55h-287l96 539q17 118 1 200.5t-63.5 134.5 t-106 75.5t-126.5 23.5q-117 0 -235.5 -62t-218.5 -168l37 207h-316zM283 84l123 690q103 118 223.5 186t240.5 68q50 0 94 -13.5t83.5 -43t63.5 -76t33 -113.5t-7 -155l-101 -572h316l-11 -55h-370l110 637q14 92 4 156t-44 104t-76.5 58t-94.5 18q-104 0 -212 -60 t-201 -165l-107 -609h230l-11 -55h-286zM485 1315q8 49 26.5 95t49.5 91.5t81 73t112 27.5q108 0 200 -119q30 -38 52.5 -54t46.5 -16q51 0 83.5 48t45.5 124l53 -10q-38 -217 -182 -217q-42 0 -72 21.5t-68 66.5q-37 48 -73.5 74t-85.5 26q-48 0 -86.5 -22t-63.5 -58.5 t-40.5 -76.5t-22.5 -84zM569 1300q10 58 30 104t60.5 80t94.5 34q42 0 71.5 -21.5t65.5 -66.5q39 -48 76 -74.5t86 -26.5q38 0 71 14.5t55.5 38t40.5 56t28 64.5t16 67l55 -8q-8 -49 -26 -95t-48.5 -91.5t-80 -73t-111.5 -27.5q-113 0 -201 119q-30 38 -52 53.5t-46 15.5 q-51 0 -83.5 -48t-45.5 -124z" />
<glyph unicode="&#xf2;" horiz-adv-x="1302" d="M61 510q0 163 84.5 302.5t225.5 219.5t303 80q147 0 268 -70.5t189.5 -192t68.5 -267.5q0 -123 -50 -234.5t-133 -192t-195.5 -128t-233.5 -47.5q-148 0 -269 70.5t-189.5 192t-68.5 267.5zM117 510q0 -198 136.5 -336.5t334.5 -138.5q145 0 273 73.5t205 200.5t77 273 q0 197 -136 336t-333 139q-145 0 -273.5 -73.5t-206 -200.5t-77.5 -273zM145 510q0 140 73 260t194.5 189t261.5 69q188 0 314 -129t126 -317q0 -105 -42.5 -201.5t-114 -166t-168.5 -110.5t-201 -41q-189 0 -316 129t-127 318zM203 510q0 -164 111 -277.5t274 -113.5 q123 0 232 62.5t174 170t65 230.5q0 164 -111 277.5t-274 113.5q-123 0 -232 -62.5t-174 -170t-65 -230.5zM541 1575l34 43l418 -322l-35 -43zM592 1642l33 44l417 -322l-32 -45z" />
<glyph unicode="&#xf3;" horiz-adv-x="1302" d="M61 510q0 163 84.5 302.5t225.5 219.5t303 80q147 0 268 -70.5t189.5 -192t68.5 -267.5q0 -123 -50 -234.5t-133 -192t-195.5 -128t-233.5 -47.5q-148 0 -269 70.5t-189.5 192t-68.5 267.5zM117 510q0 -198 136.5 -336.5t334.5 -138.5q145 0 273 73.5t205 200.5t77 273 q0 197 -136 336t-333 139q-145 0 -273.5 -73.5t-206 -200.5t-77.5 -273zM145 510q0 140 73 260t194.5 189t261.5 69q188 0 314 -129t126 -317q0 -105 -42.5 -201.5t-114 -166t-168.5 -110.5t-201 -41q-189 0 -316 129t-127 318zM203 510q0 -164 111 -277.5t274 -113.5 q123 0 232 62.5t174 170t65 230.5q0 164 -111 277.5t-274 113.5q-123 0 -232 -62.5t-174 -170t-65 -230.5zM489 1374l531 322l29 -47l-531 -322zM535 1303l528 319l31 -47l-531 -322z" />
<glyph unicode="&#xf4;" horiz-adv-x="1302" d="M61 510q0 163 84.5 302.5t225.5 219.5t303 80q147 0 268 -70.5t189.5 -192t68.5 -267.5q0 -123 -50 -234.5t-133 -192t-195.5 -128t-233.5 -47.5q-148 0 -269 70.5t-189.5 192t-68.5 267.5zM117 510q0 -198 136.5 -336.5t334.5 -138.5q145 0 273 73.5t205 200.5t77 273 q0 197 -136 336t-333 139q-145 0 -273.5 -73.5t-206 -200.5t-77.5 -273zM145 510q0 140 73 260t194.5 189t261.5 69q188 0 314 -129t126 -317q0 -105 -42.5 -201.5t-114 -166t-168.5 -110.5t-201 -41q-189 0 -316 129t-127 318zM203 510q0 -164 111 -277.5t274 -113.5 q123 0 232 62.5t174 170t65 230.5q0 164 -111 277.5t-274 113.5q-123 0 -232 -62.5t-174 -170t-65 -230.5zM418 1391l397 254l313 -261l-36 -43l-281 236l-365 -234zM463 1319l344 221l268 -219l-37 -43l-235 195l-311 -201z" />
<glyph unicode="&#xf5;" horiz-adv-x="1302" d="M61 510q0 163 84.5 302.5t225.5 219.5t303 80q147 0 268 -70.5t189.5 -192t68.5 -267.5q0 -123 -50 -234.5t-133 -192t-195.5 -128t-233.5 -47.5q-148 0 -269 70.5t-189.5 192t-68.5 267.5zM117 510q0 -198 136.5 -336.5t334.5 -138.5q145 0 273 73.5t205 200.5t77 273 q0 197 -136 336t-333 139q-145 0 -273.5 -73.5t-206 -200.5t-77.5 -273zM145 510q0 140 73 260t194.5 189t261.5 69q188 0 314 -129t126 -317q0 -105 -42.5 -201.5t-114 -166t-168.5 -110.5t-201 -41q-189 0 -316 129t-127 318zM203 510q0 -164 111 -277.5t274 -113.5 q123 0 232 62.5t174 170t65 230.5q0 164 -111 277.5t-274 113.5q-123 0 -232 -62.5t-174 -170t-65 -230.5zM371 1315q7 38 19 75t34 76.5t51 68.5t71.5 48t92.5 19q109 0 201 -119q30 -38 52 -54t46 -16q51 0 83.5 48t45.5 124l53 -10q-38 -217 -182 -217q-42 0 -71 21 t-68 67q-37 47 -74 73.5t-86 26.5q-48 0 -86.5 -22t-63.5 -58.5t-40.5 -76.5t-22.5 -84zM455 1300q7 42 20.5 78.5t35 69t54.5 51.5t74 19q42 0 71.5 -21.5t65.5 -66.5q39 -48 76 -74.5t86 -26.5q38 0 71 14.5t55.5 38t40.5 56t28 64.5t16 67l55 -8q-8 -49 -26 -95 t-48.5 -91.5t-80 -73t-111.5 -27.5q-113 0 -201 119q-30 38 -52 53.5t-46 15.5q-51 0 -83.5 -48t-45.5 -124z" />
<glyph unicode="&#xf6;" horiz-adv-x="1302" d="M61 510q0 163 84.5 302.5t225.5 219.5t303 80q147 0 268 -70.5t189.5 -192t68.5 -267.5q0 -123 -50 -234.5t-133 -192t-195.5 -128t-233.5 -47.5q-148 0 -269 70.5t-189.5 192t-68.5 267.5zM117 510q0 -198 136.5 -336.5t334.5 -138.5q145 0 273 73.5t205 200.5t77 273 q0 197 -136 336t-333 139q-145 0 -273.5 -73.5t-206 -200.5t-77.5 -273zM145 510q0 140 73 260t194.5 189t261.5 69q188 0 314 -129t126 -317q0 -105 -42.5 -201.5t-114 -166t-168.5 -110.5t-201 -41q-189 0 -316 129t-127 318zM203 510q0 -164 111 -277.5t274 -113.5 q123 0 232 62.5t174 170t65 230.5q0 164 -111 277.5t-274 113.5q-123 0 -232 -62.5t-174 -170t-65 -230.5zM449 1413q0 51 35.5 87t86.5 36q52 0 88.5 -36t36.5 -87t-36.5 -88t-88.5 -37q-51 0 -86.5 37t-35.5 88zM502 1413q0 -30 20 -51t49 -21q30 0 51 21t21 51t-21 51 t-51 21q-29 0 -49 -21t-20 -51zM530 1413q0 18 11.5 30.5t29.5 12.5q19 0 31 -12t12 -31t-11.5 -31t-31.5 -12q-17 0 -29 12t-12 31zM872 1413q0 51 36 87t87 36t88 -36t37 -87t-37 -88t-88 -37t-87 37t-36 88zM924 1413q0 -29 21 -50.5t50 -21.5t50.5 21.5t21.5 50.5 t-21.5 50.5t-50.5 21.5t-50 -21.5t-21 -50.5zM952 1413q0 18 12.5 30.5t30.5 12.5q19 0 31 -12t12 -31t-12 -31t-31 -12q-18 0 -30.5 12.5t-12.5 30.5z" />
<glyph unicode="&#xf7;" horiz-adv-x="1189" d="M147 680l11 55h897l-11 -55h-897zM164 764l10 55h897l-10 -55h-897zM418 371q0 51 36.5 88t88.5 37q51 0 87 -37t36 -88t-36 -87t-87 -36q-52 0 -88.5 36t-36.5 87zM471 371q0 -30 21 -51t51 -21q29 0 49 21t20 51q0 29 -20 50t-49 21q-31 0 -51.5 -21t-20.5 -50z M500 371q0 19 11.5 31t31.5 12q17 0 29 -12t12 -31q0 -18 -11.5 -30.5t-29.5 -12.5q-19 0 -31 12t-12 31zM551 1126q0 51 36.5 88t88.5 37q51 0 87 -37t36 -88t-36 -86.5t-87 -35.5q-52 0 -88.5 35.5t-36.5 86.5zM604 1126q0 -30 21 -50.5t51 -20.5q29 0 49 21t20 50 q0 30 -20 51t-49 21q-30 0 -51 -21t-21 -51zM633 1126q0 19 11.5 31t31.5 12q17 0 29 -12t12 -31q0 -18 -11.5 -30.5t-29.5 -12.5q-19 0 -31 12t-12 31z" />
<glyph unicode="&#xf8;" horiz-adv-x="1304" d="M63 510q0 163 84.5 302.5t225.5 219.5t303 80q153 0 282 -82l52 60h73l-116 -136q-131 103 -291 103q-145 0 -273.5 -73.5t-206 -200.5t-77.5 -273q0 -106 41.5 -198.5t115.5 -157.5l-133 -154h-73l129 150q-136 149 -136 360zM147 510q0 140 73 260t194.5 189t261.5 69 q156 0 274 -94l-657 -760q-69 61 -107.5 148.5t-38.5 187.5zM180 0l117 135q127 -100 293 -100q145 0 273 73.5t205 200.5t77 273q0 104 -41.5 196t-114.5 158l131 154h72l-127 -148q137 -150 137 -360q0 -123 -50 -234.5t-133 -192t-195.5 -128t-233.5 -47.5 q-160 0 -287 79l-51 -59h-72zM205 510q0 -146 86 -252l575 666q-87 49 -190 49q-123 0 -232 -62.5t-174 -170t-65 -230.5zM315 156l656 759q68 -61 106.5 -147.5t38.5 -185.5q0 -105 -42.5 -201.5t-114 -166t-168.5 -110.5t-201 -41q-158 0 -275 93zM397 168q82 -49 193 -49 q123 0 232 62.5t174 170t65 230.5q0 145 -90 252z" />
<glyph unicode="&#xf9;" horiz-adv-x="1413" d="M47 950l10 56h287l-96 -539q-17 -117 -1 -199.5t63.5 -134.5t106 -76t126.5 -24q115 0 234.5 61.5t219.5 165.5l-36 -205h315l-10 -55h-371l20 115q-189 -138 -372 -138q-61 0 -117.5 17.5t-107.5 55.5t-84 96.5t-46.5 141t5.5 189.5l83 473h-229zM63 1034l9 56h370 l-110 -637q-14 -92 -4.5 -156t44 -104t77 -58t94.5 -18q102 0 210 60t201 163l109 610h-232l11 56h288l-124 -693q-102 -117 -223 -184.5t-240 -67.5q-50 0 -94 13.5t-83.5 43.5t-63.5 77t-33 113.5t7 154.5l101 571h-314zM580 1575l34 43l418 -322l-35 -43zM631 1642l33 44 l417 -322l-32 -45zM848 1034l8 56h373l-168 -951h229l-10 -55h-287l170 950h-315z" />
<glyph unicode="&#xfa;" horiz-adv-x="1413" d="M47 950l10 56h287l-96 -539q-17 -117 -1 -199.5t63.5 -134.5t106 -76t126.5 -24q115 0 234.5 61.5t219.5 165.5l-36 -205h315l-10 -55h-371l20 115q-189 -138 -372 -138q-61 0 -117.5 17.5t-107.5 55.5t-84 96.5t-46.5 141t5.5 189.5l83 473h-229zM63 1034l9 56h370 l-110 -637q-14 -92 -4.5 -156t44 -104t77 -58t94.5 -18q102 0 210 60t201 163l109 610h-232l11 56h288l-124 -693q-102 -117 -223 -184.5t-240 -67.5q-50 0 -94 13.5t-83.5 43.5t-63.5 77t-33 113.5t7 154.5l101 571h-314zM528 1374l531 322l28 -47l-530 -322zM573 1303 l529 319l31 -47l-531 -322zM848 1034l8 56h373l-168 -951h229l-10 -55h-287l170 950h-315z" />
<glyph unicode="&#xfb;" horiz-adv-x="1413" d="M47 950l10 56h287l-96 -539q-17 -117 -1 -199.5t63.5 -134.5t106 -76t126.5 -24q115 0 234.5 61.5t219.5 165.5l-36 -205h315l-10 -55h-371l20 115q-189 -138 -372 -138q-61 0 -117.5 17.5t-107.5 55.5t-84 96.5t-46.5 141t5.5 189.5l83 473h-229zM63 1034l9 56h370 l-110 -637q-14 -92 -4.5 -156t44 -104t77 -58t94.5 -18q102 0 210 60t201 163l109 610h-232l11 56h288l-124 -693q-102 -117 -223 -184.5t-240 -67.5q-50 0 -94 13.5t-83.5 43.5t-63.5 77t-33 113.5t7 154.5l101 571h-314zM457 1391l397 254l313 -261l-37 -43l-280 236 l-365 -234zM502 1319l344 221l268 -219l-37 -43l-235 195l-312 -201zM848 1034l8 56h373l-168 -951h229l-10 -55h-287l170 950h-315z" />
<glyph unicode="&#xfc;" horiz-adv-x="1413" d="M47 950l10 56h287l-96 -539q-17 -117 -1 -199.5t63.5 -134.5t106 -76t126.5 -24q115 0 234.5 61.5t219.5 165.5l-36 -205h315l-10 -55h-371l20 115q-189 -138 -372 -138q-61 0 -117.5 17.5t-107.5 55.5t-84 96.5t-46.5 141t5.5 189.5l83 473h-229zM63 1034l9 56h370 l-110 -637q-14 -92 -4.5 -156t44 -104t77 -58t94.5 -18q102 0 210 60t201 163l109 610h-232l11 56h288l-124 -693q-102 -117 -223 -184.5t-240 -67.5q-50 0 -94 13.5t-83.5 43.5t-63.5 77t-33 113.5t7 154.5l101 571h-314zM485 1413q0 51 36 87t87 36q52 0 88.5 -36 t36.5 -87t-36.5 -88t-88.5 -37q-51 0 -87 37t-36 88zM539 1413q0 -30 20 -51t49 -21q30 0 51 21t21 51t-21 51t-51 21q-29 0 -49 -21t-20 -51zM567 1413q0 18 11.5 30.5t29.5 12.5q19 0 31 -12t12 -31t-11.5 -31t-31.5 -12q-17 0 -29 12t-12 31zM848 1034l8 56h373 l-168 -951h229l-10 -55h-287l170 950h-315zM909 1413q0 51 36 87t87 36t88 -36t37 -87t-37 -88t-88 -37t-87 37t-36 88zM961 1413q0 -29 21 -50.5t50 -21.5t50.5 21.5t21.5 50.5t-21.5 50.5t-50.5 21.5t-50 -21.5t-21 -50.5zM989 1413q0 18 12.5 30.5t30.5 12.5q19 0 31 -12 t12 -31t-12 -31t-31 -12q-18 0 -30.5 12.5t-12.5 30.5z" />
<glyph unicode="&#xfd;" horiz-adv-x="1390" d="M-352 -381l53 21q23 -54 59 -94t79 -61t84.5 -30.5t84.5 -9.5q137 0 264.5 100.5t259.5 317.5l699 1143h237l-10 -56h-198l-680 -1116q-139 -228 -279 -336t-293 -108q-48 0 -96 11.5t-98.5 36t-94.5 71t-71 110.5zM-274 -348l51 20q63 -143 231 -143q112 0 222 89.5 t231 289.5l41 69l-250 973h-219l10 56h252l266 -1039l-53 -88q-129 -214 -249 -309.5t-251 -95.5q-56 0 -106 14.5t-99 56t-77 107.5zM49 1034l8 56h582l-8 -56h-582zM326 1006h299l-11 -56h-219l209 -809l492 809h-219l10 56h309l-612 -1004zM541 1374l530 322l29 -47 l-531 -322zM586 1303l528 319l31 -47l-531 -322zM893 1034l10 56h582l-10 -56h-582z" />
<glyph unicode="&#xfe;" horiz-adv-x="1423" d="M-246 -561l10 55h601l-11 -55h-600zM-229 -475l10 55h227l330 1878h-232l11 55h289l-351 -1988h-284zM84 -475l160 907q27 -171 157 -284t308 -113q145 0 273 73.5t205 200.5t77 273q0 197 -136 336t-333 139q-153 0 -288 -82.5t-206 -216.5l137 784h-315l8 55h373 l-113 -636q178 151 404 151q147 0 268 -70.5t189.5 -192t68.5 -267.5q0 -123 -50 -234.5t-133 -192t-195.5 -128t-233.5 -47.5q-142 0 -259 65t-188 176l-110 -641h229l-10 -55h-287zM266 510q0 140 73 260t194.5 189t261.5 69q188 0 314 -129t126 -317q0 -105 -42.5 -201.5 t-114 -166t-168.5 -110.5t-201 -41q-189 0 -316 129t-127 318zM324 510q0 -164 111 -277.5t274 -113.5q123 0 232 62.5t174 170t65 230.5q0 164 -111 277.5t-274 113.5q-123 0 -232 -62.5t-174 -170t-65 -230.5z" />
<glyph unicode="&#xff;" horiz-adv-x="1390" d="M-352 -381l53 21q23 -54 59 -94t79 -61t84.5 -30.5t84.5 -9.5q137 0 264.5 100.5t259.5 317.5l699 1143h237l-10 -56h-198l-680 -1116q-139 -228 -279 -336t-293 -108q-48 0 -96 11.5t-98.5 36t-94.5 71t-71 110.5zM-274 -348l51 20q63 -143 231 -143q112 0 222 89.5 t231 289.5l41 69l-250 973h-219l10 56h252l266 -1039l-53 -88q-129 -214 -249 -309.5t-251 -95.5q-56 0 -106 14.5t-99 56t-77 107.5zM49 1034l8 56h582l-8 -56h-582zM326 1006h299l-11 -56h-219l209 -809l492 809h-219l10 56h309l-612 -1004zM500 1413q0 51 36 87t87 36 q52 0 88.5 -36t36.5 -87t-36.5 -88t-88.5 -37q-51 0 -87 37t-36 88zM553 1413q0 -29 20.5 -50.5t49.5 -21.5q30 0 50.5 21t20.5 51t-20.5 51t-50.5 21q-29 0 -49.5 -21.5t-20.5 -50.5zM582 1413q0 18 11.5 30.5t29.5 12.5q19 0 31 -12t12 -31t-11.5 -31t-31.5 -12 q-17 0 -29 12t-12 31zM893 1034l10 56h582l-10 -56h-582zM924 1413q0 51 36 87t87 36t87.5 -36t36.5 -87t-36.5 -88t-87.5 -37t-87 37t-36 88zM975 1413q0 -29 21.5 -50.5t50.5 -21.5t50 21.5t21 50.5t-21 50.5t-50 21.5t-50.5 -21.5t-21.5 -50.5zM1004 1413q0 18 12.5 30.5 t30.5 12.5q19 0 31 -12t12 -31t-12 -31t-31 -12q-18 0 -30.5 12.5t-12.5 30.5z" />
<glyph unicode="&#x152;" horiz-adv-x="2310" d="M109 692q0 205 76.5 376.5t209 286.5t314 178.5t389.5 63.5h1263l-67 -393h-58l60 338h-1198q-264 0 -475.5 -102.5t-335 -297.5t-123.5 -450q0 -126 52 -242.5t141 -203.5t216 -139t269 -52h1216l58 336h59l-72 -391h-1261q-155 0 -292.5 56t-233.5 150t-151.5 221 t-55.5 265zM193 692q0 188 68.5 343t189.5 259.5t287 161.5t360 57h245l-249 -1429h-252q-138 0 -260 49t-206.5 131.5t-133.5 194t-49 233.5zM248 692q0 -110 45 -211.5t123 -176.5t189.5 -120t236.5 -45h205l231 1319h-180q-182 0 -338 -54t-269.5 -152t-178 -242.5 t-64.5 -317.5zM1122 84l127 717h701l-11 -56h-643l-106 -606h797l43 252h57l-53 -307h-912zM1253 829l121 684h889l-55 -309h-58l48 254h-777l-100 -573h645l-10 -56h-703z" />
<glyph unicode="&#x153;" horiz-adv-x="2168" d="M59 502q0 163 84.5 302.5t225.5 219.5t303 80q157 0 283 -81t190 -214q84 135 227 215t309 80q173 0 277 -87.5t104 -225.5q0 -125 -86 -214t-221 -130t-301 -41q-117 0 -250 20q24 -139 131 -227t267 -88q183 0 340 122l34 -43q-175 -135 -374 -135q-206 0 -332.5 126 t-128.5 315q168 -35 313 -35q152 0 275.5 37t200.5 113t77 180q0 116 -86.5 187t-239.5 71q-189 0 -341 -113t-205 -287q-27 171 -157 285.5t-306 114.5q-145 0 -273.5 -73.5t-206 -200.5t-77.5 -273q0 -198 136.5 -336.5t334.5 -138.5q182 0 330.5 111.5t201.5 283.5 q27 -172 158 -283.5t326 -111.5q213 0 391 141l35 -43q-84 -68 -194 -111t-232 -43q-172 0 -300.5 79t-193.5 214q-83 -134 -223 -213.5t-299 -79.5q-148 0 -269 71t-189.5 192.5t-68.5 267.5zM143 502q0 140 73 260t194.5 189t261.5 69q188 0 314 -129t126 -318 q0 -141 -72 -260.5t-193 -188.5t-261 -69q-189 0 -316 129t-127 318zM201 502q0 -164 111 -277.5t274 -113.5q123 0 232 62.5t174 169.5t65 230q0 164 -111 278t-274 114q-123 0 -232 -62.5t-174 -170t-65 -230.5zM1141 524q7 137 81.5 251t196 179.5t262.5 65.5 q140 0 218.5 -63t78.5 -166q0 -95 -70.5 -164.5t-188 -103.5t-265.5 -34t-313 35zM1202 569q126 -22 252 -22q204 0 336.5 67.5t132.5 176.5q0 76 -63.5 125t-178.5 49q-178 0 -314.5 -114t-164.5 -282z" />
<glyph unicode="&#x178;" horiz-adv-x="1624" d="M104 1458l11 55h264l407 -890l-96 -539h-287l11 55h229l84 475l-387 844h-236zM121 1542l10 55h600l-8 -55h-602zM387 0l10 55h604l-10 -55h-604zM408 1513h309l-10 -55h-211l321 -702l567 702h-198l10 55h307l-698 -862zM686 1872q0 51 36 87t87 36q52 0 88.5 -36 t36.5 -87t-36.5 -88t-88.5 -37q-51 0 -87 37t-36 88zM719 84l96 537l721 892h264l-10 -55h-223l-701 -866l-80 -453h232l-10 -55h-289zM739 1872q0 -29 20.5 -50.5t49.5 -21.5q30 0 51 21t21 51t-21 51t-51 21q-29 0 -49.5 -21.5t-20.5 -50.5zM768 1872q0 18 11.5 30.5 t29.5 12.5q19 0 31 -12t12 -31t-11.5 -31t-31.5 -12q-17 0 -29 12t-12 31zM1110 1872q0 51 36 87t87 36t88 -36t37 -87t-37 -88t-88 -37t-87 37t-36 88zM1161 1872q0 -29 21.5 -50.5t50.5 -21.5t50.5 21.5t21.5 50.5t-21.5 50.5t-50.5 21.5t-50.5 -21.5t-21.5 -50.5z M1190 1872q0 18 12.5 30.5t30.5 12.5q19 0 31 -12t12 -31t-12 -31t-31 -12q-18 0 -30.5 12.5t-12.5 30.5zM1202 1542l8 55h607l-11 -55h-604z" />
<glyph unicode="&#x2c6;" horiz-adv-x="671" d="M-244 1391l398 254l313 -261l-37 -43l-280 236l-365 -234zM-199 1319l344 221l269 -219l-37 -43l-236 195l-311 -201z" />
<glyph unicode="&#x2dc;" horiz-adv-x="645" d="M143 1315q8 49 26.5 95t49.5 91.5t81 73t112 27.5q108 0 200 -119q30 -38 52.5 -54t46.5 -16q51 0 83.5 48t45.5 124l53 -10q-38 -217 -182 -217q-42 0 -72 21.5t-68 66.5q-37 48 -73.5 74t-85.5 26q-48 0 -86.5 -22t-63.5 -58.5t-40.5 -76.5t-22.5 -84zM227 1300 q10 58 30 104t60.5 80t94.5 34q42 0 71.5 -21.5t65.5 -66.5q39 -48 76 -74.5t86 -26.5q38 0 71 14.5t55.5 38t40.5 56t28 64.5t16 67l55 -8q-8 -49 -26 -95t-48.5 -91.5t-80 -73t-111.5 -27.5q-113 0 -201 119q-30 38 -52 53.5t-46 15.5q-51 0 -83.5 -48t-45.5 -124z" />
<glyph unicode="&#x2000;" horiz-adv-x="1077" />
<glyph unicode="&#x2001;" horiz-adv-x="2154" />
<glyph unicode="&#x2002;" horiz-adv-x="1077" />
<glyph unicode="&#x2003;" horiz-adv-x="2154" />
<glyph unicode="&#x2004;" horiz-adv-x="718" />
<glyph unicode="&#x2005;" horiz-adv-x="538" />
<glyph unicode="&#x2006;" horiz-adv-x="359" />
<glyph unicode="&#x2007;" horiz-adv-x="359" />
<glyph unicode="&#x2008;" horiz-adv-x="269" />
<glyph unicode="&#x2009;" horiz-adv-x="430" />
<glyph unicode="&#x200a;" horiz-adv-x="119" />
<glyph unicode="&#x2010;" horiz-adv-x="817" d="M131 567l8 56h518l-8 -56h-518zM145 651l11 58h518l-10 -58h-519z" />
<glyph unicode="&#x2011;" horiz-adv-x="817" d="M131 567l8 56h518l-8 -56h-518zM145 651l11 58h518l-10 -58h-519z" />
<glyph unicode="&#x2012;" horiz-adv-x="817" d="M131 567l8 56h518l-8 -56h-518zM145 651l11 58h518l-10 -58h-519z" />
<glyph unicode="&#x2013;" horiz-adv-x="1236" d="M131 567l10 56h936l-10 -56h-936zM147 651l11 58h936l-11 -58h-936z" />
<glyph unicode="&#x2014;" horiz-adv-x="1562" d="M131 567l10 56h1262l-10 -56h-1262zM147 651l11 58h1261l-10 -58h-1262z" />
<glyph unicode="&#x2018;" horiz-adv-x="538" d="M217 1243q0 59 30.5 123t73.5 114t86.5 92t74.5 64l30 23l31 -41q-11 -8 -30 -22t-66.5 -57t-84 -85.5t-66.5 -101.5t-30 -111q0 -41 22.5 -63.5t53.5 -22.5q30 0 51 21t21 51q0 28 -17.5 46.5t-40.5 20.5l-4 -28q13 -2 23 -12.5t10 -26.5q0 -18 -12.5 -30.5t-30.5 -12.5 q-20 0 -33.5 15t-13.5 42q0 48 27.5 102t66.5 97t78 79t67 56l27 20l29 -41q-16 -11 -41 -30.5t-81 -75.5t-87 -107q33 -8 58.5 -39.5t25.5 -74.5q0 -53 -35.5 -88t-87.5 -35q-51 0 -88 37.5t-37 101.5z" />
<glyph unicode="&#x2019;" horiz-adv-x="532" d="M201 1202q16 11 41 30.5t81 75.5t87 107q-33 8 -58.5 40t-25.5 75q0 52 35 87.5t88 35.5q50 0 87 -38t37 -102q0 -59 -30.5 -123t-73.5 -114t-86 -91.5t-73 -64.5l-31 -22l-31 41q11 8 29.5 22t66.5 57t84 85.5t66 101.5t30 111q0 41 -22 63.5t-53 22.5q-30 0 -51 -21 t-21 -51q0 -28 17 -47t40 -21l4 29q-13 2 -22.5 12.5t-9.5 26.5q0 18 12.5 30.5t30.5 12.5q20 0 33.5 -15t13.5 -42q0 -48 -27.5 -102t-67 -97t-78.5 -79.5t-67 -56.5l-27 -20z" />
<glyph unicode="&#x201a;" horiz-adv-x="632" d="M-23 -231q16 11 41 30.5t81 75.5t87 107q-33 8 -58.5 39.5t-25.5 74.5q0 52 35 87.5t88 35.5q51 0 88 -37.5t37 -101.5q0 -59 -30.5 -123t-73.5 -114t-86.5 -92t-73.5 -65l-31 -22l-30 41q11 8 29.5 22t66.5 57t84 85.5t66 101.5t30 111q0 41 -22.5 63.5t-53.5 22.5 q-30 0 -50.5 -21t-20.5 -51q0 -28 17 -46.5t40 -20.5l4 28q-13 2 -23 12.5t-10 26.5q0 18 12.5 30.5t30.5 12.5q20 0 33.5 -15t13.5 -42q0 -48 -27.5 -102t-66.5 -97t-78 -79t-66 -56l-28 -20z" />
<glyph unicode="&#x201c;" horiz-adv-x="903" d="M215 1243q0 59 30.5 123t73.5 114t86.5 92t74.5 64l30 23l31 -41q-11 -8 -30 -22t-66.5 -57t-84 -85.5t-66.5 -101.5t-30 -111q0 -41 22.5 -63.5t53.5 -22.5q30 0 51 21t21 51q0 28 -17.5 46.5t-40.5 20.5l-4 -28q13 -2 23 -12.5t10 -26.5q0 -18 -12.5 -30.5t-30.5 -12.5 q-20 0 -33.5 15t-13.5 42q0 48 27.5 102t66.5 97t78 79t67 56l27 20l29 -41q-16 -11 -41 -30.5t-81 -75.5t-87 -107q33 -8 58.5 -39.5t25.5 -74.5q0 -53 -35.5 -88t-87.5 -35q-51 0 -88 37.5t-37 101.5zM582 1243q0 43 16.5 89t42.5 85.5t57.5 77t62.5 67t57 51.5t42 34 l17 12l30 -41q-11 -8 -29.5 -22t-66.5 -57t-84 -85.5t-66 -101.5t-30 -111q0 -41 22.5 -63.5t53.5 -22.5q30 0 50.5 21t20.5 51q0 28 -17 46.5t-40 20.5l-4 -28q13 -2 23 -12.5t10 -26.5q0 -18 -12.5 -30.5t-30.5 -12.5q-20 0 -34 15t-14 42q0 48 27.5 102t66.5 97t78.5 79 t66.5 56l28 20l28 -41q-16 -11 -41 -30.5t-81 -75.5t-87 -107q33 -8 58.5 -39.5t25.5 -74.5q0 -53 -35 -88t-87 -35q-51 0 -88 37.5t-37 101.5z" />
<glyph unicode="&#x201d;" horiz-adv-x="897" d="M201 1202q16 11 41 30.5t81 75.5t87 107q-33 8 -58.5 40t-25.5 75q0 52 35 87.5t88 35.5q50 0 87 -38t37 -102q0 -59 -30.5 -123t-73.5 -114t-86 -91.5t-73 -64.5l-31 -22l-31 41q11 8 29.5 22t66.5 57t84 85.5t66 101.5t30 111q0 41 -22 63.5t-53 22.5q-30 0 -51 -21 t-21 -51q0 -28 17 -47t40 -21l4 29q-13 2 -22.5 12.5t-9.5 26.5q0 18 12.5 30.5t30.5 12.5q20 0 33.5 -15t13.5 -42q0 -48 -27.5 -102t-67 -97t-78.5 -79.5t-67 -56.5l-27 -20zM567 1202q16 11 41 30.5t81 75.5t87 107q-33 8 -58.5 40t-25.5 75q0 52 35 87.5t88 35.5 q50 0 87.5 -38t37.5 -102q0 -59 -30.5 -123t-74 -114t-86.5 -91.5t-73 -64.5l-31 -22l-31 41q11 8 30 22t66.5 57t84 85.5t66.5 101.5t30 111q0 41 -22.5 63.5t-53.5 22.5q-30 0 -51 -21t-21 -51q0 -28 17.5 -47t40.5 -21l4 29q-13 2 -23 12.5t-10 26.5q0 18 12.5 30.5 t30.5 12.5q20 0 33.5 -15t13.5 -42q0 -48 -27.5 -102t-66.5 -97t-78 -79.5t-66 -56.5l-28 -20z" />
<glyph unicode="&#x201e;" horiz-adv-x="997" d="M-23 -231q16 11 41 30.5t81 75.5t87 107q-33 8 -58.5 39.5t-25.5 74.5q0 52 35 87.5t88 35.5q51 0 88 -37.5t37 -101.5q0 -59 -30.5 -123t-73.5 -114t-86.5 -92t-73.5 -65l-31 -22l-30 41q11 8 29.5 22t66.5 57t84 85.5t66 101.5t30 111q0 41 -22.5 63.5t-53.5 22.5 q-30 0 -50.5 -21t-20.5 -51q0 -28 17 -46.5t40 -20.5l4 28q-13 2 -23 12.5t-10 26.5q0 18 12.5 30.5t30.5 12.5q20 0 33.5 -15t13.5 -42q0 -48 -27.5 -102t-66.5 -97t-78 -79t-66 -56l-28 -20zM344 -231q16 11 41 30.5t81 75.5t87 107q-33 8 -58.5 39.5t-25.5 74.5 q0 52 35.5 87.5t87.5 35.5q51 0 88 -37.5t37 -101.5q0 -59 -30.5 -123t-73.5 -114t-86.5 -92t-74.5 -65l-30 -22l-31 41q11 8 30 22t66.5 57t84 85.5t66.5 101.5t30 111q0 41 -22.5 63.5t-53.5 22.5q-30 0 -51 -21t-21 -51q0 -28 17.5 -46.5t40.5 -20.5l4 28q-13 2 -23 12.5 t-10 26.5q0 18 12.5 30.5t30.5 12.5q20 0 33.5 -15t13.5 -42q0 -48 -27.5 -102t-66.5 -97t-78 -79t-67 -56l-27 -20z" />
<glyph unicode="&#x2022;" horiz-adv-x="937" d="M176 643q0 120 83.5 203.5t203.5 83.5q121 0 205 -83.5t84 -203.5q0 -121 -84 -205t-205 -84q-120 0 -203.5 84t-83.5 205zM231 643q0 -97 68.5 -165t163.5 -68q97 0 165 68t68 165q0 95 -68 163t-165 68q-95 0 -163.5 -68t-68.5 -163zM260 643q0 85 59 144t144 59 q86 0 145.5 -59t59.5 -144q0 -86 -59.5 -145.5t-145.5 -59.5q-85 0 -144 59.5t-59 145.5z" />
<glyph unicode="&#x2026;" horiz-adv-x="1288" d="M43 102q0 51 36.5 88t88.5 37q51 0 87 -37t36 -88t-36 -86.5t-87 -35.5q-52 0 -88.5 35.5t-36.5 86.5zM96 102q0 -30 21 -50.5t51 -20.5q29 0 49.5 21t20.5 50t-20.5 50.5t-49.5 21.5q-30 0 -51 -21t-21 -51zM125 102q0 19 11.5 31t31.5 12q17 0 29 -12t12 -31 q0 -18 -11.5 -30.5t-29.5 -12.5q-19 0 -31 12t-12 31zM420 102q0 51 36.5 88t88.5 37q51 0 87 -37t36 -88t-36 -86.5t-87 -35.5q-52 0 -88.5 35.5t-36.5 86.5zM473 102q0 -30 20.5 -50.5t51.5 -20.5q29 0 49 21t20 50q0 30 -20 51t-49 21q-30 0 -51 -21t-21 -51zM502 102 q0 19 11.5 31t31.5 12q17 0 29 -12t12 -31q0 -18 -11.5 -30.5t-29.5 -12.5q-19 0 -31 12t-12 31zM797 102q0 51 36.5 88t88.5 37q51 0 86.5 -37t35.5 -88t-35.5 -86.5t-86.5 -35.5q-52 0 -88.5 35.5t-36.5 86.5zM850 102q0 -30 21 -50.5t51 -20.5q29 0 49 21t20 50 q0 30 -20 51t-49 21q-30 0 -51 -21t-21 -51zM879 102q0 19 11.5 31t31.5 12q17 0 29 -12t12 -31q0 -18 -11.5 -30.5t-29.5 -12.5q-19 0 -31 12t-12 31z" />
<glyph unicode="&#x202f;" horiz-adv-x="430" />
<glyph unicode="&#x2039;" horiz-adv-x="722" d="M104 596l43 33l316 -412l-43 -33zM113 690l458 410l37 -41l-458 -412zM178 635l449 401l37 -41l-410 -366l276 -361l-43 -35z" />
<glyph unicode="&#x203a;" horiz-adv-x="720" d="M49 281l410 366l-277 361l43 34l310 -401l-449 -401zM104 217l459 412l37 -43l-459 -410zM250 1059l43 33l315 -412l-43 -33z" />
<glyph unicode="&#x205f;" horiz-adv-x="538" />
<glyph unicode="&#x20ac;" horiz-adv-x="1875" d="M78 551l10 55h256q46 -252 240 -416.5t458 -164.5q163 0 308.5 53.5t287.5 173.5l39 -41q-282 -242 -635 -242q-274 0 -477 163t-266 419h-221zM94 635l10 55h175q-3 24 -3 53q0 81 15 158h-152l11 55h212q-30 -105 -30 -213q0 -61 8 -108h-246zM156 985l10 55h164 q98 258 331 423t513 165q156 0 294.5 -56.5t223.5 -158.5l32 184h58l-64 -352q-42 147 -197 237.5t-347 90.5q-272 0 -496 -166.5t-307 -421.5h-215zM360 743q0 108 31 213h799l-10 -55h-746q-18 -77 -18 -158q0 -37 2 -53h641l-10 -55h-680q-9 53 -9 108zM373 606h669 l-10 -55h-590q59 -196 222.5 -319t377.5 -123q152 0 282.5 47t260.5 159l35 -41q-134 -118 -275.5 -169.5t-302.5 -51.5q-255 0 -439.5 156t-229.5 397zM399 985q83 244 298.5 401.5t476.5 157.5q139 0 257.5 -46.5t193.5 -135t79 -201.5l-43 -246h-57l43 250 q-7 93 -73.5 167.5t-172 115.5t-227.5 41q-221 0 -411 -125.5t-282 -323.5h725l-10 -55h-797zM1690 915l120 682h58l-121 -682h-57z" />
<glyph unicode="&#x2122;" horiz-adv-x="1636" d="M240 1477l8 45h248l-97 -537h-47l88 492h-200zM254 1550l6 47h522l-8 -47h-520zM428 985l96 537h244l-8 -45h-197l-88 -492h-47zM813 985l107 619l47 -9l-107 -610h-47zM889 985l96 551l176 -475l-43 -17l-117 316l-65 -375h-47zM995 1597l43 19l156 -422l315 436l37 -28 l-366 -506zM1188 1057l344 475l-98 -547h-48l64 356l-225 -311zM1462 985l111 606l45 -8l-109 -598h-47z" />
<glyph unicode="&#x25fc;" horiz-adv-x="1085" d="M0 0v1085h1085v-1085h-1085z" />
</font>
</defs>
</svg>
